<svg width="113" height="61" viewBox="0 0 113 61" fill="none" xmlns="http://www.w3.org/2000/svg">
<rect x="1" y="11" width="51" height="50" fill="white"/>
<path d="M34.4557 47.9136C33.8295 48.5239 33.2128 49.1415 32.6152 49.7709C33.8223 50.634 35.0318 51.4947 36.2461 52.353H57.4095V47.9136H34.4557Z" fill="white"/>
<path d="M57.4096 39.7234V35.1838H47.7123C47.7481 35.3984 47.7649 35.6178 47.7649 35.8323V35.9611H47.7577C47.7147 36.5047 47.4063 37.0102 47.1099 37.4465C47.0191 37.5776 46.9283 37.7087 46.8279 37.8375C46.761 37.9209 46.6749 38.0091 46.6653 38.0449C46.6056 38.2047 46.5889 38.3978 46.5602 38.598C46.5052 38.97 46.5004 39.4635 46.0176 39.721H57.4096V39.7234Z" fill="white"/>
<path d="M57.4096 35.184V29.3259H44.3277H44.256C44.2799 29.4785 44.2942 29.6311 44.2942 29.7885C44.2942 30.1866 44.2201 30.5896 44.0791 30.9639C44.9372 31.4336 45.6184 32.1846 45.7332 33.1073C46.5578 33.2933 47.2295 33.7701 47.5259 34.5021C47.6143 34.7238 47.6741 34.9527 47.7099 35.184H57.4096Z" fill="#ED1C24"/>
<path d="M36.2461 52.3552C36.411 52.4721 36.5736 52.5889 36.7385 52.7057C36.7696 52.7272 39.7765 55.2306 43.1946 58.0798H57.412V52.3552H36.2461Z" fill="#ED1C24"/>
<path d="M35.9064 45.7018L35.1535 47.1347C35.1726 47.1371 35.2013 47.1419 35.2347 47.149C35.1559 47.2253 35.0794 47.304 35.0005 47.3803C34.8164 47.5567 34.6372 47.7356 34.4531 47.9144H57.4093V39.7222H46.022C45.9838 39.7412 45.9455 39.7603 45.9025 39.777C45.5822 39.901 45.2882 39.9797 45.0683 40.168C44.8843 40.3254 44.7026 40.4804 44.5186 40.6329C44.1337 40.9548 43.7274 41.2671 43.3927 41.6129C43.0533 41.9586 42.5705 42.1755 42.1665 42.3973C41.6526 42.6762 41.1435 42.9552 40.6487 43.2556C40.6009 43.2842 40.5531 43.3128 40.5053 43.3414L40.4121 43.0148L39.6544 43.5107L38.7365 44.1711L37.7397 44.6671L36.504 45.2035L35.9064 45.7018Z" fill="#2B3990"/>
<path d="M44.5811 39.7649C44.6313 39.741 44.6791 39.722 44.7245 39.7029H44.7269C44.9539 39.6075 45.1762 39.536 45.3507 39.4597C45.475 39.4049 45.5611 39.3453 45.5921 39.2976C45.6352 39.2451 45.7069 38.9256 45.7499 38.6324C45.8049 38.3248 45.8312 38.0554 45.9172 37.898C46.2662 37.4713 46.969 36.4985 46.9642 35.9287C46.9618 35.8977 46.9642 35.8738 46.9642 35.8571C46.9546 35.1872 46.8566 33.8448 45.2671 33.5659L45.2097 33.7685L45.1476 33.79C45.1476 33.79 44.691 33.9426 44.3086 34.1429C44.4185 34.3098 44.4974 34.4767 44.5022 34.6388C44.507 34.7342 44.4544 34.8534 44.3516 34.8987L44.311 34.9177L44.2703 34.9058C43.8711 34.789 43.4983 34.3694 43.111 33.9354L43.0584 33.8758L43.0895 33.8019C43.1565 33.6183 43.3118 33.5087 43.4672 33.5134C43.7206 33.523 43.9548 33.7137 44.1508 33.9354C44.4448 33.6899 44.801 33.3847 45.0089 33.2059C44.942 32.7314 44.6336 31.978 43.613 31.4368L43.5508 31.5703L43.4911 31.5822C43.4911 31.5822 43.2234 31.637 42.9198 31.7253L42.9413 31.7729C42.9365 31.7777 42.8672 31.8159 42.7549 31.854L42.9557 41.1644C43.4337 40.721 44.3325 39.9866 44.5811 39.7649ZM43.9524 39.6409L43.4337 40.2465L43.405 38.4536L43.9835 39.1974L44.593 38.9995L44.6886 39.2332L43.9524 39.6409ZM46.063 34.2049C46.5339 34.3288 46.6534 34.7222 46.6439 34.9678C46.6439 35.1276 46.6104 35.2396 46.608 35.2468L46.369 35.1848C46.3762 35.1395 46.3833 35.0989 46.3833 35.0656C46.3953 34.7103 45.9722 34.4361 45.9674 34.4361L46.063 34.2049Z" fill="white"/>
<path d="M43.381 29.4878C43.381 29.4902 43.381 29.4902 43.381 29.4878C43.3834 29.495 43.3834 29.4974 43.3834 29.4974L43.1444 29.557C43.0655 29.2542 42.8814 29.0348 42.6806 28.8822L42.7189 30.6394C42.8217 30.5655 43.0057 30.4153 43.2328 30.1673L43.4336 30.3104L43.1922 30.8254L43.1635 30.8897L43.0966 30.8969L42.7284 30.935L42.738 31.4214C43.0105 31.2498 43.2878 31.0686 43.4599 30.9565L43.4623 30.9517C43.6009 30.637 43.8399 29.9909 43.8399 29.34C43.8399 28.9681 43.7634 28.5985 43.5531 28.279L43.5627 28.2719L43.2089 27.9428L43.1659 27.9047C43.0177 27.8165 42.8527 27.764 42.6567 27.7378L42.6711 28.4388C43.2017 28.7392 43.3595 29.3948 43.381 29.4878Z" fill="white"/>
<path d="M5.27339 30.6347C5.27339 30.637 5.271 30.6394 5.271 30.6394C5.271 30.6418 5.271 30.6442 5.26861 30.649L5.02719 30.5989C5.02958 30.5965 5.21124 29.3734 6.28686 29.3424L6.29164 28.7845C6.22233 28.7797 6.1554 28.7773 6.09325 28.7773C6.06935 28.7773 6.04545 28.7797 6.02154 28.7797C6.01915 28.7797 6.01915 28.7797 6.01915 28.7797C5.71798 28.7869 5.4909 28.8417 5.2949 28.9395L5.28534 28.9514L5.22558 29.0182L4.82641 29.3901L4.76904 29.4735C4.62562 29.7501 4.56587 30.0505 4.56348 30.3581C4.56348 31.0424 4.85031 31.7362 5.00807 32.0557C5.25188 32.2011 5.70603 32.4705 6.0574 32.6732C6.09803 32.6875 6.13628 32.7042 6.16974 32.7161C6.19842 32.7137 6.2295 32.7113 6.25818 32.7066L6.28447 29.6333C6.01915 29.7334 5.4168 30.01 5.27339 30.6347ZM5.76339 32.0104L5.37378 31.9841L5.30446 31.9794L5.01285 31.4095L5.20885 31.2593C5.56978 31.6289 5.82554 31.7672 5.82793 31.7672L5.76339 32.0104Z" fill="white"/>
<path d="M6.12097 34.0274C6.01818 34.0274 5.97038 33.8962 5.97038 33.8557C5.97038 33.8032 5.98233 33.7556 6.00145 33.696C6.09228 33.3836 6.18072 33.1881 6.24765 33.0713L5.87716 32.9521C5.69311 32.9139 5.57359 32.8519 5.56642 32.8496L5.58555 32.8019C5.2772 32.7232 5.00949 32.6827 5.00949 32.6827L4.94734 32.6731L4.91866 32.6159L4.88042 32.542C3.88128 33.1214 3.60162 33.8891 3.55142 34.3659C3.76416 34.5352 4.13226 34.8261 4.43582 35.0597C4.62466 34.8237 4.85651 34.621 5.11705 34.6115C5.26764 34.6067 5.41823 34.7116 5.48993 34.8833L5.5234 34.9572L5.47081 35.0192C5.10271 35.4674 4.74417 35.9014 4.34978 36.0325L4.30675 36.0468L4.26612 36.0301C4.15377 35.9872 4.0988 35.8585 4.10358 35.7607C4.10597 35.6033 4.17768 35.4388 4.27807 35.2743C3.89084 35.0907 3.42713 34.9548 3.42474 34.9548L3.3602 34.9358L3.34586 34.8666L3.30045 34.7307C1.84716 35.043 1.69657 36.1946 1.68701 36.9099C1.68701 36.9957 1.69179 37.0768 1.69418 37.1459C1.71091 37.7253 2.44951 38.6671 2.81522 39.0819L2.72439 39.1654L2.82717 39.0939C2.90844 39.2321 2.94669 39.5016 3.01122 39.8067C3.06859 40.1 3.14986 40.4171 3.19288 40.4648C3.22635 40.5125 3.31718 40.5697 3.44386 40.6198H3.44625C3.60879 40.6841 3.82631 40.7485 4.0725 40.8415L4.07489 40.8391C4.1227 40.8558 4.17289 40.8749 4.22309 40.8963L4.20875 40.9345C4.21592 40.9392 4.2207 40.9464 4.22787 40.9512L4.25655 40.9154C4.541 41.1562 5.86999 42.1552 6.18072 42.4628L6.25482 33.9725C6.20941 34.0011 6.16877 34.0178 6.12097 34.0274ZM2.23916 36.259C2.23916 36.2995 2.24395 36.3448 2.25829 36.3925L2.02404 36.4688C2.02165 36.4593 1.97384 36.3281 1.97384 36.1517C1.96667 35.9061 2.08619 35.539 2.52839 35.4031L2.62878 35.632C2.63117 35.6391 2.22721 35.9133 2.23916 36.259ZM4.86368 40.7509L4.11314 40.3742L4.19919 40.1358L4.81588 40.3098L5.36564 39.5469L5.40388 41.3374L4.86368 40.7509Z" fill="white"/>
<path d="M5.20772 31.262L5.01172 31.4122L5.30333 31.982L5.37265 31.9868L5.76226 32.013L5.8268 31.7722C5.8268 31.7698 5.56865 31.6315 5.20772 31.262Z" fill="black"/>
<path d="M4.8189 40.3101L4.19982 40.136L4.11377 40.3744L4.86431 40.7512L5.40691 41.3377L5.36627 39.5471L4.8189 40.3101Z" fill="black"/>
<path d="M7.16857 36.0634C7.16379 36.061 7.16379 36.061 7.16379 36.061L7.15901 36.0586L7.03711 36.2779C7.03711 36.2803 10.0273 38.1567 12.2694 39.5396L12.334 39.4299L12.2838 39.5467L14.1004 40.3574L14.2079 40.1285L7.16857 36.0634Z" fill="black"/>
<path d="M9.67074 34.4266L14.6999 39.3715L14.8815 39.1999L13.5382 37.4975L13.4426 37.5762L13.5143 37.4737C11.9797 36.2959 10.1464 34.5387 9.86914 34.274L9.83328 34.2383L9.66357 34.4219C9.66596 34.4242 9.66835 34.4242 9.67074 34.4266Z" fill="black"/>
<path d="M5.0293 30.5969L5.27071 30.647C5.27071 30.6446 5.2731 30.6422 5.2731 30.6375C5.2731 30.6375 5.2731 30.6351 5.27549 30.6327C5.41891 30.0104 6.02126 29.7315 6.28897 29.6361C6.36785 29.6075 6.42043 29.5956 6.42043 29.5932L6.4037 29.3405C6.37502 29.3381 6.34395 29.3357 6.31048 29.3357C6.30331 29.3357 6.29853 29.3381 6.29375 29.3381C5.21335 29.3738 5.03169 30.5969 5.0293 30.5969Z" fill="black"/>
<path d="M1.97393 36.1518C1.97393 36.3306 2.01935 36.4593 2.02413 36.4689L2.25837 36.3926C2.24403 36.3449 2.23925 36.2996 2.23925 36.2591C2.2273 35.9134 2.63126 35.6368 2.63126 35.6344L2.53087 35.4055C2.08628 35.539 1.96676 35.9062 1.97393 36.1518Z" fill="black"/>
<path d="M15.6707 46.6623L14.2628 45.6013L14.1074 45.7992C14.1074 45.7992 14.4684 46.1306 14.8436 46.5455C15.1974 46.9269 15.5583 47.4038 15.6348 47.678L15.6468 47.7328L15.8882 47.6828C15.8858 47.6756 15.8834 47.6684 15.8834 47.6637L15.6707 46.6623Z" fill="black"/>
<path d="M18.0151 37.6305C18.0199 37.6329 18.4071 38.5723 18.4024 39.0587C18.4024 39.123 18.3952 39.1779 18.3832 39.2184L18.6199 39.2899C18.6223 39.2852 18.6223 39.2804 18.6247 39.2756L18.8254 38.5627L18.2374 37.5137L18.0151 37.6305Z" fill="black"/>
<path d="M43.1585 30.8921L43.1872 30.8277L43.4286 30.3127L43.2278 30.1697C43.0032 30.42 42.8167 30.5678 42.7139 30.6418C42.659 30.6823 42.6255 30.7014 42.6255 30.7037L42.6996 30.9398L42.7211 30.9374L43.0892 30.8993L43.1585 30.8921Z" fill="black"/>
<path d="M43.9832 39.1965L43.4048 38.4526L43.4335 40.2456L43.9522 39.64L44.6884 39.2299L44.5927 38.9962L43.9832 39.1965Z" fill="black"/>
<path d="M34.6879 39.6117L34.6999 39.6046L34.7023 39.6022L36.4735 38.7248L36.4209 38.6103L36.4878 38.7176C38.6295 37.2752 41.4715 35.3344 41.591 35.2533C41.5934 35.251 41.5934 35.251 41.5934 35.251L41.462 35.0364L41.4572 35.0388C41.4572 35.0388 41.4548 35.0411 41.45 35.0435L34.5708 39.3852L34.6879 39.6117Z" fill="black"/>
<path d="M38.8948 33.5038L38.7179 33.325L38.7108 33.3321C38.5793 33.4704 36.7173 35.4088 35.1612 36.7034L35.2377 36.8012L35.1397 36.7249L33.8633 38.482L34.0521 38.6466L38.8948 33.5038Z" fill="black"/>
<path d="M43.1445 29.5592L43.3835 29.4996C43.3835 29.4996 43.3835 29.4972 43.3811 29.49V29.4877C43.3596 29.3947 43.2019 28.739 42.6712 28.4386C42.5183 28.3528 42.3342 28.2932 42.1095 28.2908C42.0641 28.2908 42.0139 28.2932 41.9637 28.3003L41.9565 28.5507C41.9589 28.5507 42.3414 28.6269 42.6784 28.8844C42.8816 29.0394 43.0656 29.2564 43.1445 29.5592Z" fill="black"/>
<path d="M46.3837 35.0677C46.3837 35.1011 46.3789 35.1417 46.3693 35.187L46.6084 35.2489C46.6107 35.2394 46.6442 35.1273 46.6442 34.97C46.6538 34.7244 46.5343 34.331 46.0634 34.207L45.9678 34.4407C45.9726 34.4383 46.3956 34.7101 46.3837 35.0677Z" fill="black"/>
<path d="M33.4206 47.039C33.4206 47.0366 33.4206 47.0366 33.423 47.0342L33.4326 46.9842C33.5688 46.3881 34.8882 45.0529 34.8882 45.0505L34.7257 44.8574L34.7161 44.8646L33.3585 45.9732L33.184 46.9722C33.1816 46.9818 33.1816 46.9913 33.1792 47.0008L33.423 47.0414L33.4206 47.039Z" fill="black"/>
<path d="M30.4497 36.9363L29.9023 38.0068L29.9191 38.0592L30.1342 38.7244C30.1342 38.7244 30.1366 38.7268 30.1366 38.7292L30.3684 38.6434L30.3661 38.641C30.3661 38.6386 30.3637 38.6362 30.3637 38.6315L30.3613 38.6195C30.3469 38.5742 30.3398 38.5146 30.3398 38.4431C30.3374 37.9472 30.6744 37.046 30.6744 37.0436L30.4497 36.9363Z" fill="black"/>
<path d="M17.6523 32.5474C18.1351 33.2793 18.6251 34.5 18.6251 36.4551L18.869 36.4718L19.2825 33.3198L16.8826 30.8569L16.6006 31.5197L16.7058 31.5746C16.7058 31.5746 17.1671 31.813 17.6523 32.5474Z" fill="black"/>
<path d="M29.8878 35.3793C29.9739 33.4267 30.5165 32.2298 31.0304 31.5217C31.5443 30.8112 32.02 30.6013 32.02 30.5942L32.1251 30.5441L32.0821 30.4321L31.9363 30.041L31.8718 29.8694L29.3691 32.2202L29.644 35.3865L29.8878 35.3793Z" fill="black"/>
<path d="M35.1492 47.146L35.1563 47.1341C35.1137 47.1293 35.1042 47.1317 35.1492 47.146Z" fill="#2B3990"/>
<path d="M63.8564 35.351V34.8289H112.965V35.351H63.8564Z" fill="#ED1C24"/>
<path d="M0 2.11743V26.0646H0.0143416V58.0801V60.9149H60.3328V60.2068H60.3376V26.0646V2.11743H0ZM7.43853 43.1858C6.88637 42.9116 6.31032 42.6088 6.19319 42.4824C6.18841 42.4777 6.18124 42.4705 6.17646 42.4658C5.86334 42.1606 4.53674 41.1592 4.25229 40.9184L4.22361 40.9542C4.21644 40.9494 4.21166 40.9422 4.20449 40.9375L4.21883 40.8993C4.17102 40.8779 4.11844 40.8588 4.07063 40.8421L4.06824 40.8445C3.82204 40.7515 3.60453 40.6871 3.44199 40.6227C3.44199 40.6227 3.44199 40.6227 3.4396 40.6227C3.31292 40.5727 3.22209 40.5154 3.18862 40.4678C3.1456 40.4201 3.06194 40.103 3.00696 39.8097C2.94242 39.5045 2.90418 39.2351 2.82291 39.0968L2.72013 39.1684L2.81096 39.0849C2.44764 38.6701 1.70904 37.7283 1.68992 37.1489C1.68514 37.0774 1.68275 36.9987 1.68275 36.9129C1.69231 36.1976 1.84529 35.046 3.29618 34.7337L3.3416 34.8696L3.36072 34.934L3.42526 34.953C3.42765 34.953 3.88897 35.0866 4.27859 35.2725C4.17819 35.437 4.10649 35.6016 4.1041 35.7589C4.09693 35.8567 4.1519 35.9854 4.26663 36.0283L4.30727 36.045L4.35029 36.0307C4.74469 35.8996 5.10323 35.4657 5.47133 35.0174L5.52392 34.9554L5.49045 34.8815C5.41636 34.7075 5.26816 34.6049 5.11757 34.6097C4.85703 34.6193 4.62518 34.8219 4.43634 35.0579C4.13278 34.8243 3.76468 34.5358 3.55194 34.3641C3.59975 33.8873 3.8818 33.1196 4.88093 32.5402L4.91918 32.6141L4.94786 32.6713L5.01001 32.6809C5.01001 32.6809 5.27772 32.7238 5.58607 32.8001L5.56694 32.8478C5.57411 32.8525 5.69363 32.9145 5.87768 32.9503L6.24817 33.0695C6.18124 33.1863 6.0928 33.3818 6.00197 33.6942C5.98285 33.7538 5.97329 33.8038 5.9709 33.8539C5.9709 33.8944 6.0187 34.0256 6.12149 34.0256C6.16929 34.016 6.20993 33.9994 6.24817 33.9755C6.38681 33.8921 6.50154 33.7275 6.72144 33.5058C6.97959 33.2245 7.30945 32.8597 7.66082 32.5235C8.21536 31.9632 8.58347 31.7558 8.63366 31.4649C8.61215 31.2789 8.452 31.2694 8.34683 31.2694C8.22253 31.2694 8.05282 31.2909 7.81858 31.3314C7.29511 31.4339 7.11823 32.0061 7.07759 32.1325C6.80032 32.5426 6.50871 32.6761 6.25773 32.7095C6.22666 32.7143 6.19797 32.7166 6.16929 32.719C6.13583 32.7047 6.09758 32.6904 6.05695 32.6761C5.70558 32.4734 5.24904 32.204 5.00762 32.0586C4.84986 31.7367 4.56303 31.0453 4.56303 30.361C4.56303 30.0535 4.62518 29.7507 4.76859 29.4765L4.82596 29.393L5.22513 29.0211L5.28489 28.9543V28.9472C5.28967 28.9448 5.29206 28.9424 5.29445 28.9424C5.49045 28.8423 5.71992 28.7898 6.0187 28.7827C6.0187 28.7827 6.0187 28.7827 6.02109 28.7827C6.045 28.7827 6.07129 28.7803 6.0928 28.7803C6.15495 28.7803 6.22188 28.7827 6.29119 28.7874C6.67364 28.8065 7.15408 28.8828 7.77794 29.0068L7.89985 29.033L7.92136 28.9043C7.92136 28.9019 7.92375 28.8995 7.92375 28.8971L8.38268 29.3L8.67191 29.5814L9.11172 30.1369L9.53001 30.6376L9.59216 30.6328C10.8614 30.5208 10.9355 29.5957 10.9355 29.5695L10.9379 29.4932L9.93158 28.878L9.91246 29.0783C9.90051 29.25 9.75709 29.6434 9.67104 29.8746C9.56109 29.7435 9.42006 29.61 9.25991 29.4741L9.07347 29.2929L8.31336 28.7684L8.13409 28.6658C8.07434 28.6277 8.02414 28.5967 7.97634 28.5657C8.05282 28.1103 8.1317 27.7813 9.05913 27.3211C9.15952 27.314 9.29816 27.3068 9.45352 27.3068C9.94114 27.3021 10.62 27.376 10.8972 27.6215L10.8996 27.6192C10.9379 27.6525 10.9618 27.6692 10.9618 27.674C11.1315 27.8242 11.2606 27.9911 11.3729 28.1246L11.3849 28.1413H11.3873C11.4829 28.2486 11.5522 28.3511 11.7028 28.3702C12.0016 28.6134 14.2388 30.4945 15.183 32.5116L15.3145 32.7905L15.6754 31.6938L15.618 31.639C15.6156 31.6366 13.4262 29.517 12.3075 28.3606C12.4438 28.3773 12.5848 28.4012 12.7091 28.4393C13.0557 28.5442 16.6004 29.846 17.4036 30.2585C18.0083 30.5661 19.0409 31.2265 19.507 31.8464C19.6672 32.0657 19.7484 32.2541 19.7532 32.4091C19.7532 32.4281 19.7532 32.452 19.7532 32.4758C19.7532 33.3938 19.4018 37.0321 19.3612 37.5042C19.3469 37.6973 19.2943 38.1813 19.2943 38.744C19.2943 39.0015 19.3038 39.2804 19.3373 39.5546C19.4066 40.1602 19.5668 40.761 19.9516 41.133C20.5157 41.6742 22.1411 42.7709 23.7521 43.9106C22.4064 45.1122 21.0105 46.2591 19.5787 47.3892C18.6083 48.1545 17.6306 48.9175 16.6506 49.6804C15.9001 48.9532 15.4196 48.536 15.0061 48.176C14.8436 48.0353 14.693 47.9042 14.54 47.7659C14.5257 47.754 14.5113 47.7397 14.4874 47.7158C14.4874 47.7158 14.485 47.7158 14.485 47.7134C14.4827 47.7111 14.4803 47.7111 14.4779 47.7063C13.7273 47.0125 13.6341 46.5046 13.2995 46.2042C13.0246 45.9753 12.5728 45.8037 12.341 45.725L12.3362 45.7226L12.3147 45.7155C12.2788 45.7035 12.2478 45.694 12.2262 45.6892C12.0924 45.6558 11.1267 45.384 10.7275 45.0789C10.7251 45.0765 10.7228 45.0765 10.7204 45.0741L10.7084 45.0669C10.4359 44.8548 9.86704 44.5186 9.32923 44.211C9.30772 44.1991 9.28621 44.1848 9.26708 44.1729C9.19777 44.1347 9.12845 44.0966 9.06391 44.0584C9.03284 44.0417 9.00176 44.0227 8.97308 44.006C8.86791 43.9464 8.76035 43.8868 8.65278 43.8271C8.58586 43.789 8.52371 43.7532 8.46634 43.7222C8.28707 43.6221 8.02892 43.4934 7.74926 43.3527C7.64648 43.2907 7.5437 43.2382 7.43853 43.1858ZM11.8342 46.0755L11.5522 45.9586C11.6836 45.9968 11.7601 46.0278 11.8342 46.0755ZM8.22971 58.0801C9.85987 56.5542 11.6048 54.9496 13.3903 53.3498L13.4835 53.2663C14.5257 52.3341 15.5774 51.409 16.6243 50.503L16.708 50.4291C16.7941 50.3552 16.8777 50.2813 16.9638 50.2073L16.9709 50.2002L16.9805 50.1907L17.4346 49.7734L17.0618 50.0667C17.3319 49.8569 17.5996 49.6423 17.8697 49.4325C19.5548 48.0043 21.2041 46.6572 22.7602 45.4699C22.9657 45.3125 23.1785 45.1432 23.3936 44.9692C23.678 44.726 23.9553 44.4828 24.235 44.2348L24.2613 44.2515L24.333 44.1895C24.3521 44.1752 24.3688 44.1586 24.3879 44.1419L24.4549 44.0823C24.4883 44.0536 24.5218 44.025 24.5529 43.9964L24.6341 43.9273C26.1185 42.6398 27.5407 41.276 28.1215 40.6752C28.1239 40.6752 28.1239 40.6728 28.1239 40.6704C28.4156 40.3676 28.6426 39.9194 28.8243 39.4378L28.8338 39.29L28.884 39.0706L29.0609 38.6057L29.2378 37.9262C29.3023 37.5733 29.3358 37.2729 29.3358 37.075C29.3358 37.0273 29.3334 36.9868 29.3286 36.9534L29.2067 36.9677L29.3286 36.951C29.2713 36.4718 28.755 32.6594 28.7454 31.875L28.6713 31.8679H28.7454C28.7454 31.7105 28.8243 31.5102 28.9725 31.3028C29.4123 30.6662 30.4186 29.9652 31.0138 29.6338C31.7978 29.1904 35.2924 27.7503 35.6366 27.6335C35.7585 27.5905 35.8971 27.5595 36.0333 27.5381C34.9577 28.7374 32.8519 30.9404 32.8495 30.9428L32.7921 31.0024L33.1937 32.0824L33.3132 31.8011C34.1833 29.7459 36.3608 27.7741 36.6381 27.5238C36.7839 27.4976 36.8484 27.395 36.9393 27.2877L36.944 27.283C36.9464 27.2782 36.9488 27.2758 36.9536 27.2711V27.2687C37.0612 27.1304 37.1831 26.9587 37.3337 26.8157C37.348 26.8014 37.3719 26.7823 37.4101 26.7489C37.728 26.4437 38.6172 26.365 39.0905 26.3722C39.1455 26.3722 39.1957 26.3722 39.2363 26.3746C40.1781 26.7966 40.2713 27.1256 40.3645 27.5762C40.3191 27.6096 40.2665 27.6454 40.2068 27.6859L40.0466 27.7837L39.3128 28.3273L39.124 28.5252C38.9638 28.6706 38.8276 28.8137 38.72 28.9496C38.6244 28.7231 38.4666 28.332 38.4475 28.1604L38.4212 27.9601L37.4388 28.6181L37.4436 28.6944C37.4436 28.7207 37.5559 29.641 38.8252 29.703L38.8873 29.7054L39.2841 29.1927L39.7144 28.6062L39.9869 28.3201L40.4243 27.9029C40.4243 27.9053 40.4243 27.9076 40.4267 27.91L40.453 28.0364L40.5749 28.0078C41.3493 27.8218 41.9039 27.7193 42.3269 27.7121C42.3461 27.7121 42.3604 27.7121 42.37 27.7121C42.4751 27.7121 42.5683 27.7193 42.6592 27.7312C42.8552 27.7574 43.0201 27.8099 43.1683 27.8981L43.2113 27.9363L43.5651 28.2653L43.5555 28.2724C43.7635 28.5919 43.84 28.9591 43.8424 29.3334C43.8424 29.9843 43.6009 30.6304 43.4647 30.9452L43.4623 30.9499C43.2902 31.062 43.0105 31.2432 42.7404 31.4148C42.6377 31.4816 42.5349 31.546 42.4393 31.6056C42.3986 31.6223 42.3628 31.639 42.3293 31.6533H42.3269C42.0568 31.6509 41.7246 31.5531 41.3971 31.1049C41.3517 30.9809 41.1509 30.4182 40.6274 30.3348C40.4195 30.3086 40.2617 30.2943 40.1446 30.2943C40.0131 30.3014 39.853 30.2847 39.8171 30.4922C39.8721 30.7878 40.2498 30.9762 40.8306 31.5174C41.1939 31.8392 41.5334 32.1897 41.8035 32.4615C42.0951 32.7333 42.217 32.9217 42.4202 32.9598C42.5205 32.9598 42.5683 32.8335 42.5683 32.7905C42.5683 32.7357 42.5564 32.688 42.5349 32.6213C42.4321 32.3113 42.3365 32.1206 42.2648 32.0061C42.2672 32.0061 42.2672 32.0038 42.2696 32.0038L42.6305 31.8726C42.6735 31.8631 42.7118 31.8512 42.7476 31.8369C42.86 31.7987 42.9293 31.7606 42.9341 31.7558L42.9125 31.7081C43.2161 31.6199 43.4838 31.5674 43.4838 31.5651L43.5436 31.5531L43.6057 31.4196C44.6264 31.9585 44.9347 32.7143 45.0016 33.1887C44.7961 33.3675 44.4375 33.6727 44.1435 33.9183C43.9475 33.6966 43.7133 33.5058 43.4599 33.4963C43.3046 33.4915 43.1468 33.6012 43.0823 33.7848L43.0512 33.8587L43.1038 33.9183C43.491 34.3522 43.8663 34.7718 44.2631 34.8887L44.3037 34.9006L44.3443 34.8815C44.4471 34.8362 44.4997 34.717 44.4949 34.6216C44.4901 34.4595 44.4112 34.2926 44.3013 34.1257C44.6837 33.9254 45.1403 33.7752 45.1403 33.7728L45.2024 33.7514L45.2598 33.5487C46.8493 33.8277 46.9473 35.1676 46.9569 35.84C46.9569 35.8567 46.9569 35.8805 46.9569 35.9115C46.9617 36.4813 46.2589 37.4541 45.91 37.8809C45.8239 38.0382 45.7976 38.3077 45.7426 38.6152C45.6972 38.9085 45.6279 39.2304 45.5849 39.2804C45.5538 39.3281 45.4677 39.3877 45.3435 39.4425C45.169 39.5188 44.9467 39.5904 44.7196 39.6857C44.7196 39.6857 44.7196 39.6857 44.7172 39.6857C44.6718 39.7048 44.624 39.7239 44.5738 39.7477C44.3252 39.9695 43.4288 40.7062 42.9388 41.1449C42.8169 41.2546 42.7189 41.3475 42.664 41.4072C42.554 41.5359 41.978 41.8697 41.4306 42.1653C41.3302 42.2202 41.2346 42.275 41.139 42.3275C40.8665 42.4777 40.6131 42.616 40.4386 42.7232C40.343 42.7829 40.2259 42.852 40.0992 42.9331C40.0418 42.9688 39.9869 43.0022 39.9295 43.038C39.9128 43.0475 39.896 43.0594 39.8793 43.069C39.8769 43.0713 39.8745 43.0713 39.8721 43.0737C39.8004 43.119 39.7239 43.1643 39.6474 43.212C39.645 43.2144 39.6427 43.2144 39.6403 43.2168C39.1025 43.553 38.5192 43.9249 38.2396 44.1609C37.85 44.4876 36.8891 44.7999 36.7576 44.8357C36.7313 44.8452 36.705 44.8547 36.6692 44.8667L36.6476 44.8762H36.6453C36.4158 44.9644 35.9688 45.1575 35.7011 45.3984C35.3784 45.7083 35.3043 46.2209 34.5825 46.9433C34.5801 46.9457 34.5777 46.9481 34.5753 46.9505C34.5753 46.9505 34.5729 46.9505 34.5729 46.9529C34.549 46.9767 34.5346 46.9934 34.5203 47.0053C34.3721 47.146 34.2287 47.2819 34.0733 47.4273C33.6096 47.8636 33.0575 48.3858 32.1133 49.3967H32.1109L32.0368 49.4778L31.9412 49.5803C31.9245 49.5994 31.9053 49.6184 31.8886 49.6375L31.8432 49.6852C31.8336 49.6947 31.8265 49.7019 31.8169 49.7138L31.7141 49.8235C31.6926 49.8473 31.6735 49.8688 31.652 49.8902L31.5516 49.9975L31.5588 50.0023C31.5468 50.0166 31.5349 50.0285 31.5205 50.0428C29.5772 52.1767 26.8906 55.5695 24.9377 58.0634H8.22971V58.0801ZM25.6882 58.0801C27.3758 55.8961 29.0944 53.7265 30.9206 51.6283C31.2863 51.2063 31.6615 50.7939 32.0416 50.3838C33.1292 51.2445 34.2837 52.1553 35.78 53.3307L35.8493 53.3855C37.3839 54.5896 39.2793 56.0797 41.8178 58.0801H25.6882ZM57.4095 35.1843V39.7239V47.9161V52.3555V58.0801H43.1922C39.7741 55.2285 36.7672 52.7275 36.7361 52.706C36.5712 52.5892 36.4086 52.4724 36.2437 52.3555C35.0294 51.4972 33.82 50.6365 32.6129 49.7734C33.2104 49.144 33.8247 48.5265 34.4534 47.9161C34.635 47.7373 34.8143 47.5585 35.0007 47.382C35.0796 47.3057 35.1561 47.2271 35.235 47.1508C35.223 47.1484 35.2111 47.146 35.1991 47.1436L35.584 46.6906L36.1361 45.7655L36.5688 45.3173L37.3145 45.0503L38.3161 44.5138L39.1383 44.0966L40.5032 43.3384L40.5055 43.3455C40.5534 43.3169 40.6012 43.2883 40.649 43.2597C41.1437 42.9593 41.6529 42.6803 42.1668 42.4014C42.5707 42.1796 43.0536 41.9627 43.393 41.617C43.7276 41.2713 44.134 40.9613 44.5188 40.637C44.7029 40.4821 44.8869 40.3295 45.0686 40.1721C45.2885 39.9838 45.5801 39.9051 45.9028 39.7811C45.9458 39.7644 45.984 39.7453 46.0223 39.7263C46.5051 39.4688 46.5099 38.9752 46.5649 38.6033C46.5936 38.403 46.6079 38.2099 46.6701 38.0502C46.6796 38.0144 46.7657 37.9262 46.8326 37.8427C46.9306 37.714 47.0238 37.5828 47.1146 37.4517C47.4086 37.0154 47.7194 36.5099 47.7624 35.9663H47.7696V35.8376C47.7696 35.6206 47.7528 35.4037 47.717 35.1891C47.6788 34.9578 47.6214 34.7289 47.5329 34.5072C47.2365 33.7728 46.5649 33.2984 45.7402 33.1124C45.6255 32.1897 44.9443 31.4387 44.0862 30.969C44.2272 30.5923 44.3013 30.1917 44.3013 29.7936C44.3013 29.7149 44.2965 29.6362 44.2893 29.5599L44.2678 29.3668L44.2607 29.3334H57.4167V35.1843H57.4095Z" fill="black"/>
<path d="M15.828 25.2605L14.9221 22.2492H8.91053L7.94965 25.2605H2.92529L10.034 5.03271H13.7389L20.8476 25.2605H15.828ZM12.0131 12.7028L10.2563 18.1007H13.66L12.0131 12.7028Z" fill="#ED1C24"/>
<path d="M31.4918 25.4296C29.2138 25.4296 27.4833 24.6333 26.0563 23.1575C23.9983 21.026 24.0795 18.1864 24.0795 15.1465C24.0795 12.1066 23.9983 9.26457 26.0563 7.13545C27.4833 5.65723 29.2138 4.86328 31.4918 4.86328C35.1967 4.86328 38.1893 6.99478 38.904 11.4533H34.0183C33.7171 10.316 33.1124 9.29318 31.5204 9.29318C30.6432 9.29318 29.9835 9.66273 29.6274 10.1443C29.1875 10.7404 28.8864 11.4509 28.8864 15.1441C28.8864 18.8373 29.1875 19.5477 29.6274 20.1438C29.9835 20.6278 30.6432 20.995 31.5204 20.995C33.1124 20.995 33.7171 19.9721 34.0183 18.8349H38.904C38.1893 23.3005 35.1967 25.4296 31.4918 25.4296Z" fill="white"/>
<path d="M52.6455 9.465V25.2605H47.8411V9.465H43.0366V5.03271H57.4476V9.465H52.6455Z" fill="#ED1C24"/>
<path d="M65.5125 5.28527V4.26482H63.8178V5.40448C63.8465 5.76212 63.9373 6.07445 64.0951 6.34625C64.1596 6.46308 64.2433 6.57752 64.3413 6.6872C64.4441 6.80403 64.5684 6.90416 64.7118 6.99238C64.86 7.08298 65.0273 7.15212 65.2137 7.20458C65.4073 7.25941 65.6249 7.28326 65.8663 7.28326C66.1029 7.28326 66.3204 7.25703 66.514 7.20458C66.7005 7.15212 66.8678 7.08298 67.016 6.99238C67.1594 6.90416 67.2837 6.80403 67.3889 6.6872C67.4893 6.57752 67.5729 6.4607 67.6399 6.34149C67.7881 6.0816 67.8789 5.78596 67.9123 5.45932H67.9171V5.41164L67.9219 5.35918H67.9171V3.96679C67.8884 3.61154 67.7976 3.30159 67.6399 3.02741C67.5753 2.91058 67.4917 2.79614 67.3913 2.68408C67.2861 2.56963 67.1618 2.46711 67.0184 2.37651C66.8702 2.28591 66.7029 2.21438 66.5164 2.16193C66.3228 2.10709 66.1077 2.08325 65.8687 2.08325C65.632 2.08325 65.4193 2.10709 65.2281 2.15955C65.044 2.20962 64.8767 2.27876 64.7309 2.36698C64.5899 2.45281 64.4656 2.55295 64.3628 2.66739C64.2648 2.77706 64.1811 2.88912 64.1118 3.00595C64.0449 3.12039 63.9899 3.23483 63.9493 3.34928C63.911 3.45418 63.8824 3.55194 63.8632 3.64015L63.8322 3.78559L63.8154 3.85712H64.8839L64.9221 3.73075C64.9628 3.59724 65.0201 3.50187 65.0918 3.43511C65.1779 3.35405 65.2639 3.29444 65.3524 3.25391C65.448 3.20861 65.5364 3.18238 65.6153 3.16808C65.7061 3.15139 65.7754 3.14662 65.8089 3.14662H65.8663C66.0551 3.15616 66.2272 3.19192 66.373 3.25629C66.4328 3.28252 66.4925 3.31828 66.5547 3.3612C66.6073 3.39696 66.6551 3.44226 66.7005 3.49948C66.7411 3.55432 66.777 3.6187 66.8033 3.69738C66.8272 3.7689 66.8415 3.85712 66.8415 3.96679V5.40448C66.8415 5.51893 66.8272 5.61668 66.8009 5.69297C66.7722 5.77881 66.7387 5.84557 66.6957 5.9004C66.6503 5.96001 66.6025 6.00769 66.5475 6.04584C66.4854 6.09114 66.4256 6.12452 66.3658 6.15313C66.22 6.21751 66.0527 6.25804 65.8543 6.26519C65.6727 6.25565 65.503 6.21751 65.3571 6.15313C65.2974 6.1269 65.2376 6.09114 65.1779 6.04823C65.1229 6.00769 65.0727 5.96001 65.0297 5.90279C64.989 5.84795 64.9532 5.78119 64.9269 5.69536C64.9006 5.61668 64.8863 5.52131 64.8863 5.40448V5.28766H65.5125V5.28527Z" fill="white"/>
<path d="M69.0908 7.00089C69.2055 7.07481 69.337 7.13918 69.4924 7.1964C69.6645 7.25839 69.8605 7.287 70.0804 7.287C70.1138 7.287 70.1545 7.28462 70.2262 7.27746C70.3122 7.27031 70.4031 7.25124 70.5058 7.22263C70.6158 7.19163 70.7281 7.14395 70.8453 7.08196C70.9719 7.01282 71.0843 6.91745 71.1847 6.79823C71.2898 6.67425 71.3711 6.52643 71.4333 6.35238C71.5002 6.1688 71.5313 5.95422 71.5313 5.71341V2.11084H69.784V2.28966V3.13129H70.4604V5.71341C70.4532 5.82547 70.4293 5.93038 70.3959 6.01621C70.3815 6.04959 70.3648 6.08535 70.3433 6.12111C70.3266 6.14734 70.3074 6.17118 70.2811 6.19264C70.2572 6.2141 70.2286 6.23079 70.1927 6.24509C70.1664 6.25701 70.1306 6.26417 70.078 6.26417C69.9848 6.26417 69.9083 6.25225 69.8485 6.23317C69.7792 6.20933 69.7218 6.18072 69.6836 6.15688C69.6358 6.12588 69.6023 6.09727 69.5808 6.07581C69.5473 6.04243 69.521 6.01621 69.5067 6.0019L69.423 5.91845L69.3824 5.87792L68.6558 6.57889L68.7585 6.70525C68.8518 6.81731 68.9617 6.91506 69.0908 7.00089Z" fill="white"/>
<path d="M73.9859 5.7645C74.0146 5.69298 74.0481 5.6286 74.0887 5.57138C74.1293 5.51177 74.1795 5.46409 74.2441 5.42356C74.3779 5.33772 74.5309 5.29242 74.7221 5.29242C74.801 5.29242 74.8751 5.29481 74.9444 5.29719C74.9946 5.29958 75.0376 5.3115 75.0735 5.33057L75.248 5.4164L75.334 5.45932V4.30297L75.2026 4.26721C75.0544 4.22667 74.8942 4.2076 74.7245 4.2076H74.7221C74.464 4.2076 74.2178 4.2529 73.9883 4.3435V4.14799C74.0074 3.96679 74.0552 3.79274 74.1341 3.64015C74.1652 3.57816 74.2058 3.51856 74.256 3.45657C74.3014 3.40173 74.3564 3.34928 74.4233 3.30159C74.4879 3.25629 74.5644 3.22053 74.6528 3.18953C74.7341 3.16331 74.8393 3.14662 74.9659 3.14662C75.1524 3.15616 75.3173 3.20146 75.4631 3.27298C75.5229 3.30159 75.5802 3.33974 75.6424 3.38981C75.6974 3.43511 75.7476 3.49233 75.7954 3.56147C75.8384 3.62585 75.8742 3.70691 75.9053 3.80467C75.9316 3.89527 75.946 4.00971 75.946 4.14323V7.21411H77.0168V4.14799V4.10269C77.0168 4.04547 77.012 3.96679 77.0048 3.85473C76.9929 3.73075 76.9666 3.59485 76.9236 3.44942C76.8805 3.29921 76.816 3.14662 76.73 2.99164C76.6415 2.82713 76.5172 2.67693 76.3666 2.54341C76.2089 2.40512 76.0153 2.29545 75.7906 2.212C75.5539 2.12378 75.2815 2.08325 74.9683 2.08325H74.9229C74.8656 2.08325 74.7867 2.08802 74.6743 2.09756C74.5524 2.10709 74.4186 2.13332 74.2752 2.17385C74.1246 2.21677 73.974 2.27876 73.8186 2.36221C73.6537 2.45042 73.5079 2.57202 73.374 2.72223C73.2354 2.8772 73.1278 3.06794 73.0442 3.28967C72.9581 3.52094 72.9175 3.79036 72.9175 4.09793V7.21888H73.9883V5.7645H73.9859Z" fill="white"/>
<path d="M75.7979 1.88791V1.8283V1.53504H77.0169V0.512207H75.272C75.1692 0.512207 75.0689 0.533665 74.9828 0.598039C74.9207 0.64334 74.8705 0.702945 74.8346 0.772088C74.7987 0.836462 74.7749 0.915142 74.7725 0.99859V1.89029H74.9517H75.7979V1.88791Z" fill="white"/>
<path d="M79.5192 7.21888V7.15928V4.09793C79.5311 3.91911 79.5718 3.75698 79.6435 3.61631C79.6722 3.55909 79.7104 3.49948 79.7582 3.43988C79.7988 3.38981 79.8538 3.33974 79.9207 3.29682C79.9853 3.25391 80.0642 3.21815 80.1598 3.18953C80.2482 3.16331 80.3582 3.149 80.492 3.149C80.5016 3.149 80.5446 3.15139 80.6068 3.15377C80.6546 3.15616 80.7167 3.16569 80.7956 3.18477C80.8697 3.20384 80.951 3.23245 81.0394 3.27298C81.1135 3.30636 81.1828 3.35643 81.2497 3.42557C81.3119 3.48995 81.3669 3.57578 81.4123 3.68784C81.4529 3.78559 81.4768 3.92149 81.4768 4.09077C81.4768 4.09077 81.4768 4.09316 81.4768 4.10031V7.2165H82.55V4.09793C82.55 4.0717 82.5476 4.03355 82.5453 3.97156C82.5405 3.90003 82.5309 3.81897 82.5142 3.72599C82.4951 3.63062 82.4688 3.52809 82.4353 3.41604C82.3995 3.29682 82.3469 3.18 82.2847 3.06079C82.2178 2.93919 82.1365 2.82236 82.0361 2.7103C81.9333 2.59109 81.8067 2.48857 81.6609 2.40035C81.5127 2.30975 81.3453 2.23584 81.1589 2.17862C80.9629 2.11902 80.7454 2.08802 80.5016 2.08325H80.4538C80.406 2.08325 80.3462 2.08802 80.2649 2.09279C80.1741 2.09994 80.0761 2.11663 79.9662 2.14286C79.8538 2.16908 79.7343 2.20962 79.6076 2.26207C79.4738 2.31691 79.3423 2.38843 79.2084 2.47903C79.0722 2.57202 78.9431 2.68646 78.8188 2.82236C78.6922 2.96065 78.5774 3.12754 78.4746 3.31828L78.4603 3.34451L78.4531 3.35643V7.21888H78.6324H79.5192Z" fill="white"/>
<path d="M86.1596 6.09114C86.095 6.14359 86.0138 6.18651 85.9134 6.21751C85.813 6.2485 85.6959 6.26519 85.5644 6.26519C85.4305 6.26519 85.3015 6.25088 85.1772 6.22466C85.0481 6.19605 84.9286 6.16267 84.8186 6.11975C84.7063 6.07445 84.6107 6.02677 84.5246 5.97431C84.4386 5.91948 84.374 5.86941 84.331 5.82649L84.245 5.74304L84.2043 5.70251L83.4849 6.40348L83.5972 6.52984C83.7263 6.68005 83.8888 6.80879 84.0777 6.91608C84.245 7.01145 84.4458 7.09729 84.6848 7.17358C84.9382 7.25226 85.2345 7.29041 85.574 7.29041C85.8202 7.29041 86.0544 7.25941 86.2767 7.19981C86.5038 7.13782 86.7046 7.04245 86.8767 6.91132C87.0511 6.7778 87.1922 6.60613 87.2902 6.40348C87.393 6.19366 87.4431 5.95286 87.4431 5.68821C87.4431 5.49985 87.4049 5.31627 87.326 5.14699C87.2519 4.98247 87.1491 4.83227 87.0249 4.70352C86.9006 4.57477 86.7571 4.46748 86.597 4.37926C86.4345 4.29105 86.2647 4.23383 86.0879 4.20283C85.9301 4.1766 85.77 4.15038 85.6122 4.12654C85.464 4.10508 85.3349 4.0717 85.2226 4.03117C85.1174 3.99302 85.0409 3.94295 84.9836 3.88573C84.9429 3.84281 84.9166 3.78559 84.9166 3.67115C84.9166 3.54478 84.9381 3.45657 84.9668 3.40173C85.0003 3.33259 85.0409 3.28967 85.0911 3.25629C85.1461 3.21815 85.2106 3.19192 85.2919 3.17523C85.3803 3.15854 85.476 3.15139 85.5787 3.15139C85.6122 3.15139 85.672 3.15616 85.7461 3.17284C85.8202 3.18953 85.9014 3.21099 85.9899 3.24199C86.0783 3.27298 86.1644 3.30875 86.2504 3.34689C86.3365 3.38743 86.4129 3.42796 86.4799 3.47087L86.9292 3.76175L87.0296 3.61393L87.5244 2.87482L87.0057 2.52672C86.8862 2.44327 86.75 2.36936 86.6018 2.30737C86.4727 2.25253 86.3269 2.20485 86.1596 2.15716C85.9803 2.10709 85.7843 2.08325 85.5763 2.08325C85.5763 2.08325 85.574 2.08325 85.5692 2.08325C85.366 2.08325 85.1628 2.10948 84.9644 2.16432C84.7565 2.22154 84.5677 2.31214 84.4003 2.4385C84.2282 2.56725 84.092 2.73653 83.9892 2.93442C83.8817 3.14423 83.8315 3.38981 83.8315 3.664C83.8315 3.664 83.8315 3.67115 83.8315 3.67592C83.8315 3.85235 83.853 4.01925 83.9008 4.17184C83.9462 4.31489 84.0083 4.44364 84.0872 4.55331C84.1637 4.65822 84.2498 4.7512 84.3478 4.82273C84.4362 4.88949 84.527 4.94433 84.6202 4.98724C84.7039 5.02778 84.7852 5.05877 84.8617 5.08023C84.931 5.10169 84.986 5.11599 85.0338 5.12314C85.084 5.13507 85.1652 5.14937 85.2728 5.16844C85.3803 5.18513 85.4855 5.20421 85.5931 5.2209C85.7006 5.23997 85.7963 5.25428 85.8823 5.26858C85.9229 5.27573 85.9564 5.2805 85.9803 5.28289C85.9851 5.28289 85.9899 5.28527 85.9946 5.28527L86.0162 5.29004C86.0401 5.29481 86.0783 5.30435 86.1285 5.31865C86.1572 5.32819 86.1883 5.34249 86.2265 5.37349C86.2552 5.39733 86.2863 5.43309 86.3173 5.48793C86.3365 5.52369 86.3532 5.59045 86.3532 5.68344C86.3532 5.77165 86.3365 5.84557 86.3054 5.90994C86.2695 5.98147 86.2241 6.03869 86.1596 6.09114Z" fill="white"/>
<path d="M88.8846 6.53753C88.9419 6.6472 89.0089 6.74496 89.0901 6.82602C89.1642 6.89993 89.2383 6.96431 89.322 7.01676C89.5108 7.13597 89.7212 7.20035 89.9483 7.21703H91.098V6.19658H90.3928C90.3044 6.19658 90.2327 6.18705 90.1777 6.17036C90.1156 6.15128 90.0654 6.12744 90.0319 6.10121C89.9889 6.07022 89.9554 6.03922 89.9267 6.00585C89.8957 5.96531 89.8694 5.92478 89.8479 5.88425C89.8024 5.79603 89.7738 5.68397 89.7666 5.54569V3.86242C89.7666 3.68837 89.7977 3.5477 89.8526 3.43565C89.8909 3.36173 89.9339 3.29974 89.9913 3.24729L90.7442 3.73606L91.5019 3.24729C91.5545 3.29974 91.5999 3.36173 91.6382 3.43803C91.6908 3.5477 91.7218 3.68837 91.7218 3.86242V7.21703H92.7927V3.59062L92.7903 3.57631C92.7664 3.39988 92.7281 3.23299 92.6708 3.08039C92.6206 2.94211 92.5489 2.81336 92.4628 2.69653L92.4246 2.65123C92.4222 2.64646 92.4198 2.64408 92.415 2.63931L92.3887 2.60593C92.1855 2.37228 91.9346 2.19585 91.6429 2.08617L91.588 2.06471L91.5593 2.05518L90.7418 2.55825L89.9243 2.05518L89.8431 2.08617C89.53 2.203 89.2646 2.39374 89.0615 2.65123C88.8559 2.91111 88.734 3.22583 88.6958 3.5787L88.6934 5.65536C88.6934 5.83895 88.7101 6.00585 88.7459 6.15605C88.7818 6.29672 88.8272 6.42547 88.8846 6.53753Z" fill="white"/>
<path d="M92.3028 0.203125H92.243H92.1235H91.2773V1.90546H92.3028V0.203125Z" fill="white"/>
<path d="M98.2833 3.96411C98.2546 3.60886 98.1638 3.29891 98.006 3.02472C97.9391 2.90789 97.8554 2.79345 97.7574 2.68139L97.7144 2.72192L97.7574 2.68139C97.6523 2.56695 97.528 2.46443 97.3846 2.37383C97.2364 2.28323 97.069 2.2117 96.8826 2.15925C96.689 2.10441 96.4739 2.08057 96.2348 2.08057C96.0006 2.08057 95.7855 2.10441 95.5942 2.15686C95.4078 2.20693 95.2429 2.27607 95.0971 2.36429C94.956 2.45012 94.8293 2.55026 94.7266 2.6647C94.6286 2.77438 94.5449 2.88644 94.4756 3.00326C94.4087 3.11771 94.3537 3.23215 94.3154 3.34659C94.2772 3.45388 94.2485 3.54925 94.2294 3.63747L94.1959 3.78291L94.1792 3.85443H95.2477L95.2859 3.72807C95.3265 3.59455 95.3839 3.49918 95.4556 3.43242C95.5417 3.35136 95.6277 3.29176 95.7161 3.25122C95.8118 3.20592 95.9002 3.1797 95.9791 3.16539C96.0723 3.15109 96.1416 3.14393 96.1727 3.14393H96.23C96.4189 3.15109 96.591 3.18923 96.7368 3.25361C96.7941 3.27983 96.8563 3.3156 96.9184 3.35613C96.971 3.39189 97.0188 3.43719 97.0642 3.49441C97.1049 3.54925 97.1407 3.61363 97.167 3.69231C97.1909 3.76383 97.2053 3.85443 97.2053 3.96172V5.39941C97.2053 5.51386 97.1909 5.60923 97.1646 5.68791C97.1384 5.77374 97.1025 5.8405 97.0619 5.89295C97.0164 5.95256 96.9686 6.00024 96.9137 6.04077C96.8515 6.08369 96.7918 6.11945 96.732 6.14568C96.5862 6.21244 96.4189 6.25058 96.2205 6.25774C96.0388 6.25058 95.8691 6.21005 95.7257 6.14568C95.6659 6.11945 95.6062 6.08369 95.5464 6.04077C95.4915 6.00024 95.4413 5.95256 95.3958 5.89295C95.3552 5.83811 95.3194 5.77135 95.2931 5.68791C95.2668 5.60923 95.2524 5.51386 95.2524 5.39703V5.2802H95.8763V4.25975H94.1816V5.39941C94.2103 5.75705 94.3011 6.06938 94.4589 6.34119C94.5234 6.45801 94.6071 6.57246 94.7051 6.68213C94.8078 6.79896 94.9321 6.90148 95.0779 6.98731C95.2237 7.07791 95.3935 7.14705 95.5799 7.19951C95.7735 7.25434 95.991 7.27819 96.2324 7.27819C96.4715 7.27819 96.6866 7.25434 96.8802 7.19951C97.0666 7.14705 97.234 7.07553 97.3798 6.98731C97.5232 6.89909 97.6475 6.79896 97.7526 6.68213C97.853 6.57246 97.9367 6.45563 98.0036 6.3388C98.1518 6.07892 98.2427 5.78327 98.2761 5.45664H98.2809V5.41134L98.2857 5.35173H98.2809V3.96411H98.2833Z" fill="white"/>
<path d="M99.7127 6.53753C99.7701 6.6472 99.837 6.74495 99.9183 6.82602C99.9924 6.89993 100.069 6.9643 100.15 7.01676C100.337 7.13358 100.549 7.20034 100.776 7.21703H101.926V6.19658H101.223C101.135 6.19658 101.063 6.18705 101.008 6.17036C100.946 6.15128 100.896 6.12744 100.86 6.10121C100.817 6.0726 100.784 6.04161 100.757 6.00584C100.724 5.96531 100.698 5.92478 100.676 5.88425C100.633 5.79603 100.602 5.68397 100.595 5.54807V3.86481C100.595 3.69076 100.626 3.55009 100.678 3.43803C100.714 3.36412 100.762 3.30213 100.817 3.24729L101.572 3.73606L102.33 3.24967C102.383 3.30213 102.428 3.36412 102.466 3.44041C102.519 3.55009 102.55 3.69076 102.55 3.86481V7.21942H103.621V3.59062V3.57631C103.597 3.39988 103.559 3.23299 103.501 3.08039C103.451 2.94211 103.379 2.81575 103.293 2.69653L103.277 2.67508C103.269 2.66792 103.265 2.65839 103.257 2.65123L103.219 2.60593H103.217C103.014 2.37228 102.763 2.19585 102.471 2.08617L102.416 2.06471L102.387 2.05518L101.57 2.55586L100.752 2.05518L100.671 2.08617C100.358 2.203 100.093 2.39374 99.8896 2.65123C99.684 2.91111 99.5597 3.22583 99.5215 3.5787V5.65536C99.5215 5.84133 99.5382 6.00584 99.5741 6.15367C99.6099 6.29672 99.6553 6.42547 99.7127 6.53753Z" fill="white"/>
<path d="M101.3 1.91056H101.359H103.635V0.890107H103.456H102.327V0.494325V0.491941C102.327 0.394188 102.306 0.29405 102.241 0.212986C102.196 0.150996 102.136 0.100927 102.067 0.0651638C102 0.0317846 101.926 0.0103265 101.849 0.00317383H100.943V1.02362H101.3V1.91056Z" fill="white"/>
<path d="M105.378 3.41097L105.337 3.36805L105.378 3.41097C105.397 3.39189 105.418 3.36567 105.452 3.33229C105.469 3.31321 105.502 3.2846 105.547 3.25599C105.583 3.23215 105.638 3.20592 105.708 3.18208C105.763 3.16301 105.846 3.15109 105.949 3.15109C105.999 3.15109 106.04 3.15824 106.068 3.16778C106.102 3.1797 106.128 3.19639 106.152 3.21546C106.176 3.23453 106.198 3.26076 106.214 3.28699C106.236 3.31798 106.253 3.35136 106.264 3.38474C106.298 3.4658 106.317 3.5564 106.324 3.66846V7.22335H107.395V3.65416C107.395 3.4062 107.364 3.19162 107.297 3.00565C107.233 2.8316 107.151 2.68139 107.046 2.55741C106.946 2.4382 106.833 2.34522 106.707 2.27607C106.592 2.21408 106.482 2.16878 106.37 2.13779C106.267 2.11156 106.174 2.09487 106.088 2.08772C106.016 2.08295 105.975 2.08057 105.944 2.08057C105.724 2.08057 105.528 2.10918 105.356 2.17117C105.201 2.22839 105.065 2.29276 104.952 2.36667C104.823 2.45251 104.713 2.54788 104.622 2.65993L104.555 2.741L104.522 2.78153L105.249 3.53495L105.378 3.41097Z" fill="white"/>
<path d="M108.929 5.55996C108.939 5.68394 108.965 5.81507 109.006 5.95812C109.047 6.10356 109.104 6.25377 109.18 6.40397C109.262 6.5661 109.374 6.71154 109.515 6.84029C109.661 6.97142 109.835 7.07871 110.041 7.15977C110.258 7.24561 110.509 7.28614 110.796 7.28614H110.961C111.188 7.26945 111.387 7.2313 111.566 7.16931C111.645 7.14309 111.719 7.10971 111.795 7.06917C111.834 7.04772 111.872 7.02626 111.908 7.00003V7.15977V7.21938H112.979V2.11475H111.908V5.24524C111.908 5.24524 111.905 5.28816 111.903 5.34776C111.898 5.39783 111.889 5.46459 111.867 5.54565C111.848 5.62195 111.817 5.70539 111.776 5.79838C111.738 5.87944 111.688 5.95336 111.618 6.02488C111.554 6.08926 111.47 6.14886 111.358 6.19655C111.26 6.23946 111.128 6.26569 110.964 6.26569C110.959 6.26569 110.916 6.2633 110.854 6.25854C110.806 6.25615 110.739 6.24423 110.662 6.22277C110.591 6.2037 110.512 6.17509 110.426 6.13217C110.354 6.09641 110.285 6.04396 110.22 5.97004C110.16 5.9009 110.103 5.80792 110.058 5.68632C110.017 5.57665 109.991 5.42882 109.991 5.24285V2.11475H109.811H108.92V5.24524V5.30246C108.915 5.36445 108.92 5.4479 108.929 5.55996Z" fill="white"/>
<path d="M66.693 16.0942C66.693 16.0942 66.6882 16.0942 66.6834 16.0942C66.2125 16.0942 65.7703 16.1872 65.3664 16.3731V15.882C65.3974 15.5625 65.4811 15.2645 65.6173 15.0022C65.6723 14.8949 65.744 14.7876 65.8301 14.6827C65.9113 14.5826 66.0093 14.492 66.1288 14.4109C66.2436 14.3298 66.3798 14.2655 66.5376 14.213C66.6882 14.1653 66.8698 14.1391 67.085 14.1391C67.4076 14.1582 67.6993 14.2321 67.9502 14.3584C68.053 14.4085 68.1582 14.4777 68.2634 14.5635C68.3614 14.6446 68.4522 14.7447 68.5335 14.8663C68.6123 14.9831 68.6769 15.1262 68.7247 15.2931C68.7725 15.4552 68.7988 15.6507 68.7988 15.8796V20.7792H70.3262V15.882V15.8104C70.3262 15.7222 70.319 15.5935 70.3047 15.4147C70.2879 15.2215 70.2449 15.0093 70.178 14.7757C70.1087 14.5373 70.0059 14.2965 69.872 14.0509C69.731 13.7958 69.5398 13.5621 69.3007 13.3523C69.0545 13.1377 68.751 12.9661 68.3924 12.8325C68.0243 12.6943 67.5869 12.6299 67.0874 12.6299H67.0132C66.9248 12.6299 66.7957 12.637 66.6165 12.6537C66.4229 12.6704 66.2125 12.7109 65.983 12.7753C65.7464 12.8421 65.5074 12.9422 65.2612 13.0757C65.0054 13.214 64.7736 13.4024 64.5632 13.6384C64.3505 13.8792 64.1784 14.1772 64.0445 14.5277C63.9083 14.8877 63.8438 15.3145 63.8438 15.8057V20.7839H65.3711V18.5022C65.4213 18.3687 65.4859 18.2495 65.56 18.1422C65.6365 18.0349 65.7321 17.9443 65.8492 17.8704C66.0882 17.7154 66.3607 17.6391 66.693 17.6391C66.8268 17.6391 66.9511 17.6415 67.0634 17.6487C67.1614 17.6558 67.2451 17.6773 67.3192 17.7131L67.4937 17.7989L67.5797 17.8418V16.2253L67.4459 16.1895C67.2093 16.1252 66.9607 16.0942 66.693 16.0942Z" fill="white"/>
<path d="M77.6627 15.5863C77.6148 15.0308 77.4714 14.542 77.2228 14.1129C77.1177 13.9293 76.9862 13.7481 76.8284 13.574C76.6659 13.3952 76.4699 13.2331 76.2428 13.0948C76.011 12.9518 75.748 12.8397 75.4493 12.7562C75.1457 12.6728 74.8015 12.6299 74.4214 12.6299C74.0438 12.6299 73.7044 12.6704 73.4056 12.7515C73.1092 12.8325 72.8462 12.9398 72.6192 13.0781C72.3945 13.214 72.2009 13.369 72.0383 13.5478C71.883 13.7195 71.7491 13.8983 71.6416 14.0819C71.534 14.2631 71.4503 14.4443 71.3882 14.6207C71.3284 14.7924 71.283 14.9474 71.2519 15.0856L71.2185 15.2311L71.2017 15.305H72.7267L72.765 15.1786C72.8367 14.9474 72.9395 14.7733 73.0733 14.6469C73.2215 14.5063 73.3745 14.4037 73.5323 14.3298C73.6972 14.2535 73.8502 14.2059 73.9912 14.182C74.1418 14.1558 74.2565 14.1439 74.321 14.1439H74.3234H74.4214C74.7513 14.1582 75.0429 14.2202 75.2963 14.3298C75.3991 14.3775 75.5066 14.4371 75.6142 14.5087C75.7122 14.5754 75.7982 14.6565 75.8795 14.759C75.956 14.8568 76.0181 14.9736 76.0659 15.1119C76.1114 15.243 76.1377 15.4027 76.1377 15.5887V17.9348V17.9396C76.1377 18.1327 76.1114 18.2996 76.0683 18.4426C76.0205 18.5905 75.956 18.7121 75.8795 18.8122C75.8006 18.9171 75.7098 19.0053 75.6118 19.0745C75.5066 19.1507 75.4015 19.2104 75.2963 19.2604C75.0429 19.3749 74.7513 19.4392 74.4167 19.4535C74.0964 19.4392 73.8047 19.3749 73.5514 19.2604C73.4462 19.2127 73.341 19.1507 73.2359 19.0745C73.1379 19.0053 73.047 18.9171 72.9682 18.8122C72.8917 18.7121 72.8295 18.5905 72.7817 18.4426C72.7363 18.2996 72.71 18.1303 72.71 17.9348V17.6296H73.7306V16.1895H71.1826V17.9348C71.228 18.4951 71.3738 18.9886 71.6224 19.4154C71.7252 19.599 71.8567 19.7802 72.012 19.9542C72.1722 20.1354 72.3682 20.2952 72.5953 20.4311C72.8247 20.5718 73.0901 20.6814 73.3888 20.7649C73.6924 20.8483 74.0366 20.8912 74.4262 20.8912C74.8087 20.8912 75.1505 20.8507 75.454 20.7649C75.7528 20.6814 76.0157 20.5718 76.2476 20.4311C76.4747 20.2928 76.6707 20.1354 76.8332 19.9542C76.991 19.7802 77.1248 19.599 77.23 19.413C77.469 18.9982 77.6125 18.5213 77.6627 17.992H77.6674V17.9348L77.6722 17.8871H77.6674V15.5863H77.6627Z" fill="white"/>
<path d="M80.3753 14.3287C80.4804 14.2595 80.6023 14.2095 80.7458 14.1832C80.8987 14.1546 81.0637 14.1403 81.2381 14.1403C81.3051 14.1403 81.4079 14.1522 81.5345 14.1809C81.6612 14.2071 81.7999 14.2476 81.9481 14.2977C82.0939 14.3477 82.2397 14.4074 82.3855 14.4741C82.5313 14.5409 82.658 14.61 82.7727 14.6839L83.4157 15.0964L83.5161 14.9486L84.2642 13.8351L83.5185 13.3321C83.3296 13.1986 83.1121 13.0841 82.8755 12.984C82.6723 12.8981 82.4333 12.8195 82.1632 12.7455C81.8811 12.6669 81.5704 12.6311 81.2381 12.6311C80.9107 12.6311 80.5856 12.674 80.2653 12.7599C79.9378 12.8457 79.6414 12.9887 79.3785 13.1866C79.1132 13.3869 78.8981 13.6468 78.7355 13.9591C78.5682 14.281 78.4893 14.6649 78.4893 15.1059C78.4893 15.3992 78.5252 15.6615 78.5993 15.8927C78.671 16.1168 78.769 16.3147 78.8909 16.4816C79.0104 16.6461 79.1443 16.7868 79.2949 16.8965C79.4359 17.0014 79.5769 17.0872 79.7203 17.1516C79.8566 17.216 79.9809 17.2637 80.1004 17.2994C80.2127 17.3304 80.2988 17.3519 80.3705 17.3662C80.4541 17.3853 80.588 17.4091 80.7649 17.4377C80.9394 17.4663 81.1162 17.4949 81.2907 17.5235C81.4652 17.5522 81.623 17.5784 81.764 17.5998C81.8955 17.6189 81.9815 17.6356 81.9815 17.6356C82.0317 17.6451 82.0963 17.6618 82.1799 17.6881C82.2421 17.7071 82.309 17.7429 82.3783 17.7977C82.4405 17.8454 82.5002 17.9193 82.5552 18.0195C82.6006 18.1029 82.6293 18.2245 82.6293 18.3938C82.6293 18.5535 82.5982 18.6918 82.5385 18.8134C82.4763 18.9374 82.3903 19.0447 82.2707 19.1424C82.1536 19.2378 82.0054 19.3117 81.8285 19.3666C81.6517 19.4214 81.4485 19.45 81.2214 19.45C80.9943 19.45 80.7768 19.4262 80.5617 19.3809C80.3442 19.3332 80.1434 19.2736 79.957 19.202C79.7681 19.1281 79.6008 19.0471 79.4574 18.9565C79.3092 18.8659 79.1969 18.7777 79.118 18.7014L79.0319 18.6179L78.9889 18.5774L77.9683 19.5692L78.0806 19.698C78.2838 19.9316 78.5395 20.1343 78.8407 20.3059C79.1036 20.4585 79.4263 20.5944 79.8136 20.7136C80.2127 20.8376 80.686 20.8972 81.2334 20.8972H81.2405C81.2501 20.8972 81.2525 20.8948 81.2549 20.8948C81.6325 20.8972 82.003 20.8495 82.3568 20.7542C82.7153 20.6588 83.0309 20.5062 83.301 20.3012C83.5734 20.0937 83.791 19.8291 83.9463 19.512C84.1065 19.1901 84.183 18.8134 84.183 18.3938C84.183 18.1005 84.1232 17.8192 84.0037 17.5545C83.8866 17.297 83.7288 17.0658 83.5328 16.8631C83.3392 16.6628 83.1121 16.4936 82.8588 16.3577C82.6054 16.2218 82.3377 16.1288 82.0604 16.0811C81.8023 16.0382 81.5441 15.9976 81.2836 15.9571C81.035 15.9213 80.8151 15.8665 80.6215 15.7974C80.435 15.7306 80.294 15.64 80.1864 15.5303C80.0956 15.4373 80.0454 15.3086 80.043 15.1012C80.043 14.8842 80.0789 14.7197 80.1362 14.6076C80.196 14.486 80.2749 14.3978 80.3753 14.3287Z" fill="white"/>
<path d="M80.8441 10.1811C80.7557 10.2479 80.684 10.3289 80.6362 10.4243C80.5812 10.5197 80.5501 10.6317 80.543 10.7485V12.0837H80.7246H81.9986V11.5067H83.9969V10.0667H81.2505C81.0975 10.0667 80.9565 10.0976 80.8441 10.1811Z" fill="white"/>
<path d="M90.8251 18.3938C90.8251 18.1005 90.7654 17.8192 90.6458 17.5545C90.5287 17.297 90.371 17.0634 90.1726 16.8631C89.9766 16.6628 89.7519 16.4936 89.4985 16.3577C89.2451 16.2218 88.9774 16.1288 88.7002 16.0811C88.442 16.0382 88.1815 15.9976 87.9233 15.9571C87.6747 15.9213 87.4548 15.8665 87.2612 15.7974C87.0748 15.7306 86.9338 15.64 86.8262 15.5303C86.7354 15.4373 86.6852 15.3086 86.6828 15.1035C86.6828 14.8866 86.7186 14.7221 86.776 14.6124C86.8405 14.4884 86.9194 14.4002 87.0198 14.3334C87.125 14.2643 87.2469 14.2142 87.3903 14.188C87.5433 14.1594 87.7082 14.1427 87.8827 14.1427L87.8851 14.1189V14.1427C87.952 14.1427 88.0524 14.1546 88.1791 14.1832C88.3058 14.2118 88.4444 14.25 88.5926 14.3001C88.7384 14.3501 88.8842 14.4097 89.03 14.4765C89.1734 14.5433 89.3025 14.6124 89.4172 14.6863L90.0602 15.0988L90.1582 14.951L90.9064 13.8351L90.1606 13.3321C89.9718 13.2009 89.7543 13.0841 89.5176 12.984C89.3145 12.8981 89.0778 12.8195 88.8053 12.7455C88.5233 12.6693 88.2125 12.6311 87.8803 12.6311C87.5528 12.6311 87.2278 12.674 86.9075 12.7599C86.58 12.8457 86.2836 12.9887 86.0207 13.1866C85.7553 13.3869 85.5402 13.6468 85.3777 13.9591C85.2104 14.281 85.1315 14.6672 85.1315 15.1059C85.1315 15.3992 85.1673 15.6615 85.2414 15.8927C85.3131 16.1168 85.4111 16.3147 85.533 16.484C85.6526 16.6485 85.7864 16.7868 85.937 16.8989C86.078 17.0038 86.2191 17.0896 86.3625 17.1564C86.4963 17.2184 86.623 17.2684 86.7401 17.3042C86.8501 17.3376 86.9385 17.359 87.0102 17.3709C87.0939 17.39 87.2278 17.4139 87.4046 17.4425C87.5791 17.4711 87.756 17.4997 87.9305 17.5283C88.105 17.5569 88.2627 17.5831 88.4038 17.6046C88.5352 17.6261 88.6237 17.6404 88.6237 17.6404C88.6715 17.6499 88.736 17.6666 88.8221 17.6928C88.8842 17.7119 88.9488 17.7453 89.0205 17.8025C89.0826 17.8502 89.1424 17.9241 89.1973 18.0242C89.2404 18.1053 89.2714 18.2293 89.2714 18.3985C89.2714 18.5583 89.2404 18.6942 89.1806 18.8182C89.1209 18.9422 89.0324 19.0494 88.9129 19.1472C88.7958 19.2426 88.6476 19.3165 88.4707 19.3713C88.2938 19.4262 88.0906 19.4524 87.8636 19.4524C87.6365 19.4524 87.419 19.4309 87.2062 19.3832C86.9887 19.3379 86.7879 19.2783 86.5991 19.2044C86.4103 19.1305 86.2454 19.0494 86.0995 18.9588C85.9513 18.8682 85.8366 18.78 85.7601 18.7013L85.6741 18.6179L85.6334 18.5774L84.6128 19.5692L84.7251 19.6956C84.9283 19.9292 85.1841 20.1319 85.4852 20.3035C85.7482 20.4561 86.0733 20.592 86.4581 20.7113C86.8573 20.8376 87.3305 20.8948 87.8803 20.8948H87.8851C87.8875 20.8948 87.8899 20.8948 87.8899 20.8948C88.2795 20.8948 88.65 20.8472 89.0013 20.7518C89.3575 20.654 89.6754 20.5038 89.9455 20.2988C90.218 20.0914 90.4355 19.8267 90.5933 19.5096C90.7486 19.1901 90.8251 18.8134 90.8251 18.3938Z" fill="white"/>
<path d="M86.7998 11.4205H86.8596L86.7998 11.4253C86.8118 11.5517 86.8428 11.6614 86.8906 11.7591C86.9384 11.8545 87.0101 11.9355 87.0986 11.9975C87.2109 12.081 87.3496 12.1096 87.4978 12.1096H91.186V10.6695H88.2555V10.0925H88.0762H86.8022V11.4205H86.7998Z" fill="white"/>
<path d="M96.725 9.84204V9.90165V17.989C96.725 18.1821 96.7011 18.3442 96.6557 18.4753C96.6079 18.616 96.5457 18.7328 96.4692 18.833C96.388 18.9355 96.2995 19.0189 96.2015 19.0881C96.0964 19.162 95.9936 19.2168 95.8908 19.2597C95.6326 19.3718 95.341 19.4338 95.004 19.4481C94.6837 19.4338 94.3897 19.3718 94.1363 19.2597C94.0288 19.2168 93.926 19.1572 93.8208 19.0857C93.7228 19.0166 93.632 18.9331 93.5531 18.8306C93.4766 18.7328 93.4145 18.616 93.3667 18.473C93.3212 18.3394 93.295 18.1773 93.295 17.9866V12.7293H91.7676V17.989C91.813 18.5492 91.9588 19.0428 92.2074 19.4719C92.3102 19.6555 92.4416 19.8367 92.597 20.0108C92.7595 20.192 92.9531 20.3493 93.1802 20.4876C93.4097 20.6283 93.675 20.738 93.9738 20.8214C94.2774 20.9049 94.6239 20.9478 95.0112 20.9478C95.3936 20.9478 95.7354 20.9072 96.039 20.8214C96.3378 20.738 96.6007 20.6283 96.8326 20.4876C97.0596 20.3493 97.2556 20.1896 97.4158 20.0108C97.5712 19.8367 97.7026 19.6555 97.8078 19.4696C98.054 19.0428 98.2022 18.5516 98.2524 18.0056V9.84204H98.0731H96.725Z" fill="white"/>
<path d="M105.138 18.049V15.3262C105.11 15.0425 105.014 14.804 104.844 14.6157C104.77 14.5298 104.679 14.4583 104.579 14.3963C104.938 14.177 105.138 13.8003 105.136 13.3306C105.136 13.321 105.136 13.3139 105.136 13.3067V12.6797H103.609V13.0755C103.606 13.3306 103.537 13.4879 103.41 13.6024C103.286 13.7121 103.073 13.786 102.753 13.786H102.186V14.2819C102.182 14.2652 102.177 14.2461 102.172 14.2294C102.122 14.0506 102.05 13.8694 101.952 13.6906C101.852 13.5022 101.718 13.3354 101.553 13.1875C101.383 13.0349 101.175 12.9157 100.936 12.8227C100.685 12.725 100.394 12.6797 100.061 12.6797H99.189V14.1198H99.4495C99.4949 14.1198 99.5642 14.1221 99.6575 14.1293C99.7435 14.1365 99.8367 14.1508 99.9443 14.1722C100.045 14.1937 100.145 14.2271 100.25 14.27C100.348 14.3105 100.434 14.3653 100.516 14.4345C100.59 14.4989 100.652 14.5799 100.7 14.6824C100.743 14.7754 100.769 14.897 100.769 15.0496C100.769 15.0782 100.769 15.1044 100.769 15.1307C100.769 15.145 100.767 15.1688 100.764 15.1974C100.752 15.288 100.719 15.3739 100.652 15.4669C100.575 15.5718 100.48 15.6814 100.367 15.7983C100.25 15.9175 100.128 16.0462 99.9969 16.1797C99.8582 16.3228 99.7292 16.4825 99.612 16.6566C99.4925 16.8354 99.3945 17.0309 99.3156 17.2431C99.2344 17.4648 99.1961 17.7152 99.1961 17.987C99.1961 18.0466 99.2033 18.1491 99.2153 18.3041C99.2296 18.471 99.2631 18.6593 99.318 18.8668C99.3754 19.0813 99.4662 19.3055 99.5881 19.5367C99.7172 19.7799 99.8917 20.0017 100.112 20.2019C100.339 20.4046 100.618 20.5667 100.951 20.6931C101.295 20.8242 101.701 20.8862 102.174 20.8862C102.232 20.8862 102.327 20.8791 102.488 20.8671C102.657 20.8552 102.846 20.8218 103.059 20.7694C103.281 20.7145 103.508 20.6311 103.745 20.5143C103.991 20.3951 104.216 20.2258 104.421 20.016C104.632 19.8014 104.801 19.5296 104.933 19.2125C105.076 18.8882 105.138 18.4972 105.138 18.049ZM102.28 15.1903C102.28 15.1903 102.28 15.1807 102.282 15.1688C102.287 15.1426 102.287 15.1116 102.287 15.083C102.287 15.0687 102.287 15.0544 102.287 15.0377H102.755C103.422 15.0663 103.594 15.2117 103.611 15.598V18.0514V18.0537C103.611 18.0609 103.604 18.1229 103.594 18.2063C103.585 18.2802 103.561 18.3732 103.525 18.4853C103.491 18.5902 103.441 18.7023 103.372 18.8215C103.307 18.9311 103.226 19.036 103.121 19.1314C103.023 19.222 102.899 19.3007 102.739 19.3627C102.59 19.4223 102.406 19.4557 102.186 19.4557C102.165 19.4557 102.108 19.4533 102.021 19.4485C101.95 19.4437 101.857 19.4294 101.749 19.4032C101.649 19.3794 101.539 19.3365 101.424 19.2769C101.316 19.222 101.218 19.1457 101.123 19.0432C101.034 18.9478 100.955 18.8191 100.891 18.6546C100.831 18.502 100.798 18.2993 100.798 18.0514C100.798 18.0442 100.802 17.9846 100.814 17.9059C100.822 17.8487 100.853 17.7438 100.91 17.6103C100.965 17.4815 101.053 17.3194 101.173 17.131C101.29 16.9475 101.457 16.7329 101.677 16.4873C101.782 16.3514 101.868 16.225 101.95 16.0939C102.024 15.9747 102.091 15.8459 102.151 15.7077C102.217 15.5598 102.258 15.4049 102.275 15.2475L102.28 15.1903Z" fill="white"/>
<path d="M102.695 10.0947H101.421V11.4227C101.436 11.5539 101.464 11.6636 101.512 11.7613C101.56 11.8567 101.632 11.9354 101.72 12.0021C101.833 12.0856 101.969 12.1118 102.119 12.1118H105.805V10.6717H102.875V10.0947H102.695Z" fill="white"/>
<path d="M111.1 20.55C111.222 20.4857 111.334 20.407 111.435 20.314C111.442 20.3092 111.447 20.3021 111.451 20.2973V20.7813H112.979V12.6797H111.451V17.6723V17.6746C111.451 17.6842 111.449 17.7509 111.442 17.8487C111.435 17.9393 111.416 18.0537 111.38 18.192C111.346 18.3232 111.296 18.4686 111.224 18.6236C111.157 18.7666 111.064 18.9001 110.942 19.0241C110.825 19.1433 110.672 19.2459 110.481 19.3293C110.302 19.408 110.072 19.4533 109.788 19.4533C109.771 19.4533 109.702 19.4509 109.599 19.4437C109.51 19.4366 109.396 19.4175 109.264 19.3841C109.138 19.3531 109.001 19.3007 108.856 19.2268C108.724 19.16 108.6 19.0647 108.483 18.9359C108.373 18.8119 108.275 18.6474 108.196 18.44C108.122 18.2469 108.081 17.9965 108.081 17.6913V12.6797H107.902H106.554V17.6723V17.7653C106.554 17.8606 106.561 17.9965 106.575 18.1753C106.592 18.3685 106.63 18.5759 106.695 18.8048C106.759 19.036 106.852 19.2721 106.974 19.5129C107.101 19.7656 107.278 19.9921 107.498 20.1924C107.723 20.3974 108 20.562 108.325 20.6931C108.662 20.8266 109.059 20.891 109.518 20.891H109.788C110.144 20.8647 110.459 20.8051 110.744 20.7074C110.863 20.6645 110.983 20.612 111.1 20.55Z" fill="white"/>
<path d="M65.2736 23.9753C65.0035 24.0564 64.7597 24.1756 64.5446 24.3353C64.327 24.4951 64.1502 24.6977 64.0211 24.9362C63.8872 25.1817 63.8203 25.4631 63.8203 25.7754V30.191C63.8203 30.4986 63.8849 30.7847 64.0163 31.0422C64.143 31.2925 64.3151 31.5095 64.5254 31.6883C64.7358 31.8671 64.9796 32.0054 65.2521 32.1032C65.5246 32.2009 65.809 32.251 66.103 32.251H66.2225H66.2823V32.0722V31.2305H66.103C65.9668 31.2305 65.8281 31.2067 65.6799 31.1542C65.5341 31.1042 65.4003 31.0303 65.2808 30.9397C65.1636 30.849 65.0704 30.7394 64.9939 30.6106C64.9246 30.4866 64.8888 30.3531 64.8888 30.1958V25.7802C64.8888 25.6204 64.9246 25.4965 64.9892 25.3892C65.0633 25.2723 65.1517 25.1794 65.2664 25.1054C65.3835 25.0291 65.5126 24.9695 65.6584 24.9314C65.809 24.8909 65.9548 24.8742 66.1006 24.8718H66.2201H66.2799V23.8418L66.0958 23.8466C65.8162 23.8513 65.5413 23.8942 65.2736 23.9753Z" fill="white"/>
<path d="M70.7498 24.0355V24.0951V29.0972C70.7498 29.2093 70.7354 29.2999 70.7115 29.3738C70.6852 29.4524 70.6494 29.5168 70.6087 29.5717C70.5633 29.6289 70.5155 29.6766 70.4605 29.7123C70.4008 29.7552 70.341 29.7862 70.2837 29.8101C70.1355 29.8745 69.9658 29.9126 69.7674 29.9198C69.5857 29.9102 69.4136 29.8745 69.2678 29.8101C69.208 29.7838 69.1483 29.7529 69.0885 29.7099C69.0336 29.6718 68.9858 29.6265 68.9403 29.5693C68.8997 29.5144 68.8638 29.4501 68.8375 29.3714C68.8113 29.2975 68.7969 29.2069 68.7969 29.0948V25.8022H67.7261V29.0948C67.7548 29.4524 67.848 29.7648 68.0033 30.0366C68.0679 30.1534 68.1515 30.2678 68.2495 30.3775C68.3523 30.4944 68.479 30.5945 68.6224 30.6827C68.7682 30.7709 68.9356 30.8424 69.1244 30.8949C69.318 30.9497 69.5331 30.9736 69.7745 30.9736C70.0112 30.9736 70.2287 30.9474 70.4199 30.8949C70.6063 30.8424 70.7737 30.7709 70.9219 30.6827C71.0653 30.5945 71.1896 30.492 71.2924 30.3751C71.3904 30.2655 71.474 30.151 71.5386 30.0318C71.6939 29.7624 71.7871 29.4501 71.8182 29.1067V24.0283H71.6389H70.7498V24.0355Z" fill="white"/>
<path d="M74.7366 26.8337C74.825 26.817 74.9206 26.8075 75.0234 26.8075C75.0569 26.8075 75.1166 26.8147 75.1907 26.8313C75.2648 26.848 75.3461 26.8695 75.4345 26.9005C75.523 26.9315 75.609 26.9649 75.6951 27.0054C75.7811 27.0459 75.8552 27.0865 75.9222 27.1294L76.3715 27.4203L76.4719 27.2724L76.9643 26.5333L76.4528 26.1876C76.3333 26.1042 76.197 26.0302 76.0488 25.9659C75.9198 25.911 75.774 25.8634 75.6066 25.8157C75.4274 25.7656 75.2338 25.7441 75.0234 25.7441C74.8179 25.7441 74.6147 25.7704 74.4115 25.8252C74.2036 25.88 74.0147 25.973 73.8474 26.0994C73.6753 26.2281 73.5391 26.3974 73.4363 26.5953C73.3287 26.8051 73.2785 27.0507 73.2785 27.3249C73.2785 27.3249 73.2785 27.332 73.2785 27.3368C73.2785 27.5132 73.3 27.6825 73.3478 27.8327C73.3932 27.9758 73.4554 28.1021 73.5343 28.2142C73.6108 28.3191 73.6968 28.4121 73.7948 28.4836C73.8833 28.5504 73.9741 28.6052 74.0649 28.6481C74.1486 28.6887 74.2298 28.7197 74.3063 28.7411C74.3757 28.7602 74.4306 28.7769 74.4784 28.784C74.5286 28.796 74.6099 28.8103 74.7199 28.8269C74.825 28.8436 74.9326 28.8627 75.0402 28.8794C75.1477 28.8961 75.2433 28.9128 75.327 28.9271C75.3676 28.9342 75.4011 28.939 75.425 28.9414C75.4369 28.9438 75.4441 28.9462 75.4513 28.9462C75.4537 28.9462 75.4561 28.9462 75.4561 28.9462H75.4584C75.4824 28.9509 75.5206 28.9605 75.5708 28.9748C75.5995 28.9843 75.6306 29.001 75.6688 29.0296C75.6975 29.0534 75.7286 29.0892 75.7572 29.144C75.7764 29.1798 75.7955 29.2466 75.7955 29.3419C75.7955 29.4302 75.7787 29.5041 75.7453 29.5684C75.7118 29.6352 75.6664 29.6924 75.5995 29.7449C75.5349 29.7973 75.4561 29.8379 75.3533 29.8689C75.2529 29.8998 75.1358 29.9165 75.0043 29.9165C74.8704 29.9165 74.7414 29.9022 74.6171 29.876C74.488 29.8498 74.3685 29.814 74.2585 29.7687C74.1462 29.7258 74.0482 29.6757 73.9645 29.6233C73.8785 29.5684 73.8139 29.5184 73.7685 29.4755L73.6849 29.392L73.6418 29.3515L72.9224 30.0524L73.0323 30.1812C73.1638 30.3314 73.3239 30.4601 73.5152 30.5674C73.6801 30.6652 73.8833 30.7486 74.1223 30.8249C74.3757 30.9036 74.6697 30.9418 75.0091 30.9418C75.2553 30.9418 75.4895 30.9108 75.7118 30.8512C75.9365 30.7892 76.1397 30.6938 76.3118 30.5603C76.4863 30.4268 76.6273 30.2551 76.7253 30.0524C76.8257 29.8498 76.8735 29.6161 76.8759 29.3586V29.3372V29.3348C76.8759 29.1464 76.8376 28.9652 76.7612 28.7959C76.6847 28.6291 76.5843 28.4812 76.46 28.3525C76.3357 28.2237 76.1923 28.1164 76.0321 28.0306C75.872 27.9424 75.6999 27.8852 75.523 27.8542C75.3652 27.828 75.2075 27.8017 75.0497 27.7779C74.9015 27.7564 74.7724 27.723 74.6601 27.6825C74.5549 27.6444 74.4784 27.5943 74.4211 27.5371C74.3804 27.4942 74.3541 27.4369 74.3541 27.3225C74.3541 27.1961 74.3757 27.1079 74.4043 27.0531C74.4402 26.9863 74.4784 26.9434 74.5286 26.9076C74.5932 26.8766 74.6577 26.8504 74.7366 26.8337Z" fill="white"/>
<path d="M79.1465 29.2543V29.135V29.0754H78.9673H78.1211V29.9576C78.1283 30.053 78.1498 30.1293 78.1856 30.1984C78.2191 30.2652 78.2717 30.3248 78.3314 30.3677C78.4151 30.4297 78.5155 30.4488 78.6159 30.4488H80.3966V29.4283H79.1465V29.2543Z" fill="white"/>
<path d="M79.1465 26.3736V26.2544V26.1948H78.9673H78.1211V27.077C78.1283 27.17 78.1498 27.2463 78.1856 27.3154C78.2191 27.3822 78.2717 27.4418 78.3314 27.4871C78.4151 27.5491 78.5155 27.5681 78.6159 27.5681H80.3966V26.5477H79.1465V26.3736Z" fill="white"/>
<path d="M81.8262 30.8776H81.8859H82.9066V30.6988V25.7754H81.8262V30.8776Z" fill="white"/>
<path d="M88.5809 27.4346C88.5714 27.313 88.5451 27.1842 88.5092 27.0435C88.471 26.8981 88.4112 26.7503 88.3323 26.6025C88.2487 26.4451 88.1363 26.3021 87.9977 26.1757C87.8543 26.0446 87.6774 25.942 87.4718 25.8634C87.2567 25.7799 87.0057 25.7441 86.7213 25.7441H86.5563C86.3317 25.7513 86.1309 25.7823 85.9492 25.8419C85.8703 25.8681 85.7962 25.8991 85.7221 25.9349C85.6815 25.954 85.6409 25.9754 85.605 26.0016V25.8347V25.7751H84.5342V30.8798H85.605V27.7278C85.605 27.7111 85.6074 27.6849 85.6098 27.6539C85.6146 27.6086 85.6241 27.5466 85.6457 27.4727C85.6648 27.4036 85.6935 27.3273 85.7365 27.2414C85.7723 27.1675 85.8249 27.0984 85.8942 27.0316C85.9588 26.9696 86.0424 26.9172 86.1524 26.8719C86.2528 26.8313 86.3843 26.8075 86.5516 26.8075C86.5611 26.8075 86.6042 26.8099 86.6663 26.8123C86.7141 26.8147 86.7786 26.8242 86.8575 26.8433C86.9292 26.86 87.0057 26.8886 87.0918 26.9315C87.1659 26.9673 87.2352 27.0173 87.2997 27.0865C87.3595 27.1508 87.4145 27.2343 87.4599 27.3463C87.5005 27.4465 87.5244 27.58 87.5244 27.7517V30.8798H87.7037H88.5953V27.7517V27.6944C88.5953 27.6301 88.5905 27.5466 88.5809 27.4346Z" fill="white"/>
<path d="M94.466 25.7186L94.4277 25.7639L94.466 25.7186C94.4516 25.7067 94.4325 25.6876 94.4086 25.6662C94.3823 25.6399 94.356 25.6137 94.3273 25.5851C94.2963 25.5541 94.2676 25.5255 94.2389 25.4969C94.1648 25.423 94.0859 25.3467 93.9999 25.2632L93.8803 25.1488L93.8206 25.0916L93.713 25.3157C93.6581 25.4325 93.5911 25.5159 93.5122 25.5779C93.419 25.6518 93.3306 25.7067 93.2517 25.7424C93.1657 25.783 93.094 25.8068 93.0414 25.8164C93.0103 25.8211 92.9864 25.8259 92.9673 25.8307C92.8717 25.8044 92.7713 25.783 92.6661 25.7687C92.5466 25.752 92.4151 25.7448 92.2765 25.7448H92.2311C92.1737 25.7448 92.0924 25.7496 91.9825 25.7591C91.8582 25.7687 91.7267 25.7949 91.5833 25.8354C91.4327 25.8784 91.2821 25.9427 91.1292 26.0262C90.9666 26.1144 90.816 26.236 90.6846 26.3862C90.5459 26.5412 90.4384 26.7319 90.3547 26.9513C90.2687 27.1825 90.228 27.4519 90.228 27.7595V30.8805H91.2989V29.4261C91.3275 29.3522 91.361 29.2878 91.4016 29.233C91.4423 29.1734 91.4925 29.1257 91.557 29.0851C91.6909 28.9993 91.8438 28.954 92.0351 28.954C92.1139 28.954 92.188 28.9564 92.2574 28.9612C92.3099 28.9635 92.3482 28.9755 92.3864 28.9945L92.5585 29.0804L92.6446 29.1233V27.9574L92.5083 27.924C92.3577 27.8883 92.2 27.8716 92.0351 27.8716C91.851 27.8716 91.6741 27.893 91.5044 27.9407C91.4327 27.9598 91.3658 27.9836 91.2965 28.0099V27.8143C91.3156 27.6331 91.3634 27.4591 91.4423 27.3065C91.4734 27.2445 91.514 27.1849 91.5642 27.1229C91.6096 27.0681 91.6646 27.0156 91.7315 26.9679C91.796 26.9226 91.8701 26.8869 91.961 26.8559C92.0446 26.8297 92.1474 26.813 92.2717 26.813C92.4581 26.8225 92.6231 26.8654 92.7689 26.9393C92.8286 26.9679 92.886 27.0061 92.9481 27.0585C93.0031 27.1038 93.0533 27.1587 93.0987 27.2302C93.1418 27.2946 93.1776 27.3756 93.2063 27.4734C93.2326 27.564 93.2493 27.6784 93.2493 27.812V30.8829H94.3202V27.812V27.769C94.3202 27.7166 94.3154 27.6498 94.3106 27.5569C94.301 27.4543 94.2819 27.3423 94.2556 27.2207C94.2269 27.0919 94.1815 26.9608 94.1218 26.8225C94.0835 26.7367 94.0381 26.6532 93.9855 26.5722C93.9951 26.565 94.0022 26.5579 94.0118 26.5507C94.0907 26.4887 94.1672 26.4196 94.2437 26.348C94.3202 26.2765 94.3871 26.2074 94.4444 26.1382C94.4946 26.0715 94.5568 26.0214 94.5664 25.8998V25.8426V25.8164L94.5114 25.7639C94.497 25.7448 94.4827 25.7353 94.466 25.7186Z" fill="white"/>
<path d="M97.2625 23.1769L97.2147 23.2126L97.2625 23.1769C97.1932 23.0839 97.1119 22.9981 97.0163 22.9218C96.9255 22.8502 96.8251 22.7882 96.7127 22.7382L96.6769 22.7215C96.543 22.6643 96.3948 22.6285 96.2299 22.6094L96.1582 22.6023L96.1223 22.5975L95.8618 22.9742L95.5941 22.5808L94.8794 23.2436L95.7877 24.4524L96.3733 23.8754C96.3805 23.885 96.39 23.8945 96.3972 23.9041C96.4259 23.9398 96.4546 23.9899 96.4833 24.0447C96.5048 24.0876 96.5119 24.121 96.5119 24.1496V30.8803H97.5828V24.1496C97.5684 23.8898 97.5159 23.6585 97.4202 23.4463C97.3772 23.3557 97.3246 23.2651 97.2625 23.1769Z" fill="white"/>
<path d="M103.21 27.4357C103.2 27.3141 103.176 27.1854 103.138 27.0447C103.098 26.8993 103.04 26.7514 102.961 26.6036C102.878 26.4463 102.765 26.3032 102.629 26.1768C102.486 26.0457 102.309 25.9408 102.103 25.8621C101.888 25.7811 101.637 25.7429 101.353 25.7429H101.188C100.963 25.7501 100.762 25.7811 100.581 25.8407C100.502 25.8669 100.428 25.8979 100.354 25.9337C100.313 25.9527 100.275 25.9742 100.239 26.0004V25.8359V25.7763H99.168V30.8809H100.239V27.7528C100.239 27.7528 100.241 27.7147 100.244 27.6575C100.248 27.6145 100.258 27.5525 100.279 27.4786C100.299 27.4095 100.327 27.3308 100.37 27.2474C100.406 27.1758 100.459 27.1067 100.528 27.0376C100.593 26.978 100.676 26.9231 100.786 26.8778C100.884 26.8373 101.018 26.8134 101.185 26.8134C101.195 26.8134 101.236 26.8158 101.298 26.8182C101.345 26.8206 101.41 26.8301 101.489 26.8492C101.561 26.8659 101.637 26.8945 101.723 26.9374C101.797 26.9732 101.867 27.0232 101.931 27.0924C101.991 27.1544 102.046 27.2402 102.091 27.3523C102.132 27.4524 102.156 27.5883 102.156 27.7576V30.8857H102.335H103.227V27.7576V27.698C103.222 27.6312 103.219 27.5478 103.21 27.4357Z" fill="white"/>
<path d="M108.662 25.7744H107.77V29.3555C107.756 29.4533 107.725 29.5415 107.682 29.6154C107.646 29.675 107.593 29.7323 107.515 29.7895C107.462 29.8276 107.369 29.8586 107.223 29.8562H106.367H106.35C106.336 29.8562 106.305 29.8562 106.26 29.8539C106.231 29.8539 106.188 29.8467 106.14 29.8372C106.099 29.8276 106.052 29.8109 105.999 29.7871C105.956 29.7656 105.918 29.7394 105.882 29.7036C105.849 29.6703 105.82 29.6273 105.796 29.563C105.774 29.5105 105.76 29.4318 105.76 29.3317C105.76 29.3317 105.762 29.3079 105.765 29.2769C105.767 29.2626 105.772 29.2316 105.784 29.1934C105.794 29.1624 105.81 29.129 105.834 29.0885C105.851 29.0599 105.877 29.0313 105.918 29.0003C105.954 28.9741 106.009 28.9455 106.083 28.9216C106.145 28.9025 106.236 28.8882 106.346 28.8882H107.094V27.8678H106.346H106.343C106.343 27.8678 106.312 27.8654 106.276 27.863C106.243 27.8606 106.197 27.8535 106.143 27.8416C106.092 27.832 106.037 27.8129 105.978 27.7867C105.927 27.7653 105.88 27.7343 105.834 27.6937C105.794 27.658 105.76 27.6103 105.729 27.5483C105.705 27.4982 105.688 27.4243 105.688 27.3266C105.696 27.2288 105.722 27.1406 105.767 27.0619C105.784 27.0333 105.81 26.9999 105.844 26.9642C105.87 26.9356 105.903 26.9093 105.949 26.8831C105.99 26.8593 106.042 26.8378 106.109 26.8187C106.171 26.802 106.25 26.7925 106.343 26.7925H107.091V25.772H105.961C105.707 25.7864 105.48 25.8483 105.282 25.9652C105.194 26.0176 105.112 26.082 105.033 26.1559C104.95 26.237 104.876 26.3323 104.814 26.442C104.749 26.5565 104.701 26.6852 104.665 26.8283C104.629 26.9785 104.613 27.143 104.61 27.3242C104.622 27.5292 104.663 27.7104 104.73 27.8749C104.761 27.9465 104.797 28.0156 104.837 28.0848C104.88 28.1587 104.935 28.2302 104.998 28.2922C105.045 28.3399 105.098 28.3828 105.155 28.4209C105.122 28.4472 105.088 28.4758 105.055 28.5044C104.95 28.5997 104.861 28.7213 104.785 28.862C104.699 29.0218 104.663 29.2101 104.661 29.4199C104.661 29.4819 104.668 29.5534 104.677 29.6417C104.689 29.7394 104.716 29.8395 104.754 29.9445C104.794 30.0565 104.852 30.1638 104.926 30.2711C105.007 30.3879 105.112 30.4904 105.241 30.5787C105.373 30.6693 105.531 30.7408 105.71 30.7932C105.899 30.8481 106.114 30.8719 106.36 30.8719H107.249C107.299 30.8719 107.362 30.8648 107.448 30.8552C107.543 30.8433 107.646 30.8195 107.756 30.7861C107.873 30.7503 107.99 30.7026 108.112 30.6383C108.244 30.5691 108.361 30.4761 108.466 30.3641C108.573 30.2473 108.662 30.1066 108.726 29.9468C108.796 29.7752 108.829 29.5797 108.829 29.3603V25.7649H108.662V25.7744Z" fill="white"/>
<path d="M112.802 24.9338C112.67 24.6977 112.496 24.4951 112.278 24.3353C112.063 24.1756 111.819 24.0564 111.549 23.9753C111.281 23.8942 111.007 23.8513 110.725 23.8466L110.603 23.8442L110.54 23.8418V24.867H110.72C110.863 24.867 111.009 24.8861 111.16 24.9266C111.305 24.9648 111.437 25.022 111.552 25.0983C111.664 25.1722 111.755 25.2652 111.826 25.382C111.893 25.4893 111.927 25.6109 111.929 25.7706V30.1862C111.929 30.346 111.893 30.4795 111.824 30.6035C111.75 30.7346 111.654 30.8419 111.537 30.9325C111.418 31.0255 111.286 31.097 111.14 31.1471C110.992 31.1995 110.851 31.2234 110.717 31.2234H110.598H110.538V31.4022V32.2438H110.717H110.722C111.014 32.2438 111.296 32.1938 111.568 32.096C111.838 31.9982 112.082 31.86 112.295 31.6811C112.508 31.5023 112.68 31.2854 112.806 31.035C112.933 30.7871 112.998 30.5081 113 30.2125V25.7706C113.002 25.4607 112.936 25.1793 112.802 24.9338Z" fill="white"/>
<path d="M65.1473 39.3374H66.34L67.6045 44.1035H66.6006L66.3783 43.095H65.1066L64.8867 44.1035H63.8828L65.1473 39.3374ZM65.2739 42.3082H66.2109L65.7496 40.1647H65.7353L65.2739 42.3082Z" fill="white"/>
<path d="M69.0519 39.3374L70.216 42.6014H70.2303V39.3374H71.1147V44.1035H70.0176L68.8392 40.7656H68.8248V44.1035H67.9404V39.3374H69.0519Z" fill="white"/>
<path d="M74.5841 39.3374V40.1242H73.5396V44.1035H72.5763V40.1266H71.5317V39.3398H74.5841V39.3374Z" fill="white"/>
<path d="M75.0449 44.1057V39.3396H76.0106V44.1057H75.0449Z" fill="white"/>
<path d="M78.5343 41.323V42.1098H76.646V41.323H78.5343Z" fill="white"/>
<path d="M81.2452 40.9475C81.2452 40.2536 81.1042 39.9532 80.6691 39.9532C80.1815 39.9532 80.0668 40.4396 80.0668 41.7891C80.0668 43.2316 80.2676 43.4914 80.6835 43.4914C81.0325 43.4914 81.2858 43.3102 81.2858 42.2826H82.2515C82.2515 43.3102 81.9981 44.1995 80.7313 44.1995C79.2852 44.1995 79.1035 43.1719 79.1035 41.7223C79.1035 40.2727 79.2852 39.2451 80.7313 39.2451C82.1105 39.2451 82.2109 40.2536 82.2109 40.9475H81.2452Z" fill="white"/>
<path d="M84.3265 39.2451C85.7726 39.2451 85.9543 40.2727 85.9543 41.7223C85.9543 43.1719 85.775 44.1995 84.3265 44.1995C82.8804 44.1995 82.6987 43.1719 82.6987 41.7223C82.6987 40.2727 82.8804 39.2451 84.3265 39.2451ZM84.3265 43.4914C84.8954 43.4914 84.9886 43.005 84.9886 41.7223C84.9886 40.4468 84.8954 39.9532 84.3265 39.9532C83.7576 39.9532 83.6644 40.4468 83.6644 41.7223C83.6644 43.0027 83.7576 43.4914 84.3265 43.4914Z" fill="white"/>
<path d="M86.5229 39.3374H88.3037C89.0949 39.3374 89.5753 39.7523 89.5753 40.5653C89.5753 41.1995 89.322 41.6263 88.7794 41.7407V41.755C89.4367 41.8408 89.5371 42.2032 89.549 43.2094C89.5562 43.7101 89.5825 43.97 89.7642 44.063V44.1035H88.7196C88.6264 43.97 88.6049 43.7888 88.6001 43.6028L88.5738 42.6872C88.5595 42.3129 88.3921 42.0864 88.0049 42.0864H87.4886V44.1035H86.5253V39.3374H86.5229ZM87.4886 41.4212H87.8902C88.3515 41.4212 88.6144 41.2209 88.6144 40.706C88.6144 40.2649 88.3802 40.0455 87.9452 40.0455H87.4886V41.4212Z" fill="white"/>
<path d="M90.2471 39.3374H92.0278C92.819 39.3374 93.2994 39.7523 93.2994 40.5653C93.2994 41.1995 93.0461 41.6263 92.5035 41.7407V41.755C93.1608 41.8408 93.2612 42.2032 93.2731 43.2094C93.2803 43.7101 93.3066 43.97 93.4883 44.063V44.1035H92.4437C92.3505 43.97 92.329 43.7888 92.3242 43.6028L92.2979 42.6872C92.2836 42.3129 92.1163 42.0864 91.729 42.0864H91.2127V44.1035H90.2495V39.3374H90.2471ZM91.2103 41.4212H91.6119C92.0732 41.4212 92.3362 41.2209 92.3362 40.706C92.3362 40.2649 92.1019 40.0455 91.6669 40.0455H91.2103V41.4212Z" fill="white"/>
<path d="M94.9417 39.3374V42.661C94.9417 43.1355 95.0565 43.4884 95.5035 43.4884C95.9528 43.4884 96.0652 43.1355 96.0652 42.661V39.3374H97.0308V42.661C97.0308 43.877 96.2875 44.1965 95.5035 44.1965C94.7194 44.1965 93.9761 43.9366 93.9761 42.661V39.3374H94.9417Z" fill="white"/>
<path d="M97.6396 39.3374H99.3272C100.305 39.3374 100.639 40.0527 100.639 40.7656C100.639 41.7526 100.03 42.2009 99.1192 42.2009H98.6029V44.1035H97.6396V39.3374ZM98.6029 41.4951H99.0308C99.4132 41.4951 99.6738 41.2686 99.6738 40.7799C99.6738 40.3126 99.4873 40.0455 99.0045 40.0455H98.6029V41.4951Z" fill="white"/>
<path d="M103.915 39.3374V40.1242H102.871V44.1035H101.905V40.1266H100.86V39.3398H103.915V39.3374Z" fill="white"/>
<path d="M104.376 44.1057V39.3396H105.339V44.1057H104.376Z" fill="white"/>
<path d="M107.584 39.2451C109.03 39.2451 109.212 40.2727 109.212 41.7223C109.212 43.1719 109.03 44.1995 107.584 44.1995C106.138 44.1995 105.957 43.1719 105.957 41.7223C105.959 40.2727 106.138 39.2451 107.584 39.2451ZM107.584 43.4914C108.153 43.4914 108.246 43.005 108.246 41.7223C108.246 40.4468 108.153 39.9532 107.584 39.9532C107.015 39.9532 106.922 40.4468 106.922 41.7223C106.922 43.0027 107.015 43.4914 107.584 43.4914Z" fill="white"/>
<path d="M110.892 39.3374L112.059 42.6014H112.071V39.3374H112.955V44.1035H111.858L110.68 40.7656H110.665V44.1035H109.781V39.3374H110.892Z" fill="white"/>
<path d="M65.4789 47.6724C66.925 47.6724 67.1043 48.7 67.1043 50.1496C67.1043 51.5992 66.9226 52.6268 65.4789 52.6268C64.0328 52.6268 63.8535 51.5992 63.8535 50.1496C63.8511 48.7 64.0328 47.6724 65.4789 47.6724ZM65.4789 51.9163C66.0478 51.9163 66.141 51.4299 66.141 50.1472C66.141 48.8716 66.0478 48.3781 65.4789 48.3781C64.91 48.3781 64.8168 48.8716 64.8168 50.1472C64.8168 51.4299 64.91 51.9163 65.4789 51.9163Z" fill="white"/>
<path d="M68.5981 47.7661H70.3789C71.1677 47.7661 71.6505 48.181 71.6505 48.994C71.6505 49.6282 71.3972 50.055 70.8546 50.1694V50.1837C71.5095 50.2696 71.6099 50.632 71.6242 51.6381C71.6314 52.1388 71.6577 52.3987 71.8394 52.4917V52.5322H70.7948C70.7016 52.3987 70.6801 52.2175 70.6753 52.0315L70.649 51.116C70.6371 50.7416 70.4673 50.5151 70.0801 50.5151H69.5638V52.5322H68.6005V47.7661H68.5981ZM69.5614 49.8499H69.963C70.4243 49.8499 70.6849 49.6497 70.6849 49.1347C70.6849 48.6936 70.4506 48.4742 70.0156 48.4742H69.5614V49.8499Z" fill="white"/>
<path d="M75.3627 49.1792C75.3627 48.8263 75.2025 48.3781 74.8129 48.3781C74.3444 48.3781 74.158 48.8597 74.158 50.0471C74.158 51.1963 74.2656 51.9163 74.8201 51.9163C75.0472 51.9163 75.4153 51.6683 75.4153 51.1557V50.6693H74.7795V49.9612H76.3379V52.5314H75.628V52.0903H75.6137C75.3866 52.4647 75.0591 52.6244 74.6098 52.6244C73.4242 52.6244 73.1899 51.7422 73.1899 50.0947C73.1899 48.4925 73.5652 47.6724 74.7962 47.6724C75.8527 47.6724 76.283 48.2136 76.283 49.1816H75.3627V49.1792Z" fill="white"/>
<path d="M78.8167 47.7661H80.0071L81.2715 52.5322H80.2676L80.0477 51.5237H78.7761L78.5562 52.5322H77.5522L78.8167 47.7661ZM78.9434 50.7369H79.8804L79.419 48.5934H79.4047L78.9434 50.7369Z" fill="white"/>
<path d="M83.6427 47.7661L84.8068 51.0301H84.8211V47.7661H85.7055V52.5322H84.6084L83.43 49.1943H83.4157V52.5322H82.5312V47.7661H83.6427Z" fill="white"/>
<path d="M87.3428 52.5322V47.7661H88.3061V52.5322H87.3428Z" fill="white"/>
<path d="M89.7739 51.8312L91.5356 48.5529H89.8958V47.7661H92.647V48.4933L90.8591 51.743H92.6733V52.5298H89.7763V51.8312H89.7739Z" fill="white"/>
<path d="M95.0203 47.7661H96.2107L97.4751 52.5322H96.4712L96.2513 51.5237H94.9797L94.7598 52.5322H93.7559L95.0203 47.7661ZM95.147 50.7369H96.084L95.6227 48.5934H95.6083L95.147 50.7369Z" fill="white"/>
<path d="M101.164 47.7661V48.5529H100.119V52.5322H99.1559V48.5529H98.1113V47.7661H101.164Z" fill="white"/>
<path d="M102.55 52.5322V47.7661H103.513V52.5322H102.55Z" fill="white"/>
<path d="M106.68 47.6724C108.126 47.6724 108.305 48.7 108.305 50.1496C108.305 51.5992 108.124 52.6268 106.68 52.6268C105.234 52.6268 105.055 51.5992 105.055 50.1496C105.052 48.7 105.234 47.6724 106.68 47.6724ZM106.68 51.9163C107.249 51.9163 107.342 51.4299 107.342 50.1472C107.342 48.8716 107.249 48.3781 106.68 48.3781C106.111 48.3781 106.018 48.8716 106.018 50.1472C106.016 51.4299 106.111 51.9163 106.68 51.9163Z" fill="white"/>
<path d="M110.909 47.7661L112.073 51.0301H112.087V47.7661H112.972V52.5322H111.875L110.696 49.1943H110.682V52.5322H109.797V47.7661H110.909Z" fill="white"/>
<path d="M65.4452 56.0457C66.8913 56.0457 67.0706 57.0733 67.0706 58.5229C67.0706 59.9725 66.8889 61.0001 65.4452 61.0001C63.9991 61.0001 63.8198 59.9725 63.8198 58.5229C63.8198 57.0733 63.9991 56.0457 65.4452 56.0457ZM65.4452 60.2896C66.0141 60.2896 66.1073 59.8032 66.1073 58.5205C66.1073 57.2449 66.0141 56.7514 65.4452 56.7514C64.8763 56.7514 64.7831 57.2449 64.7831 58.5205C64.7831 59.8032 64.8763 60.2896 65.4452 60.2896Z" fill="white"/>
<path d="M69.0732 56.1394H71.7432V56.9262H70.0365V58.0492H71.6428V58.836H70.0365V60.9055H69.0732V56.1394Z" fill="white"/>
<path d="M79.4401 56.1394V56.9262H78.3955V60.9055H77.4322V56.9262H76.3877V56.1394H79.4401Z" fill="white"/>
<path d="M81.2876 56.1394H82.2509V57.961H83.3743V56.1394H84.3376V60.9055H83.3743V58.7883H82.2509V60.9055H81.2876V56.1394Z" fill="white"/>
<path d="M87.3709 56.1394H88.5613L89.8257 60.9055H88.8218L88.6019 59.8969H87.3303L87.1104 60.9055H86.1064L87.3709 56.1394ZM87.4976 59.1101H88.4346L87.9732 56.9667H87.9589L87.4976 59.1101Z" fill="white"/>
<path d="M91.6401 60.9055V56.1394H92.6034V60.9055H91.6401Z" fill="white"/>
<path d="M94.7524 60.9055V56.1394H95.7157V60.1187H97.4224V60.9055H94.7524Z" fill="white"/>
<path d="M100.214 56.1394H101.404L102.669 60.9055H101.665L101.445 59.8969H100.174L99.9536 60.9055H98.9497L100.214 56.1394ZM100.341 59.1101H101.278L100.816 56.9667H100.802L100.341 59.1101Z" fill="white"/>
<path d="M105.549 56.1394L106.713 59.4034H106.727V56.1394H107.612V60.9055H106.515L105.336 57.5676H105.322V60.9055H104.438V56.1394H105.549Z" fill="white"/>
<path d="M109.759 56.1394H111.339C112.677 56.1394 112.919 57.0549 112.919 58.4545C112.919 60.1425 112.558 60.9055 111.279 60.9055H109.759V56.1394ZM110.722 60.1974H111.15C111.819 60.1974 111.953 59.7777 111.953 58.4807C111.953 57.3983 111.867 56.8451 111.131 56.8451H110.722V60.1974Z" fill="white"/>
</svg>
