<?xml version="1.0" encoding="UTF-8"?><svg id="Layer_2" xmlns="http://www.w3.org/2000/svg" viewBox="0 0 1611.02 549.04"><defs><style>.cls-1{fill:#f2f2f2;}.cls-2{fill:#003b59;}.cls-3{fill:#00212b;}.cls-4{fill:#000d11;}.cls-5{fill:#ea1d24;}.cls-6{fill:#fff;}.cls-7{fill:#fffef5;}.cls-8{fill:#fefefe;}.cls-9{isolation:isolate;}</style></defs><g id="Layer_1-2"><g id="Layer_5"><polyline class="cls-4" points="11.29 483.26 113.71 201.77 197.09 173 268.18 252.56 319.93 219.16 408.38 137.99 490.81 123.21 515.54 238.98 590.96 169.56 673.65 193.82 779.08 290.46 804.93 174.73 868.08 167.14 901.12 310.04 973.6 301.58 1023.1 80.5 1152.46 46.29 1233.63 188.93 1315.35 210.47 1381.36 162.67 1423.2 77.01 1550.04 42.82 1525.21 470.05 11.29 483.26 11.29 483.26"/><polygon class="cls-3" points="20.34 456.99 76.08 81.28 204.31 84.45 246.39 340.19 319.01 338.97 323.24 167.79 455.5 171.06 407.98 429.72 487.02 394.83 510.62 142.06 576.01 143.67 569.76 396.87 638.77 371.24 701.16 130.39 773.14 155.99 821.62 279.59 856.14 287.31 890.6 116.3 996.48 154.06 888.69 388.36 976.63 383.74 999.17 204.17 1082.69 178.76 1111.41 375.56 1163.07 310.64 1205.33 159.22 1301.89 169.05 1297.02 366.14 1363.71 389.34 1376.63 113.4 1463.8 130.45 1470.67 238.63 1519.07 193.65 1536.71 132.25 1611.02 153.51 1560.02 495.01 20.34 456.99"/><polygon class="cls-2" points="29.34 479.23 0 201.06 93.64 169.02 142.52 338.06 190.49 365.41 244.07 240.01 296.34 231.15 346.21 393.62 450.53 318.06 533.19 212.85 573 164.84 637.59 164.27 656.25 274.31 709.09 262.53 781.94 235.32 863.53 287.22 916.76 131.13 984.14 161.25 956.94 362.85 1040.04 323.31 1089.62 129.62 1139.58 112.27 1177.34 20 1257.2 19.3 1228.78 225.2 1316.95 327.48 1372.9 157.85 1441.48 127.23 1473.47 0 1548.77 16.76 1551.1 283.59 1544.62 466 29.34 479.23"/></g><g id="Layer_3"><polygon points="1559.13 509.9 4.31 523.47 23.12 424 1577.94 410.43 1559.13 509.9"/><g><g class="cls-9"><polygon points="26.69 332.35 44.57 324.89 37.28 378.4 19.4 385.85 26.69 332.35"/><polygon points="24.39 329.63 42.26 322.18 44.24 322.07 26.37 329.53 24.39 329.63"/><polygon points="19.4 385.85 37.28 378.4 90.79 378.4 72.92 385.85 19.4 385.85"/><polygon points="74.98 387.73 92.85 380.28 92.15 381.21 74.27 388.67 74.98 387.73"/><polygon class="cls-7" points="26.7 332.35 44.57 324.89 135.34 320.15 117.47 327.6 26.7 332.35"/><polygon class="cls-7" points="117.47 327.6 135.34 320.15 90.79 378.4 72.92 385.85 117.47 327.6"/><path d="M117.15,324.79l6.23-.33-3.85,5.05-44.55,58.23-.7,.94h-1.14s-53.52,0-53.52,0h-3.27s.49-3.45,.49-3.45l7.29-53.51,.27-2.08,1.98-.1,90.78-4.74Zm-44.23,61.07l44.55-58.25-90.78,4.74-7.29,53.51h53.52"/><polygon class="cls-7" points="117.47 327.6 72.92 385.85 19.4 385.85 26.7 332.35 117.47 327.6"/><polygon points="26.37 329.53 44.24 322.07 135.02 317.33 117.15 324.79 26.37 329.53"/><polygon points="119.53 329.5 137.4 322.05 92.85 380.28 74.98 387.73 119.53 329.5"/><polygon points="117.15 324.79 135.02 317.33 141.25 317 123.38 324.46 117.15 324.79"/><polygon points="123.38 324.46 141.25 317 137.4 322.05 119.53 329.5 123.38 324.46"/></g><g class="cls-9"><polygon points="128.57 324.18 146.44 316.72 150.27 316.52 132.4 323.97 128.57 324.18"/><polygon points="132.75 326.79 150.62 319.33 180.2 378.4 162.32 385.85 132.75 326.79"/><polygon points="162.32 385.85 180.2 378.4 233.71 378.4 215.84 385.85 162.32 385.85"/><polygon points="218.41 386.44 236.28 378.98 236 381.21 218.13 388.67 218.41 386.44"/><polygon class="cls-7" points="132.75 326.79 150.62 319.33 241.91 314.56 224.04 322.02 132.75 326.79"/><polygon class="cls-7" points="224.04 322.02 241.91 314.56 233.71 378.4 215.84 385.85 224.04 322.02"/><polygon class="cls-7" points="224.04 322.02 215.84 385.85 162.32 385.85 132.75 326.79 224.04 322.02"/><polygon points="132.4 323.97 150.27 316.52 241.56 311.75 223.69 319.2 132.4 323.97"/><polygon points="226.61 322.63 244.48 315.17 236.28 378.98 218.41 386.44 226.61 322.63"/><path d="M223.69,319.2l3.37-.18-.46,3.6-8.2,63.81-.28,2.23h-2.08s-53.52,0-53.52,0h-1.66s-.82-1.65-.82-1.65l-29.57-59.04-1.92-3.81,3.84-.2,91.29-4.77Zm-7.85,66.65l8.2-63.83-91.29,4.77,29.57,59.06h53.52"/><polygon points="223.69 319.2 241.56 311.75 244.94 311.57 227.07 319.03 223.69 319.2"/><polygon points="227.07 319.03 244.94 311.57 244.48 315.17 226.61 322.63 227.07 319.03"/></g><g class="cls-9"><polygon points="37.08 227.97 54.95 220.51 47.47 305.56 29.6 313.01 37.08 227.97"/><path d="M64.42,184.13l17.87-7.46c-4.96,2.07-9.33,5.03-13.11,8.88-8.18,8.35-12.94,19.99-14.23,34.96l-17.87,7.46c1.29-14.97,6.05-26.61,14.23-34.96,3.77-3.85,8.14-6.81,13.11-8.88Z"/><polygon class="cls-7" points="95.02 243.06 112.89 235.61 108.08 290.44 90.21 297.89 95.02 243.06"/><polygon points="97.6 243.55 115.47 236.09 111.56 280.79 93.69 288.25 97.6 243.55"/><polygon points="122.03 310.78 139.9 303.32 145.39 303.02 127.52 310.48 122.03 310.78"/><polygon points="127.52 310.48 145.39 303.02 145.84 303 127.97 310.45 127.52 310.48"/><polygon class="cls-7" points="128.39 306.72 146.26 299.26 145.6 300.18 127.73 307.63 128.39 306.72"/><polygon points="29.6 313.01 47.47 305.56 145.6 300.18 127.73 307.63 29.6 313.01"/><polygon points="128.39 306.72 146.26 299.26 146.72 300.13 128.85 307.58 128.39 306.72"/><path class="cls-7" d="M102.67,228.56l17.87-7.46c-1.32,.55-2.44,1.28-3.34,2.18-2.37,2.33-3.79,6.44-4.31,12.33l-17.87,7.46c.52-5.89,1.94-10,4.31-12.33,.9-.9,2.02-1.62,3.34-2.18Z"/><path d="M103.75,231.2l17.87-7.46c-1.04,.43-1.91,.99-2.59,1.66-1.91,1.9-3.09,5.48-3.57,10.68l-17.87,7.46c.48-5.2,1.66-8.78,3.57-10.68,.68-.67,1.54-1.23,2.59-1.66Z"/><path class="cls-7" d="M64.42,184.13l17.87-7.46c5.8-2.42,12.42-3.63,19.84-3.63l-17.87,7.46c-7.42,0-14.04,1.21-19.84,3.63Z"/><path d="M102.67,228.56l17.87-7.46c2.12-.88,4.77-1.32,7.95-1.32l-17.87,7.46c-3.19,0-5.84,.44-7.95,1.32Z"/><polygon points="124.17 250.42 142.04 242.97 108.08 290.44 90.21 297.89 124.17 250.42"/><polygon points="110.62 227.23 128.49 219.78 140.68 219.78 122.81 227.23 110.62 227.23"/><polygon class="cls-7" points="124.17 250.42 142.04 242.97 160.67 242.97 142.8 250.42 124.17 250.42"/><polygon class="cls-7" points="142.8 250.42 160.67 242.97 185.97 290.44 168.1 297.89 142.8 250.42"/><polygon points="145.04 249.15 162.91 241.7 184.11 281.53 166.24 288.99 145.04 249.15"/><polygon class="cls-7" points="126.92 180.5 144.79 173.04 140.68 219.78 122.81 227.23 126.92 180.5"/><polygon class="cls-7" points="84.26 180.5 102.13 173.04 144.79 173.04 126.92 180.5 84.26 180.5"/><polygon points="128.85 307.58 146.72 300.13 244.87 294.75 227 302.2 128.85 307.58"/><polygon points="178.4 180.5 196.27 173.04 185.97 290.44 168.1 297.89 178.4 180.5"/><polygon class="cls-7" points="178.4 180.5 196.27 173.04 255.56 173.04 237.69 180.5 178.4 180.5"/><polygon class="cls-7" points="237.69 180.5 255.56 173.04 244.87 294.75 227 302.2 237.69 180.5"/><path d="M237.48,177.68h3.08s-.29,3.3-.29,3.3l-10.68,121.71-.19,2.21-2.07,.13-98.16,5.38-1.2,.06-5.94,.32-92.09,5.05-3.23,.18,.3-3.48,7.46-85.05c1.36-15.55,6.4-27.86,14.97-36.61,8.59-8.75,20.24-13.19,34.6-13.19h42.66s3.11,0,3.11,0l-.29,3.3-4.11,46.73-.2,2.33h-2.19s-12.19,0-12.19,0c-4.53,0-7.8,.96-9.67,2.82-1.91,1.9-3.09,5.48-3.57,10.68l-3.91,44.7,28.38-39.66,.7-.99h1.19s18.63,0,18.63,0h1.61s.84,1.55,.84,1.55l21.2,39.83,9.58-108.97,.2-2.33h2.17s59.28,0,59.28,0Zm-10.47,124.52l10.68-121.71h-59.28s-10.3,117.39-10.3,117.39l-25.3-47.47h-18.63s-33.96,47.47-33.96,47.47l4.81-54.83c.52-5.89,1.94-10,4.31-12.33,2.35-2.33,6.11-3.5,11.3-3.5h12.19s4.11-46.73,4.11-46.73h-42.66c-13.78,0-24.77,4.16-32.95,12.51-8.18,8.35-12.94,19.99-14.23,34.96l-7.49,85.05,98.13-5.38,.66-.91,.46,.86,98.16-5.38"/><polygon points="127.97 310.45 122.03 310.78 127.52 310.48 127.97 310.45"/><path d="M63.31,181.51l17.87-7.46c6.1-2.54,13.03-3.83,20.74-3.83l-17.87,7.46c-7.71,0-14.65,1.28-20.74,3.82Z"/><polygon points="122.77 247.6 140.64 240.15 141.83 240.15 123.96 247.6 122.77 247.6"/><polygon points="125.42 227.71 143.29 220.26 143.09 222.59 125.22 230.05 125.42 227.71"/><polygon points="123.96 247.6 141.83 240.15 160.46 240.15 142.59 247.6 123.96 247.6"/><polygon points="142.59 247.6 160.46 240.15 162.07 240.15 144.2 247.6 142.59 247.6"/><polygon points="144.2 247.6 162.07 240.15 162.91 241.7 145.04 249.15 144.2 247.6"/><polygon points="84.05 177.68 101.92 170.22 144.58 170.22 126.71 177.68 84.05 177.68"/><polygon points="129.52 180.98 147.39 173.52 143.29 220.26 125.42 227.71 129.52 180.98"/><polygon points="126.71 177.68 144.58 170.22 147.68 170.22 129.81 177.68 126.71 177.68"/><polygon points="129.81 177.68 147.68 170.22 147.39 173.52 129.52 180.98 129.81 177.68"/><polygon points="229.58 302.69 247.45 295.23 247.27 297.44 229.4 304.89 229.58 302.69"/><polygon points="176.02 177.68 193.89 170.22 196.06 170.22 178.19 177.68 176.02 177.68"/><path class="cls-7" d="M237.69,180.5l-10.68,121.71-98.16,5.38-.46-.86-.66,.91-98.13,5.38,7.49-85.05c1.29-14.97,6.05-26.61,14.23-34.96,8.18-8.35,19.17-12.51,32.95-12.51h42.66s-4.11,46.73-4.11,46.73h-12.19c-5.18,0-8.95,1.17-11.3,3.5-2.37,2.33-3.79,6.44-4.31,12.33l-4.81,54.83,33.96-47.47h18.63s25.3,47.47,25.3,47.47l10.3-117.39h59.28Z"/><polygon points="178.19 177.68 196.06 170.22 255.35 170.22 237.48 177.68 178.19 177.68"/><polygon points="240.27 180.98 258.14 173.52 247.45 295.23 229.58 302.69 240.27 180.98"/><polygon points="240.56 177.68 258.43 170.22 258.14 173.52 240.27 180.98 240.56 177.68"/><polygon points="237.48 177.68 255.35 170.22 258.43 170.22 240.56 177.68 237.48 177.68"/></g><g class="cls-9"><polygon points="185.91 91.06 203.78 83.61 197.87 150.97 180 158.42 185.91 91.06"/><polygon points="183.53 88.25 201.4 80.79 203.57 80.79 185.7 88.25 183.53 88.25"/><polygon points="180 158.42 197.87 150.97 257.48 150.97 239.61 158.42 180 158.42"/><polygon points="242.2 158.91 260.07 151.45 259.87 153.78 242 161.24 242.2 158.91"/><polygon class="cls-7" points="185.91 91.06 203.78 83.61 263.39 83.61 245.52 91.06 185.91 91.06"/><polygon class="cls-7" points="245.52 91.06 263.39 83.61 257.48 150.97 239.61 158.42 245.52 91.06"/><polygon class="cls-7" points="245.52 91.06 239.61 158.42 180 158.42 185.91 91.06 245.52 91.06"/><polygon points="185.7 88.25 203.57 80.79 263.18 80.79 245.31 88.25 185.7 88.25"/><polygon points="248.1 91.54 265.97 84.09 260.07 151.45 242.2 158.91 248.1 91.54"/><path d="M245.31,88.25h3.08s-.29,3.3-.29,3.3l-5.91,67.36-.2,2.33h-2.17s-59.61,0-59.61,0h-3.08s.29-3.32,.29-3.32l5.91-67.34,.2-2.33h2.17s59.61,0,59.61,0Zm-5.7,70.18l5.91-67.36h-59.61s-5.91,67.36-5.91,67.36h59.61"/><polygon points="245.31 88.25 263.18 80.79 266.26 80.79 248.39 88.25 245.31 88.25"/><polygon points="248.39 88.25 266.26 80.79 265.97 84.09 248.1 91.54 248.39 88.25"/></g><g class="cls-9"><polygon points="278.2 544.6 296.07 537.15 290.91 541.59 273.04 549.04 278.2 544.6"/><path d="M303.09,317.76l17.87-7.46c-8.88,75.05-17.72,149.54-26.6,224.59l-17.87,7.46c8.88-75.05,17.72-149.54,26.6-224.59Z"/><polygon points="365.57 315.25 383.44 307.79 361.14 480.42 343.27 487.87 365.57 315.25"/><path d="M340.7,487.26l17.87-7.46c-21.4,18.37-42.82,36.74-64.22,55.08l-17.87,7.46c21.4-18.34,42.82-36.71,64.22-55.08Z"/><polygon points="310.31 517.08 328.18 509.62 296.07 537.15 278.2 544.6 310.31 517.08"/><polygon points="342.42 489.55 360.29 482.09 328.18 509.62 310.31 517.08 342.42 489.55"/><polygon points="343.14 488.91 361.01 481.46 360.29 482.09 342.42 489.55 343.14 488.91"/><polygon points="343.27 487.87 361.14 480.42 361.01 481.46 343.14 488.91 343.27 487.87"/><polygon points="300.76 315.04 318.63 307.59 320.63 307.48 302.76 314.94 300.76 315.04"/><polygon class="cls-7" points="303.09 317.76 320.96 310.3 380.85 307.18 362.98 314.64 303.09 317.76"/><polygon points="366.03 311.64 383.9 304.19 383.44 307.79 365.57 315.25 366.03 311.64"/><path d="M362.98,314.64l17.87-7.46c-7.46,57.8-14.82,114.83-22.28,172.63l-17.87,7.46c7.46-57.8,14.82-114.83,22.28-172.63Z"/><path class="cls-7" d="M362.98,314.64c-7.46,57.8-14.82,114.83-22.28,172.63-21.4,18.37-42.82,36.74-64.22,55.08,8.88-75.05,17.72-149.54,26.6-224.59l59.89-3.12Z"/><polygon points="302.76 314.94 320.63 307.48 380.52 304.36 362.65 311.82 302.76 314.94"/><polygon points="362.65 311.82 380.52 304.36 383.9 304.19 366.03 311.64 362.65 311.82"/><path d="M362.65,311.82l3.37-.18-.46,3.6-22.3,172.63-.13,1.04-.72,.63-32.11,27.53-32.11,27.53-5.16,4.44,.86-7.28,6.36-53.74,20.26-170.85,.24-2.13,2-.1,59.89-3.12Zm-21.95,175.44c7.46-57.8,14.82-114.83,22.28-172.63l-59.89,3.12c-8.88,75.05-17.72,149.54-26.6,224.59,21.4-18.34,42.82-36.71,64.22-55.08"/></g><g class="cls-9"><polygon points="251.13 237.15 269 229.7 264.69 231.95 246.82 239.41 251.13 237.15"/><path d="M258.15,233.87l17.87-7.46c-2.33,.97-4.66,2.07-7.01,3.28l-17.87,7.46c2.35-1.22,4.69-2.31,7.01-3.28Z"/><polygon points="254.11 186 271.99 178.55 267.74 227.13 249.87 234.59 254.11 186"/><path class="cls-7" d="M274.94,223.77c-2.38,.99-4.79,2.12-7.2,3.37l-17.87,7.46c2.42-1.25,4.82-2.37,7.2-3.37,5.36-2.24,12.51-5.22,17.87-7.46Z"/><path d="M258.98,183.7l17.87-7.46c-1.77,.74-3.39,1.51-4.87,2.3l-17.87,7.46c1.47-.79,3.09-1.56,4.87-2.3Z"/><polygon points="312.14 258.13 330.01 250.68 326.54 290.26 308.67 297.71 312.14 258.13"/><path d="M257.07,231.22l17.87-7.46c9.29-3.87,18.33-5.82,27.14-5.82,11.28,0,19,2.69,23.16,8.09,4.16,5.38,5.75,13.6,4.78,24.64l-17.87,7.46c.98-11.04-.62-19.26-4.78-24.64-4.16-5.4-11.88-8.09-23.16-8.09-8.81,0-17.85,1.94-27.14,5.82Z"/><path class="cls-7" d="M258.98,183.7l17.87-7.46c4.79-2,10.69-3.8,17.67-5.41,9.55-2.21,18.62-3.32,27.21-3.32l-17.87,7.46c-8.59,0-17.66,1.12-27.21,3.32-6.99,1.61-12.88,3.41-17.67,5.41Z"/><polygon points="308.67 297.71 326.54 290.26 386.44 286.98 368.57 294.44 308.67 297.71"/><polygon points="371.15 294.92 389.03 287.47 388.84 289.67 370.97 297.13 371.15 294.92"/><path class="cls-7" d="M321.74,167.51c12.19,0,22.79,1.74,31.8,5.21-2.98,1.24-5.96,2.49-8.94,3.73-2.98,1.24-5.96,2.49-8.94,3.73-9.01-3.47-19.61-5.21-31.8-5.21,5.36-2.24,12.17-6.32,17.87-7.46Z"/><polygon class="cls-7" points="371.94 255.93 389.81 248.47 386.44 286.98 368.57 294.44 371.94 255.93"/><polygon points="374.54 256.43 392.41 248.98 389.03 287.47 371.15 294.92 374.54 256.43"/><path d="M257.84,181.09l17.87-7.46c4.93-2.06,10.98-3.92,18.07-5.56,9.69-2.23,19.01-3.37,27.74-3.37,25.08,0,43.95,7.33,56.12,21.82l-17.87,7.46c-12.17-14.49-31.05-21.82-56.12-21.82-8.73,0-18.06,1.14-27.74,3.37-7.09,1.65-13.14,3.51-18.07,5.56Z"/><path d="M375.8,188.31c11.66,13.85,16.33,33.92,14.01,60.16l-17.87,7.46c2.32-26.23-2.35-46.3-14.01-60.16-5.83-6.93-13.25-12.13-22.26-15.6,.63-.26,1.46-.61,2.09-.87,.66-.28,1.55-.65,2.21-.92s1.61-.67,2.3-.96,1.64-.68,2.34-.98,1.64-.68,2.34-.98,1.61-.67,2.3-.96,1.55-.65,2.21-.92c.63-.26,1.46-.61,2.09-.87,9.01,3.47,16.43,8.67,22.26,15.6Z"/><path class="cls-7" d="M303.87,174.97c24.38,0,42.41,6.95,54.06,20.8,11.66,13.85,16.33,33.92,14.01,60.16l-3.36,38.51-59.9,3.27,3.47-39.58c.98-11.04-.62-19.26-4.78-24.64-4.16-5.4-11.88-8.09-23.16-8.09s-22.51,3.07-34.34,9.18l4.25-48.59c5.45-2.94,12.97-5.51,22.54-7.71,9.55-2.21,18.62-3.32,27.21-3.32Z"/><path d="M359.78,193.97c12.17,14.46,17.12,35.47,14.76,62.46l-3.39,38.49-.19,2.21-2.07,.13-59.88,3.27-3.26,.18,.32-3.48,3.47-39.58c.88-10.17-.5-17.73-4.12-22.45-3.59-4.64-10.65-6.98-21.02-6.98-10.65,0-21.84,2.99-33.28,8.93l-4.31,2.26,.45-5.3,4.27-48.59,.13-1.42,1.14-.63c5.61-3.02,13.38-5.68,23.11-7.94,9.69-2.23,19.01-3.37,27.74-3.37,25.08,0,43.95,7.33,56.12,21.82Zm12.16,61.96c2.32-26.23-2.35-46.3-14.01-60.16-11.66-13.85-29.69-20.8-54.06-20.8-8.59,0-17.66,1.12-27.21,3.32-9.57,2.21-17.09,4.77-22.54,7.71l-4.25,48.59c11.83-6.11,23.27-9.18,34.34-9.18s19,2.69,23.16,8.09c4.16,5.38,5.75,13.6,4.78,24.64l-3.47,39.58,59.9-3.27,3.36-38.51"/><path d="M359.78,193.97l17.87-7.46c12.17,14.46,17.12,35.47,14.76,62.46l-17.87,7.46c2.35-27-2.6-48-14.76-62.46Z"/></g><g class="cls-9"><polygon points="418.7 311.87 436.57 304.41 449.46 378.4 431.59 385.85 418.7 311.87"/><polygon points="415.62 309.18 433.49 301.73 436.24 301.6 418.37 309.05 415.62 309.18"/><polygon points="431.59 385.85 449.46 378.4 501.27 378.4 483.4 385.85 431.59 385.85"/><polygon class="cls-7" points="418.7 311.87 436.57 304.42 495.27 301.35 477.4 308.8 418.7 311.87"/><polygon class="cls-7" points="477.4 308.8 495.27 301.35 501.56 331.28 483.69 338.74 477.4 308.8"/><polygon points="418.37 309.05 436.24 301.6 494.94 298.53 477.07 305.98 418.37 309.05"/><polygon points="479.94 308.37 497.81 300.91 503.59 328.42 485.72 335.87 479.94 308.37"/><polygon points="477.07 305.98 494.94 298.53 497.27 298.4 479.4 305.86 477.07 305.98"/><polygon points="479.4 305.86 497.27 298.4 497.81 300.91 479.94 308.37 479.4 305.86"/><path class="cls-7" d="M514.91,329.58c-5.96,2.49-11.91,4.97-17.87,7.46-4.15,1.14-8.6,1.71-13.35,1.71l17.87-7.46c4.75,0,9.2-.57,13.35-1.71Z"/><path class="cls-7" d="M514.91,329.58c.12-.03,.25-.07,.37-.1-5.96,2.49-11.91,4.97-17.87,7.46-.12,.03-.24,.07-.37,.1,5.96-2.49,11.91-4.97,17.87-7.46Z"/><path class="cls-7" d="M515.28,329.47c1.63-.46,3.22-1.02,4.76-1.66l-17.87,7.46c-1.54,.64-3.12,1.19-4.76,1.66,.63-.26,1.46-.61,2.09-.87,.66-.28,1.55-.65,2.21-.92s1.61-.67,2.3-.96,1.64-.68,2.34-.98,1.64-.68,2.34-.98,1.61-.67,2.3-.96,1.55-.65,2.21-.92c.63-.26,1.46-.61,2.09-.87Z"/><path d="M518.93,325.15l-17.87,7.46c-4.67,1.95-9.78,3.04-15.34,3.27l17.87-7.46c5.55-.23,10.67-1.32,15.34-3.27Z"/><path d="M544.08,369.99l-17.87,7.46c-13.44,5.61-27.71,8.41-42.81,8.41l17.87-7.46c15.1,0,29.37-2.8,42.81-8.41Z"/><path d="M520.04,327.81l-17.87,7.46c6.09-2.54,11.44-6.48,16.04-11.8,4.17-4.82,7.52-10.61,10.08-17.33l17.87-7.46c-2.56,6.72-5.91,12.51-10.08,17.33-4.6,5.33-9.95,9.26-16.04,11.8Z"/><polygon points="526.45 303.4 544.32 295.94 545.83 295.86 527.96 303.32 526.45 303.4"/><path class="cls-7" d="M552.47,366.07c-2.76,1.43-5.55,2.74-8.39,3.92l-17.87,7.46c2.83-1.18,5.63-2.49,8.39-3.92,5.96-2.49,11.91-4.97,17.87-7.46-5.96,2.49-11.91,4.97-17.87,7.46,15.85-8.22,31.6-20.3,42.01-36.26,.63-.26,1.46-.61,2.09-.87,.33-.14,.77-.32,1.09-.46,.68-.28,1.58-.66,2.26-.94s1.63-.68,2.32-.97,1.64-.68,2.34-.98c.35-.15,.82-.34,1.17-.49,.69-.29,1.61-.67,2.3-.96,.34-.14,.78-.33,1.12-.47,.65-.27,1.51-.63,2.16-.9,.31-.13,.69-.43,1.03-.43-10.42,15.96-26.16,28.04-42.01,36.26Z"/><path class="cls-7" d="M594.48,329.81h0c-5.96,2.49-11.91,4.97-17.87,7.46,0,0,0,0,0,0,5.96-2.49,11.91-4.97,17.87-7.46Z"/><polygon class="cls-7" points="528.29 306.14 546.16 298.68 609.31 295.38 591.44 302.84 528.29 306.14"/><polygon points="594.92 299.82 612.79 292.36 611.81 296.32 593.93 303.78 594.92 299.82"/><path d="M591.09,300.02l3.84-.2-.99,3.96c-3.26,12.99-8.35,24.84-15.14,35.24-12.12,18.52-30.03,30.37-42.91,37.07-16.1,8.35-33.69,12.58-52.27,12.58h-51.81s-2.33,0-2.33,0l-.44-2.51-12.87-74.01-.52-2.97,2.75-.13,58.7-3.07,2.33-.13,.54,2.51,5.79,27.5c12.43-.51,22.69-5.35,30.54-14.41,3.93-4.57,7.16-10.15,9.62-16.57l.57-1.5,1.51-.08,63.12-3.3Zm-14.48,37.25c6.69-10.22,11.62-21.69,14.83-34.43l-63.15,3.3c-2.56,6.72-5.91,12.51-10.08,17.33-8.79,10.17-20.3,15.27-34.52,15.27l-6.29-29.94-58.7,3.07,12.89,73.98h51.81c18.28,0,35.35-4.11,51.2-12.33,15.85-8.22,31.6-20.3,42.01-36.26"/><path class="cls-7" d="M591.44,302.84c-3.21,12.74-8.14,24.2-14.83,34.43-10.42,15.96-26.16,28.04-42.01,36.26-15.85,8.22-32.91,12.33-51.2,12.33h-51.81s-12.89-73.98-12.89-73.98l58.7-3.07,6.29,29.94c14.22,0,25.72-5.1,34.52-15.27,4.17-4.82,7.52-10.61,10.08-17.33l63.15-3.3Z"/><polygon points="527.96 303.32 545.83 295.86 608.96 292.57 591.09 300.02 527.96 303.32"/><path d="M545.29,372.58l-17.87,7.46c2.86-1.19,5.69-2.51,8.46-3.95,12.88-6.7,30.79-18.55,42.91-37.07,6.79-10.4,11.88-22.25,15.14-35.24l17.87-7.46c-3.26,12.99-8.35,24.84-15.14,35.24-12.12,18.52-30.03,30.37-42.91,37.07-2.78,1.44-5.6,2.76-8.46,3.95Z"/><polygon points="591.09 300.02 608.96 292.57 612.79 292.36 594.92 299.82 591.09 300.02"/></g><g class="cls-9"><polygon points="400.12 205.16 417.99 197.7 436.09 284.24 418.22 291.7 400.12 205.16"/><polygon points="396.9 202.34 414.77 194.89 417.78 194.89 399.91 202.34 396.9 202.34"/><polygon points="418.22 291.7 436.09 284.24 494.74 281.05 476.87 288.5 418.22 291.7"/><polygon points="479.4 288.07 497.28 280.62 497.92 283.69 480.05 291.14 479.4 288.07"/><polygon class="cls-7" points="400.12 205.16 417.99 197.7 477.25 197.7 459.38 205.16 400.12 205.16"/><polygon class="cls-7" points="459.38 205.16 477.25 197.7 494.74 281.05 476.87 288.5 459.38 205.16"/><path d="M479.4,288.07l.65,3.07-2.84,.18-58.67,3.2-2.35,.13-.52-2.54-18.1-86.54-.68-3.22h3.01s59.26,0,59.26,0h2.24s.51,2.41,.51,2.41l17.49,83.32Zm-61.18,3.63l58.65-3.2-17.49-83.35h-59.26s18.1,86.54,18.1,86.54"/><polygon class="cls-7" points="459.38 205.16 476.87 288.5 418.22 291.7 400.12 205.16 459.38 205.16"/><polygon points="399.91 202.34 417.78 194.89 477.04 194.89 459.17 202.34 399.91 202.34"/><polygon points="461.92 204.75 479.79 197.3 497.28 280.62 479.4 288.07 461.92 204.75"/><polygon points="461.41 202.34 479.28 194.89 479.79 197.3 461.92 204.75 461.41 202.34"/><polygon points="459.17 202.34 477.04 194.89 479.28 194.89 461.41 202.34 459.17 202.34"/></g><g class="cls-9"><polygon points="490.67 180.5 508.55 173.04 504.27 221.63 486.4 229.08 490.67 180.5"/><polygon points="488.23 178.37 506.1 170.91 507.48 170.38 489.61 177.83 488.23 178.37"/><path d="M486.4,229.08l17.87-7.46c6.31-2.46,13.2-3.68,20.65-3.68,21.9,0,31.51,15.45,28.79,46.35-.43,4.82-1.1,9.36-2,13.6l-17.87,7.46c.9-4.24,1.56-8.78,2-13.6,2.72-30.9-6.89-46.35-28.79-46.35-7.45,0-14.34,1.22-20.65,3.68Z"/><path class="cls-7" d="M490.67,180.5l17.87-7.46c4.42-1.73,9.79-3.07,16.09-4.06,6.3-.96,12.38-1.47,18.27-1.47l-17.87,7.46c-5.88,0-11.96,.51-18.27,1.47-6.3,.99-11.66,2.33-16.09,4.06Z"/><polygon points="533.84 285.36 551.71 277.9 613.75 274.5 595.88 281.96 533.84 285.36"/><polygon points="598.45 282.64 616.32 275.19 616.01 277.22 598.14 284.67 598.45 282.64"/><path class="cls-7" d="M542.9,167.51c13.66,0,25.37,2.09,35.14,6.26-5.96,2.49-11.91,4.97-17.87,7.46-9.76-4.17-21.48-6.26-35.14-6.26,5.36-2.24,12.51-5.22,17.87-7.46Z"/><path class="cls-7" d="M615,264.3c-.3,3.48-.73,6.88-1.25,10.2l-17.87,7.46c.52-3.32,.95-6.72,1.25-10.2,2.75-31.16-1.77-55.08-13.52-71.75-5.86-8.35-13.68-14.61-23.45-18.78,.63-.26,1.46-.61,2.09-.87,.66-.28,1.55-.65,2.21-.92,.69-.29,1.61-.67,2.3-.96s1.64-.68,2.34-.98,1.64-.68,2.34-.98,1.61-.67,2.3-.96,1.55-.65,2.21-.92c.63-.26,1.46-.61,2.09-.87,9.77,4.17,17.58,10.43,23.45,18.78,11.75,16.67,16.26,40.59,13.52,71.75Z"/><path d="M489.61,177.83l17.87-7.46c4.58-1.78,10.15-3.17,16.59-4.19,6.39-.99,12.66-1.5,18.61-1.5,28.09,0,48.55,8.83,60.82,26.26l-17.87,7.46c-12.27-17.43-32.73-26.26-60.82-26.26-5.95,0-12.22,.51-18.61,1.5-6.44,1.01-12.01,2.41-16.59,4.19Z"/><path class="cls-7" d="M525.03,174.97c27.32,0,46.85,8.35,58.58,25.04,11.75,16.67,16.26,40.59,13.52,71.75-.3,3.48-.73,6.88-1.25,10.2l-62.04,3.4c.9-4.24,1.56-8.78,2-13.6,2.72-30.9-6.89-46.35-28.79-46.35-7.45,0-14.34,1.22-20.65,3.68l4.27-48.59c4.42-1.73,9.79-3.07,16.09-4.06,6.3-.96,12.38-1.47,18.27-1.47Z"/><path d="M585.64,198.41c12.14,17.23,16.87,42.09,14.09,73.83-.31,3.4-.72,6.9-1.28,10.4l-.32,2.03-1.91,.1-62.04,3.4-3.7,.2,.81-3.86c.88-4.14,1.53-8.6,1.93-13.24,1.47-16.64-.75-28.57-6.56-35.44-4.28-5.05-10.82-7.61-19.41-7.61-7.12,0-13.78,1.17-19.79,3.53l-4.06,1.57,.42-4.74,4.25-48.56,.16-1.65,1.38-.53c4.58-1.78,10.15-3.17,16.59-4.19,6.39-.99,12.66-1.5,18.61-1.5,28.09,0,48.55,8.83,60.82,26.26Zm11.49,73.35c2.75-31.16-1.77-55.08-13.52-71.75-11.73-16.69-31.26-25.04-58.58-25.04-5.88,0-11.96,.51-18.27,1.47-6.3,.99-11.66,2.33-16.09,4.06l-4.27,48.59c6.31-2.46,13.2-3.68,20.65-3.68,21.9,0,31.51,15.45,28.79,46.35-.43,4.82-1.1,9.36-2,13.6l62.04-3.4c.52-3.32,.95-6.72,1.25-10.2"/><path d="M585.64,198.41l17.87-7.46c12.14,17.23,16.87,42.09,14.09,73.83-.31,3.4-.72,6.9-1.28,10.4l-17.87,7.46c.56-3.5,.97-7,1.28-10.4,2.77-31.74-1.95-56.6-14.09-73.83Z"/></g><g class="cls-9"><polygon points="617 301.49 634.87 294.04 634.48 298.53 616.61 305.98 617 301.49"/><polygon points="614.6 298.78 632.47 291.32 634.54 291.22 616.67 298.68 614.6 298.78"/><polygon points="676.89 298.37 694.76 290.92 694.59 293 676.72 300.45 676.89 298.37"/><polygon points="679.49 298.86 697.36 291.4 697.17 293.51 679.3 300.96 679.49 298.86"/><path d="M694.59,293c-1.16,13.24,.83,23.32,5.99,30.19-3.37,1.41-6.74,2.81-10.11,4.22-.7,.29-1.63,.68-2.32,.97s-1.58,.66-2.26,.94-1.51,.63-2.16,.9c-.31,.13-.69,.43-1.03,.43-5.16-6.88-7.15-16.95-5.99-30.19,5.36-2.24,12.51-5.22,17.87-7.46Z"/><path d="M766.88,375.19l-17.87,7.46c-13.91,5.8-29.44,8.71-46.63,8.71-19.19,0-35.71-3.63-49.52-10.86-13.82-7.23-21.51-17.35-28.27-30.34-6.76-13.02-9.42-27.73-7.98-44.17l17.87-7.46c-1.44,16.44,1.22,31.16,7.98,44.17,6.76,12.99,14.45,23.11,28.27,30.34,13.8,7.23,30.32,10.86,49.52,10.86,17.19,0,32.72-2.91,46.63-8.71Z"/><polygon points="617 301.49 634.87 294.04 694.76 290.92 676.89 298.37 617 301.49"/><polygon points="616.67 298.68 634.54 291.22 694.43 288.1 676.56 295.56 616.67 298.68"/><polygon points="676.56 295.56 694.43 288.1 697.67 287.92 679.79 295.38 676.56 295.56"/><polygon points="676.08 289.68 697.6 287.93 696.85 304.7 676.08 289.68"/><path class="cls-7" d="M700.57,323.19c3.87,5.16,9.84,8.37,17.91,9.66-5.96,2.49-11.91,4.97-17.87,7.46-8.07-1.28-14.03-4.5-17.9-9.65,.62-.26,1.46-.61,2.08-.87,.66-.28,1.55-.64,2.21-.92s1.6-.67,2.29-.96,1.63-.68,2.33-.97,1.63-.68,2.33-.97,1.6-.67,2.29-.96,1.55-.64,2.21-.92c.62-.26,1.46-.61,2.08-.87-5.94,2.48-11.89,4.96-17.83,7.44,0,0,0,0,0-.01h0c.63-.26,1.46-.61,2.09-.87,.66-.28,1.55-.65,2.21-.92s1.61-.67,2.3-.96c.7-.29,1.64-.68,2.34-.98s1.64-.68,2.34-.98,1.61-.67,2.3-.96,1.55-.65,2.21-.92c.63-.26,1.46-.61,2.09-.87,0,0,0,0,0,0Z"/><path class="cls-7" d="M727.26,333.49c6.75,0,12.65-1.05,17.7-3.16l-17.87,7.46c-5.05,2.11-10.95,3.16-17.7,3.16-3.16,0-6.08-.21-8.77-.64,5.96-2.49,11.91-4.97,17.87-7.46,2.69,.43,5.62,.64,8.77,.64Z"/><path d="M743.88,327.69l-17.87,7.46c-4.77,1.99-10.38,2.98-16.83,2.98-11.7,0-19.96-3.1-24.52-9.16-4.64-6.19-6.44-15.63-5.36-28.01l17.87-7.46c-1.09,12.38,.72,21.82,5.36,28.01,4.56,6.06,12.82,9.16,24.52,9.16,6.45,0,12.06-.99,16.83-2.98Z"/><path d="M744.96,330.33l-17.87,7.46c13.03-5.43,20.39-17.88,22.1-37.33l17.87-7.46c-1.71,19.45-9.08,31.9-22.1,37.33Z"/><polygon points="749.71 294.57 767.58 287.11 767.06 293 749.19 300.45 749.71 294.57"/><polygon points="747.31 291.85 765.18 284.4 767.23 284.3 749.36 291.75 747.31 291.85"/><polygon points="809.58 291.45 827.45 283.99 826.18 298.53 808.3 305.98 809.58 291.45"/><polygon points="812.18 291.93 830.05 284.47 828.78 299.01 810.91 306.47 812.18 291.93"/><path d="M771.67,373.05c-1.58,.75-3.18,1.47-4.8,2.15l-17.87,7.46c1.62-.68,3.22-1.39,4.8-2.15,5.96-2.49,11.91-4.97,17.87-7.46-5.96,2.49-11.91,4.97-17.87,7.46,15.08-7.23,29.74-17.35,38.79-30.34h0s0,0,0,0c5.96-2.49,11.91-4.97,17.87-7.46-5.96,2.49-11.91,4.97-17.87,7.46,9.02-13.02,14.28-27.73,15.71-44.17l17.87-7.46c-1.44,16.44-6.69,31.16-15.71,44.17-9.05,12.99-23.7,23.11-38.79,30.34Z"/><path d="M767.97,377.83l-17.87,7.46c1.66-.69,3.29-1.42,4.9-2.2,12.35-5.91,29.27-16.14,39.71-31.13,9.26-13.32,14.72-28.64,16.2-45.49l17.87-7.46c-1.48,16.85-6.94,32.17-16.2,45.49-10.44,14.99-27.35,25.22-39.71,31.13-1.61,.77-3.24,1.5-4.9,2.2Z"/><polygon class="cls-7" points="749.71 294.57 767.58 287.11 827.45 283.99 809.58 291.45 749.71 294.57"/><path d="M809.25,288.63l3.23-.18-.3,3.48-1.27,14.54c-1.48,16.85-6.94,32.17-16.2,45.49-10.44,14.99-27.35,25.22-39.71,31.13-15.33,7.36-32.96,11.09-52.41,11.09s-36.56-3.76-50.7-11.14c-15.8-8.3-23.54-20.12-29.54-31.66-7-13.47-9.81-28.92-8.32-45.87l.39-4.49,.18-2.23,2.07-.1,59.89-3.12,3.23-.18-.3,3.48-.19,2.11c-1.09,12.38,.72,21.82,5.36,28.01,4.56,6.06,12.82,9.16,24.52,9.16,22.93,0,35.17-12.48,37.41-38.16l.52-5.89,.21-2.23,2.05-.1,59.89-3.12Zm-.95,17.35l1.27-14.54-59.87,3.12-.52,5.89c-2.38,27-15.64,40.49-39.8,40.49-12.63,0-21.53-3.43-26.69-10.3-5.16-6.88-7.15-16.95-5.99-30.19l.17-2.08-59.89,3.12-.39,4.49c-1.44,16.44,1.22,31.16,7.98,44.17,6.76,12.99,14.45,23.11,28.27,30.34,13.8,7.23,30.32,10.86,49.52,10.86,19.19,0,36.32-3.63,51.42-10.86,15.08-7.23,29.74-17.35,38.79-30.34,9.02-13.02,14.28-27.73,15.71-44.17"/><path class="cls-7" d="M809.58,291.45l-1.27,14.54c-1.44,16.44-6.69,31.16-15.71,44.17-9.05,12.99-23.7,23.11-38.79,30.34-15.11,7.23-32.23,10.86-51.42,10.86s-35.71-3.63-49.52-10.86c-13.82-7.23-21.51-17.35-28.27-30.34-6.76-13.02-9.42-27.73-7.98-44.17l.39-4.49,59.89-3.12-.17,2.08c-1.16,13.24,.83,23.32,5.99,30.19,5.16,6.88,14.05,10.3,26.69,10.3,24.17,0,37.43-13.5,39.8-40.49l.52-5.89,59.87-3.12Z"/><polygon points="749.36 291.75 767.23 284.3 827.12 281.17 809.25 288.63 749.36 291.75"/><polygon points="809.25 288.63 827.12 281.17 830.36 281 812.49 288.45 809.25 288.63"/><polygon points="812.49 288.45 830.36 281 830.05 284.47 812.18 291.93 812.49 288.45"/></g><g class="cls-9"><path d="M835.85,339.48l17.87-7.46c-1.28,14.49-1.3,25.83,5.08,34.05,6.4,8.22,16.14,12.33,29.24,12.33l-17.87,7.46c-13.1,0-22.84-4.11-29.24-12.33-6.38-8.22-6.36-19.56-5.08-34.05Z"/><polygon points="840.21 289.85 858.08 282.39 853.72 332.02 835.85 339.48 840.21 289.85"/><polygon points="837.81 287.13 855.68 279.68 857.76 279.58 839.88 287.03 837.81 287.13"/><polygon points="870.18 385.85 888.05 378.4 932.06 378.4 914.19 385.85 870.18 385.85"/><polygon points="916.76 386.49 934.63 379.03 934.33 381.21 916.46 388.67 916.76 386.49"/><polygon points="900.1 286.7 917.97 279.25 914.68 316.57 896.81 324.02 900.1 286.7"/><polygon points="902.68 287.21 920.55 279.75 917.29 317.05 899.42 324.51 902.68 287.21"/><path d="M926.92,331.64c-5.96,2.49-11.91,4.97-17.87,7.46-4.97,0-8.37-1.09-10.22-3.3-1.85-2.21-2.51-6.14-2.02-11.77l17.87-7.46c-.49,5.63,.18,9.57,2.02,11.77,1.85,2.21,5.24,3.3,10.22,3.3Z"/><path d="M899.42,324.51l17.87-7.46c-.56,6.24,.57,8.63,1.29,9.49,.87,1.04,2.97,2.28,8.13,2.28l-17.87,7.46c-5.16,0-7.26-1.24-8.13-2.28-.72-.86-1.85-3.25-1.29-9.49Z"/><polygon class="cls-7" points="920.89 339.09 938.76 331.64 932.06 378.4 914.19 385.85 920.89 339.09"/><polygon class="cls-7" points="909.05 339.09 926.92 331.64 938.76 331.64 920.89 339.09 909.05 339.09"/><polygon points="908.84 336.28 926.71 328.82 938.55 328.82 920.68 336.28 908.84 336.28"/><polygon class="cls-7" points="840.21 289.85 858.08 282.39 917.97 279.25 900.1 286.7 840.21 289.85"/><path d="M920.68,336.28h3.29s-.51,3.48-.51,3.48l-6.7,46.73-.3,2.18h-2.05s-44.01,0-44.01,0c-13.89,0-24.46-4.54-31.38-13.45-7.41-9.51-6.94-22.58-5.74-36.23l4.33-49.65,.21-2.21,2.07-.1,59.87-3.15,3.23-.15-.3,3.48-3.27,37.3c-.56,6.24,.57,8.63,1.29,9.49,.87,1.04,2.97,2.28,8.13,2.28h11.84Zm-6.49,49.58l6.7-46.76h-11.84c-4.97,0-8.37-1.09-10.22-3.3-1.85-2.21-2.51-6.14-2.02-11.77l3.29-37.32-59.89,3.15-4.36,49.63c-1.28,14.49-1.3,25.83,5.08,34.05,6.4,8.22,16.14,12.33,29.24,12.33h44.01"/><path class="cls-7" d="M900.1,286.7l-3.29,37.32c-.49,5.63,.18,9.57,2.02,11.77,1.85,2.21,5.24,3.3,10.22,3.3h11.84s-6.7,46.76-6.7,46.76h-44.01c-13.1,0-22.84-4.11-29.24-12.33-6.38-8.22-6.36-19.56-5.08-34.05l4.36-49.63,59.89-3.15Z"/><polygon points="839.88 287.03 857.76 279.58 917.62 276.43 899.75 283.89 839.88 287.03"/><polygon points="923.46 339.75 941.33 332.3 934.63 379.03 916.76 386.49 923.46 339.75"/><polygon points="923.97 336.28 941.84 328.82 941.33 332.3 923.46 339.75 923.97 336.28"/><polygon points="920.68 336.28 938.55 328.82 941.84 328.82 923.97 336.28 920.68 336.28"/><polygon points="899.75 283.89 917.62 276.43 920.86 276.28 902.98 283.73 899.75 283.89"/><polygon points="902.98 283.73 920.86 276.28 920.55 279.75 902.68 287.21 902.98 283.73"/></g><g class="cls-9"><polygon points="760.94 180.5 778.81 173.04 770.65 265.9 752.78 273.36 760.94 180.5"/><polygon points="758.56 177.68 776.43 170.22 778.6 170.22 760.73 177.68 758.56 177.68"/><polygon points="752.78 273.36 770.65 265.9 830.55 262.63 812.68 270.08 752.78 273.36"/><polygon points="815.28 270.57 833.16 263.11 832.95 265.32 815.08 272.77 815.28 270.57"/><polygon class="cls-7" points="760.94 180.5 778.81 173.04 838.42 173.04 820.55 180.5 760.94 180.5"/><polygon class="cls-7" points="820.55 180.5 838.42 173.04 830.55 262.63 812.68 270.08 820.55 180.5"/><polygon class="cls-7" points="820.55 180.5 812.68 270.08 752.78 273.36 760.94 180.5 820.55 180.5"/><polygon points="760.73 177.68 778.6 170.22 838.21 170.22 820.34 177.68 760.73 177.68"/><polygon points="823.13 180.98 841 173.52 833.16 263.11 815.28 270.57 823.13 180.98"/><path d="M820.34,177.68h3.08s-.29,3.3-.29,3.3l-7.85,89.59-.21,2.21-2.05,.13-59.9,3.27-3.23,.18,.3-3.48,8.14-92.86,.22-2.33h2.17s59.61,0,59.61,0Zm-7.66,92.4l7.87-89.59h-59.61s-8.16,92.86-8.16,92.86l59.9-3.27"/><polygon points="820.34 177.68 838.21 170.22 841.29 170.22 823.42 177.68 820.34 177.68"/><polygon points="823.42 177.68 841.29 170.22 841 173.52 823.13 180.98 823.42 177.68"/></g><g class="cls-9"><polygon points="628.85 180.5 646.73 173.04 637.94 273.18 620.07 280.64 628.85 180.5"/><polygon points="626.47 177.68 644.34 170.22 646.52 170.22 628.64 177.68 626.47 177.68"/><polygon points="620.07 280.64 637.94 273.18 697.84 269.91 679.97 277.37 620.07 280.64"/><polygon points="682.55 277.85 700.42 270.39 700.24 272.6 682.36 280.06 682.55 277.85"/><polygon class="cls-7" points="628.85 180.5 646.73 173.04 706.34 173.04 688.47 180.5 628.85 180.5"/><polygon class="cls-7" points="688.47 180.5 706.34 173.04 697.84 269.91 679.97 277.37 688.47 180.5"/><path d="M688.26,177.68h3.08s-.29,3.3-.29,3.3l-8.5,96.87-.19,2.21-2.07,.13-59.9,3.27-3.23,.18,.3-3.48,8.79-100.14,.22-2.33h2.17s59.61,0,59.61,0Zm-8.29,99.68l8.5-96.87h-59.61s-8.79,100.14-8.79,100.14l59.9-3.27"/><polygon class="cls-7" points="688.47 180.5 679.97 277.37 620.07 280.64 628.85 180.5 688.47 180.5"/><polygon points="628.64 177.68 646.52 170.22 706.13 170.22 688.26 177.68 628.64 177.68"/><polygon points="691.05 180.98 708.92 173.52 700.42 270.39 682.55 277.85 691.05 180.98"/><polygon points="688.26 177.68 706.13 170.22 709.21 170.22 691.34 177.68 688.26 177.68"/><polygon points="691.34 177.68 709.21 170.22 708.92 173.52 691.05 180.98 691.34 177.68"/></g><g class="cls-9"><polygon points="851.02 180.5 868.89 173.04 861.18 260.95 843.31 268.41 851.02 180.5"/><polygon points="848.64 177.68 866.51 170.22 868.68 170.22 850.81 177.68 848.64 177.68"/><polygon points="843.31 268.41 861.18 260.95 921.08 257.66 903.21 265.11 843.31 268.41"/><polygon points="905.79 265.59 923.66 258.14 923.48 260.37 905.61 267.83 905.79 265.59"/><polygon class="cls-7" points="851.02 180.5 868.89 173.04 928.5 173.04 910.63 180.5 851.02 180.5"/><polygon class="cls-7" points="910.63 180.5 928.5 173.04 921.08 257.66 903.21 265.11 910.63 180.5"/><path d="M910.42,177.68h3.08s-.29,3.3-.29,3.3l-7.42,84.61-.18,2.23-2.05,.1-59.9,3.3-3.23,.18,.3-3.5,7.72-87.89,.2-2.33h2.17s59.61,0,59.61,0Zm-7.21,87.43l7.42-84.61h-59.61s-7.72,87.91-7.72,87.91l59.9-3.3"/><polygon class="cls-7" points="910.63 180.5 903.21 265.11 843.31 268.41 851.02 180.5 910.63 180.5"/><polygon points="850.81 177.68 868.68 170.22 928.29 170.22 910.42 177.68 850.81 177.68"/><polygon points="913.21 180.98 931.08 173.52 923.66 258.14 905.79 265.59 913.21 180.98"/><polygon points="910.42 177.68 928.29 170.22 931.38 170.22 913.5 177.68 910.42 177.68"/><polygon points="913.5 177.68 931.38 170.22 931.08 173.52 913.21 180.98 913.5 177.68"/></g><g class="cls-9"><polygon points="947.71 284.22 965.58 276.76 954.08 378.4 936.21 385.85 947.71 284.22"/><polygon points="945.38 281.5 963.25 274.05 965.26 273.94 947.38 281.4 945.38 281.5"/><polygon points="936.21 385.85 954.08 378.4 1010.63 378.4 992.76 385.85 936.21 385.85"/><polygon points="995.36 386.34 1013.24 378.88 1013.04 381.21 995.17 388.67 995.36 386.34"/><polygon class="cls-7" points="994.54 365.61 1012.41 358.15 1010.63 378.4 992.76 385.85 994.54 365.61"/><polygon points="996.64 371.77 1014.51 364.32 1013.24 378.88 995.36 386.34 996.64 371.77"/><polygon class="cls-7" points="947.71 284.22 965.58 276.76 1025.47 273.64 1007.6 281.1 947.71 284.22"/><polygon points="1007.6 281.1 1025.47 273.64 1022.25 310.3 1004.38 317.76 1007.6 281.1"/><polygon points="947.38 281.4 965.26 273.94 1025.15 270.82 1007.28 278.28 947.38 281.4"/><polygon points="1010.21 281.58 1028.08 274.12 1024.91 309.97 1007.04 317.43 1010.21 281.58"/><polygon points="1007.28 278.28 1025.15 270.82 1028.38 270.65 1010.51 278.1 1007.28 278.28"/><polygon points="1010.51 278.1 1028.38 270.65 1028.08 274.12 1010.21 281.58 1010.51 278.1"/><path d="M1056.81,333.49c5.73,0,10.75-.9,15.07-2.71l-17.87,7.46c-4.32,1.8-9.34,2.71-15.07,2.71,5.96-2.49,11.91-4.97,17.87-7.46-5.96,2.49-11.91,4.97-17.87,7.46-8.36,0-15.32-1.9-20.83-5.71,5.96-2.49,11.91-4.97,17.87-7.46-5.96,2.49-11.91,4.97-17.87,7.46-5.56-3.81-10.13-9.62-13.72-17.48l17.87-7.46c3.6,7.87,8.16,13.68,13.72,17.48,5.51,3.81,12.47,5.71,20.83,5.71Z"/><path d="M1070.79,328.13l-17.87,7.46c-4.05,1.69-8.8,2.55-14.19,2.55-7.8,0-14.33-1.78-19.37-5.23-4.87-3.35-9.02-8.58-12.31-15.48l17.87-7.46c3.29,6.9,7.44,12.13,12.31,15.48,5.04,3.45,11.57,5.23,19.37,5.23,5.4,0,10.14-.86,14.19-2.55Z"/><path d="M1099.48,378.21l-17.87,7.46c-9.09,3.79-19.22,5.69-30.39,5.69-11.07,0-21.58-2.26-31.58-6.8-9.98-4.54-18.34-10.86-25.09-18.95l17.87-7.46c6.74,8.09,15.11,14.41,25.09,18.95,10,4.54,20.52,6.8,31.58,6.8,11.17,0,21.3-1.9,30.39-5.69Z"/><path d="M1071.88,330.78l-17.87,7.46c2.99-1.25,5.64-2.93,7.96-5.03,5.64-5.15,8.92-12.86,9.83-23.19l17.87-7.46c-.91,10.33-4.19,18.04-9.83,23.19-2.32,2.11-4.97,3.78-7.96,5.03Z"/><polygon points="1074.63 277.59 1092.5 270.14 1089.67 302.56 1071.8 310.02 1074.63 277.59"/><polygon points="1072.24 274.88 1090.11 267.42 1092.18 267.32 1074.31 274.78 1072.24 274.88"/><polygon points="1134.53 274.47 1152.4 267.02 1148.9 306.62 1131.03 314.08 1134.53 274.47"/><polygon points="1137.11 274.96 1154.98 267.5 1151.51 307.1 1133.64 314.56 1137.11 274.96"/><path d="M1108.24,373.78c-2.8,1.69-5.72,3.17-8.76,4.43l-17.87,7.46c3.04-1.27,5.95-2.74,8.76-4.43,0,0,0,0,0,0h0s0,0,0,0c5.26-2.2,10.52-4.39,15.78-6.59,.08-.03,.19-.08,.27-.11s.19-.08,.27-.11,.19-.08,.26-.11,.18-.08,.26-.11,.18-.08,.26-.11,.18-.08,.26-.11,.18-.07,.26-.11,.18-.07,.25-.11c-1.01,.42-2.03,.85-3.04,1.27-2.7,1.12-5.39,2.25-8.09,3.37-1.32,.55-2.65,1.11-3.97,1.66-.56,.23-1.31,.55-1.87,.78-.27,.11-.6,.37-.89,.37,11.22-6.75,22.63-15.93,29.07-27.6,5.96-2.49,11.91-4.97,17.87-7.46-5.96,2.49-11.91,4.97-17.87,7.46,6.44-11.65,10.31-24.84,11.6-39.55l17.87-7.46c-1.28,14.72-5.16,27.91-11.6,39.55-6.44,11.67-17.85,20.86-29.07,27.6Z"/><path d="M1100.66,380.82l-17.87,7.46c3.12-1.3,6.13-2.82,9-4.56,14.08-8.47,24.15-18.06,29.91-28.49,6.61-11.92,10.61-25.6,11.94-40.67l17.87-7.46c-1.33,15.07-5.33,28.75-11.94,40.67-5.76,10.43-15.83,20.02-29.91,28.49-2.87,1.73-5.88,3.25-9,4.56Z"/><polygon points="1074.63 277.59 1092.5 270.14 1152.4 267.02 1134.53 274.47 1074.63 277.59"/><path d="M1134.18,271.66l3.23-.18-.3,3.48-3.47,39.6c-1.33,15.07-5.33,28.75-11.94,40.67-5.76,10.43-15.83,20.02-29.91,28.49-11.53,6.95-25.12,10.45-40.36,10.45-11.37,0-22.33-2.36-32.63-7.03-8.46-3.86-15.89-9.01-22.16-15.38l-1.27,14.56-.2,2.33h-2.19s-56.55,0-56.55,0h-3.18s.38-3.4,.38-3.4l11.53-101.61,.24-2.16,2-.1,59.89-3.12,3.23-.18-.3,3.48-3.17,35.85c3.29,6.9,7.44,12.13,12.31,15.48,5.04,3.45,11.57,5.23,19.37,5.23,9.06,0,16.28-2.41,21.46-7.13,5.14-4.69,8.17-11.9,9-21.46l2.86-32.42,.18-2.23,2.07-.1,59.87-3.12Zm-3.14,42.42l3.49-39.6-59.89,3.12-2.84,32.42c-.91,10.33-4.19,18.04-9.83,23.19-5.66,5.15-13.34,7.74-23.03,7.74-8.36,0-15.32-1.9-20.83-5.71-5.56-3.81-10.13-9.62-13.72-17.48l3.22-36.66-59.89,3.12-11.5,101.64h56.55s1.78-20.25,1.78-20.25c6.74,8.09,15.11,14.41,25.09,18.95,10,4.54,20.52,6.8,31.58,6.8,14.9,0,27.95-3.37,39.15-10.12,11.22-6.75,22.63-15.93,29.07-27.6,6.44-11.65,10.31-24.84,11.6-39.55"/><path class="cls-7" d="M1134.53,274.47l-3.49,39.6c-1.28,14.72-5.16,27.91-11.6,39.55-6.44,11.67-17.85,20.86-29.07,27.6-11.2,6.75-24.25,10.12-39.15,10.12-11.07,0-21.58-2.26-31.58-6.8-9.98-4.54-18.34-10.86-25.09-18.95l-1.78,20.25h-56.55s11.5-101.64,11.5-101.64l59.89-3.12-3.22,36.66c3.6,7.87,8.16,13.68,13.72,17.48,5.51,3.81,12.47,5.71,20.83,5.71,9.69,0,17.37-2.59,23.03-7.74,5.64-5.15,8.92-12.86,9.83-23.19l2.84-32.42,59.89-3.12Z"/><polygon points="1074.31 274.78 1092.18 267.32 1152.05 264.2 1134.18 271.66 1074.31 274.78"/><polygon points="1134.18 271.66 1152.05 264.2 1155.28 264.02 1137.41 271.48 1134.18 271.66"/><polygon points="1137.41 271.48 1155.28 264.02 1154.98 267.5 1137.11 274.96 1137.41 271.48"/><polygon points="1158.34 273.23 1176.21 265.77 1164.83 365.86 1146.96 373.32 1158.34 273.23"/><polygon points="1155.99 270.52 1173.86 263.06 1175.86 262.96 1157.99 270.41 1155.99 270.52"/><path class="cls-7" d="M1221.95,339.47c.55-.23,1.27-.53,1.82-.76,.58-.24,1.34-.56,1.92-.8s1.39-.58,1.99-.83,1.42-.59,2.03-.85,1.44-.6,2.05-.86,1.43-.6,2.04-.85c.6-.25,1.4-.58,2-.83s1.35-.56,1.93-.81c-2.67,1.12-5.34,2.23-8.02,3.35-.31,.13-.71,.3-1.02,.43s-.71,.3-1.01,.42c-.6,.25-1.39,.58-1.99,.83s-1.34,.56-1.92,.8c-.55,.23-1.25,.58-1.82,.76,0,0,0,0,0,0Z"/><path class="cls-7" d="M1239.83,332.02c.4,.08,.8,.16,1.2,.23-5.96,2.49-11.91,4.97-17.87,7.46-.4-.07-.8-.15-1.2-.23-4.88-.99-8.73-2.21-11.53-3.68l17.87-7.46c2.79,1.47,6.64,2.69,11.53,3.68Zm-17.87,7.46h0s0,0,0,0h0s0,0,0,0h0s0,0,0,0h0s0,0,0,0h0s0,0,0,0h0s0,0,0,0h0s0,0,0,0h0s0,0,0,0l.89-.37,.92-.39,.95-.4,.97-.4,.99-.41,1-.42,1.01-.42,1.02-.43,1.02-.43,1.03-.43,1.02-.43,1.02-.42,1.01-.42,.99-.41,.98-.41,.95-.4,.13-.06,.13-.06,.13-.06,.13-.06,.13-.06,.13-.06,.13-.05,.13-.05,.13-.05,.13-.05,.13-.05,.13-.05,.13-.05,.13-.05,.13-.05,.13-.05-.13,.05-.13,.05-.13,.05-.13,.05-.13,.05-.13,.05-.13,.05-.13,.05-.13,.05-.13,.05-.13,.06-.13,.06-.13,.06-.13,.06-.13,.06-.13,.06-.95,.4-.98,.41-.99,.41-1.01,.42-1.02,.42-1.02,.43-1.03,.43-1.03,.43-1.02,.43-1.01,.42-1,.42-.99,.41-.97,.4-.95,.4-.92,.39-.89,.37"/><polygon class="cls-7" points="1212.41 312.96 1230.28 305.51 1228.3 328.34 1210.43 335.8 1212.41 312.96"/><polygon points="1214.8 315.8 1232.67 308.35 1231.07 326.67 1213.2 334.12 1214.8 315.8"/><path class="cls-7" d="M1254.93,333.49c4.56,0,8.83-.38,12.81-1.15-5.96,2.49-11.91,4.97-17.87,7.46-3.98,.76-8.25,1.15-12.81,1.15,5.96-2.49,11.91-4.97,17.87-7.46-5.96,2.49-11.91,4.97-17.87,7.46-4.76,0-9.39-.41-13.9-1.24,.63-.26,1.46-.61,2.09-.87,.66-.28,1.55-.65,2.21-.92s1.61-.67,2.3-.96,1.64-.68,2.34-.98c2.98-1.24,5.96-2.49,8.94-3.73,4.51,.83,9.14,1.24,13.9,1.24Z"/><path class="cls-7" d="M1270.9,331.64c-5.96,2.49-11.91,4.97-17.87,7.46-1.04,.26-2.09,.5-3.17,.71,5.96-2.49,11.91-4.97,17.87-7.46,1.08-.21,2.13-.44,3.17-.71Z"/><polygon points="1212.41 312.96 1230.28 305.51 1262.81 305.51 1244.94 312.96 1212.41 312.96"/><polygon class="cls-7" points="1158.34 273.23 1176.21 265.77 1246.57 262.1 1228.7 269.55 1158.34 273.23"/><polygon points="1247.52 313.47 1265.39 306.01 1265.19 308.35 1247.32 315.8 1247.52 313.47"/><polygon points="1157.99 270.41 1175.86 262.96 1246.36 259.28 1228.49 266.74 1157.99 270.41"/><path class="cls-7" d="M1270.9,331.64c2.35-.6,4.6-1.34,6.73-2.23l-17.87,7.46c-2.13,.89-4.38,1.63-6.73,2.23,.4-.17,.93-.39,1.32-.55,.42-.18,.98-.41,1.4-.58s1.02-.42,1.45-.61c.44-.19,1.04-.43,1.48-.62s1.04-.43,1.48-.62,1.02-.42,1.45-.61,.98-.41,1.4-.58c.4-.17,.93-.39,1.32-.55,.23-.1,.54-.22,.77-.32,.24-.1,.57-.24,.81-.34s.59-.25,.84-.35,.6-.25,.86-.36,.6-.25,.86-.36,.59-.25,.84-.35,.57-.24,.81-.34c.23-.1,.54-.22,.77-.32Z"/><path d="M1276.53,326.74l-17.87,7.46c-6.27,2.62-13.56,3.94-21.81,3.94-5.02,0-9.94-.48-14.63-1.42-3.6-.74-6.63-1.6-9.02-2.59l17.87-7.46c2.39,.99,5.42,1.85,9.02,2.59,4.69,.94,9.61,1.42,14.63,1.42,8.25,0,15.54-1.32,21.81-3.94Z"/><path d="M1301.83,374.08l-17.87,7.46c-15.68,6.54-33.65,9.82-53.91,9.82-15.57,0-30.97-1.65-46.13-4.97-15.19-3.3-27.49-7.66-36.95-13.07l17.87-7.46c9.46,5.4,21.77,9.77,36.95,13.07,15.17,3.32,30.56,4.97,46.13,4.97,20.26,0,38.23-3.28,53.91-9.82Z"/><polygon class="cls-7" points="1228.7 269.55 1246.57 262.1 1266.63 262.1 1248.76 269.55 1228.7 269.55"/><polygon class="cls-7" points="1248.76 269.55 1266.63 262.1 1262.81 305.51 1244.94 312.96 1248.76 269.55"/><polygon points="1228.49 266.74 1246.36 259.28 1266.42 259.28 1248.55 266.74 1228.49 266.74"/><polygon points="1251.34 270.03 1269.21 262.58 1265.39 306.01 1247.52 313.47 1251.34 270.03"/><polygon points="1248.55 266.74 1266.42 259.28 1269.5 259.28 1251.63 266.74 1248.55 266.74"/><polygon points="1251.63 266.74 1269.5 259.28 1269.21 262.58 1251.34 270.03 1251.63 266.74"/><path d="M1277.64,329.4l-17.87,7.46c5.47-2.28,10.21-5.52,14.23-9.71,8.84-9.21,14.04-22.76,15.6-40.67,.67-7.56,.46-14.23-.56-20.07l17.87-7.46c1.02,5.84,1.24,12.51,.56,20.07-1.56,17.91-6.76,31.46-15.6,40.67-4.02,4.2-8.76,7.43-14.23,9.71Z"/><polygon points="1285.96 263.72 1303.83 256.26 1306.58 256.13 1288.71 263.59 1285.96 263.72"/><path d="M1308.12,371.22c-2.06,1.01-4.15,1.97-6.29,2.86l-17.87,7.46c2.14-.89,4.24-1.85,6.29-2.86,5.96-2.49,11.91-4.97,17.87-7.46-5.96,2.49-11.91,4.97-17.87,7.46,17.11-8.47,33.19-20.55,43.04-36.26,5.96-2.49,11.91-4.97,17.87-7.46-5.96,2.49-11.91,4.97-17.87,7.46h0c9.85-15.7,15.7-34.35,17.62-55.94,.63-.26,1.46-.61,2.09-.87,.66-.28,1.55-.65,2.21-.92,.69-.29,1.61-.67,2.3-.96s1.64-.68,2.34-.98,1.64-.68,2.34-.98,1.61-.67,2.3-.96,1.55-.65,2.21-.92c.63-.26,1.46-.61,2.09-.87-1.92,21.59-7.77,40.24-17.62,55.94-9.85,15.7-25.93,27.78-43.04,36.26Z"/><polygon points="1289.03 266.41 1306.9 258.95 1369 255.7 1351.13 263.16 1289.03 266.41"/><polygon points="1353.5 260.19 1371.37 252.73 1371.59 255.68 1353.72 263.13 1353.5 260.19"/><path d="M1369,255.7c.57,7.31,.49,15.07-.22,23.32-5.96,2.49-11.91,4.97-17.87,7.46,.72-8.25,.79-16.01,.22-23.32,5.36-2.24,12.51-5.22,17.87-7.46Z"/><path d="M1353.65,262.11l-2.51,1.05h0c.57,7.31,.49,15.07-.22,23.32-1.92,21.59-7.77,40.24-17.62,55.94-9.85,15.7-25.93,27.78-43.04,36.26-17.12,8.45-37.18,12.69-60.21,12.69-15.57,0-30.97-1.65-46.13-4.97-15.19-3.3-27.49-7.66-36.95-13.07l11.38-100.09,70.36-3.68h20.06l-3.82,43.41h-32.53l-1.99,22.83c2.79,1.47,6.64,2.69,11.53,3.68,4.88,.99,9.92,1.47,15.1,1.47,15.81,0,28.12-4.59,36.94-13.8,8.84-9.21,14.04-22.76,15.6-40.67,.67-7.56,.46-14.23-.56-20.07l7.76-3.24-8.09,.42-2.75,.13,.53,2.99c.98,5.58,1.16,12.08,.53,19.28-1.52,17.18-6.52,30.32-14.88,39.05-8.34,8.68-20.2,13.09-35.29,13.09-5.02,0-9.94-.48-14.63-1.42-3.6-.74-6.63-1.6-9.02-2.59l1.6-18.32h32.53l.2-2.33,3.81-43.44,.29-3.3h-23.14l-70.5,3.68-2,.1-.24,2.13-11.38,100.12-.25,2.03,1.76,1.01c9.66,5.51,22.34,10,37.72,13.35,15.26,3.35,30.96,5.02,46.65,5.02,23.28,0,43.88-4.34,61.24-12.94,13.69-6.77,32.44-18.7,43.98-37.12,10.04-15.98,16.08-35.22,18.02-57.16,.73-8.35,.81-16.36,.23-23.82l-.08-1.02Z"/><path class="cls-7" d="M1351.13,263.16c.57,7.31,.49,15.07-.22,23.32-1.92,21.59-7.77,40.24-17.62,55.94-9.85,15.7-25.93,27.78-43.04,36.26-17.12,8.45-37.18,12.69-60.21,12.69-15.57,0-30.97-1.65-46.13-4.97-15.19-3.3-27.49-7.66-36.95-13.07l11.38-100.09,70.36-3.68h20.06s-3.82,43.41-3.82,43.41h-32.53s-1.99,22.83-1.99,22.83c2.79,1.47,6.64,2.69,11.53,3.68,4.88,.99,9.92,1.47,15.1,1.47,15.81,0,28.12-4.59,36.94-13.8,8.84-9.21,14.04-22.76,15.6-40.67,.67-7.56,.46-14.23-.56-20.07l62.1-3.25Z"/><polygon points="1288.71 263.59 1306.58 256.13 1368.68 252.89 1350.81 260.34 1288.71 263.59"/><path d="M1302.92,376.72l-17.87,7.46c2.2-.92,4.35-1.9,6.45-2.94,13.69-6.77,32.44-18.7,43.98-37.12,10.04-15.98,16.08-35.22,18.02-57.16,.73-8.35,.81-16.36,.23-23.82l17.87-7.46c.58,7.46,.5,15.48-.23,23.82-1.94,21.95-7.98,41.18-18.02,57.16-11.54,18.42-30.29,30.34-43.98,37.12-2.1,1.04-4.25,2.02-6.45,2.94Z"/><polygon points="1350.81 260.34 1368.68 252.89 1371.37 252.73 1353.5 260.19 1350.81 260.34"/></g><g class="cls-9"><polygon points="958.05 180.5 975.92 173.04 968.73 255.04 950.86 262.5 958.05 180.5"/><polygon points="955.65 177.68 973.52 170.22 975.72 170.22 957.84 177.68 955.65 177.68"/><polygon points="950.86 262.5 968.73 255.04 1028.63 251.77 1010.76 259.23 950.86 262.5"/><polygon points="1013.34 259.71 1031.21 252.25 1031.03 254.46 1013.15 261.91 1013.34 259.71"/><polygon class="cls-7" points="958.05 180.5 975.92 173.04 1035.54 173.04 1017.66 180.5 958.05 180.5"/><polygon class="cls-7" points="1017.66 180.5 1035.54 173.04 1028.63 251.77 1010.76 259.23 1017.66 180.5"/><polygon class="cls-7" points="1017.66 180.5 1010.76 259.23 950.86 262.5 958.05 180.5 1017.66 180.5"/><polygon points="957.84 177.68 975.72 170.22 1035.33 170.22 1017.45 177.68 957.84 177.68"/><polygon points="1020.25 180.98 1038.12 173.52 1031.21 252.25 1013.34 259.71 1020.25 180.98"/><path d="M1017.45,177.68h3.08s-.29,3.3-.29,3.3l-6.91,78.73-.19,2.21-2.07,.13-59.9,3.27-3.23,.18,.3-3.48,7.2-82,.2-2.33h2.19s59.61,0,59.61,0Zm-6.7,81.54l6.91-78.73h-59.61s-7.2,82-7.2,82l59.9-3.27"/><polygon points="1017.45 177.68 1035.33 170.22 1038.41 170.22 1020.54 177.68 1017.45 177.68"/><polygon points="1020.54 177.68 1038.41 170.22 1038.12 173.52 1020.25 180.98 1020.54 177.68"/></g><g class="cls-9"><polygon points="1084.37 180.5 1102.24 173.04 1095.67 248.09 1077.8 255.55 1084.37 180.5"/><polygon points="1081.99 177.68 1099.86 170.22 1102.03 170.22 1084.16 177.68 1081.99 177.68"/><polygon points="1077.8 255.55 1095.67 248.09 1155.55 244.79 1137.68 252.25 1077.8 255.55"/><polygon points="1140.29 252.76 1158.16 245.3 1157.95 247.51 1140.08 254.96 1140.29 252.76"/><polygon class="cls-7" points="1084.37 180.5 1102.24 173.04 1161.85 173.04 1143.98 180.5 1084.37 180.5"/><polygon class="cls-7" points="1143.98 180.5 1161.85 173.04 1155.55 244.79 1137.68 252.25 1143.98 180.5"/><path d="M1143.77,177.68h3.11s-.29,3.3-.29,3.3l-6.3,71.78-.21,2.21-2.05,.1-59.9,3.3-3.23,.18,.3-3.48,6.6-75.05,.2-2.33h2.17s59.61,0,59.61,0Zm-6.09,74.57l6.3-71.75h-59.61s-6.57,75.05-6.57,75.05l59.88-3.3"/><polygon class="cls-7" points="1143.98 180.5 1137.68 252.25 1077.8 255.55 1084.37 180.5 1143.98 180.5"/><polygon points="1084.16 177.68 1102.03 170.22 1161.64 170.22 1143.77 177.68 1084.16 177.68"/><polygon points="1146.59 180.98 1164.46 173.52 1158.16 245.3 1140.29 252.76 1146.59 180.98"/><polygon points="1143.77 177.68 1161.64 170.22 1164.75 170.22 1146.88 177.68 1143.77 177.68"/><polygon points="1146.88 177.68 1164.75 170.22 1164.46 173.52 1146.59 180.98 1146.88 177.68"/></g><g class="cls-9"><polygon points="987.25 117.93 1005.12 110.47 1001.55 150.97 983.68 158.42 987.25 117.93"/><polygon points="984.87 115.11 1002.74 107.66 1004.91 107.66 987.04 115.11 984.87 115.11"/><polygon points="1050.91 79.29 1068.78 71.83 1065.41 110.47 1047.54 117.93 1050.91 79.29"/><polygon class="cls-7" points="987.25 117.93 1005.12 110.48 1065.41 110.48 1047.54 117.93 987.25 117.93"/><polygon points="1048.43 107.66 1004.91 107.66 987.04 115.11 1045.13 115.11 1047.88 113.97 1048.43 107.66"/><polygon points="1048.53 76.47 1066.4 69.02 1068.57 69.02 1050.7 76.47 1048.53 76.47"/><polygon class="cls-7" points="1091.89 79.29 1109.76 71.83 1106.38 110.48 1088.51 117.93 1091.89 79.29"/><polygon points="1094.5 79.77 1112.37 72.32 1109.26 107.66 1091.39 115.11 1094.5 79.77"/><polygon points="1111.55 79.29 1129.42 71.83 1126.02 110.47 1108.15 117.93 1111.55 79.29"/><polygon class="cls-7" points="1088.51 117.93 1106.38 110.48 1126.02 110.48 1108.15 117.93 1088.51 117.93"/><polygon points="1109.05 107.75 1091.39 115.11 1105.77 115.11 1108.5 113.98 1109.05 107.75"/><polygon class="cls-7" points="1050.91 79.29 1068.78 71.83 1109.76 71.83 1091.89 79.29 1050.91 79.29"/><polygon points="1050.7 76.47 1068.57 69.02 1109.55 69.02 1091.68 76.47 1050.7 76.47"/><polygon points="1094.79 76.47 1112.66 69.02 1112.37 72.32 1094.5 79.77 1094.79 76.47"/><polygon points="1091.68 76.47 1109.55 69.02 1112.66 69.02 1094.79 76.47 1091.68 76.47"/><polygon points="1109.15 76.47 1127.02 69.02 1129.21 69.02 1111.34 76.47 1109.15 76.47"/><polygon points="983.68 158.42 1001.55 150.97 1163.45 150.97 1145.58 158.42 983.68 158.42"/><polygon points="1148.17 158.91 1166.04 151.45 1165.84 153.78 1147.97 161.24 1148.17 158.91"/><polygon class="cls-7" points="1152.53 79.29 1170.4 71.83 1163.45 150.97 1145.58 158.42 1152.53 79.29"/><polygon class="cls-7" points="1111.55 79.29 1129.42 71.83 1170.4 71.83 1152.53 79.29 1111.55 79.29"/><path d="M1152.32,76.47h3.08s-.29,3.3-.29,3.3l-6.94,79.13-.2,2.33h-2.17s-161.9,0-161.9,0h-3.08s.29-3.32,.29-3.32l3.55-40.47,.22-2.33h2.17s58.09,0,58.09,0l3.2-36.31,.2-2.33h2.17s40.98,0,40.98,0h3.11s-.29,3.3-.29,3.3l-3.11,35.34h14.38s3.18-36.31,3.18-36.31l.2-2.33h2.19s40.98,0,40.98,0Zm-6.74,81.95l6.95-79.13h-40.98s-3.4,38.64-3.4,38.64h-19.64s3.38-38.64,3.38-38.64h-40.98s-3.38,38.64-3.38,38.64h-60.29s-3.57,40.49-3.57,40.49h161.9"/><polygon class="cls-7" points="1152.53 79.29 1145.58 158.42 983.68 158.42 987.25 117.93 1047.54 117.93 1050.91 79.29 1091.89 79.29 1088.51 117.93 1108.15 117.93 1111.55 79.29 1152.53 79.29"/><polygon points="1111.34 76.47 1129.21 69.02 1170.19 69.02 1152.32 76.47 1111.34 76.47"/><polygon points="1155.11 79.77 1172.98 72.32 1166.04 151.45 1148.17 158.91 1155.11 79.77"/><polygon points="1155.4 76.47 1173.27 69.02 1172.98 72.32 1155.11 79.77 1155.4 76.47"/><polygon points="1152.32 76.47 1170.19 69.02 1173.27 69.02 1155.4 76.47 1152.32 76.47"/></g><g class="cls-9"><polygon points="1166.52 241.95 1184.39 234.49 1180.05 236.72 1162.18 244.18 1166.52 241.95"/><path d="M1172.57,239.13l17.87-7.46c-2.13,.89-4.15,1.83-6.05,2.81l-17.87,7.46c1.9-.98,3.92-1.92,6.05-2.81Z"/><polygon points="1169.62 189.33 1187.5 181.87 1183.1 231.93 1165.23 239.38 1169.62 189.33"/><path class="cls-7" d="M1189.39,229.01c-2.21,.92-4.3,1.9-6.29,2.92l-17.87,7.46c1.98-1.03,4.08-2,6.29-2.92,5.36-2.24,12.51-5.22,17.87-7.46Z"/><path d="M1172.58,188.03l17.87-7.46c-1.01,.42-2,.85-2.96,1.29l-17.87,7.46c.96-.44,1.95-.87,2.96-1.29Z"/><path class="cls-7" d="M1172.58,188.03l17.87-7.46c9.13-3.81,20.31-6.88,33.52-9.18,14.68-2.59,29.46-3.88,44.38-3.88l-17.87,7.46c-14.92,0-29.7,1.29-44.38,3.88-13.22,2.31-24.39,5.37-33.52,9.18Z"/><path d="M1171.51,236.46l17.87-7.46c7.29-3.04,15.82-5.51,25.61-7.38,12.75-2.46,24.99-3.68,36.73-3.68,22.81,0,38.53,4.11,47.17,12.31,1.96,1.88,3.64,4.01,5.08,6.42l-17.87,7.46c-1.44-2.41-3.12-4.54-5.08-6.42-8.64-8.19-24.36-12.31-47.17-12.31-11.74,0-23.98,1.22-36.73,3.68-9.79,1.87-18.32,4.34-25.61,7.38Z"/><path class="cls-7" d="M1268.36,167.51c26.91,0,48.69,5.04,65.33,15.11-5.96,2.49-11.91,4.97-17.87,7.46-16.64-10.07-38.42-15.11-65.33-15.11,5.36-2.24,12.17-6.32,17.87-7.46Z"/><path class="cls-7" d="M1333.85,182.72c-.06,.02-.12,.05-.17,.07-5.9,2.46-11.8,4.92-17.7,7.38-.05-.03-.11-.07-.16-.1,.63-.26,1.46-.61,2.09-.87,.66-.28,1.55-.65,2.21-.92s1.61-.67,2.3-.96,1.64-.68,2.34-.98c.7-.29,1.64-.68,2.34-.98s1.61-.67,2.3-.96,1.55-.65,2.21-.92c.63-.26,1.46-.61,2.09-.87,.05,.03,.11,.07,.16,.1Z"/><path class="cls-7" d="M1333.85,182.72c5.48,3.34,10.41,7.22,14.77,11.66-5.96,2.49-11.91,4.97-17.87,7.46-4.37-4.43-9.29-8.32-14.77-11.66,5.96-2.49,11.91-4.97,17.87-7.46Z"/><path class="cls-7" d="M1349.95,195.77c-5.96,2.49-11.91,4.97-17.87,7.46-.44-.47-.88-.93-1.33-1.39,0,0,0,0,0,0,.63-.26,1.46-.61,2.09-.87,.66-.28,1.55-.65,2.21-.92,.69-.29,1.61-.67,2.3-.96s1.64-.68,2.34-.98,1.64-.68,2.34-.98,1.61-.67,2.3-.96c.66-.28,1.55-.65,2.21-.92,.63-.26,1.46-.61,2.09-.87,0,0,0,0,0,0,.45,.46,.89,.92,1.33,1.39Z"/><path class="cls-7" d="M1349.95,195.77c2.04,2.19,3.93,4.48,5.68,6.88-3.37,1.41-6.74,2.81-10.11,4.22-.7,.29-1.63,.68-2.32,.97-.68,.28-1.58,.66-2.26,.94-.33,.14-.77,.32-1.09,.46-.63,.26-1.42,.74-2.09,.87-1.75-2.4-3.64-4.69-5.68-6.88,5.96-2.49,11.91-4.97,17.87-7.46Z"/><polygon points="1286.11 244.13 1303.98 236.67 1368.91 233.1 1351.04 240.55 1286.11 244.13"/><path class="cls-7" d="M1355.63,202.65c6.36,8.74,10.78,18.89,13.27,30.45l-17.87,7.46c-2.49-11.55-6.91-21.7-13.27-30.45,.63-.26,1.46-.61,2.09-.87,.66-.28,1.55-.65,2.21-.92s1.61-.67,2.3-.96,1.64-.68,2.34-.98,1.64-.68,2.34-.98,1.61-.67,2.3-.96,1.55-.65,2.21-.92c.63-.26,1.46-.61,2.09-.87Z"/><polygon points="1353.57 240.12 1371.44 232.66 1372.12 235.76 1354.25 243.22 1353.57 240.12"/><path class="cls-7" d="M1250.49,174.97c35.89,0,62.64,8.96,80.27,26.87,10.21,10.4,16.96,23.32,20.28,38.72l-64.92,3.58c-1.44-2.41-3.12-4.54-5.08-6.42-8.64-8.19-24.36-12.31-47.17-12.31-11.74,0-23.98,1.22-36.73,3.68-12.75,2.44-23.38,5.89-31.9,10.3l4.4-50.06c9.64-4.41,21.8-7.92,36.48-10.48,14.68-2.59,29.46-3.88,44.38-3.88Z"/><path d="M1171.38,185.43l17.87-7.46c9.29-3.88,20.74-7.04,34.1-9.38,14.75-2.59,29.81-3.91,44.8-3.91,36.42,0,64.09,9.34,82.18,27.71,10.56,10.76,17.69,24.31,21.12,40.26l-17.87,7.46c-3.43-15.96-10.56-29.51-21.12-40.26-18.09-18.37-45.75-27.71-82.18-27.71-14.99,0-30.05,1.32-44.8,3.91-13.36,2.34-24.8,5.5-34.1,9.38Z"/><path d="M1353.57,240.12l.67,3.1-2.86,.15-64.95,3.58-1.58,.08-.91-1.52c-1.3-2.16-2.83-4.11-4.54-5.73-8.07-7.66-23.32-11.54-45.34-11.54-11.51,0-23.73,1.22-36.29,3.63-12.48,2.41-22.99,5.81-31.26,10.1l-4.34,2.23,.47-5.3,4.4-50.03,.12-1.55,1.29-.58c9.78-4.47,22.23-8.07,37.03-10.66,14.75-2.59,29.81-3.91,44.8-3.91,36.42,0,64.09,9.34,82.18,27.71,10.56,10.76,17.69,24.31,21.12,40.26Zm-67.46,4.01l64.92-3.58c-3.32-15.4-10.07-28.31-20.28-38.72-17.63-17.91-44.38-26.87-80.27-26.87-14.92,0-29.7,1.29-44.38,3.88-14.68,2.56-26.84,6.06-36.48,10.48l-4.4,50.06c8.52-4.41,19.14-7.87,31.9-10.3,12.75-2.46,24.99-3.68,36.73-3.68,22.81,0,38.53,4.11,47.17,12.31,1.96,1.88,3.64,4.01,5.08,6.42"/></g><g class="cls-9"><polygon points="1384.23 261.43 1402.1 253.98 1425.52 378.4 1407.65 385.85 1384.23 261.43"/><polygon points="1381.11 258.74 1398.98 251.29 1401.77 251.16 1383.9 258.62 1381.11 258.74"/><polygon points="1407.65 385.85 1425.52 378.4 1477.36 378.4 1459.49 385.85 1407.65 385.85"/><path class="cls-7" d="M1491.02,329.57c-5.96,2.49-11.91,4.97-17.87,7.46-4.15,1.14-8.61,1.71-13.37,1.71l17.87-7.46c4.76,0,9.21-.57,13.37-1.71Z"/><path class="cls-7" d="M1491.02,329.57c.12-.03,.25-.07,.37-.1-2.98,1.24-5.96,2.49-8.94,3.73-2.98,1.24-5.96,2.49-8.94,3.73-.12,.04-.25,.07-.37,.1,.42-.17,.97-.41,1.39-.58,.44-.18,1.03-.43,1.47-.61s1.07-.45,1.53-.64,1.09-.45,1.56-.65,1.09-.45,1.56-.65,1.07-.45,1.53-.64,1.03-.43,1.47-.61c.42-.17,.97-.41,1.39-.58,.21-.09,.49-.2,.7-.29,.22-.09,.52-.22,.74-.31s.54-.22,.77-.32,.55-.23,.78-.33,.55-.23,.78-.33,.54-.22,.77-.32,.52-.22,.74-.31c.21-.09,.49-.2,.7-.29Z"/><polygon class="cls-7" points="1442.89 258.36 1460.76 250.91 1477.65 331.28 1459.78 338.74 1442.89 258.36"/><polygon class="cls-7" points="1384.23 261.43 1402.1 253.98 1460.76 250.91 1442.89 258.36 1384.23 261.43"/><polygon points="1383.9 258.62 1401.77 251.16 1460.43 248.09 1442.56 255.55 1383.9 258.62"/><polygon points="1445.43 257.96 1463.3 250.5 1479.66 328.42 1461.79 335.87 1445.43 257.96"/><polygon points="1444.91 255.42 1462.78 247.96 1463.3 250.5 1445.43 257.96 1444.91 255.42"/><polygon points="1442.56 255.55 1460.43 248.09 1462.78 247.96 1444.91 255.42 1442.56 255.55"/><path d="M1495.01,325.15l-17.87,7.46c-4.67,1.95-9.79,3.04-15.36,3.27l17.87-7.46c5.56-.23,10.69-1.32,15.36-3.27Z"/><path class="cls-7" d="M1491.39,329.47c1.63-.46,3.21-1.01,4.74-1.65l-17.87,7.46c-1.53,.64-3.11,1.19-4.74,1.65,.63-.26,1.46-.61,2.09-.87,.66-.28,1.55-.65,2.21-.92s1.61-.67,2.3-.96c.7-.29,1.64-.68,2.34-.98s1.64-.68,2.34-.98,1.61-.67,2.3-.96,1.55-.65,2.21-.92c.63-.26,1.46-.61,2.09-.87Z"/><path d="M1520.17,369.99l-17.87,7.46c-13.44,5.61-27.71,8.41-42.81,8.41l17.87-7.46c15.1,0,29.37-2.8,42.81-8.41Z"/><path d="M1496.13,327.81l-17.87,7.46c6.09-2.54,11.44-6.48,16.04-11.8,8.79-10.17,14.02-24.58,15.64-43.23,.91-10.1,.46-18.52-1.28-25.32l17.87-7.46c1.74,6.8,2.18,15.22,1.28,25.32-1.62,18.65-6.85,33.06-15.64,43.23-4.6,5.33-9.95,9.26-16.04,11.8Z"/><polygon points="1505.36 252.27 1523.23 244.82 1526.21 244.64 1508.34 252.1 1505.36 252.27"/><path d="M1528.55,366.07c-2.76,1.43-5.56,2.74-8.39,3.92l-17.87,7.46c2.83-1.18,5.63-2.49,8.39-3.92,5.96-2.49,11.91-4.97,17.87-7.46-5.96,2.49-11.91,4.97-17.87,7.46,15.85-8.22,31.57-20.3,42.01-36.26,5.96-2.49,11.91-4.97,17.87-7.46-5.96,2.49-11.91,4.97-17.87,7.46,10.44-15.96,16.61-34.96,18.56-57.03,.63-.26,1.46-.61,2.09-.87,.66-.28,1.55-.65,2.21-.92,.69-.29,1.61-.67,2.3-.96s1.64-.68,2.34-.98c.7-.29,1.64-.68,2.34-.98,.69-.29,1.61-.67,2.3-.96s1.55-.65,2.21-.92c.63-.26,1.46-.61,2.09-.87-1.95,22.07-8.12,41.08-18.56,57.04-10.44,15.96-26.16,28.04-42.01,36.26Z"/><polygon points="1573.92 248.67 1591.8 241.21 1592.04 244.18 1574.17 251.64 1573.92 248.67"/><path d="M1589.45,244.18c.67,8.73,.59,18.24-.32,28.59-5.96,2.49-11.91,4.97-17.87,7.46,.91-10.35,.99-19.87,.32-28.59,5.36-2.24,12.51-5.22,17.87-7.46Z"/><path class="cls-7" d="M1571.58,251.64c.67,8.73,.59,18.24-.32,28.59-1.95,22.07-8.12,41.08-18.56,57.04-10.44,15.96-26.16,28.04-42.01,36.26-15.85,8.22-32.91,12.33-51.2,12.33h-51.84s-23.42-124.42-23.42-124.42l58.66-3.07,16.89,80.38c14.22,0,25.72-5.1,34.52-15.27,8.79-10.17,14.02-24.58,15.64-43.23,.91-10.1,.46-18.52-1.28-25.32l62.92-3.27Z"/><path d="M1573.92,248.67l.24,2.97c.69,8.91,.58,18.7-.33,29.08-1.97,22.43-8.35,42.04-18.98,58.3-12.12,18.52-30.01,30.37-42.89,37.07-16.12,8.35-33.69,12.58-52.27,12.58h-51.84s-2.29,0-2.29,0l-.47-2.49-23.42-124.42-.58-3.02,2.79-.13,58.66-3.07,2.35-.13,.52,2.54,16.36,77.92c12.45-.51,22.72-5.35,30.54-14.41,8.41-9.72,13.45-23.77,15.03-41.74,.84-9.67,.45-17.81-1.2-24.26l-.8-3.2,2.98-.18,62.89-3.27,2.7-.15Zm-2.67,31.56c.91-10.35,.99-19.87,.32-28.59l-62.92,3.27c1.74,6.8,2.18,15.22,1.28,25.32-1.62,18.65-6.85,33.06-15.64,43.23-8.79,10.17-20.3,15.27-34.52,15.27l-16.89-80.38-58.66,3.07,23.42,124.42h51.84c18.28,0,35.35-4.11,51.2-12.33,15.85-8.22,31.57-20.3,42.01-36.26,10.44-15.96,16.61-34.96,18.56-57.04"/><polygon points="1573.92 248.67 1584 244.47 1526.53 247.46 1508.66 254.91 1571.58 251.64 1574.08 250.59 1573.92 248.67"/><polygon points="1508.34 252.1 1526.21 244.64 1589.1 241.37 1571.23 248.82 1508.34 252.1"/><path d="M1521.39,372.58l-17.87,7.46c2.86-1.19,5.68-2.51,8.45-3.94,12.88-6.7,30.77-18.55,42.89-37.07,10.63-16.26,17.01-35.88,18.98-58.3,.91-10.38,1.02-20.17,.33-29.08l17.87-7.46c.69,8.91,.58,18.7-.33,29.08-1.97,22.43-8.35,42.04-18.98,58.3-12.12,18.52-30.01,30.37-42.89,37.07-2.77,1.44-5.59,2.75-8.45,3.94Z"/><polygon points="1571.23 248.82 1589.1 241.37 1591.8 241.21 1573.92 248.67 1571.23 248.82"/></g><g class="cls-9"><polygon points="1376.18 205.16 1394.05 197.7 1401.09 231.34 1383.22 238.8 1376.18 205.16"/><polygon points="1372.99 202.34 1390.86 194.89 1393.84 194.89 1375.97 202.34 1372.99 202.34"/><polygon points="1383.22 238.8 1401.09 231.34 1459.71 228.12 1441.84 235.58 1383.22 238.8"/><polygon points="1444.38 235.17 1462.25 227.72 1462.9 230.79 1445.03 238.24 1444.38 235.17"/><polygon class="cls-7" points="1376.18 205.16 1394.05 197.7 1453.34 197.7 1435.47 205.16 1376.18 205.16"/><polygon class="cls-7" points="1435.47 205.16 1453.34 197.7 1459.71 228.12 1441.84 235.58 1435.47 205.16"/><polygon class="cls-7" points="1435.47 205.16 1441.84 235.58 1383.22 238.8 1376.18 205.16 1435.47 205.16"/><polygon points="1375.97 202.34 1393.84 194.89 1453.13 194.89 1435.26 202.34 1375.97 202.34"/><polygon points="1438.01 204.75 1455.88 197.3 1462.25 227.72 1444.38 235.17 1438.01 204.75"/><path d="M1444.38,235.17l.65,3.07-2.84,.15-58.62,3.22-2.35,.13-.54-2.54-7.04-33.64-.66-3.22h2.99s59.28,0,59.28,0h2.24s.51,2.41,.51,2.41l6.38,30.42Zm-61.16,3.63l58.62-3.22-6.38-30.42h-59.28s7.04,33.64,7.04,33.64"/><polygon points="1437.5 202.34 1455.37 194.89 1455.88 197.3 1438.01 204.75 1437.5 202.34"/><polygon points="1435.26 202.34 1453.13 194.89 1455.37 194.89 1437.5 202.34 1435.26 202.34"/></g><g class="cls-9"><polygon points="1466.76 180.5 1484.63 173.04 1480.36 221.63 1462.49 229.08 1466.76 180.5"/><polygon points="1464.29 178.37 1482.16 170.91 1483.57 170.38 1465.7 177.83 1464.29 178.37"/><path d="M1462.49,229.08l17.87-7.46c6.31-2.46,13.2-3.68,20.65-3.68,8.41,0,14.97,2.28,19.77,6.82l-17.87,7.46c-4.8-4.54-11.37-6.82-19.77-6.82-7.45,0-14.34,1.22-20.65,3.68Z"/><path class="cls-7" d="M1466.76,180.5l17.87-7.46c4.42-1.73,9.79-3.07,16.09-4.06,6.3-.96,12.38-1.47,18.24-1.47l-17.87,7.46c-5.86,0-11.94,.51-18.24,1.47-6.3,.99-11.66,2.33-16.09,4.06Z"/><path class="cls-7" d="M1518.96,167.51c20.49,0,36.6,4.69,48.33,14.08-5.96,2.49-11.91,4.97-17.87,7.46-11.73-9.39-27.84-14.09-48.33-14.09,5.36-2.24,12.17-6.32,17.87-7.46Z"/><polygon points="1502.91 232.23 1520.78 224.77 1589.33 221.02 1571.46 228.47 1502.91 232.23"/><path class="cls-7" d="M1577.57,192.55c5.54,7.87,9.44,17.38,11.76,28.47l-17.87,7.46c-2.32-11.09-6.23-20.6-11.76-28.47-2.94-4.17-6.36-7.83-10.27-10.96,.63-.26,1.46-.61,2.09-.87,.66-.28,1.55-.65,2.21-.92s1.61-.67,2.3-.96,1.64-.68,2.34-.98,1.64-.68,2.34-.98,1.61-.67,2.3-.96,1.55-.65,2.21-.92c.63-.26,1.46-.61,2.09-.87,3.91,3.13,7.34,6.78,10.27,10.96Z"/><path class="cls-7" d="M1501.09,174.97c27.32,0,46.85,8.35,58.6,25.04,5.54,7.87,9.44,17.38,11.76,28.47l-68.55,3.75c-4.8-4.54-11.37-6.82-19.77-6.82-7.45,0-14.34,1.22-20.65,3.68l4.27-48.59c4.42-1.73,9.79-3.07,16.09-4.06,6.3-.96,12.38-1.47,18.24-1.47Z"/><polygon points="1574 228.07 1591.87 220.61 1592.52 223.68 1574.65 231.14 1574 228.07"/><path d="M1574,228.07l.65,3.07-2.84,.15-68.58,3.75-1.09,.05-.88-.81c-4.22-4.03-10.26-6.06-17.92-6.06-7.12,0-13.78,1.17-19.82,3.53l-4.04,1.57,.39-4.74,4.27-48.56,.13-1.65,1.41-.53c4.58-1.78,10.15-3.17,16.59-4.19,6.39-.99,12.66-1.5,18.59-1.5,28.11,0,48.57,8.83,60.84,26.26,5.75,8.17,9.87,18.14,12.27,29.66Zm-71.09,4.16l68.55-3.75c-2.32-11.09-6.23-20.6-11.76-28.47-11.75-16.69-31.29-25.04-58.6-25.04-5.86,0-11.94,.51-18.24,1.47-6.3,.99-11.66,2.33-16.09,4.06l-4.27,48.59c6.31-2.46,13.2-3.68,20.65-3.68,8.41,0,14.97,2.28,19.77,6.82"/><path d="M1465.7,177.83l17.87-7.46c4.58-1.78,10.15-3.17,16.59-4.19,6.39-.99,12.66-1.5,18.59-1.5,28.11,0,48.57,8.83,60.84,26.26,5.75,8.17,9.87,18.14,12.27,29.66l-17.87,7.46c-2.4-11.52-6.53-21.49-12.27-29.66-12.27-17.43-32.73-26.26-60.84-26.26-5.93,0-12.2,.51-18.59,1.5-6.44,1.01-12.01,2.41-16.59,4.19Z"/></g></g><g><path class="cls-1" d="M390.2,489.14c-.67-.88-.88-2.1-.61-3.69l1.91-11.39c.24-1.43,.72-2.67,1.43-3.71,.71-1.04,1.65-2.14,2.83-3.32,.79-.81,1.39-1.48,1.79-2.01,.4-.52,.65-1.09,.75-1.69,.15-.92,.03-1.6-.38-2.01-.41-.41-1.21-.62-2.4-.61-1.79,.02-3.51,.55-5.14,1.61l.73-4.35c1.02-.55,2.13-.97,3.34-1.26,1.21-.29,2.43-.45,3.65-.46,2.42-.02,4.13,.53,5.13,1.66,1,1.13,1.35,2.6,1.05,4.42-.18,1.05-.54,1.97-1.09,2.78-.55,.81-1.34,1.76-2.35,2.84-1.09,1.14-1.91,2.13-2.48,2.95-.57,.83-.95,1.82-1.15,2.99l-1.62,9.69c-.13,.78-.06,1.31,.22,1.61,.28,.3,.79,.44,1.54,.44h1.57s-.79,4.74-.79,4.74l-4.57,.04c-1.55,.01-2.67-.42-3.34-1.29Z"/><path class="cls-1" d="M412.11,466.31l5.69-.05-1.61,9.6,11.95-9.69,6.54-.06-7.55,6.11c2.31,.61,3.83,1.61,4.55,3.01,.72,1.4,.88,3.26,.49,5.59l-1.55,9.28-5.69,.05,1.49-8.88c.29-1.7,.19-2.99-.27-3.85-.47-.86-1.48-1.46-3.03-1.81l-7.97,6.47-1.37,8.16-5.69,.05,4.01-23.99Z"/><path class="cls-1" d="M424.86,460.06c.06-.33,.03-.57-.08-.72-.11-.15-.34-.22-.7-.22l-2.06,.02,.66-3.95,3.81-.03c1.01,0,1.72,.23,2.11,.72,.4,.49,.53,1.09,.41,1.81l-.24,1.44,9.18-.08-.62,3.72-12.94,.11,.47-2.83Z"/><path class="cls-1" d="M449.4,468.99l5.69-.05,2.47,16.5c2.51-.02,4.56-.75,6.16-2.18,1.6-1.43,2.61-3.46,3.05-6.09,.42-2.54,.28-4.44-.44-5.68-.72-1.25-2.09-1.86-4.12-1.85-1.11,0-2.16,.17-3.17,.48l.73-4.35c1.22-.37,2.61-.56,4.16-.57,3.49-.03,5.96,1.01,7.42,3.11,1.45,2.11,1.86,5.04,1.23,8.81-.44,2.63-1.4,4.91-2.86,6.83-1.47,1.92-3.26,3.39-5.36,4.39-2.11,1-4.34,1.52-6.7,1.54l-5.15,.04-3.12-20.93Z"/><path class="cls-1" d="M486.13,489c-1.66-.85-2.85-2.04-3.56-3.57-.71-1.53-.9-3.28-.57-5.26l2.42-14.49,5.69-.05-2.39,14.26c-.32,1.88-.04,3.35,.83,4.38,.87,1.04,2.33,1.55,4.39,1.53,2.03-.02,3.65-.55,4.88-1.61,1.22-1.06,1.99-2.52,2.3-4.41l2.39-14.26,5.69-.05-2.42,14.49c-.33,1.97-1.11,3.73-2.34,5.28-1.23,1.55-2.81,2.76-4.75,3.65-1.94,.88-4.1,1.33-6.49,1.35-2.39,.02-4.41-.39-6.08-1.25Z"/><path class="cls-1" d="M520.65,488.7c-1.66-.85-2.85-2.04-3.56-3.57s-.9-3.28-.57-5.26l2.42-14.49,5.69-.05-2.39,14.26c-.32,1.88-.04,3.34,.83,4.38,.87,1.04,2.33,1.55,4.39,1.53,2.03-.02,3.66-.55,4.88-1.61,1.22-1.05,1.99-2.52,2.3-4.41l3.73-22.29,5.69-.05-3.77,22.51c-.33,1.97-1.11,3.73-2.34,5.28-1.23,1.55-2.81,2.76-4.75,3.65-1.94,.88-4.1,1.33-6.49,1.35-2.39,.02-4.41-.39-6.07-1.25Z"/><path class="cls-1" d="M552.81,489.18c-1.69-.34-2.96-.87-3.83-1.58l.74-4.44c1.18,.77,2.54,1.34,4.07,1.71,1.53,.38,2.97,.56,4.31,.54,1.79-.02,3.11-.21,3.96-.57,.85-.37,1.36-1.04,1.52-2.03,.12-.69,0-1.23-.35-1.63s-.86-.73-1.53-.99c-.67-.26-1.94-.68-3.81-1.27-2.43-.78-4.19-1.74-5.27-2.87-1.08-1.12-1.45-2.66-1.13-4.6,.38-2.24,1.56-3.98,3.56-5.23,2-1.24,4.52-1.88,7.56-1.9,1.61-.01,3.13,.14,4.55,.48s2.56,.78,3.42,1.33l-.78,4.66c-.88-.62-1.98-1.12-3.3-1.49-1.32-.38-2.69-.56-4.09-.55-3.2,.03-4.94,.91-5.23,2.64-.11,.63,0,1.14,.33,1.52,.32,.38,.79,.7,1.4,.95,.61,.25,1.56,.58,2.83,.98l1.4,.44c1.81,.58,3.19,1.21,4.13,1.89,.94,.68,1.56,1.46,1.84,2.36,.28,.89,.31,2,.09,3.31-.33,2-1.46,3.63-3.37,4.89-1.91,1.25-4.56,1.9-7.97,1.93-1.7,.01-3.4-.15-5.08-.49Z"/><path class="cls-1" d="M578.57,485.68c-.47-.65-.59-1.67-.36-3.04l.48-2.87,5.1-.04-.31,1.84c-.08,.45-.03,.76,.13,.94,.16,.18,.49,.26,.96,.26l5.29-.05-.65,3.86-7.79,.07c-1.43,.01-2.39-.31-2.86-.96Zm2.03-12.15c-.47-.65-.59-1.67-.36-3.04l.48-2.87,5.1-.04-.31,1.84c-.08,.45-.03,.76,.13,.94,.17,.18,.49,.26,.96,.26l5.28-.05-.65,3.86-7.79,.07c-1.43,.01-2.38-.31-2.86-.96Z"/><path class="cls-1" d="M608.08,488.31c-1.35-.6-2.49-1.49-3.42-2.68l-.5,2.96-5.46,.05,4.01-23.99,5.69-.05-2.77,16.55c1.14,2.44,3.08,3.64,5.83,3.62,3.52-.03,5.56-1.69,6.11-4.98l2.56-15.29,5.64-.05-2.6,15.56c-.29,1.7-.91,3.25-1.87,4.65s-2.21,2.5-3.75,3.3c-1.54,.8-3.27,1.21-5.21,1.23-1.49,.01-2.91-.28-4.26-.88Z"/><path class="cls-1" d="M642.78,472.94c.29-1.76,.15-3.02-.42-3.76s-1.78-1.1-3.6-1.09c-1.67,.01-3.45,.46-5.32,1.34l.74-4.44c.78-.37,1.77-.68,3-.94,1.22-.26,2.4-.4,3.53-.41,3.07-.03,5.26,.79,6.54,2.45,1.29,1.66,1.67,4.05,1.15,7.16l-2.51,14.98-5.69,.05,2.57-15.34Z"/><path class="cls-1" d="M677.93,487.44c-1.2-.78-2.02-1.86-2.47-3.25-.46-1.38-.54-2.93-.25-4.63l1.06-6.32c.32-1.88,.1-3.26-.65-4.14-.75-.88-2.03-1.3-3.85-1.29-1.37,.01-2.62,.23-3.73,.66-1.12,.43-2.2,1.12-3.26,2.09l1.34,2.94-1.29,7.71c-.13,.78-.05,1.32,.24,1.63,.29,.31,.84,.46,1.65,.46l2.42-.02-.79,4.75-5.46,.05c-1.58,.01-2.72-.42-3.4-1.31-.69-.89-.9-2.11-.64-3.67l1.61-9.6-1.62-3.7c1.99-2.08,4.09-3.66,6.32-4.76,2.22-1.09,4.68-1.65,7.37-1.68,3.61-.03,6.22,.77,7.82,2.42,1.6,1.64,2.15,3.96,1.65,6.95l-1.09,6.5c-.28,1.67-.1,2.91,.54,3.71,.64,.8,1.8,1.19,3.47,1.18,1.31-.01,2.57-.34,3.77-1,1.2-.65,2.16-1.56,2.89-2.73l2.77-16.55,5.64-.05-4.01,23.99-5.46,.05,.47-2.83c-2.27,2.35-5.08,3.54-8.42,3.57-1.88,.02-3.42-.37-4.62-1.15Z"/><path class="cls-1" d="M708.16,486.37c-.67-.87-.88-2.1-.61-3.69l3.17-18.97,5.69-.05-2.87,17.18c-.13,.78-.06,1.31,.22,1.61,.28,.3,.79,.44,1.54,.44h1.57s-.79,4.74-.79,4.74l-4.57,.04c-1.55,.01-2.67-.42-3.34-1.29Z"/><path class="cls-1" d="M735.29,487.2c-1.35-.6-2.49-1.49-3.42-2.68l-.5,2.96-5.46,.05,4.01-23.99,5.69-.05-2.77,16.55c1.14,2.44,3.09,3.64,5.83,3.62,3.52-.03,5.56-1.69,6.11-4.98l2.56-15.29,5.64-.05-2.6,15.56c-.29,1.7-.91,3.25-1.87,4.65s-2.21,2.5-3.75,3.3c-1.54,.8-3.27,1.21-5.21,1.23-1.49,.01-2.91-.28-4.26-.88Z"/><path class="cls-1" d="M735.64,456.56l8.69-.08,.81-4.84,3.98-.03-.81,4.84,3.4-.03,.81-4.84,3.94-.03-1.42,8.48-20.01,.17,.61-3.63Z"/><path class="cls-1" d="M768.8,487.2c-1.78-.4-3.22-.97-4.32-1.71l2.1-12.56,10.75-.09-.77,4.62-5.06,.04-.83,4.98c1,.59,2.48,.87,4.42,.86,2.63-.02,4.73-.76,6.32-2.21,1.58-1.45,2.61-3.54,3.07-6.3,.32-1.88,.27-3.4-.13-4.57-.4-1.16-1.24-2.02-2.52-2.57-1.28-.56-3.08-.82-5.41-.8-1.52,.01-3.09,.18-4.71,.51-1.62,.33-3,.8-4.15,1.4l.74-4.44c1.29-.61,2.8-1.08,4.51-1.41,1.71-.33,3.49-.5,5.34-.52,4.54-.04,7.86,1.01,9.98,3.16,2.12,2.15,2.84,5.21,2.17,9.18-.67,3.98-2.38,7.13-5.14,9.45-2.76,2.32-6.36,3.5-10.81,3.54-1.91,.02-3.76-.18-5.54-.58Z"/><path class="cls-1" d="M800.71,465.92l5.69-.05,2.47,16.5c2.51-.02,4.56-.75,6.16-2.18,1.6-1.43,2.61-3.46,3.05-6.09,.42-2.54,.28-4.44-.44-5.68-.72-1.25-2.09-1.86-4.12-1.84-1.11,0-2.16,.17-3.17,.47l.73-4.35c1.22-.37,2.61-.56,4.16-.57,3.49-.03,5.96,1.01,7.42,3.11,1.45,2.11,1.86,5.04,1.23,8.81-.44,2.63-1.4,4.91-2.86,6.83-1.47,1.92-3.26,3.39-5.36,4.39-2.11,1-4.34,1.52-6.7,1.54l-5.15,.04-3.12-20.93Z"/><path class="cls-1" d="M831.51,485.96c-.38-.43-.51-.96-.41-1.59,.11-.66,.43-1.21,.95-1.67,.52-.45,1.1-.68,1.73-.69s1.13,.21,1.5,.66c.37,.45,.5,1,.39,1.65-.11,.63-.42,1.16-.94,1.6-.52,.44-1.09,.66-1.72,.66s-1.13-.21-1.5-.64Z"/><path class="cls-1" d="M845.04,485.84c-.38-.43-.51-.96-.41-1.59,.11-.66,.43-1.21,.95-1.67,.52-.45,1.1-.68,1.73-.69,.63,0,1.13,.21,1.5,.66,.37,.45,.5,1,.39,1.65-.11,.63-.42,1.16-.94,1.6-.52,.44-1.09,.66-1.72,.66-.63,0-1.13-.21-1.5-.64Z"/><path class="cls-1" d="M858.56,485.73c-.38-.43-.51-.96-.41-1.59,.11-.66,.43-1.21,.95-1.67,.52-.45,1.1-.68,1.73-.69,.63,0,1.13,.21,1.5,.66,.37,.45,.5,1,.39,1.65-.11,.63-.42,1.16-.94,1.6-.52,.44-1.09,.66-1.72,.66-.63,0-1.13-.21-1.5-.64Z"/><path class="cls-1" d="M895.14,484.73c-.67-.88-.88-2.1-.61-3.69l3.17-18.97,5.69-.05-2.87,17.18c-.13,.78-.06,1.31,.22,1.61,.28,.3,.79,.44,1.54,.44h1.57s-.79,4.74-.79,4.74l-4.57,.04c-1.55,.01-2.67-.42-3.34-1.29Z"/><path class="cls-1" d="M918.62,485.22c-1.66-.85-2.85-2.04-3.56-3.57-.71-1.53-.9-3.28-.57-5.26l2.42-14.49,5.69-.05-2.39,14.26c-.32,1.88-.04,3.34,.83,4.38,.87,1.04,2.33,1.55,4.39,1.53,2.03-.02,3.66-.55,4.88-1.61,1.22-1.05,1.99-2.52,2.3-4.41l3.73-22.29,5.69-.05-3.77,22.51c-.33,1.97-1.11,3.74-2.34,5.28-1.23,1.55-2.81,2.76-4.75,3.65-1.94,.88-4.1,1.33-6.49,1.35-2.39,.02-4.41-.39-6.07-1.24Z"/><path class="cls-1" d="M924.41,457.43c-.83-.9-1.12-2.12-.87-3.64,.32-1.91,1.12-3.36,2.38-4.34,1.27-.98,2.86-1.48,4.77-1.5l9.99-.09-.52,3.09-9.58,.08c-.9,0-1.6,.19-2.13,.56-.52,.36-.85,.95-.99,1.75-.12,.72-.03,1.26,.29,1.63s.81,.55,1.5,.55c.75,0,1.36-.22,1.83-.64,.47-.42,.77-.98,.88-1.67l3.04-.03c-.12,.72,0,1.25,.36,1.59,.36,.34,.91,.51,1.66,.5l1.75-.02-.54,3.23h-1.66c-1.02,.02-1.86-.16-2.52-.55-.67-.38-1.06-.86-1.17-1.42-.37,.6-.99,1.12-1.87,1.56-.88,.44-1.82,.67-2.84,.67-1.67,.01-2.92-.43-3.76-1.33Z"/><path class="cls-1" d="M957.18,485c-1.27-.78-2.16-1.86-2.65-3.25-.5-1.38-.61-2.93-.32-4.63l2.6-15.56,5.69-.05-2.56,15.29c-.55,3.29,.92,4.92,4.41,4.89,2.75-.02,5.1-1.27,7.06-3.73l2.77-16.55,5.69-.05-4.01,23.99-5.46,.05,.5-2.96c-1.33,1.21-2.78,2.12-4.33,2.75-1.55,.63-3.07,.94-4.56,.96-1.94,.02-3.55-.36-4.82-1.14Z"/><path class="cls-1" d="M988.05,483.92c-.67-.88-.88-2.1-.61-3.69l3.17-18.97,5.69-.05-2.87,17.18c-.13,.78-.06,1.31,.22,1.61,.28,.3,.79,.44,1.54,.43h1.57s-.79,4.74-.79,4.74l-4.57,.04c-1.55,.01-2.66-.42-3.34-1.29Z"/><path class="cls-1" d="M1009.17,485.19c-1.69-.34-2.96-.87-3.83-1.58l.74-4.44c1.18,.77,2.54,1.34,4.07,1.71,1.53,.38,2.97,.56,4.31,.54,1.79-.02,3.11-.21,3.96-.57,.85-.37,1.36-1.04,1.52-2.03,.12-.69,0-1.23-.35-1.63-.35-.4-.86-.73-1.53-1-.67-.26-1.94-.68-3.81-1.27-2.43-.78-4.19-1.74-5.27-2.87-1.08-1.12-1.46-2.66-1.13-4.6,.38-2.24,1.56-3.98,3.56-5.23,2-1.24,4.52-1.88,7.56-1.9,1.61-.01,3.13,.14,4.55,.48s2.56,.78,3.42,1.33l-.78,4.66c-.88-.62-1.98-1.12-3.3-1.49-1.32-.38-2.69-.56-4.09-.54-3.19,.03-4.94,.91-5.23,2.64-.11,.63,0,1.14,.33,1.52,.32,.38,.79,.7,1.4,.95,.61,.25,1.56,.58,2.83,.98l1.4,.44c1.81,.58,3.19,1.21,4.13,1.89,.94,.68,1.56,1.46,1.84,2.36,.28,.89,.31,2,.09,3.31-.33,2-1.46,3.63-3.37,4.89-1.91,1.26-4.56,1.9-7.97,1.93-1.7,.01-3.4-.15-5.08-.49Z"/><path class="cls-1" d="M1009.34,454.16l8.69-.08,.81-4.84,3.98-.04-.81,4.84,3.4-.03,.81-4.84,3.94-.04-1.42,8.48-20.01,.17,.61-3.63Z"/><path class="cls-1" d="M1027.65,441.56l5.11-.04-1.03,6.14-5.11,.04,1.03-6.14Z"/><path class="cls-1" d="M1048.87,484.76c-1.78-.4-3.22-.97-4.32-1.71l2.1-12.56,10.75-.09-.77,4.62-5.06,.04-.83,4.98c1,.59,2.48,.87,4.42,.86,2.63-.02,4.73-.76,6.32-2.2,1.58-1.45,2.61-3.54,3.07-6.3,.32-1.88,.27-3.41-.13-4.57-.4-1.16-1.24-2.02-2.52-2.58-1.28-.56-3.08-.82-5.41-.8-1.52,.01-3.09,.18-4.71,.51-1.62,.33-3,.8-4.15,1.4l.74-4.44c1.29-.61,2.8-1.08,4.51-1.41,1.71-.33,3.49-.5,5.34-.52,4.54-.04,7.86,1.01,9.98,3.16,2.12,2.15,2.84,5.21,2.17,9.18-.67,3.98-2.38,7.13-5.14,9.45-2.76,2.33-6.36,3.5-10.81,3.54-1.91,.02-3.76-.18-5.54-.58Z"/><path class="cls-1" d="M1080.78,463.48l5.69-.05,2.47,16.5c2.51-.02,4.56-.75,6.16-2.18,1.6-1.43,2.61-3.46,3.05-6.09,.42-2.54,.28-4.44-.44-5.68-.72-1.25-2.09-1.86-4.12-1.84-1.11,0-2.16,.17-3.16,.47l.73-4.35c1.22-.37,2.61-.56,4.16-.57,3.49-.03,5.96,1.01,7.42,3.11,1.45,2.11,1.86,5.04,1.23,8.81-.44,2.63-1.4,4.91-2.86,6.83-1.47,1.92-3.26,3.39-5.36,4.39-2.11,1-4.34,1.52-6.7,1.54l-5.15,.04-3.12-20.93Z"/><path class="cls-1" d="M1114.39,481.74c-1.78-2.03-2.33-5.02-1.67-8.96,.45-2.69,1.23-5.04,2.34-7.05,1.11-2.01,2.44-3.56,4-4.65,1.55-1.09,3.18-1.64,4.88-1.65,2.21-.02,3.68,.82,4.41,2.51,.72-.9,1.63-1.56,2.75-1.97,1.11-.41,2.29-.62,3.55-.63,2.15-.02,3.66,.65,4.54,2,.88,1.35,1.12,3.16,.74,5.43l-2.87,17.18-5.69,.05,2.81-16.77c.2-1.2,.17-2.07-.1-2.62s-.83-.82-1.7-.81c-1.49,.01-2.55,.89-3.17,2.63l-3.18,.03c.11-1.73-.52-2.59-1.89-2.58-1.22,.01-2.34,.77-3.36,2.29-1.01,1.52-1.76,3.71-2.24,6.58-.85,5.08,1.04,7.6,5.66,7.56,1.1,0,2.16-.17,3.17-.48l-.73,4.35c-1.22,.37-2.61,.56-4.17,.57-3.61,.03-6.31-.97-8.08-3Z"/><path class="cls-1" d="M1151.15,483.95c-1.69-.34-2.96-.87-3.83-1.58l.74-4.44c1.18,.77,2.54,1.34,4.07,1.71,1.53,.38,2.97,.56,4.31,.54,1.79-.02,3.11-.21,3.96-.57,.85-.37,1.36-1.04,1.52-2.03,.12-.69,0-1.23-.35-1.63s-.86-.73-1.53-.99c-.67-.26-1.94-.68-3.81-1.27-2.43-.79-4.19-1.74-5.27-2.87-1.08-1.12-1.46-2.66-1.13-4.6,.38-2.24,1.56-3.98,3.56-5.23,2-1.24,4.52-1.88,7.56-1.9,1.61-.01,3.13,.14,4.55,.48,1.42,.33,2.56,.78,3.42,1.33l-.78,4.66c-.88-.62-1.98-1.12-3.3-1.49-1.32-.38-2.69-.56-4.09-.55-3.2,.03-4.94,.91-5.23,2.64-.11,.63,0,1.13,.33,1.52,.32,.38,.79,.7,1.4,.95,.61,.25,1.56,.58,2.83,.98l1.4,.44c1.81,.58,3.19,1.21,4.13,1.89,.94,.68,1.56,1.46,1.84,2.36,.28,.89,.31,2,.09,3.31-.33,2-1.46,3.63-3.37,4.89-1.91,1.25-4.56,1.9-7.97,1.93-1.7,.01-3.4-.15-5.08-.49Z"/><path class="cls-1" d="M1175.72,482.35l.75-4.48c1.63,1.3,4.1,1.93,7.42,1.91,2.71-.02,4.93-.72,6.65-2.09,1.72-1.37,2.81-3.44,3.27-6.19,.46-2.75,.06-4.81-1.2-6.17-1.26-1.36-3.25-2.03-5.97-2.01-3.13,.03-5.78,.71-7.94,2.04l.75-4.49c2.27-1.3,5.31-1.97,9.1-2,4.12-.04,7.16,1.05,9.13,3.25,1.97,2.21,2.62,5.31,1.95,9.32-.67,3.98-2.36,7.09-5.1,9.34s-6.14,3.39-10.23,3.42c-3.91,.03-6.77-.58-8.59-1.85Z"/><path class="cls-1" d="M1209.73,470.14l5.64-.05,.69,8.72c2.51-.02,4.64-.7,6.4-2.05,1.76-1.34,2.85-3.24,3.26-5.69,.44-2.63,.1-4.64-1.01-6.01-1.11-1.38-3.22-2.05-6.32-2.03-1.49,.01-3.04,.18-4.64,.49-1.6,.31-2.95,.71-4.04,1.2l.74-4.44c1.25-.52,2.7-.93,4.36-1.22,1.66-.3,3.34-.45,5.04-.47,4.33-.04,7.53,1.02,9.59,3.18,2.07,2.16,2.77,5.24,2.1,9.25-.41,2.42-1.36,4.55-2.86,6.38-1.5,1.83-3.36,3.26-5.59,4.28-2.23,1.02-4.57,1.54-7.01,1.56l-5.28,.05-1.06-13.16Z"/><path class="cls-1" d="M1241.13,481.69c-1.4-1.33-1.9-3.22-1.49-5.67,.27-1.61,.92-3.04,1.94-4.27,1.03-1.23,2.35-2.2,3.97-2.9,1.62-.7,3.45-1.06,5.48-1.08,2.9-.03,5.32,.45,7.27,1.41l.18-1.08c.31-1.85,0-3.22-.95-4.09-.94-.87-2.62-1.3-5.04-1.28-1.46,.01-2.93,.18-4.4,.49s-2.77,.72-3.9,1.24l.74-4.44c1.03-.46,2.42-.86,4.16-1.2,1.74-.34,3.42-.52,5.03-.54,2.42-.02,4.45,.33,6.08,1.07l2.34-2.26,6.27-.05-5.5,5.33c.94,1.3,1.22,3.15,.82,5.54l-2.5,14.93-5.64,.05,1.55-9.24c-1.83-1-4.03-1.49-6.6-1.46-1.67,.01-2.97,.35-3.9,1-.93,.65-1.5,1.59-1.7,2.81-.18,1.11,.05,1.92,.71,2.43,.66,.52,1.79,.77,3.41,.75,1.01,0,1.92-.17,2.72-.47l-.73,4.35c-1.17,.37-2.58,.56-4.25,.57-2.66,.02-4.69-.63-6.09-1.96Z"/><path class="cls-1" d="M1277.19,482.76c-1.78-.4-3.22-.97-4.32-1.71l2.1-12.56,10.75-.09-.77,4.62-5.06,.04-.83,4.98c1,.59,2.48,.87,4.42,.86,2.63-.02,4.73-.76,6.32-2.21,1.58-1.45,2.61-3.54,3.07-6.3,.32-1.88,.27-3.4-.13-4.57-.4-1.16-1.24-2.02-2.52-2.57-1.28-.56-3.08-.82-5.41-.8-1.52,.01-3.09,.18-4.71,.51-1.62,.33-3,.8-4.15,1.4l.74-4.44c1.29-.61,2.8-1.08,4.51-1.41,1.71-.33,3.49-.5,5.34-.52,4.54-.04,7.86,1.01,9.98,3.16,2.12,2.15,2.84,5.21,2.17,9.18-.67,3.98-2.38,7.13-5.14,9.45-2.76,2.32-6.36,3.5-10.81,3.54-1.91,.02-3.76-.18-5.54-.58Z"/><path class="cls-1" d="M1312.29,481.79c-1.66-.85-2.85-2.04-3.56-3.57s-.9-3.28-.57-5.26l2.42-14.49,5.69-.05-2.39,14.26c-.31,1.88-.04,3.34,.83,4.38,.87,1.04,2.33,1.55,4.39,1.53,2.03-.02,3.65-.55,4.88-1.61,1.22-1.06,1.99-2.52,2.3-4.41l2.39-14.26,5.69-.05-2.42,14.49c-.33,1.97-1.11,3.73-2.34,5.28-1.23,1.55-2.81,2.76-4.75,3.65-1.94,.88-4.1,1.33-6.49,1.35-2.39,.02-4.41-.39-6.08-1.25Z"/><path class="cls-1" d="M1343.98,480.82c-.67-.88-.88-2.1-.61-3.69l2.71-16.19c.6-3.59,2.12-6.18,4.57-7.79l-7.61,.07,.8-4.75,15.04-.13-.74,4.44c-1.88,.73-3.32,1.71-4.31,2.93-.99,1.22-1.67,2.9-2.03,5.05l-2.43,14.53c-.13,.78-.06,1.31,.22,1.61,.28,.3,.79,.44,1.54,.43h1.57s-.79,4.74-.79,4.74l-4.57,.04c-1.55,.01-2.67-.42-3.34-1.29Z"/><path class="cls-1" d="M1364.4,479.56c-1.76-2.03-2.31-5.02-1.65-8.96,.46-2.75,1.4-5.12,2.82-7.12,1.42-2,3.24-3.54,5.47-4.62,2.22-1.08,4.72-1.63,7.5-1.66,4.39-.04,7.43,.95,9.12,2.97,1.69,2.02,2.26,4.65,1.72,7.91l-2.29,13.68-5.69,.05,2.3-13.72c.35-2.09,.07-3.69-.83-4.81-.9-1.11-2.59-1.66-5.07-1.63-2.39,.02-4.41,.81-6.05,2.36-1.65,1.55-2.7,3.73-3.17,6.54-.43,2.57-.15,4.48,.83,5.72,.98,1.25,2.6,1.86,4.83,1.84,1.1,0,2.16-.17,3.17-.47l-.73,4.35c-1.22,.37-2.61,.56-4.17,.57-3.64,.03-6.34-.97-8.11-3Z"/><path class="cls-1" d="M1380.27,451.71c.06-.33,.03-.57-.08-.72-.11-.15-.34-.22-.7-.22l-2.06,.02,.66-3.95,3.81-.03c1.01,0,1.72,.23,2.11,.72,.4,.49,.53,1.09,.41,1.81l-.24,1.44,9.18-.08-.62,3.72-12.94,.11,.47-2.83Z"/></g><polygon points="784.02 228.59 772.18 228.59 774.27 216.75 786.11 216.75 784.02 228.59"/><polygon points="798.59 253.68 786.65 253.68 788.75 241.74 800.7 241.74 798.59 253.68"/><polygon points="804.62 203.59 791.46 203.59 793.78 190.44 806.94 190.44 804.62 203.59"/><polygon points="774.51 273.4 764.48 273.57 766.07 263.51 776.1 263.34 774.51 273.4"/><polygon points="652.6 236.35 640.77 236.66 642.55 224.77 654.38 224.46 652.6 236.35"/><polygon points="667.83 261.05 655.89 261.37 657.68 249.37 669.62 249.06 667.83 261.05"/><polygon points="672.54 210.82 659.39 211.17 661.37 197.96 674.52 197.61 672.54 210.82"/><polygon points="643.24 282.5 633.21 282.68 634.8 272.62 644.83 272.44 643.24 282.5"/><polygon class="cls-6" points="63.33 458.88 51.39 458.98 53.39 447.02 65.34 446.92 63.33 458.88"/><polygon class="cls-6" points="34.75 510.58 21.6 510.7 23.8 497.52 36.96 497.41 34.75 510.58"/><polygon class="cls-6" points="87.87 491.61 77.84 491.61 79.61 481.58 89.64 481.58 87.87 491.61"/><polygon class="cls-6" points="206.83 441.32 221.91 441.75 218.93 453.31 203.85 452.88 206.83 441.32"/><polygon class="cls-6" points="153.59 476.45 163.71 476.73 161.65 486.41 151.53 486.12 153.59 476.45"/><polygon class="cls-6" points="253.69 455.25 264.83 455.57 262.57 466.23 251.42 465.91 253.69 455.25"/><polygon class="cls-6" points="122.26 450.54 140.15 451.21 136.46 465.55 118.57 464.89 122.26 450.54"/><polygon class="cls-6" points="202.23 493.91 213.38 494.23 211.11 504.89 199.97 504.57 202.23 493.91"/><g><path class="cls-8" d="M1467.75,446.32c1.75-5.91,4.87-11.06,9.12-15.45,8.03-8.29,17.76-12.31,29.39-10.87,4.22,.52,8.14,2.12,11.69,4.77-2.82,3.31-5.59,6.57-8.42,9.9-2.98-2.23-6.24-3.27-9.87-3.07-4.85,.27-9.12,1.89-12.85,5.1-2.9,2.49-5.22,5.4-6.56,8.89-1.95,5.07-2.16,10.34,.93,15.03,3.27,4.96,8.19,7.05,14.14,6.52,6.01-.53,10.82-3.35,14.83-7.89,2.88,2.2,5.75,4.39,8.86,6.77-2.17,1.99-4.09,4.01-6.29,5.69-1.94,1.49-4.1,2.73-6.3,3.84-6.39,3.22-13.15,4.43-20.23,3.1-1.75-.33-3.42-1.08-5.16-1.53-.42-.11-1.14,0-1.4,.31-3.68,4.28-7.31,8.6-10.95,12.92-2.86,3.4-5.7,6.83-8.56,10.23-1.11,1.31-2.28,1.5-3.73,.57-.89-.57-1.75-1.21-2.56-1.9-.99-.84-.66-2.7,.53-4.08,2.72-3.14,5.37-6.34,8.06-9.5,2.55-2.99,5.13-5.95,7.67-8.93,1.05-1.24,2.08-2.5,3.09-3.77,1.09-1.38-.38-1.66-1.02-2.28-.9-1.45-1.85-2.87-2.69-4.36-2.23-3.96-2.87-8.31-2.7-12.76,.1-2.42,.63-4.83,.96-7.24Z"/><path class="cls-5" d="M1467.75,446.32c-.33,2.41-.87,4.82-.96,7.24-.18,4.45,.46,8.79,2.7,12.76,.84,1.49,1.79,2.91,2.69,4.36-3.79,0-7.57,0-11.45,0-.25-1.93-.45-3.84-.78-5.74-.05-.31-.62-.77-.95-.77-4.04-.05-8.08-.08-12.12,.02-.51,.01-1.14,.76-1.45,1.31-.75,1.33-1.29,2.78-2.03,4.11-.27,.48-.86,1.08-1.32,1.1-3.54,.09-7.09,.05-10.83,.05,1.93-3.58,3.78-7.01,5.63-10.43,1.69-3.11,3.38-6.22,5.07-9.34,1.57-2.89,3.13-5.79,4.71-8.68,1.7-3.1,3.42-6.19,5.12-9.3,.98-1.8,1.92-3.64,2.91-5.43,.4-.73,.93-1.2,1.93-1.16,2.42,.1,4.84,.03,7.26,.03,1.25,6.63,2.46,13.06,3.68,19.48,.03,.14,.13,.26,.19,.39Zm-16.81,8.62h7.59c-.55-3.76-1.08-7.43-1.61-11.1-.1,.03-.21,.06-.31,.09-1.86,3.62-3.72,7.24-5.67,11.01Z"/><path class="cls-5" d="M1526.84,435.78h-14.92c1.49-1.88,2.8-3.56,4.14-5.21,1.09-1.34,2.2-2.68,3.38-3.94,.37-.4,1-.78,1.51-.78,9.2-.05,18.41-.03,27.61-.03,.28,0,.56,.04,1.07,.07-.27,1.58-.51,3.07-.78,4.55-.23,1.32-.63,2.63-.69,3.96-.06,1.17-.58,1.36-1.56,1.35-2.78-.04-5.55-.01-8.33,0-.24,0-.48,.03-.84,.05-.81,4.63-1.61,9.24-2.43,13.84-.82,4.61-1.66,9.22-2.48,13.84-.35,1.98-.7,3.96-1.02,5.94-.11,.7-.15,1.37-1.11,1.36-3.21,0-6.41,0-9.74,0,2.06-11.71,4.1-23.28,6.16-34.98Z"/><path class="cls-8" d="M1481.37,449.28c6.53,9.21,17.64,8.5,24.29,4.61,1.94-1.14,3.77-2.5,5.57-3.86,.75-.56,1.19-1.25,.35-2.31-4.77-6.05-11.01-7.53-18.2-5.92-4.59,1.03-6.93,2.45-11.53,6.32-.12-.05-.24-.11-.36-.16,.92-1.92,1.82-3.86,2.78-5.76,.32-.63,.79-1.19,1.22-1.77,1.93-2.61,4.97-3.03,7.78-3.71,5.09-1.25,10.13-.94,14.99,1.21,4.27,1.89,7.19,5.16,9.57,9.07,.97,1.6,.66,2.56-.72,3.69-2,1.64-3.65,3.72-5.73,5.24-7.3,5.33-15.33,7.37-24.2,4.68-1.33-.4-2.56-1.16-3.86-1.69-1.43-.58-1.77-1.93-1.9-3.12-.22-2.05-.06-4.14-.06-6.51Z"/><path class="cls-5" d="M1519.65,500.86c-1.59,0-3.1,.04-4.6-.03-.34-.02-.86-.33-.97-.62-1.45-4.12-2.84-8.25-4.37-12.72-1.21,1.7-2.27,3.19-3.45,4.85,.59,.05,1.02,.19,1.4,.11,1.74-.34,2.68,.4,3.07,2.07,.21,.9,.57,1.77,.93,2.85-2.5,0-4.78,.12-7.04-.05-1.41-.11-2.42,.34-2.96,1.49-.87,1.83-2.26,2.27-4.1,2.05-.8-.1-1.63-.02-2.71-.02,1.43-2.08,2.7-3.96,3.99-5.82,2.08-2.99,4.17-5.97,6.24-8.97,.93-1.34,1.8-2.73,2.76-4.05,.64-.89,3.63-1.49,4.63-.96,.22,.12,.39,.41,.49,.67,1.31,3.61,2.58,7.23,3.89,10.84,.84,2.33,1.72,4.64,2.57,6.97,.14,.39,.15,.82,.24,1.33Z"/><path class="cls-8" d="M1503.12,447.08c.68,1.6-.14,2.9-.79,4.16-1.19,2.32-4.59,4.42-7.49,3.97-3.28-.5-5.4-3.43-4.3-7.25,1.11-3.85,5.65-6.62,9.05-5.31-2.83,2.61-3.3,4-1.87,5.48,1.4,1.44,3.17,1.11,5.39-1.05Z"/><path class="cls-5" d="M1525.73,500.78h-4.87c.81-4.62,1.61-9.15,2.41-13.74h4.84c-.8,4.62-1.59,9.17-2.39,13.74Z"/><path class="cls-5" d="M1527.3,479.89c.56,.25,1.12,.51,1.92,.87-.21,1.29-.41,2.78-.72,4.24-.05,.23-.59,.48-.91,.5-1.25,.06-2.51,.02-3.89,.02,.06-.73,.1-1.36,.13-1.68,.79-.45,1.34-.77,1.89-1.08-.39-.3-.78-.61-1.24-.96,.03-.26,.08-.73,.13-1.16,.92-.26,1.81-.5,2.7-.75Z"/><path class="cls-5" d="M1527.71,478.81c.18-.34,.3-.54,.38-.76,.08-.21,.13-.44,.19-.67h1.34c.12,1.62-.05,1.75-1.92,1.43Z"/><path class="cls-5" d="M1525.12,477.4c.17-.54,.3-.97,.46-1.49,.48,.03,.93,.05,1.39,.08-.1,1.58-.16,1.62-1.85,1.41Z"/></g></g></g></svg>