<svg width="96" height="94" viewBox="0 0 96 94" fill="none" xmlns="http://www.w3.org/2000/svg">
<rect width="96" height="94" fill="#EC6440"/>
<path d="M47.5909 79.1303C64.4869 79.1303 78.1838 75.3215 78.1838 70.623C78.1838 65.9246 64.4869 62.1157 47.5909 62.1157C30.6949 62.1157 16.998 65.9246 16.998 70.623C16.998 75.3215 30.6949 79.1303 47.5909 79.1303Z" fill="#253472" stroke="#EC6440" stroke-miterlimit="10"/>
<path d="M47.5909 79.1336C64.4863 79.1336 78.1838 75.3244 78.1838 70.6263V80.4924C78.1838 85.1926 64.4863 88.9997 47.5909 88.9997C30.6955 88.9997 16.998 85.1862 16.998 80.4881V70.6221C16.998 75.3201 30.6955 79.1336 47.5909 79.1336Z" fill="#253472" stroke="#EC6440" stroke-miterlimit="10"/>
<path d="M47.5908 79.1304V88.9964" stroke="#EC6440" stroke-miterlimit="10"/>
<path d="M44.5312 79.0864V88.9525" stroke="#EC6440" stroke-miterlimit="10"/>
<path d="M41.4727 78.959V88.825" stroke="#EC6440" stroke-miterlimit="10"/>
<path d="M38.4131 78.7412V88.6051" stroke="#EC6440" stroke-miterlimit="10"/>
<path d="M35.3545 78.4214V88.2874" stroke="#EC6440" stroke-miterlimit="10"/>
<path d="M32.2939 77.9917V87.8578" stroke="#EC6440" stroke-miterlimit="10"/>
<path d="M29.2354 77.4297V87.2936" stroke="#EC6440" stroke-miterlimit="10"/>
<path d="M26.1758 76.6963V86.5623" stroke="#EC6440" stroke-miterlimit="10"/>
<path d="M23.1162 75.7271V85.5931" stroke="#EC6440" stroke-miterlimit="10"/>
<path d="M20.0576 74.334V84.2" stroke="#EC6440" stroke-miterlimit="10"/>
<path d="M75.124 74.334V84.2" stroke="#EC6440" stroke-miterlimit="10"/>
<path d="M72.0654 75.7271V85.5931" stroke="#EC6440" stroke-miterlimit="10"/>
<path d="M69.0049 76.6963V86.5623" stroke="#EC6440" stroke-miterlimit="10"/>
<path d="M65.9443 77.4297V87.2936" stroke="#EC6440" stroke-miterlimit="10"/>
<path d="M62.8877 77.9917V87.8578" stroke="#EC6440" stroke-miterlimit="10"/>
<path d="M59.8271 78.4214V88.2874" stroke="#EC6440" stroke-miterlimit="10"/>
<path d="M56.7676 78.7412V88.6051" stroke="#EC6440" stroke-miterlimit="10"/>
<path d="M53.709 78.959V88.825" stroke="#EC6440" stroke-miterlimit="10"/>
<path d="M50.6504 79.0864V88.9525" stroke="#EC6440" stroke-miterlimit="10"/>
<path d="M35.5929 67.707C52.4888 67.707 66.1857 63.8981 66.1857 59.1997C66.1857 54.5012 52.4888 50.6924 35.5929 50.6924C18.6969 50.6924 5 54.5012 5 59.1997C5 63.8981 18.6969 67.707 35.5929 67.707Z" fill="#253472" stroke="#EC6440" stroke-miterlimit="10"/>
<path d="M35.5928 67.7065C52.4883 67.7065 66.1835 63.8972 66.1835 59.1992V69.0653C66.1835 73.7654 52.4883 77.5726 35.5928 77.5726C18.6974 77.5726 5 73.7633 5 69.0653V59.1992C5 63.8972 18.6974 67.7065 35.5928 67.7065Z" fill="#253472" stroke="#EC6440" stroke-miterlimit="10"/>
<path d="M35.5928 67.7065V77.5726" stroke="#EC6440" stroke-miterlimit="10"/>
<path d="M32.5322 67.6641V77.5301" stroke="#EC6440" stroke-miterlimit="10"/>
<path d="M29.4746 67.5352V77.4012" stroke="#EC6440" stroke-miterlimit="10"/>
<path d="M26.415 67.3179V77.1818" stroke="#EC6440" stroke-miterlimit="10"/>
<path d="M23.3545 67V76.8639" stroke="#EC6440" stroke-miterlimit="10"/>
<path d="M20.2969 66.5679V76.4339" stroke="#EC6440" stroke-miterlimit="10"/>
<path d="M17.2373 66.0063V75.8724" stroke="#EC6440" stroke-miterlimit="10"/>
<path d="M14.1777 65.2754V75.1393" stroke="#EC6440" stroke-miterlimit="10"/>
<path d="M11.1182 64.3052V74.1691" stroke="#EC6440" stroke-miterlimit="10"/>
<path d="M8.05957 62.9121V72.776" stroke="#EC6440" stroke-miterlimit="10"/>
<path d="M63.125 62.9121V72.776" stroke="#EC6440" stroke-miterlimit="10"/>
<path d="M60.0654 64.3052V74.1691" stroke="#EC6440" stroke-miterlimit="10"/>
<path d="M57.0078 65.2754V75.1393" stroke="#EC6440" stroke-miterlimit="10"/>
<path d="M53.9473 66.0063V75.8724" stroke="#EC6440" stroke-miterlimit="10"/>
<path d="M50.8887 66.5679V76.4339" stroke="#EC6440" stroke-miterlimit="10"/>
<path d="M47.8291 67V76.8639" stroke="#EC6440" stroke-miterlimit="10"/>
<path d="M44.7686 67.3179V77.1818" stroke="#EC6440" stroke-miterlimit="10"/>
<path d="M41.7109 67.5352V77.4012" stroke="#EC6440" stroke-miterlimit="10"/>
<path d="M38.6494 67.6641V77.5301" stroke="#EC6440" stroke-miterlimit="10"/>
<path d="M47.5909 56.2831C64.4869 56.2831 78.1838 52.4743 78.1838 47.7758C78.1838 43.0774 64.4869 39.2686 47.5909 39.2686C30.6949 39.2686 16.998 43.0774 16.998 47.7758C16.998 52.4743 30.6949 56.2831 47.5909 56.2831Z" fill="#253472" stroke="#EC6440" stroke-miterlimit="10"/>
<path d="M47.5909 56.2749C64.4863 56.2749 78.1838 52.4677 78.1838 47.7676V57.6422C78.1838 62.3423 64.4863 66.1495 47.5909 66.1495C30.6955 66.1495 16.998 62.3402 16.998 57.6422V47.7761C16.998 52.4763 30.6955 56.2749 47.5909 56.2749Z" fill="#253472" stroke="#EC6440" stroke-miterlimit="10"/>
<path d="M47.5908 56.2837V66.1498" stroke="#EC6440" stroke-miterlimit="10"/>
<path d="M44.5312 56.2427V66.1066" stroke="#EC6440" stroke-miterlimit="10"/>
<path d="M41.4727 56.1143V65.9782" stroke="#EC6440" stroke-miterlimit="10"/>
<path d="M38.4131 55.894V65.7601" stroke="#EC6440" stroke-miterlimit="10"/>
<path d="M35.3545 55.5757V65.4396" stroke="#EC6440" stroke-miterlimit="10"/>
<path d="M32.2939 55.147V65.0109" stroke="#EC6440" stroke-miterlimit="10"/>
<path d="M29.2354 54.582V64.4481" stroke="#EC6440" stroke-miterlimit="10"/>
<path d="M26.1758 53.8521V63.716" stroke="#EC6440" stroke-miterlimit="10"/>
<path d="M23.1162 52.8813V62.7453" stroke="#EC6440" stroke-miterlimit="10"/>
<path d="M20.0576 51.4888V61.3548" stroke="#EC6440" stroke-miterlimit="10"/>
<path d="M75.124 51.4888V61.3548" stroke="#EC6440" stroke-miterlimit="10"/>
<path d="M72.0654 52.8813V62.7453" stroke="#EC6440" stroke-miterlimit="10"/>
<path d="M69.0049 53.8521V63.716" stroke="#EC6440" stroke-miterlimit="10"/>
<path d="M65.9443 54.582V64.4481" stroke="#EC6440" stroke-miterlimit="10"/>
<path d="M62.8877 55.147V65.0109" stroke="#EC6440" stroke-miterlimit="10"/>
<path d="M59.8271 55.5757V65.4396" stroke="#EC6440" stroke-miterlimit="10"/>
<path d="M56.7676 55.894V65.7601" stroke="#EC6440" stroke-miterlimit="10"/>
<path d="M53.709 56.1143V65.9782" stroke="#EC6440" stroke-miterlimit="10"/>
<path d="M50.6504 56.2427V66.1066" stroke="#EC6440" stroke-miterlimit="10"/>
<path d="M47.5909 44.8613C64.4869 44.8613 78.1838 41.0524 78.1838 36.354C78.1838 31.6555 64.4869 27.8467 47.5909 27.8467C30.6949 27.8467 16.998 31.6555 16.998 36.354C16.998 41.0524 30.6949 44.8613 47.5909 44.8613Z" fill="#253472" stroke="#EC6440" stroke-miterlimit="10"/>
<path d="M47.5909 44.8618C64.4863 44.8618 78.1838 41.0525 78.1838 36.3545V46.2184C78.1838 50.9186 64.4863 54.7257 47.5909 54.7257C30.6955 54.7257 16.998 50.9164 16.998 46.2184V36.3545C16.998 41.0525 30.6955 44.8618 47.5909 44.8618Z" fill="#253472" stroke="#EC6440" stroke-miterlimit="10"/>
<path d="M47.5908 44.8613V54.7253" stroke="#EC6440" stroke-miterlimit="10"/>
<path d="M44.5312 44.8188V54.6849" stroke="#EC6440" stroke-miterlimit="10"/>
<path d="M41.4727 44.6914V54.5575" stroke="#EC6440" stroke-miterlimit="10"/>
<path d="M38.4131 44.4712V54.3372" stroke="#EC6440" stroke-miterlimit="10"/>
<path d="M35.3545 44.1523V54.0184" stroke="#EC6440" stroke-miterlimit="10"/>
<path d="M32.2939 43.7227V53.5866" stroke="#EC6440" stroke-miterlimit="10"/>
<path d="M29.2354 43.1587V53.0248" stroke="#EC6440" stroke-miterlimit="10"/>
<path d="M26.1758 42.4282V52.2943" stroke="#EC6440" stroke-miterlimit="10"/>
<path d="M23.1162 41.4585V51.3246" stroke="#EC6440" stroke-miterlimit="10"/>
<path d="M20.0576 40.0649V49.931" stroke="#EC6440" stroke-miterlimit="10"/>
<path d="M75.124 40.0649V49.931" stroke="#EC6440" stroke-miterlimit="10"/>
<path d="M72.0654 41.4585V51.3246" stroke="#EC6440" stroke-miterlimit="10"/>
<path d="M69.0049 42.4282V52.2943" stroke="#EC6440" stroke-miterlimit="10"/>
<path d="M65.9443 43.1587V53.0248" stroke="#EC6440" stroke-miterlimit="10"/>
<path d="M62.8877 43.7227V53.5866" stroke="#EC6440" stroke-miterlimit="10"/>
<path d="M59.8271 44.1523V54.0184" stroke="#EC6440" stroke-miterlimit="10"/>
<path d="M56.7676 44.4712V54.3372" stroke="#EC6440" stroke-miterlimit="10"/>
<path d="M53.709 44.6914V54.5575" stroke="#EC6440" stroke-miterlimit="10"/>
<path d="M50.6504 44.8188V54.6849" stroke="#EC6440" stroke-miterlimit="10"/>
<path d="M60.4073 33.4379C77.3033 33.4379 91.0002 29.6291 91.0002 24.9306C91.0002 20.2322 77.3033 16.4233 60.4073 16.4233C43.5113 16.4233 29.8145 20.2322 29.8145 24.9306C29.8145 29.6291 43.5113 33.4379 60.4073 33.4379Z" fill="#253472" stroke="#EC6440" stroke-miterlimit="10"/>
<path d="M60.4073 33.438C77.3027 33.438 91.0002 29.6287 91.0002 24.9307V34.7946C91.0002 39.4948 77.3027 43.304 60.4073 43.304C43.5119 43.304 29.8145 39.4948 29.8145 34.7946V24.9307C29.8145 29.6287 43.5119 33.438 60.4073 33.438Z" fill="#253472" stroke="#EC6440" stroke-miterlimit="10"/>
<path d="M60.4062 33.438V43.304" stroke="#EC6440" stroke-miterlimit="10"/>
<path d="M57.3467 33.395V43.2611" stroke="#EC6440" stroke-miterlimit="10"/>
<path d="M54.2891 33.2671V43.1331" stroke="#EC6440" stroke-miterlimit="10"/>
<path d="M51.2275 33.0474V42.9134" stroke="#EC6440" stroke-miterlimit="10"/>
<path d="M48.1699 32.729V42.5951" stroke="#EC6440" stroke-miterlimit="10"/>
<path d="M45.1104 32.2993V42.1654" stroke="#EC6440" stroke-miterlimit="10"/>
<path d="M42.0498 31.7373V41.6012" stroke="#EC6440" stroke-miterlimit="10"/>
<path d="M38.9922 31.0044V40.8705" stroke="#EC6440" stroke-miterlimit="10"/>
<path d="M35.9307 30.0347V39.9007" stroke="#EC6440" stroke-miterlimit="10"/>
<path d="M32.874 28.6411V38.5072" stroke="#EC6440" stroke-miterlimit="10"/>
<path d="M87.9395 28.6411V38.5072" stroke="#EC6440" stroke-miterlimit="10"/>
<path d="M84.8789 30.0347V39.9007" stroke="#EC6440" stroke-miterlimit="10"/>
<path d="M81.8213 31.0044V40.8705" stroke="#EC6440" stroke-miterlimit="10"/>
<path d="M78.7617 31.7373V41.6012" stroke="#EC6440" stroke-miterlimit="10"/>
<path d="M75.7021 32.2993V42.1654" stroke="#EC6440" stroke-miterlimit="10"/>
<path d="M72.6436 32.729V42.5951" stroke="#EC6440" stroke-miterlimit="10"/>
<path d="M69.585 33.0474V42.9134" stroke="#EC6440" stroke-miterlimit="10"/>
<path d="M66.5244 33.2671V43.1331" stroke="#EC6440" stroke-miterlimit="10"/>
<path d="M63.4648 33.395V43.2611" stroke="#EC6440" stroke-miterlimit="10"/>
<path d="M60.4073 22.0146C77.3033 22.0146 91.0002 18.2057 91.0002 13.5073C91.0002 8.80884 77.3033 5 60.4073 5C43.5113 5 29.8145 8.80884 29.8145 13.5073C29.8145 18.2057 43.5113 22.0146 60.4073 22.0146Z" fill="#253472" stroke="#EC6440" stroke-miterlimit="10"/>
<path d="M60.4073 22.0136C77.3027 22.0136 91.0002 18.2044 91.0002 13.5063V23.3724C91.0002 28.0726 77.3027 31.8797 60.4073 31.8797C43.5119 31.8797 29.8145 28.0726 29.8145 23.3724V13.5063C29.8145 18.2044 43.5119 22.0136 60.4073 22.0136Z" fill="#253472" stroke="#EC6440" stroke-miterlimit="10"/>
<path d="M60.4062 22.0146V31.8807" stroke="#EC6440" stroke-miterlimit="10"/>
<path d="M57.3467 21.9722V31.8382" stroke="#EC6440" stroke-miterlimit="10"/>
<path d="M54.2891 21.8433V31.7093" stroke="#EC6440" stroke-miterlimit="10"/>
<path d="M51.2275 21.626V31.4899" stroke="#EC6440" stroke-miterlimit="10"/>
<path d="M48.1699 21.3052V31.1712" stroke="#EC6440" stroke-miterlimit="10"/>
<path d="M45.1104 20.8765V30.7425" stroke="#EC6440" stroke-miterlimit="10"/>
<path d="M42.0498 20.314V30.18" stroke="#EC6440" stroke-miterlimit="10"/>
<path d="M38.9922 19.5811V29.4471" stroke="#EC6440" stroke-miterlimit="10"/>
<path d="M35.9307 18.6133V28.4772" stroke="#EC6440" stroke-miterlimit="10"/>
<path d="M32.874 17.2207V27.0846" stroke="#EC6440" stroke-miterlimit="10"/>
<path d="M87.9395 17.2207V27.0846" stroke="#EC6440" stroke-miterlimit="10"/>
<path d="M84.8789 18.6133V28.4772" stroke="#EC6440" stroke-miterlimit="10"/>
<path d="M81.8213 19.5811V29.4471" stroke="#EC6440" stroke-miterlimit="10"/>
<path d="M78.7617 20.314V30.18" stroke="#EC6440" stroke-miterlimit="10"/>
<path d="M75.7021 20.8765V30.7425" stroke="#EC6440" stroke-miterlimit="10"/>
<path d="M72.6436 21.3052V31.1712" stroke="#EC6440" stroke-miterlimit="10"/>
<path d="M69.585 21.626V31.4899" stroke="#EC6440" stroke-miterlimit="10"/>
<path d="M66.5244 21.8433V31.7093" stroke="#EC6440" stroke-miterlimit="10"/>
<path d="M63.4648 21.9722V31.8382" stroke="#EC6440" stroke-miterlimit="10"/>
</svg>
