<svg width="72" height="72" viewBox="0 0 72 72" fill="none" xmlns="http://www.w3.org/2000/svg">
<path fill-rule="evenodd" clip-rule="evenodd" d="M72 0H0V72H72V0ZM41.3816 22.7503H44.6134C44.9366 22.7503 45.0982 22.5875 44.9366 22.2617V16.561C44.9366 16.2353 44.9366 16.0724 44.6134 16.0724C43.9248 16.0724 43.2188 16.0549 42.5011 16.0371C41.0295 16.0006 39.5088 15.9629 37.9882 16.0724C35.8875 16.2353 33.9484 17.0497 32.6557 18.8413C31.5245 20.3072 31.0398 21.936 31.0398 23.7276V28.1253C31.0398 28.6139 30.8782 28.7768 30.3934 28.7768H27.4848C27.1616 28.7768 27 28.9397 27 29.2654V34.9661C27 35.2919 27.1616 35.4548 27.4848 35.4548H30.3934C30.8782 35.4548 31.0398 35.6176 31.0398 36.1063V45.2274V54.1856C31.0398 54.8371 31.0398 55 31.6861 55H38.3114C38.9577 55 39.1193 54.8371 39.1193 54.1856V36.2691C39.1193 35.7796 39.0788 35.5762 39.1602 35.495C39.2413 35.4142 39.4434 35.4548 39.9273 35.4548H43.8055C44.2902 35.4548 44.4518 35.4548 44.4518 34.9661C44.5326 33.989 44.6134 33.0526 44.6942 32.1161C44.775 31.1795 44.8558 30.2428 44.9366 29.2654C44.9366 28.7768 44.775 28.6139 44.2902 28.6139H39.4425C39.3697 28.6139 39.305 28.6222 39.2486 28.6294C39.0547 28.6542 38.9577 28.6667 38.9577 28.2882V24.8677C39.1193 23.5647 39.9273 22.7503 41.3816 22.7503Z" fill="#FFFEF5"/>
</svg>
