<?xml version="1.0" encoding="UTF-8"?><svg id="Layer_2" xmlns="http://www.w3.org/2000/svg" viewBox="0 0 184.5 78.11"><defs><style>.cls-1{stroke-width:.11px;}.cls-1,.cls-2,.cls-3{fill:#fff;stroke:#fff;}.cls-2,.cls-3{stroke-width:.25px;}.cls-3{stroke-miterlimit:2.25;}</style></defs><g id="Layer_4"><g><path class="cls-1" d="M15.68,76.81c.52,.26,1.26,.47,2.06,.47,1.18,0,1.87-.5,1.87-1.22,0-.66-.48-1.05-1.69-1.41-1.46-.42-2.36-1.04-2.36-2.04,0-1.11,1.15-1.94,2.89-1.94,.9,0,1.58,.17,1.96,.35l-.32,.75c-.28-.14-.88-.34-1.69-.34-1.22,0-1.69,.58-1.69,1.07,0,.67,.54,1,1.78,1.38,1.51,.47,2.27,1.05,2.27,2.1,0,1.1-1.01,2.07-3.12,2.07-.86,0-1.81-.21-2.28-.47l.31-.77Z"/><path class="cls-1" d="M32.84,74.29c0,2.45-1.87,3.76-4.15,3.76s-4.02-1.47-4.02-3.64c0-2.27,1.75-3.75,4.14-3.75s4.04,1.5,4.04,3.63Zm-6.96,.11c0,1.54,1.04,2.91,2.87,2.91s2.87-1.35,2.87-2.97c0-1.43-.93-2.92-2.85-2.92s-2.88,1.42-2.88,2.98Z"/><path class="cls-1" d="M43.4,77.72c-.41,.17-1.27,.34-2.36,.34-2.52,0-4.41-1.27-4.41-3.63s1.9-3.75,4.67-3.75c1.1,0,1.82,.19,2.12,.32l-.29,.75c-.42-.17-1.05-.3-1.79-.3-2.1,0-3.49,1.07-3.49,2.95,0,1.76,1.26,2.87,3.42,2.87,.72,0,1.43-.12,1.9-.3l.23,.74Z"/><path class="cls-1" d="M48.83,70.79v7.15h-1.17v-7.15h1.17Z"/><path class="cls-1" d="M55.11,75.69l-.93,2.25h-1.19l3.05-7.15h1.38l3.05,7.15h-1.23l-.96-2.25h-3.17Zm2.95-.72l-.89-2.06c-.2-.47-.33-.89-.46-1.3h-.03c-.13,.41-.27,.86-.45,1.29l-.88,2.07h2.71Z"/><path class="cls-1" d="M64.6,70.79h1.17v6.37h3.82v.77h-4.99v-7.15Z"/><path class="cls-1" d="M83.95,74.59h-3.46v2.58h3.88v.77h-5.04v-7.15h4.85v.77h-3.68v2.26h3.46v.76Z"/><path class="cls-1" d="M88.68,77.94v-7.15h1.27l2.85,3.62c.65,.84,1.18,1.59,1.59,2.32h.04c-.11-.96-.13-1.83-.13-2.95v-2.99h1.09v7.15h-1.17l-2.84-3.63c-.62-.79-1.22-1.61-1.66-2.39h-.04c.07,.91,.08,1.77,.08,2.96v3.05h-1.09Z"/><path class="cls-1" d="M101.93,71.57h-2.72v-.78h6.62v.78h-2.74v6.36h-1.17v-6.36Z"/><path class="cls-1" d="M114.27,74.59h-3.46v2.58h3.88v.77h-5.04v-7.15h4.84v.77h-3.68v2.26h3.46v.76Z"/><path class="cls-1" d="M119,70.89c.58-.08,1.43-.15,2.22-.15,1.24,0,2.04,.19,2.59,.58,.44,.32,.7,.81,.7,1.37,0,.93-.74,1.56-1.67,1.81v.03c.68,.19,1.09,.7,1.3,1.44,.29,1,.5,1.69,.69,1.96h-1.2c-.15-.21-.34-.82-.58-1.71-.27-.99-.76-1.36-1.81-1.39h-1.09v3.1h-1.16v-7.05Zm1.16,3.25h1.18c1.23,0,2.02-.54,2.02-1.36,0-.92-.84-1.33-2.06-1.33-.56,0-.94,.03-1.14,.07v2.61Z"/><path class="cls-1" d="M128.96,70.88c.56-.07,1.29-.14,2.22-.14,1.14,0,1.98,.21,2.51,.59,.48,.34,.78,.86,.78,1.5s-.24,1.16-.69,1.53c-.62,.52-1.61,.78-2.74,.78-.34,0-.66-.01-.93-.06v2.86h-1.16v-7.06Zm1.16,3.45c.25,.05,.57,.07,.96,.07,1.39,0,2.24-.55,2.24-1.52s-.85-1.41-2.11-1.41c-.5,0-.89,.03-1.09,.07v2.78Z"/><path class="cls-1" d="M138.84,70.89c.58-.08,1.43-.15,2.22-.15,1.24,0,2.04,.19,2.59,.58,.44,.32,.7,.81,.7,1.37,0,.93-.74,1.56-1.67,1.81v.03c.68,.19,1.09,.7,1.3,1.44,.29,1,.5,1.69,.69,1.96h-1.2c-.15-.21-.34-.82-.58-1.71-.27-.99-.76-1.36-1.81-1.39h-1.09v3.1h-1.16v-7.05Zm1.16,3.25h1.18c1.23,0,2.02-.54,2.02-1.36,0-.92-.84-1.33-2.06-1.33-.56,0-.94,.03-1.14,.07v2.61Z"/><path class="cls-1" d="M149.96,70.79v7.15h-1.17v-7.15h1.17Z"/><path class="cls-1" d="M154.65,76.81c.52,.26,1.26,.47,2.06,.47,1.18,0,1.87-.5,1.87-1.22,0-.66-.48-1.05-1.69-1.41-1.46-.42-2.36-1.04-2.36-2.04,0-1.11,1.16-1.94,2.89-1.94,.9,0,1.58,.17,1.96,.35l-.32,.75c-.28-.14-.88-.34-1.69-.34-1.22,0-1.69,.58-1.69,1.07,0,.67,.54,1,1.78,1.38,1.51,.47,2.27,1.05,2.27,2.1,0,1.1-1.01,2.07-3.12,2.07-.86,0-1.81-.21-2.28-.47l.31-.77Z"/><path class="cls-1" d="M168.78,74.59h-3.46v2.58h3.88v.77h-5.04v-7.15h4.84v.77h-3.68v2.26h3.46v.76Z"/></g></g><g id="Layer_2-2"><path class="cls-2" d="M53.47,2.29c-6.33,.54-6.95,.93-6.95,7.33v31.19c0,6.49,.62,6.87,6.87,7.33v2.16h-20.69v-2.16c6.56-.46,7.26-.85,7.26-7.33v-15.44H13.63v15.44c0,6.41,.62,6.87,6.95,7.33v2.16H.28v-2.16c6.18-.46,6.79-.85,6.79-7.33V9.62C7.07,3.14,6.46,2.83,.12,2.29V.12H20.12V2.29c-5.87,.54-6.48,.93-6.48,7.33v12.51h26.33V9.62c0-6.41-.62-6.79-6.64-7.33V.12h20.15V2.29Z"/><path class="cls-3" d="M80.33,32.59h-11.45c1.87-5.1,3.86-10.52,5.85-15.87h.12l5.48,15.87Zm15.87,17.43v-1.74c-4.04-.38-4.85-.93-6.85-6.29-3.98-10.83-8.15-22.65-12.01-33.36l-1.93,.56-12.88,32.67c-2.18,5.48-3.05,5.85-6.97,6.41v1.74h13.5v-1.74c-4.67-.44-5.23-1.06-3.86-4.98,.81-2.61,1.74-5.23,2.74-8.03h13.26c1.37,3.8,2.61,7.16,3.42,9.59,.81,2.43,.25,2.92-3.67,3.42v1.74h15.25Z"/><path class="cls-3" d="M141.36,9.56h-14.69v1.74c4.29,.25,5.79,1.06,6.1,3.86,.19,1.74,.44,4.6,.44,10.33v15.31h-.19l-25.95-31.24h-9.21v1.74c2.93,.25,4.29,.75,5.54,2.3,1.12,1.49,1.25,1.74,1.25,6.29v13.69c0,5.73-.19,8.71-.37,10.64-.31,3.05-1.87,3.86-5.48,4.05v1.74h14.75v-1.74c-4.23-.25-5.66-1-5.97-4.17-.19-1.8-.37-4.79-.37-10.52v-15.62h.13l26.51,32.61h1.93V25.49c0-5.79,.12-8.59,.37-10.45,.25-2.74,1.74-3.55,5.23-3.73v-1.74Z"/><path class="cls-2" d="M80.95,50.01v-1.74c3.92-.5,4.48-1,3.67-3.42-.81-2.43-2.05-5.79-3.42-9.58h-13.26c-1,2.8-1.93,5.41-2.74,8.03-1.37,3.92-.81,4.54,3.86,4.98v1.74h-13.5v-1.74c3.92-.56,4.79-.93,6.97-6.41l12.88-32.67,1.93-.56c3.86,10.7,8.03,22.53,12.01,33.36,1.99,5.35,2.8,5.91,6.85,6.29v1.74h-15.25Zm-6.1-33.29h-.12c-1.99,5.35-3.98,10.77-5.85,15.87h11.45l-5.48-15.87Z"/><path class="cls-2" d="M141.35,11.31c-3.48,.19-4.98,1-5.23,3.73-.25,1.87-.37,4.67-.37,10.45v25.08h-1.93l-26.51-32.61h-.12v15.62c0,5.73,.19,8.71,.37,10.52,.31,3.17,1.74,3.92,5.98,4.17v1.74h-14.75v-1.74c3.61-.19,5.16-1,5.48-4.05,.19-1.93,.37-4.92,.37-10.64v-13.69c0-4.54-.12-4.79-1.24-6.29-1.25-1.56-2.61-2.05-5.54-2.3v-1.74h9.21l25.95,31.24h.19v-15.31c0-5.73-.25-8.59-.44-10.33-.31-2.8-1.8-3.61-6.1-3.86v-1.74h14.69v1.74Z"/><path class="cls-3" d="M154.69,15.97c0-2.43,.19-3.11,.81-3.55,.62-.43,2.24-.75,4.85-.75,4.17,0,7.78,.75,10.58,2.55,4.98,2.92,7.34,8.46,7.34,14.87,0,9.96-5.35,18.67-16.99,18.67-4.54,0-6.6-1.18-6.6-5.91V15.97Zm-10.64-6.41v1.8c4.79,.38,5.29,.62,5.29,5.98v24.96c0,5.29-.5,5.66-5.85,6.04v1.68h14.75c7.65,0,13.82-1.55,18.48-5.16,4.79-3.61,7.66-9.15,7.66-16.62,0-5.85-2.18-10.39-5.23-13.38-3.86-3.67-9.71-5.29-17.61-5.29h-17.49Z"/><path class="cls-2" d="M161.54,9.56c7.9,0,13.75,1.62,17.61,5.29,3.05,2.99,5.23,7.53,5.23,13.38,0,7.47-2.86,13.01-7.65,16.62-4.67,3.61-10.83,5.17-18.48,5.17h-14.75v-1.68c5.35-.37,5.85-.75,5.85-6.04V17.34c0-5.35-.5-5.6-5.29-5.97v-1.8h17.49Zm-6.85,32.3c0,4.73,2.05,5.91,6.6,5.91,11.64,0,16.99-8.71,16.99-18.67,0-6.41-2.37-11.95-7.34-14.87-2.8-1.8-6.41-2.55-10.58-2.55-2.61,0-4.23,.31-4.85,.75-.62,.44-.81,1.12-.81,3.55v25.89Z"/></g></svg>