<svg width="24" height="25" viewBox="0 0 24 25" fill="none" xmlns="http://www.w3.org/2000/svg">
<rect y="0.944824" width="23.2382" height="23.9424" fill="#E0FD6A"/>
<path d="M11.2013 14.383V12.316C11.9033 12.2813 12.4406 12.134 12.8133 11.874C13.1946 11.6053 13.3853 11.211 13.3853 10.691V10.509C13.3853 10.1103 13.2639 9.80267 13.0213 9.586C12.7786 9.36067 12.4536 9.248 12.0463 9.248C11.6129 9.248 11.2663 9.37367 11.0063 9.625C10.7463 9.87633 10.5686 10.197 10.4733 10.587L9.23828 10.093C9.31628 9.82433 9.42895 9.56433 9.57628 9.313C9.73228 9.06167 9.92728 8.84067 10.1613 8.65C10.3953 8.45067 10.6726 8.29467 10.9933 8.182C11.3139 8.06067 11.6823 8 12.0983 8C12.5229 8 12.9086 8.06067 13.2553 8.182C13.6019 8.30333 13.8966 8.47667 14.1393 8.702C14.3819 8.91867 14.5683 9.18733 14.6983 9.508C14.8283 9.82 14.8933 10.1667 14.8933 10.548C14.8933 10.938 14.8239 11.289 14.6853 11.601C14.5553 11.9043 14.3776 12.1643 14.1523 12.381C13.9356 12.5977 13.6886 12.7753 13.4113 12.914C13.1339 13.044 12.8479 13.135 12.5533 13.187V14.383H11.2013ZM11.8903 17.386C11.5609 17.386 11.3183 17.308 11.1623 17.152C11.0149 16.9873 10.9413 16.7793 10.9413 16.528V16.307C10.9413 16.0557 11.0149 15.852 11.1623 15.696C11.3183 15.5313 11.5609 15.449 11.8903 15.449C12.2196 15.449 12.4579 15.5313 12.6053 15.696C12.7613 15.852 12.8393 16.0557 12.8393 16.307V16.528C12.8393 16.7793 12.7613 16.9873 12.6053 17.152C12.4579 17.308 12.2196 17.386 11.8903 17.386Z" fill="#181F1C"/>
<circle cx="11.9713" cy="12.9162" r="8.65445" stroke="#181F1C"/>
</svg>
