<svg width="386" height="167" viewBox="0 0 386 167" fill="none" xmlns="http://www.w3.org/2000/svg">
<g clip-path="url(#clip0_1364_163769)">
<path d="M377.19 65.423L380.138 49.9213L382.276 39.6063L383.062 30.2184L383.229 23.0856L383.17 18.6004L380.188 15.0842L364.344 12.9209L348.224 10.0645L335.287 8.19357L332.681 10.1898L332.013 14.3826L330.351 25.3574L328.588 36.374L329.808 37.9191L330.701 39.5812L329.691 43.774L326.617 62.8589L325.281 64.2871L316.528 64.3205L304.91 64.805L286.176 65.5149H286.159L279.694 66.0244L269.513 76.7904L270.34 79.9475L271.384 81.9103L270.849 92.5594L270.574 106.457L270.248 119.378L270.131 135.857L268.402 137.862L266.523 138.797L269.037 142.122L270.156 142.614L272.269 143.934L273.764 142.322L274.842 140.944L282.609 139.783L304.559 135.765L305.854 136.835L305.444 140.067L305.068 159.127L304.826 164.931L305.912 166.443L308.117 167.27L311.341 166.535L333.992 161.841L351.749 157.949L372.713 152.938L377.257 150.399L379.086 148.06L382.778 139.415L381.032 124.565L379.98 113.557L378.86 106.14L377.616 97.7294L376.513 89.3438L375.294 79.9642L375.202 75.738L377.157 65.4063L377.19 65.423ZM307.616 99.0491H307.574L306.396 119.721L306.255 128.132L306.079 130.395L304.584 131.948L289.091 134.646L282.317 135.715L274.533 136.734L273.639 135.899L273.915 128.783L274.909 108.111L275.284 96.1592L275.426 83.8814L276.83 82.8625L285.19 86.5207L304.885 94.9648L307.232 95.491L307.616 99.0741V99.0491ZM310.948 114.868L311.308 108.738L312.16 95.1736L318.465 86.0781L322.049 85.602L328.496 84.8921L330.159 86.4289L331.871 95.7834L333.859 112.304L334.569 115.52H334.619L330.409 125.826L323.301 128.031L312.343 130.144L311.383 130.111L310.456 129.092L310.932 114.86L310.948 114.868ZM376.112 113.248L377.04 121.976L378.777 135.248L377.992 143.324L374.968 146.757L370.826 148.736L358.899 151.434L337.592 156.379L319.76 159.987L311.374 161.991L309.462 160.438L309.487 159.795H309.537L310.005 139.758L310.364 135.557L310.798 134.939L311.725 134.688L330.752 130.662L336.473 125.141L338.36 115.503L336.256 103.25L333.282 85.8108L334.326 84.416L343.38 83.9148L352.417 83.0546L360.176 82.5451L368.245 81.8351L372.003 85.1677L373.991 98.406L376.121 113.248H376.112ZM372.88 67.4025L371.87 74.1678L370.224 75.0114L360.151 71.9545L340.49 65.3228L331.411 63.4435L330.392 61.8984H330.292L331.537 55.7762L332.439 49.629L334.326 39.932L335.596 39.3223L357.228 44.5425L374.726 48.894L376.046 50.9319L372.872 67.4192L372.88 67.4025Z" fill="#DBF1FF"/>
<path d="M315.083 48.1255L317.396 35.0793L319.192 26.4181L319.743 18.5336L319.936 12.5617L319.91 8.78654L317.422 5.87997L304.15 3.80861L290.577 1.68715L279.736 0L277.606 1.73726L277.08 5.2619L275.569 14.4577L273.94 23.6869L275.084 25.0901L275.869 26.4014L275.201 29.9511L272.378 45.9372L271.309 47.0481L263.984 47.2987L254.212 47.5242L238.485 48.1923V48.042L233.022 48.5682L224.428 57.622L225.188 60.2947L225.898 61.9401L225.798 70.902L225.438 82.5617L225.188 93.4113L224.987 107.251L223.543 108.771L221.914 109.681L224.094 112.479L224.804 112.964L226.808 113.991L228.145 112.672L228.988 111.711L235.469 110.408L253.953 107.368L255.014 108.061L254.788 110.776L254.396 126.787L254.17 131.664L255.014 133.034L256.918 133.485L259.616 132.951L278.609 128.883L293.559 125.81L311.174 121.617L315.058 119.554L316.553 117.524L319.71 110.241L318.215 97.7544L317.28 88.5169L316.269 82.3028L315.15 75.2535L314.532 68.1709L313.429 60.3114L313.254 56.7701L315.058 48.1255H315.083ZM256.317 76.3226H256.442L255.456 93.6786V100.736L255.256 102.632L253.953 103.952L240.949 106.24L235.227 106.883L228.721 108.019L228.011 107.251L228.128 101.271L228.93 83.9064L229.356 73.8754L229.623 63.5604L230.617 62.7837L237.674 65.7654L254.279 72.6894L256.125 73.3325L256.317 76.3143V76.3226ZM259.465 89.6194L259.607 84.4577L260.326 73.0736L265.571 65.3478L268.611 64.9887L274.032 64.4207L275.477 65.732L276.663 73.6249L278.609 87.4478L279.093 90.1539H279.252L275.719 98.8903L269.68 100.661L260.476 102.29L259.658 102.323L258.889 101.555L259.474 89.6194H259.465ZM313.83 88.2663L314.774 95.5745L316.227 106.716L315.668 113.532L313.07 116.422L309.57 118.067L299.556 120.356L281.616 124.256L266.707 127.555L259.641 129.125L257.97 127.864L257.954 127.321H258.104L258.647 110.5L258.881 106.975L259.148 106.449L259.916 106.057L275.936 102.916L280.797 98.2806L282.167 90.1539L280.588 79.8389L278.024 65.2058L278.926 64.1785L286.518 63.6523L294.102 62.9591L300.617 62.4579L307.416 62.0403L310.723 64.6462L312.26 75.7797L313.83 88.2663V88.2663ZM311.116 49.7208L310.431 55.4337L309.069 56.1269L300.575 53.663L284.088 48.0587L276.479 46.4551L275.577 45.1354H275.752L276.521 39.9905L277.389 34.8455L278.868 26.677L280.029 26.0756L298.17 30.5691L312.811 34.3611L313.88 35.9062L311.124 49.7375L311.116 49.7208Z" fill="#DBF1FF"/>
<path d="M216.243 67.5782L216.543 66.2167L216.326 64.8052L215.7 63.9199L215.032 63.0596L214.589 62.049L213.937 61.172L212.893 60.3034L211.582 59.8941L210.246 60.3201L209.469 61.4393L209.152 62.7088L209.477 64.0118L210.154 64.8637L210.68 65.8158L211.231 66.7513L211.874 67.6283L212.893 68.6138L214.263 68.9062L214.731 69.9836L214.647 71.2114L213.937 72.3306L212.701 72.815L211.499 73.1157L210.287 73.3746L209.118 73.8089L207.915 74.1096L206.679 74.2599L205.485 74.6024L204.282 74.8613L203.063 75.0534L201.877 75.3875L200.699 75.7717L199.488 76.0223L198.269 76.2645L197.091 76.6654L195.88 76.9076L194.669 77.1498L193.483 77.4922L192.263 77.7261L191.111 78.2189L189.866 78.3609L188.689 78.7701L187.453 78.9455L186.283 79.3631L185.039 79.4801L183.869 79.9311L182.658 80.19L181.431 80.3988L180.245 80.758L179.033 81.0169L177.831 81.3259L176.628 81.635L175.434 81.9857L174.198 82.1361L172.986 82.395L171.817 82.8377L170.614 83.1551L169.387 83.3806L168.184 83.6896L166.948 83.8483L165.762 84.2492L164.576 84.6501L163.34 84.7921L162.212 84.3995L161.101 83.8733L160.166 83.0632L159.097 82.4702L158.178 81.6684L157.192 80.9417L156.315 80.0898L155.514 79.171L154.829 78.1604L153.935 77.3085L153.3 76.2645L152.682 75.2121L152.031 74.1764L151.621 73.0155L151.062 71.9297L150.678 70.7687L150.285 69.6077L150.101 68.4134L150.836 67.4278L151.563 66.4339L152.44 65.5569L153.1 64.5045L153.935 63.5941L154.77 62.6838L155.489 61.6898L156.215 60.6959L157.017 59.7605L157.76 58.7749L158.612 57.8812L159.439 56.9625L160.107 55.9185L160.876 54.9496L161.711 54.0392L162.371 52.9868L163.273 52.1349L164.058 51.1827L164.684 50.1053L165.578 49.2367L166.33 48.2595L167.048 47.2572L167.816 46.2883L168.568 45.3111L169.378 44.3757L170.197 43.4486L170.932 42.4547L171.734 41.5109L172.552 40.5838L173.321 39.6149L173.989 38.5709L174.832 37.6688L175.592 36.6916L176.411 35.7645L177.096 34.7289L178.031 33.8853L178.649 32.7995L179.593 31.9643L180.286 30.9286L181.046 29.9514L181.915 29.0577L182.667 28.0638L183.427 27.0782L184.462 26.1929L185.815 25.7753L187.11 26.2681L188.162 27.0782L187.929 28.473L188.238 29.8679L188.881 30.7448L189.49 31.6385L190.033 32.5823L190.727 33.4259L191.654 34.3697L192.965 34.804L194.201 34.211L195.212 33.3006L195.395 31.9559L195.028 30.6864L194.276 29.8261L193.575 28.9241L192.982 27.9301L192.322 26.9947L191.244 26.0676L189.85 25.817L189.064 24.7647L187.962 24.0631L186.751 23.5202L185.423 23.4951L184.178 23.587L183.026 24.0631L181.898 24.5809L181.038 25.4662L180.178 26.3516L179.376 27.287L178.699 28.3227L177.964 29.3083L177.096 30.1852L176.419 31.2209L175.559 32.1063L174.907 33.1586L174.081 34.069L173.287 35.0045L172.577 36.0068L171.684 36.8587L170.999 37.886L170.247 38.8549L169.52 39.8404L168.685 40.7425L167.825 41.6278L167.098 42.6134L166.405 43.6323L165.586 44.5511L164.793 45.4949L164.083 46.4971L163.331 47.4744L162.546 48.4182L161.694 49.3118L161.034 50.3559L160.249 51.2997L159.381 52.1767L158.612 53.1372L157.969 54.1979L157.159 55.125L156.265 55.9769L155.58 57.0042L154.804 57.9564L154.102 58.9754L153.317 59.9275L152.565 60.9047L151.78 61.8569L150.895 62.7255L150.252 63.7863L149.416 64.6883L148.665 65.6655L147.913 66.6427L147.028 67.503L146.251 68.4635L145.6 69.5242L144.781 70.4513L143.996 71.4035L143.211 72.3556L142.384 73.2744L141.565 74.2098L140.964 75.3207L140.12 76.1642L139.519 77.1916L139.001 78.269L138.717 79.43L138.625 80.616L138.676 81.7936L138.709 82.9713L139.001 84.1156L139.369 85.3016L138.124 85.7192L137.055 86.3289L136.003 86.972L134.925 87.5567L133.848 88.133L132.712 88.6091L131.676 89.2772L130.482 89.6447L129.438 90.2879L128.344 90.8391L127.283 91.4655L126.231 92.0919L125.145 92.6599L124.051 93.2028L123.065 93.9378L121.946 94.4473L120.919 95.1154L119.808 95.65L118.772 96.3098L117.711 96.9279L116.684 97.6044L115.615 98.2141L114.579 98.8823L113.602 99.634L112.558 100.285L111.472 100.87L110.487 101.613L109.535 102.39L108.507 103.058L107.522 103.802L106.486 104.47L105.576 105.305L104.623 106.082L103.646 106.834L102.702 107.635L101.926 108.596L101.107 109.506L100.322 110.442L99.5704 111.402L98.9523 112.438L98.3927 113.507L97.8665 114.593L97.5742 115.77L97.0814 116.881L97.023 118.101L96.8392 119.287L96.6972 120.489L96.8225 121.692L97.0981 122.87L97.3654 124.048L97.9 125.125L98.2842 126.269L99.0025 127.246L99.6456 128.257L100.381 129.209L101.199 130.095L102.235 130.729L103.195 131.448L104.289 131.949L105.35 132.508L106.461 132.976L107.614 133.327L108.816 133.46L109.994 133.711L111.197 133.82L112.399 133.937L113.636 133.786L114.872 133.736L116.083 133.452L117.327 133.352L118.497 132.934L119.658 132.5L120.852 132.183L122.013 131.757L123.115 131.189L124.26 130.704L125.412 130.228L126.423 129.493L127.525 128.925L128.611 128.324L129.697 127.723L130.699 126.988L131.66 126.194L132.804 125.66L133.723 124.808L134.733 124.089L135.677 123.287L136.688 122.569L137.615 121.751L138.634 121.041L139.586 120.239L140.505 119.404L141.382 118.518L142.426 117.825L143.261 116.906L144.171 116.063L145.057 115.194L145.883 114.267L146.844 113.465L147.679 112.538L148.623 111.745L149.467 110.851L150.335 109.991L151.329 109.256L152.189 108.37L153.167 107.619L154.127 106.859L155.004 105.99L155.998 105.272L156.992 104.562L157.886 103.71L158.963 103.109L160.024 102.482L160.934 101.63L162.078 101.137L163.139 100.528L164.192 99.8929L165.244 99.2581L166.33 98.6902L167.357 97.997L168.485 97.5042L169.604 96.9947L170.756 96.5687L171.876 96.0592L173.037 95.6416L174.231 95.3242L175.45 95.1321L176.628 94.8064L177.789 94.3554L179.033 94.2969L180.211 93.8877L181.439 93.7457L182.667 93.6622L183.911 93.587H185.164L186.4 93.7791L187.62 94.0297L188.814 94.3721L190.033 94.6227L191.194 95.0737L192.322 95.6166L193.332 96.3516L194.452 96.9028L195.387 97.713L196.247 98.59L197.099 99.4001L197.843 100.319L198.619 101.213L199.338 102.148L199.872 103.209L200.407 104.253L201.092 105.23L201.367 106.391L201.743 107.502L202.027 108.638L202.386 109.774L202.37 110.96L202.345 112.221L202.061 113.457L202.002 114.718L201.651 115.929L201.367 117.157L201.017 118.376L200.348 119.462L199.922 120.657L199.204 121.701L198.553 122.778L197.926 123.864L197.149 124.849L196.473 125.91L195.721 126.921L194.869 127.848L194.051 128.8L193.257 129.786L192.305 130.612L191.253 129.861L190.067 129.335L188.789 129.084L187.486 129.059L186.225 129.101L184.972 129.351L183.911 130.061L182.909 130.796L181.89 131.548L181.264 132.65L180.587 133.736L180.303 134.981L180.178 136.25L180.395 137.503L180.662 138.739L181.205 139.883L181.957 140.894L182.859 141.763L183.828 142.573L185.005 143.032L186.2 143.492L187.478 143.475L188.714 143.291L189.95 143.074L191.094 142.539L192.071 141.746L192.99 140.894L193.692 139.858L194.168 138.706L194.56 137.52L194.702 136.267L194.627 135.156L194.218 134.12L193.976 133.085L194.694 132.166L195.454 131.222L196.323 130.37L197.007 129.368L197.834 128.483L198.686 127.614L199.246 126.528L199.939 125.543L200.674 124.582L201.259 123.521L201.818 122.452L202.37 121.383L203.063 120.373L203.422 119.212L203.815 118.067L204.291 116.948L204.625 115.779L204.717 114.568L204.9 113.382L205.009 112.187L205.059 110.985L204.942 109.765L204.808 108.546L204.692 107.31L204.324 106.132L203.94 104.954L203.33 103.869L202.887 102.708L202.152 101.705L201.476 100.678L200.816 99.634L199.998 98.7069L199.146 97.8216L198.319 96.9028L197.367 96.1344L196.398 95.3911L195.32 94.8064L194.326 94.0965L193.324 93.3782L192.163 92.9773L190.994 92.6181L189.883 92.1086L188.722 91.7077L187.503 91.5574L186.275 91.5407L185.064 91.4405L183.844 91.3569H182.617L181.414 91.4572H180.194L178.992 91.6159L177.822 91.9499L176.653 92.2673L175.459 92.4845L174.264 92.71L173.087 93.0107L171.951 93.445L170.848 93.9628L169.712 94.3721L168.568 94.773L167.491 95.3242L166.422 95.8922L165.369 96.4852L164.2 96.8694L163.139 97.4624L162.095 98.0805L161.101 98.7737L160.082 99.4335L159.072 100.11L158.128 100.87L157.092 101.505L156.165 102.29L155.213 103.042L154.186 103.702L153.292 104.52L152.331 105.255L151.438 106.074L150.561 106.917L149.542 107.602L148.698 108.471L147.771 109.256L146.944 110.141L146.142 111.051L145.299 111.92L144.297 112.63L143.436 113.482L142.534 114.292L141.799 115.278L140.914 116.105L139.895 116.781L139.018 117.616L138.074 118.376L137.231 119.245L136.27 119.98L135.36 120.782L134.374 121.492L133.455 122.277L132.436 122.945L131.476 123.688L130.449 124.323L129.488 125.058L128.503 125.76L127.509 126.453L126.465 127.071L125.404 127.664L124.276 128.132L123.216 128.716L122.121 129.243L121.002 129.694L119.9 130.203L118.722 130.512L117.536 130.746L116.375 131.088L115.181 131.272L113.986 131.431L112.784 131.464L111.531 131.506L110.295 131.289L109.059 131.072L107.889 130.621L106.703 130.237L105.584 129.694L104.473 129.117L103.513 128.316L102.661 127.405L101.759 126.537L101.182 125.426L100.648 124.273L100.305 123.054L100.03 121.818L99.8293 120.548L100.038 119.278L100.138 118.001L100.665 116.823L101.04 115.595L101.567 114.417L102.427 113.44L102.92 112.288L103.83 111.427L104.573 110.442L105.475 109.598L106.227 108.596L107.154 107.777L108.131 107.017L109.05 106.19L110.061 105.472L111.046 104.72L112.057 104.011L112.992 103.192L114.087 102.599L115.139 101.956L116.074 101.129L117.177 100.561L118.238 99.9347L119.265 99.2498L120.334 98.6234L121.361 97.9385L122.339 97.1617L123.399 96.5186L124.485 95.9173L125.629 95.4245L126.648 94.7145L127.717 94.0965L128.887 93.6538L129.872 92.877L131.05 92.4511L132.161 91.8998L133.171 91.1648L134.291 90.6386L135.36 90.0122L136.496 89.5111L137.598 88.9599L138.667 88.3418L139.828 87.9075L140.931 87.2059L141.824 88.133L142.718 88.9933L143.67 89.8201L144.865 90.221L146.042 90.6219L147.27 90.8391L148.514 91.0396L149.759 90.9727L150.953 90.6219L152.131 90.2962L153.317 89.9705L154.503 89.6447L155.714 89.4109L156.892 89.0601L158.111 88.8596L159.272 88.442L160.458 88.1246L161.661 87.8824L162.864 87.6235L164.091 87.4732L165.269 87.1057L166.455 86.7883L167.666 86.5544L168.844 86.1786L170.046 85.9196L171.266 85.7192L172.46 85.4352L173.621 85.0343L174.824 84.7754L176.052 84.6418L177.221 84.2408L178.432 84.007L179.601 83.6061L180.796 83.3388L182.007 83.1133L183.226 82.9295L184.396 82.537L185.582 82.2029L186.818 82.0693L188.004 81.7519L189.19 81.4094L190.401 81.2006L191.604 80.925L192.756 80.4322L193.976 80.2568L195.178 79.9812L196.356 79.597L197.575 79.4049L198.795 79.1877L199.964 78.7701L201.159 78.4444L202.353 78.1437L203.589 78.0101L204.783 77.6844L205.969 77.3419L207.155 76.9995L208.366 76.7573L209.586 76.5735L210.755 76.1475L211.958 75.8636L213.202 75.7299L214.363 75.2037L215.491 74.594L216.234 73.55L216.735 72.4057L217.22 71.2197V69.9585L217.111 68.6807L216.385 67.6116L216.309 67.5698L216.243 67.5782ZM187.419 139.975L186.15 139.766L185.064 139.107L184.153 138.23L183.502 137.127L183.485 135.858L183.619 134.63L184.137 133.486L185.097 132.684L186.191 132.124L187.402 131.74L188.664 131.957L189.749 132.617L190.702 133.452L191.194 134.613L191.336 135.849L191.153 137.052L190.526 138.113L189.632 138.94L188.639 139.7L187.402 139.959L187.419 139.975ZM150.11 88.1831L148.84 88.3501L147.579 88.2165L146.343 87.9743L145.14 87.5483L144.188 86.6964L143.236 85.8862L142.434 84.909L141.975 83.7648L141.59 82.6038L141.215 81.4178L141.265 80.1733L141.632 78.9873L142.075 77.8263L142.868 76.8742L143.712 75.9053L144.48 74.8697L145.299 73.8841L146.142 72.9152L146.811 71.796L147.704 70.8856L148.097 71.9464L148.456 73.0823L148.924 74.1764L149.4 75.2706L150.076 76.2645L150.678 77.2918L151.187 78.3776L151.905 79.3297L152.599 80.2986L153.292 81.2842L154.135 82.1361L155.054 82.9045L155.931 83.7147L156.842 84.4914L157.894 85.0677L158.896 85.6691L157.627 85.9531L156.382 86.3456L155.104 86.6296L153.902 87.1725L152.599 87.3646L151.371 87.824L150.101 88.1747L150.11 88.1831Z" fill="#DBF1FF"/>
<path d="M123.416 55.826L123.04 56.5359L122.706 57.2709L122.322 57.9725L121.971 58.6991L121.587 59.4091L121.228 60.1274L120.86 60.8457L120.509 61.5723L120.134 62.2822L119.774 63.0005L119.432 63.7355L119.065 64.4455L118.68 65.1471L118.33 65.8737L117.987 66.6087L117.611 67.3186L117.244 68.0453L116.86 68.7552L116.517 69.4819L116.15 70.2002L115.774 70.9184L115.398 71.6367L115.064 72.3717L114.696 73.1067L114.254 73.8083L113.711 74.4431L113.076 74.986L112.358 75.4119L111.606 75.7627L110.779 75.9131L109.961 76.03L109.125 75.9548L108.324 75.7293L107.547 75.4286L107.538 75.4454L106.837 75.0027L106.177 74.4848L105.668 73.825L105.2 73.1318L104.882 72.355L104.699 71.5449L104.649 70.7096L104.674 69.8744L104.874 69.0643L105.175 68.2875L105.551 67.5776L105.926 66.8676L106.294 66.1493L106.628 65.4227L107.004 64.7127L107.371 64.0028L107.756 63.2929L108.09 62.5662L108.466 61.8563L108.808 61.1296L109.209 60.428L109.543 59.7014L109.894 58.9748L110.278 58.2648L110.645 57.5549L110.988 56.8282L111.364 56.1183L111.748 55.4167L112.074 54.6734L112.441 53.9634L112.817 53.2535L113.193 52.5352L113.544 51.8086L113.878 51.0819L114.287 50.3887L114.621 49.6453L114.989 48.927L115.348 48.2004L115.724 47.4821L116.116 46.7972L116.667 46.2376L117.302 45.7699L118.012 45.4358L118.772 45.2354L119.557 45.2604L120.334 45.3606L121.069 45.6446L121.729 46.0622L122.314 46.5968L122.739 47.2566L123.065 47.9749L123.199 48.7516L123.216 49.5367L123.074 50.3135L122.739 51.0234L122.397 51.7584L122.013 52.4684L121.637 53.1867L121.303 53.9217L120.927 54.64L120.551 55.3582L120.225 56.0932L119.825 56.8032L119.449 57.5131L119.123 58.2648L118.714 58.9581L118.346 59.6847L117.987 60.403L117.628 61.1296L117.26 61.8479L116.935 62.5913L116.567 63.3096L116.2 64.0362L115.824 64.7461L115.473 65.4811L115.106 66.2078L114.73 66.9261L114.329 67.6277L113.961 68.3543L113.636 69.0977L113.226 69.8076L112.909 70.5593L112.533 71.2859L111.999 71.9291L111.297 72.3801L110.47 72.5638L109.643 72.4469L108.9 72.0543L108.34 71.4446L107.973 70.7013L107.906 69.8661L108.123 69.0559L108.524 68.3543L108.85 67.6193L109.234 66.9094L109.61 66.1994L109.961 65.4728L110.336 64.7545L110.679 64.0279L111.03 63.3096L111.422 62.5996L111.79 61.8897L112.107 61.1463L112.516 60.4531L112.876 59.7265L113.235 59.0082L113.56 58.2732L113.945 57.5549L114.304 56.8366L114.705 56.135L115.039 55.4L115.415 54.6817L115.765 53.9551L116.116 53.2201L116.525 52.5185" stroke="#DBF1FF" stroke-width="1.23" stroke-miterlimit="10"/>
<path d="M97.9584 65.632L98.234 66.3921L98.5013 67.1521L98.7352 67.9289L99.0024 68.6889L99.3031 69.4323L99.5537 70.2007L99.8209 70.9607L100.08 71.7208L100.33 72.4892L100.581 73.2492L100.907 73.9926L101.132 74.761L101.391 75.5211L101.642 76.2895L101.917 77.0495L102.201 77.8012L102.485 78.5613L102.736 79.3297L103.011 80.0814L103.287 80.8331L103.504 81.6182L103.788 82.3782L104.081 83.1383L104.356 83.9067V83.8983L104.548 84.7169L104.657 85.5437L104.548 86.3706L104.398 87.1891L104.089 87.9575L103.68 88.6842L103.153 89.3356L102.527 89.8869L101.825 90.3212L101.074 90.697L101.065 90.672L100.264 90.8975L99.4367 90.956L98.6015 90.9142L97.7913 90.7305L97.0146 90.4381L96.2963 90.0122L95.6532 89.486L95.0769 88.8846L94.6259 88.183L94.3168 87.4063L94.0412 86.6546L93.7572 85.9029L93.5067 85.1428L93.2394 84.3828L92.9972 83.6227L92.7048 82.871L92.4459 82.111L92.1954 81.3426L91.9448 80.5825L91.6441 79.8391L91.3685 79.0791L91.1096 78.319L90.8506 77.559L90.5917 76.7989L90.3245 76.0389L90.0739 75.2788L89.7816 74.5271L89.5644 73.7587L89.2554 73.0154L88.9965 72.247L88.7626 71.4786L88.487 70.7185L88.203 69.9668L87.9524 69.2068L87.6601 68.4551L87.4262 67.6783L87.1256 66.9266L86.875 66.1582L86.6161 65.3898L86.424 64.6297L86.3321 63.8446L86.4574 63.0679L86.6912 62.3078L87.1089 61.6397L87.6517 61.0634L88.2865 60.604L88.9881 60.2448L89.7565 60.0778L90.5416 60.0527L91.31 60.2031L92.0534 60.4536L92.7132 60.888L93.2979 61.4141L93.7071 62.0823L94.0496 62.7923L94.3252 63.5523L94.5674 64.3207L94.8263 65.0891L95.1186 65.8408L95.3692 66.6092L95.6114 67.386L95.9204 68.1293L96.1794 68.8977L96.4383 69.6661L96.6889 70.4345L96.9728 71.1946L97.2652 71.9463L97.4823 72.7314L97.783 73.4831L98.0419 74.2515L98.3259 75.0032L98.5765 75.7716L98.8521 76.5317L99.0943 77.3084L99.3616 78.0685L99.6372 78.8369L99.9295 79.5969L100.147 80.3737L100.439 81.1254L100.706 81.8938L100.982 82.6622L101.274 83.4306L101.525 84.2074L101.642 85.0342L101.441 85.8444L101.015 86.5627L100.372 87.0889L99.5787 87.3394L98.7435 87.3562L97.9667 87.0555L97.332 86.5209L96.881 85.8277L96.622 85.0593L96.3715 84.2992L96.0624 83.5559L95.8286 82.7875L95.5864 82.0191L95.269 81.2757L95.0518 80.499L94.7929 79.7306L94.5256 78.9705L94.25 78.2188L93.9827 77.4588L93.6821 76.7154L93.4231 75.947L93.1559 75.187L92.8969 74.4269L92.613 73.6669L92.3457 72.9068L92.0951 72.1384L91.8696 71.37L91.6024 70.6016L91.2933 69.8499L91.0678 69.0731L90.7504 68.3214" stroke="#DBF1FF" stroke-width="1.23" stroke-miterlimit="10"/>
<path d="M5.7248 79.8975L8.68984 79.5384L9.10745 82.4617L6.12571 82.921L6.53497 86.003L9.58353 85.5186L10.0346 88.5337L6.99434 88.943L7.43701 91.9665L10.4856 91.4821L10.8781 94.5306L7.88803 94.9816L8.30564 97.9801L11.3124 97.5541L11.7635 100.578L8.72325 100.987L9.13251 104.061L12.2145 103.526L12.6739 106.625L9.56683 106.984L10.0513 109.999L12.9996 109.648L13.4423 112.58L10.4271 113.006L10.9115 116.029L13.9016 115.628L14.3359 118.618L11.3458 119.069L11.7885 122.043L14.7619 121.667L15.2296 124.657L12.156 125.025L12.4985 127.079L12.8325 129.084L13.0581 131.105L15.2714 130.788L17.468 130.412L19.6814 130.128L21.8864 129.802L24.0913 129.451L26.3047 129.184L28.518 128.892L30.7314 128.599L32.928 128.224L35.1497 127.99L37.338 127.597L39.5346 127.238L41.7479 126.979L43.9446 126.586L46.1579 126.328L48.3796 126.102L50.5679 125.668L52.7729 125.35L54.9862 125.091L57.1912 124.741L59.3962 124.398L61.6012 124.081L63.8312 123.889L66.0279 123.496L68.2328 123.162L70.4545 122.92L72.6679 122.619L74.8645 122.202L77.0779 121.884L79.2828 121.567L79.1492 120.732L77.3284 119.412L75.541 118.05L73.7954 116.631L71.983 115.294L70.1956 113.924L68.3498 112.638L66.5958 111.227L64.7416 109.949L62.9375 108.604L61.1669 107.218L59.3461 105.89L57.5337 104.553L55.763 103.158L53.9505 101.822L52.1465 100.477L50.2923 99.1995L48.5216 97.8131L46.776 96.3848L44.9218 95.0986L43.0843 93.7956L41.3303 92.3841L39.568 90.9893L37.7389 89.6863L35.8763 88.4084L34.0723 87.0554L32.2932 85.6773L30.5059 84.3075L28.6934 82.9628L26.9395 81.5513L25.1437 80.1899L23.2895 78.9036L21.4604 77.584L19.6814 76.1975L17.9107 74.7943L16.1233 73.4162L14.3025 72.0965L12.4567 70.802L10.661 69.4322L8.88194 68.0374L7.05281 66.7177L5.22367 65.3897L3.46135 64.0617L3.68686 66.3001L4.0126 68.5719L4.33833 70.8437L4.70583 73.1155L5.03992 75.3873L5.37401 77.6675L5.73315 79.9226L5.7248 79.8975ZM19.6229 91.3067L21.3518 92.6848L23.0891 93.9961L24.8597 95.274L26.5803 96.6187L28.3677 97.8799L30.13 99.1661L31.8589 100.502L33.6129 101.797L35.4003 103.058L37.1125 104.42L38.8748 105.706L40.612 107.034L42.3577 108.345L44.1283 109.631L45.8572 110.976L47.5778 112.329L49.4236 113.607L47.2187 113.975L45.0387 114.167L42.8839 114.551L40.7039 114.76L38.5407 115.094L36.3775 115.394L34.2226 115.77L32.051 116.046L29.8878 116.363L27.7246 116.697L25.553 117.023L23.3981 117.274L23.0473 115.136L22.8218 112.956L22.4293 110.801L22.0701 108.646L21.8279 106.466L21.5189 104.303L21.1514 102.148L20.8674 99.9763L20.5416 97.8131L20.1992 95.6498L19.9319 93.4699L19.6229 91.2733V91.3067Z" fill="#DBF1FF"/>
</g>
<defs>
<clipPath id="clip0_1364_163769">
<rect width="386" height="167" fill="white"/>
</clipPath>
</defs>
</svg>
