<svg width="386" height="163" viewBox="0 0 386 163" fill="none" xmlns="http://www.w3.org/2000/svg">
<g clip-path="url(#clip0_1364_164448)">
<path d="M372.93 -2.76428L372.946 -0.80852L372.642 1.14724L372.73 3.10301L372.571 5.05079L372.818 7.01454L372.882 8.9703L372.714 10.9261L372.786 12.8818L372.451 14.8216L372.235 16.7694L372.531 18.7252L372.259 20.673L372.195 22.6207L372.594 24.5765L372.052 26.5323L372.107 28.488H373.281L372.714 26.5323L372.834 24.5765L373.201 22.6287L373.185 20.665L372.786 18.7012L373.105 16.7534L372.97 14.7897L373.624 12.8659L373.377 10.9021L373.64 8.95434L373.72 7.00656L373.6 5.05079L373.816 3.10301L373.92 1.14724L373.401 -0.80852L373.409 -2.76428H372.93Z" fill="#DBF1FF"/>
<path d="M332.05 14.3991L333.312 15.9158L334.94 17.0414L336.106 18.6539L337.734 19.7794L339.115 21.1604L340.368 22.6931L341.757 24.0661L343.194 25.3913L344.695 26.6366L346.283 27.7941L347.457 29.3906L349.125 30.4763L350.538 31.8174L351.664 33.4618L353.133 34.755L354.625 36.0322L355.168 35.4894L353.851 34.0366L352.438 32.6875L350.953 31.4102L349.509 30.0851L348.128 28.6961L346.946 27.1076L345.557 25.7345L343.976 24.5691L342.516 23.2759L341.167 21.8549L339.857 20.4021L338.245 19.2685L336.872 17.8795L335.467 16.5145L334.23 14.9898L332.793 13.6647L332.05 14.3991Z" fill="#DBF1FF"/>
<path d="M314.193 -3.88119L315.47 -2.52413L316.939 -1.35067L318.2 0.0303378L319.573 1.2916L320.739 2.76042L322.128 3.99774L323.429 5.33884L324.77 6.64002L325.664 5.74596L324.251 4.5246L322.982 3.15158L321.513 1.97812L320.268 0.581144L318.807 -0.57635L317.474 -1.87753L316.229 -3.27451L314.928 -4.6156L314.193 -3.88119Z" fill="#DBF1FF"/>
<path d="M315.989 54.7518L317.945 54.8875L319.901 54.9354L321.856 54.7118L323.812 54.5921L325.768 54.6799L327.724 54.664L329.679 54.9673L331.627 54.6799L333.575 54.7198L335.531 54.8715L337.478 54.2967L339.434 54.2648L341.382 54.5362L343.338 54.632L345.286 54.4883L347.249 54.6719V53.0275L345.294 53.1153L343.338 53.3628L341.382 53.0594L339.426 52.9078L337.462 53.4745L335.515 53.2191L333.559 53.4186L331.611 52.8199L329.655 53.0993L327.708 53.0115L325.76 53.0674L323.804 52.8199L321.856 53.1632L319.901 52.8998L317.945 53.3707L315.989 52.9078V54.7518Z" fill="#DBF1FF"/>
<path d="M373.409 110.688L373.265 108.732L373.417 106.776L373.161 104.82L373.369 102.865L373.153 100.909L373.552 98.953L373.225 97.0052L373.193 95.0494L373.265 93.1016L372.882 91.1539L372.898 89.1981L372.858 87.2503L373.217 85.2945L372.986 83.3468L373.393 81.391L372.93 79.4352H372.882L372.515 81.391L372.459 83.3468L372.618 85.2945L372.491 87.2583L372.443 89.2141L372.674 91.1618L372.794 93.1176L372.714 95.0654L372.722 97.0212L372.419 98.9769L372.69 100.925L372.642 102.872L372.475 104.82L373.034 106.776L373.057 108.732L372.778 110.688H373.409Z" fill="#DBF1FF"/>
<path d="M372.962 136.247L372.986 134.379L372.97 132.512L373.01 130.644L373.265 128.784L373.329 126.924L373.121 125.056L373.369 123.196L373.265 121.328H372.427L372.395 123.188L372.451 125.056L372.355 126.924L372.443 128.792L372.299 130.652L372.371 132.52L372.155 134.379L372.307 136.247H372.962Z" fill="#DBF1FF"/>
<path d="M362.042 -1.86026L362.592 0.111466L362.96 2.11513L363.087 4.1587L363.702 6.11447L363.981 8.12611L364.452 10.1058L364.564 12.1494L365.251 14.0892V16.1567L367.27 15.8135L366.68 13.8417L366.408 11.8221L365.809 9.86634L365.498 7.8547L365.091 5.867L364.812 3.84738L364.261 1.88363L364.101 -0.151962L363.478 -2.10773L362.042 -1.86026Z" fill="#DBF1FF"/>
<path d="M326.127 21.4247L327.755 22.654L329.464 23.7636L331.052 25.0408L332.681 26.2542L334.229 27.5873L335.978 28.641L337.694 29.7187L339.354 30.8922L340.911 32.2173L341.446 31.4669L339.849 30.1897L338.141 29.0721L336.6 27.731L334.86 26.6533L333.264 25.4001L331.731 24.059L329.991 23.0052L328.506 21.5923L326.75 20.5466L326.127 21.4247Z" fill="#DBF1FF"/>
<path d="M309.579 9.71425L311.327 11.0314L313.06 12.3645L314.776 13.7056L316.564 14.9589L317.282 13.9371L315.438 12.7636L313.658 11.5024L311.83 10.305L310.082 9.00378L309.579 9.71425Z" fill="#DBF1FF"/>
<path d="M316.755 63.861L318.759 63.4299L320.771 63.1426L322.79 62.8312L324.834 62.8153L326.838 62.4161L328.873 62.3283L330.869 61.9372L332.888 61.6737L334.876 61.2427L334.645 59.8776L332.641 60.2608L330.669 60.8036L328.634 60.9872L326.614 61.2347L324.594 61.4263L322.591 61.7695L320.563 61.9691L318.591 62.5119L316.572 62.7674L316.755 63.861Z" fill="#DBF1FF"/>
<path d="M340.488 100.772L341.877 99.2558L342.931 97.4996L344.104 95.8472L345.31 94.2027L346.395 92.4864L347.537 90.8021L348.742 89.1736L350.059 87.617L351.265 85.9725L349.828 84.9587L348.766 86.699L347.417 88.2476L346.348 89.9879L345.222 91.6802L344.152 93.4045L342.891 95.009L341.909 96.7891L340.656 98.3936L339.578 100.126L340.488 100.772Z" fill="#DBF1FF"/>
<path d="M328.721 117.281L329.959 115.468L331.212 113.68L332.306 111.796L333.591 110.024L332.681 109.386L331.539 111.254L330.214 112.994L329.073 114.846L327.819 116.642L328.721 117.281Z" fill="#DBF1FF"/>
<path d="M382.709 109.905L382.389 107.893L381.934 105.898L381.751 103.87L381.384 101.866L380.753 99.9186L380.497 97.899L380.234 95.8794L379.979 93.8677L379.348 91.912L378.749 92.0158L379.188 94.0035L379.436 96.0311L379.811 98.0267L380.003 100.054L380.633 102.01L380.873 104.03L381.056 106.065L381.679 108.013L381.727 110.073L382.709 109.905Z" fill="#DBF1FF"/>
<path d="M386.037 129.902L385.71 127.738L385.606 125.551L385.327 123.388L384.984 121.225L383.467 121.488L383.946 123.619L384.401 125.759L384.912 127.874L385.223 130.037L386.037 129.902Z" fill="#DBF1FF"/>
<path d="M383.802 6.4574L383.299 8.43711L382.908 10.4408L382.262 12.3806L381.775 14.3683L382.796 14.6157L383.299 12.636L383.778 10.6483L384.249 8.66861L384.624 6.65697L383.802 6.4574Z" fill="#DBF1FF"/>
<path d="M388.145 -13.0599L387.69 -11.1361L387.362 -9.18832L386.812 -7.29642L386.428 -5.3646L385.902 -3.46472L385.375 -1.57281L385.119 0.398916L386.428 0.718223L386.78 -1.22956L387.346 -3.12146L387.857 -5.02933L388.169 -6.96913L388.887 -8.82112L389.358 -10.737L389.653 -12.6927L388.145 -13.0599Z" fill="#DBF1FF"/>
<path d="M346.818 12.6192L347.792 14.4233L349.021 16.0597L350.139 17.7601L351.209 19.5083L352.159 18.9255L351.161 17.1374L350.059 15.4211L348.902 13.7448L347.872 11.9726L346.818 12.6192Z" fill="#DBF1FF"/>
<path d="M336.385 -4.43918L337.335 -2.69895L338.421 -1.05451L339.387 0.669757L340.313 2.402L341.358 4.07039L342.388 5.75474L343.402 7.44708L344.424 6.82443L343.554 5.04428L342.372 3.45572L341.502 1.67558L340.329 0.087019L339.323 -1.60532L338.325 -3.29765L337.231 -4.95007L336.385 -4.43918Z" fill="#DBF1FF"/>
<path d="M325.161 43.0653L327.141 43.5762L329.145 43.9753L331.148 44.3665L333.112 44.9332L333.431 43.6081L331.404 43.3048L329.408 42.8657L327.396 42.5384L325.417 42.0275L325.161 43.0653Z" fill="#DBF1FF"/>
<path d="M305.803 38.0925L307.695 38.6433L309.627 39.0425L311.535 39.5613L313.443 40.0243L315.367 40.4634L317.322 40.7508L319.23 41.2537L319.51 40.0962L317.586 39.6412L315.622 39.3857L313.706 38.9147L311.774 38.5715L309.835 38.2123L307.951 37.6136L306.043 37.1027L305.803 38.0925Z" fill="#DBF1FF"/>
<path d="M331.38 79.874L333.104 78.7723L334.812 77.6548L336.584 76.641L338.285 75.5074L337.766 74.6533L336.026 75.7389L334.214 76.6729L332.441 77.6787L330.653 78.6845L331.38 79.874Z" fill="#DBF1FF"/>
<path d="M314.281 90.2196L315.901 89.094L317.673 88.2159L319.286 87.0584L321.002 86.1005L322.702 85.1106L324.339 84.017L326.031 82.9952L325.44 82.0293L323.756 83.0591L322.088 84.1128L320.435 85.1905L318.775 86.2442L317.019 87.1462L315.398 88.2638L313.698 89.2696L314.281 90.2196Z" fill="#DBF1FF"/>
<path d="M361.898 101.532L362.337 99.5363L362.808 97.5486L363.127 95.5289L363.598 93.5412L362.464 93.2698L361.969 95.2495L361.666 97.2772L361.171 99.2569L360.812 101.269L361.898 101.532Z" fill="#DBF1FF"/>
<path d="M357.068 120.938L357.539 119.014L357.811 117.05L358.242 115.127L358.705 113.219L359.152 111.303L359.71 109.411L360.086 107.471L358.92 107.184L358.497 109.116L358.066 111.039L357.675 112.971L357.204 114.879L356.956 116.843L356.501 118.767L355.887 120.651L357.068 120.938Z" fill="#DBF1FF"/>
<path d="M393.565 6.40808L392.815 8.30797L392.041 10.1919L391.027 11.972L390.149 13.8081L389.462 15.7319L388.544 17.5519L387.898 19.4917L386.964 21.2958L385.902 23.052L385.231 24.9839L384.297 26.7959L383.555 28.6958L382.509 30.46L383.507 30.915L384.233 29.0071L385.359 27.2829L386.149 25.399L387.123 23.6028L387.818 21.679L388.624 19.8031L389.63 18.0389L390.316 16.1151L391.354 14.3509L392.24 12.5228L393.062 10.6549L394.164 8.92264L394.835 6.99082L393.565 6.40808Z" fill="#DBF1FF"/>
<path d="M353.979 5.22588L354.921 7.05392L355.328 9.07355L355.791 11.0772L356.517 12.9771L357.332 14.861L357.763 16.8567L358.473 18.7725L359.232 20.6645L359.687 22.6521L360.437 24.552L361.012 26.5078L361.714 28.4157L362.249 30.3874L363.191 30.0441L362.664 28.0644L362.089 26.1007L361.499 24.1449L360.405 22.3728L359.75 20.4489L359.319 18.4373L358.553 16.5533L357.811 14.6614L357.316 12.6738L356.677 10.7419L355.823 8.88995L355.216 6.94217L354.306 5.10614L353.979 5.22588Z" fill="#DBF1FF"/>
<path d="M349.692 -4.89524L350.251 -3.19492L350.866 -1.52654L351.488 0.149833L352.718 -0.313163L352.031 -1.9576L351.456 -3.64196L350.874 -5.33429L349.692 -4.89524Z" fill="#DBF1FF"/>
<path d="M324.387 33.0706L326.359 33.6693L328.147 34.6592L330.095 35.3058L331.891 36.2637L333.823 36.9423L335.515 38.1476L337.479 38.7304L339.411 39.385L341.119 40.5584L343.099 41.1172L344.903 42.0592L346.683 43.065L348.583 43.8074L349.006 42.8894L347.202 41.9315L345.27 41.2529L343.522 40.1673L341.63 39.4169L339.762 38.5947L337.91 37.7565L335.97 37.1019L334.254 35.9763L332.506 34.9146L330.622 34.1403L328.682 33.4778L326.894 32.4879L324.986 31.7615L324.387 33.0706Z" fill="#DBF1FF"/>
<path d="M314.393 28.521L315.997 29.3033L317.642 29.9898L319.262 30.7482L319.733 29.7184L318.073 29.0239L316.492 28.2336L314.848 27.5311L314.393 28.521Z" fill="#DBF1FF"/>
<path d="M323.477 73.4792L325.305 72.5532L327.317 72.1061L329.216 71.3558L331.1 70.5894L332.968 69.7672L334.94 69.2323L336.808 68.4341L338.644 67.532L340.696 67.2047L342.548 66.3426L344.487 65.72L346.395 65.0255L348.343 64.4028L347.912 63.2533L345.948 63.8201L344.176 64.8897L342.148 65.2889L340.241 66.0073L338.261 66.5023L336.345 67.2207L334.501 68.1148L332.521 68.5857L330.661 69.4399L328.69 69.9668L326.83 70.797L324.762 71.0764L322.934 72.0183L323.477 73.4792Z" fill="#DBF1FF"/>
<path d="M313.068 76.9838L314.752 76.3851L316.397 75.7145L318.049 75.028L317.714 74.126L316.037 74.7566L314.313 75.1957L312.621 75.7944L313.068 76.9838Z" fill="#DBF1FF"/>
<path d="M351.408 102.464L352.27 100.62L352.885 98.6564L353.987 96.9161L354.857 95.0721L355.424 93.1004L356.421 91.3123L357.188 89.4284L358.034 87.5844L359 85.7883L359.782 83.9043L360.564 82.0284L361.554 80.2403L362.289 78.3324L360.964 77.7257L360.165 79.6017L359.215 81.4057L358.202 83.1859L357.371 85.0459L356.717 86.9857L355.567 88.7019L354.921 90.6417L353.819 92.374L353.013 94.2419L352.23 96.1179L351.496 98.0258L350.506 99.8059L349.756 101.706L351.408 102.464Z" fill="#DBF1FF"/>
<path d="M346.315 112.211L347.122 110.615L347.936 109.034L348.622 107.382L347.632 106.927L346.866 108.539L346.116 110.152L345.285 111.74L346.315 112.211Z" fill="#DBF1FF"/>
<path d="M391.426 103.206L390.923 101.219L390.372 99.2471L389.478 97.4031L388.544 95.583L388.137 93.5474L387.339 91.6715L386.548 89.7955L385.519 88.0234L384.84 86.0995L384.177 84.1757L383.435 82.2838L382.405 80.4957L381.711 78.5798L380.505 79.0269L381.328 80.8948L382.174 82.7548L382.733 84.7265L383.427 86.6424L384.537 88.3906L385.056 90.3783L385.822 92.2622L386.852 94.0344L387.355 96.03L388.065 97.9379L389.087 99.726L389.638 101.69L390.42 103.582L391.426 103.206Z" fill="#DBF1FF"/>
<path d="M204.91 -9.35754C204.91 -3.95325 204.79 -3.95324 204.79 1.44307C204.79 6.84737 204.407 6.84736 204.407 12.2437C204.407 12.6827 205.532 12.6827 205.532 12.2437C205.532 6.83938 205.253 6.83938 205.253 1.44307C205.253 -3.96123 205.804 -3.96123 205.804 -9.35754C205.804 -9.79659 204.918 -9.79659 204.918 -9.35754H204.91Z" fill="#DBF1FF"/>
<path d="M181.464 0.613213C185.28 4.42895 185.096 4.62053 188.92 8.43627C192.736 12.252 192.776 12.2201 196.599 16.0358C196.911 16.3471 197.701 15.5568 197.39 15.2455C194.846 12.7017 192.297 10.1579 189.742 7.61405C185.927 3.79831 185.607 4.10964 181.792 0.285921C181.48 -0.0254043 181.161 0.28592 181.472 0.605228L181.464 0.613213Z" fill="#DBF1FF"/>
<path d="M172.029 23.8345C177.433 23.8345 177.433 24.1698 182.829 24.1698C188.226 24.1698 188.234 24.1698 193.63 24.1698C194.069 24.1698 194.069 23.0203 193.63 23.0203C188.226 23.0203 188.226 23.7627 182.829 23.7627C177.425 23.7627 177.425 23.3795 172.029 23.3795C171.59 23.3795 171.59 23.8345 172.029 23.8345V23.8345Z" fill="#DBF1FF"/>
<path d="M164.142 24.098C165.858 24.098 165.858 24.1459 167.575 24.1459C168.014 24.1459 168.014 23.4275 167.575 23.4275C165.858 23.4275 165.858 23.5073 164.142 23.5073C163.703 23.5073 163.703 24.0901 164.142 24.0901V24.098Z" fill="#DBF1FF"/>
<path d="M181.879 47.3527C185.695 43.537 185.911 43.7445 189.734 39.9288C193.55 36.1131 193.59 36.145 197.414 32.3293C197.725 32.0179 196.911 31.2037 196.599 31.515C192.784 35.3308 193.023 35.5782 189.2 39.394C185.384 43.2097 185.24 43.074 181.424 46.8977C181.113 47.209 181.568 47.672 181.887 47.3607L181.879 47.3527Z" fill="#DBF1FF"/>
<path d="M176.427 53.0603C177.236 52.2514 178.043 51.4425 178.846 50.6336C179.157 50.3222 178.631 49.7954 178.319 50.1067C177.106 51.3201 177.146 51.36 175.94 52.5734C175.629 52.8847 176.116 53.3716 176.427 53.0603V53.0603Z" fill="#DBF1FF"/>
<path d="M205.077 56.9158C205.077 51.5115 205.205 51.5115 205.205 46.1152C205.205 40.7109 205.868 40.7109 205.868 35.3146C205.868 34.8755 205.061 34.8755 205.061 35.3146C205.061 40.7189 204.519 40.7189 204.519 46.1152C204.519 51.5195 204.55 51.5195 204.55 56.9158C204.55 57.3548 205.077 57.3548 205.077 56.9158V56.9158Z" fill="#DBF1FF"/>
<path d="M205.444 64.8108C205.444 63.0945 205.508 63.0945 205.508 61.3782C205.508 60.9392 204.814 60.9392 204.814 61.3782C204.814 63.0945 204.83 63.0945 204.83 64.8108C204.83 65.2498 205.444 65.2498 205.444 64.8108V64.8108Z" fill="#DBF1FF"/>
<path d="M228.794 47.0169C224.978 43.2012 225.106 43.0655 221.29 39.2417C217.475 35.426 217.323 35.5697 213.507 31.754C213.196 31.4426 212.557 32.0733 212.876 32.3846C216.692 36.2003 217.083 35.8172 220.907 39.6329C224.723 43.4486 224.555 43.6242 228.379 47.44C228.69 47.7513 229.121 47.3282 228.802 47.0169H228.794Z" fill="#DBF1FF"/>
<path d="M234.422 52.5493C233.209 51.3359 233.217 51.328 232.003 50.1146C231.692 49.8033 231.205 50.2902 231.516 50.6015C232.73 51.8149 232.682 51.8628 233.895 53.0762C234.207 53.3875 234.733 52.8686 234.422 52.5493V52.5493Z" fill="#DBF1FF"/>
<path d="M238.31 23.0439C232.905 23.0439 232.905 23.7623 227.509 23.7623C222.105 23.7623 222.105 23.6107 216.708 23.6107C216.269 23.6107 216.269 23.8581 216.708 23.8581C222.113 23.8581 222.113 24.1136 227.509 24.1136C232.905 24.1136 232.913 24.2094 238.31 24.2094C238.749 24.2094 238.749 23.0439 238.31 23.0439V23.0439Z" fill="#DBF1FF"/>
<path d="M246.196 23.3954C244.48 23.3954 244.48 23.4833 242.764 23.4833C242.325 23.4833 242.325 24.1139 242.764 24.1139C244.48 24.1139 244.48 24.0979 246.196 24.0979C246.636 24.0979 246.636 23.4034 246.196 23.4034V23.3954Z" fill="#DBF1FF"/>
<path d="M228.499 0.245919C224.683 4.06166 224.739 4.12552 220.915 7.94125C217.1 11.757 217.028 11.6931 213.204 15.5089C212.893 15.8202 213.196 16.1235 213.507 15.8122C217.323 11.9965 217.491 12.1561 221.315 8.34039C225.138 4.52465 224.899 4.28517 228.715 0.46145C229.026 0.150124 228.81 -0.0733895 228.499 0.245919V0.245919Z" fill="#DBF1FF"/>
<path d="M165.739 7.2877C172.236 9.97787 172.189 10.0896 178.687 12.7798C185.184 15.47 184.937 16.0607 191.435 18.7509C191.842 18.9185 192.369 17.6572 191.962 17.4896C185.464 14.7994 185.304 15.1986 178.806 12.5084C172.308 9.81821 172.404 9.58672 165.914 6.89654C165.507 6.72891 165.339 7.12006 165.755 7.2877H165.739Z" fill="#DBF1FF"/>
<path d="M153.517 2.72942C157.317 4.30202 157.349 4.23017 161.148 5.81075C161.556 5.97839 161.723 5.58724 161.308 5.4196C157.508 3.84701 157.58 3.65542 153.78 2.08283C153.373 1.91519 153.102 2.56977 153.509 2.73741L153.517 2.72942Z" fill="#DBF1FF"/>
<path d="M165.627 40C172.125 37.3098 172.444 38.0921 178.942 35.4019C185.44 32.7118 185.264 32.2887 191.754 29.5985C192.161 29.4309 191.754 28.425 191.339 28.5927C184.841 31.2829 185.065 31.8257 178.575 34.5159C172.077 37.206 172.173 37.4375 165.683 40.1277C165.276 40.2953 165.22 40.1676 165.627 40Z" fill="#DBF1FF"/>
<path d="M153.788 45.4842C157.588 43.9116 157.556 43.8159 161.356 42.2433C161.763 42.0756 161.499 41.429 161.092 41.5967C157.292 43.1693 157.324 43.265 153.525 44.8376C153.118 45.0053 153.381 45.6519 153.788 45.4842Z" fill="#DBF1FF"/>
<path d="M189.16 63.4141C191.85 56.9162 191.715 56.8603 194.405 50.3703C197.095 43.8724 196.768 43.7367 199.458 37.2388C199.625 36.8317 199.841 36.9195 199.665 37.3266C196.975 43.8245 196.424 43.593 193.734 50.0909C191.044 56.5889 191.339 56.7086 188.649 63.2065C188.482 63.6137 188.992 63.8292 189.16 63.4221V63.4141Z" fill="#DBF1FF"/>
<path d="M184.187 75.4608C185.759 71.661 185.807 71.677 187.38 67.8772C187.548 67.4701 186.757 67.1428 186.59 67.5499C185.017 71.3497 185.169 71.4135 183.596 75.2213C183.428 75.6284 184.019 75.8759 184.187 75.4688V75.4608Z" fill="#DBF1FF"/>
<path d="M221.921 63.1025C219.231 56.6046 218.975 56.7163 216.285 50.2184C213.595 43.7205 213.619 43.7125 210.929 37.2146C210.761 36.8074 210.154 37.0549 210.322 37.47C213.012 43.9679 212.98 43.9839 215.67 50.4738C218.361 56.9638 218.209 57.0276 220.899 63.5256C221.067 63.9327 222.088 63.5096 221.921 63.1025V63.1025Z" fill="#DBF1FF"/>
<path d="M226.766 75.204C225.194 71.4042 225.289 71.3564 223.717 67.5566C223.549 67.1495 222.99 67.381 223.158 67.7881C224.731 71.5879 224.715 71.5958 226.287 75.4036C226.455 75.8107 226.934 75.6111 226.766 75.204V75.204Z" fill="#DBF1FF"/>
<path d="M244.975 39.3696C238.477 36.6794 238.174 37.4218 231.676 34.7316C225.178 32.0415 225.106 32.2171 218.608 29.5269C218.201 29.3593 217.946 29.966 218.353 30.1336C224.851 32.8238 225.114 32.1772 231.612 34.8753C238.11 37.5655 237.974 37.8928 244.464 40.583C244.871 40.7506 245.374 39.5372 244.967 39.3696H244.975Z" fill="#DBF1FF"/>
<path d="M256.837 44.7811C253.038 43.2085 253.006 43.2804 249.206 41.7078C248.799 41.5401 248.575 42.075 248.982 42.2426C252.782 43.8152 252.814 43.7354 256.622 45.316C257.029 45.4836 257.252 44.9567 256.837 44.7891V44.7811Z" fill="#DBF1FF"/>
<path d="M244.408 6.8234C240.076 8.61685 235.744 10.405 231.412 12.1878C224.915 14.878 225.242 15.6603 218.744 18.3504C218.337 18.5181 218.568 19.0848 218.975 18.9172C225.473 16.227 225.338 15.8997 231.828 13.2096C238.326 10.5194 238.222 10.2799 244.72 7.58974C245.127 7.4221 244.807 6.64778 244.4 6.81542L244.408 6.8234Z" fill="#DBF1FF"/>
<path d="M256.574 2.14588C252.774 3.71847 252.782 3.74242 248.982 5.323C248.575 5.49063 248.847 6.1532 249.254 5.98556C253.054 4.41297 253.014 4.30919 256.813 2.72861C257.221 2.56098 256.981 1.97824 256.574 2.14588Z" fill="#DBF1FF"/>
<path d="M221.434 -15.7431C218.744 -9.24519 218.329 -9.42081 215.638 -2.92288C212.948 3.57505 213.108 3.63891 210.418 10.1368C210.25 10.544 211.064 10.8872 211.232 10.4721C213.922 3.97418 213.675 3.87839 216.365 -2.61953C219.055 -9.11746 218.975 -9.14939 221.665 -15.6393C221.833 -16.0465 221.594 -16.1502 221.426 -15.7351L221.434 -15.7431Z" fill="#DBF1FF"/>
<path d="M188.873 -15.7273C190.666 -11.3954 192.459 -7.06343 194.253 -2.73148C196.943 3.76645 196.105 4.10971 198.795 10.6076C198.963 11.0148 200.344 10.448 200.168 10.0409C197.478 3.54293 196.76 3.8383 194.069 -2.65165C191.379 -9.14958 191.81 -9.3252 189.12 -15.8231C188.952 -16.2302 188.697 -16.1265 188.865 -15.7193L188.873 -15.7273Z" fill="#DBF1FF"/>
<path d="M222.76 -4.31231C219.798 0.205902 220.181 0.453367 217.22 4.97158C214.258 9.4898 214.05 9.35409 211.089 13.8723C210.849 14.2395 211.847 14.9021 212.087 14.5269C215.048 10.0087 214.865 9.88893 217.826 5.37072C220.788 0.852503 220.636 0.756711 223.598 -3.7615C223.837 -4.12871 222.999 -4.67952 222.76 -4.31231V-4.31231Z" fill="#DBF1FF"/>
<path d="M197.965 -8.56669C199.067 -3.27415 199.314 -3.33003 200.416 1.96251C201.517 7.25505 201.262 7.30294 202.363 12.5955C202.451 13.0265 202.842 12.9467 202.755 12.5157C201.653 7.22312 202.22 7.11136 201.118 1.81882C200.017 -3.47372 200.256 -3.52161 199.154 -8.80617C199.067 -9.23724 197.869 -8.98977 197.965 -8.55871V-8.56669Z" fill="#DBF1FF"/>
<path d="M177.377 5.7225C181.896 8.68409 181.68 9.01138 186.198 11.973C190.716 14.9346 190.637 15.0623 195.147 18.0239C195.514 18.2633 195.873 17.7205 195.506 17.481C190.988 14.5195 191.299 14.0405 186.789 11.0789C182.271 8.11732 182.311 8.06144 177.792 5.09985C177.425 4.86037 177.01 5.48302 177.377 5.73049V5.7225Z" fill="#DBF1FF"/>
<path d="M170.704 1.51534C172.141 2.4573 172.133 2.46528 173.57 3.40724C173.937 3.64673 174.264 3.1518 173.897 2.91231C172.939 2.28434 171.984 1.65903 171.031 1.03638C170.664 0.796896 170.345 1.28384 170.712 1.52332L170.704 1.51534Z" fill="#DBF1FF"/>
<path d="M172.732 30.5728C178.024 29.4712 178.056 29.6628 183.349 28.5612C188.641 27.4595 188.625 27.3877 193.91 26.2861C194.341 26.1983 194.309 26.0386 193.878 26.1344C190.349 26.8688 186.824 27.5979 183.301 28.3217C178.008 29.4233 178 29.3594 172.708 30.4531C172.277 30.5409 172.301 30.6526 172.732 30.5648V30.5728Z" fill="#DBF1FF"/>
<path d="M165.06 32.4256C166.737 32.0743 166.761 32.1781 168.437 31.8269C168.868 31.739 168.717 31.0126 168.285 31.1004C166.609 31.4517 166.609 31.4517 164.933 31.8029C164.502 31.8907 164.629 32.5134 165.06 32.4256Z" fill="#DBF1FF"/>
<path d="M186.981 51.48C188.955 48.4679 190.932 45.4584 192.912 42.4516C195.874 37.9334 195.993 38.0132 198.955 33.495C199.194 33.1278 198.715 32.8085 198.468 33.1757C195.506 37.6939 195.746 37.8456 192.784 42.3638C189.823 46.882 189.416 46.6186 186.454 51.1288C186.215 51.496 186.741 51.8472 186.981 51.4721V51.48Z" fill="#DBF1FF"/>
<path d="M183.013 58.3124C183.955 56.8755 183.939 56.8675 184.881 55.4306C185.121 55.0634 184.538 54.6803 184.299 55.0475C183.671 56.0054 183.045 56.9633 182.423 57.9213C182.183 58.2885 182.774 58.6796 183.013 58.3124V58.3124Z" fill="#DBF1FF"/>
<path d="M212.102 56.1893C211.001 50.8968 211.208 50.8569 210.115 45.5723C209.013 40.2798 208.742 40.3437 207.64 35.0511C207.552 34.62 207.01 34.7318 207.097 35.1629C208.199 40.4554 207.856 40.5193 208.949 45.8118C210.043 51.1044 210.163 51.0724 211.264 56.365C211.352 56.796 212.19 56.6204 212.102 56.1893V56.1893Z" fill="#DBF1FF"/>
<path d="M213.922 63.8686C213.571 62.1922 213.435 62.2162 213.092 60.5398C213.004 60.1087 212.39 60.2365 212.478 60.6675C212.829 62.3439 212.773 62.3599 213.124 64.0362C213.212 64.4673 214.01 64.2997 213.922 63.8686Z" fill="#DBF1FF"/>
<path d="M232.945 41.8524C228.427 38.8908 228.602 38.6274 224.084 35.6658C219.566 32.7042 219.718 32.4727 215.199 29.5112C214.832 29.2717 214.313 30.054 214.689 30.2935C219.207 33.2551 218.951 33.6382 223.47 36.5998C227.988 39.5614 228.339 39.0266 232.857 41.9881C233.224 42.2276 233.312 42.0999 232.945 41.8524V41.8524Z" fill="#DBF1FF"/>
<path d="M239.642 46.0275C238.206 45.0855 238.237 45.0376 236.809 44.0957C236.441 43.8562 236.074 44.407 236.441 44.6545C237.878 45.5964 237.822 45.6683 239.259 46.6102C239.626 46.8497 240.01 46.267 239.642 46.0275Z" fill="#DBF1FF"/>
<path d="M237.495 16.4518C232.203 17.5534 232.283 17.9126 226.99 19.0142C221.698 20.1158 221.594 19.589 216.301 20.6906C215.87 20.7784 216.174 22.2392 216.605 22.1514C221.897 21.0498 221.77 20.4511 227.054 19.3495C232.339 18.2479 232.41 18.5991 237.703 17.4975C238.134 17.4097 237.919 16.364 237.487 16.4518H237.495Z" fill="#DBF1FF"/>
<path d="M245.255 15.0468C243.578 15.398 243.586 15.43 241.902 15.7812C241.471 15.869 241.599 16.5076 242.03 16.4118C243.706 16.0606 243.722 16.1085 245.398 15.7652C245.829 15.6774 245.686 14.959 245.247 15.0468H245.255Z" fill="#DBF1FF"/>
<path d="M180.658 -11.2397C184.618 -5.42827 184.474 -5.33248 188.426 0.478934C192.385 6.29035 192.696 6.07482 196.656 11.8862C196.903 12.2534 197.614 11.7745 197.358 11.4073C193.399 5.59585 193.55 5.49208 189.591 -0.319337C185.632 -6.13075 185.448 -6.00303 181.489 -11.8144C181.241 -12.1816 180.403 -11.6069 180.65 -11.2477L180.658 -11.2397Z" fill="#DBF1FF"/>
<path d="M163.16 15.9167C170.065 17.2259 169.938 17.9124 176.843 19.2215C183.748 20.5307 183.891 19.7803 190.797 21.0975C191.228 21.1773 191.204 21.337 190.765 21.2571C183.86 19.948 183.86 19.916 176.955 18.6069C170.049 17.2977 170.193 16.5393 163.288 15.2222C162.857 15.1424 162.721 15.8369 163.152 15.9167H163.16Z" fill="#DBF1FF"/>
<path d="M150.316 13.6659C154.356 14.4322 154.379 14.3204 158.427 15.0868C158.858 15.1666 158.946 14.7276 158.515 14.6398C154.475 13.8734 154.459 13.9453 150.412 13.1789C149.981 13.0991 149.885 13.586 150.316 13.6659Z" fill="#DBF1FF"/>
<path d="M170.121 48.2548C175.933 44.2954 175.957 44.3353 181.768 40.3759C187.58 36.4165 187.627 36.4883 193.439 32.5369C193.806 32.2894 193.008 31.116 192.641 31.3634C186.829 35.3228 187.125 35.7619 181.313 39.7133C175.502 43.6648 175.685 43.9362 169.866 47.8876C169.499 48.1351 169.746 48.5023 170.113 48.2548H170.121Z" fill="#DBF1FF"/>
<path d="M159.177 55.3348C162.578 53.0199 162.649 53.1236 166.05 50.8086C166.417 50.5612 166.082 50.0663 165.715 50.3137C162.314 52.6287 162.282 52.5808 158.874 54.8958C158.506 55.1433 158.81 55.5903 159.177 55.3348V55.3348Z" fill="#DBF1FF"/>
<path d="M197.893 65.9043C199.202 58.9993 199.059 58.9674 200.376 52.0623C201.693 45.1573 201.11 45.0455 202.427 38.1405C202.507 37.7094 201.924 37.5976 201.837 38.0287C200.527 44.9338 201.286 45.0774 199.977 51.9905C198.667 58.8955 198.212 58.8077 196.895 65.7207C196.815 66.1518 197.813 66.3434 197.893 65.9123V65.9043Z" fill="#DBF1FF"/>
<path d="M195.091 78.6369C195.857 74.5976 195.682 74.5577 196.456 70.5185C196.536 70.0874 195.913 69.9677 195.833 70.3987C195.067 74.438 195.163 74.4619 194.396 78.5012C194.317 78.9323 195.011 79.068 195.099 78.6369H195.091Z" fill="#DBF1FF"/>
<path d="M229.465 58.9436C225.505 53.1322 225.218 53.3318 221.258 47.5203C217.299 41.7089 217.977 41.2459 214.026 35.4345C213.779 35.0673 212.533 35.9135 212.781 36.2807C216.74 42.0921 217.043 41.8845 221.003 47.696C224.962 53.5074 225.361 53.236 229.321 59.0474C229.568 59.4146 229.712 59.3188 229.465 58.9516V58.9436Z" fill="#DBF1FF"/>
<path d="M236.841 69.6958C234.526 66.2952 234.406 66.375 232.091 62.9744C231.844 62.6072 231.405 62.9105 231.652 63.2777C233.967 66.6784 233.895 66.7342 236.21 70.1349C236.458 70.5021 237.096 70.071 236.841 69.7038V69.6958Z" fill="#DBF1FF"/>
<path d="M247.266 31.1878C240.361 29.8786 240.241 30.4933 233.336 29.1842C226.431 27.875 226.495 27.5078 219.59 26.1906C219.159 26.1108 218.975 27.0687 219.406 27.1486C226.311 28.4577 226.367 28.1943 233.272 29.5114C240.177 30.8286 240.281 30.2937 247.186 31.6109C247.617 31.6907 247.697 31.2676 247.266 31.1878V31.1878Z" fill="#DBF1FF"/>
<path d="M260.046 33.7668C256.007 33.0005 255.991 33.0484 251.952 32.282C251.521 32.2022 251.353 33.0484 251.792 33.1282C255.831 33.8945 255.863 33.7429 259.91 34.5092C260.341 34.589 260.485 33.8467 260.054 33.7668H260.046Z" fill="#DBF1FF"/>
<path d="M240.105 -0.84696C234.294 3.11247 234.342 3.18431 228.531 7.13575C222.719 11.0952 223.126 11.6939 217.315 15.6453C216.948 15.8928 216.94 15.8768 217.307 15.6294C223.118 11.6699 223.406 12.101 229.217 8.14158C235.028 4.18215 234.949 4.07039 240.76 0.110966C241.127 -0.136498 240.473 -1.10241 240.105 -0.854941V-0.84696Z" fill="#DBF1FF"/>
<path d="M212.493 -18.3291C211.184 -11.4241 211.695 -11.3283 210.378 -4.41524C209.061 2.49778 208.869 2.45787 207.56 9.36292C207.48 9.79398 207.64 9.82591 207.728 9.39485C209.037 2.4898 209.444 2.56165 210.761 -4.3434C212.078 -11.2484 211.735 -11.3123 213.044 -18.2253C213.124 -18.6564 212.581 -18.7602 212.501 -18.3291H212.493Z" fill="#DBF1FF"/>
<path d="M197.885 6.88782C199.657 11.1666 199.418 11.2623 201.19 15.5411C201.357 15.9482 202.116 15.6369 201.948 15.2297C200.176 10.951 200.144 10.967 198.372 6.68825C198.204 6.28113 197.709 6.4807 197.877 6.88782H197.885Z" fill="#DBF1FF"/>
<path d="M185.144 -23.8376C187.771 -17.4993 187.954 -17.5791 190.581 -11.2408C193.207 -4.90257 193.423 -4.99038 196.049 1.33991C196.216 1.74702 196.592 1.59535 196.424 1.18823C193.798 -5.15004 193.399 -4.9824 190.772 -11.3207C188.146 -17.6589 188.816 -17.9304 186.19 -24.2686C186.023 -24.6758 184.985 -24.2447 185.152 -23.8376H185.144Z" fill="#DBF1FF"/>
<path d="M188.05 17.0413C190.903 18.2228 193.755 19.4015 196.608 20.5777C197.015 20.7453 197.246 20.1945 196.839 20.0189C192.561 18.2467 192.577 18.2068 188.298 16.4346C187.891 16.267 187.635 16.8657 188.05 17.0413V17.0413Z" fill="#DBF1FF"/>
<path d="M157.133 4.76408C163.471 7.39039 163.663 6.9274 169.993 9.55371C176.332 12.18 176.411 11.9884 182.742 14.6147C183.149 14.7824 183.46 14.04 183.045 13.8724C176.707 11.246 176.563 11.5973 170.225 8.97097C163.887 6.34466 163.879 6.36861 157.54 3.75028C157.133 3.58264 156.718 4.58846 157.125 4.7561L157.133 4.76408Z" fill="#DBF1FF"/>
<path d="M188.338 31.2111C192.616 29.439 192.64 29.4949 196.919 27.7227C197.326 27.5551 196.975 26.7089 196.568 26.8765C192.289 28.6487 192.297 28.6647 188.018 30.4368C187.611 30.6045 187.931 31.3788 188.338 31.2032V31.2111Z" fill="#DBF1FF"/>
<path d="M157.517 43.7203C163.855 41.094 164.046 41.565 170.385 38.9386C176.723 36.3123 176.659 36.1607 182.997 33.5343C183.404 33.3667 183.221 32.9277 182.814 33.0953C176.475 35.7216 176.236 35.1389 169.898 37.7572C163.559 40.3755 163.496 40.2239 157.157 42.8502C156.75 43.0178 157.109 43.8799 157.517 43.7123V43.7203Z" fill="#DBF1FF"/>
<path d="M198.588 40.9574C200.36 36.6786 200.24 36.6307 202.012 32.352C202.18 31.9449 201.693 31.7373 201.525 32.1524C199.753 36.4312 199.601 36.3673 197.829 40.646C197.662 41.0532 198.42 41.3725 198.588 40.9574Z" fill="#DBF1FF"/>
<path d="M185.56 71.5704C188.186 65.2322 188.617 65.4158 191.243 59.0775C193.87 52.7392 193.191 52.4598 195.817 46.1216C195.985 45.7144 195.346 45.451 195.179 45.8581C193.428 50.0836 191.685 54.3118 189.95 58.5427C187.324 64.8809 187.667 65.0166 185.041 71.3549C184.873 71.762 185.4 71.9776 185.568 71.5704H185.56Z" fill="#DBF1FF"/>
<path d="M212.358 40.7104C210.586 36.4317 210.697 36.3838 208.925 32.1051C208.758 31.698 208.287 31.8896 208.454 32.2967C210.226 36.5754 209.995 36.6712 211.767 40.9499C211.935 41.357 212.525 41.1176 212.358 40.7025V40.7104Z" fill="#DBF1FF"/>
<path d="M225.657 71.2048C223.031 64.8665 222.624 65.0342 219.997 58.6959C217.371 52.3576 217.523 52.2938 214.896 45.9555C214.729 45.5484 214.226 45.7559 214.401 46.163C217.028 52.5013 217.203 52.4295 219.83 58.7598C222.456 65.098 222.137 65.2337 224.755 71.564C224.923 71.9711 225.825 71.596 225.657 71.1888V71.2048Z" fill="#DBF1FF"/>
<path d="M222.24 30.6274C217.962 28.8553 217.97 28.8313 213.699 27.0591C213.292 26.8915 213.052 27.4583 213.459 27.6339C217.738 29.4061 217.722 29.454 221.993 31.2181C222.4 31.3858 222.648 30.7951 222.24 30.6274Z" fill="#DBF1FF"/>
<path d="M252.838 43.6801C246.5 41.0538 246.556 40.9261 240.217 38.2998C233.879 35.6735 233.967 35.4579 227.637 32.8316C227.23 32.664 226.91 33.4303 227.317 33.598C233.656 36.2243 233.895 35.6415 240.233 38.2599C246.572 40.8862 246.54 40.958 252.878 43.5843C253.285 43.752 253.245 43.8478 252.838 43.6801V43.6801Z" fill="#DBF1FF"/>
<path d="M221.969 16.2911C217.69 18.0633 217.746 18.207 213.475 19.9791C213.068 20.1468 213.324 20.7614 213.731 20.5938C218.009 18.8216 218.057 18.9494 222.336 17.1772C222.743 17.0096 222.376 16.1235 221.969 16.2991V16.2911Z" fill="#DBF1FF"/>
<path d="M252.902 4.02931C246.564 6.65562 246.308 6.03297 239.97 8.65928C233.632 11.2856 233.696 11.4293 227.357 14.0556C226.95 14.2232 227.309 15.1013 227.724 14.9337C234.063 12.3074 234.182 12.5948 240.513 9.96844C246.851 7.34213 246.683 6.943 253.022 4.31668C253.429 4.14905 253.309 3.85369 252.902 4.02133V4.02931Z" fill="#DBF1FF"/>
<path d="M212.015 6.71243C210.242 10.9912 210.29 11.0071 208.518 15.2859C208.35 15.693 208.75 15.8606 208.917 15.4535C210.689 11.1748 210.841 11.2386 212.613 6.95989C212.781 6.55277 212.19 6.30531 212.015 6.71243Z" fill="#DBF1FF"/>
<path d="M224.435 -24.157C221.809 -17.8187 222.216 -17.6511 219.59 -11.3128C216.964 -4.97451 216.836 -5.03039 214.21 1.30788C214.042 1.715 214.21 1.78685 214.377 1.37973C217.004 -4.95854 217.036 -4.94258 219.662 -11.2809C222.288 -17.6191 222.16 -17.667 224.787 -24.0053C224.954 -24.4124 224.603 -24.5641 224.428 -24.149L224.435 -24.157Z" fill="#DBF1FF"/>
<path d="M205.237 -14.4419C205.237 -6.81042 205.062 -6.81042 205.062 0.821052C205.062 8.45252 205.381 8.45252 205.381 16.084C205.381 16.523 205.764 16.523 205.764 16.084C205.764 10.9963 205.761 5.9087 205.756 0.821052C205.756 -6.81042 205.229 -6.81042 205.229 -14.4419C205.229 -14.8809 205.237 -14.8809 205.237 -14.4419V-14.4419Z" fill="#DBF1FF"/>
<path d="M177.984 -3.09023C183.38 2.30608 183.069 2.61741 188.465 8.01372C193.862 13.41 194.037 13.2344 199.434 18.6307C199.745 18.9421 199.984 18.7106 199.673 18.3912C194.277 12.9949 194.373 12.8991 188.976 7.50282C183.58 2.10651 183.668 2.0187 178.271 -3.37761C177.96 -3.68894 177.681 -3.40954 177.992 -3.09822L177.984 -3.09023Z" fill="#DBF1FF"/>
<path d="M166.952 23.5644C174.584 23.5644 174.584 23.8677 182.215 23.8677C189.846 23.8677 189.846 24.2189 197.478 24.2189C197.917 24.2189 197.917 23.5564 197.478 23.5564C189.846 23.5564 189.846 23.5963 182.215 23.5963C174.584 23.5963 174.584 22.9736 166.952 22.9736C166.513 22.9736 166.513 23.5564 166.952 23.5564V23.5644Z" fill="#DBF1FF"/>
<path d="M178.287 50.9446C183.684 45.5482 183.524 45.3966 188.92 40.0003C192.518 36.4027 196.116 32.8052 199.713 29.2076C200.024 28.8963 199.968 28.8404 199.657 29.1518C194.261 34.5481 194.373 34.6598 188.976 40.0561C183.58 45.4525 183.428 45.3008 178.032 50.6891C177.721 51.0004 177.976 51.2559 178.287 50.9446V50.9446Z" fill="#DBF1FF"/>
<path d="M205.852 62.0007C205.852 54.3693 205.325 54.3693 205.325 46.7378C205.325 39.1063 205.205 39.1063 205.205 31.4749C205.205 31.0358 204.99 31.0358 204.99 31.4749C204.99 39.1063 205.022 39.1063 205.022 46.7378C205.022 54.3693 205.333 54.3693 205.333 62.0007C205.333 62.4398 205.852 62.4398 205.852 62.0007Z" fill="#DBF1FF"/>
<path d="M232.331 50.6732C226.934 45.2769 227.341 44.8698 221.945 39.4735C216.549 34.0772 216.429 34.1969 211.033 28.8006C210.721 28.4893 209.883 29.3275 210.195 29.6388C213.792 33.2363 217.39 36.8312 220.987 40.4234C226.383 45.8197 226.647 45.5563 232.043 50.9526C232.355 51.264 232.634 50.9846 232.323 50.6732H232.331Z" fill="#DBF1FF"/>
<path d="M243.387 23.8196C235.755 23.8196 235.755 23.173 228.124 23.173C220.492 23.173 220.492 23.628 212.861 23.628C212.422 23.628 212.422 24.3545 212.861 24.3545C220.492 24.3545 220.492 23.8995 228.124 23.8995C235.755 23.8995 235.755 24.7137 243.387 24.7137C243.826 24.7137 243.826 23.8196 243.387 23.8196V23.8196Z" fill="#DBF1FF"/>
<path d="M231.947 -3.49729C226.551 1.89902 226.479 1.82718 221.083 7.22349C215.687 12.6198 215.854 12.7874 210.458 18.1838C210.147 18.4951 210.386 18.7346 210.697 18.4232C216.094 13.0269 216.054 12.995 221.45 7.59868C226.846 2.20237 227.174 2.52966 232.57 -2.86666C232.881 -3.17798 232.259 -3.80063 231.947 -3.48931V-3.49729Z" fill="#DBF1FF"/>
<path d="M110.179 54.4802L110.211 56.6116L110.219 58.735L110.195 60.8584L110.219 62.9818L110.195 65.1131H110.786L110.794 62.9897L110.921 60.8584L111.049 58.735L111.025 56.6116L111.057 54.4802H110.179Z" fill="#DBF1FF"/>
<path d="M110.283 44.0386V46.4734L110.235 48.8841H110.937L110.889 46.4574L110.849 44.0386H110.283Z" fill="#DBF1FF"/>
<path d="M88.2666 67.588L90.1026 68.6656L91.9865 69.6555L93.8624 70.6454L95.7064 71.6991L97.5824 72.7209L97.7261 72.4814L95.8901 71.4037L94.062 70.3101L92.2739 69.1686L90.4538 68.0669L88.6098 66.9973L88.2666 67.588Z" fill="#DBF1FF"/>
<path d="M79.2379 62.3352L81.3613 63.5246L83.4528 64.738L83.7003 64.3069L81.6248 63.0456L79.5572 61.7844L79.2379 62.3352Z" fill="#DBF1FF"/>
<path d="M88.5936 93.1487L90.4536 92.1189L92.3056 91.0732L94.1496 90.0195L95.9856 88.9578L97.8695 87.944L97.4784 87.2654L95.6663 88.383L93.8702 89.5246L92.0501 90.6182L90.2221 91.6958L88.3861 92.7815L88.5936 93.1487Z" fill="#DBF1FF"/>
<path d="M79.5651 98.4015L81.6486 97.1642L83.6922 95.847L83.4686 95.4639L81.3373 96.6293L79.2218 97.8108L79.5651 98.4015Z" fill="#DBF1FF"/>
<path d="M111.033 105.69L110.961 103.558L110.937 101.427L110.778 99.3034L110.722 97.188L110.714 95.0566H110.131L110.155 97.18L110.187 99.3114L110.323 101.435L110.379 103.558L110.355 105.69H111.033Z" fill="#DBF1FF"/>
<path d="M110.945 116.131L110.937 113.704L110.929 111.285H110.243L110.235 113.72L110.298 116.131H110.945Z" fill="#DBF1FF"/>
<path d="M132.946 92.6141L131.118 91.5285L129.274 90.4588L127.422 89.429L125.594 88.3513L123.734 87.3056L123.39 87.8963L125.226 88.974L127.047 90.0836L128.898 91.1054L130.758 92.1351L132.594 93.2288L132.946 92.6141Z" fill="#DBF1FF"/>
<path d="M141.958 97.8988L139.883 96.6455L137.799 95.4081L137.52 95.8951L139.627 97.1005L141.719 98.3059L141.958 97.8988Z" fill="#DBF1FF"/>
<path d="M132.618 66.9895L130.75 68.0113L128.938 69.1209L127.102 70.1826L125.314 71.3321L123.462 72.3938L123.725 72.8568L125.554 71.7632L127.413 70.7254L129.234 69.6477L131.07 68.5701L132.914 67.5004L132.618 66.9895Z" fill="#DBF1FF"/>
<path d="M141.679 61.7846L139.595 63.0219L137.504 64.2513L137.791 64.7622L139.859 63.4929L141.934 62.2316L141.679 61.7846Z" fill="#DBF1FF"/>
<path d="M100.68 92.3024L102.156 90.4983L103.577 88.6463L103.202 88.327L101.693 90.1151L100.185 91.8793L100.68 92.3024Z" fill="#DBF1FF"/>
<path d="M89.392 105.481L90.9406 103.733L92.4573 101.953L93.99 100.205L95.5466 98.4647L97.0713 96.7085L98.62 94.9603L98.0452 94.4733L96.5844 96.2934L95.0357 98.0336L93.535 99.8138L92.0263 101.586L90.5016 103.35L88.9529 105.106L89.392 105.481Z" fill="#DBF1FF"/>
<path d="M116.262 94.7843L115.431 92.605L114.593 90.4257L114.035 90.6253L114.841 92.8125L115.687 94.9918L116.262 94.7843Z" fill="#DBF1FF"/>
<path d="M121.953 111.174L121.235 108.955L120.413 106.768L119.734 104.54L119.016 102.321L118.218 100.134L117.451 97.9228L116.9 98.1224L117.723 100.302L118.417 102.529L119.16 104.748L119.774 106.991L120.525 109.202L121.227 111.43L121.953 111.174Z" fill="#DBF1FF"/>
<path d="M126.168 82.6747L123.861 82.2516L121.586 81.8046L121.474 82.3873L123.789 82.7625L126.08 83.1457L126.168 82.6747Z" fill="#DBF1FF"/>
<path d="M143.291 85.437L140.992 85.0379L138.693 84.6467L136.362 84.503L134.047 84.2077L131.748 83.8006L129.441 83.4413L129.345 83.9522L131.628 84.4392L133.943 84.7585L136.258 85.0698L138.565 85.3891L140.856 85.7643L143.147 86.2353L143.291 85.437Z" fill="#DBF1FF"/>
<path d="M120.556 67.8115L119.048 69.5916L117.555 71.3797L118.058 71.8108L119.551 70.0147L121.059 68.2425L120.556 67.8115Z" fill="#DBF1FF"/>
<path d="M131.916 54.6953L130.335 56.4195L128.81 58.1837L127.342 59.9958L125.729 61.6801L124.26 63.4842L122.728 65.2484L123.143 65.5996L124.651 63.8275L126.152 62.0393L127.685 60.2832L129.146 58.4791L130.622 56.675L132.155 54.9028L131.916 54.6953Z" fill="#DBF1FF"/>
<path d="M105.094 65.2889L105.9 67.4762L106.658 69.6794L107.065 69.5357L106.331 67.3245L105.589 65.1133L105.094 65.2889Z" fill="#DBF1FF"/>
<path d="M99.003 49.0439L99.8651 51.2152L100.671 53.4024L101.398 55.6137L102.236 57.7929L102.954 60.0041L103.753 62.1994L104.447 61.9519L103.609 59.7726L102.859 57.5694L101.941 55.4221L101.142 53.2348L100.28 51.0635L99.5299 48.8523L99.003 49.0439Z" fill="#DBF1FF"/>
<path d="M95.0435 77.5582L97.3425 77.9733L99.6336 78.4123L99.7613 77.6939L97.4702 77.2708L95.1712 76.8876L95.0435 77.5582Z" fill="#DBF1FF"/>
<path d="M77.9606 74.5734L80.2516 74.9885L82.5586 75.3317L84.8736 75.6271L87.2046 75.8267L89.5036 76.1699L91.8106 76.5691L91.8345 76.4493L89.5595 75.9464L87.2445 75.6191L84.9454 75.2519L82.6384 74.9086L80.3394 74.5414L78.0564 74.0146L77.9606 74.5734Z" fill="#DBF1FF"/>
<path d="M93.9422 60.323L95.411 62.175L96.8798 64.0269L98.3965 65.839L99.8334 67.707L101.39 69.4871L102.907 71.3072L103.274 71.0038L101.765 69.1758L100.272 67.3398L98.8994 65.4159L97.3987 63.6039L95.9059 61.7758L94.3732 59.9637L93.9422 60.323Z" fill="#DBF1FF"/>
<path d="M89.8949 55.6773L91.9145 58.128L92.3775 57.7368L90.3179 55.326L89.8949 55.6773Z" fill="#DBF1FF"/>
<path d="M85.2571 85.0386L87.588 84.6315L89.903 84.1366L92.202 83.5778L94.509 83.0749L96.832 82.6678L99.1789 82.3325L99.0751 81.7178L96.7282 82.0292L94.4053 82.4922L92.0583 82.7795L89.7194 83.0909L87.3964 83.498L85.0735 83.9769L85.2571 85.0386Z" fill="#DBF1FF"/>
<path d="M79.1502 85.8282L82.2794 85.3093L82.1836 84.7665L79.0624 85.3332L79.1502 85.8282Z" fill="#DBF1FF"/>
<path d="M101.973 104.404L102.811 102.193L103.681 99.9973L104.512 97.7861L105.438 95.6068L106.316 93.4196L107.154 91.2084L106.196 90.8571L105.286 93.0364L104.52 95.2795L103.793 97.5227L103.043 99.7658L102.364 102.025L101.574 104.26L101.973 104.404Z" fill="#DBF1FF"/>
<path d="M99.9294 110.206L101.007 107.229L100.472 107.029L99.3147 109.983L99.9294 110.206Z" fill="#DBF1FF"/>
<path d="M127.597 99.543L126.025 97.7708L124.516 95.9508L122.967 94.1626L121.411 92.3905L119.854 90.6183L118.313 88.8222L117.866 89.1894L119.431 90.9616L120.908 92.8136L122.48 94.5698L123.981 96.3978L125.49 98.2099L126.983 100.046L127.597 99.543Z" fill="#DBF1FF"/>
<path d="M131.309 104.452L129.33 101.977L128.851 102.376L130.878 104.811L131.309 104.452Z" fill="#DBF1FF"/>
<path d="M136.003 75.2519L133.672 75.643L131.365 76.146L129.026 76.5132L126.695 76.8884L124.372 77.2875L122.033 77.6627L122.161 78.3731L124.484 77.974L126.799 77.4711L129.138 77.1518L131.461 76.6968L133.784 76.3056L136.115 75.8825L136.003 75.2519Z" fill="#DBF1FF"/>
<path d="M142.078 74.254L138.949 74.7809L139.068 75.4435L142.182 74.8288L142.078 74.254Z" fill="#DBF1FF"/>
<path d="M119.048 55.6295L118.154 57.8248L117.443 60.0839L116.845 62.3669L116.022 64.5861L115.344 66.8452L114.602 69.0964L115.088 69.28L115.919 67.0608L116.613 64.8017L117.348 62.5505L117.962 60.2675L118.777 58.0563L119.527 55.8051L119.048 55.6295Z" fill="#DBF1FF"/>
<path d="M121.403 49.9379L120.229 52.8835L120.804 53.099L121.874 50.1135L121.403 49.9379Z" fill="#DBF1FF"/>
<path d="M240.992 157.139L221.187 157.825L220.732 142.882L221.282 128.058L240.928 127.683L241.056 142.874L240.992 157.139Z" fill="#DBF1FF"/>
<path d="M233.632 157.674L228.243 157.69L228.315 134.045L233.831 133.982L233.632 157.674Z" fill="#00569C"/>
<path d="M235.476 129.359L226.99 129.048L226.527 114.328L226.838 99.5196L235.044 99.5435L235.755 114.328L235.476 129.359Z" fill="#DBF1FF"/>
<path d="M232.586 129.263L229.632 129.231L229.808 105.402L231.955 105.426L232.586 129.263Z" fill="#00569C"/>
<path d="M261.914 156.476L252.247 156.045L242.732 157.378L242.03 142.882L242.62 128.234L261.611 128.353L261.851 142.882L261.914 156.476Z" fill="#DBF1FF"/>
<path d="M255.632 157.881L249.182 157.754L249.158 133.949L254.914 134.021L255.632 157.881Z" fill="#00569C"/>
<path d="M255.999 128.976L248.344 128.96L247.306 114.328L248.2 99.6158L256.941 99.1448L256.478 114.328L255.999 128.976Z" fill="#DBF1FF"/>
<path d="M253.197 129.2L250.93 129.216L250.651 105.363L253.988 105.331L253.197 129.2Z" fill="#00569C"/>
<path d="M283.372 157.379L263.288 156.636L263.503 142.882L263.327 127.603L283.404 127.571L282.71 142.882L283.372 157.379Z" fill="#DBF1FF"/>
<path d="M276.85 157.89L270.241 157.794L270.312 133.941L276.012 134.045L276.85 157.89Z" fill="#00569C"/>
<path d="M278.032 129.455L269.155 129.183L268.899 114.328L268.668 99.2003L277.209 99.6792L277.369 114.335L278.032 129.455Z" fill="#DBF1FF"/>
<path d="M264.038 127.044L260.869 127.372L261.013 121.48L261.571 115.765L261.236 110.057L261.132 104.341L261.1 98.6338L261.563 92.9182V87.2105L261.483 81.4949L261.396 75.7873L261.172 70.0716L260.973 64.364L261.013 58.6484L260.829 52.9328L261.013 47.2171L261.364 41.5813L264.669 41.3019L264.309 47.2091L264.501 52.9248L264.517 58.6324L264.317 64.348L264.501 70.0557L264.597 75.7713L264.629 81.4789L263.982 87.1946L264.293 92.9022L264.261 98.6178L263.886 104.333L264.062 110.041L263.99 115.757L264.158 121.472L264.038 127.044Z" fill="#DBF1FF"/>
<path d="M285.839 127.372L282.669 127.044L282.478 121.48L282.598 115.765L282.55 110.057L282.079 104.342L282.151 98.634L281.999 92.9184L282.031 87.2107L282.318 81.4951L282.079 75.7875L282.653 70.0718L282.709 64.3642L282.023 58.6486L282.206 52.933L282.773 47.2173L282.43 41.5177L285.575 41.4618L285.607 47.2093L285.144 52.925V58.6326L285.224 64.3482L285.32 70.0559L285.535 75.7715L285.735 81.4791L285.695 87.1948L285.878 92.9024L285.695 98.618L285.328 104.334L285.91 110.041L285.511 115.757L285.695 121.473L285.839 127.372Z" fill="#DBF1FF"/>
<path d="M274.471 129.207L272.06 129.223L272.38 105.418L274.495 105.402L274.471 129.207Z" fill="#00569C"/>
<path d="M304.159 158.137L284.865 157.714L285.057 142.882L285.096 128.346L304.055 128.29L304.463 142.882L304.159 158.137Z" fill="#DBF1FF"/>
<path d="M298.028 157.882L291.067 157.89L291.011 133.814L297.972 133.838L298.028 157.882Z" fill="#00569C"/>
<path d="M298.387 128.968L290.461 129.12L289.75 114.328L290.66 99.6558L298.962 99.3525L298.571 114.328L298.387 128.968Z" fill="#DBF1FF"/>
<path d="M296.304 129.279L293.67 129.175L292.863 105.339L295.506 105.435L296.304 129.279Z" fill="#00569C"/>
<path d="M325.193 158.137L306.083 158.361L305.692 142.882L305.987 127.939L325.273 128.258L325.161 142.874L325.193 158.137Z" fill="#DBF1FF"/>
<path d="M318.536 157.706L312.429 157.842L312.405 133.862L318.736 133.949L318.536 157.706Z" fill="#00569C"/>
<path d="M320.428 129.455L311.758 129.063L311.072 114.327L311.311 99.3358L320.5 99.1602L320.276 114.327L320.428 129.455Z" fill="#DBF1FF"/>
<path d="M317.538 129.279L314.584 129.207L314.401 105.379L317.362 105.347L317.538 129.279Z" fill="#00569C"/>
<path d="M262.76 77.5995L264.429 74.3186L266.097 70.9739L266.001 74.7098L265.938 78.4696L268.899 76.1467L272.004 74.0951L270.344 77.4239L268.58 80.5132L272.124 80.162L275.868 79.5633L272.683 81.6228L269.689 83.6903L273.082 84.9995L276.451 86.1969L272.914 86.7238L269.147 86.9553L271.637 89.7891L274.2 92.4314L270.823 90.9546L267.311 89.6774L268.332 93.2696L269.163 96.7421L266.72 94.1397L264.413 91.234L263.487 94.8262L262.76 98.4583L262.034 94.8262L261.108 91.218L258.737 94.0838L256.254 96.9257L257.149 93.2616L258.162 89.7173L254.73 91.0584L251.273 92.4553L253.772 89.6933L256.31 86.9792L252.614 86.5801L248.855 86.2208L252.399 84.9197L255.903 83.6983L252.758 81.7266L249.86 79.6431L253.413 80.0023L257.125 80.6489L255.321 77.3441L253.58 74.1749L256.534 76.2584L259.495 78.318L259.424 74.7098L259.416 70.9659L261.148 74.2867L262.76 77.5995Z" fill="#DBF1FF"/>
<path d="M283.955 77.7185L285.559 74.286L287.276 71.045L287.26 74.709L287.172 78.405L290.149 76.2258L293.223 74.0704L291.347 77.3194L289.782 80.5125L293.295 79.9936L296.927 79.6104L293.941 81.7179L290.788 83.7056L294.261 85.0467L297.685 86.1962L294.093 86.5714L290.453 86.9944L292.903 89.7245L295.338 92.3828L291.954 91.1454L288.593 89.7724L289.527 93.2689L290.397 96.8132L288.066 94.0112L285.647 91.3849L284.825 94.8574L283.955 98.4097L283.133 94.8494L282.278 91.337L279.876 94.0352L277.545 96.7413L278.295 93.2529L279.317 89.7724L275.98 91.2013L272.42 92.4945L275.038 89.7565L277.345 87.0423L273.817 86.5714L270.129 86.2121L273.625 84.9988L277.154 83.7056L273.945 81.7498L271.071 79.6424L274.583 80.2091L278.231 80.5763L276.603 77.2954L274.791 74.1902L277.76 76.2178L280.778 78.4689L280.554 74.709L280.642 71.0849L282.199 74.3578L283.955 77.7185Z" fill="#DBF1FF"/>
<path d="M163.655 158.2L152.919 158.016L152.671 149.914L152.974 141.875L163.623 141.668L163.695 149.914L163.655 158.2Z" fill="#DBF1FF"/>
<path d="M159.664 157.937L156.75 157.945L156.782 145.117L159.776 145.085L159.664 157.937Z" fill="#00569C"/>
<path d="M160.67 142.578L156.064 142.411L155.816 134.428L155.984 126.397L160.438 126.413L160.821 134.428L160.67 142.578Z" fill="#DBF1FF"/>
<path d="M159.105 142.53L157.501 142.514L157.596 129.59L158.754 129.598L159.105 142.53Z" fill="#00569C"/>
<path d="M175.007 158.009L164.605 157.777L164.222 149.914L164.542 141.972L174.839 142.035L174.975 149.914L175.007 158.009Z" fill="#DBF1FF"/>
<path d="M171.598 158.048L168.102 157.976L168.086 145.068L171.207 145.108L171.598 158.048Z" fill="#00569C"/>
<path d="M171.798 142.37L167.647 142.362L167.08 134.427L167.567 126.453L172.309 126.189L172.061 134.427L171.798 142.37Z" fill="#DBF1FF"/>
<path d="M170.281 142.491L169.044 142.507L168.9 129.567L170.704 129.551L170.281 142.491Z" fill="#00569C"/>
<path d="M186.614 157.083L175.733 158.248L175.869 149.914L175.773 141.628L186.661 141.612L186.286 149.914L186.614 157.083Z" fill="#DBF1FF"/>
<path d="M183.109 158.056L179.525 158L179.557 145.06L182.654 145.124L183.109 158.056Z" fill="#00569C"/>
<path d="M183.748 142.634L178.934 142.483L178.799 134.428L178.671 126.222L183.301 126.485L183.389 134.436L183.748 142.634Z" fill="#DBF1FF"/>
<path d="M176.156 141.325L174.44 141.501L174.512 138.308L174.823 135.21L174.64 132.113L174.576 129.016L174.568 125.919L174.815 122.821V119.724L174.775 116.627L174.719 113.529L174.608 110.432L174.496 107.335L174.52 104.23L174.416 101.132L174.52 98.035L174.703 94.9776L176.5 94.8259L176.308 98.027L176.404 101.124L176.42 104.222L176.308 107.319L176.404 110.424L176.46 113.521L176.476 116.619L176.124 119.716L176.292 122.813L176.276 125.911L176.077 129.008L176.172 132.105L176.132 135.202L176.22 138.3L176.156 141.325Z" fill="#DBF1FF"/>
<path d="M187.979 141.5L186.262 141.325L186.159 138.307L186.222 135.21L186.199 132.113L185.943 129.015L185.983 125.918L185.895 122.821L185.919 119.723L186.071 116.626L185.943 113.529L186.254 110.431L186.286 107.334L185.911 104.229L186.015 101.132L186.318 98.0343L186.135 94.937L187.835 94.9131L187.859 98.0264L187.603 101.124V104.221L187.651 107.318L187.699 110.424L187.819 113.521L187.923 116.618L187.907 119.715L188.003 122.813L187.907 125.91L187.707 129.007L188.019 132.105L187.803 135.202L187.899 138.299L187.979 141.5Z" fill="#DBF1FF"/>
<path d="M181.816 142.498L180.507 142.506L180.683 129.598L181.832 129.59L181.816 142.498Z" fill="#00569C"/>
<path d="M197.917 157.904L187.468 157.01L187.556 149.914L187.58 142.027L197.861 142.003L198.077 149.914L197.917 157.904Z" fill="#DBF1FF"/>
<path d="M194.596 158.048L190.813 158.056L190.789 144.997L194.564 145.013L194.596 158.048Z" fill="#00569C"/>
<path d="M194.788 142.371L190.485 142.45L190.102 134.428L190.597 126.469L195.099 126.309L194.884 134.428L194.788 142.371Z" fill="#DBF1FF"/>
<path d="M193.654 142.538L192.225 142.482L191.786 129.558L193.223 129.606L193.654 142.538Z" fill="#00569C"/>
<path d="M209.325 157.785L198.955 157.952L198.748 149.914L198.907 141.811L209.372 141.979L209.309 149.914L209.325 157.785Z" fill="#DBF1FF"/>
<path d="M205.716 157.952L202.403 158.032L202.388 145.02L205.82 145.068L205.716 157.952Z" fill="#00569C"/>
<path d="M206.738 142.634L202.036 142.419L201.661 134.428L201.797 126.302L206.778 126.206L206.658 134.428L206.738 142.634Z" fill="#DBF1FF"/>
<path d="M205.174 142.538L203.569 142.498L203.465 129.574L205.078 129.558L205.174 142.538Z" fill="#00569C"/>
<path d="M175.462 114.511L176.372 112.731L177.274 110.919L177.226 112.946L177.186 114.982L178.799 113.721L180.475 112.611L179.573 114.415L178.623 116.092L180.539 115.9L182.575 115.573L180.85 116.69L179.222 117.816L181.066 118.526L182.886 119.173L180.97 119.46L178.927 119.588L180.276 121.121L181.673 122.558L179.837 121.751L177.937 121.057L178.488 123.013L178.943 124.889L177.617 123.476L176.356 121.903L175.861 123.851L175.462 125.823L175.071 123.851L174.568 121.895L173.283 123.452L171.934 124.992L172.421 123.005L172.971 121.081L171.111 121.807L169.236 122.566L170.593 121.073L171.966 119.596L169.962 119.38L167.926 119.189L169.85 118.478L171.742 117.816L170.042 116.746L168.469 115.621L170.393 115.812L172.413 116.163L171.431 114.367L170.489 112.651L172.085 113.785L173.698 114.902L173.658 112.946L173.65 110.911L174.592 112.715L175.462 114.511Z" fill="#DBF1FF"/>
<path d="M186.957 114.575L187.827 112.715L188.761 110.959L188.753 112.946L188.705 114.95L190.318 113.761L191.986 112.595L190.964 114.359L190.118 116.092L192.026 115.812L193.99 115.605L192.377 116.746L190.661 117.824L192.553 118.55L194.405 119.173L192.457 119.372L190.485 119.604L191.81 121.089L193.128 122.534L191.292 121.855L189.48 121.113L189.982 123.013L190.453 124.928L189.184 123.412L187.875 121.991L187.436 123.875L186.957 125.799L186.518 123.867L186.047 121.959L184.746 123.428L183.484 124.889L183.892 122.997L184.442 121.113L182.638 121.887L180.699 122.589L182.119 121.105L183.373 119.628L181.457 119.372L179.461 119.181L181.361 118.526L183.269 117.824L181.529 116.762L179.972 115.621L181.88 115.924L183.852 116.123L182.974 114.343L181.992 112.659L183.596 113.761L185.233 114.982L185.113 112.946L185.161 110.975L186.007 112.755L186.957 114.575Z" fill="#DBF1FF"/>
<path d="M344.424 156.324L313.738 158.113L282.997 158.105L252.263 156.324L221.522 159.988L190.78 157.386L160.039 159.645L129.297 158.089L129.345 159.246L160.031 157.642L190.764 156.452L221.506 156.292L252.247 156.045L282.989 155.678L313.73 159.238L344.471 157.21L344.424 156.324Z" fill="#DBF1FF"/>
<path d="M107.194 148.43L84.2832 147.001L61.5644 145.755L40.1308 136.918L14.7857 135.035L14.7697 134.739L40.6337 134.827L61.6362 145.468L84.4029 145.859L107.273 146.554L107.194 148.43Z" fill="#DBF1FF"/>
<path d="M23.7904 158.145L-5.40234 158.344L-5.39436 157.283L23.7904 157.227V158.145Z" fill="#DBF1FF"/>
<path d="M-14 146.713L-13.984 145.675L11.5686 144.973L37.1452 145.212L37.1373 146.218L11.5686 145.954L-14 146.713Z" fill="#DBF1FF"/>
<path d="M385.71 147.664H361.954L338.189 147.736V146.722L361.962 146.714L385.726 147.281L385.71 147.664Z" fill="#DBF1FF"/>
<path d="M143.291 134.708L117.747 134.556L92.2101 134.404L92.1941 132.943L117.747 133.494L143.283 133.351L143.291 134.708Z" fill="#DBF1FF"/>
</g>
<defs>
<clipPath id="clip0_1364_164448">
<rect width="386" height="163" fill="white"/>
</clipPath>
</defs>
</svg>
