<svg width="101" height="101" viewBox="0 0 101 101" fill="none" xmlns="http://www.w3.org/2000/svg">
<g clip-path="url(#clip0_1364_165708)">
<path d="M101 0H0V101H101V0Z" fill="#A80C7C"/>
<path d="M49.7661 88.194C69.6945 88.194 85.8497 83.6382 85.8497 78.0183C85.8497 72.3985 69.6945 67.8427 49.7661 67.8427C29.8376 67.8427 13.6824 72.3985 13.6824 78.0183C13.6824 83.6382 29.8376 88.194 49.7661 88.194Z" fill="#A80C7C" stroke="#FFFEF5" stroke-width="0.5" stroke-miterlimit="10"/>
<path d="M49.7661 88.1991C69.6938 88.1991 85.8497 83.6428 85.8497 78.0234V89.8243C85.8497 95.4462 69.6938 100 49.7661 100C29.8383 100 13.6824 95.4386 13.6824 89.8192V78.0183C13.6824 83.6377 29.8383 88.1991 49.7661 88.1991Z" fill="#A80C7C" stroke="#FFFEF5" stroke-width="0.5" stroke-miterlimit="10"/>
<path d="M49.7661 88.1941V99.9949" stroke="#FFFEF5" stroke-width="0.5" stroke-miterlimit="10"/>
<path d="M46.1566 88.1429V99.9437" stroke="#FFFEF5" stroke-width="0.5" stroke-miterlimit="10"/>
<path d="M42.5498 87.9896V99.7905" stroke="#FFFEF5" stroke-width="0.5" stroke-miterlimit="10"/>
<path d="M38.9405 87.729V99.5273" stroke="#FFFEF5" stroke-width="0.5" stroke-miterlimit="10"/>
<path d="M35.3336 87.3456V99.1465" stroke="#FFFEF5" stroke-width="0.5" stroke-miterlimit="10"/>
<path d="M31.7242 86.832V98.6328" stroke="#FFFEF5" stroke-width="0.5" stroke-miterlimit="10"/>
<path d="M28.1175 86.1599V97.9583" stroke="#FFFEF5" stroke-width="0.5" stroke-miterlimit="10"/>
<path d="M24.5081 85.2834V97.0843" stroke="#FFFEF5" stroke-width="0.5" stroke-miterlimit="10"/>
<path d="M20.8986 84.1232V95.9241" stroke="#FFFEF5" stroke-width="0.5" stroke-miterlimit="10"/>
<path d="M17.2919 82.4571V94.258" stroke="#FFFEF5" stroke-width="0.5" stroke-miterlimit="10"/>
<path d="M82.2403 82.4571V94.258" stroke="#FFFEF5" stroke-width="0.5" stroke-miterlimit="10"/>
<path d="M78.6335 84.1232V95.9241" stroke="#FFFEF5" stroke-width="0.5" stroke-miterlimit="10"/>
<path d="M75.024 85.2834V97.0843" stroke="#FFFEF5" stroke-width="0.5" stroke-miterlimit="10"/>
<path d="M71.4147 86.1599V97.9583" stroke="#FFFEF5" stroke-width="0.5" stroke-miterlimit="10"/>
<path d="M67.8079 86.832V98.6328" stroke="#FFFEF5" stroke-width="0.5" stroke-miterlimit="10"/>
<path d="M64.1985 87.3456V99.1465" stroke="#FFFEF5" stroke-width="0.5" stroke-miterlimit="10"/>
<path d="M60.5917 87.729V99.5273" stroke="#FFFEF5" stroke-width="0.5" stroke-miterlimit="10"/>
<path d="M56.9823 87.9896V99.7905" stroke="#FFFEF5" stroke-width="0.5" stroke-miterlimit="10"/>
<path d="M53.3754 88.1429V99.9437" stroke="#FFFEF5" stroke-width="0.5" stroke-miterlimit="10"/>
<path d="M35.6149 74.5302C55.5433 74.5302 71.6985 69.9744 71.6985 64.3545C71.6985 58.7347 55.5433 54.1789 35.6149 54.1789C15.6864 54.1789 -0.46875 58.7347 -0.46875 64.3545C-0.46875 69.9744 15.6864 74.5302 35.6149 74.5302Z" fill="#A80C7C" stroke="#FFFEF5" stroke-width="0.5" stroke-miterlimit="10"/>
<path d="M35.6149 74.5303C55.5427 74.5303 71.6959 69.974 71.6959 64.3546V76.1555C71.6959 81.7774 55.5427 86.3312 35.6149 86.3312C15.6871 86.3312 -0.46875 81.7749 -0.46875 76.1555V64.3546C-0.46875 69.974 15.6871 74.5303 35.6149 74.5303Z" fill="#A80C7C" stroke="#FFFEF5" stroke-width="0.5" stroke-miterlimit="10"/>
<path d="M35.6149 74.5302V86.3311" stroke="#FFFEF5" stroke-width="0.5" stroke-miterlimit="10"/>
<path d="M32.0055 74.4792V86.28" stroke="#FFFEF5" stroke-width="0.5" stroke-miterlimit="10"/>
<path d="M28.3986 74.3258V86.1267" stroke="#FFFEF5" stroke-width="0.5" stroke-miterlimit="10"/>
<path d="M24.7893 74.0651V85.8635" stroke="#FFFEF5" stroke-width="0.5" stroke-miterlimit="10"/>
<path d="M21.1799 73.6844V85.4828" stroke="#FFFEF5" stroke-width="0.5" stroke-miterlimit="10"/>
<path d="M17.573 73.1682V84.969" stroke="#FFFEF5" stroke-width="0.5" stroke-miterlimit="10"/>
<path d="M13.9637 72.4961V84.297" stroke="#FFFEF5" stroke-width="0.5" stroke-miterlimit="10"/>
<path d="M10.3569 71.6221V83.4204" stroke="#FFFEF5" stroke-width="0.5" stroke-miterlimit="10"/>
<path d="M6.74742 70.462V82.2603" stroke="#FFFEF5" stroke-width="0.5" stroke-miterlimit="10"/>
<path d="M3.1407 68.7959V80.5942" stroke="#FFFEF5" stroke-width="0.5" stroke-miterlimit="10"/>
<path d="M68.0891 68.7959V80.5942" stroke="#FFFEF5" stroke-width="0.5" stroke-miterlimit="10"/>
<path d="M64.4797 70.462V82.2603" stroke="#FFFEF5" stroke-width="0.5" stroke-miterlimit="10"/>
<path d="M60.8729 71.6221V83.4204" stroke="#FFFEF5" stroke-width="0.5" stroke-miterlimit="10"/>
<path d="M57.2635 72.4961V84.297" stroke="#FFFEF5" stroke-width="0.5" stroke-miterlimit="10"/>
<path d="M53.6567 73.1682V84.969" stroke="#FFFEF5" stroke-width="0.5" stroke-miterlimit="10"/>
<path d="M50.0472 73.6844V85.4828" stroke="#FFFEF5" stroke-width="0.5" stroke-miterlimit="10"/>
<path d="M46.4379 74.0651V85.8635" stroke="#FFFEF5" stroke-width="0.5" stroke-miterlimit="10"/>
<path d="M42.8311 74.3258V86.1267" stroke="#FFFEF5" stroke-width="0.5" stroke-miterlimit="10"/>
<path d="M39.2216 74.4792V86.28" stroke="#FFFEF5" stroke-width="0.5" stroke-miterlimit="10"/>
<path d="M49.7661 60.8665C69.6945 60.8665 85.8497 56.3107 85.8497 50.6908C85.8497 45.071 69.6945 40.5152 49.7661 40.5152C29.8376 40.5152 13.6824 45.071 13.6824 50.6908C13.6824 56.3107 29.8376 60.8665 49.7661 60.8665Z" fill="#A80C7C" stroke="#FFFEF5" stroke-width="0.5" stroke-miterlimit="10"/>
<path d="M49.7661 60.8563C69.6938 60.8563 85.8497 56.3025 85.8497 50.6806V62.4917C85.8497 68.1136 69.6938 72.6674 49.7661 72.6674C29.8383 72.6674 13.6824 68.1111 13.6824 62.4917V50.6908C13.6824 56.3127 29.8383 60.8563 49.7661 60.8563Z" fill="#A80C7C" stroke="#FFFEF5" stroke-width="0.5" stroke-miterlimit="10"/>
<path d="M49.7661 60.8664V72.6673" stroke="#FFFEF5" stroke-width="0.5" stroke-miterlimit="10"/>
<path d="M46.1566 60.8178V72.6162" stroke="#FFFEF5" stroke-width="0.5" stroke-miterlimit="10"/>
<path d="M42.5498 60.6646V72.4629" stroke="#FFFEF5" stroke-width="0.5" stroke-miterlimit="10"/>
<path d="M38.9405 60.4013V72.2022" stroke="#FFFEF5" stroke-width="0.5" stroke-miterlimit="10"/>
<path d="M35.3336 60.0206V71.819" stroke="#FFFEF5" stroke-width="0.5" stroke-miterlimit="10"/>
<path d="M31.7242 59.5069V71.3053" stroke="#FFFEF5" stroke-width="0.5" stroke-miterlimit="10"/>
<path d="M28.1175 58.8323V70.6332" stroke="#FFFEF5" stroke-width="0.5" stroke-miterlimit="10"/>
<path d="M24.5081 57.9584V69.7567" stroke="#FFFEF5" stroke-width="0.5" stroke-miterlimit="10"/>
<path d="M20.8986 56.7982V68.5965" stroke="#FFFEF5" stroke-width="0.5" stroke-miterlimit="10"/>
<path d="M17.2919 55.1321V66.933" stroke="#FFFEF5" stroke-width="0.5" stroke-miterlimit="10"/>
<path d="M82.2403 55.1321V66.933" stroke="#FFFEF5" stroke-width="0.5" stroke-miterlimit="10"/>
<path d="M78.6335 56.7982V68.5965" stroke="#FFFEF5" stroke-width="0.5" stroke-miterlimit="10"/>
<path d="M75.024 57.9584V69.7567" stroke="#FFFEF5" stroke-width="0.5" stroke-miterlimit="10"/>
<path d="M71.4147 58.8323V70.6332" stroke="#FFFEF5" stroke-width="0.5" stroke-miterlimit="10"/>
<path d="M67.8079 59.5069V71.3053" stroke="#FFFEF5" stroke-width="0.5" stroke-miterlimit="10"/>
<path d="M64.1985 60.0206V71.819" stroke="#FFFEF5" stroke-width="0.5" stroke-miterlimit="10"/>
<path d="M60.5917 60.4013V72.2022" stroke="#FFFEF5" stroke-width="0.5" stroke-miterlimit="10"/>
<path d="M56.9823 60.6646V72.4629" stroke="#FFFEF5" stroke-width="0.5" stroke-miterlimit="10"/>
<path d="M53.3754 60.8178V72.6162" stroke="#FFFEF5" stroke-width="0.5" stroke-miterlimit="10"/>
<path d="M49.7661 47.2052C69.6945 47.2052 85.8497 42.6494 85.8497 37.0295C85.8497 31.4097 69.6945 26.8539 49.7661 26.8539C29.8376 26.8539 13.6824 31.4097 13.6824 37.0295C13.6824 42.6494 29.8376 47.2052 49.7661 47.2052Z" fill="#A80C7C" stroke="#FFFEF5" stroke-width="0.5" stroke-miterlimit="10"/>
<path d="M49.7661 47.2053C69.6938 47.2053 85.8497 42.649 85.8497 37.0296V48.8279C85.8497 54.4498 69.6938 59.0036 49.7661 59.0036C29.8383 59.0036 13.6824 54.4473 13.6824 48.8279V37.0296C13.6824 42.649 29.8383 47.2053 49.7661 47.2053Z" fill="#A80C7C" stroke="#FFFEF5" stroke-width="0.5" stroke-miterlimit="10"/>
<path d="M49.7661 47.2052V59.0036" stroke="#FFFEF5" stroke-width="0.5" stroke-miterlimit="10"/>
<path d="M46.1566 47.1541V58.955" stroke="#FFFEF5" stroke-width="0.5" stroke-miterlimit="10"/>
<path d="M42.5498 47.0008V58.8017" stroke="#FFFEF5" stroke-width="0.5" stroke-miterlimit="10"/>
<path d="M38.9405 46.7375V58.5384" stroke="#FFFEF5" stroke-width="0.5" stroke-miterlimit="10"/>
<path d="M35.3336 46.3568V58.1577" stroke="#FFFEF5" stroke-width="0.5" stroke-miterlimit="10"/>
<path d="M31.7242 45.8431V57.6415" stroke="#FFFEF5" stroke-width="0.5" stroke-miterlimit="10"/>
<path d="M28.1175 45.1686V56.9695" stroke="#FFFEF5" stroke-width="0.5" stroke-miterlimit="10"/>
<path d="M24.5081 44.2946V56.0955" stroke="#FFFEF5" stroke-width="0.5" stroke-miterlimit="10"/>
<path d="M20.8986 43.1345V54.9354" stroke="#FFFEF5" stroke-width="0.5" stroke-miterlimit="10"/>
<path d="M17.2919 41.4684V53.2693" stroke="#FFFEF5" stroke-width="0.5" stroke-miterlimit="10"/>
<path d="M82.2403 41.4684V53.2693" stroke="#FFFEF5" stroke-width="0.5" stroke-miterlimit="10"/>
<path d="M78.6335 43.1345V54.9354" stroke="#FFFEF5" stroke-width="0.5" stroke-miterlimit="10"/>
<path d="M75.024 44.2946V56.0955" stroke="#FFFEF5" stroke-width="0.5" stroke-miterlimit="10"/>
<path d="M71.4147 45.1686V56.9695" stroke="#FFFEF5" stroke-width="0.5" stroke-miterlimit="10"/>
<path d="M67.8079 45.8431V57.6415" stroke="#FFFEF5" stroke-width="0.5" stroke-miterlimit="10"/>
<path d="M64.1985 46.3568V58.1577" stroke="#FFFEF5" stroke-width="0.5" stroke-miterlimit="10"/>
<path d="M60.5917 46.7375V58.5384" stroke="#FFFEF5" stroke-width="0.5" stroke-miterlimit="10"/>
<path d="M56.9823 47.0008V58.8017" stroke="#FFFEF5" stroke-width="0.5" stroke-miterlimit="10"/>
<path d="M53.3754 47.1541V58.955" stroke="#FFFEF5" stroke-width="0.5" stroke-miterlimit="10"/>
<path d="M64.8821 33.5415C84.8106 33.5415 100.966 28.9857 100.966 23.3658C100.966 17.746 84.8106 13.1902 64.8821 13.1902C44.9537 13.1902 28.7985 17.746 28.7985 23.3658C28.7985 28.9857 44.9537 33.5415 64.8821 33.5415Z" fill="#A80C7C" stroke="#FFFEF5" stroke-width="0.5" stroke-miterlimit="10"/>
<path d="M64.8821 33.5414C84.8099 33.5414 100.966 28.9851 100.966 23.3658V35.1641C100.966 40.786 84.8099 45.3423 64.8821 45.3423C44.9544 45.3423 28.7985 40.786 28.7985 35.1641V23.3658C28.7985 28.9851 44.9544 33.5414 64.8821 33.5414Z" fill="#A80C7C" stroke="#FFFEF5" stroke-width="0.5" stroke-miterlimit="10"/>
<path d="M64.8822 33.5414V45.3423" stroke="#FFFEF5" stroke-width="0.5" stroke-miterlimit="10"/>
<path d="M61.2728 33.4903V45.2912" stroke="#FFFEF5" stroke-width="0.5" stroke-miterlimit="10"/>
<path d="M57.6659 33.337V45.1378" stroke="#FFFEF5" stroke-width="0.5" stroke-miterlimit="10"/>
<path d="M54.0566 33.0738V44.8747" stroke="#FFFEF5" stroke-width="0.5" stroke-miterlimit="10"/>
<path d="M50.4498 32.693V44.4939" stroke="#FFFEF5" stroke-width="0.5" stroke-miterlimit="10"/>
<path d="M46.8403 32.1794V43.9803" stroke="#FFFEF5" stroke-width="0.5" stroke-miterlimit="10"/>
<path d="M43.231 31.5073V43.3056" stroke="#FFFEF5" stroke-width="0.5" stroke-miterlimit="10"/>
<path d="M39.6241 30.6308V42.4317" stroke="#FFFEF5" stroke-width="0.5" stroke-miterlimit="10"/>
<path d="M36.0148 29.4707V41.2716" stroke="#FFFEF5" stroke-width="0.5" stroke-miterlimit="10"/>
<path d="M32.408 27.8046V39.6054" stroke="#FFFEF5" stroke-width="0.5" stroke-miterlimit="10"/>
<path d="M97.3564 27.8046V39.6054" stroke="#FFFEF5" stroke-width="0.5" stroke-miterlimit="10"/>
<path d="M93.747 29.4707V41.2716" stroke="#FFFEF5" stroke-width="0.5" stroke-miterlimit="10"/>
<path d="M90.1403 30.6308V42.4317" stroke="#FFFEF5" stroke-width="0.5" stroke-miterlimit="10"/>
<path d="M86.5308 31.5073V43.3056" stroke="#FFFEF5" stroke-width="0.5" stroke-miterlimit="10"/>
<path d="M82.924 32.1794V43.9803" stroke="#FFFEF5" stroke-width="0.5" stroke-miterlimit="10"/>
<path d="M79.3146 32.693V44.4939" stroke="#FFFEF5" stroke-width="0.5" stroke-miterlimit="10"/>
<path d="M75.7078 33.0738V44.8747" stroke="#FFFEF5" stroke-width="0.5" stroke-miterlimit="10"/>
<path d="M72.0984 33.337V45.1378" stroke="#FFFEF5" stroke-width="0.5" stroke-miterlimit="10"/>
<path d="M68.489 33.4903V45.2912" stroke="#FFFEF5" stroke-width="0.5" stroke-miterlimit="10"/>
<path d="M64.8821 19.8777C84.8106 19.8777 100.966 15.3219 100.966 9.70201C100.966 4.08216 84.8106 -0.473633 64.8821 -0.473633C44.9537 -0.473633 28.7985 4.08216 28.7985 9.70201C28.7985 15.3219 44.9537 19.8777 64.8821 19.8777Z" fill="#A80C7C" stroke="#FFFEF5" stroke-width="0.5" stroke-miterlimit="10"/>
<path d="M64.8821 19.8776C84.8099 19.8776 100.966 15.3213 100.966 9.70198V21.5029C100.966 27.1248 84.8099 31.6785 64.8821 31.6785C44.9544 31.6785 28.7985 27.1248 28.7985 21.5029V9.70198C28.7985 15.3213 44.9544 19.8776 64.8821 19.8776Z" fill="#A80C7C" stroke="#FFFEF5" stroke-width="0.5" stroke-miterlimit="10"/>
<path d="M64.8822 19.8776V31.6785" stroke="#FFFEF5" stroke-width="0.5" stroke-miterlimit="10"/>
<path d="M61.2728 19.8265V31.6274" stroke="#FFFEF5" stroke-width="0.5" stroke-miterlimit="10"/>
<path d="M57.6659 19.6733V31.4741" stroke="#FFFEF5" stroke-width="0.5" stroke-miterlimit="10"/>
<path d="M54.0566 19.4126V31.211" stroke="#FFFEF5" stroke-width="0.5" stroke-miterlimit="10"/>
<path d="M50.4498 19.0293V30.8302" stroke="#FFFEF5" stroke-width="0.5" stroke-miterlimit="10"/>
<path d="M46.8403 18.5156V30.3165" stroke="#FFFEF5" stroke-width="0.5" stroke-miterlimit="10"/>
<path d="M43.231 17.8436V29.6445" stroke="#FFFEF5" stroke-width="0.5" stroke-miterlimit="10"/>
<path d="M39.6241 16.9671V28.768" stroke="#FFFEF5" stroke-width="0.5" stroke-miterlimit="10"/>
<path d="M36.0148 15.8095V27.6078" stroke="#FFFEF5" stroke-width="0.5" stroke-miterlimit="10"/>
<path d="M32.408 14.1434V25.9417" stroke="#FFFEF5" stroke-width="0.5" stroke-miterlimit="10"/>
<path d="M97.3564 14.1434V25.9417" stroke="#FFFEF5" stroke-width="0.5" stroke-miterlimit="10"/>
<path d="M93.747 15.8095V27.6078" stroke="#FFFEF5" stroke-width="0.5" stroke-miterlimit="10"/>
<path d="M90.1403 16.9671V28.768" stroke="#FFFEF5" stroke-width="0.5" stroke-miterlimit="10"/>
<path d="M86.5308 17.8436V29.6445" stroke="#FFFEF5" stroke-width="0.5" stroke-miterlimit="10"/>
<path d="M82.924 18.5156V30.3165" stroke="#FFFEF5" stroke-width="0.5" stroke-miterlimit="10"/>
<path d="M79.3146 19.0293V30.8302" stroke="#FFFEF5" stroke-width="0.5" stroke-miterlimit="10"/>
<path d="M75.7078 19.4126V31.211" stroke="#FFFEF5" stroke-width="0.5" stroke-miterlimit="10"/>
<path d="M72.0984 19.6733V31.4741" stroke="#FFFEF5" stroke-width="0.5" stroke-miterlimit="10"/>
<path d="M68.489 19.8265V31.6274" stroke="#FFFEF5" stroke-width="0.5" stroke-miterlimit="10"/>
</g>
<defs>
<clipPath id="clip0_1364_165708">
<rect width="101" height="101" fill="white"/>
</clipPath>
</defs>
</svg>
