<svg width="101" height="101" viewBox="0 0 101 101" fill="none" xmlns="http://www.w3.org/2000/svg">
<g clip-path="url(#clip0_1364_165037)">
<path d="M101 0H0V101H101V0Z" fill="#208FDF"/>
<path d="M50.7661 89.194C70.6945 89.194 86.8497 84.6382 86.8497 79.0183C86.8497 73.3985 70.6945 68.8427 50.7661 68.8427C30.8376 68.8427 14.6824 73.3985 14.6824 79.0183C14.6824 84.6382 30.8376 89.194 50.7661 89.194Z" fill="#208FDF" stroke="#FFFEF5" stroke-width="0.5" stroke-miterlimit="10"/>
<path d="M50.7661 89.1991C70.6938 89.1991 86.8497 84.6428 86.8497 79.0234V90.8243C86.8497 96.4462 70.6938 101 50.7661 101C30.8383 101 14.6824 96.4386 14.6824 90.8192V79.0183C14.6824 84.6377 30.8383 89.1991 50.7661 89.1991Z" fill="#208FDF" stroke="#FFFEF5" stroke-width="0.5" stroke-miterlimit="10"/>
<path d="M50.7661 89.1941V100.995" stroke="#FFFEF5" stroke-width="0.5" stroke-miterlimit="10"/>
<path d="M47.1566 89.1429V100.944" stroke="#FFFEF5" stroke-width="0.5" stroke-miterlimit="10"/>
<path d="M43.5498 88.9896V100.79" stroke="#FFFEF5" stroke-width="0.5" stroke-miterlimit="10"/>
<path d="M39.9405 88.729V100.527" stroke="#FFFEF5" stroke-width="0.5" stroke-miterlimit="10"/>
<path d="M36.3336 88.3456V100.147" stroke="#FFFEF5" stroke-width="0.5" stroke-miterlimit="10"/>
<path d="M32.7242 87.832V99.6328" stroke="#FFFEF5" stroke-width="0.5" stroke-miterlimit="10"/>
<path d="M29.1175 87.1599V98.9583" stroke="#FFFEF5" stroke-width="0.5" stroke-miterlimit="10"/>
<path d="M25.5081 86.2834V98.0843" stroke="#FFFEF5" stroke-width="0.5" stroke-miterlimit="10"/>
<path d="M21.8986 85.1232V96.9241" stroke="#FFFEF5" stroke-width="0.5" stroke-miterlimit="10"/>
<path d="M18.2919 83.4571V95.258" stroke="#FFFEF5" stroke-width="0.5" stroke-miterlimit="10"/>
<path d="M83.2403 83.4571V95.258" stroke="#FFFEF5" stroke-width="0.5" stroke-miterlimit="10"/>
<path d="M79.6335 85.1232V96.9241" stroke="#FFFEF5" stroke-width="0.5" stroke-miterlimit="10"/>
<path d="M76.024 86.2834V98.0843" stroke="#FFFEF5" stroke-width="0.5" stroke-miterlimit="10"/>
<path d="M72.4147 87.1599V98.9583" stroke="#FFFEF5" stroke-width="0.5" stroke-miterlimit="10"/>
<path d="M68.8079 87.832V99.6328" stroke="#FFFEF5" stroke-width="0.5" stroke-miterlimit="10"/>
<path d="M65.1985 88.3456V100.147" stroke="#FFFEF5" stroke-width="0.5" stroke-miterlimit="10"/>
<path d="M61.5917 88.729V100.527" stroke="#FFFEF5" stroke-width="0.5" stroke-miterlimit="10"/>
<path d="M57.9823 88.9896V100.79" stroke="#FFFEF5" stroke-width="0.5" stroke-miterlimit="10"/>
<path d="M54.3754 89.1429V100.944" stroke="#FFFEF5" stroke-width="0.5" stroke-miterlimit="10"/>
<path d="M36.6149 75.5302C56.5433 75.5302 72.6985 70.9744 72.6985 65.3545C72.6985 59.7347 56.5433 55.1789 36.6149 55.1789C16.6864 55.1789 0.53125 59.7347 0.53125 65.3545C0.53125 70.9744 16.6864 75.5302 36.6149 75.5302Z" fill="#208FDF" stroke="#FFFEF5" stroke-width="0.5" stroke-miterlimit="10"/>
<path d="M36.6149 75.5303C56.5427 75.5303 72.6959 70.974 72.6959 65.3546V77.1555C72.6959 82.7774 56.5427 87.3312 36.6149 87.3312C16.6871 87.3312 0.53125 82.7749 0.53125 77.1555V65.3546C0.53125 70.974 16.6871 75.5303 36.6149 75.5303Z" fill="#208FDF" stroke="#FFFEF5" stroke-width="0.5" stroke-miterlimit="10"/>
<path d="M36.6149 75.5302V87.3311" stroke="#FFFEF5" stroke-width="0.5" stroke-miterlimit="10"/>
<path d="M33.0055 75.4792V87.28" stroke="#FFFEF5" stroke-width="0.5" stroke-miterlimit="10"/>
<path d="M29.3986 75.3258V87.1267" stroke="#FFFEF5" stroke-width="0.5" stroke-miterlimit="10"/>
<path d="M25.7893 75.0651V86.8635" stroke="#FFFEF5" stroke-width="0.5" stroke-miterlimit="10"/>
<path d="M22.1799 74.6844V86.4828" stroke="#FFFEF5" stroke-width="0.5" stroke-miterlimit="10"/>
<path d="M18.573 74.1682V85.969" stroke="#FFFEF5" stroke-width="0.5" stroke-miterlimit="10"/>
<path d="M14.9637 73.4961V85.297" stroke="#FFFEF5" stroke-width="0.5" stroke-miterlimit="10"/>
<path d="M11.3569 72.6221V84.4204" stroke="#FFFEF5" stroke-width="0.5" stroke-miterlimit="10"/>
<path d="M7.74741 71.462V83.2603" stroke="#FFFEF5" stroke-width="0.5" stroke-miterlimit="10"/>
<path d="M4.14069 69.7959V81.5942" stroke="#FFFEF5" stroke-width="0.5" stroke-miterlimit="10"/>
<path d="M69.0891 69.7959V81.5942" stroke="#FFFEF5" stroke-width="0.5" stroke-miterlimit="10"/>
<path d="M65.4797 71.462V83.2603" stroke="#FFFEF5" stroke-width="0.5" stroke-miterlimit="10"/>
<path d="M61.8729 72.6221V84.4204" stroke="#FFFEF5" stroke-width="0.5" stroke-miterlimit="10"/>
<path d="M58.2635 73.4961V85.297" stroke="#FFFEF5" stroke-width="0.5" stroke-miterlimit="10"/>
<path d="M54.6567 74.1682V85.969" stroke="#FFFEF5" stroke-width="0.5" stroke-miterlimit="10"/>
<path d="M51.0472 74.6844V86.4828" stroke="#FFFEF5" stroke-width="0.5" stroke-miterlimit="10"/>
<path d="M47.4379 75.0651V86.8635" stroke="#FFFEF5" stroke-width="0.5" stroke-miterlimit="10"/>
<path d="M43.8311 75.3258V87.1267" stroke="#FFFEF5" stroke-width="0.5" stroke-miterlimit="10"/>
<path d="M40.2216 75.4792V87.28" stroke="#FFFEF5" stroke-width="0.5" stroke-miterlimit="10"/>
<path d="M50.7661 61.8665C70.6945 61.8665 86.8497 57.3107 86.8497 51.6908C86.8497 46.071 70.6945 41.5152 50.7661 41.5152C30.8376 41.5152 14.6824 46.071 14.6824 51.6908C14.6824 57.3107 30.8376 61.8665 50.7661 61.8665Z" fill="#208FDF" stroke="#FFFEF5" stroke-width="0.5" stroke-miterlimit="10"/>
<path d="M50.7661 61.8563C70.6938 61.8563 86.8497 57.3025 86.8497 51.6806V63.4917C86.8497 69.1136 70.6938 73.6674 50.7661 73.6674C30.8383 73.6674 14.6824 69.1111 14.6824 63.4917V51.6908C14.6824 57.3127 30.8383 61.8563 50.7661 61.8563Z" fill="#208FDF" stroke="#FFFEF5" stroke-width="0.5" stroke-miterlimit="10"/>
<path d="M50.7661 61.8664V73.6673" stroke="#FFFEF5" stroke-width="0.5" stroke-miterlimit="10"/>
<path d="M47.1566 61.8178V73.6162" stroke="#FFFEF5" stroke-width="0.5" stroke-miterlimit="10"/>
<path d="M43.5498 61.6646V73.4629" stroke="#FFFEF5" stroke-width="0.5" stroke-miterlimit="10"/>
<path d="M39.9405 61.4013V73.2022" stroke="#FFFEF5" stroke-width="0.5" stroke-miterlimit="10"/>
<path d="M36.3336 61.0206V72.819" stroke="#FFFEF5" stroke-width="0.5" stroke-miterlimit="10"/>
<path d="M32.7242 60.5069V72.3053" stroke="#FFFEF5" stroke-width="0.5" stroke-miterlimit="10"/>
<path d="M29.1175 59.8323V71.6332" stroke="#FFFEF5" stroke-width="0.5" stroke-miterlimit="10"/>
<path d="M25.5081 58.9584V70.7567" stroke="#FFFEF5" stroke-width="0.5" stroke-miterlimit="10"/>
<path d="M21.8986 57.7982V69.5965" stroke="#FFFEF5" stroke-width="0.5" stroke-miterlimit="10"/>
<path d="M18.2919 56.1321V67.933" stroke="#FFFEF5" stroke-width="0.5" stroke-miterlimit="10"/>
<path d="M83.2403 56.1321V67.933" stroke="#FFFEF5" stroke-width="0.5" stroke-miterlimit="10"/>
<path d="M79.6335 57.7982V69.5965" stroke="#FFFEF5" stroke-width="0.5" stroke-miterlimit="10"/>
<path d="M76.024 58.9584V70.7567" stroke="#FFFEF5" stroke-width="0.5" stroke-miterlimit="10"/>
<path d="M72.4147 59.8323V71.6332" stroke="#FFFEF5" stroke-width="0.5" stroke-miterlimit="10"/>
<path d="M68.8079 60.5069V72.3053" stroke="#FFFEF5" stroke-width="0.5" stroke-miterlimit="10"/>
<path d="M65.1985 61.0206V72.819" stroke="#FFFEF5" stroke-width="0.5" stroke-miterlimit="10"/>
<path d="M61.5917 61.4013V73.2022" stroke="#FFFEF5" stroke-width="0.5" stroke-miterlimit="10"/>
<path d="M57.9823 61.6646V73.4629" stroke="#FFFEF5" stroke-width="0.5" stroke-miterlimit="10"/>
<path d="M54.3754 61.8178V73.6162" stroke="#FFFEF5" stroke-width="0.5" stroke-miterlimit="10"/>
<path d="M50.7661 48.2052C70.6945 48.2052 86.8497 43.6494 86.8497 38.0295C86.8497 32.4097 70.6945 27.8539 50.7661 27.8539C30.8376 27.8539 14.6824 32.4097 14.6824 38.0295C14.6824 43.6494 30.8376 48.2052 50.7661 48.2052Z" fill="#208FDF" stroke="#FFFEF5" stroke-width="0.5" stroke-miterlimit="10"/>
<path d="M50.7661 48.2053C70.6938 48.2053 86.8497 43.649 86.8497 38.0296V49.8279C86.8497 55.4498 70.6938 60.0036 50.7661 60.0036C30.8383 60.0036 14.6824 55.4473 14.6824 49.8279V38.0296C14.6824 43.649 30.8383 48.2053 50.7661 48.2053Z" fill="#208FDF" stroke="#FFFEF5" stroke-width="0.5" stroke-miterlimit="10"/>
<path d="M50.7661 48.2052V60.0036" stroke="#FFFEF5" stroke-width="0.5" stroke-miterlimit="10"/>
<path d="M47.1566 48.1541V59.955" stroke="#FFFEF5" stroke-width="0.5" stroke-miterlimit="10"/>
<path d="M43.5498 48.0008V59.8017" stroke="#FFFEF5" stroke-width="0.5" stroke-miterlimit="10"/>
<path d="M39.9405 47.7375V59.5384" stroke="#FFFEF5" stroke-width="0.5" stroke-miterlimit="10"/>
<path d="M36.3336 47.3568V59.1577" stroke="#FFFEF5" stroke-width="0.5" stroke-miterlimit="10"/>
<path d="M32.7242 46.8431V58.6415" stroke="#FFFEF5" stroke-width="0.5" stroke-miterlimit="10"/>
<path d="M29.1175 46.1686V57.9695" stroke="#FFFEF5" stroke-width="0.5" stroke-miterlimit="10"/>
<path d="M25.5081 45.2946V57.0955" stroke="#FFFEF5" stroke-width="0.5" stroke-miterlimit="10"/>
<path d="M21.8986 44.1345V55.9354" stroke="#FFFEF5" stroke-width="0.5" stroke-miterlimit="10"/>
<path d="M18.2919 42.4684V54.2693" stroke="#FFFEF5" stroke-width="0.5" stroke-miterlimit="10"/>
<path d="M83.2403 42.4684V54.2693" stroke="#FFFEF5" stroke-width="0.5" stroke-miterlimit="10"/>
<path d="M79.6335 44.1345V55.9354" stroke="#FFFEF5" stroke-width="0.5" stroke-miterlimit="10"/>
<path d="M76.024 45.2946V57.0955" stroke="#FFFEF5" stroke-width="0.5" stroke-miterlimit="10"/>
<path d="M72.4147 46.1686V57.9695" stroke="#FFFEF5" stroke-width="0.5" stroke-miterlimit="10"/>
<path d="M68.8079 46.8431V58.6415" stroke="#FFFEF5" stroke-width="0.5" stroke-miterlimit="10"/>
<path d="M65.1985 47.3568V59.1577" stroke="#FFFEF5" stroke-width="0.5" stroke-miterlimit="10"/>
<path d="M61.5917 47.7375V59.5384" stroke="#FFFEF5" stroke-width="0.5" stroke-miterlimit="10"/>
<path d="M57.9823 48.0008V59.8017" stroke="#FFFEF5" stroke-width="0.5" stroke-miterlimit="10"/>
<path d="M54.3754 48.1541V59.955" stroke="#FFFEF5" stroke-width="0.5" stroke-miterlimit="10"/>
<path d="M65.8821 34.5415C85.8106 34.5415 101.966 29.9857 101.966 24.3658C101.966 18.746 85.8106 14.1902 65.8821 14.1902C45.9537 14.1902 29.7985 18.746 29.7985 24.3658C29.7985 29.9857 45.9537 34.5415 65.8821 34.5415Z" fill="#208FDF" stroke="#FFFEF5" stroke-width="0.5" stroke-miterlimit="10"/>
<path d="M65.8821 34.5414C85.8099 34.5414 101.966 29.9851 101.966 24.3658V36.1641C101.966 41.786 85.8099 46.3423 65.8821 46.3423C45.9544 46.3423 29.7985 41.786 29.7985 36.1641V24.3658C29.7985 29.9851 45.9544 34.5414 65.8821 34.5414Z" fill="#208FDF" stroke="#FFFEF5" stroke-width="0.5" stroke-miterlimit="10"/>
<path d="M65.8822 34.5414V46.3423" stroke="#FFFEF5" stroke-width="0.5" stroke-miterlimit="10"/>
<path d="M62.2728 34.4903V46.2912" stroke="#FFFEF5" stroke-width="0.5" stroke-miterlimit="10"/>
<path d="M58.6659 34.337V46.1378" stroke="#FFFEF5" stroke-width="0.5" stroke-miterlimit="10"/>
<path d="M55.0566 34.0738V45.8747" stroke="#FFFEF5" stroke-width="0.5" stroke-miterlimit="10"/>
<path d="M51.4498 33.693V45.4939" stroke="#FFFEF5" stroke-width="0.5" stroke-miterlimit="10"/>
<path d="M47.8403 33.1794V44.9803" stroke="#FFFEF5" stroke-width="0.5" stroke-miterlimit="10"/>
<path d="M44.231 32.5073V44.3056" stroke="#FFFEF5" stroke-width="0.5" stroke-miterlimit="10"/>
<path d="M40.6241 31.6308V43.4317" stroke="#FFFEF5" stroke-width="0.5" stroke-miterlimit="10"/>
<path d="M37.0148 30.4707V42.2716" stroke="#FFFEF5" stroke-width="0.5" stroke-miterlimit="10"/>
<path d="M33.408 28.8046V40.6054" stroke="#FFFEF5" stroke-width="0.5" stroke-miterlimit="10"/>
<path d="M98.3564 28.8046V40.6054" stroke="#FFFEF5" stroke-width="0.5" stroke-miterlimit="10"/>
<path d="M94.747 30.4707V42.2716" stroke="#FFFEF5" stroke-width="0.5" stroke-miterlimit="10"/>
<path d="M91.1403 31.6308V43.4317" stroke="#FFFEF5" stroke-width="0.5" stroke-miterlimit="10"/>
<path d="M87.5308 32.5073V44.3056" stroke="#FFFEF5" stroke-width="0.5" stroke-miterlimit="10"/>
<path d="M83.924 33.1794V44.9803" stroke="#FFFEF5" stroke-width="0.5" stroke-miterlimit="10"/>
<path d="M80.3146 33.693V45.4939" stroke="#FFFEF5" stroke-width="0.5" stroke-miterlimit="10"/>
<path d="M76.7078 34.0738V45.8747" stroke="#FFFEF5" stroke-width="0.5" stroke-miterlimit="10"/>
<path d="M73.0984 34.337V46.1378" stroke="#FFFEF5" stroke-width="0.5" stroke-miterlimit="10"/>
<path d="M69.489 34.4903V46.2912" stroke="#FFFEF5" stroke-width="0.5" stroke-miterlimit="10"/>
<path d="M65.8821 20.8777C85.8106 20.8777 101.966 16.3219 101.966 10.702C101.966 5.08216 85.8106 0.526367 65.8821 0.526367C45.9537 0.526367 29.7985 5.08216 29.7985 10.702C29.7985 16.3219 45.9537 20.8777 65.8821 20.8777Z" fill="#208FDF" stroke="#FFFEF5" stroke-width="0.5" stroke-miterlimit="10"/>
<path d="M65.8821 20.8776C85.8099 20.8776 101.966 16.3213 101.966 10.702V22.5029C101.966 28.1248 85.8099 32.6785 65.8821 32.6785C45.9544 32.6785 29.7985 28.1248 29.7985 22.5029V10.702C29.7985 16.3213 45.9544 20.8776 65.8821 20.8776Z" fill="#208FDF" stroke="#FFFEF5" stroke-width="0.5" stroke-miterlimit="10"/>
<path d="M65.8822 20.8776V32.6785" stroke="#FFFEF5" stroke-width="0.5" stroke-miterlimit="10"/>
<path d="M62.2728 20.8265V32.6274" stroke="#FFFEF5" stroke-width="0.5" stroke-miterlimit="10"/>
<path d="M58.6659 20.6733V32.4741" stroke="#FFFEF5" stroke-width="0.5" stroke-miterlimit="10"/>
<path d="M55.0566 20.4126V32.211" stroke="#FFFEF5" stroke-width="0.5" stroke-miterlimit="10"/>
<path d="M51.4498 20.0293V31.8302" stroke="#FFFEF5" stroke-width="0.5" stroke-miterlimit="10"/>
<path d="M47.8403 19.5156V31.3165" stroke="#FFFEF5" stroke-width="0.5" stroke-miterlimit="10"/>
<path d="M44.231 18.8436V30.6445" stroke="#FFFEF5" stroke-width="0.5" stroke-miterlimit="10"/>
<path d="M40.6241 17.9671V29.768" stroke="#FFFEF5" stroke-width="0.5" stroke-miterlimit="10"/>
<path d="M37.0148 16.8095V28.6078" stroke="#FFFEF5" stroke-width="0.5" stroke-miterlimit="10"/>
<path d="M33.408 15.1434V26.9417" stroke="#FFFEF5" stroke-width="0.5" stroke-miterlimit="10"/>
<path d="M98.3564 15.1434V26.9417" stroke="#FFFEF5" stroke-width="0.5" stroke-miterlimit="10"/>
<path d="M94.747 16.8095V28.6078" stroke="#FFFEF5" stroke-width="0.5" stroke-miterlimit="10"/>
<path d="M91.1403 17.9671V29.768" stroke="#FFFEF5" stroke-width="0.5" stroke-miterlimit="10"/>
<path d="M87.5308 18.8436V30.6445" stroke="#FFFEF5" stroke-width="0.5" stroke-miterlimit="10"/>
<path d="M83.924 19.5156V31.3165" stroke="#FFFEF5" stroke-width="0.5" stroke-miterlimit="10"/>
<path d="M80.3146 20.0293V31.8302" stroke="#FFFEF5" stroke-width="0.5" stroke-miterlimit="10"/>
<path d="M76.7078 20.4126V32.211" stroke="#FFFEF5" stroke-width="0.5" stroke-miterlimit="10"/>
<path d="M73.0984 20.6733V32.4741" stroke="#FFFEF5" stroke-width="0.5" stroke-miterlimit="10"/>
<path d="M69.489 20.8265V32.6274" stroke="#FFFEF5" stroke-width="0.5" stroke-miterlimit="10"/>
</g>
<defs>
<clipPath id="clip0_1364_165037">
<rect width="101" height="101" fill="white"/>
</clipPath>
</defs>
</svg>
