<svg width="72" height="72" viewBox="0 0 72 72" fill="none" xmlns="http://www.w3.org/2000/svg">
<path fill-rule="evenodd" clip-rule="evenodd" d="M72 0H0V72H72V0ZM13.4444 42.0819H19.3704C20.8519 42.0819 21.2222 43.154 21.2222 44.2261C21.2222 45.2982 20.1111 46.3704 19 46.3704H11.2222C10.1111 46.3704 9 45.2982 9 44.2261V28.1442C9 27.0721 10.1111 26 11.2222 26C12.3333 26 13.4444 27.0721 13.4444 28.1442V42.0819ZM25.2963 26C24.2778 26 23.2593 27.0721 23.2593 28.1442V44.2261C23.2593 45.2982 24.2778 46.3704 25.2963 46.3704C26.3148 46.3704 27.3333 45.2982 27.3333 44.2261V28.1442C27.3333 27.0721 26.3148 26 25.2963 26ZM43.7222 26C42.75 26 41.7778 27.0536 41.7778 28.1073V37.59L34.9722 27.4049C34.6481 26.7024 33.6759 26.3512 32.7037 26.7024C32.0556 27.0536 31.4074 27.7561 31.4074 28.8097V44.2631C31.4074 45.3167 32.3796 46.3704 33.3519 46.3704C34.3241 46.3704 35.2963 45.3167 35.2963 44.2631V35.1315L42.1019 45.3167C42.4259 46.0192 43.0741 46.0192 43.7222 46.0192H44.3704C45.0185 45.6679 45.6667 44.9655 45.6667 43.9119V28.1073C45.3426 27.0536 44.6944 26 43.7222 26ZM61.9133 42.7328H53.9142V38.7315H60.1743C61.2177 38.7315 62.2611 37.6402 62.2611 36.5489C62.2611 35.4577 61.2177 34.3664 60.1743 34.3664H53.9142V30.3651H61.5655C62.6089 30.3651 63.6522 29.2738 63.6522 28.1825C63.6522 27.0913 62.6089 26 61.5655 26H51.8275C50.7841 26 49.7407 27.0913 49.7407 28.1825V36.1852V44.1878C49.7407 45.2791 50.7841 46.3704 51.8275 46.3704H61.9133C62.9566 46.3704 64 45.2791 64 44.1878C64 43.0966 62.9566 42.7328 61.9133 42.7328Z" fill="#FFFEF5"/>
</svg>
