<svg width="82" height="83" viewBox="0 0 82 83" fill="none" xmlns="http://www.w3.org/2000/svg">
<path d="M82 0H0V83H82V0Z" fill="#208FDF"/>
<path d="M81.9996 18.1114V0H64.1064L81.9996 18.1114Z" fill="#E0FD6A"/>
<path d="M64.1064 83.0001H81.9996V64.8887L64.1064 83.0001Z" fill="#E0FD6A"/>
<path d="M5.48474 0H0V83H5.48474V0Z" fill="#E0FD6A"/>
<path d="M16.0367 36.9403L33.7422 48.0225L48.3821 41.4576L28.7163 27.2725L11.3027 33.9851L15.9741 36.9192C15.995 36.9192 16.0159 36.9192 16.0367 36.9403Z" fill="#E0FD6A"/>
<path d="M16.0371 43.1464L33.7426 54.2286L49.3209 47.2204L49.2375 42.8931L34.2639 49.6268C34.0762 49.7113 33.8885 49.7535 33.7008 49.7535C33.4506 49.7535 33.2003 49.6691 32.9709 49.5424L15.4531 38.5869L11.2822 40.1912L15.9328 43.1042C15.9954 43.1253 16.0162 43.1253 16.0371 43.1464Z" fill="#E0FD6A"/>
<path d="M16.0159 49.3315L33.7422 60.4347L49.4248 53.3844L49.3414 49.0571L34.2844 55.8119C34.0967 55.8963 33.909 55.9386 33.7213 55.9386C33.4711 55.9386 33.2208 55.8541 32.9914 55.7275L15.4736 44.772L11.3027 46.3762L15.9741 49.3104C15.995 49.3104 15.995 49.3104 15.995 49.3104L16.0159 49.3315Z" fill="#E0FD6A"/>
<path d="M34.285 62.0389C34.0974 62.1234 33.9097 62.1656 33.722 62.1656C33.4717 62.1656 33.2215 62.1023 32.9921 61.9545L15.4951 50.999L11.3242 52.6033L33.7637 66.6407L49.5297 59.5481L49.4463 55.2208L34.285 62.0389Z" fill="#E0FD6A"/>
<path d="M73.1993 30.2913L77.7039 28.2649L57.0579 16.3384L43.002 21.7634L61.6042 35.5052L73.1576 30.3124C73.1576 30.3124 73.1785 30.3124 73.1993 30.2913Z" fill="#E0FD6A"/>
<path d="M62.251 37.067V41.4154L73.137 36.5182C73.1579 36.5182 73.1787 36.497 73.1787 36.497L77.6833 34.4706L73.4499 32.022L62.251 37.067Z" fill="#E0FD6A"/>
<path d="M62.251 49.4791V53.8275L77.7042 46.8827L73.4499 44.4341L62.251 49.4791Z" fill="#E0FD6A"/>
<path d="M62.251 43.273V47.6215L77.6833 40.6767L73.4499 38.228L62.251 43.273Z" fill="#E0FD6A"/>
<path d="M41.1253 22.502L30.5938 26.5549L50.5307 40.93C50.5515 40.9511 50.5932 40.9722 50.6141 40.9933C50.6349 41.0144 50.6558 41.0355 50.6767 41.0566C50.6975 41.0777 50.7184 41.0989 50.7184 41.0989C50.7184 41.0989 50.7392 41.1411 50.7601 41.1411C50.7809 41.1622 50.7809 41.1833 50.8018 41.2044L50.8226 41.2466C50.8226 41.2466 50.8226 41.2677 50.8435 41.2677C50.8643 41.2888 50.8643 41.3099 50.8643 41.331L50.8852 41.4155C50.8852 41.4366 50.9061 41.4788 50.9061 41.4999C50.9061 41.521 50.9061 41.5632 50.9061 41.5844L51.0103 47.7481L51.1146 53.8908V53.9119L51.198 58.767L60.6034 54.5452V36.856L41.1253 22.502Z" fill="white"/>
</svg>
