<svg width="1228" height="441" viewBox="0 0 1228 441" fill="none" xmlns="http://www.w3.org/2000/svg">
<rect width="1199.74" height="334.214" transform="matrix(0.995942 -0.0899986 0.0983397 0.995153 0.0859375 107.975)" fill="white"/>
<rect width="170.963" height="253.445" transform="matrix(0.995942 -0.0899986 0.0983397 0.995153 0.0859375 107.975)" fill="#0056A6" fill-opacity="0.15"/>
<rect width="170.963" height="253.445" transform="matrix(0.995942 -0.0899986 0.0983397 0.995153 341.619 77.1118)" fill="#0056A6" fill-opacity="0.05"/>
<rect width="170.963" height="334.214" transform="matrix(0.995942 -0.0899986 0.0983397 0.995153 683.152 46.2495)" fill="#0056A6" fill-opacity="0.05"/>
<rect width="23.9947" height="334.214" transform="matrix(0.995942 -0.0899986 0.0983397 0.995153 1024.69 15.3865)" fill="#D7FFB7"/>
<rect width="23.9947" height="334.214" transform="matrix(0.995942 -0.0899986 0.0983397 0.995153 1061.53 12.0574)" fill="#D7FFB7"/>
<rect width="22.995" height="334.214" transform="matrix(0.995942 -0.0899986 0.0983397 0.995153 1098.37 8.72827)" fill="#D7FFB7"/>
<rect width="23.9947" height="334.214" transform="matrix(0.995942 -0.0899986 0.0983397 0.995153 1134.22 5.48877)" fill="#D7FFB7"/>
<rect width="23.9947" height="334.214" transform="matrix(0.995942 -0.0899986 0.0983397 0.995153 1171.06 2.15967)" fill="#D7FFB7"/>
<rect width="1199.74" height="30.6363" transform="matrix(0.995942 -0.0899986 0.0983397 0.995153 0.0859375 107.975)" fill="#FFFEF5" fill-opacity="0.5"/>
<rect x="0.27357" y="0.226289" width="171.462" height="4.14186" transform="matrix(0.995942 -0.0899986 0.0983397 0.995153 173.437 124.026)" stroke="#0056A6" stroke-opacity="0.25" stroke-width="0.5"/>
<rect x="0.27357" y="0.226289" width="171.462" height="5.07023" transform="matrix(0.995942 -0.0899986 0.0983397 0.995153 175.172 141.579)" stroke="#0056A6" stroke-opacity="0.25" stroke-width="0.5"/>
<rect x="0.27357" y="0.226289" width="171.462" height="4.14186" transform="matrix(0.995942 -0.0899986 0.0983397 0.995153 176.998 160.057)" stroke="#0056A6" stroke-opacity="0.25" stroke-width="0.5"/>
<rect x="0.27357" y="0.226289" width="171.462" height="5.07023" transform="matrix(0.995942 -0.0899986 0.0983397 0.995153 178.732 177.61)" stroke="#0056A6" stroke-opacity="0.25" stroke-width="0.5"/>
<rect x="0.27357" y="0.226289" width="171.462" height="4.14186" transform="matrix(0.995942 -0.0899986 0.0983397 0.995153 180.559 196.088)" stroke="#0056A6" stroke-opacity="0.25" stroke-width="0.5"/>
<rect x="0.27357" y="0.226289" width="171.462" height="5.07023" transform="matrix(0.995942 -0.0899986 0.0983397 0.995153 182.292 213.641)" stroke="#0056A6" stroke-opacity="0.25" stroke-width="0.5"/>
<rect x="0.27357" y="0.226289" width="171.462" height="4.14186" transform="matrix(0.995942 -0.0899986 0.0983397 0.995153 184.119 232.119)" stroke="#0056A6" stroke-opacity="0.25" stroke-width="0.5"/>
<rect x="0.27357" y="0.226289" width="171.462" height="5.07023" transform="matrix(0.995942 -0.0899986 0.0983397 0.995153 185.854 249.673)" stroke="#0056A6" stroke-opacity="0.25" stroke-width="0.5"/>
<rect x="0.27357" y="0.226289" width="171.462" height="4.14186" transform="matrix(0.995942 -0.0899986 0.0983397 0.995153 187.679 268.15)" stroke="#0056A6" stroke-opacity="0.25" stroke-width="0.5"/>
<rect x="0.27357" y="0.226289" width="171.462" height="5.07023" transform="matrix(0.995942 -0.0899986 0.0983397 0.995153 189.414 285.703)" stroke="#0056A6" stroke-opacity="0.25" stroke-width="0.5"/>
<rect x="0.27357" y="0.226289" width="171.462" height="4.14186" transform="matrix(0.995942 -0.0899986 0.0983397 0.995153 191.24 304.181)" stroke="#0056A6" stroke-opacity="0.25" stroke-width="0.5"/>
<rect x="0.27357" y="0.226289" width="171.462" height="5.07023" transform="matrix(0.995942 -0.0899986 0.0983397 0.995153 192.975 321.734)" stroke="#0056A6" stroke-opacity="0.25" stroke-width="0.5"/>
<rect x="0.27357" y="0.226289" width="171.462" height="4.14186" transform="matrix(0.995942 -0.0899986 0.0983397 0.995153 194.8 340.212)" stroke="#0056A6" stroke-opacity="0.25" stroke-width="0.5"/>
<rect width="685.85" height="80.7683" transform="matrix(0.995942 -0.0899986 0.0983397 0.995153 25.0098 360.192)" fill="#D7FFB7" fill-opacity="0.25"/>
<rect width="170.963" height="80.7683" transform="matrix(0.995942 -0.0899986 0.0983397 0.995153 870.401 202.703)" fill="#D7FFB7" fill-opacity="0.5"/>
<rect width="171.962" height="51.0604" transform="matrix(0.995942 -0.0899986 0.0983397 0.995153 514.992 93.1372)" fill="#0056A6" fill-opacity="0.03"/>
<rect width="171.962" height="51.0604" transform="matrix(0.995942 -0.0899986 0.0983397 0.995153 523.3 177.209)" fill="#0056A6" fill-opacity="0.03"/>
<rect width="171.962" height="51.0604" transform="matrix(0.995942 -0.0899986 0.0983397 0.995153 531.791 263.129)" fill="#0056A6" fill-opacity="0.03"/>
<rect x="0.27357" y="0.226289" width="17.9824" height="15.3684" transform="matrix(0.995942 -0.0899986 0.0983397 0.995153 706.494 282.701)" stroke="#E5FBFF" stroke-width="0.5"/>
<rect x="0.27357" y="0.226289" width="17.9824" height="15.3684" transform="matrix(0.995942 -0.0899986 0.0983397 0.995153 736.869 279.956)" stroke="#E5FBFF" stroke-width="0.5"/>
<rect x="0.27357" y="0.226289" width="17.9824" height="15.3684" transform="matrix(0.995942 -0.0899986 0.0983397 0.995153 767.238 277.212)" stroke="#E5FBFF" stroke-width="0.5"/>
<rect x="0.27357" y="0.226289" width="17.9824" height="15.3684" transform="matrix(0.995942 -0.0899986 0.0983397 0.995153 797.611 274.467)" stroke="#E5FBFF" stroke-width="0.5"/>
<rect x="0.27357" y="0.226289" width="17.9824" height="15.3684" transform="matrix(0.995942 -0.0899986 0.0983397 0.995153 827.984 271.722)" stroke="#E5FBFF" stroke-width="0.5"/>
<rect x="0.27357" y="0.226289" width="17.9824" height="15.3684" transform="matrix(0.995942 -0.0899986 0.0983397 0.995153 858.356 268.978)" stroke="#E5FBFF" stroke-width="0.5"/>
<rect x="0.27357" y="0.226289" width="17.9824" height="15.3684" transform="matrix(0.995942 -0.0899986 0.0983397 0.995153 704.145 258.922)" stroke="#E5FBFF" stroke-width="0.5"/>
<rect x="0.27357" y="0.226289" width="17.9824" height="15.3684" transform="matrix(0.995942 -0.0899986 0.0983397 0.995153 734.519 256.177)" stroke="#E5FBFF" stroke-width="0.5"/>
<rect x="0.27357" y="0.226289" width="17.9824" height="15.3684" transform="matrix(0.995942 -0.0899986 0.0983397 0.995153 764.888 253.432)" stroke="#E5FBFF" stroke-width="0.5"/>
<rect x="0.27357" y="0.226289" width="17.9824" height="15.3684" transform="matrix(0.995942 -0.0899986 0.0983397 0.995153 795.261 250.688)" stroke="#E5FBFF" stroke-width="0.5"/>
<rect x="0.27357" y="0.226289" width="17.9824" height="15.3684" transform="matrix(0.995942 -0.0899986 0.0983397 0.995153 825.634 247.943)" stroke="#E5FBFF" stroke-width="0.5"/>
<rect x="0.27357" y="0.226289" width="17.9824" height="15.3684" transform="matrix(0.995942 -0.0899986 0.0983397 0.995153 856.006 245.199)" stroke="#E5FBFF" stroke-width="0.5"/>
<rect x="0.27357" y="0.226289" width="17.9824" height="15.3684" transform="matrix(0.995942 -0.0899986 0.0983397 0.995153 701.795 235.143)" stroke="#E5FBFF" stroke-width="0.5"/>
<rect x="0.27357" y="0.226289" width="17.9824" height="15.3684" transform="matrix(0.995942 -0.0899986 0.0983397 0.995153 732.169 232.398)" stroke="#E5FBFF" stroke-width="0.5"/>
<rect x="0.27357" y="0.226289" width="17.9824" height="15.3684" transform="matrix(0.995942 -0.0899986 0.0983397 0.995153 762.538 229.653)" stroke="#E5FBFF" stroke-width="0.5"/>
<rect x="0.27357" y="0.226289" width="17.9824" height="15.3684" transform="matrix(0.995942 -0.0899986 0.0983397 0.995153 792.911 226.909)" stroke="#E5FBFF" stroke-width="0.5"/>
<rect x="0.27357" y="0.226289" width="17.9824" height="15.3684" transform="matrix(0.995942 -0.0899986 0.0983397 0.995153 823.285 224.164)" stroke="#E5FBFF" stroke-width="0.5"/>
<rect x="0.27357" y="0.226289" width="17.9824" height="15.3684" transform="matrix(0.995942 -0.0899986 0.0983397 0.995153 853.657 221.42)" stroke="#E5FBFF" stroke-width="0.5"/>
<rect x="0.27357" y="0.226289" width="17.9824" height="15.3684" transform="matrix(0.995942 -0.0899986 0.0983397 0.995153 699.445 211.363)" stroke="#E5FBFF" stroke-width="0.5"/>
<rect x="0.27357" y="0.226289" width="17.9824" height="15.3684" transform="matrix(0.995942 -0.0899986 0.0983397 0.995153 729.819 208.618)" stroke="#E5FBFF" stroke-width="0.5"/>
<rect x="0.27357" y="0.226289" width="17.9824" height="15.3684" transform="matrix(0.995942 -0.0899986 0.0983397 0.995153 760.188 205.874)" stroke="#E5FBFF" stroke-width="0.5"/>
<rect x="0.27357" y="0.226289" width="17.9824" height="15.3684" transform="matrix(0.995942 -0.0899986 0.0983397 0.995153 790.561 203.13)" stroke="#E5FBFF" stroke-width="0.5"/>
<rect x="0.27357" y="0.226289" width="17.9824" height="15.3684" transform="matrix(0.995942 -0.0899986 0.0983397 0.995153 820.934 200.385)" stroke="#E5FBFF" stroke-width="0.5"/>
<rect x="0.27357" y="0.226289" width="17.9824" height="15.3684" transform="matrix(0.995942 -0.0899986 0.0983397 0.995153 851.306 197.64)" stroke="#E5FBFF" stroke-width="0.5"/>
<rect x="0.27357" y="0.226289" width="17.9824" height="15.3684" transform="matrix(0.995942 -0.0899986 0.0983397 0.995153 697.095 187.584)" stroke="#E5FBFF" stroke-width="0.5"/>
<rect x="0.27357" y="0.226289" width="17.9824" height="15.3684" transform="matrix(0.995942 -0.0899986 0.0983397 0.995153 727.469 184.839)" stroke="#E5FBFF" stroke-width="0.5"/>
<rect x="0.27357" y="0.226289" width="17.9824" height="15.3684" transform="matrix(0.995942 -0.0899986 0.0983397 0.995153 757.838 182.095)" stroke="#E5FBFF" stroke-width="0.5"/>
<rect x="0.27357" y="0.226289" width="17.9824" height="15.3684" transform="matrix(0.995942 -0.0899986 0.0983397 0.995153 788.211 179.35)" stroke="#E5FBFF" stroke-width="0.5"/>
<rect x="0.27357" y="0.226289" width="17.9824" height="15.3684" transform="matrix(0.995942 -0.0899986 0.0983397 0.995153 818.584 176.605)" stroke="#E5FBFF" stroke-width="0.5"/>
<rect x="0.27357" y="0.226289" width="17.9824" height="15.3684" transform="matrix(0.995942 -0.0899986 0.0983397 0.995153 848.956 173.861)" stroke="#E5FBFF" stroke-width="0.5"/>
<rect x="0.27357" y="0.226289" width="17.9824" height="15.3684" transform="matrix(0.995942 -0.0899986 0.0983397 0.995153 694.745 163.806)" stroke="#E5FBFF" stroke-width="0.5"/>
<rect x="0.27357" y="0.226289" width="17.9824" height="15.3684" transform="matrix(0.995942 -0.0899986 0.0983397 0.995153 725.119 161.061)" stroke="#E5FBFF" stroke-width="0.5"/>
<rect x="0.27357" y="0.226289" width="17.9824" height="15.3684" transform="matrix(0.995942 -0.0899986 0.0983397 0.995153 755.489 158.316)" stroke="#E5FBFF" stroke-width="0.5"/>
<rect x="0.27357" y="0.226289" width="17.9824" height="15.3684" transform="matrix(0.995942 -0.0899986 0.0983397 0.995153 785.862 155.572)" stroke="#E5FBFF" stroke-width="0.5"/>
<rect x="0.27357" y="0.226289" width="17.9824" height="15.3684" transform="matrix(0.995942 -0.0899986 0.0983397 0.995153 816.235 152.827)" stroke="#E5FBFF" stroke-width="0.5"/>
<rect x="0.27357" y="0.226289" width="17.9824" height="15.3684" transform="matrix(0.995942 -0.0899986 0.0983397 0.995153 846.607 150.083)" stroke="#E5FBFF" stroke-width="0.5"/>
<rect x="0.27357" y="0.226289" width="17.9824" height="15.3684" transform="matrix(0.995942 -0.0899986 0.0983397 0.995153 692.396 140.027)" stroke="#E5FBFF" stroke-width="0.5"/>
<rect x="0.27357" y="0.226289" width="17.9824" height="15.3684" transform="matrix(0.995942 -0.0899986 0.0983397 0.995153 722.77 137.282)" stroke="#E5FBFF" stroke-width="0.5"/>
<rect x="0.27357" y="0.226289" width="17.9824" height="15.3684" transform="matrix(0.995942 -0.0899986 0.0983397 0.995153 753.139 134.538)" stroke="#E5FBFF" stroke-width="0.5"/>
<rect x="0.27357" y="0.226289" width="17.9824" height="15.3684" transform="matrix(0.995942 -0.0899986 0.0983397 0.995153 783.512 131.793)" stroke="#E5FBFF" stroke-width="0.5"/>
<rect x="0.27357" y="0.226289" width="17.9824" height="15.3684" transform="matrix(0.995942 -0.0899986 0.0983397 0.995153 813.885 129.048)" stroke="#E5FBFF" stroke-width="0.5"/>
<rect x="0.27357" y="0.226289" width="17.9824" height="15.3684" transform="matrix(0.995942 -0.0899986 0.0983397 0.995153 844.257 126.304)" stroke="#E5FBFF" stroke-width="0.5"/>
<rect x="0.27357" y="0.226289" width="17.9824" height="15.3684" transform="matrix(0.995942 -0.0899986 0.0983397 0.995153 690.045 116.248)" stroke="#E5FBFF" stroke-width="0.5"/>
<rect x="0.27357" y="0.226289" width="17.9824" height="15.3684" transform="matrix(0.995942 -0.0899986 0.0983397 0.995153 720.419 113.504)" stroke="#E5FBFF" stroke-width="0.5"/>
<rect x="0.27357" y="0.226289" width="17.9824" height="15.3684" transform="matrix(0.995942 -0.0899986 0.0983397 0.995153 750.788 110.759)" stroke="#E5FBFF" stroke-width="0.5"/>
<rect x="0.27357" y="0.226289" width="17.9824" height="15.3684" transform="matrix(0.995942 -0.0899986 0.0983397 0.995153 781.161 108.014)" stroke="#E5FBFF" stroke-width="0.5"/>
<rect x="0.27357" y="0.226289" width="17.9824" height="15.3684" transform="matrix(0.995942 -0.0899986 0.0983397 0.995153 811.535 105.269)" stroke="#E5FBFF" stroke-width="0.5"/>
<rect x="0.27357" y="0.226289" width="17.9824" height="15.3684" transform="matrix(0.995942 -0.0899986 0.0983397 0.995153 841.907 102.525)" stroke="#E5FBFF" stroke-width="0.5"/>
<rect x="0.27357" y="0.226289" width="17.9824" height="15.3684" transform="matrix(0.995942 -0.0899986 0.0983397 0.995153 687.696 92.4691)" stroke="#E5FBFF" stroke-width="0.5"/>
<rect x="0.27357" y="0.226289" width="17.9824" height="15.3684" transform="matrix(0.995942 -0.0899986 0.0983397 0.995153 718.07 89.7242)" stroke="#E5FBFF" stroke-width="0.5"/>
<rect x="0.27357" y="0.226289" width="17.9824" height="15.3684" transform="matrix(0.995942 -0.0899986 0.0983397 0.995153 748.439 86.9798)" stroke="#E5FBFF" stroke-width="0.5"/>
<rect x="0.27357" y="0.226289" width="17.9824" height="15.3684" transform="matrix(0.995942 -0.0899986 0.0983397 0.995153 778.812 84.2354)" stroke="#E5FBFF" stroke-width="0.5"/>
<rect x="0.27357" y="0.226289" width="17.9824" height="15.3684" transform="matrix(0.995942 -0.0899986 0.0983397 0.995153 809.185 81.4906)" stroke="#E5FBFF" stroke-width="0.5"/>
<rect x="0.27357" y="0.226289" width="17.9824" height="15.3684" transform="matrix(0.995942 -0.0899986 0.0983397 0.995153 839.557 78.7462)" stroke="#E5FBFF" stroke-width="0.5"/>
<path d="M1123.31 310.855C1155.16 308.761 1180.51 299.883 1179.93 291.025C1179.35 282.167 1153.05 276.683 1121.2 278.777C1089.34 280.87 1063.99 289.748 1064.58 298.606C1065.16 307.464 1091.45 312.948 1123.31 310.855Z" fill="white"/>
<path d="M1123.31 310.855C1155.16 308.761 1180.51 299.883 1179.93 291.025C1179.35 282.167 1153.05 276.683 1121.2 278.777C1089.34 280.87 1063.99 289.748 1064.58 298.606C1065.16 307.464 1091.45 312.948 1123.31 310.855Z" fill="#E5FBFF"/>
<path d="M1123.31 310.855C1155.16 308.761 1180.51 299.883 1179.93 291.025C1179.35 282.167 1153.05 276.683 1121.2 278.777C1089.34 280.87 1063.99 289.748 1064.58 298.606C1065.16 307.464 1091.45 312.948 1123.31 310.855Z" stroke="#D2FAB2" stroke-miterlimit="10"/>
<path d="M1123.31 310.862C1155.16 308.768 1180.51 299.89 1179.93 291.032L1181.15 309.633C1181.73 318.494 1156.38 327.369 1124.53 329.462C1092.68 331.556 1066.38 326.063 1065.8 317.206L1064.58 298.605C1065.16 307.462 1091.45 312.955 1123.31 310.862Z" fill="white"/>
<path d="M1123.31 310.862C1155.16 308.768 1180.51 299.89 1179.93 291.032L1181.15 309.633C1181.73 318.494 1156.38 327.369 1124.53 329.462C1092.68 331.556 1066.38 326.063 1065.8 317.206L1064.58 298.605C1065.16 307.462 1091.45 312.955 1123.31 310.862Z" fill="#E5FBFF"/>
<path d="M1123.31 310.862C1155.16 308.768 1180.51 299.89 1179.93 291.032L1181.15 309.633C1181.73 318.494 1156.38 327.369 1124.53 329.462C1092.68 331.556 1066.38 326.063 1065.8 317.206L1064.58 298.605C1065.16 307.462 1091.45 312.955 1123.31 310.862Z" stroke="#D2FAB2" stroke-miterlimit="10"/>
<path d="M1123.31 310.855L1124.53 329.456" stroke="#D2FAB2" stroke-miterlimit="10"/>
<path d="M1117.53 311.151L1118.75 329.751" stroke="#D2FAB2" stroke-miterlimit="10"/>
<path d="M1111.75 311.291L1112.97 329.891" stroke="#D2FAB2" stroke-miterlimit="10"/>
<path d="M1105.96 311.259L1107.18 329.856" stroke="#D2FAB2" stroke-miterlimit="10"/>
<path d="M1100.15 311.034L1101.37 329.635" stroke="#D2FAB2" stroke-miterlimit="10"/>
<path d="M1094.33 310.604L1095.55 329.205" stroke="#D2FAB2" stroke-miterlimit="10"/>
<path d="M1088.49 309.922L1089.71 328.519" stroke="#D2FAB2" stroke-miterlimit="10"/>
<path d="M1082.63 308.919L1083.85 327.52" stroke="#D2FAB2" stroke-miterlimit="10"/>
<path d="M1076.74 307.471L1077.96 326.072" stroke="#D2FAB2" stroke-miterlimit="10"/>
<path d="M1070.8 305.223L1072.03 323.823" stroke="#D2FAB2" stroke-miterlimit="10"/>
<path d="M1174.62 298.4L1175.84 317.001" stroke="#D2FAB2" stroke-miterlimit="10"/>
<path d="M1169.03 301.406L1170.25 320.007" stroke="#D2FAB2" stroke-miterlimit="10"/>
<path d="M1163.38 303.612L1164.6 322.213" stroke="#D2FAB2" stroke-miterlimit="10"/>
<path d="M1157.7 305.375L1158.92 323.971" stroke="#D2FAB2" stroke-miterlimit="10"/>
<path d="M1152.01 306.813L1153.23 325.414" stroke="#D2FAB2" stroke-miterlimit="10"/>
<path d="M1146.29 308.001L1147.51 326.602" stroke="#D2FAB2" stroke-miterlimit="10"/>
<path d="M1140.56 308.985L1141.78 327.582" stroke="#D2FAB2" stroke-miterlimit="10"/>
<path d="M1134.82 309.775L1136.04 328.375" stroke="#D2FAB2" stroke-miterlimit="10"/>
<path d="M1129.07 310.393L1130.29 328.994" stroke="#D2FAB2" stroke-miterlimit="10"/>
<path d="M1099.27 290.804C1131.13 288.711 1156.48 279.833 1155.89 270.975C1155.31 262.117 1129.02 256.633 1097.16 258.727C1065.31 260.82 1039.96 269.698 1040.54 278.556C1041.12 287.414 1067.42 292.898 1099.27 290.804Z" fill="white"/>
<path d="M1099.27 290.804C1131.13 288.711 1156.48 279.833 1155.89 270.975C1155.31 262.117 1129.02 256.633 1097.16 258.727C1065.31 260.82 1039.96 269.698 1040.54 278.556C1041.12 287.414 1067.42 292.898 1099.27 290.804Z" fill="#E5FBFF"/>
<path d="M1099.27 290.804C1131.13 288.711 1156.48 279.833 1155.89 270.975C1155.31 262.117 1129.02 256.633 1097.16 258.727C1065.31 260.82 1039.96 269.698 1040.54 278.556C1041.12 287.414 1067.42 292.898 1099.27 290.804Z" stroke="#D2FAB2" stroke-miterlimit="10"/>
<path d="M1099.27 290.803C1131.13 288.71 1156.47 279.832 1155.89 270.974L1157.11 289.575C1157.7 298.436 1132.35 307.311 1100.5 309.404C1068.64 311.497 1042.35 306.013 1041.76 297.156L1040.54 278.555C1041.12 287.412 1067.42 292.897 1099.27 290.803Z" fill="white"/>
<path d="M1099.27 290.803C1131.13 288.71 1156.47 279.832 1155.89 270.974L1157.11 289.575C1157.7 298.436 1132.35 307.311 1100.5 309.404C1068.64 311.497 1042.35 306.013 1041.76 297.156L1040.54 278.555C1041.12 287.412 1067.42 292.897 1099.27 290.803Z" fill="#E5FBFF"/>
<path d="M1099.27 290.803C1131.13 288.71 1156.47 279.832 1155.89 270.974L1157.11 289.575C1157.7 298.436 1132.35 307.311 1100.5 309.404C1068.64 311.497 1042.35 306.013 1041.76 297.156L1040.54 278.555C1041.12 287.412 1067.42 292.897 1099.27 290.803Z" stroke="#D2FAB2" stroke-miterlimit="10"/>
<path d="M1099.27 290.803L1100.49 309.404" stroke="#D2FAB2" stroke-miterlimit="10"/>
<path d="M1093.5 291.103L1094.72 309.703" stroke="#D2FAB2" stroke-miterlimit="10"/>
<path d="M1087.72 291.239L1088.94 309.839" stroke="#D2FAB2" stroke-miterlimit="10"/>
<path d="M1081.92 291.208L1083.14 309.805" stroke="#D2FAB2" stroke-miterlimit="10"/>
<path d="M1076.11 290.988L1077.33 309.585" stroke="#D2FAB2" stroke-miterlimit="10"/>
<path d="M1070.29 290.552L1071.52 309.152" stroke="#D2FAB2" stroke-miterlimit="10"/>
<path d="M1064.45 289.873L1065.68 308.473" stroke="#D2FAB2" stroke-miterlimit="10"/>
<path d="M1058.59 288.875L1059.82 307.471" stroke="#D2FAB2" stroke-miterlimit="10"/>
<path d="M1052.71 287.423L1053.93 306.02" stroke="#D2FAB2" stroke-miterlimit="10"/>
<path d="M1046.77 285.176L1047.99 303.773" stroke="#D2FAB2" stroke-miterlimit="10"/>
<path d="M1150.58 278.354L1151.81 296.95" stroke="#D2FAB2" stroke-miterlimit="10"/>
<path d="M1144.99 281.358L1146.21 299.955" stroke="#D2FAB2" stroke-miterlimit="10"/>
<path d="M1139.35 283.567L1140.57 302.164" stroke="#D2FAB2" stroke-miterlimit="10"/>
<path d="M1133.67 285.325L1134.89 303.926" stroke="#D2FAB2" stroke-miterlimit="10"/>
<path d="M1127.97 286.762L1129.19 305.363" stroke="#D2FAB2" stroke-miterlimit="10"/>
<path d="M1122.25 287.956L1123.48 306.552" stroke="#D2FAB2" stroke-miterlimit="10"/>
<path d="M1116.52 288.934L1117.74 307.53" stroke="#D2FAB2" stroke-miterlimit="10"/>
<path d="M1110.78 289.723L1112.01 308.324" stroke="#D2FAB2" stroke-miterlimit="10"/>
<path d="M1105.03 290.345L1106.25 308.946" stroke="#D2FAB2" stroke-miterlimit="10"/>
<path d="M1120.48 267.781C1152.33 265.688 1177.68 256.81 1177.1 247.952C1176.52 239.094 1150.22 233.61 1118.37 235.703C1086.52 237.797 1061.17 246.675 1061.75 255.533C1062.33 264.391 1088.62 269.875 1120.48 267.781Z" fill="white"/>
<path d="M1120.48 267.781C1152.33 265.688 1177.68 256.81 1177.1 247.952C1176.52 239.094 1150.22 233.61 1118.37 235.703C1086.52 237.797 1061.17 246.675 1061.75 255.533C1062.33 264.391 1088.62 269.875 1120.48 267.781Z" fill="#E5FBFF"/>
<path d="M1120.48 267.781C1152.33 265.688 1177.68 256.81 1177.1 247.952C1176.52 239.094 1150.22 233.61 1118.37 235.703C1086.52 237.797 1061.17 246.675 1061.75 255.533C1062.33 264.391 1088.62 269.875 1120.48 267.781Z" stroke="#D2FAB2" stroke-miterlimit="10"/>
<path d="M1120.47 267.764C1152.33 265.671 1177.68 256.796 1177.1 247.935L1178.32 266.552C1178.9 275.413 1153.55 284.288 1121.7 286.381C1089.84 288.474 1063.55 282.99 1062.97 274.133L1061.74 255.532C1062.33 264.393 1088.62 269.858 1120.47 267.764Z" fill="white"/>
<path d="M1120.47 267.764C1152.33 265.671 1177.68 256.796 1177.1 247.935L1178.32 266.552C1178.9 275.413 1153.55 284.288 1121.7 286.381C1089.84 288.474 1063.55 282.99 1062.97 274.133L1061.74 255.532C1062.33 264.393 1088.62 269.858 1120.47 267.764Z" fill="#E5FBFF"/>
<path d="M1120.47 267.764C1152.33 265.671 1177.68 256.796 1177.1 247.935L1178.32 266.552C1178.9 275.413 1153.55 284.288 1121.7 286.381C1089.84 288.474 1063.55 282.99 1062.97 274.133L1061.74 255.532C1062.33 264.393 1088.62 269.858 1120.47 267.764Z" stroke="#D2FAB2" stroke-miterlimit="10"/>
<path d="M1120.48 267.781L1121.7 286.382" stroke="#D2FAB2" stroke-miterlimit="10"/>
<path d="M1114.7 268.083L1115.93 286.68" stroke="#D2FAB2" stroke-miterlimit="10"/>
<path d="M1108.92 268.22L1110.14 286.817" stroke="#D2FAB2" stroke-miterlimit="10"/>
<path d="M1103.12 268.184L1104.35 286.784" stroke="#D2FAB2" stroke-miterlimit="10"/>
<path d="M1097.32 267.963L1098.54 286.56" stroke="#D2FAB2" stroke-miterlimit="10"/>
<path d="M1091.5 267.535L1092.72 286.131" stroke="#D2FAB2" stroke-miterlimit="10"/>
<path d="M1085.66 266.847L1086.88 285.448" stroke="#D2FAB2" stroke-miterlimit="10"/>
<path d="M1079.8 265.85L1081.02 284.447" stroke="#D2FAB2" stroke-miterlimit="10"/>
<path d="M1073.91 264.399L1075.13 282.996" stroke="#D2FAB2" stroke-miterlimit="10"/>
<path d="M1067.97 262.154L1069.2 280.754" stroke="#D2FAB2" stroke-miterlimit="10"/>
<path d="M1171.79 255.329L1173.01 273.93" stroke="#D2FAB2" stroke-miterlimit="10"/>
<path d="M1166.2 258.335L1167.42 276.932" stroke="#D2FAB2" stroke-miterlimit="10"/>
<path d="M1160.55 260.544L1161.77 279.141" stroke="#D2FAB2" stroke-miterlimit="10"/>
<path d="M1154.87 262.3L1156.09 280.9" stroke="#D2FAB2" stroke-miterlimit="10"/>
<path d="M1149.18 263.742L1150.4 282.339" stroke="#D2FAB2" stroke-miterlimit="10"/>
<path d="M1143.46 264.931L1144.68 283.528" stroke="#D2FAB2" stroke-miterlimit="10"/>
<path d="M1137.73 265.91L1138.95 284.511" stroke="#D2FAB2" stroke-miterlimit="10"/>
<path d="M1131.99 266.704L1133.21 285.3" stroke="#D2FAB2" stroke-miterlimit="10"/>
<path d="M1126.24 267.325L1127.46 285.922" stroke="#D2FAB2" stroke-miterlimit="10"/>
<path d="M1119.06 246.247C1150.91 244.154 1176.26 235.276 1175.68 226.418C1175.1 217.56 1148.8 212.076 1116.95 214.169C1085.1 216.263 1059.75 225.141 1060.33 233.999C1060.91 242.857 1087.2 248.34 1119.06 246.247Z" fill="white"/>
<path d="M1119.06 246.247C1150.91 244.154 1176.26 235.276 1175.68 226.418C1175.1 217.56 1148.8 212.076 1116.95 214.169C1085.1 216.263 1059.75 225.141 1060.33 233.999C1060.91 242.857 1087.2 248.34 1119.06 246.247Z" fill="#E5FBFF"/>
<path d="M1119.06 246.247C1150.91 244.154 1176.26 235.276 1175.68 226.418C1175.1 217.56 1148.8 212.076 1116.95 214.169C1085.1 216.263 1059.75 225.141 1060.33 233.999C1060.91 242.857 1087.2 248.34 1119.06 246.247Z" stroke="#D2FAB2" stroke-miterlimit="10"/>
<path d="M1119.06 246.248C1150.92 244.155 1176.27 235.276 1175.69 226.419L1176.91 245.015C1177.49 253.877 1152.14 262.751 1120.28 264.845C1088.43 266.938 1062.14 261.454 1061.55 252.596L1060.33 234C1060.91 242.857 1087.21 248.342 1119.06 246.248Z" fill="white"/>
<path d="M1119.06 246.248C1150.92 244.155 1176.27 235.276 1175.69 226.419L1176.91 245.015C1177.49 253.877 1152.14 262.751 1120.28 264.845C1088.43 266.938 1062.14 261.454 1061.55 252.596L1060.33 234C1060.91 242.857 1087.21 248.342 1119.06 246.248Z" fill="#E5FBFF"/>
<path d="M1119.06 246.248C1150.92 244.155 1176.27 235.276 1175.69 226.419L1176.91 245.015C1177.49 253.877 1152.14 262.751 1120.28 264.845C1088.43 266.938 1062.14 261.454 1061.55 252.596L1060.33 234C1060.91 242.857 1087.21 248.342 1119.06 246.248Z" stroke="#D2FAB2" stroke-miterlimit="10"/>
<path d="M1119.06 246.246L1120.28 264.843" stroke="#D2FAB2" stroke-miterlimit="10"/>
<path d="M1113.29 246.546L1114.51 265.147" stroke="#D2FAB2" stroke-miterlimit="10"/>
<path d="M1107.51 246.685L1108.73 265.286" stroke="#D2FAB2" stroke-miterlimit="10"/>
<path d="M1101.71 246.648L1102.93 265.249" stroke="#D2FAB2" stroke-miterlimit="10"/>
<path d="M1095.9 246.427L1097.13 265.027" stroke="#D2FAB2" stroke-miterlimit="10"/>
<path d="M1090.08 245.996L1091.3 264.593" stroke="#D2FAB2" stroke-miterlimit="10"/>
<path d="M1084.24 245.312L1085.47 263.912" stroke="#D2FAB2" stroke-miterlimit="10"/>
<path d="M1078.39 244.313L1079.61 262.914" stroke="#D2FAB2" stroke-miterlimit="10"/>
<path d="M1072.5 242.864L1073.72 261.465" stroke="#D2FAB2" stroke-miterlimit="10"/>
<path d="M1066.56 240.615L1067.78 259.216" stroke="#D2FAB2" stroke-miterlimit="10"/>
<path d="M1170.38 233.793L1171.6 252.394" stroke="#D2FAB2" stroke-miterlimit="10"/>
<path d="M1164.78 236.799L1166 255.399" stroke="#D2FAB2" stroke-miterlimit="10"/>
<path d="M1159.13 239.006L1160.35 257.607" stroke="#D2FAB2" stroke-miterlimit="10"/>
<path d="M1153.45 240.764L1154.68 259.364" stroke="#D2FAB2" stroke-miterlimit="10"/>
<path d="M1147.76 242.205L1148.98 260.801" stroke="#D2FAB2" stroke-miterlimit="10"/>
<path d="M1142.04 243.394L1143.27 261.995" stroke="#D2FAB2" stroke-miterlimit="10"/>
<path d="M1136.31 244.374L1137.53 262.975" stroke="#D2FAB2" stroke-miterlimit="10"/>
<path d="M1130.58 245.168L1131.8 263.768" stroke="#D2FAB2" stroke-miterlimit="10"/>
<path d="M1124.82 245.788L1126.05 264.388" stroke="#D2FAB2" stroke-miterlimit="10"/>
<path d="M1141.81 223.122C1173.66 221.028 1199.01 212.15 1198.43 203.292C1197.85 194.434 1171.56 188.95 1139.7 191.044C1107.85 193.137 1082.5 202.015 1083.08 210.873C1083.66 219.731 1109.96 225.215 1141.81 223.122Z" fill="white"/>
<path d="M1141.81 223.122C1173.66 221.028 1199.01 212.15 1198.43 203.292C1197.85 194.434 1171.56 188.95 1139.7 191.044C1107.85 193.137 1082.5 202.015 1083.08 210.873C1083.66 219.731 1109.96 225.215 1141.81 223.122Z" fill="#E5FBFF"/>
<path d="M1141.81 223.122C1173.66 221.028 1199.01 212.15 1198.43 203.292C1197.85 194.434 1171.56 188.95 1139.7 191.044C1107.85 193.137 1082.5 202.015 1083.08 210.873C1083.66 219.731 1109.96 225.215 1141.81 223.122Z" stroke="#D2FAB2" stroke-miterlimit="10"/>
<path d="M1141.81 223.123C1173.66 221.03 1199.01 212.151 1198.43 203.294L1199.65 221.89C1200.24 230.752 1174.88 239.63 1143.03 241.724C1111.18 243.817 1084.88 238.333 1084.3 229.471L1083.08 210.875C1083.66 219.732 1109.96 225.217 1141.81 223.123Z" fill="white"/>
<path d="M1141.81 223.123C1173.66 221.03 1199.01 212.151 1198.43 203.294L1199.65 221.89C1200.24 230.752 1174.88 239.63 1143.03 241.724C1111.18 243.817 1084.88 238.333 1084.3 229.471L1083.08 210.875C1083.66 219.732 1109.96 225.217 1141.81 223.123Z" fill="#E5FBFF"/>
<path d="M1141.81 223.123C1173.66 221.03 1199.01 212.151 1198.43 203.294L1199.65 221.89C1200.24 230.752 1174.88 239.63 1143.03 241.724C1111.18 243.817 1084.88 238.333 1084.3 229.471L1083.08 210.875C1083.66 219.732 1109.96 225.217 1141.81 223.123Z" stroke="#D2FAB2" stroke-miterlimit="10"/>
<path d="M1141.81 223.123L1143.03 241.723" stroke="#D2FAB2" stroke-miterlimit="10"/>
<path d="M1136.03 223.421L1137.25 242.021" stroke="#D2FAB2" stroke-miterlimit="10"/>
<path d="M1130.25 223.558L1131.47 242.159" stroke="#D2FAB2" stroke-miterlimit="10"/>
<path d="M1124.45 223.523L1125.67 242.123" stroke="#D2FAB2" stroke-miterlimit="10"/>
<path d="M1118.65 223.302L1119.87 241.902" stroke="#D2FAB2" stroke-miterlimit="10"/>
<path d="M1112.83 222.87L1114.05 241.471" stroke="#D2FAB2" stroke-miterlimit="10"/>
<path d="M1106.99 222.19L1108.21 240.787" stroke="#D2FAB2" stroke-miterlimit="10"/>
<path d="M1101.13 221.187L1102.36 239.788" stroke="#D2FAB2" stroke-miterlimit="10"/>
<path d="M1095.24 219.739L1096.46 238.339" stroke="#D2FAB2" stroke-miterlimit="10"/>
<path d="M1089.31 217.491L1090.53 236.092" stroke="#D2FAB2" stroke-miterlimit="10"/>
<path d="M1193.12 210.668L1194.34 229.268" stroke="#D2FAB2" stroke-miterlimit="10"/>
<path d="M1187.52 213.674L1188.75 232.275" stroke="#D2FAB2" stroke-miterlimit="10"/>
<path d="M1181.88 215.881L1183.1 234.482" stroke="#D2FAB2" stroke-miterlimit="10"/>
<path d="M1176.2 217.642L1177.43 236.239" stroke="#D2FAB2" stroke-miterlimit="10"/>
<path d="M1170.5 219.08L1171.72 237.681" stroke="#D2FAB2" stroke-miterlimit="10"/>
<path d="M1164.79 220.27L1166.01 238.87" stroke="#D2FAB2" stroke-miterlimit="10"/>
<path d="M1159.06 221.249L1160.28 239.85" stroke="#D2FAB2" stroke-miterlimit="10"/>
<path d="M1153.32 222.042L1154.54 240.643" stroke="#D2FAB2" stroke-miterlimit="10"/>
<path d="M1147.57 222.663L1148.79 241.263" stroke="#D2FAB2" stroke-miterlimit="10"/>
<path d="M1140.39 201.585C1172.25 199.492 1197.6 190.614 1197.02 181.756C1196.43 172.898 1170.14 167.414 1138.28 169.508C1106.43 171.601 1081.08 180.479 1081.66 189.337C1082.24 198.195 1108.54 203.679 1140.39 201.585Z" fill="white"/>
<path d="M1140.39 201.585C1172.25 199.492 1197.6 190.614 1197.02 181.756C1196.43 172.898 1170.14 167.414 1138.28 169.508C1106.43 171.601 1081.08 180.479 1081.66 189.337C1082.24 198.195 1108.54 203.679 1140.39 201.585Z" fill="#E5FBFF"/>
<path d="M1140.39 201.585C1172.25 199.492 1197.6 190.614 1197.02 181.756C1196.43 172.898 1170.14 167.414 1138.28 169.508C1106.43 171.601 1081.08 180.479 1081.66 189.337C1082.24 198.195 1108.54 203.679 1140.39 201.585Z" stroke="#D2FAB2" stroke-miterlimit="10"/>
<path d="M1140.4 201.584C1172.25 199.491 1197.6 190.612 1197.02 181.755L1198.24 200.356C1198.82 209.217 1173.47 218.092 1141.62 220.185C1109.76 222.278 1083.47 216.798 1082.89 207.937L1081.66 189.336C1082.25 198.193 1108.54 203.678 1140.4 201.584Z" fill="white"/>
<path d="M1140.4 201.584C1172.25 199.491 1197.6 190.612 1197.02 181.755L1198.24 200.356C1198.82 209.217 1173.47 218.092 1141.62 220.185C1109.76 222.278 1083.47 216.798 1082.89 207.937L1081.66 189.336C1082.25 198.193 1108.54 203.678 1140.4 201.584Z" fill="#E5FBFF"/>
<path d="M1140.4 201.584C1172.25 199.491 1197.6 190.612 1197.02 181.755L1198.24 200.356C1198.82 209.217 1173.47 218.092 1141.62 220.185C1109.76 222.278 1083.47 216.798 1082.89 207.937L1081.66 189.336C1082.25 198.193 1108.54 203.678 1140.4 201.584Z" stroke="#D2FAB2" stroke-miterlimit="10"/>
<path d="M1140.39 201.586L1141.61 220.187" stroke="#D2FAB2" stroke-miterlimit="10"/>
<path d="M1134.62 201.884L1135.84 220.485" stroke="#D2FAB2" stroke-miterlimit="10"/>
<path d="M1128.84 202.021L1130.06 220.621" stroke="#D2FAB2" stroke-miterlimit="10"/>
<path d="M1123.04 201.99L1124.26 220.587" stroke="#D2FAB2" stroke-miterlimit="10"/>
<path d="M1117.23 201.764L1118.46 220.365" stroke="#D2FAB2" stroke-miterlimit="10"/>
<path d="M1111.41 201.335L1112.64 219.936" stroke="#D2FAB2" stroke-miterlimit="10"/>
<path d="M1105.57 200.654L1106.8 219.255" stroke="#D2FAB2" stroke-miterlimit="10"/>
<path d="M1099.72 199.651L1100.94 218.251" stroke="#D2FAB2" stroke-miterlimit="10"/>
<path d="M1093.83 198.206L1095.05 216.803" stroke="#D2FAB2" stroke-miterlimit="10"/>
<path d="M1087.89 195.959L1089.11 214.556" stroke="#D2FAB2" stroke-miterlimit="10"/>
<path d="M1191.71 189.136L1192.93 207.733" stroke="#D2FAB2" stroke-miterlimit="10"/>
<path d="M1186.11 192.14L1187.33 210.737" stroke="#D2FAB2" stroke-miterlimit="10"/>
<path d="M1180.46 194.345L1181.69 212.946" stroke="#D2FAB2" stroke-miterlimit="10"/>
<path d="M1174.79 196.106L1176.01 214.706" stroke="#D2FAB2" stroke-miterlimit="10"/>
<path d="M1169.09 197.546L1170.31 216.147" stroke="#D2FAB2" stroke-miterlimit="10"/>
<path d="M1163.37 198.731L1164.6 217.332" stroke="#D2FAB2" stroke-miterlimit="10"/>
<path d="M1157.65 199.717L1158.87 218.313" stroke="#D2FAB2" stroke-miterlimit="10"/>
<path d="M1151.91 200.504L1153.13 219.105" stroke="#D2FAB2" stroke-miterlimit="10"/>
<path d="M1146.15 201.126L1147.38 219.727" stroke="#D2FAB2" stroke-miterlimit="10"/>
<path d="M990.972 321.266C1014.67 319.708 1033.53 313.103 1033.1 306.512C1032.67 299.922 1013.1 295.842 989.403 297.399C965.703 298.957 946.841 305.562 947.274 312.153C947.708 318.743 967.271 322.823 990.972 321.266Z" fill="white"/>
<path d="M990.972 321.266C1014.67 319.708 1033.53 313.103 1033.1 306.512C1032.67 299.922 1013.1 295.842 989.403 297.399C965.703 298.957 946.841 305.562 947.274 312.153C947.708 318.743 967.271 322.823 990.972 321.266Z" fill="#E5FBFF"/>
<path d="M990.972 321.266C1014.67 319.708 1033.53 313.103 1033.1 306.512C1032.67 299.922 1013.1 295.842 989.403 297.399C965.703 298.957 946.841 305.562 947.274 312.153C947.708 318.743 967.271 322.823 990.972 321.266Z" stroke="#D2FAB2" stroke-miterlimit="10"/>
<path d="M990.97 321.271C1014.67 319.713 1033.53 313.107 1033.1 306.517L1034.01 320.356C1034.44 326.949 1015.58 333.552 991.879 335.11C968.18 336.667 948.615 332.581 948.182 325.991L947.272 312.152C947.706 318.742 967.271 322.828 990.97 321.271Z" fill="white"/>
<path d="M990.97 321.271C1014.67 319.713 1033.53 313.107 1033.1 306.517L1034.01 320.356C1034.44 326.949 1015.58 333.552 991.879 335.11C968.18 336.667 948.615 332.581 948.182 325.991L947.272 312.152C947.706 318.742 967.271 322.828 990.97 321.271Z" fill="#E5FBFF"/>
<path d="M990.97 321.271C1014.67 319.713 1033.53 313.107 1033.1 306.517L1034.01 320.356C1034.44 326.949 1015.58 333.552 991.879 335.11C968.18 336.667 948.615 332.581 948.182 325.991L947.272 312.152C947.706 318.742 967.271 322.828 990.97 321.271Z" stroke="#D2FAB2" stroke-miterlimit="10"/>
<path d="M990.971 321.265L991.88 335.104" stroke="#D2FAB2" stroke-miterlimit="10"/>
<path d="M986.674 321.486L987.583 335.325" stroke="#D2FAB2" stroke-miterlimit="10"/>
<path d="M982.372 321.589L983.282 335.429" stroke="#D2FAB2" stroke-miterlimit="10"/>
<path d="M978.06 321.566L978.969 335.402" stroke="#D2FAB2" stroke-miterlimit="10"/>
<path d="M973.74 321.399L974.65 335.238" stroke="#D2FAB2" stroke-miterlimit="10"/>
<path d="M969.408 321.079L970.318 334.918" stroke="#D2FAB2" stroke-miterlimit="10"/>
<path d="M965.067 320.572L965.977 334.408" stroke="#D2FAB2" stroke-miterlimit="10"/>
<path d="M960.707 319.826L961.617 333.665" stroke="#D2FAB2" stroke-miterlimit="10"/>
<path d="M956.323 318.748L957.233 332.587" stroke="#D2FAB2" stroke-miterlimit="10"/>
<path d="M951.907 317.076L952.817 330.915" stroke="#D2FAB2" stroke-miterlimit="10"/>
<path d="M1029.15 311.999L1030.06 325.838" stroke="#D2FAB2" stroke-miterlimit="10"/>
<path d="M1024.99 314.236L1025.89 328.075" stroke="#D2FAB2" stroke-miterlimit="10"/>
<path d="M1020.78 315.877L1021.69 329.716" stroke="#D2FAB2" stroke-miterlimit="10"/>
<path d="M1016.56 317.188L1017.47 331.024" stroke="#D2FAB2" stroke-miterlimit="10"/>
<path d="M1012.32 318.258L1013.23 332.097" stroke="#D2FAB2" stroke-miterlimit="10"/>
<path d="M1008.07 319.143L1008.98 332.982" stroke="#D2FAB2" stroke-miterlimit="10"/>
<path d="M1003.81 319.874L1004.72 333.71" stroke="#D2FAB2" stroke-miterlimit="10"/>
<path d="M999.536 320.462L1000.45 334.301" stroke="#D2FAB2" stroke-miterlimit="10"/>
<path d="M995.258 320.922L996.167 334.761" stroke="#D2FAB2" stroke-miterlimit="10"/>
<path d="M973.087 306.348C996.787 304.791 1015.65 298.185 1015.22 291.595C1014.78 285.004 995.218 280.924 971.518 282.482C947.818 284.039 928.957 290.644 929.39 297.235C929.823 303.826 949.387 307.906 973.087 306.348Z" fill="white"/>
<path d="M973.087 306.348C996.787 304.791 1015.65 298.185 1015.22 291.595C1014.78 285.004 995.218 280.924 971.518 282.482C947.818 284.039 928.957 290.644 929.39 297.235C929.823 303.826 949.387 307.906 973.087 306.348Z" fill="#E5FBFF"/>
<path d="M973.087 306.348C996.787 304.791 1015.65 298.185 1015.22 291.595C1014.78 285.004 995.218 280.924 971.518 282.482C947.818 284.039 928.957 290.644 929.39 297.235C929.823 303.826 949.387 307.906 973.087 306.348Z" stroke="#D2FAB2" stroke-miterlimit="10"/>
<path d="M973.087 306.346C996.786 304.789 1015.65 298.183 1015.21 291.593L1016.12 305.432C1016.55 312.025 997.695 318.628 973.996 320.186C950.297 321.743 930.732 317.663 930.299 311.073L929.39 297.233C929.823 303.823 949.387 307.904 973.087 306.346Z" fill="white"/>
<path d="M973.087 306.346C996.786 304.789 1015.65 298.183 1015.21 291.593L1016.12 305.432C1016.55 312.025 997.695 318.628 973.996 320.186C950.297 321.743 930.732 317.663 930.299 311.073L929.39 297.233C929.823 303.823 949.387 307.904 973.087 306.346Z" fill="#E5FBFF"/>
<path d="M973.087 306.346C996.786 304.789 1015.65 298.183 1015.21 291.593L1016.12 305.432C1016.55 312.025 997.695 318.628 973.996 320.186C950.297 321.743 930.732 317.663 930.299 311.073L929.39 297.233C929.823 303.823 949.387 307.904 973.087 306.346Z" stroke="#D2FAB2" stroke-miterlimit="10"/>
<path d="M973.087 306.347L973.996 320.187" stroke="#D2FAB2" stroke-miterlimit="10"/>
<path d="M968.789 306.569L969.699 320.408" stroke="#D2FAB2" stroke-miterlimit="10"/>
<path d="M964.49 306.671L965.4 320.51" stroke="#D2FAB2" stroke-miterlimit="10"/>
<path d="M960.177 306.648L961.086 320.484" stroke="#D2FAB2" stroke-miterlimit="10"/>
<path d="M955.855 306.485L956.765 320.321" stroke="#D2FAB2" stroke-miterlimit="10"/>
<path d="M951.527 306.16L952.437 319.999" stroke="#D2FAB2" stroke-miterlimit="10"/>
<path d="M947.182 305.655L948.091 319.494" stroke="#D2FAB2" stroke-miterlimit="10"/>
<path d="M942.823 304.911L943.733 318.748" stroke="#D2FAB2" stroke-miterlimit="10"/>
<path d="M938.443 303.832L939.353 317.668" stroke="#D2FAB2" stroke-miterlimit="10"/>
<path d="M934.024 302.161L934.934 315.997" stroke="#D2FAB2" stroke-miterlimit="10"/>
<path d="M1011.26 297.084L1012.17 310.92" stroke="#D2FAB2" stroke-miterlimit="10"/>
<path d="M1007.1 299.321L1008.01 313.157" stroke="#D2FAB2" stroke-miterlimit="10"/>
<path d="M1002.9 300.963L1003.81 314.8" stroke="#D2FAB2" stroke-miterlimit="10"/>
<path d="M998.676 302.271L999.585 316.11" stroke="#D2FAB2" stroke-miterlimit="10"/>
<path d="M994.438 303.34L995.347 317.179" stroke="#D2FAB2" stroke-miterlimit="10"/>
<path d="M990.187 304.229L991.096 318.065" stroke="#D2FAB2" stroke-miterlimit="10"/>
<path d="M985.923 304.956L986.832 318.792" stroke="#D2FAB2" stroke-miterlimit="10"/>
<path d="M981.653 305.542L982.563 319.382" stroke="#D2FAB2" stroke-miterlimit="10"/>
<path d="M977.371 306.007L978.281 319.846" stroke="#D2FAB2" stroke-miterlimit="10"/>
<path d="M988.865 289.217C1012.57 287.66 1031.43 281.055 1030.99 274.464C1030.56 267.873 1011 263.793 987.297 265.351C963.597 266.909 944.735 273.514 945.168 280.104C945.601 286.695 965.165 290.775 988.865 289.217Z" fill="white"/>
<path d="M988.865 289.217C1012.57 287.66 1031.43 281.055 1030.99 274.464C1030.56 267.873 1011 263.793 987.297 265.351C963.597 266.909 944.735 273.514 945.168 280.104C945.601 286.695 965.165 290.775 988.865 289.217Z" fill="#E5FBFF"/>
<path d="M988.865 289.217C1012.57 287.66 1031.43 281.055 1030.99 274.464C1030.56 267.873 1011 263.793 987.297 265.351C963.597 266.909 944.735 273.514 945.168 280.104C945.601 286.695 965.165 290.775 988.865 289.217Z" stroke="#D2FAB2" stroke-miterlimit="10"/>
<path d="M988.862 289.206C1012.56 287.648 1031.42 281.045 1030.99 274.452L1031.9 288.303C1032.33 294.896 1013.47 301.499 989.772 303.057C966.073 304.614 946.508 300.534 946.075 293.944L945.166 280.105C945.599 286.697 965.163 290.763 988.862 289.206Z" fill="white"/>
<path d="M988.862 289.206C1012.56 287.648 1031.42 281.045 1030.99 274.452L1031.9 288.303C1032.33 294.896 1013.47 301.499 989.772 303.057C966.073 304.614 946.508 300.534 946.075 293.944L945.166 280.105C945.599 286.697 965.163 290.763 988.862 289.206Z" fill="#E5FBFF"/>
<path d="M988.862 289.206C1012.56 287.648 1031.42 281.045 1030.99 274.452L1031.9 288.303C1032.33 294.896 1013.47 301.499 989.772 303.057C966.073 304.614 946.508 300.534 946.075 293.944L945.166 280.105C945.599 286.697 965.163 290.763 988.862 289.206Z" stroke="#D2FAB2" stroke-miterlimit="10"/>
<path d="M988.865 289.218L989.775 303.057" stroke="#D2FAB2" stroke-miterlimit="10"/>
<path d="M984.569 289.443L985.479 303.279" stroke="#D2FAB2" stroke-miterlimit="10"/>
<path d="M980.267 289.544L981.176 303.381" stroke="#D2FAB2" stroke-miterlimit="10"/>
<path d="M975.953 289.517L976.863 303.357" stroke="#D2FAB2" stroke-miterlimit="10"/>
<path d="M971.635 289.353L972.544 303.189" stroke="#D2FAB2" stroke-miterlimit="10"/>
<path d="M967.303 289.035L968.212 302.871" stroke="#D2FAB2" stroke-miterlimit="10"/>
<path d="M962.959 288.523L963.868 302.362" stroke="#D2FAB2" stroke-miterlimit="10"/>
<path d="M958.602 287.781L959.511 301.618" stroke="#D2FAB2" stroke-miterlimit="10"/>
<path d="M954.219 286.702L955.128 300.538" stroke="#D2FAB2" stroke-miterlimit="10"/>
<path d="M949.802 285.031L950.711 298.87" stroke="#D2FAB2" stroke-miterlimit="10"/>
<path d="M1027.04 279.954L1027.95 293.793" stroke="#D2FAB2" stroke-miterlimit="10"/>
<path d="M1022.88 282.19L1023.79 296.026" stroke="#D2FAB2" stroke-miterlimit="10"/>
<path d="M1018.68 283.833L1019.59 297.67" stroke="#D2FAB2" stroke-miterlimit="10"/>
<path d="M1014.45 285.14L1015.36 298.979" stroke="#D2FAB2" stroke-miterlimit="10"/>
<path d="M1010.22 286.213L1011.13 300.049" stroke="#D2FAB2" stroke-miterlimit="10"/>
<path d="M1005.96 287.097L1006.87 300.933" stroke="#D2FAB2" stroke-miterlimit="10"/>
<path d="M1001.7 287.825L1002.61 301.664" stroke="#D2FAB2" stroke-miterlimit="10"/>
<path d="M997.43 288.416L998.339 302.252" stroke="#D2FAB2" stroke-miterlimit="10"/>
<path d="M993.151 288.878L994.061 302.715" stroke="#D2FAB2" stroke-miterlimit="10"/>
<path d="M987.808 273.196C1011.51 271.639 1030.37 265.033 1029.94 258.443C1029.5 251.852 1009.94 247.772 986.24 249.33C962.54 250.887 943.678 257.493 944.111 264.083C944.545 270.674 964.108 274.754 987.808 273.196Z" fill="white"/>
<path d="M987.808 273.196C1011.51 271.639 1030.37 265.033 1029.94 258.443C1029.5 251.852 1009.94 247.772 986.24 249.33C962.54 250.887 943.678 257.493 944.111 264.083C944.545 270.674 964.108 274.754 987.808 273.196Z" fill="#E5FBFF"/>
<path d="M987.808 273.196C1011.51 271.639 1030.37 265.033 1029.94 258.443C1029.5 251.852 1009.94 247.772 986.24 249.33C962.54 250.887 943.678 257.493 944.111 264.083C944.545 270.674 964.108 274.754 987.808 273.196Z" stroke="#D2FAB2" stroke-miterlimit="10"/>
<path d="M987.811 273.198C1011.51 271.64 1030.37 265.034 1029.94 258.444L1030.85 272.28C1031.28 278.873 1012.42 285.476 988.721 287.034C965.021 288.591 945.457 284.511 945.024 277.921L944.114 264.084C944.547 270.674 964.112 274.755 987.811 273.198Z" fill="white"/>
<path d="M987.811 273.198C1011.51 271.64 1030.37 265.034 1029.94 258.444L1030.85 272.28C1031.28 278.873 1012.42 285.476 988.721 287.034C965.021 288.591 945.457 284.511 945.024 277.921L944.114 264.084C944.547 270.674 964.112 274.755 987.811 273.198Z" fill="#E5FBFF"/>
<path d="M987.811 273.198C1011.51 271.64 1030.37 265.034 1029.94 258.444L1030.85 272.28C1031.28 278.873 1012.42 285.476 988.721 287.034C965.021 288.591 945.457 284.511 945.024 277.921L944.114 264.084C944.547 270.674 964.112 274.755 987.811 273.198Z" stroke="#D2FAB2" stroke-miterlimit="10"/>
<path d="M987.811 273.196L988.72 287.032" stroke="#D2FAB2" stroke-miterlimit="10"/>
<path d="M983.517 273.418L984.426 287.258" stroke="#D2FAB2" stroke-miterlimit="10"/>
<path d="M979.214 273.522L980.123 287.362" stroke="#D2FAB2" stroke-miterlimit="10"/>
<path d="M974.902 273.495L975.812 287.334" stroke="#D2FAB2" stroke-miterlimit="10"/>
<path d="M970.582 273.33L971.492 287.169" stroke="#D2FAB2" stroke-miterlimit="10"/>
<path d="M966.25 273.01L967.159 286.846" stroke="#D2FAB2" stroke-miterlimit="10"/>
<path d="M961.906 272.5L962.816 286.339" stroke="#D2FAB2" stroke-miterlimit="10"/>
<path d="M957.549 271.757L958.458 285.597" stroke="#D2FAB2" stroke-miterlimit="10"/>
<path d="M953.166 270.679L954.076 284.518" stroke="#D2FAB2" stroke-miterlimit="10"/>
<path d="M948.746 269.006L949.656 282.845" stroke="#D2FAB2" stroke-miterlimit="10"/>
<path d="M1025.99 263.93L1026.9 277.769" stroke="#D2FAB2" stroke-miterlimit="10"/>
<path d="M1021.83 266.167L1022.74 280.006" stroke="#D2FAB2" stroke-miterlimit="10"/>
<path d="M1017.62 267.81L1018.53 281.649" stroke="#D2FAB2" stroke-miterlimit="10"/>
<path d="M1013.4 269.116L1014.31 282.955" stroke="#D2FAB2" stroke-miterlimit="10"/>
<path d="M1009.16 270.188L1010.07 284.024" stroke="#D2FAB2" stroke-miterlimit="10"/>
<path d="M1004.91 271.074L1005.82 284.913" stroke="#D2FAB2" stroke-miterlimit="10"/>
<path d="M1000.65 271.803L1001.56 285.642" stroke="#D2FAB2" stroke-miterlimit="10"/>
<path d="M996.377 272.394L997.286 286.233" stroke="#D2FAB2" stroke-miterlimit="10"/>
<path d="M992.098 272.855L993.007 286.694" stroke="#D2FAB2" stroke-miterlimit="10"/>
<path d="M1004.74 255.991C1028.44 254.433 1047.3 247.828 1046.86 241.237C1046.43 234.647 1026.87 230.567 1003.17 232.124C979.468 233.682 960.606 240.287 961.039 246.878C961.472 253.468 981.036 257.548 1004.74 255.991Z" fill="white"/>
<path d="M1004.74 255.991C1028.44 254.433 1047.3 247.828 1046.86 241.237C1046.43 234.647 1026.87 230.567 1003.17 232.124C979.468 233.682 960.606 240.287 961.039 246.878C961.472 253.468 981.036 257.548 1004.74 255.991Z" fill="#E5FBFF"/>
<path d="M1004.74 255.991C1028.44 254.433 1047.3 247.828 1046.86 241.237C1046.43 234.647 1026.87 230.567 1003.17 232.124C979.468 233.682 960.606 240.287 961.039 246.878C961.472 253.468 981.036 257.548 1004.74 255.991Z" stroke="#D2FAB2" stroke-miterlimit="10"/>
<path d="M1004.74 255.991C1028.44 254.434 1047.3 247.828 1046.86 241.238L1047.77 255.074C1048.21 261.667 1029.34 268.273 1005.65 269.83C981.946 271.388 962.382 267.307 961.948 260.714L961.039 246.878C961.472 253.468 981.037 257.549 1004.74 255.991Z" fill="white"/>
<path d="M1004.74 255.991C1028.44 254.434 1047.3 247.828 1046.86 241.238L1047.77 255.074C1048.21 261.667 1029.34 268.273 1005.65 269.83C981.946 271.388 962.382 267.307 961.948 260.714L961.039 246.878C961.472 253.468 981.037 257.549 1004.74 255.991Z" fill="#E5FBFF"/>
<path d="M1004.74 255.991C1028.44 254.434 1047.3 247.828 1046.86 241.238L1047.77 255.074C1048.21 261.667 1029.34 268.273 1005.65 269.83C981.946 271.388 962.382 267.307 961.948 260.714L961.039 246.878C961.472 253.468 981.037 257.549 1004.74 255.991Z" stroke="#D2FAB2" stroke-miterlimit="10"/>
<path d="M1004.73 255.991L1005.64 269.83" stroke="#D2FAB2" stroke-miterlimit="10"/>
<path d="M1000.44 256.213L1001.35 270.053" stroke="#D2FAB2" stroke-miterlimit="10"/>
<path d="M996.137 256.315L997.046 270.154" stroke="#D2FAB2" stroke-miterlimit="10"/>
<path d="M991.822 256.289L992.732 270.128" stroke="#D2FAB2" stroke-miterlimit="10"/>
<path d="M987.506 256.125L988.415 269.964" stroke="#D2FAB2" stroke-miterlimit="10"/>
<path d="M983.174 255.803L984.083 269.643" stroke="#D2FAB2" stroke-miterlimit="10"/>
<path d="M978.83 255.298L979.739 269.134" stroke="#D2FAB2" stroke-miterlimit="10"/>
<path d="M974.472 254.551L975.381 268.39" stroke="#D2FAB2" stroke-miterlimit="10"/>
<path d="M970.089 253.474L970.998 267.313" stroke="#D2FAB2" stroke-miterlimit="10"/>
<path d="M965.673 251.802L966.582 265.641" stroke="#D2FAB2" stroke-miterlimit="10"/>
<path d="M1042.91 246.724L1043.82 260.564" stroke="#D2FAB2" stroke-miterlimit="10"/>
<path d="M1038.75 248.961L1039.66 262.8" stroke="#D2FAB2" stroke-miterlimit="10"/>
<path d="M1034.55 250.603L1035.46 264.442" stroke="#D2FAB2" stroke-miterlimit="10"/>
<path d="M1030.33 251.914L1031.23 265.75" stroke="#D2FAB2" stroke-miterlimit="10"/>
<path d="M1026.08 252.984L1026.99 266.823" stroke="#D2FAB2" stroke-miterlimit="10"/>
<path d="M1021.83 253.869L1022.74 267.708" stroke="#D2FAB2" stroke-miterlimit="10"/>
<path d="M1017.57 254.598L1018.48 268.437" stroke="#D2FAB2" stroke-miterlimit="10"/>
<path d="M1013.3 255.187L1014.21 269.026" stroke="#D2FAB2" stroke-miterlimit="10"/>
<path d="M1009.02 255.649L1009.93 269.488" stroke="#D2FAB2" stroke-miterlimit="10"/>
<path d="M1003.68 239.967C1027.38 238.409 1046.24 231.804 1045.81 225.214C1045.38 218.623 1025.81 214.543 1002.11 216.1C978.413 217.658 959.551 224.263 959.984 230.854C960.418 237.444 979.981 241.524 1003.68 239.967Z" fill="white"/>
<path d="M1003.68 239.967C1027.38 238.409 1046.24 231.804 1045.81 225.214C1045.38 218.623 1025.81 214.543 1002.11 216.1C978.413 217.658 959.551 224.263 959.984 230.854C960.418 237.444 979.981 241.524 1003.68 239.967Z" fill="#E5FBFF"/>
<path d="M1003.68 239.967C1027.38 238.409 1046.24 231.804 1045.81 225.214C1045.38 218.623 1025.81 214.543 1002.11 216.1C978.413 217.658 959.551 224.263 959.984 230.854C960.418 237.444 979.981 241.524 1003.68 239.967Z" stroke="#D2FAB2" stroke-miterlimit="10"/>
<path d="M1003.68 239.966C1027.38 238.409 1046.24 231.803 1045.81 225.213L1046.72 239.052C1047.15 245.645 1028.29 252.248 1004.59 253.805C980.893 255.363 961.328 251.285 960.895 244.692L959.985 230.853C960.418 237.443 979.983 241.524 1003.68 239.966Z" fill="white"/>
<path d="M1003.68 239.966C1027.38 238.409 1046.24 231.803 1045.81 225.213L1046.72 239.052C1047.15 245.645 1028.29 252.248 1004.59 253.805C980.893 255.363 961.328 251.285 960.895 244.692L959.985 230.853C960.418 237.443 979.983 241.524 1003.68 239.966Z" fill="#E5FBFF"/>
<path d="M1003.68 239.966C1027.38 238.409 1046.24 231.803 1045.81 225.213L1046.72 239.052C1047.15 245.645 1028.29 252.248 1004.59 253.805C980.893 255.363 961.328 251.285 960.895 244.692L959.985 230.853C960.418 237.443 979.983 241.524 1003.68 239.966Z" stroke="#D2FAB2" stroke-miterlimit="10"/>
<path d="M1003.68 239.968L1004.59 253.807" stroke="#D2FAB2" stroke-miterlimit="10"/>
<path d="M999.384 240.19L1000.29 254.029" stroke="#D2FAB2" stroke-miterlimit="10"/>
<path d="M995.084 240.291L995.993 254.13" stroke="#D2FAB2" stroke-miterlimit="10"/>
<path d="M990.77 240.269L991.679 254.105" stroke="#D2FAB2" stroke-miterlimit="10"/>
<path d="M986.451 240.1L987.361 253.94" stroke="#D2FAB2" stroke-miterlimit="10"/>
<path d="M982.122 239.781L983.032 253.62" stroke="#D2FAB2" stroke-miterlimit="10"/>
<path d="M977.776 239.274L978.686 253.114" stroke="#D2FAB2" stroke-miterlimit="10"/>
<path d="M973.419 238.528L974.328 252.367" stroke="#D2FAB2" stroke-miterlimit="10"/>
<path d="M969.035 237.453L969.944 251.289" stroke="#D2FAB2" stroke-miterlimit="10"/>
<path d="M964.62 235.781L965.529 249.617" stroke="#D2FAB2" stroke-miterlimit="10"/>
<path d="M1041.86 230.705L1042.77 244.541" stroke="#D2FAB2" stroke-miterlimit="10"/>
<path d="M1037.7 232.94L1038.6 246.776" stroke="#D2FAB2" stroke-miterlimit="10"/>
<path d="M1033.5 234.58L1034.41 248.419" stroke="#D2FAB2" stroke-miterlimit="10"/>
<path d="M1029.27 235.89L1030.18 249.729" stroke="#D2FAB2" stroke-miterlimit="10"/>
<path d="M1025.03 236.961L1025.94 250.8" stroke="#D2FAB2" stroke-miterlimit="10"/>
<path d="M1020.78 237.844L1021.69 251.683" stroke="#D2FAB2" stroke-miterlimit="10"/>
<path d="M1016.52 238.576L1017.43 252.413" stroke="#D2FAB2" stroke-miterlimit="10"/>
<path d="M1012.25 239.163L1013.16 253.003" stroke="#D2FAB2" stroke-miterlimit="10"/>
<path d="M1007.97 239.625L1008.88 253.464" stroke="#D2FAB2" stroke-miterlimit="10"/>
</svg>
