<svg width="1317" height="789" viewBox="0 0 1317 789" fill="none" xmlns="http://www.w3.org/2000/svg">
<rect width="1199.74" height="334.214" transform="matrix(0.995942 -0.0899986 0.0983397 0.995153 25.0859 107.975)" fill="white"/>
<rect width="170.963" height="253.445" transform="matrix(0.995942 -0.0899986 0.0983397 0.995153 25.0859 107.975)" fill="#0056A6" fill-opacity="0.15"/>
<rect width="170.963" height="253.445" transform="matrix(0.995942 -0.0899986 0.0983397 0.995153 366.619 77.1118)" fill="#0056A6" fill-opacity="0.05"/>
<rect width="170.963" height="334.214" transform="matrix(0.995942 -0.0899986 0.0983397 0.995153 708.152 46.2495)" fill="#0056A6" fill-opacity="0.05"/>
<rect width="23.9947" height="334.214" transform="matrix(0.995942 -0.0899986 0.0983397 0.995153 1049.69 15.3865)" fill="#D7FFB7"/>
<rect width="23.9947" height="334.214" transform="matrix(0.995942 -0.0899986 0.0983397 0.995153 1086.53 12.0574)" fill="#D7FFB7"/>
<rect width="22.995" height="334.214" transform="matrix(0.995942 -0.0899986 0.0983397 0.995153 1123.37 8.72827)" fill="#D7FFB7"/>
<rect width="23.9947" height="334.214" transform="matrix(0.995942 -0.0899986 0.0983397 0.995153 1159.22 5.48877)" fill="#D7FFB7"/>
<rect width="23.9947" height="334.214" transform="matrix(0.995942 -0.0899986 0.0983397 0.995153 1196.06 2.15967)" fill="#D7FFB7"/>
<rect width="1199.74" height="30.6363" transform="matrix(0.995942 -0.0899986 0.0983397 0.995153 25.0859 107.975)" fill="#FFFEF5" fill-opacity="0.5"/>
<rect x="0.27357" y="0.226289" width="171.462" height="4.14186" transform="matrix(0.995942 -0.0899986 0.0983397 0.995153 198.437 124.026)" stroke="#0056A6" stroke-opacity="0.25" stroke-width="0.5"/>
<rect x="0.27357" y="0.226289" width="171.462" height="5.07023" transform="matrix(0.995942 -0.0899986 0.0983397 0.995153 200.172 141.579)" stroke="#0056A6" stroke-opacity="0.25" stroke-width="0.5"/>
<rect x="0.27357" y="0.226289" width="171.462" height="4.14186" transform="matrix(0.995942 -0.0899986 0.0983397 0.995153 201.998 160.057)" stroke="#0056A6" stroke-opacity="0.25" stroke-width="0.5"/>
<rect x="0.27357" y="0.226289" width="171.462" height="5.07023" transform="matrix(0.995942 -0.0899986 0.0983397 0.995153 203.732 177.61)" stroke="#0056A6" stroke-opacity="0.25" stroke-width="0.5"/>
<rect x="0.27357" y="0.226289" width="171.462" height="4.14186" transform="matrix(0.995942 -0.0899986 0.0983397 0.995153 205.559 196.088)" stroke="#0056A6" stroke-opacity="0.25" stroke-width="0.5"/>
<rect x="0.27357" y="0.226289" width="171.462" height="5.07023" transform="matrix(0.995942 -0.0899986 0.0983397 0.995153 207.292 213.641)" stroke="#0056A6" stroke-opacity="0.25" stroke-width="0.5"/>
<rect x="0.27357" y="0.226289" width="171.462" height="4.14186" transform="matrix(0.995942 -0.0899986 0.0983397 0.995153 209.119 232.119)" stroke="#0056A6" stroke-opacity="0.25" stroke-width="0.5"/>
<rect x="0.27357" y="0.226289" width="171.462" height="5.07023" transform="matrix(0.995942 -0.0899986 0.0983397 0.995153 210.854 249.673)" stroke="#0056A6" stroke-opacity="0.25" stroke-width="0.5"/>
<rect x="0.27357" y="0.226289" width="171.462" height="4.14186" transform="matrix(0.995942 -0.0899986 0.0983397 0.995153 212.679 268.15)" stroke="#0056A6" stroke-opacity="0.25" stroke-width="0.5"/>
<rect x="0.27357" y="0.226289" width="171.462" height="5.07023" transform="matrix(0.995942 -0.0899986 0.0983397 0.995153 214.414 285.703)" stroke="#0056A6" stroke-opacity="0.25" stroke-width="0.5"/>
<rect x="0.27357" y="0.226289" width="171.462" height="4.14186" transform="matrix(0.995942 -0.0899986 0.0983397 0.995153 216.24 304.181)" stroke="#0056A6" stroke-opacity="0.25" stroke-width="0.5"/>
<rect x="0.27357" y="0.226289" width="171.462" height="5.07023" transform="matrix(0.995942 -0.0899986 0.0983397 0.995153 217.975 321.734)" stroke="#0056A6" stroke-opacity="0.25" stroke-width="0.5"/>
<rect x="0.27357" y="0.226289" width="171.462" height="4.14186" transform="matrix(0.995942 -0.0899986 0.0983397 0.995153 219.8 340.212)" stroke="#0056A6" stroke-opacity="0.25" stroke-width="0.5"/>
<rect width="685.85" height="80.7683" transform="matrix(0.995942 -0.0899986 0.0983397 0.995153 50.0098 360.192)" fill="#D7FFB7" fill-opacity="0.25"/>
<rect width="170.963" height="80.7683" transform="matrix(0.995942 -0.0899986 0.0983397 0.995153 895.401 202.703)" fill="#D7FFB7" fill-opacity="0.5"/>
<rect width="171.962" height="51.0604" transform="matrix(0.995942 -0.0899986 0.0983397 0.995153 539.992 93.1372)" fill="#0056A6" fill-opacity="0.03"/>
<rect width="171.962" height="51.0604" transform="matrix(0.995942 -0.0899986 0.0983397 0.995153 548.3 177.209)" fill="#0056A6" fill-opacity="0.03"/>
<rect width="171.962" height="51.0604" transform="matrix(0.995942 -0.0899986 0.0983397 0.995153 556.791 263.129)" fill="#0056A6" fill-opacity="0.03"/>
<rect x="0.27357" y="0.226289" width="17.9824" height="15.3684" transform="matrix(0.995942 -0.0899986 0.0983397 0.995153 731.494 282.701)" stroke="#E5FBFF" stroke-width="0.5"/>
<rect x="0.27357" y="0.226289" width="17.9824" height="15.3684" transform="matrix(0.995942 -0.0899986 0.0983397 0.995153 761.869 279.956)" stroke="#E5FBFF" stroke-width="0.5"/>
<rect x="0.27357" y="0.226289" width="17.9824" height="15.3684" transform="matrix(0.995942 -0.0899986 0.0983397 0.995153 792.238 277.212)" stroke="#E5FBFF" stroke-width="0.5"/>
<rect x="0.27357" y="0.226289" width="17.9824" height="15.3684" transform="matrix(0.995942 -0.0899986 0.0983397 0.995153 822.611 274.467)" stroke="#E5FBFF" stroke-width="0.5"/>
<rect x="0.27357" y="0.226289" width="17.9824" height="15.3684" transform="matrix(0.995942 -0.0899986 0.0983397 0.995153 852.984 271.722)" stroke="#E5FBFF" stroke-width="0.5"/>
<rect x="0.27357" y="0.226289" width="17.9824" height="15.3684" transform="matrix(0.995942 -0.0899986 0.0983397 0.995153 883.356 268.978)" stroke="#E5FBFF" stroke-width="0.5"/>
<rect x="0.27357" y="0.226289" width="17.9824" height="15.3684" transform="matrix(0.995942 -0.0899986 0.0983397 0.995153 729.145 258.922)" stroke="#E5FBFF" stroke-width="0.5"/>
<rect x="0.27357" y="0.226289" width="17.9824" height="15.3684" transform="matrix(0.995942 -0.0899986 0.0983397 0.995153 759.519 256.177)" stroke="#E5FBFF" stroke-width="0.5"/>
<rect x="0.27357" y="0.226289" width="17.9824" height="15.3684" transform="matrix(0.995942 -0.0899986 0.0983397 0.995153 789.888 253.432)" stroke="#E5FBFF" stroke-width="0.5"/>
<rect x="0.27357" y="0.226289" width="17.9824" height="15.3684" transform="matrix(0.995942 -0.0899986 0.0983397 0.995153 820.261 250.688)" stroke="#E5FBFF" stroke-width="0.5"/>
<rect x="0.27357" y="0.226289" width="17.9824" height="15.3684" transform="matrix(0.995942 -0.0899986 0.0983397 0.995153 850.634 247.943)" stroke="#E5FBFF" stroke-width="0.5"/>
<rect x="0.27357" y="0.226289" width="17.9824" height="15.3684" transform="matrix(0.995942 -0.0899986 0.0983397 0.995153 881.006 245.199)" stroke="#E5FBFF" stroke-width="0.5"/>
<rect x="0.27357" y="0.226289" width="17.9824" height="15.3684" transform="matrix(0.995942 -0.0899986 0.0983397 0.995153 726.795 235.143)" stroke="#E5FBFF" stroke-width="0.5"/>
<rect x="0.27357" y="0.226289" width="17.9824" height="15.3684" transform="matrix(0.995942 -0.0899986 0.0983397 0.995153 757.169 232.398)" stroke="#E5FBFF" stroke-width="0.5"/>
<rect x="0.27357" y="0.226289" width="17.9824" height="15.3684" transform="matrix(0.995942 -0.0899986 0.0983397 0.995153 787.538 229.653)" stroke="#E5FBFF" stroke-width="0.5"/>
<rect x="0.27357" y="0.226289" width="17.9824" height="15.3684" transform="matrix(0.995942 -0.0899986 0.0983397 0.995153 817.911 226.909)" stroke="#E5FBFF" stroke-width="0.5"/>
<rect x="0.27357" y="0.226289" width="17.9824" height="15.3684" transform="matrix(0.995942 -0.0899986 0.0983397 0.995153 848.285 224.164)" stroke="#E5FBFF" stroke-width="0.5"/>
<rect x="0.27357" y="0.226289" width="17.9824" height="15.3684" transform="matrix(0.995942 -0.0899986 0.0983397 0.995153 878.657 221.42)" stroke="#E5FBFF" stroke-width="0.5"/>
<rect x="0.27357" y="0.226289" width="17.9824" height="15.3684" transform="matrix(0.995942 -0.0899986 0.0983397 0.995153 724.445 211.363)" stroke="#E5FBFF" stroke-width="0.5"/>
<rect x="0.27357" y="0.226289" width="17.9824" height="15.3684" transform="matrix(0.995942 -0.0899986 0.0983397 0.995153 754.819 208.618)" stroke="#E5FBFF" stroke-width="0.5"/>
<rect x="0.27357" y="0.226289" width="17.9824" height="15.3684" transform="matrix(0.995942 -0.0899986 0.0983397 0.995153 785.188 205.874)" stroke="#E5FBFF" stroke-width="0.5"/>
<rect x="0.27357" y="0.226289" width="17.9824" height="15.3684" transform="matrix(0.995942 -0.0899986 0.0983397 0.995153 815.561 203.13)" stroke="#E5FBFF" stroke-width="0.5"/>
<rect x="0.27357" y="0.226289" width="17.9824" height="15.3684" transform="matrix(0.995942 -0.0899986 0.0983397 0.995153 845.934 200.385)" stroke="#E5FBFF" stroke-width="0.5"/>
<rect x="0.27357" y="0.226289" width="17.9824" height="15.3684" transform="matrix(0.995942 -0.0899986 0.0983397 0.995153 876.306 197.64)" stroke="#E5FBFF" stroke-width="0.5"/>
<rect x="0.27357" y="0.226289" width="17.9824" height="15.3684" transform="matrix(0.995942 -0.0899986 0.0983397 0.995153 722.095 187.584)" stroke="#E5FBFF" stroke-width="0.5"/>
<rect x="0.27357" y="0.226289" width="17.9824" height="15.3684" transform="matrix(0.995942 -0.0899986 0.0983397 0.995153 752.469 184.839)" stroke="#E5FBFF" stroke-width="0.5"/>
<rect x="0.27357" y="0.226289" width="17.9824" height="15.3684" transform="matrix(0.995942 -0.0899986 0.0983397 0.995153 782.838 182.095)" stroke="#E5FBFF" stroke-width="0.5"/>
<rect x="0.27357" y="0.226289" width="17.9824" height="15.3684" transform="matrix(0.995942 -0.0899986 0.0983397 0.995153 813.211 179.35)" stroke="#E5FBFF" stroke-width="0.5"/>
<rect x="0.27357" y="0.226289" width="17.9824" height="15.3684" transform="matrix(0.995942 -0.0899986 0.0983397 0.995153 843.584 176.605)" stroke="#E5FBFF" stroke-width="0.5"/>
<rect x="0.27357" y="0.226289" width="17.9824" height="15.3684" transform="matrix(0.995942 -0.0899986 0.0983397 0.995153 873.956 173.861)" stroke="#E5FBFF" stroke-width="0.5"/>
<rect x="0.27357" y="0.226289" width="17.9824" height="15.3684" transform="matrix(0.995942 -0.0899986 0.0983397 0.995153 719.745 163.806)" stroke="#E5FBFF" stroke-width="0.5"/>
<rect x="0.27357" y="0.226289" width="17.9824" height="15.3684" transform="matrix(0.995942 -0.0899986 0.0983397 0.995153 750.119 161.061)" stroke="#E5FBFF" stroke-width="0.5"/>
<rect x="0.27357" y="0.226289" width="17.9824" height="15.3684" transform="matrix(0.995942 -0.0899986 0.0983397 0.995153 780.489 158.316)" stroke="#E5FBFF" stroke-width="0.5"/>
<rect x="0.27357" y="0.226289" width="17.9824" height="15.3684" transform="matrix(0.995942 -0.0899986 0.0983397 0.995153 810.862 155.572)" stroke="#E5FBFF" stroke-width="0.5"/>
<rect x="0.27357" y="0.226289" width="17.9824" height="15.3684" transform="matrix(0.995942 -0.0899986 0.0983397 0.995153 841.235 152.827)" stroke="#E5FBFF" stroke-width="0.5"/>
<rect x="0.27357" y="0.226289" width="17.9824" height="15.3684" transform="matrix(0.995942 -0.0899986 0.0983397 0.995153 871.607 150.083)" stroke="#E5FBFF" stroke-width="0.5"/>
<rect x="0.27357" y="0.226289" width="17.9824" height="15.3684" transform="matrix(0.995942 -0.0899986 0.0983397 0.995153 717.396 140.027)" stroke="#E5FBFF" stroke-width="0.5"/>
<rect x="0.27357" y="0.226289" width="17.9824" height="15.3684" transform="matrix(0.995942 -0.0899986 0.0983397 0.995153 747.77 137.282)" stroke="#E5FBFF" stroke-width="0.5"/>
<rect x="0.27357" y="0.226289" width="17.9824" height="15.3684" transform="matrix(0.995942 -0.0899986 0.0983397 0.995153 778.139 134.538)" stroke="#E5FBFF" stroke-width="0.5"/>
<rect x="0.27357" y="0.226289" width="17.9824" height="15.3684" transform="matrix(0.995942 -0.0899986 0.0983397 0.995153 808.512 131.793)" stroke="#E5FBFF" stroke-width="0.5"/>
<rect x="0.27357" y="0.226289" width="17.9824" height="15.3684" transform="matrix(0.995942 -0.0899986 0.0983397 0.995153 838.885 129.048)" stroke="#E5FBFF" stroke-width="0.5"/>
<rect x="0.27357" y="0.226289" width="17.9824" height="15.3684" transform="matrix(0.995942 -0.0899986 0.0983397 0.995153 869.257 126.304)" stroke="#E5FBFF" stroke-width="0.5"/>
<rect x="0.27357" y="0.226289" width="17.9824" height="15.3684" transform="matrix(0.995942 -0.0899986 0.0983397 0.995153 715.045 116.248)" stroke="#E5FBFF" stroke-width="0.5"/>
<rect x="0.27357" y="0.226289" width="17.9824" height="15.3684" transform="matrix(0.995942 -0.0899986 0.0983397 0.995153 745.419 113.504)" stroke="#E5FBFF" stroke-width="0.5"/>
<rect x="0.27357" y="0.226289" width="17.9824" height="15.3684" transform="matrix(0.995942 -0.0899986 0.0983397 0.995153 775.788 110.759)" stroke="#E5FBFF" stroke-width="0.5"/>
<rect x="0.27357" y="0.226289" width="17.9824" height="15.3684" transform="matrix(0.995942 -0.0899986 0.0983397 0.995153 806.161 108.014)" stroke="#E5FBFF" stroke-width="0.5"/>
<rect x="0.27357" y="0.226289" width="17.9824" height="15.3684" transform="matrix(0.995942 -0.0899986 0.0983397 0.995153 836.535 105.269)" stroke="#E5FBFF" stroke-width="0.5"/>
<rect x="0.27357" y="0.226289" width="17.9824" height="15.3684" transform="matrix(0.995942 -0.0899986 0.0983397 0.995153 866.907 102.525)" stroke="#E5FBFF" stroke-width="0.5"/>
<rect x="0.27357" y="0.226289" width="17.9824" height="15.3684" transform="matrix(0.995942 -0.0899986 0.0983397 0.995153 712.696 92.4691)" stroke="#E5FBFF" stroke-width="0.5"/>
<rect x="0.27357" y="0.226289" width="17.9824" height="15.3684" transform="matrix(0.995942 -0.0899986 0.0983397 0.995153 743.07 89.7242)" stroke="#E5FBFF" stroke-width="0.5"/>
<rect x="0.27357" y="0.226289" width="17.9824" height="15.3684" transform="matrix(0.995942 -0.0899986 0.0983397 0.995153 773.439 86.9798)" stroke="#E5FBFF" stroke-width="0.5"/>
<rect x="0.27357" y="0.226289" width="17.9824" height="15.3684" transform="matrix(0.995942 -0.0899986 0.0983397 0.995153 803.812 84.2354)" stroke="#E5FBFF" stroke-width="0.5"/>
<rect x="0.27357" y="0.226289" width="17.9824" height="15.3684" transform="matrix(0.995942 -0.0899986 0.0983397 0.995153 834.185 81.4906)" stroke="#E5FBFF" stroke-width="0.5"/>
<rect x="0.27357" y="0.226289" width="17.9824" height="15.3684" transform="matrix(0.995942 -0.0899986 0.0983397 0.995153 864.557 78.7462)" stroke="#E5FBFF" stroke-width="0.5"/>
<path d="M1148.31 310.855C1180.16 308.761 1205.51 299.883 1204.93 291.025C1204.35 282.167 1178.05 276.683 1146.2 278.777C1114.34 280.87 1088.99 289.748 1089.58 298.606C1090.16 307.464 1116.45 312.948 1148.31 310.855Z" fill="white"/>
<path d="M1148.31 310.855C1180.16 308.761 1205.51 299.883 1204.93 291.025C1204.35 282.167 1178.05 276.683 1146.2 278.777C1114.34 280.87 1088.99 289.748 1089.58 298.606C1090.16 307.464 1116.45 312.948 1148.31 310.855Z" fill="#E5FBFF"/>
<path d="M1148.31 310.855C1180.16 308.761 1205.51 299.883 1204.93 291.025C1204.35 282.167 1178.05 276.683 1146.2 278.777C1114.34 280.87 1088.99 289.748 1089.58 298.606C1090.16 307.464 1116.45 312.948 1148.31 310.855Z" stroke="#D2FAB2" stroke-miterlimit="10"/>
<path d="M1148.31 310.862C1180.16 308.768 1205.51 299.89 1204.93 291.032L1206.15 309.633C1206.73 318.494 1181.38 327.369 1149.53 329.462C1117.68 331.556 1091.38 326.063 1090.8 317.206L1089.58 298.605C1090.16 307.462 1116.45 312.955 1148.31 310.862Z" fill="white"/>
<path d="M1148.31 310.862C1180.16 308.768 1205.51 299.89 1204.93 291.032L1206.15 309.633C1206.73 318.494 1181.38 327.369 1149.53 329.462C1117.68 331.556 1091.38 326.063 1090.8 317.206L1089.58 298.605C1090.16 307.462 1116.45 312.955 1148.31 310.862Z" fill="#E5FBFF"/>
<path d="M1148.31 310.862C1180.16 308.768 1205.51 299.89 1204.93 291.032L1206.15 309.633C1206.73 318.494 1181.38 327.369 1149.53 329.462C1117.68 331.556 1091.38 326.063 1090.8 317.206L1089.58 298.605C1090.16 307.462 1116.45 312.955 1148.31 310.862Z" stroke="#D2FAB2" stroke-miterlimit="10"/>
<path d="M1148.31 310.855L1149.53 329.456" stroke="#D2FAB2" stroke-miterlimit="10"/>
<path d="M1142.53 311.151L1143.75 329.751" stroke="#D2FAB2" stroke-miterlimit="10"/>
<path d="M1136.75 311.291L1137.97 329.891" stroke="#D2FAB2" stroke-miterlimit="10"/>
<path d="M1130.96 311.259L1132.18 329.856" stroke="#D2FAB2" stroke-miterlimit="10"/>
<path d="M1125.15 311.034L1126.37 329.635" stroke="#D2FAB2" stroke-miterlimit="10"/>
<path d="M1119.33 310.604L1120.55 329.205" stroke="#D2FAB2" stroke-miterlimit="10"/>
<path d="M1113.49 309.922L1114.71 328.519" stroke="#D2FAB2" stroke-miterlimit="10"/>
<path d="M1107.63 308.919L1108.85 327.52" stroke="#D2FAB2" stroke-miterlimit="10"/>
<path d="M1101.74 307.471L1102.96 326.072" stroke="#D2FAB2" stroke-miterlimit="10"/>
<path d="M1095.8 305.223L1097.03 323.823" stroke="#D2FAB2" stroke-miterlimit="10"/>
<path d="M1199.62 298.4L1200.84 317.001" stroke="#D2FAB2" stroke-miterlimit="10"/>
<path d="M1194.03 301.406L1195.25 320.007" stroke="#D2FAB2" stroke-miterlimit="10"/>
<path d="M1188.38 303.612L1189.6 322.213" stroke="#D2FAB2" stroke-miterlimit="10"/>
<path d="M1182.7 305.375L1183.92 323.971" stroke="#D2FAB2" stroke-miterlimit="10"/>
<path d="M1177.01 306.813L1178.23 325.414" stroke="#D2FAB2" stroke-miterlimit="10"/>
<path d="M1171.29 308.001L1172.51 326.602" stroke="#D2FAB2" stroke-miterlimit="10"/>
<path d="M1165.56 308.985L1166.78 327.582" stroke="#D2FAB2" stroke-miterlimit="10"/>
<path d="M1159.82 309.775L1161.04 328.375" stroke="#D2FAB2" stroke-miterlimit="10"/>
<path d="M1154.07 310.393L1155.29 328.994" stroke="#D2FAB2" stroke-miterlimit="10"/>
<path d="M1124.27 290.804C1156.13 288.711 1181.48 279.833 1180.89 270.975C1180.31 262.117 1154.02 256.633 1122.16 258.727C1090.31 260.82 1064.96 269.698 1065.54 278.556C1066.12 287.414 1092.42 292.898 1124.27 290.804Z" fill="white"/>
<path d="M1124.27 290.804C1156.13 288.711 1181.48 279.833 1180.89 270.975C1180.31 262.117 1154.02 256.633 1122.16 258.727C1090.31 260.82 1064.96 269.698 1065.54 278.556C1066.12 287.414 1092.42 292.898 1124.27 290.804Z" fill="#E5FBFF"/>
<path d="M1124.27 290.804C1156.13 288.711 1181.48 279.833 1180.89 270.975C1180.31 262.117 1154.02 256.633 1122.16 258.727C1090.31 260.82 1064.96 269.698 1065.54 278.556C1066.12 287.414 1092.42 292.898 1124.27 290.804Z" stroke="#D2FAB2" stroke-miterlimit="10"/>
<path d="M1124.27 290.803C1156.13 288.71 1181.47 279.832 1180.89 270.974L1182.11 289.575C1182.7 298.436 1157.35 307.311 1125.5 309.404C1093.64 311.497 1067.35 306.013 1066.76 297.156L1065.54 278.555C1066.12 287.412 1092.42 292.897 1124.27 290.803Z" fill="white"/>
<path d="M1124.27 290.803C1156.13 288.71 1181.47 279.832 1180.89 270.974L1182.11 289.575C1182.7 298.436 1157.35 307.311 1125.5 309.404C1093.64 311.497 1067.35 306.013 1066.76 297.156L1065.54 278.555C1066.12 287.412 1092.42 292.897 1124.27 290.803Z" fill="#E5FBFF"/>
<path d="M1124.27 290.803C1156.13 288.71 1181.47 279.832 1180.89 270.974L1182.11 289.575C1182.7 298.436 1157.35 307.311 1125.5 309.404C1093.64 311.497 1067.35 306.013 1066.76 297.156L1065.54 278.555C1066.12 287.412 1092.42 292.897 1124.27 290.803Z" stroke="#D2FAB2" stroke-miterlimit="10"/>
<path d="M1124.27 290.803L1125.49 309.404" stroke="#D2FAB2" stroke-miterlimit="10"/>
<path d="M1118.5 291.103L1119.72 309.703" stroke="#D2FAB2" stroke-miterlimit="10"/>
<path d="M1112.72 291.239L1113.94 309.839" stroke="#D2FAB2" stroke-miterlimit="10"/>
<path d="M1106.92 291.208L1108.14 309.805" stroke="#D2FAB2" stroke-miterlimit="10"/>
<path d="M1101.11 290.988L1102.33 309.585" stroke="#D2FAB2" stroke-miterlimit="10"/>
<path d="M1095.29 290.552L1096.52 309.152" stroke="#D2FAB2" stroke-miterlimit="10"/>
<path d="M1089.45 289.873L1090.68 308.473" stroke="#D2FAB2" stroke-miterlimit="10"/>
<path d="M1083.59 288.875L1084.82 307.471" stroke="#D2FAB2" stroke-miterlimit="10"/>
<path d="M1077.71 287.423L1078.93 306.02" stroke="#D2FAB2" stroke-miterlimit="10"/>
<path d="M1071.77 285.176L1072.99 303.773" stroke="#D2FAB2" stroke-miterlimit="10"/>
<path d="M1175.58 278.354L1176.81 296.95" stroke="#D2FAB2" stroke-miterlimit="10"/>
<path d="M1169.99 281.358L1171.21 299.955" stroke="#D2FAB2" stroke-miterlimit="10"/>
<path d="M1164.35 283.567L1165.57 302.164" stroke="#D2FAB2" stroke-miterlimit="10"/>
<path d="M1158.67 285.325L1159.89 303.926" stroke="#D2FAB2" stroke-miterlimit="10"/>
<path d="M1152.97 286.762L1154.19 305.363" stroke="#D2FAB2" stroke-miterlimit="10"/>
<path d="M1147.25 287.956L1148.48 306.552" stroke="#D2FAB2" stroke-miterlimit="10"/>
<path d="M1141.52 288.934L1142.74 307.53" stroke="#D2FAB2" stroke-miterlimit="10"/>
<path d="M1135.78 289.723L1137.01 308.324" stroke="#D2FAB2" stroke-miterlimit="10"/>
<path d="M1130.03 290.345L1131.25 308.946" stroke="#D2FAB2" stroke-miterlimit="10"/>
<path d="M1145.48 267.781C1177.33 265.688 1202.68 256.81 1202.1 247.952C1201.52 239.094 1175.22 233.61 1143.37 235.703C1111.52 237.797 1086.17 246.675 1086.75 255.533C1087.33 264.391 1113.62 269.875 1145.48 267.781Z" fill="white"/>
<path d="M1145.48 267.781C1177.33 265.688 1202.68 256.81 1202.1 247.952C1201.52 239.094 1175.22 233.61 1143.37 235.703C1111.52 237.797 1086.17 246.675 1086.75 255.533C1087.33 264.391 1113.62 269.875 1145.48 267.781Z" fill="#E5FBFF"/>
<path d="M1145.48 267.781C1177.33 265.688 1202.68 256.81 1202.1 247.952C1201.52 239.094 1175.22 233.61 1143.37 235.703C1111.52 237.797 1086.17 246.675 1086.75 255.533C1087.33 264.391 1113.62 269.875 1145.48 267.781Z" stroke="#D2FAB2" stroke-miterlimit="10"/>
<path d="M1145.47 267.764C1177.33 265.671 1202.68 256.796 1202.1 247.935L1203.32 266.552C1203.9 275.413 1178.55 284.288 1146.7 286.381C1114.84 288.474 1088.55 282.99 1087.97 274.133L1086.74 255.532C1087.33 264.393 1113.62 269.858 1145.47 267.764Z" fill="white"/>
<path d="M1145.47 267.764C1177.33 265.671 1202.68 256.796 1202.1 247.935L1203.32 266.552C1203.9 275.413 1178.55 284.288 1146.7 286.381C1114.84 288.474 1088.55 282.99 1087.97 274.133L1086.74 255.532C1087.33 264.393 1113.62 269.858 1145.47 267.764Z" fill="#E5FBFF"/>
<path d="M1145.47 267.764C1177.33 265.671 1202.68 256.796 1202.1 247.935L1203.32 266.552C1203.9 275.413 1178.55 284.288 1146.7 286.381C1114.84 288.474 1088.55 282.99 1087.97 274.133L1086.74 255.532C1087.33 264.393 1113.62 269.858 1145.47 267.764Z" stroke="#D2FAB2" stroke-miterlimit="10"/>
<path d="M1145.48 267.781L1146.7 286.382" stroke="#D2FAB2" stroke-miterlimit="10"/>
<path d="M1139.7 268.083L1140.93 286.68" stroke="#D2FAB2" stroke-miterlimit="10"/>
<path d="M1133.92 268.22L1135.14 286.817" stroke="#D2FAB2" stroke-miterlimit="10"/>
<path d="M1128.12 268.184L1129.35 286.784" stroke="#D2FAB2" stroke-miterlimit="10"/>
<path d="M1122.32 267.963L1123.54 286.56" stroke="#D2FAB2" stroke-miterlimit="10"/>
<path d="M1116.5 267.535L1117.72 286.131" stroke="#D2FAB2" stroke-miterlimit="10"/>
<path d="M1110.66 266.847L1111.88 285.448" stroke="#D2FAB2" stroke-miterlimit="10"/>
<path d="M1104.8 265.85L1106.02 284.447" stroke="#D2FAB2" stroke-miterlimit="10"/>
<path d="M1098.91 264.399L1100.13 282.996" stroke="#D2FAB2" stroke-miterlimit="10"/>
<path d="M1092.97 262.154L1094.2 280.754" stroke="#D2FAB2" stroke-miterlimit="10"/>
<path d="M1196.79 255.329L1198.01 273.93" stroke="#D2FAB2" stroke-miterlimit="10"/>
<path d="M1191.2 258.335L1192.42 276.932" stroke="#D2FAB2" stroke-miterlimit="10"/>
<path d="M1185.55 260.544L1186.77 279.141" stroke="#D2FAB2" stroke-miterlimit="10"/>
<path d="M1179.87 262.3L1181.09 280.9" stroke="#D2FAB2" stroke-miterlimit="10"/>
<path d="M1174.18 263.742L1175.4 282.339" stroke="#D2FAB2" stroke-miterlimit="10"/>
<path d="M1168.46 264.931L1169.68 283.528" stroke="#D2FAB2" stroke-miterlimit="10"/>
<path d="M1162.73 265.91L1163.95 284.511" stroke="#D2FAB2" stroke-miterlimit="10"/>
<path d="M1156.99 266.704L1158.21 285.3" stroke="#D2FAB2" stroke-miterlimit="10"/>
<path d="M1151.24 267.325L1152.46 285.922" stroke="#D2FAB2" stroke-miterlimit="10"/>
<path d="M1144.06 246.247C1175.91 244.154 1201.26 235.276 1200.68 226.418C1200.1 217.56 1173.8 212.076 1141.95 214.169C1110.1 216.263 1084.75 225.141 1085.33 233.999C1085.91 242.857 1112.2 248.34 1144.06 246.247Z" fill="white"/>
<path d="M1144.06 246.247C1175.91 244.154 1201.26 235.276 1200.68 226.418C1200.1 217.56 1173.8 212.076 1141.95 214.169C1110.1 216.263 1084.75 225.141 1085.33 233.999C1085.91 242.857 1112.2 248.34 1144.06 246.247Z" fill="#E5FBFF"/>
<path d="M1144.06 246.247C1175.91 244.154 1201.26 235.276 1200.68 226.418C1200.1 217.56 1173.8 212.076 1141.95 214.169C1110.1 216.263 1084.75 225.141 1085.33 233.999C1085.91 242.857 1112.2 248.34 1144.06 246.247Z" stroke="#D2FAB2" stroke-miterlimit="10"/>
<path d="M1144.06 246.248C1175.92 244.155 1201.27 235.276 1200.69 226.419L1201.91 245.015C1202.49 253.877 1177.14 262.751 1145.28 264.845C1113.43 266.938 1087.14 261.454 1086.55 252.596L1085.33 234C1085.91 242.857 1112.21 248.342 1144.06 246.248Z" fill="white"/>
<path d="M1144.06 246.248C1175.92 244.155 1201.27 235.276 1200.69 226.419L1201.91 245.015C1202.49 253.877 1177.14 262.751 1145.28 264.845C1113.43 266.938 1087.14 261.454 1086.55 252.596L1085.33 234C1085.91 242.857 1112.21 248.342 1144.06 246.248Z" fill="#E5FBFF"/>
<path d="M1144.06 246.248C1175.92 244.155 1201.27 235.276 1200.69 226.419L1201.91 245.015C1202.49 253.877 1177.14 262.751 1145.28 264.845C1113.43 266.938 1087.14 261.454 1086.55 252.596L1085.33 234C1085.91 242.857 1112.21 248.342 1144.06 246.248Z" stroke="#D2FAB2" stroke-miterlimit="10"/>
<path d="M1144.06 246.246L1145.28 264.843" stroke="#D2FAB2" stroke-miterlimit="10"/>
<path d="M1138.29 246.546L1139.51 265.147" stroke="#D2FAB2" stroke-miterlimit="10"/>
<path d="M1132.51 246.685L1133.73 265.286" stroke="#D2FAB2" stroke-miterlimit="10"/>
<path d="M1126.71 246.648L1127.93 265.249" stroke="#D2FAB2" stroke-miterlimit="10"/>
<path d="M1120.9 246.427L1122.13 265.027" stroke="#D2FAB2" stroke-miterlimit="10"/>
<path d="M1115.08 245.996L1116.3 264.593" stroke="#D2FAB2" stroke-miterlimit="10"/>
<path d="M1109.24 245.312L1110.47 263.912" stroke="#D2FAB2" stroke-miterlimit="10"/>
<path d="M1103.39 244.313L1104.61 262.914" stroke="#D2FAB2" stroke-miterlimit="10"/>
<path d="M1097.5 242.864L1098.72 261.465" stroke="#D2FAB2" stroke-miterlimit="10"/>
<path d="M1091.56 240.615L1092.78 259.216" stroke="#D2FAB2" stroke-miterlimit="10"/>
<path d="M1195.38 233.793L1196.6 252.394" stroke="#D2FAB2" stroke-miterlimit="10"/>
<path d="M1189.78 236.799L1191 255.399" stroke="#D2FAB2" stroke-miterlimit="10"/>
<path d="M1184.13 239.006L1185.35 257.607" stroke="#D2FAB2" stroke-miterlimit="10"/>
<path d="M1178.45 240.764L1179.68 259.364" stroke="#D2FAB2" stroke-miterlimit="10"/>
<path d="M1172.76 242.205L1173.98 260.801" stroke="#D2FAB2" stroke-miterlimit="10"/>
<path d="M1167.04 243.394L1168.27 261.995" stroke="#D2FAB2" stroke-miterlimit="10"/>
<path d="M1161.31 244.374L1162.53 262.975" stroke="#D2FAB2" stroke-miterlimit="10"/>
<path d="M1155.58 245.168L1156.8 263.768" stroke="#D2FAB2" stroke-miterlimit="10"/>
<path d="M1149.82 245.788L1151.05 264.388" stroke="#D2FAB2" stroke-miterlimit="10"/>
<path d="M1166.81 223.122C1198.66 221.028 1224.01 212.15 1223.43 203.292C1222.85 194.434 1196.56 188.95 1164.7 191.044C1132.85 193.137 1107.5 202.015 1108.08 210.873C1108.66 219.731 1134.96 225.215 1166.81 223.122Z" fill="white"/>
<path d="M1166.81 223.122C1198.66 221.028 1224.01 212.15 1223.43 203.292C1222.85 194.434 1196.56 188.95 1164.7 191.044C1132.85 193.137 1107.5 202.015 1108.08 210.873C1108.66 219.731 1134.96 225.215 1166.81 223.122Z" fill="#E5FBFF"/>
<path d="M1166.81 223.122C1198.66 221.028 1224.01 212.15 1223.43 203.292C1222.85 194.434 1196.56 188.95 1164.7 191.044C1132.85 193.137 1107.5 202.015 1108.08 210.873C1108.66 219.731 1134.96 225.215 1166.81 223.122Z" stroke="#D2FAB2" stroke-miterlimit="10"/>
<path d="M1166.81 223.123C1198.66 221.03 1224.01 212.151 1223.43 203.294L1224.65 221.89C1225.24 230.752 1199.88 239.63 1168.03 241.724C1136.18 243.817 1109.88 238.333 1109.3 229.471L1108.08 210.875C1108.66 219.732 1134.96 225.217 1166.81 223.123Z" fill="white"/>
<path d="M1166.81 223.123C1198.66 221.03 1224.01 212.151 1223.43 203.294L1224.65 221.89C1225.24 230.752 1199.88 239.63 1168.03 241.724C1136.18 243.817 1109.88 238.333 1109.3 229.471L1108.08 210.875C1108.66 219.732 1134.96 225.217 1166.81 223.123Z" fill="#E5FBFF"/>
<path d="M1166.81 223.123C1198.66 221.03 1224.01 212.151 1223.43 203.294L1224.65 221.89C1225.24 230.752 1199.88 239.63 1168.03 241.724C1136.18 243.817 1109.88 238.333 1109.3 229.471L1108.08 210.875C1108.66 219.732 1134.96 225.217 1166.81 223.123Z" stroke="#D2FAB2" stroke-miterlimit="10"/>
<path d="M1166.81 223.123L1168.03 241.723" stroke="#D2FAB2" stroke-miterlimit="10"/>
<path d="M1161.03 223.421L1162.25 242.021" stroke="#D2FAB2" stroke-miterlimit="10"/>
<path d="M1155.25 223.558L1156.47 242.159" stroke="#D2FAB2" stroke-miterlimit="10"/>
<path d="M1149.45 223.523L1150.67 242.123" stroke="#D2FAB2" stroke-miterlimit="10"/>
<path d="M1143.65 223.302L1144.87 241.902" stroke="#D2FAB2" stroke-miterlimit="10"/>
<path d="M1137.83 222.87L1139.05 241.471" stroke="#D2FAB2" stroke-miterlimit="10"/>
<path d="M1131.99 222.19L1133.21 240.787" stroke="#D2FAB2" stroke-miterlimit="10"/>
<path d="M1126.13 221.187L1127.36 239.788" stroke="#D2FAB2" stroke-miterlimit="10"/>
<path d="M1120.24 219.739L1121.46 238.339" stroke="#D2FAB2" stroke-miterlimit="10"/>
<path d="M1114.31 217.491L1115.53 236.092" stroke="#D2FAB2" stroke-miterlimit="10"/>
<path d="M1218.12 210.668L1219.34 229.268" stroke="#D2FAB2" stroke-miterlimit="10"/>
<path d="M1212.52 213.674L1213.75 232.275" stroke="#D2FAB2" stroke-miterlimit="10"/>
<path d="M1206.88 215.881L1208.1 234.482" stroke="#D2FAB2" stroke-miterlimit="10"/>
<path d="M1201.2 217.642L1202.43 236.239" stroke="#D2FAB2" stroke-miterlimit="10"/>
<path d="M1195.5 219.08L1196.72 237.681" stroke="#D2FAB2" stroke-miterlimit="10"/>
<path d="M1189.79 220.27L1191.01 238.87" stroke="#D2FAB2" stroke-miterlimit="10"/>
<path d="M1184.06 221.249L1185.28 239.85" stroke="#D2FAB2" stroke-miterlimit="10"/>
<path d="M1178.32 222.042L1179.54 240.643" stroke="#D2FAB2" stroke-miterlimit="10"/>
<path d="M1172.57 222.663L1173.79 241.263" stroke="#D2FAB2" stroke-miterlimit="10"/>
<path d="M1165.39 201.585C1197.25 199.492 1222.6 190.614 1222.02 181.756C1221.43 172.898 1195.14 167.414 1163.28 169.508C1131.43 171.601 1106.08 180.479 1106.66 189.337C1107.24 198.195 1133.54 203.679 1165.39 201.585Z" fill="white"/>
<path d="M1165.39 201.585C1197.25 199.492 1222.6 190.614 1222.02 181.756C1221.43 172.898 1195.14 167.414 1163.28 169.508C1131.43 171.601 1106.08 180.479 1106.66 189.337C1107.24 198.195 1133.54 203.679 1165.39 201.585Z" fill="#E5FBFF"/>
<path d="M1165.39 201.585C1197.25 199.492 1222.6 190.614 1222.02 181.756C1221.43 172.898 1195.14 167.414 1163.28 169.508C1131.43 171.601 1106.08 180.479 1106.66 189.337C1107.24 198.195 1133.54 203.679 1165.39 201.585Z" stroke="#D2FAB2" stroke-miterlimit="10"/>
<path d="M1165.4 201.584C1197.25 199.491 1222.6 190.612 1222.02 181.755L1223.24 200.356C1223.82 209.217 1198.47 218.092 1166.62 220.185C1134.76 222.278 1108.47 216.798 1107.89 207.937L1106.66 189.336C1107.25 198.193 1133.54 203.678 1165.4 201.584Z" fill="white"/>
<path d="M1165.4 201.584C1197.25 199.491 1222.6 190.612 1222.02 181.755L1223.24 200.356C1223.82 209.217 1198.47 218.092 1166.62 220.185C1134.76 222.278 1108.47 216.798 1107.89 207.937L1106.66 189.336C1107.25 198.193 1133.54 203.678 1165.4 201.584Z" fill="#E5FBFF"/>
<path d="M1165.4 201.584C1197.25 199.491 1222.6 190.612 1222.02 181.755L1223.24 200.356C1223.82 209.217 1198.47 218.092 1166.62 220.185C1134.76 222.278 1108.47 216.798 1107.89 207.937L1106.66 189.336C1107.25 198.193 1133.54 203.678 1165.4 201.584Z" stroke="#D2FAB2" stroke-miterlimit="10"/>
<path d="M1165.39 201.586L1166.61 220.187" stroke="#D2FAB2" stroke-miterlimit="10"/>
<path d="M1159.62 201.884L1160.84 220.485" stroke="#D2FAB2" stroke-miterlimit="10"/>
<path d="M1153.84 202.021L1155.06 220.621" stroke="#D2FAB2" stroke-miterlimit="10"/>
<path d="M1148.04 201.99L1149.26 220.587" stroke="#D2FAB2" stroke-miterlimit="10"/>
<path d="M1142.23 201.764L1143.46 220.365" stroke="#D2FAB2" stroke-miterlimit="10"/>
<path d="M1136.41 201.335L1137.64 219.936" stroke="#D2FAB2" stroke-miterlimit="10"/>
<path d="M1130.57 200.654L1131.8 219.255" stroke="#D2FAB2" stroke-miterlimit="10"/>
<path d="M1124.72 199.651L1125.94 218.251" stroke="#D2FAB2" stroke-miterlimit="10"/>
<path d="M1118.83 198.206L1120.05 216.803" stroke="#D2FAB2" stroke-miterlimit="10"/>
<path d="M1112.89 195.959L1114.11 214.556" stroke="#D2FAB2" stroke-miterlimit="10"/>
<path d="M1216.71 189.136L1217.93 207.733" stroke="#D2FAB2" stroke-miterlimit="10"/>
<path d="M1211.11 192.14L1212.33 210.737" stroke="#D2FAB2" stroke-miterlimit="10"/>
<path d="M1205.46 194.345L1206.69 212.946" stroke="#D2FAB2" stroke-miterlimit="10"/>
<path d="M1199.79 196.106L1201.01 214.706" stroke="#D2FAB2" stroke-miterlimit="10"/>
<path d="M1194.09 197.546L1195.31 216.147" stroke="#D2FAB2" stroke-miterlimit="10"/>
<path d="M1188.37 198.731L1189.6 217.332" stroke="#D2FAB2" stroke-miterlimit="10"/>
<path d="M1182.65 199.717L1183.87 218.313" stroke="#D2FAB2" stroke-miterlimit="10"/>
<path d="M1176.91 200.504L1178.13 219.105" stroke="#D2FAB2" stroke-miterlimit="10"/>
<path d="M1171.15 201.126L1172.38 219.727" stroke="#D2FAB2" stroke-miterlimit="10"/>
<path d="M1015.97 321.266C1039.67 319.708 1058.53 313.103 1058.1 306.512C1057.67 299.922 1038.1 295.842 1014.4 297.399C990.703 298.957 971.841 305.562 972.274 312.153C972.708 318.743 992.271 322.823 1015.97 321.266Z" fill="white"/>
<path d="M1015.97 321.266C1039.67 319.708 1058.53 313.103 1058.1 306.512C1057.67 299.922 1038.1 295.842 1014.4 297.399C990.703 298.957 971.841 305.562 972.274 312.153C972.708 318.743 992.271 322.823 1015.97 321.266Z" fill="#E5FBFF"/>
<path d="M1015.97 321.266C1039.67 319.708 1058.53 313.103 1058.1 306.512C1057.67 299.922 1038.1 295.842 1014.4 297.399C990.703 298.957 971.841 305.562 972.274 312.153C972.708 318.743 992.271 322.823 1015.97 321.266Z" stroke="#D2FAB2" stroke-miterlimit="10"/>
<path d="M1015.97 321.271C1039.67 319.713 1058.53 313.107 1058.1 306.517L1059.01 320.356C1059.44 326.949 1040.58 333.552 1016.88 335.11C993.18 336.667 973.615 332.581 973.182 325.991L972.272 312.152C972.706 318.742 992.271 322.828 1015.97 321.271Z" fill="white"/>
<path d="M1015.97 321.271C1039.67 319.713 1058.53 313.107 1058.1 306.517L1059.01 320.356C1059.44 326.949 1040.58 333.552 1016.88 335.11C993.18 336.667 973.615 332.581 973.182 325.991L972.272 312.152C972.706 318.742 992.271 322.828 1015.97 321.271Z" fill="#E5FBFF"/>
<path d="M1015.97 321.271C1039.67 319.713 1058.53 313.107 1058.1 306.517L1059.01 320.356C1059.44 326.949 1040.58 333.552 1016.88 335.11C993.18 336.667 973.615 332.581 973.182 325.991L972.272 312.152C972.706 318.742 992.271 322.828 1015.97 321.271Z" stroke="#D2FAB2" stroke-miterlimit="10"/>
<path d="M1015.97 321.265L1016.88 335.104" stroke="#D2FAB2" stroke-miterlimit="10"/>
<path d="M1011.67 321.486L1012.58 335.325" stroke="#D2FAB2" stroke-miterlimit="10"/>
<path d="M1007.37 321.589L1008.28 335.429" stroke="#D2FAB2" stroke-miterlimit="10"/>
<path d="M1003.06 321.566L1003.97 335.402" stroke="#D2FAB2" stroke-miterlimit="10"/>
<path d="M998.74 321.399L999.65 335.238" stroke="#D2FAB2" stroke-miterlimit="10"/>
<path d="M994.408 321.079L995.318 334.918" stroke="#D2FAB2" stroke-miterlimit="10"/>
<path d="M990.067 320.572L990.977 334.408" stroke="#D2FAB2" stroke-miterlimit="10"/>
<path d="M985.707 319.826L986.617 333.665" stroke="#D2FAB2" stroke-miterlimit="10"/>
<path d="M981.323 318.748L982.233 332.587" stroke="#D2FAB2" stroke-miterlimit="10"/>
<path d="M976.907 317.076L977.817 330.915" stroke="#D2FAB2" stroke-miterlimit="10"/>
<path d="M1054.15 311.999L1055.06 325.838" stroke="#D2FAB2" stroke-miterlimit="10"/>
<path d="M1049.99 314.236L1050.89 328.075" stroke="#D2FAB2" stroke-miterlimit="10"/>
<path d="M1045.78 315.877L1046.69 329.716" stroke="#D2FAB2" stroke-miterlimit="10"/>
<path d="M1041.56 317.188L1042.47 331.024" stroke="#D2FAB2" stroke-miterlimit="10"/>
<path d="M1037.32 318.258L1038.23 332.097" stroke="#D2FAB2" stroke-miterlimit="10"/>
<path d="M1033.07 319.143L1033.98 332.982" stroke="#D2FAB2" stroke-miterlimit="10"/>
<path d="M1028.81 319.874L1029.72 333.71" stroke="#D2FAB2" stroke-miterlimit="10"/>
<path d="M1024.54 320.462L1025.45 334.301" stroke="#D2FAB2" stroke-miterlimit="10"/>
<path d="M1020.26 320.922L1021.17 334.761" stroke="#D2FAB2" stroke-miterlimit="10"/>
<path d="M998.087 306.348C1021.79 304.791 1040.65 298.185 1040.22 291.595C1039.78 285.004 1020.22 280.924 996.518 282.482C972.818 284.039 953.957 290.644 954.39 297.235C954.823 303.826 974.387 307.906 998.087 306.348Z" fill="white"/>
<path d="M998.087 306.348C1021.79 304.791 1040.65 298.185 1040.22 291.595C1039.78 285.004 1020.22 280.924 996.518 282.482C972.818 284.039 953.957 290.644 954.39 297.235C954.823 303.826 974.387 307.906 998.087 306.348Z" fill="#E5FBFF"/>
<path d="M998.087 306.348C1021.79 304.791 1040.65 298.185 1040.22 291.595C1039.78 285.004 1020.22 280.924 996.518 282.482C972.818 284.039 953.957 290.644 954.39 297.235C954.823 303.826 974.387 307.906 998.087 306.348Z" stroke="#D2FAB2" stroke-miterlimit="10"/>
<path d="M998.087 306.346C1021.79 304.789 1040.65 298.183 1040.21 291.593L1041.12 305.432C1041.55 312.025 1022.7 318.628 998.996 320.186C975.297 321.743 955.732 317.663 955.299 311.073L954.39 297.233C954.823 303.823 974.387 307.904 998.087 306.346Z" fill="white"/>
<path d="M998.087 306.346C1021.79 304.789 1040.65 298.183 1040.21 291.593L1041.12 305.432C1041.55 312.025 1022.7 318.628 998.996 320.186C975.297 321.743 955.732 317.663 955.299 311.073L954.39 297.233C954.823 303.823 974.387 307.904 998.087 306.346Z" fill="#E5FBFF"/>
<path d="M998.087 306.346C1021.79 304.789 1040.65 298.183 1040.21 291.593L1041.12 305.432C1041.55 312.025 1022.7 318.628 998.996 320.186C975.297 321.743 955.732 317.663 955.299 311.073L954.39 297.233C954.823 303.823 974.387 307.904 998.087 306.346Z" stroke="#D2FAB2" stroke-miterlimit="10"/>
<path d="M998.087 306.347L998.996 320.187" stroke="#D2FAB2" stroke-miterlimit="10"/>
<path d="M993.789 306.569L994.699 320.408" stroke="#D2FAB2" stroke-miterlimit="10"/>
<path d="M989.49 306.671L990.4 320.51" stroke="#D2FAB2" stroke-miterlimit="10"/>
<path d="M985.177 306.648L986.086 320.484" stroke="#D2FAB2" stroke-miterlimit="10"/>
<path d="M980.855 306.485L981.765 320.321" stroke="#D2FAB2" stroke-miterlimit="10"/>
<path d="M976.527 306.16L977.437 319.999" stroke="#D2FAB2" stroke-miterlimit="10"/>
<path d="M972.182 305.655L973.091 319.494" stroke="#D2FAB2" stroke-miterlimit="10"/>
<path d="M967.823 304.911L968.733 318.748" stroke="#D2FAB2" stroke-miterlimit="10"/>
<path d="M963.443 303.832L964.353 317.668" stroke="#D2FAB2" stroke-miterlimit="10"/>
<path d="M959.024 302.161L959.934 315.997" stroke="#D2FAB2" stroke-miterlimit="10"/>
<path d="M1036.26 297.084L1037.17 310.92" stroke="#D2FAB2" stroke-miterlimit="10"/>
<path d="M1032.1 299.321L1033.01 313.157" stroke="#D2FAB2" stroke-miterlimit="10"/>
<path d="M1027.9 300.963L1028.81 314.8" stroke="#D2FAB2" stroke-miterlimit="10"/>
<path d="M1023.68 302.271L1024.59 316.11" stroke="#D2FAB2" stroke-miterlimit="10"/>
<path d="M1019.44 303.34L1020.35 317.179" stroke="#D2FAB2" stroke-miterlimit="10"/>
<path d="M1015.19 304.229L1016.1 318.065" stroke="#D2FAB2" stroke-miterlimit="10"/>
<path d="M1010.92 304.956L1011.83 318.792" stroke="#D2FAB2" stroke-miterlimit="10"/>
<path d="M1006.65 305.542L1007.56 319.382" stroke="#D2FAB2" stroke-miterlimit="10"/>
<path d="M1002.37 306.007L1003.28 319.846" stroke="#D2FAB2" stroke-miterlimit="10"/>
<path d="M1013.87 289.217C1037.57 287.66 1056.43 281.055 1055.99 274.464C1055.56 267.873 1036 263.793 1012.3 265.351C988.597 266.909 969.735 273.514 970.168 280.104C970.601 286.695 990.165 290.775 1013.87 289.217Z" fill="white"/>
<path d="M1013.87 289.217C1037.57 287.66 1056.43 281.055 1055.99 274.464C1055.56 267.873 1036 263.793 1012.3 265.351C988.597 266.909 969.735 273.514 970.168 280.104C970.601 286.695 990.165 290.775 1013.87 289.217Z" fill="#E5FBFF"/>
<path d="M1013.87 289.217C1037.57 287.66 1056.43 281.055 1055.99 274.464C1055.56 267.873 1036 263.793 1012.3 265.351C988.597 266.909 969.735 273.514 970.168 280.104C970.601 286.695 990.165 290.775 1013.87 289.217Z" stroke="#D2FAB2" stroke-miterlimit="10"/>
<path d="M1013.86 289.206C1037.56 287.648 1056.42 281.045 1055.99 274.452L1056.9 288.303C1057.33 294.896 1038.47 301.499 1014.77 303.057C991.073 304.614 971.508 300.534 971.075 293.944L970.166 280.105C970.599 286.697 990.163 290.763 1013.86 289.206Z" fill="white"/>
<path d="M1013.86 289.206C1037.56 287.648 1056.42 281.045 1055.99 274.452L1056.9 288.303C1057.33 294.896 1038.47 301.499 1014.77 303.057C991.073 304.614 971.508 300.534 971.075 293.944L970.166 280.105C970.599 286.697 990.163 290.763 1013.86 289.206Z" fill="#E5FBFF"/>
<path d="M1013.86 289.206C1037.56 287.648 1056.42 281.045 1055.99 274.452L1056.9 288.303C1057.33 294.896 1038.47 301.499 1014.77 303.057C991.073 304.614 971.508 300.534 971.075 293.944L970.166 280.105C970.599 286.697 990.163 290.763 1013.86 289.206Z" stroke="#D2FAB2" stroke-miterlimit="10"/>
<path d="M1013.87 289.218L1014.77 303.057" stroke="#D2FAB2" stroke-miterlimit="10"/>
<path d="M1009.57 289.443L1010.48 303.279" stroke="#D2FAB2" stroke-miterlimit="10"/>
<path d="M1005.27 289.544L1006.18 303.381" stroke="#D2FAB2" stroke-miterlimit="10"/>
<path d="M1000.95 289.517L1001.86 303.357" stroke="#D2FAB2" stroke-miterlimit="10"/>
<path d="M996.635 289.353L997.544 303.189" stroke="#D2FAB2" stroke-miterlimit="10"/>
<path d="M992.303 289.035L993.212 302.871" stroke="#D2FAB2" stroke-miterlimit="10"/>
<path d="M987.959 288.523L988.868 302.362" stroke="#D2FAB2" stroke-miterlimit="10"/>
<path d="M983.602 287.781L984.511 301.618" stroke="#D2FAB2" stroke-miterlimit="10"/>
<path d="M979.219 286.702L980.128 300.538" stroke="#D2FAB2" stroke-miterlimit="10"/>
<path d="M974.802 285.031L975.711 298.87" stroke="#D2FAB2" stroke-miterlimit="10"/>
<path d="M1052.04 279.954L1052.95 293.793" stroke="#D2FAB2" stroke-miterlimit="10"/>
<path d="M1047.88 282.19L1048.79 296.026" stroke="#D2FAB2" stroke-miterlimit="10"/>
<path d="M1043.68 283.833L1044.59 297.67" stroke="#D2FAB2" stroke-miterlimit="10"/>
<path d="M1039.45 285.14L1040.36 298.979" stroke="#D2FAB2" stroke-miterlimit="10"/>
<path d="M1035.22 286.213L1036.13 300.049" stroke="#D2FAB2" stroke-miterlimit="10"/>
<path d="M1030.96 287.097L1031.87 300.933" stroke="#D2FAB2" stroke-miterlimit="10"/>
<path d="M1026.7 287.825L1027.61 301.664" stroke="#D2FAB2" stroke-miterlimit="10"/>
<path d="M1022.43 288.416L1023.34 302.252" stroke="#D2FAB2" stroke-miterlimit="10"/>
<path d="M1018.15 288.878L1019.06 302.715" stroke="#D2FAB2" stroke-miterlimit="10"/>
<path d="M1012.81 273.196C1036.51 271.639 1055.37 265.033 1054.94 258.443C1054.5 251.852 1034.94 247.772 1011.24 249.33C987.54 250.887 968.678 257.493 969.111 264.083C969.545 270.674 989.108 274.754 1012.81 273.196Z" fill="white"/>
<path d="M1012.81 273.196C1036.51 271.639 1055.37 265.033 1054.94 258.443C1054.5 251.852 1034.94 247.772 1011.24 249.33C987.54 250.887 968.678 257.493 969.111 264.083C969.545 270.674 989.108 274.754 1012.81 273.196Z" fill="#E5FBFF"/>
<path d="M1012.81 273.196C1036.51 271.639 1055.37 265.033 1054.94 258.443C1054.5 251.852 1034.94 247.772 1011.24 249.33C987.54 250.887 968.678 257.493 969.111 264.083C969.545 270.674 989.108 274.754 1012.81 273.196Z" stroke="#D2FAB2" stroke-miterlimit="10"/>
<path d="M1012.81 273.198C1036.51 271.64 1055.37 265.034 1054.94 258.444L1055.85 272.28C1056.28 278.873 1037.42 285.476 1013.72 287.034C990.021 288.591 970.457 284.511 970.024 277.921L969.114 264.084C969.547 270.674 989.112 274.755 1012.81 273.198Z" fill="white"/>
<path d="M1012.81 273.198C1036.51 271.64 1055.37 265.034 1054.94 258.444L1055.85 272.28C1056.28 278.873 1037.42 285.476 1013.72 287.034C990.021 288.591 970.457 284.511 970.024 277.921L969.114 264.084C969.547 270.674 989.112 274.755 1012.81 273.198Z" fill="#E5FBFF"/>
<path d="M1012.81 273.198C1036.51 271.64 1055.37 265.034 1054.94 258.444L1055.85 272.28C1056.28 278.873 1037.42 285.476 1013.72 287.034C990.021 288.591 970.457 284.511 970.024 277.921L969.114 264.084C969.547 270.674 989.112 274.755 1012.81 273.198Z" stroke="#D2FAB2" stroke-miterlimit="10"/>
<path d="M1012.81 273.196L1013.72 287.032" stroke="#D2FAB2" stroke-miterlimit="10"/>
<path d="M1008.52 273.418L1009.43 287.258" stroke="#D2FAB2" stroke-miterlimit="10"/>
<path d="M1004.21 273.522L1005.12 287.362" stroke="#D2FAB2" stroke-miterlimit="10"/>
<path d="M999.902 273.495L1000.81 287.334" stroke="#D2FAB2" stroke-miterlimit="10"/>
<path d="M995.582 273.33L996.492 287.169" stroke="#D2FAB2" stroke-miterlimit="10"/>
<path d="M991.25 273.01L992.159 286.846" stroke="#D2FAB2" stroke-miterlimit="10"/>
<path d="M986.906 272.5L987.816 286.339" stroke="#D2FAB2" stroke-miterlimit="10"/>
<path d="M982.549 271.757L983.458 285.597" stroke="#D2FAB2" stroke-miterlimit="10"/>
<path d="M978.166 270.679L979.076 284.518" stroke="#D2FAB2" stroke-miterlimit="10"/>
<path d="M973.746 269.006L974.656 282.845" stroke="#D2FAB2" stroke-miterlimit="10"/>
<path d="M1050.99 263.93L1051.9 277.769" stroke="#D2FAB2" stroke-miterlimit="10"/>
<path d="M1046.83 266.167L1047.74 280.006" stroke="#D2FAB2" stroke-miterlimit="10"/>
<path d="M1042.62 267.81L1043.53 281.649" stroke="#D2FAB2" stroke-miterlimit="10"/>
<path d="M1038.4 269.116L1039.31 282.955" stroke="#D2FAB2" stroke-miterlimit="10"/>
<path d="M1034.16 270.188L1035.07 284.024" stroke="#D2FAB2" stroke-miterlimit="10"/>
<path d="M1029.91 271.074L1030.82 284.913" stroke="#D2FAB2" stroke-miterlimit="10"/>
<path d="M1025.65 271.803L1026.56 285.642" stroke="#D2FAB2" stroke-miterlimit="10"/>
<path d="M1021.38 272.394L1022.29 286.233" stroke="#D2FAB2" stroke-miterlimit="10"/>
<path d="M1017.1 272.855L1018.01 286.694" stroke="#D2FAB2" stroke-miterlimit="10"/>
<path d="M1029.74 255.991C1053.44 254.433 1072.3 247.828 1071.86 241.237C1071.43 234.647 1051.87 230.567 1028.17 232.124C1004.47 233.682 985.606 240.287 986.039 246.878C986.472 253.468 1006.04 257.548 1029.74 255.991Z" fill="white"/>
<path d="M1029.74 255.991C1053.44 254.433 1072.3 247.828 1071.86 241.237C1071.43 234.647 1051.87 230.567 1028.17 232.124C1004.47 233.682 985.606 240.287 986.039 246.878C986.472 253.468 1006.04 257.548 1029.74 255.991Z" fill="#E5FBFF"/>
<path d="M1029.74 255.991C1053.44 254.433 1072.3 247.828 1071.86 241.237C1071.43 234.647 1051.87 230.567 1028.17 232.124C1004.47 233.682 985.606 240.287 986.039 246.878C986.472 253.468 1006.04 257.548 1029.74 255.991Z" stroke="#D2FAB2" stroke-miterlimit="10"/>
<path d="M1029.74 255.991C1053.44 254.434 1072.3 247.828 1071.86 241.238L1072.77 255.074C1073.21 261.667 1054.34 268.273 1030.65 269.83C1006.95 271.388 987.382 267.307 986.948 260.714L986.039 246.878C986.472 253.468 1006.04 257.549 1029.74 255.991Z" fill="white"/>
<path d="M1029.74 255.991C1053.44 254.434 1072.3 247.828 1071.86 241.238L1072.77 255.074C1073.21 261.667 1054.34 268.273 1030.65 269.83C1006.95 271.388 987.382 267.307 986.948 260.714L986.039 246.878C986.472 253.468 1006.04 257.549 1029.74 255.991Z" fill="#E5FBFF"/>
<path d="M1029.74 255.991C1053.44 254.434 1072.3 247.828 1071.86 241.238L1072.77 255.074C1073.21 261.667 1054.34 268.273 1030.65 269.83C1006.95 271.388 987.382 267.307 986.948 260.714L986.039 246.878C986.472 253.468 1006.04 257.549 1029.74 255.991Z" stroke="#D2FAB2" stroke-miterlimit="10"/>
<path d="M1029.73 255.991L1030.64 269.83" stroke="#D2FAB2" stroke-miterlimit="10"/>
<path d="M1025.44 256.213L1026.35 270.053" stroke="#D2FAB2" stroke-miterlimit="10"/>
<path d="M1021.14 256.315L1022.05 270.154" stroke="#D2FAB2" stroke-miterlimit="10"/>
<path d="M1016.82 256.289L1017.73 270.128" stroke="#D2FAB2" stroke-miterlimit="10"/>
<path d="M1012.51 256.125L1013.42 269.964" stroke="#D2FAB2" stroke-miterlimit="10"/>
<path d="M1008.17 255.803L1009.08 269.643" stroke="#D2FAB2" stroke-miterlimit="10"/>
<path d="M1003.83 255.298L1004.74 269.134" stroke="#D2FAB2" stroke-miterlimit="10"/>
<path d="M999.472 254.551L1000.38 268.39" stroke="#D2FAB2" stroke-miterlimit="10"/>
<path d="M995.089 253.474L995.998 267.313" stroke="#D2FAB2" stroke-miterlimit="10"/>
<path d="M990.673 251.802L991.582 265.641" stroke="#D2FAB2" stroke-miterlimit="10"/>
<path d="M1067.91 246.724L1068.82 260.564" stroke="#D2FAB2" stroke-miterlimit="10"/>
<path d="M1063.75 248.961L1064.66 262.8" stroke="#D2FAB2" stroke-miterlimit="10"/>
<path d="M1059.55 250.603L1060.46 264.442" stroke="#D2FAB2" stroke-miterlimit="10"/>
<path d="M1055.33 251.914L1056.23 265.75" stroke="#D2FAB2" stroke-miterlimit="10"/>
<path d="M1051.08 252.984L1051.99 266.823" stroke="#D2FAB2" stroke-miterlimit="10"/>
<path d="M1046.83 253.869L1047.74 267.708" stroke="#D2FAB2" stroke-miterlimit="10"/>
<path d="M1042.57 254.598L1043.48 268.437" stroke="#D2FAB2" stroke-miterlimit="10"/>
<path d="M1038.3 255.187L1039.21 269.026" stroke="#D2FAB2" stroke-miterlimit="10"/>
<path d="M1034.02 255.649L1034.93 269.488" stroke="#D2FAB2" stroke-miterlimit="10"/>
<path d="M1028.68 239.967C1052.38 238.409 1071.24 231.804 1070.81 225.214C1070.38 218.623 1050.81 214.543 1027.11 216.1C1003.41 217.658 984.551 224.263 984.984 230.854C985.418 237.444 1004.98 241.524 1028.68 239.967Z" fill="white"/>
<path d="M1028.68 239.967C1052.38 238.409 1071.24 231.804 1070.81 225.214C1070.38 218.623 1050.81 214.543 1027.11 216.1C1003.41 217.658 984.551 224.263 984.984 230.854C985.418 237.444 1004.98 241.524 1028.68 239.967Z" fill="#E5FBFF"/>
<path d="M1028.68 239.967C1052.38 238.409 1071.24 231.804 1070.81 225.214C1070.38 218.623 1050.81 214.543 1027.11 216.1C1003.41 217.658 984.551 224.263 984.984 230.854C985.418 237.444 1004.98 241.524 1028.68 239.967Z" stroke="#D2FAB2" stroke-miterlimit="10"/>
<path d="M1028.68 239.966C1052.38 238.409 1071.24 231.803 1070.81 225.213L1071.72 239.052C1072.15 245.645 1053.29 252.248 1029.59 253.805C1005.89 255.363 986.328 251.285 985.895 244.692L984.985 230.853C985.418 237.443 1004.98 241.524 1028.68 239.966Z" fill="white"/>
<path d="M1028.68 239.966C1052.38 238.409 1071.24 231.803 1070.81 225.213L1071.72 239.052C1072.15 245.645 1053.29 252.248 1029.59 253.805C1005.89 255.363 986.328 251.285 985.895 244.692L984.985 230.853C985.418 237.443 1004.98 241.524 1028.68 239.966Z" fill="#E5FBFF"/>
<path d="M1028.68 239.966C1052.38 238.409 1071.24 231.803 1070.81 225.213L1071.72 239.052C1072.15 245.645 1053.29 252.248 1029.59 253.805C1005.89 255.363 986.328 251.285 985.895 244.692L984.985 230.853C985.418 237.443 1004.98 241.524 1028.68 239.966Z" stroke="#D2FAB2" stroke-miterlimit="10"/>
<path d="M1028.68 239.968L1029.59 253.807" stroke="#D2FAB2" stroke-miterlimit="10"/>
<path d="M1024.38 240.19L1025.29 254.029" stroke="#D2FAB2" stroke-miterlimit="10"/>
<path d="M1020.08 240.291L1020.99 254.13" stroke="#D2FAB2" stroke-miterlimit="10"/>
<path d="M1015.77 240.269L1016.68 254.105" stroke="#D2FAB2" stroke-miterlimit="10"/>
<path d="M1011.45 240.1L1012.36 253.94" stroke="#D2FAB2" stroke-miterlimit="10"/>
<path d="M1007.12 239.781L1008.03 253.62" stroke="#D2FAB2" stroke-miterlimit="10"/>
<path d="M1002.78 239.274L1003.69 253.114" stroke="#D2FAB2" stroke-miterlimit="10"/>
<path d="M998.419 238.528L999.328 252.367" stroke="#D2FAB2" stroke-miterlimit="10"/>
<path d="M994.035 237.453L994.944 251.289" stroke="#D2FAB2" stroke-miterlimit="10"/>
<path d="M989.62 235.781L990.529 249.617" stroke="#D2FAB2" stroke-miterlimit="10"/>
<path d="M1066.86 230.705L1067.77 244.541" stroke="#D2FAB2" stroke-miterlimit="10"/>
<path d="M1062.7 232.94L1063.6 246.776" stroke="#D2FAB2" stroke-miterlimit="10"/>
<path d="M1058.5 234.58L1059.41 248.419" stroke="#D2FAB2" stroke-miterlimit="10"/>
<path d="M1054.27 235.89L1055.18 249.729" stroke="#D2FAB2" stroke-miterlimit="10"/>
<path d="M1050.03 236.961L1050.94 250.8" stroke="#D2FAB2" stroke-miterlimit="10"/>
<path d="M1045.78 237.844L1046.69 251.683" stroke="#D2FAB2" stroke-miterlimit="10"/>
<path d="M1041.52 238.576L1042.43 252.413" stroke="#D2FAB2" stroke-miterlimit="10"/>
<path d="M1037.25 239.163L1038.16 253.003" stroke="#D2FAB2" stroke-miterlimit="10"/>
<path d="M1032.97 239.625L1033.88 253.464" stroke="#D2FAB2" stroke-miterlimit="10"/>
<rect width="1166.52" height="325.656" transform="matrix(1.00039 -0.00696078 0.0147896 0.999291 84.4902 385.387)" fill="#181F1C"/>
<mask id="mask0_1364_167309" style="mask-type:alpha" maskUnits="userSpaceOnUse" x="11" y="372" width="1303" height="337">
<path d="M104.16 665.732L541.21 694.212L1229.06 708.802L1313.14 422.614L537.591 372.075L23.0126 400.789L11.9009 547.677L104.16 665.732Z" fill="#4A4E5E"/>
</mask>
<g mask="url(#mask0_1364_167309)">
<rect width="1288.17" height="319.463" transform="matrix(0.997883 0.0650273 -0.0754318 0.997151 26.5596 339.663)" fill="#FFFEF5"/>
<rect width="1288.17" height="22.1849" transform="matrix(0.997883 0.0650273 -0.0754318 0.997151 5.87598 613.087)" fill="#D7FFB7" fill-opacity="0.2"/>
<rect width="1288.17" height="23.0723" transform="matrix(0.997883 0.0650273 -0.0754318 0.997151 9.35742 567.074)" fill="#D7FFB7" fill-opacity="0.2"/>
<rect width="1288.17" height="22.1849" transform="matrix(0.997883 0.0650273 -0.0754318 0.997151 12.7715 521.946)" fill="#D7FFB7" fill-opacity="0.2"/>
<rect width="1288.17" height="23.0723" transform="matrix(0.997883 0.0650273 -0.0754318 0.997151 16.251 475.933)" fill="#D7FFB7" fill-opacity="0.2"/>
<rect width="1288.17" height="23.0723" transform="matrix(0.997883 0.0650273 -0.0754318 0.997151 19.665 430.804)" fill="#D7FFB7" fill-opacity="0.2"/>
<rect width="1288.17" height="23.0723" transform="matrix(0.997883 0.0650273 -0.0754318 0.997151 23.1465 384.792)" fill="#D7FFB7" fill-opacity="0.2"/>
<rect width="1288.17" height="23.0723" transform="matrix(0.997883 0.0650273 -0.0754318 0.997151 26.5596 339.663)" fill="#D7FFB7" fill-opacity="0.2"/>
</g>
<path d="M103.188 664.335C74.0751 627.017 15.0531 551.528 11.8662 548.119L89.3948 576.291L103.188 664.335Z" fill="#0056A6"/>
<path d="M527.883 372.331L23.0466 400.346L58.9323 431.14L527.883 372.331Z" fill="#0056A6"/>
<path d="M1229.62 708.395L1311.13 427.818L1214.53 687.403L1229.62 708.395Z" fill="#0056A6"/>
<path d="M1182.52 655.084L563.138 694.698L1229.06 708.802L1182.52 655.084Z" fill="#0056A6"/>
</svg>
