<svg width="26" height="14" viewBox="0 0 26 14" fill="none" xmlns="http://www.w3.org/2000/svg">
<path d="M8.66626 5.56974L5.41315 3.90926C5.87736 3.60915 6.18237 3.10083 6.18237 2.52446C6.18237 1.60146 5.40099 0.853516 4.43673 0.853516H4.41911C3.45484 0.853516 2.67346 1.60146 2.67346 2.52446C2.67346 3.10083 2.97848 3.60915 3.44269 3.90926L0 5.56974V7.2023L2.18495 6.53694L0.149471 10.3337H2.05856L0.149471 13.8535H2.5009L4.38569 10.3941L6.26987 13.8535H8.6213L6.71221 10.3337H8.6213L6.58582 6.53694L8.66687 7.2023V5.56974H8.66626Z" fill="#FFFEF5"/>
<path d="M17.3333 5.56974L14.0801 3.90926C14.5443 3.60915 14.8494 3.10083 14.8494 2.52446C14.8494 1.60146 14.068 0.853516 13.1037 0.853516H13.0861C12.1218 0.853516 11.3405 1.60146 11.3405 2.52446C11.3405 3.10083 11.6455 3.60915 12.1097 3.90926L8.66699 5.56974V7.2023L10.8519 6.53694L8.81646 10.3337H10.7256L8.81646 13.8535H11.1679L13.0527 10.3941L14.9369 13.8535H17.2883L15.3792 10.3337H17.2883L15.2528 6.53694L17.3339 7.2023V5.56974H17.3333Z" fill="#FFFEF5"/>
<path d="M25.9996 5.56974L22.7465 3.90926C23.2107 3.60915 23.5157 3.10083 23.5157 2.52446C23.5157 1.60146 22.7343 0.853516 21.7701 0.853516H21.7525C20.7882 0.853516 20.0068 1.60146 20.0068 2.52446C20.0068 3.10083 20.3118 3.60915 20.776 3.90926L17.3333 5.56974V7.2023L19.5183 6.53694L17.4828 10.3337H19.3919L17.4828 13.8535H19.8342L21.719 10.3941L23.6032 13.8535H25.9546L24.0455 10.3337H25.9546L23.9192 6.53694L26.0002 7.2023V5.56974H25.9996Z" fill="#FFFEF5"/>
</svg>
