<svg width="105" height="31" viewBox="0 0 105 31" fill="none" xmlns="http://www.w3.org/2000/svg">
<path d="M45.9658 13.2397C45.9658 6.84099 47.961 3.2577 53.1731 3.2577C54.647 3.23707 56.1026 3.58499 57.4079 4.26987L56.8727 7.84733C55.7584 7.37532 54.5635 7.12252 53.3534 7.10275C51.6083 7.10275 50.6136 7.72517 50.6136 11.5993V14.6998C50.6136 18.8997 51.6839 19.7024 53.3534 19.7024C54.5688 19.6415 55.7526 19.2947 56.8087 18.6903L57.6755 22.0874C56.2762 22.9116 54.6807 23.3436 53.0568 23.338C47.932 23.338 45.9658 19.5221 45.9658 13.2397Z" fill="#E5FBFF"/>
<path d="M83.1191 0L83.9742 3.40296V15.8514C83.3427 16.1509 82.6485 16.2946 81.9499 16.2702C80.6992 16.2702 80.1583 15.5547 80.1583 13.7922V0H74.8706L75.7199 3.40296V12.7509C75.7199 18.1142 78.134 19.7313 80.8156 19.7313C81.6401 19.7529 82.4606 19.6105 83.2297 19.3125L84.3931 17.3754L85.3121 19.3707H88.4126V0H83.1191Z" fill="#E5FBFF"/>
<path d="M22.6684 3.5896L23.5236 6.98674V19.4352C22.892 19.7347 22.1978 19.8783 21.4992 19.854C20.2486 19.854 19.7076 19.1385 19.7076 17.3817V3.5896H14.4199L15.2692 6.98674V16.3289C15.2692 21.6922 17.6833 23.3093 20.3649 23.3093C21.1893 23.3301 22.0097 23.1877 22.779 22.8905L23.9424 20.9534L24.8615 22.9486H27.9619V3.5896H22.6684Z" fill="#E5FBFF"/>
<path d="M36.467 22.9718L35.6351 19.5747V7.12624C36.269 6.8275 36.9649 6.68395 37.6653 6.70743C38.9159 6.70743 39.4511 7.42291 39.4511 9.17965V22.9718H44.7446L43.8895 19.5747V10.2209C43.8895 4.86343 41.4754 3.24048 38.7938 3.24048C37.97 3.22143 37.1503 3.36167 36.3797 3.65349L35.2163 5.59055L34.2914 3.59532H31.1909V22.9893L36.467 22.9718Z" fill="#E5FBFF"/>
<path d="M97.4936 0H90.7749L91.63 3.40296V15.9968L90.7749 19.3939H96.0684V13.734H97.5285C101.664 13.734 104.049 11.6515 104.049 6.88154C104.049 2.11158 101.664 0 97.4936 0ZM99.4306 7.77736C99.4306 9.89476 98.8955 10.4881 97.3772 10.4881H96.0335V3.53094H97.2958C98.8431 3.53094 99.4074 4.0661 99.4074 6.11951L99.4306 7.77736Z" fill="#E5FBFF"/>
<path d="M6.72447 3.5896H0L0.855102 6.98674V19.5806L0 22.9777H5.29349V17.3178H6.75357C10.8953 17.3178 13.2744 15.2353 13.2744 10.4653C13.2744 5.69536 10.8953 3.5896 6.72447 3.5896ZM8.66155 11.3611C8.66155 13.4785 8.12056 14.0719 6.60232 14.0719H5.26441V7.13216H6.54997C8.0973 7.13216 8.66737 7.66733 8.66737 9.72074L8.66155 11.3611Z" fill="#E5FBFF"/>
<path d="M72.5094 6.98674L73.3645 3.5896H67.2508L68.1001 6.98674V11.303H64.1387V6.98674L64.9938 3.5896H58.8452L59.7003 6.98674V19.5806L58.8452 22.9835H64.9938L64.1387 19.5806V14.8804H68.1001V19.5806L67.2508 22.9835H73.3645L72.5094 19.5806V6.98674Z" fill="#E5FBFF"/>
<path d="M73.3642 26.5483H0V30.1142H73.3642V26.5483Z" fill="#E5FBFF"/>
<path d="M103.526 22.9717H73.3643V26.5491H103.526V22.9717Z" fill="#E5FBFF"/>
</svg>
