<svg width="210" height="210" viewBox="0 0 210 210" fill="none" xmlns="http://www.w3.org/2000/svg">
<rect width="210" height="210" fill="#181F1C"/>
<path fill-rule="evenodd" clip-rule="evenodd" d="M67.7438 69.8148V77.8955C67.7438 77.8955 80.1754 70.5038 80.1754 67.8745V60.3395C80.1754 60.3395 68.1499 66.0721 67.7438 69.8093V69.8148ZM24.8284 48.3231C24.8284 48.3231 36.305 43.1969 27.2379 31.2136L24.9217 6.44228L22.6274 30.938C13.1651 43.1197 24.8284 48.3231 24.8284 48.3231ZM27.4794 53.3061V61.3868C27.4794 61.3868 39.911 53.9951 39.911 51.3658V45.1371L42.4578 24.5109L35.5366 46.1514C32.0569 48.1578 27.7209 51.0792 27.4794 53.3005V53.3061ZM27.4794 69.8148V77.8955C27.4794 77.8955 39.911 70.5038 39.911 67.8745V60.3395C39.911 60.3395 27.8855 66.0721 27.4794 69.8093V69.8148ZM27.4794 86.3235V94.4042C27.4794 94.4042 39.911 87.0125 39.911 84.3887V76.8537C39.911 76.8537 27.8855 82.5863 27.4794 86.3235ZM27.4794 102.832V110.913C27.4794 110.913 39.911 103.521 39.911 100.897V93.3624C39.911 93.3624 27.8855 99.095 27.4794 102.832V102.832ZM27.4794 119.341V127.422C27.4794 127.422 39.911 120.03 39.911 117.401V109.866C39.911 109.866 27.8855 115.598 27.4794 119.335V119.341ZM22.1774 53.3116V61.3923C22.1774 61.3923 9.74569 54.0006 9.74569 51.3713V45.1482L7.19897 24.5164L14.1201 46.1569C17.5999 48.1633 21.9359 51.0847 22.1774 53.3061V53.3116ZM22.1774 69.8203V77.901C22.1774 77.901 9.74569 70.5093 9.74569 67.88V60.345C9.74569 60.345 21.7712 66.0776 22.1774 69.8148V69.8203ZM22.1774 86.329V94.4097C22.1774 94.4097 9.74569 87.018 9.74569 84.3942V76.8592C9.74569 76.8592 21.7712 82.5918 22.1774 86.329V86.329ZM22.1774 102.838V110.918C22.1774 110.918 9.74569 103.527 9.74569 100.903V93.3679C9.74569 93.3679 21.7712 99.1005 22.1774 102.838ZM22.1774 119.346V127.427C22.1774 127.427 9.74569 120.035 9.74569 117.406V109.871C9.74569 109.871 21.7712 115.604 22.1774 119.341V119.346ZM22.1774 129.516H27.4794V203.505H22.1774V129.505V129.516ZM105.352 48.3231C105.352 48.3231 116.828 43.1969 107.761 31.2136L105.45 6.43677L103.156 30.9325C93.6939 43.1142 105.357 48.3176 105.357 48.3176L105.352 48.3231ZM108.003 53.3061V61.3868C108.003 61.3868 120.434 53.9951 120.434 51.3658V45.1371L122.981 24.5109L116.06 46.1514C112.58 48.1578 108.244 51.0792 108.003 53.3005V53.3061ZM108.003 69.8148V77.8955C108.003 77.8955 120.434 70.5038 120.434 67.8745V60.3395C120.434 60.3395 108.409 66.0721 108.003 69.8093V69.8148ZM108.003 86.3235V94.4042C108.003 94.4042 120.434 87.0125 120.434 84.3887V76.8537C120.434 76.8537 108.409 82.5863 108.003 86.3235ZM108.003 102.832V110.913C108.003 110.913 120.434 103.521 120.434 100.897V93.3624C120.434 93.3624 108.409 99.095 108.003 102.832V102.832ZM108.003 119.341V127.422C108.003 127.422 120.434 120.03 120.434 117.401V109.866C120.434 109.866 108.409 115.598 108.003 119.335V119.341ZM102.701 53.3116V61.3923C102.701 61.3923 90.269 54.0006 90.269 51.3713V45.1482L87.7223 24.5219L94.6434 46.1624C98.1232 48.1688 102.459 51.0902 102.701 53.3116V53.3116ZM102.701 69.8203V77.901C102.701 77.901 90.269 70.5093 90.269 67.88V60.345C90.269 60.345 102.295 66.0776 102.701 69.8148V69.8203ZM102.701 86.329V94.4097C102.701 94.4097 90.269 87.018 90.269 84.3942V76.8592C90.269 76.8592 102.295 82.5918 102.701 86.329V86.329ZM102.701 102.838V110.918C102.701 110.918 90.269 103.527 90.269 100.903V93.3679C90.269 93.3679 102.295 99.1005 102.701 102.838ZM102.701 119.346V127.427C102.701 127.427 90.269 120.035 90.269 117.406V109.871C90.269 109.871 102.295 115.604 102.701 119.341V119.346ZM65.0928 48.3176C65.0928 48.3176 76.5694 43.1914 67.5023 31.2081L65.1861 6.43677L62.8918 30.9325C53.4295 43.1142 65.0928 48.3176 65.0928 48.3176V48.3176ZM67.7438 53.3005V61.3813C67.7438 61.3813 80.1754 53.9896 80.1754 51.3603V45.1316L82.7222 24.5054L75.801 46.1459C72.3212 48.1523 67.9853 51.0737 67.7438 53.295V53.3005ZM67.7438 86.318V94.3987C67.7438 94.3987 80.1754 87.007 80.1754 84.3832V76.8482C80.1754 76.8482 68.1499 82.5808 67.7438 86.318ZM67.7438 102.827V110.907C67.7438 110.907 80.1754 103.516 80.1754 100.892V93.3569C80.1754 93.3569 68.1499 99.0895 67.7438 102.827V102.827ZM67.7438 119.335V127.416C67.7438 127.416 80.1754 120.024 80.1754 117.395V109.86C80.1754 109.86 68.1499 115.593 67.7438 119.33V119.335ZM62.4418 69.8093V77.89C62.4418 77.89 50.0101 70.4983 50.0101 67.869V60.334C50.0101 60.334 62.0356 66.0665 62.4418 69.8037V69.8093ZM62.4418 53.3005V61.3813C62.4418 61.3813 50.0101 53.9896 50.0101 51.3603V45.1371L47.4634 24.5109L54.3845 46.1514C57.8643 48.1578 62.2003 51.0792 62.4418 53.3005V53.3005ZM62.4418 86.318V94.3987C62.4418 94.3987 50.0101 87.007 50.0101 84.3832V76.8482C50.0101 76.8482 62.0356 82.5808 62.4418 86.318V86.318ZM62.4418 102.827V110.907C62.4418 110.907 50.0101 103.516 50.0101 100.892V93.3569C50.0101 93.3569 62.0356 99.0895 62.4418 102.827ZM62.4418 119.335V127.416C62.4418 127.416 50.0101 120.024 50.0101 117.395V109.86C50.0101 109.86 62.0356 115.593 62.4418 119.33V119.335ZM62.4418 129.505H67.7438V203.494H62.4418V129.5V129.505ZM102.706 129.505H108.008V203.494H102.706V129.5V129.505Z" fill="#FF8540"/>
<path fill-rule="evenodd" clip-rule="evenodd" d="M188.548 69.8148V77.8955C188.548 77.8955 200.98 70.5038 200.98 67.8745V60.3395C200.98 60.3395 188.954 66.0721 188.548 69.8093V69.8148ZM145.632 48.3231C145.632 48.3231 157.109 43.1969 148.042 31.2136L145.731 6.44228L143.437 30.938C133.975 43.1197 145.638 48.3231 145.638 48.3231H145.632ZM148.283 53.3061V61.3868C148.283 61.3868 160.715 53.9951 160.715 51.3658V45.1371L163.262 24.5109L156.341 46.1514C152.861 48.1578 148.525 51.0792 148.283 53.3005V53.3061ZM148.283 69.8148V77.8955C148.283 77.8955 160.715 70.5038 160.715 67.8745V60.3395C160.715 60.3395 148.69 66.0721 148.283 69.8093V69.8148ZM148.283 86.3235V94.4042C148.283 94.4042 160.715 87.0125 160.715 84.3887V76.8537C160.715 76.8537 148.69 82.5863 148.283 86.3235ZM148.283 102.832V110.913C148.283 110.913 160.715 103.521 160.715 100.897V93.3624C160.715 93.3624 148.69 99.095 148.283 102.832V102.832ZM148.283 119.341V127.422C148.283 127.422 160.715 120.03 160.715 117.401V109.866C160.715 109.866 148.69 115.598 148.283 119.335V119.341ZM142.981 53.3116V61.3923C142.981 61.3923 130.55 54.0006 130.55 51.3713V45.1482L128.003 24.5219L134.924 46.1624C138.404 48.1688 142.74 51.0902 142.981 53.3116V53.3116ZM142.981 69.8203V77.901C142.981 77.901 130.55 70.5093 130.55 67.88V60.345C130.55 60.345 142.575 66.0776 142.981 69.8148V69.8203ZM142.981 86.329V94.4097C142.981 94.4097 130.55 87.018 130.55 84.3942V76.8592C130.55 76.8592 142.575 82.5918 142.981 86.329V86.329ZM142.981 102.838V110.918C142.981 110.918 130.55 103.527 130.55 100.903V93.3679C130.55 93.3679 142.575 99.1005 142.981 102.838ZM142.981 119.346V127.427C142.981 127.427 130.55 120.035 130.55 117.406V109.871C130.55 109.871 142.575 115.604 142.981 119.341V119.346ZM142.981 129.516H148.283V203.505H142.981V129.505V129.516ZM185.891 48.3286C185.891 48.3286 197.368 43.2024 188.301 31.2191L185.99 6.43677L183.696 30.9325C174.234 43.1142 185.897 48.3176 185.897 48.3176L185.891 48.3286ZM188.542 53.3116V61.3923C188.542 61.3923 200.974 54.0006 200.974 51.3713V45.1427L203.521 24.5164L196.6 46.1569C193.12 48.1633 188.784 51.0847 188.542 53.3061V53.3116ZM188.542 86.329V94.4097C188.542 94.4097 200.974 87.018 200.974 84.3942V76.8592C200.974 76.8592 188.949 82.5918 188.542 86.329ZM188.542 102.838V110.918C188.542 110.918 200.974 103.527 200.974 100.903V93.3679C200.974 93.3679 188.949 99.1005 188.542 102.838V102.838ZM188.542 119.346V127.427C188.542 127.427 200.974 120.035 200.974 117.406V109.871C200.974 109.871 188.949 115.604 188.542 119.341V119.346ZM183.24 69.8203V77.901C183.24 77.901 170.809 70.5093 170.809 67.88V60.345C170.809 60.345 182.834 66.0776 183.24 69.8148V69.8203ZM183.24 53.3116V61.3923C183.24 61.3923 170.809 54.0006 170.809 51.3713V45.1482L168.262 24.5219L175.183 46.1624C178.663 48.1688 182.999 51.0902 183.24 53.3116V53.3116ZM183.24 86.329V94.4097C183.24 94.4097 170.809 87.018 170.809 84.3942V76.8592C170.809 76.8592 182.834 82.5918 183.24 86.329V86.329ZM183.24 102.838V110.918C183.24 110.918 170.809 103.527 170.809 100.903V93.3679C170.809 93.3679 182.834 99.1005 183.24 102.838ZM183.24 119.346V127.427C183.24 127.427 170.809 120.035 170.809 117.406V109.871C170.809 109.871 182.834 115.604 183.24 119.341V119.346ZM183.24 129.516H188.542V203.505H183.24V129.5V129.516Z" fill="#FF8540"/>
</svg>
