<svg width="210" height="208" viewBox="0 0 210 208" fill="none" xmlns="http://www.w3.org/2000/svg">
<g clip-path="url(#clip0_1364_165860)">
<path d="M210 0H0V208H210V0Z" fill="#181F1C"/>
<path d="M56.5585 168.332C58.5273 167.014 60.8268 166.27 63.1954 166.18V166.203L63.6958 166.203C66.216 166.201 68.6798 166.939 70.7756 168.324C72.8713 169.709 74.5046 171.677 75.4697 173.98C76.4348 176.283 76.6885 178.818 76.199 181.264C75.7096 183.709 74.4987 185.957 72.7189 187.722C70.9389 189.487 68.67 190.69 66.1986 191.178C63.7272 191.667 61.1652 191.418 58.8367 190.464C56.5083 189.51 54.5186 187.894 53.1186 185.821C51.7188 183.748 50.9713 181.311 50.9703 178.818L50.9703 178.814C50.9568 177.193 51.2637 175.585 51.8737 174.08L51.8738 174.08C52.8201 171.744 54.4515 169.742 56.5585 168.332ZM63.7008 182.968L63.7015 182.968C64.8231 182.967 65.8993 182.524 66.6933 181.737C67.4874 180.949 67.9344 179.88 67.9344 178.765C67.9344 177.933 67.6851 177.119 67.2188 176.428C66.7524 175.737 66.0901 175.198 65.3161 174.881C64.5421 174.563 63.6907 174.48 62.8694 174.642C62.048 174.804 61.2929 175.204 60.6998 175.791C60.1066 176.379 59.7021 177.128 59.5381 177.944C59.3742 178.76 59.4584 179.606 59.7798 180.375C60.1013 181.144 60.6452 181.8 61.3423 182.261C62.0392 182.722 62.8581 182.968 63.6954 182.968L63.7008 182.968Z" fill="#F2A8EE" stroke="#F2A8EE"/>
<path d="M99.5821 166.178L99.5861 166.198L99.9954 166.197C101.67 166.197 103.328 166.523 104.875 167.157C106.421 167.792 107.827 168.722 109.01 169.894C110.193 171.067 111.131 172.458 111.77 173.989C112.409 175.52 112.738 177.161 112.736 178.817C112.729 181.308 111.977 183.741 110.574 185.809C109.172 187.878 107.181 189.489 104.853 190.439C102.526 191.389 99.9656 191.635 97.4968 191.144C95.028 190.654 92.7618 189.451 90.9842 187.687C89.2066 185.922 87.9972 183.677 87.5079 181.233C87.0186 178.79 87.2712 176.257 88.234 173.956C89.1968 171.654 90.827 169.686 92.9193 168.3C94.8985 166.989 97.2071 166.255 99.5821 166.178ZM99.9952 182.968H99.9959C101.118 182.967 102.194 182.524 102.988 181.737C103.782 180.949 104.229 179.88 104.229 178.765C104.229 177.933 103.98 177.119 103.513 176.428C103.047 175.737 102.384 175.198 101.61 174.881C100.836 174.563 99.9851 174.48 99.1637 174.642C98.3424 174.804 97.5873 175.204 96.9941 175.791C96.401 176.379 95.9964 177.128 95.8325 177.944C95.6686 178.76 95.7528 179.606 96.0742 180.375C96.3956 181.144 96.9396 181.8 97.6366 182.261C98.3336 182.722 99.1525 182.968 99.9898 182.968H99.9952Z" fill="#F2A8EE" stroke="#F2A8EE"/>
<path d="M177.585 166.181V166.198L178.086 166.197C179.76 166.197 181.418 166.523 182.965 167.157C184.512 167.792 185.917 168.722 187.1 169.894C188.283 171.067 189.221 172.458 189.86 173.989C190.5 175.52 190.828 177.161 190.827 178.817C190.819 181.308 190.067 183.741 188.664 185.81C187.261 187.879 185.271 189.49 182.942 190.44C180.614 191.389 178.054 191.635 175.585 191.144C173.116 190.654 170.85 189.45 169.073 187.685C167.295 185.92 166.086 183.674 165.598 181.23C165.109 178.786 165.362 176.254 166.326 173.952C167.289 171.651 168.92 169.683 171.013 168.297C172.968 167.004 175.243 166.273 177.585 166.181ZM178.091 182.968H178.092C179.213 182.967 180.289 182.524 181.083 181.737C181.877 180.949 182.324 179.88 182.324 178.765C182.324 177.933 182.075 177.119 181.609 176.428C181.142 175.737 180.48 175.198 179.706 174.881C178.932 174.563 178.081 174.48 177.259 174.642C176.438 174.804 175.683 175.204 175.09 175.791C174.497 176.379 174.092 177.128 173.928 177.944C173.764 178.76 173.848 179.606 174.17 180.375C174.491 181.144 175.035 181.8 175.732 182.261C176.429 182.722 177.248 182.968 178.085 182.968H178.091Z" fill="#F2A8EE" stroke="#F2A8EE"/>
<mask id="path-5-inside-1_1364_165860" fill="white">
<path d="M94.2693 155.54H67.0926ZM37.9769 155.54V175.675H47.0038C47.2059 174.57 47.5172 173.487 47.9332 172.443V172.443C49.1967 169.331 51.3711 166.665 54.1767 164.788C56.9823 162.91 60.2908 161.907 63.6768 161.907C67.0627 161.907 70.3712 162.91 73.1768 164.788C75.9824 166.665 78.1568 169.331 79.4204 172.443C79.8419 173.48 80.1533 174.558 80.3498 175.659H83.4103C83.6154 174.539 83.9395 173.443 84.3771 172.39C85.7545 169.019 88.1992 166.181 91.3439 164.304C94.4887 162.427 98.1635 161.612 101.816 161.98C105.469 162.349 108.902 163.882 111.6 166.348C114.298 168.815 116.115 172.082 116.778 175.659L161.159 175.733C161.88 171.872 163.944 168.382 166.992 165.87C170.04 163.358 173.88 161.983 177.845 161.983C181.81 161.983 185.65 163.358 188.698 165.87C191.746 168.382 193.81 171.872 194.532 175.733V113.745H143.949V155.54H115.213M153.478 123.21H183.988V145.747H153.478V123.21Z"/>
</mask>
<path d="M94.2693 155.54H67.0926ZM37.9769 155.54V175.675H47.0038C47.2059 174.57 47.5172 173.487 47.9332 172.443V172.443C49.1967 169.331 51.3711 166.665 54.1767 164.788C56.9823 162.91 60.2908 161.907 63.6768 161.907C67.0627 161.907 70.3712 162.91 73.1768 164.788C75.9824 166.665 78.1568 169.331 79.4204 172.443C79.8419 173.48 80.1533 174.558 80.3498 175.659H83.4103C83.6154 174.539 83.9395 173.443 84.3771 172.39C85.7545 169.019 88.1992 166.181 91.3439 164.304C94.4887 162.427 98.1635 161.612 101.816 161.98C105.469 162.349 108.902 163.882 111.6 166.348C114.298 168.815 116.115 172.082 116.778 175.659L161.159 175.733C161.88 171.872 163.944 168.382 166.992 165.87C170.04 163.358 173.88 161.983 177.845 161.983C181.81 161.983 185.65 163.358 188.698 165.87C191.746 168.382 193.81 171.872 194.532 175.733V113.745H143.949V155.54H115.213M153.478 123.21H183.988V145.747H153.478V123.21Z" fill="#F2A8EE"/>
<path d="M37.9769 175.675H36.9769V176.675H37.9769V175.675ZM47.0038 175.675V176.675H47.8375L47.9875 175.855L47.0038 175.675ZM63.6768 161.907L63.6768 162.907L63.6768 161.907ZM79.4204 172.443L78.4939 172.819L78.4939 172.819L79.4204 172.443ZM80.3498 175.659L79.3653 175.835L79.5123 176.659H80.3498V175.659ZM83.4103 175.659V176.659H84.2439L84.394 175.839L83.4103 175.659ZM84.3771 172.39L85.3006 172.774L85.3028 172.768L84.3771 172.39ZM116.778 175.659L115.794 175.841L115.946 176.658L116.776 176.659L116.778 175.659ZM161.159 175.733L161.157 176.733L161.989 176.735L162.142 175.917L161.159 175.733ZM194.532 175.733L193.549 175.917L195.532 175.733H194.532ZM194.532 113.745H195.532V112.745H194.532V113.745ZM143.949 113.745V112.745H142.949V113.745H143.949ZM143.949 155.54V156.54H144.949V155.54H143.949ZM153.478 123.21V122.21H152.478V123.21H153.478ZM183.988 123.21H184.988V122.21H183.988V123.21ZM183.988 145.747V146.747H184.988V145.747H183.988ZM153.478 145.747H152.478V146.747H153.478V145.747ZM94.2693 154.54H67.0926V156.54H94.2693V154.54ZM36.9769 155.54V175.675H38.9769V155.54H36.9769ZM37.9769 176.675H47.0038V174.675H37.9769V176.675ZM47.9875 175.855C48.1777 174.815 48.4707 173.796 48.8622 172.813L47.0041 172.073C46.5637 173.179 46.2341 174.325 46.0201 175.495L47.9875 175.855ZM48.8597 172.819C50.0476 169.894 52.0925 167.386 54.7329 165.619L53.6206 163.957C50.6498 165.945 48.3458 168.769 47.0067 172.066L48.8597 172.819ZM54.7329 165.619C57.3734 163.852 60.4882 162.907 63.6768 162.907L63.6768 160.907C60.0934 160.907 56.5913 161.969 53.6206 163.957L54.7329 165.619ZM63.6768 162.907C66.8653 162.907 69.9802 163.852 72.6207 165.619L73.733 163.957C70.7623 161.969 67.2601 160.907 63.6768 160.907L63.6768 162.907ZM72.6207 165.619C75.2611 167.386 77.306 169.894 78.4939 172.819L80.3469 172.066C79.0077 168.769 76.7038 165.945 73.733 163.957L72.6207 165.619ZM78.4939 172.819C78.8891 173.792 79.1811 174.803 79.3653 175.835L81.3342 175.484C81.1255 174.314 80.7946 173.168 80.3468 172.066L78.4939 172.819ZM80.3498 176.659H83.4103V174.659H80.3498V176.659ZM84.394 175.839C84.5863 174.789 84.8901 173.761 85.3006 172.774L83.4537 172.006C82.9888 173.125 82.6446 174.289 82.4267 175.479L84.394 175.839ZM85.3028 172.768C86.5977 169.599 88.8968 166.93 91.8565 165.163L90.8314 163.446C87.5016 165.433 84.9113 168.439 83.4514 172.012L85.3028 172.768ZM91.8565 165.163C94.8163 163.396 98.2762 162.628 101.716 162.975L101.917 160.985C98.0508 160.595 94.161 161.458 90.8314 163.446L91.8565 165.163ZM101.716 162.975C105.155 163.322 108.387 164.766 110.925 167.086L112.275 165.61C109.418 162.998 105.783 161.375 101.917 160.985L101.716 162.975ZM110.925 167.086C113.464 169.407 115.172 172.48 115.794 175.841L117.761 175.477C117.058 171.685 115.133 168.223 112.275 165.61L110.925 167.086ZM116.776 176.659L161.157 176.733L161.161 174.733L116.779 174.659L116.776 176.659ZM162.142 175.917C162.82 172.287 164.76 169.005 167.628 166.642L166.356 165.098C163.128 167.758 160.94 171.456 160.176 175.55L162.142 175.917ZM167.628 166.642C170.496 164.278 174.111 162.983 177.845 162.983V160.983C173.649 160.983 169.584 162.438 166.356 165.098L167.628 166.642ZM177.845 162.983C181.579 162.983 185.194 164.278 188.062 166.642L189.334 165.098C186.106 162.438 182.041 160.983 177.845 160.983V162.983ZM188.062 166.642C190.93 169.005 192.871 172.287 193.549 175.917L195.515 175.55C194.75 171.456 192.562 167.758 189.334 165.098L188.062 166.642ZM195.532 175.733V113.745H193.532V175.733H195.532ZM194.532 112.745H143.949V114.745H194.532V112.745ZM142.949 113.745V155.54H144.949V113.745H142.949ZM143.949 154.54H115.213V156.54H143.949V154.54ZM153.478 124.21H183.988V122.21H153.478V124.21ZM182.988 123.21V145.747H184.988V123.21H182.988ZM183.988 144.747H153.478V146.747H183.988V144.747ZM154.478 145.747V123.21H152.478V145.747H154.478Z" fill="#F2A8EE" mask="url(#path-5-inside-1_1364_165860)"/>
<path d="M172.384 95.903H175.123V98.6063H172.384V95.903Z" fill="#F2A8EE" stroke="#F2A8EE"/>
<path d="M172.384 103.294H175.123V105.997H172.384V103.294Z" fill="#F2A8EE" stroke="#F2A8EE"/>
<path d="M157.888 103.553L159.842 101.648L161.765 103.553L159.842 105.489L157.888 103.553Z" fill="#F2A8EE" stroke="#F2A8EE"/>
<path d="M163.164 108.78L165.088 106.875L167.042 108.78L165.088 110.716L163.164 108.78Z" fill="#F2A8EE" stroke="#F2A8EE"/>
<path d="M181.705 108.78L183.631 106.877L185.564 108.78L183.631 110.714L181.705 108.78Z" fill="#F2A8EE" stroke="#F2A8EE"/>
<path d="M186.982 103.553L188.908 101.65L190.841 103.553L188.908 105.488L186.982 103.553Z" fill="#F2A8EE" stroke="#F2A8EE"/>
<path d="M12.5714 114.261H140.453V152.252H12.5714V114.261Z" fill="#F2A8EE" stroke="#F2A8EE"/>
<path d="M180.754 67.6121V61.5149H204.741V87.2529H180.42H180.368L180.317 87.2636L58.3313 112.917L57.9342 113.001V113.406V115.213H32.3611V108.402V107.902H31.8611H15.9866H15.4866V108.402V115.213H14.2967V108.449V107.949H13.7967H13.2284V105.891H13.7967H14.2967V105.391V92.5831V92.0831H13.7967H13.2284V90.0252H13.7967H14.2967V89.5252V89.0676H15.4866V89.5252V90.0252H15.9866H31.8611H32.3611V89.5252V89.0676H33.551V89.5252V90.0252H34.051H34.9184V92.0831H34.051H33.551V92.5831V104.222V104.795L34.1182 104.718L38.0174 104.189L38.4502 104.13V103.693V97.8041L38.9401 97.7336L38.9559 97.7313L38.9714 97.7281L180.357 68.1015L180.754 68.0182V67.6121ZM31.8611 105.844H32.3611V105.344V92.5355V92.0355H31.8611H15.9866H15.4866V92.5355V105.344V105.844H15.9866H31.8611ZM180.352 75.8371L180.754 75.7567V75.3468V70.4795V69.8636L180.151 69.9902L39.8985 99.4422L39.5013 99.5257V99.9316V103.386V103.996L40.0993 103.877L180.352 75.8371Z" fill="#F2A8EE" stroke="#F2A8EE"/>
<path d="M113.731 146.242H136.719V147.707H113.731V146.242Z" fill="#F2A8EE" stroke="#F2A8EE"/>
<path d="M113.731 140.83H136.719V142.295H113.731V140.83Z" fill="#F2A8EE" stroke="#F2A8EE"/>
<path d="M113.731 135.417H136.719V136.883H113.731V135.417Z" fill="#F2A8EE" stroke="#F2A8EE"/>
<path d="M113.731 130.005H136.719V131.471H113.731V130.005Z" fill="#F2A8EE" stroke="#F2A8EE"/>
<path d="M113.731 124.593H136.719V126.058H113.731V124.593Z" fill="#F2A8EE" stroke="#F2A8EE"/>
<path d="M113.731 119.181H136.719V120.646H113.731V119.181Z" fill="#F2A8EE" stroke="#F2A8EE"/>
<path d="M195.053 132.714H204.741V175.244H195.053V132.714Z" fill="#F2A8EE" stroke="#F2A8EE"/>
<path d="M26.5848 52.1565C25.7292 54.7236 24.3083 59.7635 23.9006 65.9955C23.3661 74.1675 24.5754 84.3568 31.0518 93.7157C31.1204 93.8042 31.1973 93.9114 31.278 94.024C31.3106 94.0694 31.3438 94.1157 31.3773 94.162C31.503 94.3355 31.6498 94.5327 31.8303 94.7517L32.1203 95.1036L32.1053 95.1185C35.6556 99.6566 40.0373 103.485 45.0159 106.405C42.0445 101.751 41.4889 96.7771 41.747 92.7896C42.0173 88.6134 43.1813 85.4851 43.4378 84.8598L44.1039 83.2359L26.5848 52.1565ZM26.5848 52.1565C26.6651 52.491 26.7599 52.8673 26.8704 53.2798C27.3393 55.03 28.0925 57.4345 29.2306 60.0536C31.5012 65.2791 35.3324 71.4238 41.5586 74.8793L42.6836 75.5037L42.2755 74.2835C41.9838 73.4117 41.7133 72.5449 41.4533 71.6564L41.452 71.6522C35.9876 53.5806 43.3082 37.2229 52.225 25.2168C59.4799 15.4486 67.7496 8.62056 70.8955 6.18738C69.9354 9.20244 67.9604 16.2475 67.4188 24.6757C66.7219 35.5199 68.393 48.7509 77.771 58.5981L78.1597 59.0063L78.5186 58.5717C80.2242 56.5061 81.5827 54.1815 82.5417 51.6874L82.5419 51.6867C85.573 43.7659 83.6178 36.1456 81.8752 31.7313C100.123 54.2731 102.639 81.1159 90.8195 96.5083C87.1211 101.189 82.4116 104.978 77.0462 107.604C82.6859 99.1208 80.6594 85.1707 70.7576 73.9577L69.9344 74.51C70.5173 75.6911 72.8703 80.4924 70.9846 85.4988C70.5951 86.482 70.0784 87.4102 69.4482 88.2605C65.2531 83.5406 64.5359 77.2868 64.9198 72.081C65.1171 69.4066 65.6036 67.0325 66.0413 65.3266C66.26 64.4742 66.4661 63.7901 66.617 63.3205C66.6924 63.0857 66.7541 62.9047 66.7965 62.7832C66.8065 62.7547 66.8154 62.7294 66.8232 62.7076C66.832 62.6828 66.8393 62.6623 66.8451 62.6462L66.8574 62.6126L66.8603 62.6047L66.861 62.6031L66.861 62.6029L66.861 62.6028L67.4305 61.0832L66.1045 62.019L66.3928 62.4275C66.1045 62.019 66.1043 62.0191 66.104 62.0193L66.103 62.02L66.0995 62.0225L66.087 62.0314L66.0398 62.0653C65.9987 62.0951 65.9384 62.139 65.8606 62.1968C65.7049 62.3122 65.4786 62.4831 65.1934 62.7065C64.623 63.1534 63.8166 63.8112 62.8674 64.658C60.9701 66.3508 58.4966 68.8043 56.1973 71.8452C51.6086 77.9139 47.6532 86.4084 50.5131 95.8797C48.2722 94.2224 46.79 91.7809 45.8413 89.5947C45.2932 88.3316 44.9302 87.17 44.7045 86.3245C44.5917 85.9021 44.5135 85.5597 44.4636 85.3242C44.4387 85.2065 44.421 85.1156 44.4095 85.055C44.4038 85.0246 44.3997 85.0018 44.3971 84.987L44.3942 84.9709L44.3936 84.9674L44.3936 84.967L44.3935 84.9668L26.5848 52.1565Z" fill="#F2A8EE" stroke="#F2A8EE"/>
</g>
<defs>
<clipPath id="clip0_1364_165860">
<rect width="210" height="208" fill="white"/>
</clipPath>
</defs>
</svg>
