<svg width="72" height="72" viewBox="0 0 72 72" fill="none" xmlns="http://www.w3.org/2000/svg">
<path fill-rule="evenodd" clip-rule="evenodd" d="M72 0H0V72H72V0ZM54.0166 28.1385V27.1231C55.5104 25.9385 57.0042 24.4154 58 22.8923C56.6722 23.5692 55.0125 24.0769 53.3527 24.2462C55.0125 23.2308 56.3402 21.7077 57.0042 19.6769C55.5104 20.6923 53.6846 21.3692 51.8589 21.7077C50.3651 20.0154 48.2075 19 45.8838 19C41.4025 19 37.751 22.7231 37.751 27.2923C37.751 27.9692 37.751 28.4769 37.917 29.1538C31.112 28.8154 24.971 25.4308 20.9876 20.3538C20.1577 21.5385 19.8257 23.0615 19.8257 24.5846C19.8257 27.4615 21.1535 30 23.1452 31.6923C21.8174 31.6923 20.6556 31.3538 19.4938 30.6769V30.8462C19.4938 34.7385 22.3154 38.1231 26.1328 38.9692C25.4689 39.1385 24.805 39.3077 23.9751 39.3077H23.9751C23.4772 39.3077 22.9792 39.3077 22.4813 39.1385C23.4772 42.3538 26.4647 44.8923 30.1162 44.8923C27.2946 47.0923 23.8091 48.4462 19.9917 48.4462C19.6598 48.4462 19.3278 48.4038 18.9958 48.3615C18.6639 48.3192 18.332 48.2769 18 48.2769C21.6515 50.6462 25.9668 52 30.6141 52C45.7178 52 54.0166 39.1385 54.0166 28.1385Z" fill="#FFFEF5"/>
</svg>
