<svg width="210" height="208" viewBox="0 0 210 208" fill="none" xmlns="http://www.w3.org/2000/svg">
<g clip-path="url(#clip0_1364_165896)">
<path d="M210 0H0V208H210V0Z" fill="#181F1C"/>
<path d="M48.8818 106.431H54.5799V161.838H48.8818V106.431Z" fill="#89E26A" stroke="#89E26A"/>
<path d="M35.4804 106.431H41.1624V161.838H35.4804V106.431Z" fill="#89E26A" stroke="#89E26A"/>
<path d="M75.6793 106.431H81.3774V161.838H75.6793V106.431Z" fill="#89E26A" stroke="#89E26A"/>
<path d="M89.0807 106.431H94.7788V161.838H89.0807V106.431Z" fill="#89E26A" stroke="#89E26A"/>
<path d="M115.873 106.431H121.576V161.838H115.873V106.431Z" fill="#89E26A" stroke="#89E26A"/>
<path d="M102.482 106.431H108.18V161.838H102.482V106.431Z" fill="#89E26A" stroke="#89E26A"/>
<path d="M129.28 106.431H134.978V161.838H129.28V106.431Z" fill="#89E26A" stroke="#89E26A"/>
<path d="M128.28 102.635V105.431H122.582V102.609C122.582 101.863 122.881 101.147 123.414 100.618C123.857 100.18 124.431 99.9002 125.045 99.8173L125.43 99.8179C126.187 99.8191 126.911 100.118 127.445 100.646C127.979 101.175 128.278 101.89 128.28 102.635Z" fill="#89E26A" stroke="#89E26A"/>
<path d="M101.482 102.635V105.431H95.7787V102.609C95.7787 101.863 96.0777 101.147 96.6115 100.618C97.053 100.181 97.6252 99.9016 98.2381 99.8179L98.6278 99.8179C99.3855 99.8179 100.111 100.116 100.646 100.645C101.181 101.173 101.481 101.889 101.482 102.635Z" fill="#89E26A" stroke="#89E26A"/>
<path d="M88.0807 102.635V105.431H82.3773V102.609C82.3786 101.863 82.6787 101.147 83.2133 100.618C83.6565 100.18 84.231 99.9002 84.8462 99.8173L85.2309 99.8179C85.9879 99.8191 86.7126 100.118 87.2464 100.646C87.7799 101.175 88.0793 101.89 88.0807 102.635Z" fill="#89E26A" stroke="#89E26A"/>
<path d="M114.873 102.635V105.431H109.18V102.609C109.18 102.239 109.254 101.874 109.396 101.532C109.539 101.191 109.749 100.88 110.013 100.618C110.277 100.356 110.591 100.149 110.937 100.007C111.163 99.9141 111.399 99.8508 111.64 99.8179H112.024C112.399 99.8179 112.77 99.8911 113.116 100.033C113.462 100.175 113.776 100.383 114.04 100.645C114.304 100.907 114.514 101.217 114.657 101.559C114.799 101.9 114.873 102.266 114.873 102.635Z" fill="#89E26A" stroke="#89E26A"/>
<path d="M74.6793 102.636L74.6793 105.431H68.9813V102.609C68.9813 101.863 69.2803 101.147 69.814 100.618C70.2566 100.18 70.8305 99.9002 71.4451 99.8173L71.8295 99.8179C72.5865 99.8191 73.3111 100.118 73.845 100.646C74.3786 101.175 74.678 101.89 74.6793 102.636C74.6793 102.636 74.6793 102.636 74.6793 102.636Z" fill="#89E26A" stroke="#89E26A"/>
<path d="M61.2779 102.635V105.431H55.5799V102.609C55.5799 101.863 55.8789 101.147 56.4127 100.618C56.8541 100.181 57.4264 99.9016 58.0393 99.8179H58.4289C58.8037 99.8179 59.1747 99.8911 59.5207 100.033C59.8667 100.175 60.1808 100.383 60.4452 100.645C60.7095 100.907 60.9189 101.217 61.0617 101.559C61.2045 101.9 61.2779 102.266 61.2779 102.635Z" fill="#89E26A" stroke="#89E26A"/>
<path d="M43.9237 100.005C44.1478 99.9133 44.3823 99.8506 44.6215 99.8179L45.0274 99.8179C45.7852 99.8179 46.5111 100.116 47.0459 100.645C47.5804 101.173 47.8805 101.889 47.8818 102.635V105.457H42.1624V102.635H42.1624L42.1624 102.631C42.1594 102.259 42.231 101.889 42.3733 101.545C42.5156 101.2 42.7258 100.886 42.9919 100.621C43.258 100.357 43.5747 100.147 43.9237 100.005Z" fill="#89E26A" stroke="#89E26A"/>
<path d="M62.2779 106.431H67.9813V161.838H62.2779V106.431Z" fill="#89E26A" stroke="#89E26A"/>
<path d="M48.0379 189.689L48.0379 189.685C48.0239 188.07 48.3272 186.468 48.9309 184.967C49.8796 182.626 51.5145 180.618 53.626 179.204C55.7376 177.789 58.2289 177.033 60.7791 177.032C60.7791 177.032 60.7791 177.032 60.7791 177.032L60.8058 177.032L60.8062 177.032C63.3348 177.03 65.8069 177.771 67.9097 179.16C70.0124 180.55 71.6512 182.525 72.6195 184.836C73.5878 187.147 73.8424 189.69 73.3513 192.144C72.8602 194.598 71.6452 196.853 69.8594 198.624C68.0735 200.395 65.7969 201.602 63.3173 202.092C60.8376 202.582 58.267 202.332 55.9307 201.375C53.5945 200.418 51.5981 198.797 50.1935 196.716C48.7889 194.636 48.0389 192.191 48.0379 189.689ZM60.7844 193.877L60.7851 193.877C61.9068 193.876 62.9829 193.433 63.7769 192.646C64.5711 191.858 65.018 190.789 65.018 189.674C65.018 188.841 64.7688 188.028 64.3024 187.337C63.836 186.645 63.1737 186.107 62.3997 185.79C61.6257 185.472 60.7743 185.389 59.953 185.551C59.1316 185.713 58.3765 186.112 57.7834 186.7C57.1902 187.287 56.7857 188.037 56.6218 188.853C56.4578 189.669 56.542 190.515 56.8635 191.284C57.1849 192.053 57.7289 192.709 58.4259 193.17C59.1228 193.631 59.9418 193.877 60.7791 193.877L60.7844 193.877Z" fill="#89E26A" stroke="#89E26A"/>
<path d="M85.3581 184.969L85.3587 184.968C86.3046 182.629 87.9353 180.623 90.042 179.209C92.1487 177.795 94.6348 177.036 97.1807 177.032L97.2017 177.032L97.2021 177.032C99.7294 177.03 102.2 177.771 104.302 179.159C106.404 180.548 108.042 182.522 109.01 184.832C109.978 187.141 110.233 189.683 109.742 192.135C109.252 194.588 108.038 196.842 106.253 198.613C104.469 200.383 102.194 201.59 99.7152 202.081C97.2369 202.571 94.6675 202.322 92.3322 201.366C89.9968 200.411 88.0009 198.79 86.5963 196.712C85.1916 194.633 84.4411 192.19 84.4391 189.689L84.4391 189.688C84.4333 188.071 84.7454 186.468 85.3581 184.969ZM97.2123 193.877L97.2166 193.877C98.333 193.868 99.4014 193.422 100.189 192.635C100.976 191.848 101.419 190.784 101.419 189.674C101.419 188.841 101.17 188.028 100.704 187.337C100.237 186.645 99.5749 186.107 98.8009 185.79C98.0269 185.472 97.1755 185.389 96.3542 185.551C95.5329 185.713 94.7777 186.112 94.1846 186.7C93.5914 187.287 93.1869 188.037 93.023 188.853C92.859 189.669 92.9432 190.515 93.2647 191.284C93.5861 192.053 94.1301 192.709 94.8271 193.17C95.5241 193.631 96.343 193.877 97.1803 193.877L97.2123 193.877Z" fill="#89E26A" stroke="#89E26A"/>
<path d="M163.673 184.969L163.673 184.968C164.622 182.626 166.257 180.618 168.369 179.204C170.48 177.789 172.972 177.033 175.522 177.032L175.522 176.532L175.522 177.032C178.051 177.03 180.523 177.771 182.626 179.16C184.728 180.55 186.367 182.525 187.335 184.836C188.304 187.147 188.558 189.69 188.067 192.144C187.576 194.598 186.361 196.853 184.575 198.624C182.789 200.395 180.513 201.602 178.033 202.092C175.553 202.582 172.983 202.332 170.647 201.375C168.31 200.418 166.314 198.797 164.909 196.716C163.505 194.636 162.755 192.191 162.754 189.689L162.754 189.688C162.748 188.071 163.06 186.468 163.673 184.969ZM175.527 193.877L175.528 193.877C176.649 193.876 177.726 193.433 178.52 192.646C179.314 191.858 179.761 190.789 179.761 189.674C179.761 188.841 179.511 188.028 179.045 187.337C178.579 186.645 177.916 186.107 177.142 185.79C176.368 185.472 175.517 185.389 174.696 185.551C173.874 185.713 173.119 186.112 172.526 186.7C171.933 187.287 171.528 188.037 171.364 188.853C171.2 189.669 171.285 190.515 171.606 191.284C171.928 192.053 172.471 192.709 173.168 193.17C173.865 193.631 174.684 193.877 175.522 193.877L175.527 193.877Z" fill="#89E26A" stroke="#89E26A"/>
<mask id="path-20-inside-1_1364_165896" fill="white">
<path d="M91.4437 166.359H64.2029ZM35.0018 166.359V186.558H44.082C44.2867 185.449 44.5998 184.363 45.0168 183.315V183.315C46.2836 180.194 48.4642 177.52 51.2779 175.637C54.0916 173.754 57.4099 172.747 60.8058 172.747C64.2017 172.747 67.5199 173.754 70.3336 175.637C73.1474 177.52 75.3279 180.194 76.5948 183.315C77.0211 184.353 77.3345 185.433 77.5295 186.537H80.6008C80.8059 185.412 81.1318 184.312 81.5729 183.257C82.9561 179.877 85.4087 177.034 88.5624 175.153C91.7161 173.272 95.4009 172.454 99.0633 172.824C102.726 173.194 106.168 174.73 108.874 177.203C111.58 179.675 113.403 182.95 114.07 186.537L158.595 186.611C158.801 185.486 159.127 184.387 159.567 183.331C160.95 179.951 163.403 177.108 166.557 175.227C169.71 173.346 173.395 172.529 177.058 172.898C180.72 173.268 184.163 174.804 186.868 177.277C189.574 179.749 191.397 183.025 192.064 186.611V124.458H141.321V166.359H112.478M150.861 133.928H181.467V156.54H150.839L150.861 133.928Z"/>
</mask>
<path d="M91.4437 166.359H64.2029ZM35.0018 166.359V186.558H44.082C44.2867 185.449 44.5998 184.363 45.0168 183.315V183.315C46.2836 180.194 48.4642 177.52 51.2779 175.637C54.0916 173.754 57.4099 172.747 60.8058 172.747C64.2017 172.747 67.5199 173.754 70.3336 175.637C73.1474 177.52 75.3279 180.194 76.5948 183.315C77.0211 184.353 77.3345 185.433 77.5295 186.537H80.6008C80.8059 185.412 81.1318 184.312 81.5729 183.257C82.9561 179.877 85.4087 177.034 88.5624 175.153C91.7161 173.272 95.4009 172.454 99.0633 172.824C102.726 173.194 106.168 174.73 108.874 177.203C111.58 179.675 113.403 182.95 114.07 186.537L158.595 186.611C158.801 185.486 159.127 184.387 159.567 183.331C160.95 179.951 163.403 177.108 166.557 175.227C169.71 173.346 173.395 172.529 177.058 172.898C180.72 173.268 184.163 174.804 186.868 177.277C189.574 179.749 191.397 183.025 192.064 186.611V124.458H141.321V166.359H112.478M150.861 133.928H181.467V156.54H150.839L150.861 133.928Z" fill="#89E26A"/>
<path d="M35.0018 186.558H34.0018V187.558H35.0018V186.558ZM44.082 186.558V187.558H44.9143L45.0654 186.739L44.082 186.558ZM76.5948 183.315L75.6682 183.691L75.6698 183.695L76.5948 183.315ZM77.5295 186.537L76.5447 186.711L76.6907 187.537H77.5295V186.537ZM80.6008 186.537V187.537H81.4349L81.5845 186.716L80.6008 186.537ZM81.5729 183.257L82.4956 183.642L82.4984 183.635L81.5729 183.257ZM114.07 186.537L113.086 186.719L113.238 187.535L114.068 187.537L114.07 186.537ZM158.595 186.611L158.593 187.611L159.428 187.612L159.579 186.791L158.595 186.611ZM159.567 183.331L160.49 183.715L160.493 183.709L159.567 183.331ZM192.064 186.611L191.081 186.793L193.064 186.611H192.064ZM192.064 124.458H193.064V123.458H192.064V124.458ZM141.321 124.458V123.458H140.321V124.458H141.321ZM141.321 166.359V167.359H142.321V166.359H141.321ZM150.861 133.928V132.928H149.862L149.861 133.927L150.861 133.928ZM181.467 133.928H182.467V132.928H181.467V133.928ZM181.467 156.54V157.54H182.467V156.54H181.467ZM150.839 156.54L149.839 156.539L149.838 157.54H150.839V156.54ZM91.4437 165.359H64.2029V167.359H91.4437V165.359ZM34.0018 166.359V186.558H36.0018V166.359H34.0018ZM35.0018 187.558H44.082V185.558H35.0018V187.558ZM45.0654 186.739C45.2582 185.695 45.5531 184.672 45.946 183.684L44.0876 182.945C43.6464 184.054 43.3152 185.203 43.0987 186.376L45.0654 186.739ZM45.9433 183.691C47.1346 180.756 49.1856 178.24 51.8341 176.468L50.7217 174.806C47.7427 176.8 45.4327 179.632 44.0902 182.939L45.9433 183.691ZM51.8341 176.468C54.4827 174.695 57.6073 173.747 60.8058 173.747V171.747C57.2125 171.747 53.7005 172.812 50.7217 174.806L51.8341 176.468ZM60.8058 173.747C64.0042 173.747 67.1288 174.695 69.7774 176.468L70.8898 174.806C67.911 172.812 64.3991 171.747 60.8058 171.747V173.747ZM69.7774 176.468C72.4259 178.24 74.477 180.756 75.6682 183.691L77.5213 182.939C76.1788 179.632 73.8688 176.8 70.8898 174.806L69.7774 176.468ZM75.6698 183.695C76.0689 184.666 76.3622 185.677 76.5447 186.711L78.5142 186.363C78.3067 185.188 77.9733 184.039 77.5198 182.935L75.6698 183.695ZM77.5295 187.537H80.6008V185.537H77.5295V187.537ZM81.5845 186.716C81.7767 185.662 82.0821 184.632 82.4956 183.642L80.6502 182.871C80.1814 183.993 79.835 185.162 79.617 186.357L81.5845 186.716ZM82.4984 183.635C83.799 180.458 86.1059 177.782 89.0747 176.011L88.0501 174.294C84.7114 176.285 82.1132 179.297 80.6474 182.878L82.4984 183.635ZM89.0747 176.011C92.0436 174.241 95.5134 173.471 98.9629 173.819L99.1637 171.829C95.2883 171.438 91.3887 172.302 88.0501 174.294L89.0747 176.011ZM98.9629 173.819C102.412 174.167 105.653 175.614 108.2 177.941L109.549 176.465C106.683 173.846 103.039 172.22 99.1637 171.829L98.9629 173.819ZM108.2 177.941C110.746 180.268 112.46 183.348 113.086 186.719L115.053 186.354C114.346 182.553 112.414 179.083 109.549 176.465L108.2 177.941ZM114.068 187.537L158.593 187.611L158.597 185.611L114.071 185.537L114.068 187.537ZM159.579 186.791C159.772 185.737 160.077 184.706 160.49 183.715L158.644 182.946C158.176 184.068 157.83 185.236 157.611 186.431L159.579 186.791ZM160.493 183.709C161.793 180.532 164.1 177.856 167.069 176.085L166.044 174.368C162.706 176.359 160.107 179.371 158.642 182.952L160.493 183.709ZM167.069 176.085C170.038 174.315 173.508 173.545 176.957 173.893L177.158 171.903C173.282 171.512 169.383 172.377 166.044 174.368L167.069 176.085ZM176.957 173.893C180.407 174.241 183.647 175.688 186.194 178.015L187.543 176.539C184.678 173.92 181.033 172.294 177.158 171.903L176.957 173.893ZM186.194 178.015C188.74 180.342 190.454 183.422 191.081 186.793L193.047 186.428C192.34 182.627 190.408 179.157 187.543 176.539L186.194 178.015ZM193.064 186.611V124.458H191.064V186.611H193.064ZM192.064 123.458H141.321V125.458H192.064V123.458ZM140.321 124.458V166.359H142.321V124.458H140.321ZM141.321 165.359H112.478V167.359H141.321V165.359ZM150.861 134.928H181.467V132.928H150.861V134.928ZM180.467 133.928V156.54H182.467V133.928H180.467ZM181.467 155.54H150.839V157.54H181.467V155.54ZM151.839 156.541L151.861 133.929L149.861 133.927L149.839 156.539L151.839 156.541Z" fill="#89E26A" mask="url(#path-20-inside-1_1364_165896)"/>
<path d="M192.537 143.47H202.262V186.132H192.537V143.47Z" fill="#89E26A" stroke="#89E26A"/>
<path d="M9.48944 186.132V145.398L30.2821 117.182V186.132H9.48944Z" fill="#89E26A" stroke="#89E26A"/>
<path d="M116.825 83.1678L108.406 68.7232C109.015 69.1259 109.663 69.472 110.341 69.7561C111.798 70.3666 113.365 70.6784 114.946 70.6728H142.165C142.479 70.6728 142.779 70.7963 142.999 71.0146C143.219 71.2327 143.342 71.5276 143.342 71.834L143.342 87.3403L143.342 87.342C143.343 87.493 143.313 87.6428 143.255 87.7827C143.196 87.9226 143.111 88.0501 143.002 88.1576C142.894 88.2651 142.764 88.3505 142.622 88.4087C142.479 88.467 142.326 88.4967 142.172 88.4963H142.17H126.147C124.257 88.4946 122.401 88.0012 120.765 87.0658C119.129 86.1304 117.77 84.7861 116.825 83.1678Z" fill="#89E26A" stroke="#89E26A"/>
<path d="M154.824 16.2841C155.578 14.9891 156.589 13.8582 157.795 12.9591C159.001 12.06 160.377 11.4113 161.843 11.0518C161.312 10.9701 160.777 10.9294 160.24 10.9301H142.507C140.53 10.9308 138.589 11.4464 136.877 12.4251C135.165 13.4038 133.743 14.8113 132.754 16.5063L124.742 30.2615C124.631 30.4495 124.558 30.6575 124.529 30.8734C124.499 31.0892 124.513 31.3087 124.57 31.5192C124.627 31.7297 124.725 31.927 124.859 32.0998C124.993 32.2725 125.16 32.4173 125.35 32.5258L138.907 40.2763C139.29 40.4959 139.746 40.5563 140.174 40.4443C140.603 40.3323 140.969 40.057 141.193 39.6785L145.968 31.4889L151.357 22.22L154.824 16.2841Z" fill="#89E26A"/>
<path d="M108.467 62.7132C109.122 63.838 110.065 64.7723 111.2 65.4223C112.336 66.0723 113.624 66.4152 114.935 66.4165H124.047L128.854 58.2004L131.744 53.238L132.652 53.767L136.225 55.8144L128.192 40.4985L116.697 40.9535L110.822 41.2657L111.821 41.837L115.111 43.7151L115.303 43.8262L108.723 55.1161L107.585 57.0736C107.231 57.7086 107.049 58.4243 107.06 59.1499C107.07 59.8755 107.271 60.5858 107.644 61.2107L108.467 62.7132Z" fill="#89E26A"/>
<path d="M174.961 70.1781H159.594V65.0728L150.23 79.611L156.373 89.2449L159.578 94.1492V89.0227H175.068C175.799 89.0095 176.515 88.8073 177.144 88.4361C177.772 88.065 178.292 87.5377 178.652 86.9065L179.517 85.4252C180.173 84.2992 180.519 83.022 180.519 81.7219C180.519 80.4217 180.173 79.1445 179.517 78.0185L174.961 70.1781Z" fill="#89E26A"/>
<path d="M169.176 52.7354L173.951 60.9303L179.346 70.178L182.807 76.1192C183.563 77.4139 184.048 78.8464 184.231 80.331C184.415 81.8155 184.294 83.3215 183.876 84.7586C184.214 84.3383 184.52 83.8926 184.789 83.4254L193.65 68.247C194.638 66.5516 195.159 64.6285 195.159 62.6709C195.159 60.7132 194.638 58.7901 193.65 57.0947L185.638 43.3395C185.416 42.9592 185.05 42.6817 184.622 42.5676C184.194 42.4536 183.737 42.5124 183.352 42.7311L169.79 50.471C169.6 50.5796 169.433 50.7243 169.299 50.8969C169.164 51.0695 169.066 51.2667 169.009 51.477C168.952 51.6873 168.937 51.9067 168.966 52.1227C168.995 52.3386 169.066 52.5468 169.176 52.7354V52.7354Z" fill="#89E26A"/>
<path d="M158.104 18.1727L153.547 25.9868L158.355 34.2082L161.234 39.1495L160.326 39.6785L156.752 41.7206L169.999 42.3026C171.237 42.3539 172.465 42.0567 173.54 41.4452C174.615 40.8338 175.493 39.9333 176.072 38.8479L179.496 32.3935L182.166 27.1771L181.167 27.7485L177.867 29.6266L177.674 29.7377L173.3 22.22L171.11 18.4584L169.967 16.5063C169.606 15.8928 169.089 15.3838 168.468 15.0301C167.846 14.6764 167.142 14.4904 166.425 14.4906H164.588C163.277 14.4919 161.989 14.8348 160.853 15.4848C159.718 16.1348 158.775 17.0691 158.12 18.1939L158.104 18.1727Z" fill="#89E26A"/>
</g>
<defs>
<clipPath id="clip0_1364_165896">
<rect width="210" height="208" fill="white"/>
</clipPath>
</defs>
</svg>
