<svg width="210" height="208" viewBox="0 0 210 208" fill="none" xmlns="http://www.w3.org/2000/svg">
<g clip-path="url(#clip0_1364_165923)">
<rect width="210" height="208" fill="#181F1C"/>
<path d="M54.833 35.6916H48.7106V17.97C65.5271 2.24078 96.7845 5.10623 97.1009 5.12468L97.5041 1.07246C96.1518 0.937182 64.9565 -1.92212 46.6697 14.3298C28.3706 -1.91597 -2.8185 0.949481 -4.17078 1.07861L-3.76758 5.13083C-3.45122 5.10008 27.7813 2.23463 44.6227 17.9946V35.6916H38.5003V33.2811H11.095V79.7433H38.4941V73.1208H44.6165V171.18H48.6982V73.1269H54.8206V79.7494H82.2197V33.2811H54.8206V35.6916H54.833ZM44.6227 69.0563H38.5003V39.7622H44.6227V69.0563ZM48.7044 69.0563V39.7622H54.8268V69.0563H48.7044Z" fill="#FF8540"/>
<path d="M-9.18298 7.99014L-8.33936 11.9747C-8.27113 11.9563 -1.75168 10.6158 3.76907 11.9624L4.73675 8.00858C-1.66484 6.44058 -8.87903 7.92865 -9.18298 7.99014Z" fill="#FF8540"/>
<path d="M88.5901 8.00863L89.5578 11.9625C95.0475 10.622 101.598 11.9625 101.666 11.9748L102.51 7.99018C102.206 7.92869 94.9979 6.44062 88.5901 8.00248V8.00863Z" fill="#FF8540"/>
<path d="M179.49 54.2924H175.44V42.5784C186.555 32.1804 207.212 34.0743 207.423 34.0866L207.689 31.4118C206.796 31.3257 186.177 29.4318 174.093 40.1742C162.004 29.4379 141.391 31.3318 140.497 31.4179L140.764 34.0928C140.975 34.0743 161.613 32.1743 172.747 42.5969V54.2924H168.697V52.6998H150.584V83.4081H168.697V79.03H172.747V132.976H175.446V79.0361H179.496V83.4142H197.609V52.7059H179.496V54.2985L179.49 54.2924ZM172.741 76.3428H168.691V56.9857H172.741V76.3428ZM175.44 76.3428V56.9857H179.49V76.349H175.44V76.3428Z" fill="#FF8540"/>
<path d="M137.179 35.9804L137.737 38.6122C137.781 38.5999 142.092 37.7145 145.739 38.6061L146.378 35.9927C142.141 34.9597 137.378 35.9435 137.179 35.9804Z" fill="#FF8540"/>
<path d="M201.803 35.9928L202.442 38.6061C206.071 37.7206 210.4 38.6061 210.444 38.6184L211.002 35.9866C210.803 35.9436 206.04 34.9659 201.803 35.9989V35.9928Z" fill="#FF8540"/>
<path d="M5.74776 96.3395L102.863 144.683C103.037 144.782 103.186 144.892 103.304 145.003L103.744 145.323C104.879 146.159 104.253 147.223 102.305 147.752L19.9032 169.728C13.6753 182.162 5.56167 200.566 -0.120361 211.48L175.861 211.985L177.077 174.721C177.077 174.383 177.307 174.051 177.741 173.756L218.557 147.063L67.6856 96.9298L5.74156 96.3334L5.74776 96.3395ZM61.5507 102.704L86.9896 113.551L80.464 118.814L54.8018 105.723L61.5507 102.704V102.704ZM105.959 123.303L131.286 134.107L124.872 139.371L99.098 126.279L105.959 123.303ZM133.5 149.67L148.655 155.487L121.442 170.958L101.641 165.602L133.5 149.67V149.67ZM97.0014 181.584L106.07 205.62L70.8988 206.032L76.432 181.768L97.0076 181.584H97.0014Z" fill="#FF8540"/>
</g>
<defs>
<clipPath id="clip0_1364_165923">
<rect width="210" height="208" fill="white"/>
</clipPath>
</defs>
</svg>
