<svg width="210" height="208" viewBox="0 0 210 208" fill="none" xmlns="http://www.w3.org/2000/svg">
<g clip-path="url(#clip0_1364_165851)">
<path d="M210 0H0V208H210V0Z" fill="#181F1C"/>
<mask id="path-2-inside-1_1364_165851" fill="white">
<path d="M138.933 95.3395C145.61 96.0749 151.47 97.2176 151.47 97.2176C138.143 89.9591 138.485 63.9141 138.485 63.9141C140.819 13.4589 107.201 16.0989 107.201 16.0989V16.1783L107.174 16.0989C107.174 16.0989 73.5609 13.4537 75.8897 63.9141C75.8897 63.9141 76.2315 89.9591 62.9049 97.2176C62.9049 97.2176 81.9307 92.9852 95.4604 100.514L90.5036 89.557C95.252 94.255 100.999 97.0166 107.19 97.0166C113.242 97.0166 118.866 94.3713 123.556 89.8797L120.1 97.0166C121.259 95.1226 125.618 94.6094 130.729 94.7364M132.999 59.0152C132.581 65.2617 130.949 71.3695 128.192 77.0027C123.46 86.3933 115.805 92.4932 107.158 92.4932C93.9861 92.4932 83.1219 78.3148 81.3859 59.9198C81.3859 59.9198 91.7909 58.211 97.9975 55.7827C97.9975 55.7827 109.262 52.0794 123.006 42.255L123.214 42.1068C123.214 42.1068 123.46 42.4613 123.807 43.0538C125.003 45.0801 127.546 51.1165 122.739 53.8834L131.541 55.0209H131.701L133.304 55.3171C133.292 56.5564 133.198 57.7936 133.021 59.0204L132.999 59.0152Z"/>
</mask>
<path d="M138.933 95.3395C145.61 96.0749 151.47 97.2176 151.47 97.2176C138.143 89.9591 138.485 63.9141 138.485 63.9141C140.819 13.4589 107.201 16.0989 107.201 16.0989V16.1783L107.174 16.0989C107.174 16.0989 73.5609 13.4537 75.8897 63.9141C75.8897 63.9141 76.2315 89.9591 62.9049 97.2176C62.9049 97.2176 81.9307 92.9852 95.4604 100.514L90.5036 89.557C95.252 94.255 100.999 97.0166 107.19 97.0166C113.242 97.0166 118.866 94.3713 123.556 89.8797L120.1 97.0166C121.259 95.1226 125.618 94.6094 130.729 94.7364M132.999 59.0152C132.581 65.2617 130.949 71.3695 128.192 77.0027C123.46 86.3933 115.805 92.4932 107.158 92.4932C93.9861 92.4932 83.1219 78.3148 81.3859 59.9198C81.3859 59.9198 91.7909 58.211 97.9975 55.7827C97.9975 55.7827 109.262 52.0794 123.006 42.255L123.214 42.1068C123.214 42.1068 123.46 42.4613 123.807 43.0538C125.003 45.0801 127.546 51.1165 122.739 53.8834L131.541 55.0209H131.701L133.304 55.3171C133.292 56.5564 133.198 57.7936 133.021 59.0204L132.999 59.0152Z" fill="#F2A8EE"/>
<path d="M151.47 97.2176L151.278 98.1991L151.948 96.3394L151.47 97.2176ZM138.485 63.9141L137.486 63.8679L137.485 63.8845L137.485 63.901L138.485 63.9141ZM107.201 16.0989L107.122 15.102L106.201 15.1743V16.0989H107.201ZM107.201 16.1783L106.253 16.4972L108.201 16.1783H107.201ZM107.174 16.0989L108.122 15.7799L107.911 15.1538L107.252 15.102L107.174 16.0989ZM75.8897 63.9141L76.8896 63.901L76.8894 63.8845L76.8886 63.868L75.8897 63.9141ZM62.9049 97.2176L62.4266 96.3394L63.1221 98.1938L62.9049 97.2176ZM95.4604 100.514L94.9741 101.387L97.6191 102.859L96.3715 100.101L95.4604 100.514ZM90.5036 89.557L91.2069 88.8461L89.5925 89.9692L90.5036 89.557ZM123.556 89.8797L124.456 90.3156L122.864 89.1575L123.556 89.8797ZM120.1 97.0166L119.2 96.5808L120.953 97.5386L120.1 97.0166ZM132.999 59.0152L133.24 58.0445L132.081 57.7576L132.001 58.9484L132.999 59.0152ZM128.192 77.0027L129.085 77.4528L129.09 77.4423L128.192 77.0027ZM81.3859 59.9198L81.2239 58.9331L80.3026 59.0843L80.3904 60.0138L81.3859 59.9198ZM97.9975 55.7827L97.6852 54.8327L97.6589 54.8413L97.6331 54.8514L97.9975 55.7827ZM123.006 42.255L122.426 41.44L122.424 41.4414L123.006 42.255ZM123.214 42.1068L124.036 41.5371L123.459 40.7053L122.634 41.2919L123.214 42.1068ZM123.807 43.0538L122.944 43.5594L122.946 43.5623L123.807 43.0538ZM122.739 53.8834L122.24 53.0167L119.671 54.4953L122.61 54.8752L122.739 53.8834ZM131.541 55.0209L131.413 56.0126L131.477 56.0209H131.541V55.0209ZM131.701 55.0209L131.883 54.0375L131.793 54.0209H131.701V55.0209ZM133.304 55.3171L134.304 55.3264L134.311 54.4865L133.486 54.3338L133.304 55.3171ZM133.021 59.0204L132.78 59.9911L133.853 60.2567L134.01 59.1632L133.021 59.0204ZM138.824 96.3335C142.14 96.6987 145.255 97.1654 147.543 97.5411C148.687 97.7289 149.622 97.8937 150.271 98.0115C150.596 98.0704 150.848 98.1175 151.019 98.1497C151.105 98.1659 151.17 98.1783 151.214 98.1867C151.235 98.1909 151.252 98.194 151.263 98.1961C151.268 98.1971 151.272 98.1979 151.275 98.1984C151.276 98.1987 151.277 98.1989 151.277 98.199C151.278 98.199 151.278 98.1991 151.278 98.1991C151.278 98.1991 151.278 98.1991 151.278 98.1991C151.278 98.1991 151.278 98.1991 151.47 97.2176C151.661 96.2361 151.661 96.2361 151.661 96.2361C151.661 96.2361 151.661 96.236 151.661 96.236C151.66 96.236 151.66 96.2359 151.66 96.2358C151.659 96.2357 151.658 96.2354 151.656 96.2351C151.653 96.2345 151.648 96.2337 151.643 96.2325C151.631 96.2302 151.613 96.2269 151.591 96.2225C151.545 96.2138 151.478 96.2009 151.39 96.1844C151.215 96.1513 150.958 96.1034 150.628 96.0436C149.97 95.9242 149.023 95.7574 147.867 95.5675C145.557 95.1881 142.404 94.7157 139.043 94.3455L138.824 96.3335ZM151.948 96.3394C145.704 92.9385 142.531 85.022 140.958 77.6356C140.18 73.985 139.811 70.5516 139.637 68.0283C139.55 66.7678 139.512 65.7375 139.496 65.0245C139.488 64.668 139.485 64.3911 139.484 64.2045C139.484 64.1112 139.484 64.0406 139.484 63.9939C139.484 63.9706 139.484 63.9532 139.485 63.9421C139.485 63.9365 139.485 63.9325 139.485 63.93C139.485 63.9287 139.485 63.9279 139.485 63.9274C139.485 63.9272 139.485 63.9272 139.485 63.927C139.485 63.9271 139.485 63.9273 138.485 63.9141C137.485 63.901 137.485 63.9014 137.485 63.9018C137.485 63.9021 137.485 63.9026 137.485 63.9032C137.485 63.9043 137.485 63.9059 137.485 63.9078C137.485 63.9116 137.485 63.917 137.485 63.924C137.485 63.9379 137.484 63.958 137.484 63.9842C137.484 64.0365 137.484 64.113 137.484 64.2123C137.485 64.4108 137.488 64.7005 137.496 65.0704C137.513 65.81 137.553 66.8712 137.642 68.1659C137.82 70.7528 138.199 74.2843 139.002 78.0523C140.589 85.5029 143.909 94.2382 150.991 98.0958L151.948 96.3394ZM139.484 63.9603C140.662 38.4978 132.763 26.1631 124.289 20.2651C120.085 17.3383 115.808 16.0486 112.588 15.4895C110.977 15.2098 109.625 15.1119 108.669 15.0844C108.192 15.0706 107.812 15.0744 107.549 15.082C107.417 15.0857 107.314 15.0904 107.243 15.0943C107.207 15.0963 107.179 15.098 107.158 15.0994C107.148 15.1001 107.14 15.1006 107.134 15.1011C107.131 15.1013 107.129 15.1015 107.127 15.1016C107.126 15.1017 107.125 15.1018 107.124 15.1018C107.123 15.1019 107.122 15.102 107.201 16.0989C107.279 17.0958 107.278 17.0959 107.278 17.0959C107.278 17.0959 107.277 17.0959 107.278 17.0959C107.278 17.0959 107.278 17.0959 107.279 17.0958C107.281 17.0957 107.285 17.0954 107.291 17.095C107.304 17.0941 107.324 17.0929 107.351 17.0914C107.407 17.0884 107.492 17.0844 107.606 17.0812C107.834 17.0746 108.175 17.071 108.612 17.0836C109.486 17.1088 110.742 17.1989 112.246 17.46C115.256 17.9827 119.239 19.1864 123.147 21.9066C130.899 27.3023 138.642 38.8753 137.486 63.8679L139.484 63.9603ZM106.201 16.0989V16.1783H108.201V16.0989H106.201ZM108.148 15.8593L108.122 15.7799L106.226 16.4179L106.253 16.4972L108.148 15.8593ZM107.174 16.0989C107.252 15.102 107.252 15.1019 107.251 15.1018C107.25 15.1018 107.249 15.1017 107.248 15.1016C107.246 15.1015 107.243 15.1013 107.24 15.1011C107.234 15.1006 107.226 15.1001 107.216 15.0994C107.196 15.098 107.168 15.0963 107.132 15.0943C107.06 15.0904 106.957 15.0857 106.826 15.0819C106.562 15.0744 106.183 15.0705 105.705 15.0842C104.75 15.1116 103.398 15.2092 101.787 15.4887C98.5674 16.0474 94.2917 17.3367 90.0872 20.2631C81.6142 26.1605 73.7155 38.4952 74.8908 63.9602L76.8886 63.868C75.7351 38.8726 83.4785 27.2997 91.2298 21.9046C95.1374 19.1848 99.1194 17.9815 102.129 17.4593C103.633 17.1984 104.889 17.1084 105.763 17.0834C106.2 17.0709 106.54 17.0745 106.768 17.0811C106.882 17.0844 106.968 17.0883 107.023 17.0914C107.051 17.0929 107.071 17.0941 107.083 17.0949C107.089 17.0953 107.093 17.0956 107.095 17.0958C107.096 17.0959 107.097 17.0959 107.097 17.0959C107.097 17.0959 107.096 17.0959 107.097 17.0959C107.096 17.0959 107.095 17.0958 107.174 16.0989ZM75.8897 63.9141C74.8898 63.9273 74.8898 63.9271 74.8898 63.927C74.8898 63.9272 74.8898 63.9272 74.8898 63.9274C74.8898 63.9279 74.8898 63.9287 74.8898 63.93C74.8898 63.9325 74.8899 63.9365 74.8899 63.9421C74.89 63.9532 74.8902 63.9706 74.8903 63.9939C74.8905 64.0406 74.8907 64.1112 74.8903 64.2045C74.8896 64.3911 74.8868 64.668 74.8786 65.0245C74.8622 65.7375 74.8242 66.7678 74.7373 68.0283C74.5633 70.5516 74.1944 73.985 73.4167 77.6356C71.8432 85.022 68.6707 92.9385 62.4266 96.3394L63.3832 98.0958C70.4658 94.2382 73.7856 85.5029 75.3728 78.0523C76.1755 74.2843 76.5541 70.7528 76.7325 68.1659C76.8218 66.8712 76.8611 65.81 76.8781 65.0704C76.8866 64.7005 76.8895 64.4108 76.8903 64.2123C76.8907 64.113 76.8905 64.0365 76.8903 63.9842C76.8901 63.958 76.89 63.9379 76.8899 63.924C76.8898 63.917 76.8897 63.9116 76.8897 63.9078C76.8897 63.9059 76.8897 63.9043 76.8896 63.9032C76.8896 63.9026 76.8896 63.9021 76.8896 63.9018C76.8896 63.9014 76.8896 63.901 75.8897 63.9141ZM62.9049 97.2176C63.1221 98.1938 63.1219 98.1938 63.1218 98.1938C63.1218 98.1938 63.1218 98.1938 63.1219 98.1938C63.1222 98.1937 63.1227 98.1936 63.1235 98.1934C63.1251 98.1931 63.1279 98.1925 63.1318 98.1916C63.1396 98.1899 63.152 98.1872 63.1688 98.1836C63.2024 98.1765 63.2538 98.1656 63.3222 98.1517C63.4589 98.1237 63.6637 98.0831 63.9306 98.0338C64.4644 97.9352 65.246 97.8017 66.2277 97.6643C68.1922 97.3894 70.9521 97.0999 74.1272 97.0423C80.5027 96.9266 88.4343 97.7484 94.9741 101.387L95.9466 99.6397C88.9568 95.7504 80.6106 94.9243 74.0909 95.0426C70.8183 95.102 67.9761 95.4002 65.9505 95.6836C64.9372 95.8254 64.1267 95.9637 63.5671 96.0671C63.2873 96.1188 63.0701 96.1618 62.9216 96.1922C62.8473 96.2074 62.7902 96.2194 62.751 96.2278C62.7314 96.232 62.7162 96.2352 62.7057 96.2375C62.7004 96.2387 62.6962 96.2396 62.6933 96.2403C62.6918 96.2406 62.6906 96.2409 62.6896 96.2411C62.6892 96.2412 62.6887 96.2413 62.6885 96.2413C62.6881 96.2414 62.6878 96.2415 62.9049 97.2176ZM96.3715 100.101L91.4147 89.1448L89.5925 89.9692L94.5493 100.926L96.3715 100.101ZM89.8003 90.2679C94.6958 95.1113 100.684 98.0166 107.19 98.0166V96.0166C101.314 96.0166 95.8083 93.3986 91.2069 88.8461L89.8003 90.2679ZM107.19 98.0166C113.55 98.0166 119.411 95.2338 124.247 90.6019L122.864 89.1575C118.321 93.5089 112.934 96.0166 107.19 96.0166V98.0166ZM122.656 89.4439L119.2 96.5808L121 97.4524L124.456 90.3156L122.656 89.4439ZM120.953 97.5386C121.108 97.2859 121.415 97.0083 121.963 96.7451C122.508 96.4836 123.229 96.2669 124.116 96.1017C125.889 95.7712 128.177 95.6733 130.704 95.7361L130.754 93.7367C128.17 93.6725 125.723 93.7677 123.749 94.1356C122.762 94.3195 121.856 94.5783 121.098 94.9418C120.344 95.3035 119.672 95.8003 119.247 96.4946L120.953 97.5386ZM132.001 58.9484C131.592 65.0652 129.994 71.0463 127.294 76.5632L129.09 77.4423C131.904 71.6927 133.57 65.4583 133.997 59.0819L132.001 58.9484ZM127.299 76.5527C122.666 85.746 115.293 91.4932 107.158 91.4932V93.4932C116.318 93.4932 124.253 87.0407 129.085 77.4528L127.299 76.5527ZM107.158 91.4932C100.957 91.4932 95.2145 88.1588 90.7706 82.4878C86.3262 76.8163 83.2343 68.8622 82.3815 59.8259L80.3904 60.0138C81.2735 69.3724 84.4817 77.705 89.1964 83.7214C93.9115 89.7385 100.187 93.4932 107.158 93.4932V91.4932ZM81.3859 59.9198C81.548 60.9066 81.5481 60.9066 81.5482 60.9066C81.5483 60.9066 81.5485 60.9065 81.5487 60.9065C81.5491 60.9064 81.5497 60.9063 81.5504 60.9062C81.5518 60.906 81.5539 60.9056 81.5566 60.9052C81.562 60.9043 81.5698 60.903 81.5801 60.9013C81.6007 60.8979 81.631 60.8928 81.6706 60.8861C81.7498 60.8728 81.8662 60.853 82.0161 60.8269C82.3159 60.7749 82.7502 60.698 83.2904 60.5982C84.3703 60.3987 85.8751 60.1072 87.5757 59.7393C90.9619 59.0065 95.1801 57.9588 98.3618 56.7139L97.6331 54.8514C94.6082 56.0349 90.5206 57.0557 87.1527 57.7845C85.4763 58.1473 83.9919 58.4348 82.927 58.6315C82.3947 58.7299 81.9676 58.8055 81.6742 58.8564C81.5275 58.8818 81.4142 58.9011 81.338 58.914C81.2999 58.9204 81.271 58.9252 81.2518 58.9284C81.2422 58.93 81.2351 58.9312 81.2304 58.932C81.2281 58.9324 81.2263 58.9326 81.2253 58.9328C81.2247 58.9329 81.2243 58.933 81.2241 58.933C81.224 58.933 81.2239 58.933 81.2239 58.9331C81.2238 58.9331 81.2239 58.9331 81.3859 59.9198ZM97.9975 55.7827C98.3098 56.7327 98.31 56.7326 98.3103 56.7325C98.3105 56.7324 98.3108 56.7323 98.3111 56.7322C98.3117 56.732 98.3125 56.7318 98.3134 56.7315C98.3153 56.7308 98.3179 56.73 98.3212 56.7289C98.3277 56.7267 98.337 56.7236 98.3489 56.7196C98.3728 56.7116 98.4074 56.6999 98.4525 56.6844C98.5427 56.6533 98.6749 56.6072 98.8468 56.5453C99.1907 56.4217 99.6938 56.2351 100.339 55.9809C101.629 55.4726 103.488 54.6937 105.777 53.6062C110.355 51.4316 116.659 48.0207 123.587 43.0685L122.424 41.4414C115.608 46.3136 109.409 49.6666 104.919 51.7997C102.674 52.8661 100.857 53.6271 99.6058 54.1201C98.9801 54.3667 98.4957 54.5462 98.1699 54.6634C98.007 54.722 97.8837 54.765 97.8022 54.793C97.7614 54.807 97.7311 54.8173 97.7115 54.8239C97.7018 54.8272 97.6946 54.8296 97.6902 54.831C97.688 54.8318 97.6865 54.8323 97.6857 54.8325C97.6852 54.8327 97.685 54.8328 97.6849 54.8328C97.6849 54.8328 97.6849 54.8328 97.6849 54.8328C97.685 54.8328 97.6852 54.8327 97.9975 55.7827ZM123.585 43.0699L123.793 42.9218L122.634 41.2919L122.426 41.44L123.585 43.0699ZM123.214 42.1068C122.392 42.6765 122.392 42.6765 122.392 42.6764C122.392 42.6764 122.392 42.6764 122.392 42.6763C122.392 42.6763 122.392 42.6762 122.392 42.6762C122.392 42.6761 122.392 42.676 122.392 42.676C122.392 42.6759 122.392 42.6759 122.392 42.676C122.392 42.6761 122.392 42.6766 122.393 42.6775C122.394 42.6792 122.396 42.6822 122.399 42.6865C122.405 42.6952 122.414 42.7091 122.427 42.728C122.452 42.7658 122.491 42.8237 122.54 42.8998C122.638 43.052 122.778 43.2767 122.944 43.5594L124.67 42.5483C124.488 42.2384 124.332 41.9896 124.221 41.8165C124.165 41.7299 124.12 41.6621 124.089 41.615C124.073 41.5914 124.06 41.573 124.051 41.5599C124.047 41.5534 124.043 41.5482 124.041 41.5444C124.04 41.5425 124.038 41.541 124.038 41.5397C124.037 41.5391 124.037 41.5386 124.037 41.5382C124.036 41.538 124.036 41.5378 124.036 41.5376C124.036 41.5375 124.036 41.5374 124.036 41.5373C124.036 41.5373 124.036 41.5373 124.036 41.5372C124.036 41.5372 124.036 41.5371 123.214 42.1068ZM122.946 43.5623C123.502 44.5047 124.361 46.3734 124.528 48.2779C124.69 50.1308 124.204 51.8858 122.24 53.0167L123.237 54.7501C126.08 53.1141 126.727 50.4674 126.52 48.1038C126.318 45.7918 125.308 43.6292 124.668 42.5454L122.946 43.5623ZM122.61 54.8752L131.413 56.0126L131.669 54.0291L122.867 52.8917L122.61 54.8752ZM131.541 56.0209H131.701V54.0209H131.541V56.0209ZM131.52 56.0042L133.122 56.3005L133.486 54.3338L131.883 54.0375L131.52 56.0042ZM132.304 55.3078C132.293 56.5024 132.201 57.695 132.031 58.8777L134.01 59.1632C134.194 57.8922 134.292 56.6104 134.304 55.3264L132.304 55.3078ZM133.261 58.0498L133.24 58.0445L132.759 59.9858L132.78 59.9911L133.261 58.0498Z" fill="#F2A8EE" mask="url(#path-2-inside-1_1364_165851)"/>
<mask id="path-4-inside-2_1364_165851" fill="white">
<path d="M194.019 179.775C200.701 180.516 206.555 181.659 206.555 181.659C193.234 174.4 193.575 148.329 193.575 148.329C195.904 97.8789 162.286 100.519 162.286 100.519V100.598L162.259 100.519C162.259 100.519 128.641 97.8736 130.975 148.329C130.975 148.329 131.311 174.379 117.99 181.659C117.99 181.659 137.016 177.426 150.546 184.949L145.583 173.998C150.332 178.691 156.079 181.452 162.275 181.452C168.322 181.452 173.946 178.807 178.641 174.321L175.158 181.463C176.318 179.569 180.676 179.061 185.788 179.183M188.111 143.467C187.696 149.714 186.063 155.822 183.304 161.454C178.577 170.845 170.917 176.945 162.27 176.945C149.098 176.945 138.234 162.766 136.498 144.377C136.498 144.377 146.903 142.668 153.115 140.234C153.115 140.234 164.374 136.531 178.118 126.707L178.326 126.564C178.326 126.564 178.572 126.913 178.924 127.505C180.115 129.537 182.663 135.573 177.856 138.335L186.658 139.441H186.813L188.416 139.737C188.408 140.985 188.314 142.232 188.133 143.467H188.111Z"/>
</mask>
<path d="M194.019 179.775C200.701 180.516 206.555 181.659 206.555 181.659C193.234 174.4 193.575 148.329 193.575 148.329C195.904 97.8789 162.286 100.519 162.286 100.519V100.598L162.259 100.519C162.259 100.519 128.641 97.8736 130.975 148.329C130.975 148.329 131.311 174.379 117.99 181.659C117.99 181.659 137.016 177.426 150.546 184.949L145.583 173.998C150.332 178.691 156.079 181.452 162.275 181.452C168.322 181.452 173.946 178.807 178.641 174.321L175.158 181.463C176.318 179.569 180.676 179.061 185.788 179.183M188.111 143.467C187.696 149.714 186.063 155.822 183.304 161.454C178.577 170.845 170.917 176.945 162.27 176.945C149.098 176.945 138.234 162.766 136.498 144.377C136.498 144.377 146.903 142.668 153.115 140.234C153.115 140.234 164.374 136.531 178.118 126.707L178.326 126.564C178.326 126.564 178.572 126.913 178.924 127.505C180.115 129.537 182.663 135.573 177.856 138.335L186.658 139.441H186.813L188.416 139.737C188.408 140.985 188.314 142.232 188.133 143.467H188.111Z" fill="#F2A8EE"/>
<path d="M206.555 181.659L206.363 182.64L207.033 180.781L206.555 181.659ZM193.575 148.329L192.576 148.283L192.576 148.299L192.575 148.316L193.575 148.329ZM162.286 100.519L162.208 99.5219L161.286 99.5943V100.519H162.286ZM162.286 100.598L161.338 100.917L163.286 100.598H162.286ZM162.259 100.519L163.207 100.2L162.996 99.5737L162.338 99.5219L162.259 100.519ZM130.975 148.329L131.975 148.316L131.975 148.299L131.974 148.283L130.975 148.329ZM117.99 181.659L117.511 180.781L118.207 182.635L117.99 181.659ZM150.546 184.949L150.06 185.823L152.706 187.295L151.456 184.537L150.546 184.949ZM145.583 173.998L146.286 173.287L144.673 174.411L145.583 173.998ZM178.641 174.321L179.54 174.759L177.95 173.598L178.641 174.321ZM175.158 181.463L174.26 181.025L176.011 181.985L175.158 181.463ZM188.111 143.467V142.467H187.175L187.113 143.4L188.111 143.467ZM183.304 161.454L184.197 161.904L184.202 161.894L183.304 161.454ZM136.498 144.377L136.336 143.39L135.415 143.541L135.502 144.471L136.498 144.377ZM153.115 140.234L152.802 139.284L152.776 139.293L152.75 139.303L153.115 140.234ZM178.118 126.707L177.552 125.882L177.544 125.887L177.536 125.893L178.118 126.707ZM178.326 126.564L179.144 125.988L178.575 125.18L177.76 125.739L178.326 126.564ZM178.924 127.505L179.787 127L179.783 126.994L178.924 127.505ZM177.856 138.335L177.358 137.468L174.769 138.955L177.731 139.327L177.856 138.335ZM186.658 139.441L186.534 140.433L186.596 140.441H186.658V139.441ZM186.813 139.441L186.995 138.457L186.905 138.441H186.813V139.441ZM188.416 139.737L189.416 139.743L189.421 138.906L188.597 138.754L188.416 139.737ZM188.133 143.467V144.467H188.997L189.122 143.612L188.133 143.467ZM193.909 180.769C197.227 181.137 200.343 181.605 202.63 181.981C203.773 182.17 204.708 182.335 205.357 182.452C205.681 182.511 205.934 182.558 206.105 182.591C206.19 182.607 206.255 182.619 206.299 182.628C206.321 182.632 206.337 182.635 206.348 182.637C206.353 182.638 206.357 182.639 206.36 182.639C206.361 182.64 206.362 182.64 206.363 182.64C206.363 182.64 206.363 182.64 206.363 182.64C206.363 182.64 206.363 182.64 206.363 182.64C206.363 182.64 206.363 182.64 206.555 181.659C206.746 180.677 206.746 180.677 206.746 180.677C206.746 180.677 206.746 180.677 206.746 180.677C206.746 180.677 206.745 180.677 206.745 180.677C206.744 180.677 206.743 180.677 206.741 180.676C206.738 180.676 206.734 180.675 206.728 180.674C206.716 180.671 206.699 180.668 206.676 180.664C206.631 180.655 206.563 180.642 206.476 180.626C206.301 180.592 206.044 180.544 205.714 180.485C205.057 180.365 204.11 180.198 202.955 180.008C200.645 179.628 197.493 179.154 194.129 178.781L193.909 180.769ZM207.033 180.781C200.792 177.38 197.621 169.457 196.048 162.064C195.27 158.41 194.902 154.973 194.728 152.447C194.641 151.185 194.603 150.154 194.586 149.44C194.578 149.083 194.576 148.806 194.575 148.619C194.574 148.526 194.575 148.455 194.575 148.409C194.575 148.385 194.575 148.368 194.575 148.357C194.575 148.351 194.575 148.347 194.575 148.345C194.575 148.343 194.575 148.343 194.575 148.342C194.575 148.342 194.575 148.342 194.575 148.342C194.575 148.342 194.575 148.342 193.575 148.329C192.575 148.316 192.575 148.316 192.575 148.316C192.575 148.317 192.575 148.317 192.575 148.318C192.575 148.319 192.575 148.321 192.575 148.322C192.575 148.326 192.575 148.332 192.575 148.339C192.575 148.353 192.575 148.373 192.575 148.399C192.575 148.451 192.574 148.528 192.575 148.627C192.576 148.826 192.578 149.116 192.587 149.486C192.604 150.226 192.643 151.289 192.732 152.585C192.911 155.174 193.289 158.709 194.091 162.48C195.678 169.937 198.996 178.679 206.076 182.537L207.033 180.781ZM194.574 148.375C195.75 122.915 187.849 110.582 179.375 104.684C175.17 101.758 170.894 100.468 167.673 99.9093C166.062 99.6296 164.71 99.5318 163.755 99.5043C163.277 99.4906 162.898 99.4944 162.634 99.5019C162.503 99.5057 162.4 99.5104 162.328 99.5143C162.292 99.5162 162.264 99.518 162.244 99.5193C162.234 99.52 162.226 99.5206 162.219 99.521C162.216 99.5212 162.214 99.5214 162.212 99.5215C162.211 99.5216 162.21 99.5217 162.209 99.5217C162.208 99.5218 162.208 99.5219 162.286 100.519C162.364 101.516 162.364 101.516 162.363 101.516C162.363 101.516 162.363 101.516 162.363 101.516C162.363 101.516 162.363 101.516 162.364 101.516C162.366 101.516 162.371 101.515 162.377 101.515C162.389 101.514 162.409 101.513 162.436 101.511C162.492 101.508 162.577 101.504 162.691 101.501C162.919 101.495 163.26 101.491 163.697 101.504C164.571 101.529 165.827 101.619 167.331 101.88C170.342 102.402 174.324 103.606 178.233 106.326C185.985 111.721 193.73 123.293 192.576 148.283L194.574 148.375ZM161.286 100.519V100.598H163.286V100.519H161.286ZM163.234 100.279L163.207 100.2L161.311 100.838L161.338 100.917L163.234 100.279ZM162.259 100.519C162.338 99.5219 162.337 99.5218 162.336 99.5218C162.335 99.5217 162.334 99.5216 162.333 99.5216C162.331 99.5214 162.329 99.5212 162.326 99.521C162.32 99.5206 162.311 99.52 162.301 99.5193C162.281 99.518 162.253 99.5162 162.217 99.5143C162.145 99.5103 162.043 99.5056 161.911 99.5018C161.647 99.4943 161.268 99.4904 160.79 99.5041C159.835 99.5315 158.483 99.6291 156.872 99.9086C153.652 100.467 149.375 101.756 145.171 104.682C136.697 110.579 128.798 122.912 129.976 148.375L131.974 148.283C130.818 123.29 138.561 111.718 146.313 106.324C150.221 103.604 154.203 102.401 157.214 101.879C158.718 101.618 159.974 101.528 160.848 101.503C161.285 101.491 161.625 101.494 161.853 101.501C161.967 101.504 162.053 101.508 162.108 101.511C162.136 101.513 162.156 101.514 162.168 101.515C162.174 101.515 162.178 101.516 162.18 101.516C162.181 101.516 162.182 101.516 162.182 101.516C162.182 101.516 162.182 101.516 162.182 101.516C162.181 101.516 162.181 101.516 162.259 100.519ZM130.975 148.329C129.975 148.342 129.975 148.342 129.975 148.341C129.975 148.342 129.975 148.342 129.975 148.342C129.975 148.342 129.975 148.343 129.975 148.344C129.975 148.347 129.975 148.351 129.975 148.357C129.975 148.368 129.975 148.385 129.975 148.408C129.976 148.455 129.976 148.526 129.975 148.619C129.975 148.806 129.972 149.083 129.964 149.439C129.947 150.152 129.909 151.183 129.822 152.444C129.647 154.968 129.278 158.403 128.5 162.056C126.926 169.446 123.753 177.37 117.511 180.781L118.47 182.536C125.549 178.668 128.868 169.927 130.456 162.472C131.259 158.702 131.638 155.17 131.817 152.582C131.906 151.287 131.946 150.225 131.963 149.485C131.972 149.115 131.975 148.826 131.975 148.627C131.976 148.528 131.976 148.451 131.975 148.399C131.975 148.373 131.975 148.353 131.975 148.339C131.975 148.332 131.975 148.326 131.975 148.323C131.975 148.321 131.975 148.319 131.975 148.318C131.975 148.317 131.975 148.317 131.975 148.317C131.975 148.316 131.975 148.316 130.975 148.329ZM117.99 181.659C118.207 182.635 118.207 182.635 118.207 182.635C118.207 182.635 118.207 182.635 118.207 182.635C118.207 182.635 118.208 182.635 118.209 182.635C118.21 182.634 118.213 182.634 118.217 182.633C118.225 182.631 118.237 182.628 118.254 182.625C118.288 182.618 118.339 182.607 118.407 182.593C118.544 182.565 118.749 182.524 119.016 182.475C119.55 182.376 120.331 182.243 121.313 182.105C123.277 181.83 126.037 181.541 129.212 181.483C135.588 181.366 143.52 182.187 150.06 185.823L151.032 184.075C144.042 180.189 135.696 179.364 129.176 179.483C125.903 179.543 123.061 179.841 121.036 180.125C120.022 180.266 119.212 180.405 118.652 180.508C118.373 180.56 118.155 180.603 118.007 180.633C117.933 180.648 117.875 180.66 117.836 180.669C117.817 180.673 117.801 180.676 117.791 180.679C117.786 180.68 117.781 180.681 117.778 180.681C117.777 180.682 117.776 180.682 117.775 180.682C117.774 180.682 117.774 180.682 117.774 180.682C117.773 180.682 117.773 180.683 117.99 181.659ZM151.456 184.537L146.494 173.585L144.673 174.411L149.635 185.362L151.456 184.537ZM144.881 174.709C149.776 179.547 155.764 182.452 162.275 182.452V180.452C156.394 180.452 150.888 177.834 146.286 173.287L144.881 174.709ZM162.275 182.452C168.63 182.452 174.491 179.67 179.332 175.044L177.95 173.598C173.401 177.945 168.013 180.452 162.275 180.452V182.452ZM177.742 173.883L174.26 181.025L176.057 181.901L179.54 174.759L177.742 173.883ZM176.011 181.985C176.166 181.733 176.473 181.455 177.021 181.192C177.566 180.931 178.287 180.715 179.174 180.55C180.947 180.22 183.235 180.122 185.764 180.182L185.811 178.183C183.228 178.122 180.781 178.217 178.808 178.584C177.821 178.767 176.915 179.026 176.157 179.389C175.403 179.75 174.731 180.246 174.305 180.941L176.011 181.985ZM187.113 143.4C186.707 149.517 185.108 155.499 182.406 161.014L184.202 161.894C187.018 156.145 188.685 149.91 189.109 143.533L187.113 143.4ZM182.411 161.005C177.783 170.197 170.405 175.945 162.27 175.945V177.945C171.429 177.945 179.37 171.493 184.197 161.904L182.411 161.005ZM162.27 175.945C156.069 175.945 150.326 172.61 145.882 166.94C141.438 161.269 138.346 153.316 137.493 144.283L135.502 144.471C136.385 153.827 139.594 162.158 144.308 168.174C149.023 174.19 155.299 177.945 162.27 177.945V175.945ZM136.498 144.377C136.66 145.364 136.66 145.364 136.66 145.364C136.66 145.364 136.66 145.363 136.661 145.363C136.661 145.363 136.662 145.363 136.662 145.363C136.664 145.363 136.666 145.363 136.669 145.362C136.674 145.361 136.682 145.36 136.692 145.358C136.713 145.355 136.743 145.35 136.783 145.343C136.862 145.33 136.978 145.31 137.128 145.284C137.428 145.232 137.862 145.155 138.402 145.055C139.482 144.855 140.987 144.564 142.688 144.196C146.075 143.462 150.295 142.413 153.48 141.165L152.75 139.303C149.722 140.489 145.634 141.511 142.265 142.241C140.588 142.604 139.104 142.892 138.039 143.088C137.507 143.187 137.08 143.262 136.786 143.313C136.639 143.339 136.526 143.358 136.45 143.371C136.412 143.377 136.383 143.382 136.364 143.385C136.354 143.387 136.347 143.388 136.342 143.389C136.34 143.389 136.338 143.39 136.337 143.39C136.337 143.39 136.336 143.39 136.336 143.39C136.336 143.39 136.336 143.39 136.336 143.39C136.336 143.39 136.336 143.39 136.498 144.377ZM153.115 140.234C153.427 141.184 153.427 141.184 153.428 141.184C153.428 141.184 153.428 141.184 153.428 141.184C153.429 141.184 153.43 141.183 153.431 141.183C153.433 141.182 153.435 141.182 153.439 141.181C153.445 141.178 153.454 141.175 153.466 141.171C153.49 141.163 153.525 141.151 153.57 141.136C153.66 141.105 153.792 141.059 153.964 140.997C154.308 140.873 154.811 140.687 155.455 140.433C156.745 139.924 158.603 139.145 160.892 138.058C165.468 135.883 171.771 132.472 178.699 127.52L177.536 125.893C170.72 130.765 164.522 134.118 160.033 136.251C157.789 137.318 155.973 138.079 154.722 138.572C154.097 138.818 153.612 138.998 153.287 139.115C153.124 139.174 153.001 139.217 152.919 139.245C152.879 139.259 152.848 139.269 152.829 139.276C152.819 139.279 152.812 139.281 152.807 139.283C152.805 139.283 152.804 139.284 152.803 139.284C152.802 139.284 152.802 139.284 152.802 139.285C152.802 139.285 152.802 139.285 152.802 139.285C152.802 139.284 152.802 139.284 153.115 140.234ZM178.683 127.531L178.891 127.389L177.76 125.739L177.552 125.882L178.683 127.531ZM178.326 126.564C177.508 127.139 177.508 127.139 177.508 127.139C177.508 127.139 177.508 127.139 177.508 127.139C177.508 127.139 177.508 127.139 177.508 127.139C177.508 127.139 177.508 127.139 177.508 127.139C177.508 127.139 177.508 127.139 177.508 127.139C177.508 127.139 177.508 127.139 177.509 127.14C177.51 127.142 177.512 127.145 177.515 127.149C177.521 127.157 177.53 127.171 177.543 127.19C177.568 127.227 177.606 127.284 177.656 127.36C177.754 127.511 177.896 127.734 178.065 128.017L179.783 126.994C179.599 126.684 179.442 126.437 179.33 126.265C179.274 126.179 179.229 126.112 179.197 126.065C179.181 126.042 179.168 126.024 179.159 126.011C179.155 126.004 179.151 125.999 179.149 125.996C179.147 125.994 179.146 125.992 179.145 125.991C179.145 125.99 179.145 125.99 179.144 125.989C179.144 125.989 179.144 125.989 179.144 125.989C179.144 125.989 179.144 125.989 179.144 125.989C179.144 125.988 179.144 125.988 179.144 125.988C179.144 125.988 179.144 125.988 178.326 126.564ZM178.061 128.011C178.617 128.958 179.476 130.829 179.643 132.734C179.806 134.587 179.321 136.34 177.358 137.468L178.354 139.202C181.197 137.569 181.843 134.922 181.636 132.559C181.433 130.247 180.423 128.084 179.787 127L178.061 128.011ZM177.731 139.327L186.534 140.433L186.783 138.449L177.98 137.343L177.731 139.327ZM186.658 140.441H186.813V138.441H186.658V140.441ZM186.631 140.424L188.234 140.72L188.597 138.754L186.995 138.457L186.631 140.424ZM187.416 139.731C187.408 140.933 187.317 142.133 187.143 143.322L189.122 143.612C189.31 142.33 189.408 141.038 189.416 139.743L187.416 139.731ZM188.133 142.467H188.111V144.467H188.133V142.467Z" fill="#F2A8EE" mask="url(#path-4-inside-2_1364_165851)"/>
<path d="M17.2611 139.393V139.274L17.2387 139.23C17.1089 138.336 17.0231 137.431 16.9719 136.503L16.9719 136.503C16.9348 135.852 16.9086 135.201 16.9086 134.542L16.9086 134.542C16.9076 132.946 17.0219 131.352 17.2506 129.773C19.4505 114.673 31.9363 103.135 47.0038 103.135C62.0713 103.135 74.5679 114.689 76.7623 129.784C76.9909 131.363 77.1052 132.957 77.1043 134.552V134.552C77.1043 135.211 77.0781 135.862 77.041 136.513L77.0409 136.514C76.9883 137.469 76.8988 138.401 76.7625 139.32L76.7605 139.334L76.7592 139.347C76.7458 139.493 76.7347 139.625 76.7239 139.754C76.7115 139.903 76.6994 140.047 76.6846 140.203L76.6843 140.206C75.7301 150.938 72.0868 160.428 66.7864 167.223C61.4862 174.018 54.5556 178.09 47.0038 178.09C39.4519 178.09 32.5253 174.02 27.2278 167.227C21.9301 160.434 18.2881 150.944 17.3286 140.206L17.3284 140.204C17.3193 140.107 17.3097 140.019 17.3006 139.936C17.2793 139.741 17.2611 139.575 17.2611 139.393ZM77.2571 139.393C77.396 138.457 77.4868 137.51 77.5402 136.542C77.5776 135.886 77.6043 135.224 77.6043 134.552L77.2571 139.393ZM28.1382 121.71L28.0859 121.939L28.0097 121.744C26.2005 122.45 25.126 124.212 24.4955 126.282C23.8611 128.366 23.6394 130.876 23.6181 133.274C23.5969 135.677 23.7772 137.998 23.9621 139.715C24.0363 140.403 24.1114 140.996 24.1747 141.46C23.0864 140.821 21.9107 140.338 20.6821 140.025L19.9953 139.85L20.0609 140.556C20.9471 150.083 24.2118 158.543 28.9879 164.634C33.7642 170.724 40.0785 174.472 47.0411 174.472C54.0037 174.472 60.3181 170.724 65.0937 164.634C69.8692 158.543 73.1325 150.083 74.016 140.556L74.0815 139.849L73.3941 140.025C72.1668 140.339 70.992 140.823 69.9037 141.46C69.9677 140.997 70.0435 140.404 70.1185 139.715C70.3056 137.998 70.4884 135.678 70.4688 133.274C70.4493 130.876 70.2285 128.366 69.5926 126.282C68.9606 124.211 67.8824 122.45 66.0666 121.744L65.8643 121.665L65.6688 121.759L65.6687 121.759L65.6687 121.759L65.6679 121.76L65.6638 121.761L65.6462 121.77C65.6302 121.777 65.606 121.789 65.5736 121.804C65.5088 121.834 65.4115 121.878 65.2836 121.936C65.0278 122.05 64.6496 122.214 64.1637 122.412C63.1917 122.809 61.7896 123.342 60.075 123.884C56.6456 124.967 51.9816 126.08 47.0144 126.217C42.0473 126.08 37.3819 124.967 33.9512 123.884C32.2358 123.342 30.8331 122.809 29.8606 122.412C29.3744 122.214 28.996 122.05 28.7401 121.936C28.6121 121.878 28.5148 121.834 28.4499 121.804C28.4175 121.789 28.3932 121.777 28.3773 121.77L28.3596 121.761L28.3556 121.759L28.3547 121.759L28.3546 121.759L28.2442 121.989L28.1916 121.71H28.1382Z" fill="#F2A8EE" stroke="#F2A8EE"/>
</g>
<defs>
<clipPath id="clip0_1364_165851">
<rect width="210" height="208" fill="white"/>
</clipPath>
</defs>
</svg>
