<svg width="210" height="208" viewBox="0 0 210 208" fill="none" xmlns="http://www.w3.org/2000/svg">
<g clip-path="url(#clip0_1364_165950)">
<path d="M104.006 183.166C145.055 183.166 178.332 173.782 178.332 162.206C178.332 150.63 145.055 141.246 104.006 141.246C62.9572 141.246 29.6804 150.63 29.6804 162.206C29.6804 173.782 62.9572 183.166 104.006 183.166Z" fill="#4A4E5E" stroke="#FFFEF5" stroke-width="2" stroke-miterlimit="10"/>
<path d="M104.006 183.176C145.054 183.176 178.332 173.791 178.332 162.216V186.524C178.332 198.104 145.054 207.484 104.006 207.484C62.9585 207.484 29.6804 198.088 29.6804 186.514V162.206C29.6804 173.781 62.9585 183.176 104.006 183.176Z" fill="#4A4E5E" stroke="#FFFEF5" stroke-width="2" stroke-miterlimit="10"/>
<path d="M104.006 183.166V207.474" stroke="#FFFEF5" stroke-width="0.89" stroke-miterlimit="10"/>
<path d="M96.5715 183.061V207.368" stroke="#FFFEF5" stroke-width="0.89" stroke-miterlimit="10"/>
<path d="M89.1421 182.745V207.053" stroke="#FFFEF5" stroke-width="0.89" stroke-miterlimit="10"/>
<path d="M81.7074 182.208V206.51" stroke="#FFFEF5" stroke-width="0.89" stroke-miterlimit="10"/>
<path d="M74.278 181.418V205.726" stroke="#FFFEF5" stroke-width="0.89" stroke-miterlimit="10"/>
<path d="M66.8433 180.36V204.668" stroke="#FFFEF5" stroke-width="0.89" stroke-miterlimit="10"/>
<path d="M59.4139 178.976V203.279" stroke="#FFFEF5" stroke-width="0.89" stroke-miterlimit="10"/>
<path d="M51.9792 177.171V201.478" stroke="#FFFEF5" stroke-width="0.89" stroke-miterlimit="10"/>
<path d="M44.5445 174.781V199.089" stroke="#FFFEF5" stroke-width="0.89" stroke-miterlimit="10"/>
<path d="M37.1151 171.349V195.657" stroke="#FFFEF5" stroke-width="0.89" stroke-miterlimit="10"/>
<path d="M170.897 171.349V195.657" stroke="#FFFEF5" stroke-width="0.89" stroke-miterlimit="10"/>
<path d="M163.468 174.781V199.089" stroke="#FFFEF5" stroke-width="0.89" stroke-miterlimit="10"/>
<path d="M156.033 177.171V201.478" stroke="#FFFEF5" stroke-width="0.89" stroke-miterlimit="10"/>
<path d="M148.599 178.976V203.279" stroke="#FFFEF5" stroke-width="0.89" stroke-miterlimit="10"/>
<path d="M141.169 180.36V204.668" stroke="#FFFEF5" stroke-width="0.89" stroke-miterlimit="10"/>
<path d="M133.734 181.418V205.726" stroke="#FFFEF5" stroke-width="0.89" stroke-miterlimit="10"/>
<path d="M126.305 182.208V206.51" stroke="#FFFEF5" stroke-width="0.89" stroke-miterlimit="10"/>
<path d="M118.87 182.745V207.053" stroke="#FFFEF5" stroke-width="0.89" stroke-miterlimit="10"/>
<path d="M111.441 183.061V207.368" stroke="#FFFEF5" stroke-width="0.89" stroke-miterlimit="10"/>
<path d="M74.8573 155.021C115.906 155.021 149.183 145.637 149.183 134.061C149.183 122.485 115.906 113.101 74.8573 113.101C33.8082 113.101 0.531433 122.485 0.531433 134.061C0.531433 145.637 33.8082 155.021 74.8573 155.021Z" fill="#4A4E5E" stroke="#FFFEF5" stroke-width="2" stroke-miterlimit="10"/>
<path d="M74.8573 155.021C115.905 155.021 149.178 145.636 149.178 134.061V158.369C149.178 169.949 115.905 179.329 74.8573 179.329C33.8096 179.329 0.531433 169.944 0.531433 158.369V134.061C0.531433 145.636 33.8096 155.021 74.8573 155.021Z" fill="#4A4E5E" stroke="#FFFEF5" stroke-width="2" stroke-miterlimit="10"/>
<path d="M74.8573 155.021V179.329" stroke="#FFFEF5" stroke-width="0.89" stroke-miterlimit="10"/>
<path d="M67.4225 154.916V179.223" stroke="#FFFEF5" stroke-width="0.89" stroke-miterlimit="10"/>
<path d="M59.9932 154.6V178.908" stroke="#FFFEF5" stroke-width="0.89" stroke-miterlimit="10"/>
<path d="M52.5585 154.063V178.365" stroke="#FFFEF5" stroke-width="0.89" stroke-miterlimit="10"/>
<path d="M45.1238 153.279V177.581" stroke="#FFFEF5" stroke-width="0.89" stroke-miterlimit="10"/>
<path d="M37.6943 152.215V176.523" stroke="#FFFEF5" stroke-width="0.89" stroke-miterlimit="10"/>
<path d="M30.2596 150.831V175.139" stroke="#FFFEF5" stroke-width="0.89" stroke-miterlimit="10"/>
<path d="M22.8303 149.031V173.333" stroke="#FFFEF5" stroke-width="0.89" stroke-miterlimit="10"/>
<path d="M15.3955 146.641V170.944" stroke="#FFFEF5" stroke-width="0.89" stroke-miterlimit="10"/>
<path d="M7.96613 143.209V167.512" stroke="#FFFEF5" stroke-width="0.89" stroke-miterlimit="10"/>
<path d="M141.748 143.209V167.512" stroke="#FFFEF5" stroke-width="0.89" stroke-miterlimit="10"/>
<path d="M134.314 146.641V170.944" stroke="#FFFEF5" stroke-width="0.89" stroke-miterlimit="10"/>
<path d="M126.884 149.031V173.333" stroke="#FFFEF5" stroke-width="0.89" stroke-miterlimit="10"/>
<path d="M119.45 150.831V175.139" stroke="#FFFEF5" stroke-width="0.89" stroke-miterlimit="10"/>
<path d="M112.02 152.215V176.523" stroke="#FFFEF5" stroke-width="0.89" stroke-miterlimit="10"/>
<path d="M104.586 153.279V177.581" stroke="#FFFEF5" stroke-width="0.89" stroke-miterlimit="10"/>
<path d="M97.1508 154.063V178.365" stroke="#FFFEF5" stroke-width="0.89" stroke-miterlimit="10"/>
<path d="M89.7214 154.6V178.908" stroke="#FFFEF5" stroke-width="0.89" stroke-miterlimit="10"/>
<path d="M82.2867 154.916V179.223" stroke="#FFFEF5" stroke-width="0.89" stroke-miterlimit="10"/>
<path d="M104.006 126.876C145.055 126.876 178.332 117.492 178.332 105.916C178.332 94.3402 145.055 84.9561 104.006 84.9561C62.9572 84.9561 29.6804 94.3402 29.6804 105.916C29.6804 117.492 62.9572 126.876 104.006 126.876Z" fill="#4A4E5E" stroke="#FFFEF5" stroke-width="2" stroke-miterlimit="10"/>
<path d="M104.006 126.855C145.054 126.855 178.332 117.475 178.332 105.895V130.224C178.332 141.804 145.054 151.184 104.006 151.184C62.9585 151.184 29.6804 141.799 29.6804 130.224V105.916C29.6804 117.496 62.9585 126.855 104.006 126.855Z" fill="#4A4E5E" stroke="#FFFEF5" stroke-width="2" stroke-miterlimit="10"/>
<path d="M104.006 126.876V151.184" stroke="#FFFEF5" stroke-width="0.89" stroke-miterlimit="10"/>
<path d="M96.5715 126.776V151.078" stroke="#FFFEF5" stroke-width="0.89" stroke-miterlimit="10"/>
<path d="M89.1421 126.46V150.763" stroke="#FFFEF5" stroke-width="0.89" stroke-miterlimit="10"/>
<path d="M81.7074 125.918V150.226" stroke="#FFFEF5" stroke-width="0.89" stroke-miterlimit="10"/>
<path d="M74.278 125.134V149.436" stroke="#FFFEF5" stroke-width="0.89" stroke-miterlimit="10"/>
<path d="M66.8433 124.076V148.378" stroke="#FFFEF5" stroke-width="0.89" stroke-miterlimit="10"/>
<path d="M59.4139 122.686V146.994" stroke="#FFFEF5" stroke-width="0.89" stroke-miterlimit="10"/>
<path d="M51.9792 120.886V145.188" stroke="#FFFEF5" stroke-width="0.89" stroke-miterlimit="10"/>
<path d="M44.5445 118.496V142.799" stroke="#FFFEF5" stroke-width="0.89" stroke-miterlimit="10"/>
<path d="M37.1151 115.064V139.372" stroke="#FFFEF5" stroke-width="2" stroke-miterlimit="10"/>
<path d="M170.897 115.064V139.372" stroke="#FFFEF5" stroke-width="0.89" stroke-miterlimit="10"/>
<path d="M163.468 118.496V142.799" stroke="#FFFEF5" stroke-width="0.89" stroke-miterlimit="10"/>
<path d="M156.033 120.886V145.188" stroke="#FFFEF5" stroke-width="0.89" stroke-miterlimit="10"/>
<path d="M148.599 122.686V146.994" stroke="#FFFEF5" stroke-width="0.89" stroke-miterlimit="10"/>
<path d="M141.169 124.076V148.378" stroke="#FFFEF5" stroke-width="0.89" stroke-miterlimit="10"/>
<path d="M133.734 125.134V149.436" stroke="#FFFEF5" stroke-width="0.89" stroke-miterlimit="10"/>
<path d="M126.305 125.918V150.226" stroke="#FFFEF5" stroke-width="0.89" stroke-miterlimit="10"/>
<path d="M118.87 126.46V150.763" stroke="#FFFEF5" stroke-width="0.89" stroke-miterlimit="10"/>
<path d="M111.441 126.776V151.078" stroke="#FFFEF5" stroke-width="0.89" stroke-miterlimit="10"/>
<path d="M104.006 98.7362C145.055 98.7362 178.332 89.3521 178.332 77.7762C178.332 66.2003 145.055 56.8162 104.006 56.8162C62.9572 56.8162 29.6804 66.2003 29.6804 77.7762C29.6804 89.3521 62.9572 98.7362 104.006 98.7362Z" fill="#4A4E5E" stroke="#FFFEF5" stroke-width="2" stroke-miterlimit="10"/>
<path d="M104.006 98.7364C145.054 98.7364 178.332 89.3512 178.332 77.7764V102.079C178.332 113.659 145.054 123.039 104.006 123.039C62.9585 123.039 29.6804 113.654 29.6804 102.079V77.7764C29.6804 89.3512 62.9585 98.7364 104.006 98.7364Z" fill="#4A4E5E" stroke="#FFFEF5" stroke-width="2" stroke-miterlimit="10"/>
<path d="M104.006 98.7363V123.039" stroke="#FFFEF5" stroke-width="0.89" stroke-miterlimit="10"/>
<path d="M96.5715 98.6311V122.939" stroke="#FFFEF5" stroke-width="0.89" stroke-miterlimit="10"/>
<path d="M89.1421 98.3152V122.623" stroke="#FFFEF5" stroke-width="0.89" stroke-miterlimit="10"/>
<path d="M81.7074 97.7729V122.081" stroke="#FFFEF5" stroke-width="0.89" stroke-miterlimit="10"/>
<path d="M74.278 96.9888V121.296" stroke="#FFFEF5" stroke-width="0.89" stroke-miterlimit="10"/>
<path d="M66.8433 95.9307V120.233" stroke="#FFFEF5" stroke-width="0.89" stroke-miterlimit="10"/>
<path d="M59.4139 94.5413V118.849" stroke="#FFFEF5" stroke-width="0.89" stroke-miterlimit="10"/>
<path d="M51.9792 92.741V117.049" stroke="#FFFEF5" stroke-width="0.89" stroke-miterlimit="10"/>
<path d="M44.5445 90.3513V114.659" stroke="#FFFEF5" stroke-width="0.89" stroke-miterlimit="10"/>
<path d="M37.1151 86.9194V111.227" stroke="#FFFEF5" stroke-width="0.89" stroke-miterlimit="10"/>
<path d="M170.897 86.9194V111.227" stroke="#FFFEF5" stroke-width="0.89" stroke-miterlimit="10"/>
<path d="M163.468 90.3513V114.659" stroke="#FFFEF5" stroke-width="0.89" stroke-miterlimit="10"/>
<path d="M156.033 92.741V117.049" stroke="#FFFEF5" stroke-width="0.89" stroke-miterlimit="10"/>
<path d="M148.599 94.5413V118.849" stroke="#FFFEF5" stroke-width="0.89" stroke-miterlimit="10"/>
<path d="M141.169 95.9307V120.233" stroke="#FFFEF5" stroke-width="0.89" stroke-miterlimit="10"/>
<path d="M133.734 96.9888V121.296" stroke="#FFFEF5" stroke-width="0.89" stroke-miterlimit="10"/>
<path d="M126.305 97.7729V122.081" stroke="#FFFEF5" stroke-width="0.89" stroke-miterlimit="10"/>
<path d="M118.87 98.3152V122.623" stroke="#FFFEF5" stroke-width="0.89" stroke-miterlimit="10"/>
<path d="M111.441 98.6311V122.939" stroke="#FFFEF5" stroke-width="0.89" stroke-miterlimit="10"/>
<path d="M135.143 70.5914C176.192 70.5914 209.469 61.2073 209.469 49.6314C209.469 38.0555 176.192 28.6714 135.143 28.6714C94.0937 28.6714 60.8169 38.0555 60.8169 49.6314C60.8169 61.2073 94.0937 70.5914 135.143 70.5914Z" fill="#4A4E5E" stroke="#FFFEF5" stroke-width="2" stroke-miterlimit="10"/>
<path d="M135.143 70.5914C176.19 70.5914 209.469 61.2062 209.469 49.6313V73.9338C209.469 85.5139 176.19 94.8991 135.143 94.8991C94.0951 94.8991 60.8169 85.5139 60.8169 73.9338V49.6313C60.8169 61.2062 94.0951 70.5914 135.143 70.5914Z" fill="#4A4E5E" stroke="#FFFEF5" stroke-width="2" stroke-miterlimit="10"/>
<path d="M135.143 70.5913V94.899" stroke="#FFFEF5" stroke-width="0.89" stroke-miterlimit="10"/>
<path d="M127.708 70.4861V94.7938" stroke="#FFFEF5" stroke-width="0.89" stroke-miterlimit="10"/>
<path d="M120.279 70.1702V94.4779" stroke="#FFFEF5" stroke-width="0.89" stroke-miterlimit="10"/>
<path d="M112.844 69.6282V93.9359" stroke="#FFFEF5" stroke-width="0.89" stroke-miterlimit="10"/>
<path d="M105.414 68.8438V93.1515" stroke="#FFFEF5" stroke-width="0.89" stroke-miterlimit="10"/>
<path d="M97.9798 67.7859V92.0936" stroke="#FFFEF5" stroke-width="0.89" stroke-miterlimit="10"/>
<path d="M90.5451 66.4014V90.7038" stroke="#FFFEF5" stroke-width="0.89" stroke-miterlimit="10"/>
<path d="M83.1157 64.5959V88.9037" stroke="#FFFEF5" stroke-width="0.89" stroke-miterlimit="10"/>
<path d="M75.681 62.2063V86.514" stroke="#FFFEF5" stroke-width="0.89" stroke-miterlimit="10"/>
<path d="M68.2516 58.7744V83.0821" stroke="#FFFEF5" stroke-width="0.89" stroke-miterlimit="10"/>
<path d="M202.034 58.7744V83.0821" stroke="#FFFEF5" stroke-width="0.89" stroke-miterlimit="10"/>
<path d="M194.599 62.2063V86.514" stroke="#FFFEF5" stroke-width="0.89" stroke-miterlimit="10"/>
<path d="M187.17 64.5959V88.9037" stroke="#FFFEF5" stroke-width="0.89" stroke-miterlimit="10"/>
<path d="M179.735 66.4014V90.7038" stroke="#FFFEF5" stroke-width="0.89" stroke-miterlimit="10"/>
<path d="M172.306 67.7859V92.0936" stroke="#FFFEF5" stroke-width="0.89" stroke-miterlimit="10"/>
<path d="M164.871 68.8438V93.1515" stroke="#FFFEF5" stroke-width="0.89" stroke-miterlimit="10"/>
<path d="M157.442 69.6282V93.9359" stroke="#FFFEF5" stroke-width="0.89" stroke-miterlimit="10"/>
<path d="M150.007 70.1702V94.4779" stroke="#FFFEF5" stroke-width="0.89" stroke-miterlimit="10"/>
<path d="M142.572 70.4861V94.7938" stroke="#FFFEF5" stroke-width="0.89" stroke-miterlimit="10"/>
<path d="M135.143 42.4464C176.192 42.4464 209.469 33.0623 209.469 21.4864C209.469 9.91049 176.192 0.526367 135.143 0.526367C94.0937 0.526367 60.8169 9.91049 60.8169 21.4864C60.8169 33.0623 94.0937 42.4464 135.143 42.4464Z" fill="#4A4E5E" stroke="#FFFEF5" stroke-width="2" stroke-miterlimit="10"/>
<path d="M135.143 42.4463C176.19 42.4463 209.469 33.0612 209.469 21.4863V45.7941C209.469 57.3742 176.19 66.7541 135.143 66.7541C94.0951 66.7541 60.8169 57.3742 60.8169 45.7941V21.4863C60.8169 33.0612 94.0951 42.4463 135.143 42.4463Z" fill="#4A4E5E" stroke="#FFFEF5" stroke-width="2" stroke-miterlimit="10"/>
<path d="M135.143 42.4463V66.754" stroke="#FFFEF5" stroke-width="0.89" stroke-miterlimit="10"/>
<path d="M127.708 42.3411V66.6488" stroke="#FFFEF5" stroke-width="0.89" stroke-miterlimit="10"/>
<path d="M120.279 42.0254V66.3331" stroke="#FFFEF5" stroke-width="0.89" stroke-miterlimit="10"/>
<path d="M112.844 41.4885V65.791" stroke="#FFFEF5" stroke-width="0.89" stroke-miterlimit="10"/>
<path d="M105.414 40.699V65.0067" stroke="#FFFEF5" stroke-width="0.89" stroke-miterlimit="10"/>
<path d="M97.9798 39.6409V63.9486" stroke="#FFFEF5" stroke-width="0.89" stroke-miterlimit="10"/>
<path d="M90.5451 38.2566V62.5643" stroke="#FFFEF5" stroke-width="0.89" stroke-miterlimit="10"/>
<path d="M83.1157 36.4512V60.7589" stroke="#FFFEF5" stroke-width="0.89" stroke-miterlimit="10"/>
<path d="M75.681 34.0667V58.3691" stroke="#FFFEF5" stroke-width="0.89" stroke-miterlimit="10"/>
<path d="M68.2516 30.6348V54.9372" stroke="#FFFEF5" stroke-width="0.89" stroke-miterlimit="10"/>
<path d="M202.034 30.6348V54.9372" stroke="#FFFEF5" stroke-width="0.89" stroke-miterlimit="10"/>
<path d="M194.599 34.0667V58.3691" stroke="#FFFEF5" stroke-width="0.89" stroke-miterlimit="10"/>
<path d="M187.17 36.4512V60.7589" stroke="#FFFEF5" stroke-width="0.89" stroke-miterlimit="10"/>
<path d="M179.735 38.2566V62.5643" stroke="#FFFEF5" stroke-width="0.89" stroke-miterlimit="10"/>
<path d="M172.306 39.6409V63.9486" stroke="#FFFEF5" stroke-width="0.89" stroke-miterlimit="10"/>
<path d="M164.871 40.699V65.0067" stroke="#FFFEF5" stroke-width="0.89" stroke-miterlimit="10"/>
<path d="M157.442 41.4885V65.791" stroke="#FFFEF5" stroke-width="0.89" stroke-miterlimit="10"/>
<path d="M150.007 42.0254V66.3331" stroke="#FFFEF5" stroke-width="0.89" stroke-miterlimit="10"/>
<path d="M142.572 42.3411V66.6488" stroke="#FFFEF5" stroke-width="0.89" stroke-miterlimit="10"/>
</g>
<defs>
<clipPath id="clip0_1364_165950">
<rect width="210" height="208" fill="white"/>
</clipPath>
</defs>
</svg>
