<svg width="210" height="208" viewBox="0 0 210 208" fill="none" xmlns="http://www.w3.org/2000/svg">
<rect width="210" height="208" fill="#181F1C"/>
<path d="M157.503 61.0816V143.12L104.049 165.123L50.5959 143.12V61.0816H157.503Z" fill="#89E26A" stroke="#89E26A"/>
<path d="M188.677 72.5603L188.767 72.5967H188.864H199.845V76.3952L105 114.688L10.1552 76.3952V72.5967H21.1355H21.2327L21.3227 72.5603L105 38.7726L188.677 72.5603Z" fill="#181F1C" stroke="#89E26A"/>
<path d="M105 34.1368L199.009 72.0967L105 110.052L10.9906 72.0967L105 34.1368Z" fill="#89E26A" stroke="#89E26A"/>
<path d="M107.532 72.0967L58.5547 91.87L58.4141 152.857" stroke="#89E26A" stroke-width="5" stroke-miterlimit="10"/>
<path d="M115.583 72.0967C115.583 72.4304 115.419 72.796 115.023 73.1789C114.625 73.5632 114.024 73.9323 113.24 74.2529C111.674 74.8931 109.476 75.3006 107.022 75.3006C104.569 75.3006 102.371 74.8931 100.805 74.2529C100.021 73.9323 99.4194 73.5632 99.0218 73.1789C98.6256 72.796 98.4623 72.4304 98.4623 72.0967C98.4623 71.763 98.6256 71.3974 99.0218 71.0145C99.4194 70.6302 100.021 70.2611 100.805 69.9405C102.371 69.3003 104.569 68.8928 107.022 68.8928C109.476 68.8928 111.674 69.3003 113.24 69.9405C114.024 70.2611 114.625 70.6302 115.023 71.0145C115.419 71.3974 115.583 71.763 115.583 72.0967Z" fill="#181F1C" stroke="#89E26A"/>
<path d="M58.4188 152.857V182.843" stroke="#89E26A" stroke-width="1.01" stroke-miterlimit="10"/>
<path d="M58.419 152.857L55.6689 182.843" stroke="#89E26A" stroke-width="1.01" stroke-miterlimit="10"/>
<path d="M58.4188 152.857L52.9187 182.843" stroke="#89E26A" stroke-width="1.01" stroke-miterlimit="10"/>
<path d="M58.419 152.857L50.1688 182.843" stroke="#89E26A" stroke-width="1.01" stroke-miterlimit="10"/>
<path d="M58.4042 152.857L61.1542 182.843" stroke="#89E26A" stroke-width="1.01" stroke-miterlimit="10"/>
<path d="M58.4042 152.857L63.9043 182.843" stroke="#89E26A" stroke-width="1.01" stroke-miterlimit="10"/>
<path d="M58.4042 152.857L66.6592 182.843" stroke="#89E26A" stroke-width="1.01" stroke-miterlimit="10"/>
<path d="M62.6041 154.36C62.6041 156.645 60.7327 158.506 58.414 158.506C56.0953 158.506 54.2239 156.645 54.2239 154.36C54.2239 152.075 56.0953 150.215 58.414 150.215C60.7327 150.215 62.6041 152.075 62.6041 154.36Z" fill="#181F1C" stroke="#89E26A"/>
</svg>
