<svg width="210" height="210" viewBox="0 0 210 210" fill="none" xmlns="http://www.w3.org/2000/svg">
<rect width="210" height="210" fill="#181F1C"/>
<path fill-rule="evenodd" clip-rule="evenodd" d="M121.977 165.706C121.977 174.233 130.921 179.015 138.55 179.015C146.179 179.015 155.123 174.233 155.123 165.706C155.123 162.488 153.721 159.56 151.381 157.266L149.974 160.903L146.12 159.437L147.676 163.224L140.778 166.018C140.075 164.277 139.398 162.472 138.55 160.801C137.702 162.472 137.025 164.277 136.322 166.018L129.424 163.224L130.986 159.42L127.12 160.903L125.719 157.266C123.379 159.56 121.977 162.494 121.977 165.706M131.791 162.22L135.318 163.649C136.247 161.349 137.058 159.356 138.55 157.309C140.048 159.367 140.842 161.344 141.782 163.649L145.309 162.22C144.498 160.216 143.768 158.41 142.609 156.546C144.89 156.992 146.801 157.728 148.938 158.55L150.307 155.004C146.979 153.715 144.112 152.678 140.493 152.447C140.756 151.157 141.277 149.664 141.986 148.546L137.755 147.192C137.041 149.067 136.837 150.394 136.682 152.447C132.994 152.683 130.154 153.709 126.798 155.009L128.167 158.555C130.24 157.755 132.28 156.922 134.491 156.551C133.337 158.41 132.602 160.221 131.796 162.22H131.791Z" fill="#FF8540"/>
<path fill-rule="evenodd" clip-rule="evenodd" d="M165.591 165.706C165.591 174.233 174.535 179.015 182.164 179.015C189.792 179.015 198.736 174.233 198.736 165.706C198.736 162.488 197.335 159.56 194.995 157.266L193.588 160.903L189.733 159.437L191.29 163.224L184.392 166.018C183.689 164.277 183.012 162.472 182.164 160.801C181.316 162.472 180.639 164.277 179.936 166.018L173.037 163.224L174.6 159.42L170.734 160.903L169.333 157.266C166.992 159.56 165.591 162.494 165.591 165.706M175.405 162.22L178.932 163.649C179.861 161.349 180.671 159.356 182.164 157.309C183.662 159.367 184.456 161.344 185.396 163.649L188.923 162.22C188.112 160.216 187.382 158.41 186.222 156.546C188.504 156.992 190.415 157.728 192.552 158.55L193.921 155.004C190.592 153.715 187.726 152.678 184.107 152.447C184.37 151.157 184.891 149.664 185.6 148.546L181.369 147.192C180.655 149.067 180.451 150.394 180.296 152.447C176.607 152.683 173.768 153.709 170.412 155.009L171.781 158.555C173.853 157.755 175.893 156.922 178.105 156.551C176.951 158.41 176.216 160.221 175.41 162.22H175.405Z" fill="#FF8540"/>
<path fill-rule="evenodd" clip-rule="evenodd" d="M144.214 137.376C144.214 145.903 153.158 150.684 160.787 150.684C168.415 150.684 177.359 145.903 177.359 137.376C177.359 134.158 175.958 131.23 173.617 128.936L172.211 132.573L168.356 131.106L169.913 134.894L163.015 137.688C162.311 135.947 161.635 134.142 160.787 132.471C159.938 134.142 159.262 135.947 158.559 137.688L151.66 134.894L153.222 131.09L149.357 132.573L147.956 128.936C145.615 131.23 144.214 134.163 144.214 137.376M154.028 133.889L157.555 135.318C158.484 133.019 159.294 131.026 160.787 128.979C162.284 131.036 163.079 133.013 164.018 135.318L167.546 133.889C166.735 131.885 166.005 130.08 164.845 128.216C167.127 128.662 169.038 129.398 171.175 130.22L172.544 126.674C169.215 125.384 166.348 124.347 162.73 124.116C162.993 122.827 163.514 121.333 164.223 120.216L159.992 118.862C159.278 120.737 159.074 122.064 158.918 124.116C155.23 124.353 152.39 125.379 149.035 126.679L150.404 130.225C152.476 129.425 154.516 128.592 156.728 128.221C155.574 130.08 154.838 131.891 154.033 133.889H154.028Z" fill="#FF8540"/>
<path d="M12.0896 200.468H203.09V185.08H12.0896V200.468ZM191.559 190.851C192.337 190.851 193.035 191.318 193.335 192.038C193.631 192.758 193.47 193.585 192.917 194.133C192.364 194.681 191.542 194.848 190.823 194.552C190.104 194.257 189.637 193.553 189.637 192.774C189.637 191.71 190.496 190.851 191.559 190.851V190.851ZM23.6158 190.851C24.3942 190.851 25.0921 191.318 25.3927 192.038C25.688 192.758 25.527 193.585 24.974 194.133C24.421 194.681 23.5997 194.848 22.8803 194.552C22.1609 194.257 21.6938 193.553 21.6938 192.774C21.6938 191.71 22.5528 190.851 23.6158 190.851V190.851Z" fill="#FF8540"/>
<path d="M202.827 33.2211C202.634 33.0223 185.487 10.414 155.59 8.85059H155.316C129.456 10.2045 113.136 27.3004 109.077 32.0176C99.9452 28.0042 89.2565 25.0009 77.1237 24.3669H76.721C32.9678 26.6557 7.87004 59.7461 7.58551 60.0416L7.19897 60.5413L12.4333 65.6292L12.9218 65.2907C19.4016 60.7132 33.671 65.237 39.7482 67.1551C40.7145 67.4613 41.4929 67.7085 42.0298 67.8428C43.7907 68.5036 45.7555 68.2941 47.3392 67.2786C50.6892 73.4895 55.9449 72.2054 61.9952 70.7118C65.1197 69.8522 68.3193 69.3041 71.5512 69.0624C72.6517 68.9979 73.8381 68.9764 75.0514 68.9764V114.832H78.8094V68.9872C80.0227 68.9872 81.2091 69.0086 82.3096 69.0731C85.5415 69.3095 88.7411 69.8629 91.8656 70.7172C97.9105 72.2108 103.172 73.4948 106.522 67.284C108.1 68.2994 110.07 68.509 111.831 67.8481C112.368 67.7138 113.146 67.4667 114.113 67.1604C120.19 65.2424 134.459 60.7186 140.939 65.2961L141.428 65.6346L146.662 60.5466L146.275 60.047C146.093 59.8589 135.501 45.9168 116.179 35.4938C120.941 35.2037 127.013 37.1271 130.062 38.0888C130.723 38.2983 131.254 38.4649 131.619 38.5616C132.822 39.0129 134.164 38.8678 135.243 38.1748C137.535 42.4192 141.122 41.5381 145.255 40.5226C147.392 39.937 149.577 39.5609 151.783 39.3997C152.519 39.3567 153.308 39.3406 154.113 39.3406V113.151H156.798V39.3299C157.603 39.3299 158.392 39.346 159.127 39.389C161.334 39.5502 163.519 39.9262 165.656 40.5119C169.789 41.5327 173.381 42.4084 175.668 38.164C176.747 38.8571 178.094 39.0021 179.292 38.5455C179.662 38.4541 180.193 38.2822 180.848 38.0727C184.998 36.7617 194.747 33.6724 199.176 36.7993L199.509 37.0304L203.085 33.5542L202.822 33.2104L202.827 33.2211Z" fill="#FF8540"/>
<path fill-rule="evenodd" clip-rule="evenodd" d="M38.0141 144.382L32.3396 147.643L30.9116 145.183L37.1229 141.621L34.2293 132.637L27.7495 133.422C28.0931 131.198 28.7588 129.387 29.6124 127.308L26.6329 126.083C25.79 128.135 25.1297 129.865 24.7002 132.089C23.4977 128.114 21.871 124.858 19.7021 121.301L16.9535 122.983C19.219 126.701 20.7973 129.978 21.9462 134.169C19.0096 131.031 17.0286 127.969 15.0691 124.132L12.2077 125.599C14.1189 129.349 16.073 132.449 18.87 135.582C16.7387 134.776 14.8383 134.394 12.5942 134.04L12.0896 137.22C14.3981 137.586 16.3361 137.989 18.4888 138.913L14.7363 143.915L18.3171 147.88L23.8144 144.576L25.2424 147.036L20.2605 150.029L25.9779 156.352L31.2605 153.29L32.6724 155.751L27.9213 158.507L45.6427 178.107L48.3699 176.532L42.4592 158.179L39.0234 160.092L37.6114 157.631L41.5734 155.428L38.0248 144.398L38.0141 144.382Z" fill="#FF8540"/>
<path fill-rule="evenodd" clip-rule="evenodd" d="M69.13 144.382L63.4555 147.643L62.0275 145.183L68.2389 141.621L65.3453 132.637L58.8655 133.422C59.2091 131.198 59.8748 129.387 60.7283 127.308L57.7488 126.083C56.906 128.135 56.2456 129.865 55.8162 132.089C54.6136 128.114 52.987 124.858 50.8181 121.301L48.0694 122.983C50.3349 126.701 51.9133 129.978 53.0621 134.169C50.1256 131.031 48.1446 127.969 46.1851 124.132L43.3237 125.599C45.2349 129.349 47.189 132.449 49.986 135.582C47.8547 134.776 45.9542 134.394 43.7102 134.04L43.2056 137.22C45.514 137.586 47.452 137.989 49.6048 138.913L45.8522 143.915L49.433 147.88L54.9304 144.576L56.3584 147.036L51.3764 150.029L57.0939 156.352L62.3765 153.29L63.7884 155.751L59.0373 158.507L76.7587 178.107L79.4859 176.532L73.5752 158.179L70.1393 160.092L68.7274 157.631L72.6894 155.428L69.1408 144.398L69.13 144.382Z" fill="#FF8540"/>
<path fill-rule="evenodd" clip-rule="evenodd" d="M100.251 144.382L94.5769 147.643L93.1489 145.183L99.3602 141.621L96.4666 132.637L89.9868 133.422C90.3304 131.198 90.9961 129.387 91.8497 127.308L88.8702 126.083C88.0273 128.135 87.367 129.865 86.9375 132.089C85.735 128.114 84.1083 124.858 81.9394 121.301L79.1908 122.983C81.4563 126.701 83.0346 129.978 84.1835 134.169C81.2469 131.031 79.2659 127.969 77.3064 124.132L74.445 125.599C76.3562 129.349 78.3103 132.449 81.1073 135.582C78.976 134.776 77.0756 134.394 74.8315 134.04L74.3269 137.22C76.6354 137.586 78.5734 137.989 80.7262 138.913L76.9736 143.915L80.5544 147.88L86.0517 144.576L87.4797 147.036L82.4978 150.029L88.2152 156.352L93.4978 153.29L94.9097 155.751L90.1586 158.507L107.88 178.107L110.607 176.532L104.697 158.179L101.261 160.092L99.8487 157.631L103.811 155.428L100.262 144.398L100.251 144.382Z" fill="#FF8540"/>
</svg>
