<svg width="210" height="208" viewBox="0 0 210 208" fill="none" xmlns="http://www.w3.org/2000/svg">
<g clip-path="url(#clip0_832_12302)">
<path d="M210 0H0V208H210V0Z" fill="#208FDF"/>
<path d="M105.553 183.687C146.989 183.687 180.579 174.305 180.579 162.731C180.579 151.158 146.989 141.775 105.553 141.775C64.1178 141.775 30.5278 151.158 30.5278 162.731C30.5278 174.305 64.1178 183.687 105.553 183.687Z" fill="#208FDF" stroke="#181F1C" stroke-miterlimit="10"/>
<path d="M105.553 183.697C146.987 183.697 180.579 174.314 180.579 162.741V187.044C180.579 198.622 146.987 208 105.553 208C64.1192 208 30.5278 198.606 30.5278 187.033V162.73C30.5278 174.303 64.1192 183.697 105.553 183.697Z" fill="#208FDF" stroke="#181F1C" stroke-miterlimit="10"/>
<path d="M105.553 183.687V207.989" stroke="#181F1C" stroke-miterlimit="10"/>
<path d="M98.0486 183.581V207.884" stroke="#181F1C" stroke-miterlimit="10"/>
<path d="M90.5492 183.266V207.568" stroke="#181F1C" stroke-miterlimit="10"/>
<path d="M83.0447 182.729V207.026" stroke="#181F1C" stroke-miterlimit="10"/>
<path d="M75.5453 181.939V206.242" stroke="#181F1C" stroke-miterlimit="10"/>
<path d="M68.0405 180.882V205.185" stroke="#181F1C" stroke-miterlimit="10"/>
<path d="M60.5414 179.498V203.796" stroke="#181F1C" stroke-miterlimit="10"/>
<path d="M53.0366 177.692V201.995" stroke="#181F1C" stroke-miterlimit="10"/>
<path d="M45.5317 175.303V199.606" stroke="#181F1C" stroke-miterlimit="10"/>
<path d="M38.0327 171.872V196.175" stroke="#181F1C" stroke-miterlimit="10"/>
<path d="M173.074 171.872V196.175" stroke="#181F1C" stroke-miterlimit="10"/>
<path d="M165.575 175.303V199.606" stroke="#181F1C" stroke-miterlimit="10"/>
<path d="M158.07 177.692V201.995" stroke="#181F1C" stroke-miterlimit="10"/>
<path d="M150.565 179.498V203.796" stroke="#181F1C" stroke-miterlimit="10"/>
<path d="M143.066 180.882V205.185" stroke="#181F1C" stroke-miterlimit="10"/>
<path d="M135.561 181.939V206.242" stroke="#181F1C" stroke-miterlimit="10"/>
<path d="M128.062 182.729V207.026" stroke="#181F1C" stroke-miterlimit="10"/>
<path d="M120.557 183.266V207.568" stroke="#181F1C" stroke-miterlimit="10"/>
<path d="M113.058 183.581V207.884" stroke="#181F1C" stroke-miterlimit="10"/>
<path d="M76.13 155.547C117.565 155.547 151.155 146.165 151.155 134.592C151.155 123.018 117.565 113.636 76.13 113.636C34.6946 113.636 1.10461 123.018 1.10461 134.592C1.10461 146.165 34.6946 155.547 76.13 155.547Z" fill="#208FDF" stroke="#181F1C" stroke-miterlimit="10"/>
<path d="M76.13 155.548C117.564 155.548 151.15 146.164 151.15 134.592V158.895C151.15 170.472 117.564 179.85 76.13 179.85C34.696 179.85 1.10461 170.467 1.10461 158.895V134.592C1.10461 146.164 34.696 155.548 76.13 155.548Z" fill="#208FDF" stroke="#181F1C" stroke-miterlimit="10"/>
<path d="M76.1301 155.548V179.851" stroke="#181F1C" stroke-miterlimit="10"/>
<path d="M68.6252 155.442V179.745" stroke="#181F1C" stroke-miterlimit="10"/>
<path d="M61.1259 155.126V179.429" stroke="#181F1C" stroke-miterlimit="10"/>
<path d="M53.6213 154.59V178.887" stroke="#181F1C" stroke-miterlimit="10"/>
<path d="M46.1166 153.806V178.103" stroke="#181F1C" stroke-miterlimit="10"/>
<path d="M38.6172 152.742V177.045" stroke="#181F1C" stroke-miterlimit="10"/>
<path d="M31.1127 151.358V175.661" stroke="#181F1C" stroke-miterlimit="10"/>
<path d="M23.6133 149.559V173.856" stroke="#181F1C" stroke-miterlimit="10"/>
<path d="M16.1085 147.169V171.466" stroke="#181F1C" stroke-miterlimit="10"/>
<path d="M8.60938 143.738V168.036" stroke="#181F1C" stroke-miterlimit="10"/>
<path d="M143.651 143.738V168.036" stroke="#181F1C" stroke-miterlimit="10"/>
<path d="M136.146 147.169V171.466" stroke="#181F1C" stroke-miterlimit="10"/>
<path d="M128.647 149.559V173.856" stroke="#181F1C" stroke-miterlimit="10"/>
<path d="M121.142 151.358V175.661" stroke="#181F1C" stroke-miterlimit="10"/>
<path d="M113.643 152.742V177.045" stroke="#181F1C" stroke-miterlimit="10"/>
<path d="M106.138 153.806V178.103" stroke="#181F1C" stroke-miterlimit="10"/>
<path d="M98.6333 154.59V178.887" stroke="#181F1C" stroke-miterlimit="10"/>
<path d="M91.134 155.126V179.429" stroke="#181F1C" stroke-miterlimit="10"/>
<path d="M83.6292 155.442V179.745" stroke="#181F1C" stroke-miterlimit="10"/>
<path d="M105.553 127.409C146.989 127.409 180.579 118.026 180.579 106.453C180.579 94.8793 146.989 85.4971 105.553 85.4971C64.1178 85.4971 30.5278 94.8793 30.5278 106.453C30.5278 118.026 64.1178 127.409 105.553 127.409Z" fill="#208FDF" stroke="#181F1C" stroke-miterlimit="10"/>
<path d="M105.553 127.387C146.987 127.387 180.579 118.009 180.579 106.432V130.756C180.579 142.333 146.987 151.711 105.553 151.711C64.1192 151.711 30.5278 142.328 30.5278 130.756V106.453C30.5278 118.03 64.1192 127.387 105.553 127.387Z" fill="#208FDF" stroke="#181F1C" stroke-miterlimit="10"/>
<path d="M105.553 127.408V151.711" stroke="#181F1C" stroke-miterlimit="10"/>
<path d="M98.0486 127.308V151.605" stroke="#181F1C" stroke-miterlimit="10"/>
<path d="M90.5492 126.992V151.29" stroke="#181F1C" stroke-miterlimit="10"/>
<path d="M83.0447 126.45V150.753" stroke="#181F1C" stroke-miterlimit="10"/>
<path d="M75.5453 125.666V149.964" stroke="#181F1C" stroke-miterlimit="10"/>
<path d="M68.0405 124.608V148.906" stroke="#181F1C" stroke-miterlimit="10"/>
<path d="M60.5414 123.219V147.522" stroke="#181F1C" stroke-miterlimit="10"/>
<path d="M53.0366 121.419V145.716" stroke="#181F1C" stroke-miterlimit="10"/>
<path d="M45.5317 119.03V143.328" stroke="#181F1C" stroke-miterlimit="10"/>
<path d="M38.0327 115.599V139.901" stroke="#181F1C" stroke-miterlimit="10"/>
<path d="M173.074 115.599V139.901" stroke="#181F1C" stroke-miterlimit="10"/>
<path d="M165.575 119.03V143.328" stroke="#181F1C" stroke-miterlimit="10"/>
<path d="M158.07 121.419V145.716" stroke="#181F1C" stroke-miterlimit="10"/>
<path d="M150.565 123.219V147.522" stroke="#181F1C" stroke-miterlimit="10"/>
<path d="M143.066 124.608V148.906" stroke="#181F1C" stroke-miterlimit="10"/>
<path d="M135.561 125.666V149.964" stroke="#181F1C" stroke-miterlimit="10"/>
<path d="M128.062 126.45V150.753" stroke="#181F1C" stroke-miterlimit="10"/>
<path d="M120.557 126.992V151.29" stroke="#181F1C" stroke-miterlimit="10"/>
<path d="M113.058 127.308V151.605" stroke="#181F1C" stroke-miterlimit="10"/>
<path d="M105.553 99.2739C146.989 99.2739 180.579 89.8916 180.579 78.3181C180.579 66.7445 146.989 57.3623 105.553 57.3623C64.1178 57.3623 30.5278 66.7445 30.5278 78.3181C30.5278 89.8916 64.1178 99.2739 105.553 99.2739Z" fill="#208FDF" stroke="#181F1C" stroke-miterlimit="10"/>
<path d="M105.553 99.2741C146.987 99.2741 180.579 89.8909 180.579 78.3184V102.616C180.579 114.194 146.987 123.572 105.553 123.572C64.1192 123.572 30.5278 114.188 30.5278 102.616V78.3184C30.5278 89.8909 64.1192 99.2741 105.553 99.2741Z" fill="#208FDF" stroke="#181F1C" stroke-miterlimit="10"/>
<path d="M105.553 99.2744V123.572" stroke="#181F1C" stroke-miterlimit="10"/>
<path d="M98.0486 99.1689V123.472" stroke="#181F1C" stroke-miterlimit="10"/>
<path d="M90.5492 98.8535V123.156" stroke="#181F1C" stroke-miterlimit="10"/>
<path d="M83.0447 98.3105V122.613" stroke="#181F1C" stroke-miterlimit="10"/>
<path d="M75.5453 97.5273V121.83" stroke="#181F1C" stroke-miterlimit="10"/>
<path d="M68.0405 96.4688V120.766" stroke="#181F1C" stroke-miterlimit="10"/>
<path d="M60.5414 95.0801V119.383" stroke="#181F1C" stroke-miterlimit="10"/>
<path d="M53.0366 93.2803V117.583" stroke="#181F1C" stroke-miterlimit="10"/>
<path d="M45.5317 90.8906V115.193" stroke="#181F1C" stroke-miterlimit="10"/>
<path d="M38.0327 87.46V111.763" stroke="#181F1C" stroke-miterlimit="10"/>
<path d="M173.074 87.46V111.763" stroke="#181F1C" stroke-miterlimit="10"/>
<path d="M165.575 90.8906V115.193" stroke="#181F1C" stroke-miterlimit="10"/>
<path d="M158.07 93.2803V117.583" stroke="#181F1C" stroke-miterlimit="10"/>
<path d="M150.565 95.0801V119.383" stroke="#181F1C" stroke-miterlimit="10"/>
<path d="M143.066 96.4688V120.766" stroke="#181F1C" stroke-miterlimit="10"/>
<path d="M135.561 97.5273V121.83" stroke="#181F1C" stroke-miterlimit="10"/>
<path d="M128.062 98.3105V122.613" stroke="#181F1C" stroke-miterlimit="10"/>
<path d="M120.557 98.8535V123.156" stroke="#181F1C" stroke-miterlimit="10"/>
<path d="M113.058 99.1689V123.472" stroke="#181F1C" stroke-miterlimit="10"/>
<path d="M136.983 71.1352C178.418 71.1352 212.008 61.753 212.008 50.1794C212.008 38.6059 178.418 29.2236 136.983 29.2236C95.5474 29.2236 61.9574 38.6059 61.9574 50.1794C61.9574 61.753 95.5474 71.1352 136.983 71.1352Z" fill="#208FDF" stroke="#181F1C" stroke-miterlimit="10"/>
<path d="M136.983 71.1345C178.417 71.1345 212.008 61.7512 212.008 50.1787V74.4763C212.008 86.054 178.417 95.4373 136.983 95.4373C95.5488 95.4373 61.9574 86.054 61.9574 74.4763V50.1787C61.9574 61.7512 95.5488 71.1345 136.983 71.1345Z" fill="#208FDF" stroke="#181F1C" stroke-miterlimit="10"/>
<path d="M136.983 71.1348V95.4376" stroke="#181F1C" stroke-miterlimit="10"/>
<path d="M129.478 71.0293V95.3321" stroke="#181F1C" stroke-miterlimit="10"/>
<path d="M121.979 70.7139V95.0167" stroke="#181F1C" stroke-miterlimit="10"/>
<path d="M114.474 70.1719V94.4747" stroke="#181F1C" stroke-miterlimit="10"/>
<path d="M106.975 69.3877V93.6905" stroke="#181F1C" stroke-miterlimit="10"/>
<path d="M99.47 68.3301V92.6329" stroke="#181F1C" stroke-miterlimit="10"/>
<path d="M91.9655 66.9453V91.2429" stroke="#181F1C" stroke-miterlimit="10"/>
<path d="M84.4661 65.1406V89.4434" stroke="#181F1C" stroke-miterlimit="10"/>
<path d="M76.9615 62.751V87.0538" stroke="#181F1C" stroke-miterlimit="10"/>
<path d="M69.4622 59.3203V83.6231" stroke="#181F1C" stroke-miterlimit="10"/>
<path d="M204.503 59.3203V83.6231" stroke="#181F1C" stroke-miterlimit="10"/>
<path d="M196.999 62.751V87.0538" stroke="#181F1C" stroke-miterlimit="10"/>
<path d="M189.5 65.1406V89.4434" stroke="#181F1C" stroke-miterlimit="10"/>
<path d="M181.995 66.9453V91.2429" stroke="#181F1C" stroke-miterlimit="10"/>
<path d="M174.495 68.3301V92.6329" stroke="#181F1C" stroke-miterlimit="10"/>
<path d="M166.991 69.3877V93.6905" stroke="#181F1C" stroke-miterlimit="10"/>
<path d="M159.491 70.1719V94.4747" stroke="#181F1C" stroke-miterlimit="10"/>
<path d="M151.987 70.7139V95.0167" stroke="#181F1C" stroke-miterlimit="10"/>
<path d="M144.482 71.0293V95.3321" stroke="#181F1C" stroke-miterlimit="10"/>
<path d="M136.983 42.9956C178.418 42.9956 212.008 33.6133 212.008 22.0398C212.008 10.4662 178.418 1.08398 136.983 1.08398C95.5474 1.08398 61.9574 10.4662 61.9574 22.0398C61.9574 33.6133 95.5474 42.9956 136.983 42.9956Z" fill="#208FDF" stroke="#181F1C" stroke-miterlimit="10"/>
<path d="M136.983 42.9958C178.417 42.9958 212.008 33.6126 212.008 22.04V46.3429C212.008 57.9206 178.417 67.2986 136.983 67.2986C95.5488 67.2986 61.9574 57.9206 61.9574 46.3429V22.04C61.9574 33.6126 95.5488 42.9958 136.983 42.9958Z" fill="#208FDF" stroke="#181F1C" stroke-miterlimit="10"/>
<path d="M136.983 42.9951V67.2979" stroke="#181F1C" stroke-miterlimit="10"/>
<path d="M129.478 42.8906V67.1934" stroke="#181F1C" stroke-miterlimit="10"/>
<path d="M121.979 42.5742V66.877" stroke="#181F1C" stroke-miterlimit="10"/>
<path d="M114.474 42.0381V66.3356" stroke="#181F1C" stroke-miterlimit="10"/>
<path d="M106.975 41.248V65.5509" stroke="#181F1C" stroke-miterlimit="10"/>
<path d="M99.47 40.1904V64.4932" stroke="#181F1C" stroke-miterlimit="10"/>
<path d="M91.9655 38.8066V63.1095" stroke="#181F1C" stroke-miterlimit="10"/>
<path d="M84.4661 37.002V61.3048" stroke="#181F1C" stroke-miterlimit="10"/>
<path d="M76.9615 34.6172V58.9147" stroke="#181F1C" stroke-miterlimit="10"/>
<path d="M69.4622 31.1865V55.4841" stroke="#181F1C" stroke-miterlimit="10"/>
<path d="M204.503 31.1865V55.4841" stroke="#181F1C" stroke-miterlimit="10"/>
<path d="M196.999 34.6172V58.9147" stroke="#181F1C" stroke-miterlimit="10"/>
<path d="M189.5 37.002V61.3048" stroke="#181F1C" stroke-miterlimit="10"/>
<path d="M181.995 38.8066V63.1095" stroke="#181F1C" stroke-miterlimit="10"/>
<path d="M174.495 40.1904V64.4932" stroke="#181F1C" stroke-miterlimit="10"/>
<path d="M166.991 41.248V65.5509" stroke="#181F1C" stroke-miterlimit="10"/>
<path d="M159.491 42.0381V66.3356" stroke="#181F1C" stroke-miterlimit="10"/>
<path d="M151.987 42.5742V66.877" stroke="#181F1C" stroke-miterlimit="10"/>
<path d="M144.482 42.8906V67.1934" stroke="#181F1C" stroke-miterlimit="10"/>
</g>
<rect x="0.5" y="0.5" width="209" height="207" stroke="#181F1C"/>
<defs>
<clipPath id="clip0_832_12302">
<rect width="210" height="208" fill="white"/>
</clipPath>
</defs>
</svg>
