<svg width="101" height="101" viewBox="0 0 101 101" fill="none" xmlns="http://www.w3.org/2000/svg">
<g clip-path="url(#clip0_832_12190)">
<path d="M101 0H0V101H101V0Z" fill="#FFB930"/>
<path d="M49.766 88.1941C69.6944 88.1941 85.8496 83.6383 85.8496 78.0184C85.8496 72.3986 69.6944 67.8428 49.766 67.8428C29.8376 67.8428 13.6824 72.3986 13.6824 78.0184C13.6824 83.6383 29.8376 88.1941 49.766 88.1941Z" fill="#FFB930" stroke="#FFFEF5" stroke-width="0.5" stroke-miterlimit="10"/>
<path d="M49.766 88.1993C69.6938 88.1993 85.8496 83.643 85.8496 78.0237V89.8245C85.8496 95.4464 69.6938 100 49.766 100C29.8382 100 13.6824 95.4388 13.6824 89.8194V78.0186C13.6824 83.6379 29.8382 88.1993 49.766 88.1993Z" fill="#FFB930" stroke="#FFFEF5" stroke-width="0.5" stroke-miterlimit="10"/>
<path d="M49.7661 88.1943V99.9952" stroke="#FFFEF5" stroke-width="0.5" stroke-miterlimit="10"/>
<path d="M46.1567 88.1426V99.9435" stroke="#FFFEF5" stroke-width="0.5" stroke-miterlimit="10"/>
<path d="M42.5498 87.9893V99.7901" stroke="#FFFEF5" stroke-width="0.5" stroke-miterlimit="10"/>
<path d="M38.9404 87.7285V99.5268" stroke="#FFFEF5" stroke-width="0.5" stroke-miterlimit="10"/>
<path d="M35.3337 87.3457V99.1466" stroke="#FFFEF5" stroke-width="0.5" stroke-miterlimit="10"/>
<path d="M31.7241 86.832V98.6329" stroke="#FFFEF5" stroke-width="0.5" stroke-miterlimit="10"/>
<path d="M28.1174 86.1602V97.9585" stroke="#FFFEF5" stroke-width="0.5" stroke-miterlimit="10"/>
<path d="M24.5081 85.2832V97.0841" stroke="#FFFEF5" stroke-width="0.5" stroke-miterlimit="10"/>
<path d="M20.8987 84.123V95.9239" stroke="#FFFEF5" stroke-width="0.5" stroke-miterlimit="10"/>
<path d="M17.292 82.457V94.2579" stroke="#FFFEF5" stroke-width="0.5" stroke-miterlimit="10"/>
<path d="M82.2402 82.457V94.2579" stroke="#FFFEF5" stroke-width="0.5" stroke-miterlimit="10"/>
<path d="M78.6335 84.123V95.9239" stroke="#FFFEF5" stroke-width="0.5" stroke-miterlimit="10"/>
<path d="M75.0239 85.2832V97.0841" stroke="#FFFEF5" stroke-width="0.5" stroke-miterlimit="10"/>
<path d="M71.4148 86.1602V97.9585" stroke="#FFFEF5" stroke-width="0.5" stroke-miterlimit="10"/>
<path d="M67.8079 86.832V98.6329" stroke="#FFFEF5" stroke-width="0.5" stroke-miterlimit="10"/>
<path d="M64.1985 87.3457V99.1466" stroke="#FFFEF5" stroke-width="0.5" stroke-miterlimit="10"/>
<path d="M60.5918 87.7285V99.5268" stroke="#FFFEF5" stroke-width="0.5" stroke-miterlimit="10"/>
<path d="M56.9822 87.9893V99.7901" stroke="#FFFEF5" stroke-width="0.5" stroke-miterlimit="10"/>
<path d="M53.3755 88.1426V99.9435" stroke="#FFFEF5" stroke-width="0.5" stroke-miterlimit="10"/>
<path d="M35.6149 74.53C55.5433 74.53 71.6985 69.9742 71.6985 64.3544C71.6985 58.7345 55.5433 54.1787 35.6149 54.1787C15.6864 54.1787 -0.46875 58.7345 -0.46875 64.3544C-0.46875 69.9742 15.6864 74.53 35.6149 74.53Z" fill="#FFB930" stroke="#FFFEF5" stroke-width="0.5" stroke-miterlimit="10"/>
<path d="M35.6149 74.5301C55.5427 74.5301 71.6959 69.9738 71.6959 64.3545V76.1554C71.6959 81.7773 55.5427 86.331 35.6149 86.331C15.6871 86.331 -0.46875 81.7747 -0.46875 76.1554V64.3545C-0.46875 69.9738 15.6871 74.5301 35.6149 74.5301Z" fill="#FFB930" stroke="#FFFEF5" stroke-width="0.5" stroke-miterlimit="10"/>
<path d="M35.615 74.5303V86.3312" stroke="#FFFEF5" stroke-width="0.5" stroke-miterlimit="10"/>
<path d="M32.0054 74.4795V86.2804" stroke="#FFFEF5" stroke-width="0.5" stroke-miterlimit="10"/>
<path d="M28.3987 74.3262V86.1271" stroke="#FFFEF5" stroke-width="0.5" stroke-miterlimit="10"/>
<path d="M24.7893 74.0654V85.8638" stroke="#FFFEF5" stroke-width="0.5" stroke-miterlimit="10"/>
<path d="M21.1799 73.6846V85.4829" stroke="#FFFEF5" stroke-width="0.5" stroke-miterlimit="10"/>
<path d="M17.573 73.168V84.9689" stroke="#FFFEF5" stroke-width="0.5" stroke-miterlimit="10"/>
<path d="M13.9636 72.4961V84.297" stroke="#FFFEF5" stroke-width="0.5" stroke-miterlimit="10"/>
<path d="M10.3569 71.6221V83.4204" stroke="#FFFEF5" stroke-width="0.5" stroke-miterlimit="10"/>
<path d="M6.74731 70.4619V82.2602" stroke="#FFFEF5" stroke-width="0.5" stroke-miterlimit="10"/>
<path d="M3.14062 68.7959V80.5942" stroke="#FFFEF5" stroke-width="0.5" stroke-miterlimit="10"/>
<path d="M68.0891 68.7959V80.5942" stroke="#FFFEF5" stroke-width="0.5" stroke-miterlimit="10"/>
<path d="M64.4797 70.4619V82.2602" stroke="#FFFEF5" stroke-width="0.5" stroke-miterlimit="10"/>
<path d="M60.8728 71.6221V83.4204" stroke="#FFFEF5" stroke-width="0.5" stroke-miterlimit="10"/>
<path d="M57.2634 72.4961V84.297" stroke="#FFFEF5" stroke-width="0.5" stroke-miterlimit="10"/>
<path d="M53.6567 73.168V84.9689" stroke="#FFFEF5" stroke-width="0.5" stroke-miterlimit="10"/>
<path d="M50.0474 73.6846V85.4829" stroke="#FFFEF5" stroke-width="0.5" stroke-miterlimit="10"/>
<path d="M46.438 74.0654V85.8638" stroke="#FFFEF5" stroke-width="0.5" stroke-miterlimit="10"/>
<path d="M42.8311 74.3262V86.1271" stroke="#FFFEF5" stroke-width="0.5" stroke-miterlimit="10"/>
<path d="M39.2217 74.4795V86.2804" stroke="#FFFEF5" stroke-width="0.5" stroke-miterlimit="10"/>
<path d="M49.766 60.8669C69.6944 60.8669 85.8496 56.3111 85.8496 50.6913C85.8496 45.0714 69.6944 40.5156 49.766 40.5156C29.8376 40.5156 13.6824 45.0714 13.6824 50.6913C13.6824 56.3111 29.8376 60.8669 49.766 60.8669Z" fill="#FFB930" stroke="#FFFEF5" stroke-width="0.5" stroke-miterlimit="10"/>
<path d="M49.766 60.8563C69.6938 60.8563 85.8496 56.3026 85.8496 50.6807V62.4918C85.8496 68.1137 69.6938 72.6674 49.766 72.6674C29.8382 72.6674 13.6824 68.1111 13.6824 62.4918V50.6909C13.6824 56.3128 29.8382 60.8563 49.766 60.8563Z" fill="#FFB930" stroke="#FFFEF5" stroke-width="0.5" stroke-miterlimit="10"/>
<path d="M49.7661 60.8662V72.6671" stroke="#FFFEF5" stroke-width="0.5" stroke-miterlimit="10"/>
<path d="M46.1567 60.8174V72.6157" stroke="#FFFEF5" stroke-width="0.5" stroke-miterlimit="10"/>
<path d="M42.5498 60.665V72.4634" stroke="#FFFEF5" stroke-width="0.5" stroke-miterlimit="10"/>
<path d="M38.9404 60.4014V72.2022" stroke="#FFFEF5" stroke-width="0.5" stroke-miterlimit="10"/>
<path d="M35.3337 60.0205V71.8188" stroke="#FFFEF5" stroke-width="0.5" stroke-miterlimit="10"/>
<path d="M31.7241 59.5068V71.3052" stroke="#FFFEF5" stroke-width="0.5" stroke-miterlimit="10"/>
<path d="M28.1174 58.832V70.6329" stroke="#FFFEF5" stroke-width="0.5" stroke-miterlimit="10"/>
<path d="M24.5081 57.958V69.7563" stroke="#FFFEF5" stroke-width="0.5" stroke-miterlimit="10"/>
<path d="M20.8987 56.7979V68.5962" stroke="#FFFEF5" stroke-width="0.5" stroke-miterlimit="10"/>
<path d="M17.292 55.1318V66.9327" stroke="#FFFEF5" stroke-width="0.5" stroke-miterlimit="10"/>
<path d="M82.2402 55.1318V66.9327" stroke="#FFFEF5" stroke-width="0.5" stroke-miterlimit="10"/>
<path d="M78.6335 56.7979V68.5962" stroke="#FFFEF5" stroke-width="0.5" stroke-miterlimit="10"/>
<path d="M75.0239 57.958V69.7563" stroke="#FFFEF5" stroke-width="0.5" stroke-miterlimit="10"/>
<path d="M71.4148 58.832V70.6329" stroke="#FFFEF5" stroke-width="0.5" stroke-miterlimit="10"/>
<path d="M67.8079 59.5068V71.3052" stroke="#FFFEF5" stroke-width="0.5" stroke-miterlimit="10"/>
<path d="M64.1985 60.0205V71.8188" stroke="#FFFEF5" stroke-width="0.5" stroke-miterlimit="10"/>
<path d="M60.5918 60.4014V72.2022" stroke="#FFFEF5" stroke-width="0.5" stroke-miterlimit="10"/>
<path d="M56.9822 60.665V72.4634" stroke="#FFFEF5" stroke-width="0.5" stroke-miterlimit="10"/>
<path d="M53.3755 60.8174V72.6157" stroke="#FFFEF5" stroke-width="0.5" stroke-miterlimit="10"/>
<path d="M49.766 47.2048C69.6944 47.2048 85.8496 42.649 85.8496 37.0292C85.8496 31.4093 69.6944 26.8535 49.766 26.8535C29.8376 26.8535 13.6824 31.4093 13.6824 37.0292C13.6824 42.649 29.8376 47.2048 49.766 47.2048Z" fill="#FFB930" stroke="#FFFEF5" stroke-width="0.5" stroke-miterlimit="10"/>
<path d="M49.766 47.2049C69.6938 47.2049 85.8496 42.6486 85.8496 37.0293V48.8276C85.8496 54.4495 69.6938 59.0033 49.766 59.0033C29.8382 59.0033 13.6824 54.447 13.6824 48.8276V37.0293C13.6824 42.6486 29.8382 47.2049 49.766 47.2049Z" fill="#FFB930" stroke="#FFFEF5" stroke-width="0.5" stroke-miterlimit="10"/>
<path d="M49.7661 47.2051V59.0034" stroke="#FFFEF5" stroke-width="0.5" stroke-miterlimit="10"/>
<path d="M46.1567 47.1543V58.9552" stroke="#FFFEF5" stroke-width="0.5" stroke-miterlimit="10"/>
<path d="M42.5498 47.001V58.8019" stroke="#FFFEF5" stroke-width="0.5" stroke-miterlimit="10"/>
<path d="M38.9404 46.7373V58.5382" stroke="#FFFEF5" stroke-width="0.5" stroke-miterlimit="10"/>
<path d="M35.3337 46.3564V58.1573" stroke="#FFFEF5" stroke-width="0.5" stroke-miterlimit="10"/>
<path d="M31.7241 45.8428V57.6411" stroke="#FFFEF5" stroke-width="0.5" stroke-miterlimit="10"/>
<path d="M28.1174 45.1689V56.9698" stroke="#FFFEF5" stroke-width="0.5" stroke-miterlimit="10"/>
<path d="M24.5081 44.2949V56.0958" stroke="#FFFEF5" stroke-width="0.5" stroke-miterlimit="10"/>
<path d="M20.8987 43.1348V54.9357" stroke="#FFFEF5" stroke-width="0.5" stroke-miterlimit="10"/>
<path d="M17.292 41.4688V53.2696" stroke="#FFFEF5" stroke-width="0.5" stroke-miterlimit="10"/>
<path d="M82.2402 41.4688V53.2696" stroke="#FFFEF5" stroke-width="0.5" stroke-miterlimit="10"/>
<path d="M78.6335 43.1348V54.9357" stroke="#FFFEF5" stroke-width="0.5" stroke-miterlimit="10"/>
<path d="M75.0239 44.2949V56.0958" stroke="#FFFEF5" stroke-width="0.5" stroke-miterlimit="10"/>
<path d="M71.4148 45.1689V56.9698" stroke="#FFFEF5" stroke-width="0.5" stroke-miterlimit="10"/>
<path d="M67.8079 45.8428V57.6411" stroke="#FFFEF5" stroke-width="0.5" stroke-miterlimit="10"/>
<path d="M64.1985 46.3564V58.1573" stroke="#FFFEF5" stroke-width="0.5" stroke-miterlimit="10"/>
<path d="M60.5918 46.7373V58.5382" stroke="#FFFEF5" stroke-width="0.5" stroke-miterlimit="10"/>
<path d="M56.9822 47.001V58.8019" stroke="#FFFEF5" stroke-width="0.5" stroke-miterlimit="10"/>
<path d="M53.3755 47.1543V58.9552" stroke="#FFFEF5" stroke-width="0.5" stroke-miterlimit="10"/>
<path d="M64.8822 33.5417C84.8106 33.5417 100.966 28.9859 100.966 23.3661C100.966 17.7462 84.8106 13.1904 64.8822 13.1904C44.9538 13.1904 28.7986 17.7462 28.7986 23.3661C28.7986 28.9859 44.9538 33.5417 64.8822 33.5417Z" fill="#FFB930" stroke="#FFFEF5" stroke-width="0.5" stroke-miterlimit="10"/>
<path d="M64.8822 33.5419C84.81 33.5419 100.966 28.9856 100.966 23.3662V35.1645C100.966 40.7864 84.81 45.3427 64.8822 45.3427C44.9544 45.3427 28.7986 40.7864 28.7986 35.1645V23.3662C28.7986 28.9856 44.9544 33.5419 64.8822 33.5419Z" fill="#FFB930" stroke="#FFFEF5" stroke-width="0.5" stroke-miterlimit="10"/>
<path d="M64.8823 33.541V45.3419" stroke="#FFFEF5" stroke-width="0.5" stroke-miterlimit="10"/>
<path d="M61.2727 33.4902V45.2911" stroke="#FFFEF5" stroke-width="0.5" stroke-miterlimit="10"/>
<path d="M57.666 33.3369V45.1378" stroke="#FFFEF5" stroke-width="0.5" stroke-miterlimit="10"/>
<path d="M54.0566 33.0742V44.8751" stroke="#FFFEF5" stroke-width="0.5" stroke-miterlimit="10"/>
<path d="M50.4497 32.6934V44.4942" stroke="#FFFEF5" stroke-width="0.5" stroke-miterlimit="10"/>
<path d="M46.8403 32.1797V43.9806" stroke="#FFFEF5" stroke-width="0.5" stroke-miterlimit="10"/>
<path d="M43.231 31.5068V43.3052" stroke="#FFFEF5" stroke-width="0.5" stroke-miterlimit="10"/>
<path d="M39.624 30.6309V42.4317" stroke="#FFFEF5" stroke-width="0.5" stroke-miterlimit="10"/>
<path d="M36.0149 29.4707V41.2716" stroke="#FFFEF5" stroke-width="0.5" stroke-miterlimit="10"/>
<path d="M32.408 27.8047V39.6056" stroke="#FFFEF5" stroke-width="0.5" stroke-miterlimit="10"/>
<path d="M97.3564 27.8047V39.6056" stroke="#FFFEF5" stroke-width="0.5" stroke-miterlimit="10"/>
<path d="M93.7471 29.4707V41.2716" stroke="#FFFEF5" stroke-width="0.5" stroke-miterlimit="10"/>
<path d="M90.1401 30.6309V42.4317" stroke="#FFFEF5" stroke-width="0.5" stroke-miterlimit="10"/>
<path d="M86.5308 31.5068V43.3052" stroke="#FFFEF5" stroke-width="0.5" stroke-miterlimit="10"/>
<path d="M82.9241 32.1797V43.9806" stroke="#FFFEF5" stroke-width="0.5" stroke-miterlimit="10"/>
<path d="M79.3147 32.6934V44.4942" stroke="#FFFEF5" stroke-width="0.5" stroke-miterlimit="10"/>
<path d="M75.7078 33.0742V44.8751" stroke="#FFFEF5" stroke-width="0.5" stroke-miterlimit="10"/>
<path d="M72.0984 33.3369V45.1378" stroke="#FFFEF5" stroke-width="0.5" stroke-miterlimit="10"/>
<path d="M68.489 33.4902V45.2911" stroke="#FFFEF5" stroke-width="0.5" stroke-miterlimit="10"/>
<path d="M64.8822 19.8777C84.8106 19.8777 100.966 15.3219 100.966 9.70201C100.966 4.08216 84.8106 -0.473633 64.8822 -0.473633C44.9538 -0.473633 28.7986 4.08216 28.7986 9.70201C28.7986 15.3219 44.9538 19.8777 64.8822 19.8777Z" fill="#FFB930" stroke="#FFFEF5" stroke-width="0.5" stroke-miterlimit="10"/>
<path d="M64.8822 19.8778C84.81 19.8778 100.966 15.3215 100.966 9.70215V21.503C100.966 27.1249 84.81 31.6787 64.8822 31.6787C44.9544 31.6787 28.7986 27.1249 28.7986 21.503V9.70215C28.7986 15.3215 44.9544 19.8778 64.8822 19.8778Z" fill="#FFB930" stroke="#FFFEF5" stroke-width="0.5" stroke-miterlimit="10"/>
<path d="M64.8823 19.8779V31.6788" stroke="#FFFEF5" stroke-width="0.5" stroke-miterlimit="10"/>
<path d="M61.2727 19.8262V31.6271" stroke="#FFFEF5" stroke-width="0.5" stroke-miterlimit="10"/>
<path d="M57.666 19.6729V31.4737" stroke="#FFFEF5" stroke-width="0.5" stroke-miterlimit="10"/>
<path d="M54.0566 19.4131V31.2114" stroke="#FFFEF5" stroke-width="0.5" stroke-miterlimit="10"/>
<path d="M50.4497 19.0293V30.8302" stroke="#FFFEF5" stroke-width="0.5" stroke-miterlimit="10"/>
<path d="M46.8403 18.5156V30.3165" stroke="#FFFEF5" stroke-width="0.5" stroke-miterlimit="10"/>
<path d="M43.231 17.8438V29.6446" stroke="#FFFEF5" stroke-width="0.5" stroke-miterlimit="10"/>
<path d="M39.624 16.9668V28.7677" stroke="#FFFEF5" stroke-width="0.5" stroke-miterlimit="10"/>
<path d="M36.0149 15.8096V27.6079" stroke="#FFFEF5" stroke-width="0.5" stroke-miterlimit="10"/>
<path d="M32.408 14.1436V25.9419" stroke="#FFFEF5" stroke-width="0.5" stroke-miterlimit="10"/>
<path d="M97.3564 14.1436V25.9419" stroke="#FFFEF5" stroke-width="0.5" stroke-miterlimit="10"/>
<path d="M93.7471 15.8096V27.6079" stroke="#FFFEF5" stroke-width="0.5" stroke-miterlimit="10"/>
<path d="M90.1401 16.9668V28.7677" stroke="#FFFEF5" stroke-width="0.5" stroke-miterlimit="10"/>
<path d="M86.5308 17.8438V29.6446" stroke="#FFFEF5" stroke-width="0.5" stroke-miterlimit="10"/>
<path d="M82.9241 18.5156V30.3165" stroke="#FFFEF5" stroke-width="0.5" stroke-miterlimit="10"/>
<path d="M79.3147 19.0293V30.8302" stroke="#FFFEF5" stroke-width="0.5" stroke-miterlimit="10"/>
<path d="M75.7078 19.4131V31.2114" stroke="#FFFEF5" stroke-width="0.5" stroke-miterlimit="10"/>
<path d="M72.0984 19.6729V31.4737" stroke="#FFFEF5" stroke-width="0.5" stroke-miterlimit="10"/>
<path d="M68.489 19.8262V31.6271" stroke="#FFFEF5" stroke-width="0.5" stroke-miterlimit="10"/>
</g>
<defs>
<clipPath id="clip0_832_12190">
<rect width="101" height="101" fill="white"/>
</clipPath>
</defs>
</svg>
