<svg width="25" height="25" viewBox="0 0 25 25" fill="none" xmlns="http://www.w3.org/2000/svg">
<rect width="25" height="25" fill="#89E26A"/>
<path d="M9.13987 13.2452L8.8031 14.9192H16.2022L15.8654 13.2452H14.1888V12.4083H15.6977L15.5293 11.5713H9.47796L9.30957 12.4083H10.8185V13.2452H9.14119H9.13987ZM11.6597 12.4083H12.5023V13.2452H11.6597V12.4083Z" fill="#181F1C"/>
<path d="M10.4513 10.7343H11.238V9.89733H12.0806V10.7343H12.9231V9.89733H13.7657V10.7343H14.5524L14.2367 8.22272H10.767L10.4513 10.7343Z" fill="#181F1C"/>
<path d="M9.55284 19.5236C9.55284 19.7549 9.36406 19.9424 9.13122 19.9424C8.89837 19.9424 8.70959 19.7549 8.70959 19.5236C8.70959 19.2923 8.89837 19.1048 9.13122 19.1048C9.36406 19.1048 9.55284 19.2923 9.55284 19.5236Z" fill="#181F1C"/>
<path d="M7.79533 15.7568L6.68701 21.6163H18.3161L17.2078 15.7568H7.79533ZM9.13123 20.7794C8.79578 20.7794 8.47413 20.6474 8.23734 20.4115C8.00055 20.1763 7.86703 19.8568 7.86703 19.5236C7.86703 19.1903 7.99989 18.8708 8.23734 18.6356C8.47413 18.4004 8.79578 18.2678 9.13123 18.2678C9.46669 18.2678 9.78833 18.3998 10.0251 18.6356C10.2619 18.8708 10.3954 19.1903 10.3954 19.5236C10.3954 19.8568 10.2626 20.1763 10.0251 20.4115C9.78833 20.6467 9.46669 20.7794 9.13123 20.7794V20.7794ZM12.5022 20.7794C12.1668 20.7794 11.8451 20.6474 11.6083 20.4115C11.3715 20.1756 11.238 19.8568 11.238 19.5236C11.238 19.1903 11.3709 18.8708 11.6083 18.6356C11.8451 18.4004 12.1668 18.2678 12.5022 18.2678C12.8377 18.2678 13.1593 18.3998 13.3961 18.6356C13.6329 18.8715 13.7664 19.1903 13.7664 19.5236C13.7664 19.8568 13.6336 20.1763 13.3961 20.4115C13.1587 20.6467 12.8377 20.7794 12.5022 20.7794ZM15.8732 20.7794C15.5378 20.7794 15.2161 20.6474 14.9793 20.4115C14.7425 20.1763 14.609 19.8568 14.609 19.5236C14.609 19.1903 14.7419 18.8708 14.9793 18.6356C15.2161 18.4004 15.5378 18.2678 15.8732 18.2678C16.2087 18.2678 16.5303 18.3998 16.7671 18.6356C17.0039 18.8708 17.1374 19.1903 17.1374 19.5236C17.1374 19.8568 17.0046 20.1763 16.7671 20.4115C16.5303 20.6467 16.2087 20.7794 15.8732 20.7794Z" fill="#181F1C"/>
<path d="M12.9232 19.5236C12.9232 19.7549 12.7344 19.9424 12.5016 19.9424C12.2687 19.9424 12.08 19.7549 12.08 19.5236C12.08 19.2923 12.2687 19.1048 12.5016 19.1048C12.7344 19.1048 12.9232 19.2923 12.9232 19.5236Z" fill="#181F1C"/>
<path d="M16.2942 19.5236C16.2942 19.7549 16.1054 19.9424 15.8725 19.9424C15.6397 19.9424 15.4509 19.7549 15.4509 19.5236C15.4509 19.2923 15.6397 19.1048 15.8725 19.1048C16.1054 19.1048 16.2942 19.2923 16.2942 19.5236Z" fill="#181F1C"/>
<path d="M24.163 15.2067C23.8025 12.9421 23.1941 10.9911 22.3555 9.40733C21.2866 7.38839 19.0667 4.69973 17.8492 5.1192C17.0895 5.3812 17.1684 6.22472 17.2256 6.8402C17.2565 7.17408 17.2921 7.55173 17.1842 7.68959C17.073 7.83138 16.7382 7.87973 16.414 7.92612C15.868 8.00452 15.1202 8.11168 15.0175 8.84542C14.8952 9.71899 15.9075 10.0738 16.8007 10.3867C17.3388 10.5749 17.9478 10.7886 18.0215 11.0414C18.0958 11.2976 17.9314 11.4694 17.5637 11.7752C17.2355 12.0483 16.8277 12.3881 16.9948 12.9121C17.2033 13.5654 18.1136 13.6615 19.2653 13.7824C19.804 13.8386 20.4138 13.9032 21.0307 14.0293C22.3134 14.2933 23.6164 14.5978 24.163 15.2061" fill="#181F1C"/>
<path d="M22.6225 16.0673L22.3179 15.9163C22.1186 15.8183 21.1557 15.3185 20.8149 15.3185C20.3992 15.3185 20.0612 15.6543 20.0612 16.0673C20.0612 16.4802 20.3992 16.8167 20.8149 16.8167C21.1557 16.8167 22.4232 16.1653 22.6225 16.0673Z" fill="#181F1C"/>
<path d="M23.0625 8.11758L23.152 7.80395C23.2092 7.59879 23.5131 6.6037 23.4519 6.28354C23.3776 5.89282 22.9968 5.63473 22.6028 5.70922C22.2088 5.7837 21.9496 6.16201 22.0239 6.55273C22.0851 6.87289 22.933 7.94835 23.0625 8.11823" fill="#181F1C"/>
<path d="M0.840942 15.2068C1.38754 14.5985 2.69055 14.2933 3.97317 14.03C4.58949 13.9033 5.19989 13.8392 5.73859 13.783C6.89098 13.6622 7.80065 13.5661 8.00916 12.9127C8.17623 12.3887 7.76842 12.049 7.4402 11.7759C7.07252 11.4701 6.90808 11.2976 6.98241 11.0421C7.05608 10.7899 7.66516 10.5762 8.2032 10.3874C9.09643 10.0745 10.1087 9.71966 9.98638 8.8461C9.88377 8.11235 9.1359 8.00454 8.58996 7.92679C8.26569 7.8804 7.93089 7.83205 7.81973 7.69027C7.71186 7.5524 7.74738 7.1741 7.77829 6.84087C7.83552 6.22539 7.91445 5.38187 7.15474 5.11987C5.93723 4.7004 3.71731 7.38906 2.64845 9.408C1.80982 10.9905 1.20139 12.9421 0.840942 15.2068Z" fill="#181F1C"/>
<path d="M2.38208 16.0673C2.58138 16.1653 3.84888 16.8167 4.18959 16.8167C4.60529 16.8167 4.94338 16.4802 4.94338 16.0673C4.94338 15.6543 4.60529 15.3185 4.18959 15.3185C3.84888 15.3185 2.88658 15.819 2.68662 15.9163L2.38208 16.0673" fill="#181F1C"/>
<path d="M1.94131 8.11757C2.07023 7.94769 2.91873 6.87222 2.9799 6.55207C3.05423 6.16135 2.79507 5.78304 2.40108 5.70855C2.00774 5.63472 1.6269 5.89215 1.55192 6.28287C1.49074 6.60303 1.79463 7.59813 1.85185 7.80329L1.94131 8.11691" fill="#181F1C"/>
<path d="M0.874512 0.957825H3.45554L2.16503 3.31261L0.874512 0.957825Z" fill="#181F1C"/>
<path d="M3.45886 0.957825H6.0399L4.74938 3.31261L3.45886 0.957825Z" fill="#181F1C"/>
<path d="M6.04321 0.957825H8.62425L7.33373 3.31261L6.04321 0.957825Z" fill="#181F1C"/>
<path d="M8.62744 0.957825H11.2085L9.91796 3.31261L8.62744 0.957825Z" fill="#181F1C"/>
<path d="M11.2118 0.957825H13.7928L12.5023 3.31261L11.2118 0.957825Z" fill="#181F1C"/>
<path d="M13.7961 0.957825H16.3772L15.0867 3.31261L13.7961 0.957825Z" fill="#181F1C"/>
<path d="M16.3805 0.957825H18.9615L17.671 3.31261L16.3805 0.957825Z" fill="#181F1C"/>
<path d="M18.9647 0.957825H21.5458L20.2552 3.31261L18.9647 0.957825Z" fill="#181F1C"/>
<path d="M21.5491 0.957825H24.1301L22.8396 3.31261L21.5491 0.957825Z" fill="#181F1C"/>
<path d="M12.5023 6.441V4.48608L14.3105 5.46354L12.5023 6.441Z" fill="#181F1C"/>
<path d="M12.5681 4.48608H12.4365V9.19957H12.5681V4.48608Z" fill="#181F1C"/>
<path d="M0.938965 21.2146V19.2596L2.74713 20.2371L0.938965 21.2146Z" fill="#181F1C"/>
<path d="M1.00472 19.2596H0.873169V23.9738H1.00472V19.2596Z" fill="#181F1C"/>
<path d="M4.0896 21.2146V19.2596L5.89711 20.2371L4.0896 21.2146Z" fill="#181F1C"/>
<path d="M4.15535 19.2596H4.0238V23.9738H4.15535V19.2596Z" fill="#181F1C"/>
<path d="M19.1068 21.2146V19.2596L20.915 20.2371L19.1068 21.2146Z" fill="#181F1C"/>
<path d="M19.1726 19.2596H19.041V23.9738H19.1726V19.2596Z" fill="#181F1C"/>
<path d="M22.2576 21.2146V19.2596L24.0651 20.2371L22.2576 21.2146Z" fill="#181F1C"/>
<path d="M22.3233 19.2596H22.1918V23.9738H22.3233V19.2596Z" fill="#181F1C"/>
</svg>
