<svg width="25" height="25" viewBox="0 0 25 25" fill="none" xmlns="http://www.w3.org/2000/svg">
<g clip-path="url(#clip0_1364_184851)">
<rect width="25" height="25" fill="#4A4E5E"/>
<path d="M12.3817 22.0152C17.2685 22.0152 21.23 20.8873 21.23 19.4959C21.23 18.1046 17.2685 16.9767 12.3817 16.9767C7.49491 16.9767 3.53339 18.1046 3.53339 19.4959C3.53339 20.8873 7.49491 22.0152 12.3817 22.0152Z" fill="#4A4E5E" stroke="#FFFEF5" stroke-width="0.2" stroke-miterlimit="10"/>
<path d="M12.3817 22.0164C17.2683 22.0164 21.23 20.8884 21.23 19.4972V22.4188C21.23 23.8106 17.2683 24.938 12.3817 24.938C7.49507 24.938 3.53339 23.8087 3.53339 22.4175V19.4959C3.53339 20.8871 7.49507 22.0164 12.3817 22.0164Z" fill="#4A4E5E" stroke="#FFFEF5" stroke-width="0.2" stroke-miterlimit="10"/>
<path d="M12.3817 22.0151V24.9367" stroke="#FFFEF5" stroke-width="0.2" stroke-miterlimit="10"/>
<path d="M11.4966 22.0025V24.9241" stroke="#FFFEF5" stroke-width="0.2" stroke-miterlimit="10"/>
<path d="M10.6122 21.9645V24.8861" stroke="#FFFEF5" stroke-width="0.2" stroke-miterlimit="10"/>
<path d="M9.72711 21.9V24.821" stroke="#FFFEF5" stroke-width="0.2" stroke-miterlimit="10"/>
<path d="M8.84265 21.8051V24.7267" stroke="#FFFEF5" stroke-width="0.2" stroke-miterlimit="10"/>
<path d="M7.95758 21.678V24.5996" stroke="#FFFEF5" stroke-width="0.2" stroke-miterlimit="10"/>
<path d="M7.07312 21.5116V24.4326" stroke="#FFFEF5" stroke-width="0.2" stroke-miterlimit="10"/>
<path d="M6.18805 21.2946V24.2162" stroke="#FFFEF5" stroke-width="0.2" stroke-miterlimit="10"/>
<path d="M5.30292 21.0073V23.9289" stroke="#FFFEF5" stroke-width="0.2" stroke-miterlimit="10"/>
<path d="M4.41852 20.5948V23.5165" stroke="#FFFEF5" stroke-width="0.2" stroke-miterlimit="10"/>
<path d="M20.345 20.5948V23.5165" stroke="#FFFEF5" stroke-width="0.2" stroke-miterlimit="10"/>
<path d="M19.4605 21.0073V23.9289" stroke="#FFFEF5" stroke-width="0.2" stroke-miterlimit="10"/>
<path d="M18.5754 21.2946V24.2162" stroke="#FFFEF5" stroke-width="0.2" stroke-miterlimit="10"/>
<path d="M17.6903 21.5116V24.4326" stroke="#FFFEF5" stroke-width="0.2" stroke-miterlimit="10"/>
<path d="M16.8059 21.678V24.5996" stroke="#FFFEF5" stroke-width="0.2" stroke-miterlimit="10"/>
<path d="M15.9208 21.8051V24.7267" stroke="#FFFEF5" stroke-width="0.2" stroke-miterlimit="10"/>
<path d="M15.0363 21.9V24.821" stroke="#FFFEF5" stroke-width="0.2" stroke-miterlimit="10"/>
<path d="M14.1512 21.9645V24.8861" stroke="#FFFEF5" stroke-width="0.2" stroke-miterlimit="10"/>
<path d="M13.2668 22.0025V24.9241" stroke="#FFFEF5" stroke-width="0.2" stroke-miterlimit="10"/>
<path d="M8.91161 18.6323C13.7984 18.6323 17.7599 17.5044 17.7599 16.1131C17.7599 14.7218 13.7984 13.5939 8.91161 13.5939C4.02482 13.5939 0.0632935 14.7218 0.0632935 16.1131C0.0632935 17.5044 4.02482 18.6323 8.91161 18.6323Z" fill="#4A4E5E" stroke="#FFFEF5" stroke-width="0.2" stroke-miterlimit="10"/>
<path d="M8.91161 18.6323C13.7982 18.6323 17.7593 17.5043 17.7593 16.1131V19.0347C17.7593 20.4265 13.7982 21.5539 8.91161 21.5539C4.02498 21.5539 0.0632935 20.4259 0.0632935 19.0347V16.1131C0.0632935 17.5043 4.02498 18.6323 8.91161 18.6323Z" fill="#4A4E5E" stroke="#FFFEF5" stroke-width="0.2" stroke-miterlimit="10"/>
<path d="M8.91162 18.6323V21.5539" stroke="#FFFEF5" stroke-width="0.2" stroke-miterlimit="10"/>
<path d="M8.02655 18.6197V21.5413" stroke="#FFFEF5" stroke-width="0.2" stroke-miterlimit="10"/>
<path d="M7.14209 18.5817V21.5033" stroke="#FFFEF5" stroke-width="0.2" stroke-miterlimit="10"/>
<path d="M6.25696 18.5172V21.4382" stroke="#FFFEF5" stroke-width="0.2" stroke-miterlimit="10"/>
<path d="M5.37189 18.423V21.3439" stroke="#FFFEF5" stroke-width="0.2" stroke-miterlimit="10"/>
<path d="M4.48743 18.2952V21.2168" stroke="#FFFEF5" stroke-width="0.2" stroke-miterlimit="10"/>
<path d="M3.60236 18.1288V21.0504" stroke="#FFFEF5" stroke-width="0.2" stroke-miterlimit="10"/>
<path d="M2.7179 17.9124V20.8334" stroke="#FFFEF5" stroke-width="0.2" stroke-miterlimit="10"/>
<path d="M1.83282 17.6252V20.5462" stroke="#FFFEF5" stroke-width="0.2" stroke-miterlimit="10"/>
<path d="M0.948364 17.2126V20.1336" stroke="#FFFEF5" stroke-width="0.2" stroke-miterlimit="10"/>
<path d="M16.8748 17.2126V20.1336" stroke="#FFFEF5" stroke-width="0.2" stroke-miterlimit="10"/>
<path d="M15.9897 17.6252V20.5462" stroke="#FFFEF5" stroke-width="0.2" stroke-miterlimit="10"/>
<path d="M15.1053 17.9124V20.8334" stroke="#FFFEF5" stroke-width="0.2" stroke-miterlimit="10"/>
<path d="M14.2202 18.1288V21.0504" stroke="#FFFEF5" stroke-width="0.2" stroke-miterlimit="10"/>
<path d="M13.3358 18.2952V21.2168" stroke="#FFFEF5" stroke-width="0.2" stroke-miterlimit="10"/>
<path d="M12.4507 18.423V21.3439" stroke="#FFFEF5" stroke-width="0.2" stroke-miterlimit="10"/>
<path d="M11.5656 18.5172V21.4382" stroke="#FFFEF5" stroke-width="0.2" stroke-miterlimit="10"/>
<path d="M10.6812 18.5817V21.5033" stroke="#FFFEF5" stroke-width="0.2" stroke-miterlimit="10"/>
<path d="M9.79608 18.6197V21.5413" stroke="#FFFEF5" stroke-width="0.2" stroke-miterlimit="10"/>
<path d="M12.3817 15.2495C17.2685 15.2495 21.23 14.1216 21.23 12.7303C21.23 11.339 17.2685 10.2111 12.3817 10.2111C7.49491 10.2111 3.53339 11.339 3.53339 12.7303C3.53339 14.1216 7.49491 15.2495 12.3817 15.2495Z" fill="#4A4E5E" stroke="#FFFEF5" stroke-width="0.2" stroke-miterlimit="10"/>
<path d="M12.3817 15.247C17.2683 15.247 21.23 14.1196 21.23 12.7278V15.6519C21.23 17.0438 17.2683 18.1711 12.3817 18.1711C7.49507 18.1711 3.53339 17.0431 3.53339 15.6519V12.7303C3.53339 14.1222 7.49507 15.247 12.3817 15.247Z" fill="#4A4E5E" stroke="#FFFEF5" stroke-width="0.2" stroke-miterlimit="10"/>
<path d="M12.3817 15.2496V18.1712" stroke="#FFFEF5" stroke-width="0.2" stroke-miterlimit="10"/>
<path d="M11.4966 15.2375V18.1585" stroke="#FFFEF5" stroke-width="0.2" stroke-miterlimit="10"/>
<path d="M10.6122 15.1996V18.1206" stroke="#FFFEF5" stroke-width="0.2" stroke-miterlimit="10"/>
<path d="M9.72711 15.1344V18.056" stroke="#FFFEF5" stroke-width="0.2" stroke-miterlimit="10"/>
<path d="M8.84265 15.0402V17.9611" stroke="#FFFEF5" stroke-width="0.2" stroke-miterlimit="10"/>
<path d="M7.95758 14.913V17.8339" stroke="#FFFEF5" stroke-width="0.2" stroke-miterlimit="10"/>
<path d="M7.07312 14.746V17.6676" stroke="#FFFEF5" stroke-width="0.2" stroke-miterlimit="10"/>
<path d="M6.18805 14.5296V17.4506" stroke="#FFFEF5" stroke-width="0.2" stroke-miterlimit="10"/>
<path d="M5.30292 14.2424V17.1633" stroke="#FFFEF5" stroke-width="0.2" stroke-miterlimit="10"/>
<path d="M4.41852 13.8299V16.7515" stroke="#FFFEF5" stroke-width="0.2" stroke-miterlimit="10"/>
<path d="M20.345 13.8299V16.7515" stroke="#FFFEF5" stroke-width="0.2" stroke-miterlimit="10"/>
<path d="M19.4605 14.2424V17.1633" stroke="#FFFEF5" stroke-width="0.2" stroke-miterlimit="10"/>
<path d="M18.5754 14.5296V17.4506" stroke="#FFFEF5" stroke-width="0.2" stroke-miterlimit="10"/>
<path d="M17.6903 14.746V17.6676" stroke="#FFFEF5" stroke-width="0.2" stroke-miterlimit="10"/>
<path d="M16.8059 14.913V17.8339" stroke="#FFFEF5" stroke-width="0.2" stroke-miterlimit="10"/>
<path d="M15.9208 15.0402V17.9611" stroke="#FFFEF5" stroke-width="0.2" stroke-miterlimit="10"/>
<path d="M15.0363 15.1344V18.056" stroke="#FFFEF5" stroke-width="0.2" stroke-miterlimit="10"/>
<path d="M14.1512 15.1996V18.1206" stroke="#FFFEF5" stroke-width="0.2" stroke-miterlimit="10"/>
<path d="M13.2668 15.2375V18.1585" stroke="#FFFEF5" stroke-width="0.2" stroke-miterlimit="10"/>
<path d="M12.3817 11.8674C17.2685 11.8674 21.23 10.7395 21.23 9.34815C21.23 7.95682 17.2685 6.82892 12.3817 6.82892C7.49491 6.82892 3.53339 7.95682 3.53339 9.34815C3.53339 10.7395 7.49491 11.8674 12.3817 11.8674Z" fill="#4A4E5E" stroke="#FFFEF5" stroke-width="0.2" stroke-miterlimit="10"/>
<path d="M12.3817 11.8674C17.2683 11.8674 21.23 10.7394 21.23 9.34814V12.2691C21.23 13.661 17.2683 14.7883 12.3817 14.7883C7.49507 14.7883 3.53339 13.6603 3.53339 12.2691V9.34814C3.53339 10.7394 7.49507 11.8674 12.3817 11.8674Z" fill="#4A4E5E" stroke="#FFFEF5" stroke-width="0.2" stroke-miterlimit="10"/>
<path d="M12.3817 11.8674V14.7883" stroke="#FFFEF5" stroke-width="0.2" stroke-miterlimit="10"/>
<path d="M11.4966 11.8547V14.7763" stroke="#FFFEF5" stroke-width="0.2" stroke-miterlimit="10"/>
<path d="M10.6122 11.8168V14.7384" stroke="#FFFEF5" stroke-width="0.2" stroke-miterlimit="10"/>
<path d="M9.72711 11.7516V14.6732" stroke="#FFFEF5" stroke-width="0.2" stroke-miterlimit="10"/>
<path d="M8.84265 11.6573V14.579" stroke="#FFFEF5" stroke-width="0.2" stroke-miterlimit="10"/>
<path d="M7.95758 11.5302V14.4511" stroke="#FFFEF5" stroke-width="0.2" stroke-miterlimit="10"/>
<path d="M7.07312 11.3632V14.2848" stroke="#FFFEF5" stroke-width="0.2" stroke-miterlimit="10"/>
<path d="M6.18805 11.1468V14.0684" stroke="#FFFEF5" stroke-width="0.2" stroke-miterlimit="10"/>
<path d="M5.30292 10.8596V13.7812" stroke="#FFFEF5" stroke-width="0.2" stroke-miterlimit="10"/>
<path d="M4.41852 10.4471V13.3687" stroke="#FFFEF5" stroke-width="0.2" stroke-miterlimit="10"/>
<path d="M20.345 10.4471V13.3687" stroke="#FFFEF5" stroke-width="0.2" stroke-miterlimit="10"/>
<path d="M19.4605 10.8596V13.7812" stroke="#FFFEF5" stroke-width="0.2" stroke-miterlimit="10"/>
<path d="M18.5754 11.1468V14.0684" stroke="#FFFEF5" stroke-width="0.2" stroke-miterlimit="10"/>
<path d="M17.6903 11.3632V14.2848" stroke="#FFFEF5" stroke-width="0.2" stroke-miterlimit="10"/>
<path d="M16.8059 11.5302V14.4511" stroke="#FFFEF5" stroke-width="0.2" stroke-miterlimit="10"/>
<path d="M15.9208 11.6573V14.579" stroke="#FFFEF5" stroke-width="0.2" stroke-miterlimit="10"/>
<path d="M15.0363 11.7516V14.6732" stroke="#FFFEF5" stroke-width="0.2" stroke-miterlimit="10"/>
<path d="M14.1512 11.8168V14.7384" stroke="#FFFEF5" stroke-width="0.2" stroke-miterlimit="10"/>
<path d="M13.2668 11.8547V14.7763" stroke="#FFFEF5" stroke-width="0.2" stroke-miterlimit="10"/>
<path d="M16.0884 8.48457C20.9752 8.48457 24.9367 7.35667 24.9367 5.96534C24.9367 4.574 20.9752 3.44611 16.0884 3.44611C11.2016 3.44611 7.24011 4.574 7.24011 5.96534C7.24011 7.35667 11.2016 8.48457 16.0884 8.48457Z" fill="#4A4E5E" stroke="#FFFEF5" stroke-width="0.2" stroke-miterlimit="10"/>
<path d="M16.0884 8.48456C20.9751 8.48456 24.9367 7.35654 24.9367 5.96533V8.8863C24.9367 10.2781 20.9751 11.4062 16.0884 11.4062C11.2018 11.4062 7.24011 10.2781 7.24011 8.8863V5.96533C7.24011 7.35654 11.2018 8.48456 16.0884 8.48456Z" fill="#4A4E5E" stroke="#FFFEF5" stroke-width="0.2" stroke-miterlimit="10"/>
<path d="M16.0884 8.48456V11.4062" stroke="#FFFEF5" stroke-width="0.2" stroke-miterlimit="10"/>
<path d="M15.2034 8.47192V11.3935" stroke="#FFFEF5" stroke-width="0.2" stroke-miterlimit="10"/>
<path d="M14.3189 8.43396V11.3556" stroke="#FFFEF5" stroke-width="0.2" stroke-miterlimit="10"/>
<path d="M13.4338 8.36877V11.2904" stroke="#FFFEF5" stroke-width="0.2" stroke-miterlimit="10"/>
<path d="M12.5494 8.27454V11.1961" stroke="#FFFEF5" stroke-width="0.2" stroke-miterlimit="10"/>
<path d="M11.6643 8.14734V11.0689" stroke="#FFFEF5" stroke-width="0.2" stroke-miterlimit="10"/>
<path d="M10.7792 7.98096V10.9019" stroke="#FFFEF5" stroke-width="0.2" stroke-miterlimit="10"/>
<path d="M9.89478 7.76398V10.6856" stroke="#FFFEF5" stroke-width="0.2" stroke-miterlimit="10"/>
<path d="M9.00964 7.47675V10.3983" stroke="#FFFEF5" stroke-width="0.2" stroke-miterlimit="10"/>
<path d="M8.12524 7.06427V9.98587" stroke="#FFFEF5" stroke-width="0.2" stroke-miterlimit="10"/>
<path d="M24.0516 7.06427V9.98587" stroke="#FFFEF5" stroke-width="0.2" stroke-miterlimit="10"/>
<path d="M23.1666 7.47675V10.3983" stroke="#FFFEF5" stroke-width="0.2" stroke-miterlimit="10"/>
<path d="M22.2822 7.76398V10.6856" stroke="#FFFEF5" stroke-width="0.2" stroke-miterlimit="10"/>
<path d="M21.397 7.98096V10.9019" stroke="#FFFEF5" stroke-width="0.2" stroke-miterlimit="10"/>
<path d="M20.5126 8.14734V11.0689" stroke="#FFFEF5" stroke-width="0.2" stroke-miterlimit="10"/>
<path d="M19.6275 8.27454V11.1961" stroke="#FFFEF5" stroke-width="0.2" stroke-miterlimit="10"/>
<path d="M18.743 8.36877V11.2904" stroke="#FFFEF5" stroke-width="0.2" stroke-miterlimit="10"/>
<path d="M17.858 8.43396V11.3556" stroke="#FFFEF5" stroke-width="0.2" stroke-miterlimit="10"/>
<path d="M16.9729 8.47192V11.3935" stroke="#FFFEF5" stroke-width="0.2" stroke-miterlimit="10"/>
<path d="M16.0884 5.10176C20.9752 5.10176 24.9367 3.97386 24.9367 2.58253C24.9367 1.19119 20.9752 0.0632935 16.0884 0.0632935C11.2016 0.0632935 7.24011 1.19119 7.24011 2.58253C7.24011 3.97386 11.2016 5.10176 16.0884 5.10176Z" fill="#4A4E5E" stroke="#FFFEF5" stroke-width="0.2" stroke-miterlimit="10"/>
<path d="M16.0884 5.10175C20.9751 5.10175 24.9367 3.97373 24.9367 2.58252V5.50412C24.9367 6.89596 20.9751 8.02335 16.0884 8.02335C11.2018 8.02335 7.24011 6.89596 7.24011 5.50412V2.58252C7.24011 3.97373 11.2018 5.10175 16.0884 5.10175Z" fill="#4A4E5E" stroke="#FFFEF5" stroke-width="0.2" stroke-miterlimit="10"/>
<path d="M16.0884 5.10175V8.02335" stroke="#FFFEF5" stroke-width="0.2" stroke-miterlimit="10"/>
<path d="M15.2034 5.08911V8.01071" stroke="#FFFEF5" stroke-width="0.2" stroke-miterlimit="10"/>
<path d="M14.3189 5.05115V7.97275" stroke="#FFFEF5" stroke-width="0.2" stroke-miterlimit="10"/>
<path d="M13.4338 4.98663V7.9076" stroke="#FFFEF5" stroke-width="0.2" stroke-miterlimit="10"/>
<path d="M12.5494 4.89172V7.81332" stroke="#FFFEF5" stroke-width="0.2" stroke-miterlimit="10"/>
<path d="M11.6643 4.76453V7.68613" stroke="#FFFEF5" stroke-width="0.2" stroke-miterlimit="10"/>
<path d="M10.7792 4.59814V7.51975" stroke="#FFFEF5" stroke-width="0.2" stroke-miterlimit="10"/>
<path d="M9.89478 4.38116V7.30277" stroke="#FFFEF5" stroke-width="0.2" stroke-miterlimit="10"/>
<path d="M9.00964 4.09454V7.01551" stroke="#FFFEF5" stroke-width="0.2" stroke-miterlimit="10"/>
<path d="M8.12524 3.68207V6.60304" stroke="#FFFEF5" stroke-width="0.2" stroke-miterlimit="10"/>
<path d="M24.0516 3.68207V6.60304" stroke="#FFFEF5" stroke-width="0.2" stroke-miterlimit="10"/>
<path d="M23.1666 4.09454V7.01551" stroke="#FFFEF5" stroke-width="0.2" stroke-miterlimit="10"/>
<path d="M22.2822 4.38116V7.30277" stroke="#FFFEF5" stroke-width="0.2" stroke-miterlimit="10"/>
<path d="M21.397 4.59814V7.51975" stroke="#FFFEF5" stroke-width="0.2" stroke-miterlimit="10"/>
<path d="M20.5126 4.76453V7.68613" stroke="#FFFEF5" stroke-width="0.2" stroke-miterlimit="10"/>
<path d="M19.6275 4.89172V7.81332" stroke="#FFFEF5" stroke-width="0.2" stroke-miterlimit="10"/>
<path d="M18.743 4.98663V7.9076" stroke="#FFFEF5" stroke-width="0.2" stroke-miterlimit="10"/>
<path d="M17.858 5.05115V7.97275" stroke="#FFFEF5" stroke-width="0.2" stroke-miterlimit="10"/>
<path d="M16.9729 5.08911V8.01071" stroke="#FFFEF5" stroke-width="0.2" stroke-miterlimit="10"/>
</g>
<defs>
<clipPath id="clip0_1364_184851">
<rect width="25" height="25" fill="white"/>
</clipPath>
</defs>
</svg>
