<svg width="25" height="25" viewBox="0 0 25 25" fill="none" xmlns="http://www.w3.org/2000/svg">
<rect width="25" height="25" fill="#FF8540"/>
<path fill-rule="evenodd" clip-rule="evenodd" d="M14.5211 19.727C14.5211 20.742 15.5859 21.3113 16.494 21.3113C17.4022 21.3113 18.467 20.742 18.467 19.727C18.467 19.3438 18.3002 18.9953 18.0215 18.7222L17.8541 19.1552L17.3952 18.9806L17.5805 19.4315L16.7593 19.7641C16.6755 19.5568 16.595 19.3419 16.494 19.143C16.3931 19.3419 16.3125 19.5568 16.2288 19.7641L15.4076 19.4315L15.5935 18.9786L15.1334 19.1552L14.9666 18.7222C14.6879 18.9953 14.5211 19.3445 14.5211 19.727M15.6894 19.3119L16.1093 19.482C16.2199 19.2083 16.3164 18.971 16.494 18.7273C16.6724 18.9722 16.7669 19.2076 16.8788 19.482L17.2987 19.3119C17.2022 19.0733 17.1153 18.8584 16.9772 18.6364C17.2488 18.6895 17.4763 18.7772 17.7307 18.875L17.8937 18.4529C17.4974 18.2994 17.1562 18.1759 16.7254 18.1484C16.7567 17.9949 16.8187 17.8171 16.9031 17.6841L16.3995 17.5229C16.3145 17.7461 16.2902 17.9041 16.2716 18.1484C15.8326 18.1766 15.4945 18.2987 15.095 18.4535L15.258 18.8757C15.5047 18.7804 15.7476 18.6812 16.0109 18.6371C15.8735 18.8584 15.7859 19.0739 15.69 19.3119H15.6894Z" fill="#181F1C"/>
<path fill-rule="evenodd" clip-rule="evenodd" d="M19.7132 19.727C19.7132 20.742 20.7779 21.3113 21.6861 21.3113C22.5943 21.3113 23.659 20.742 23.659 19.727C23.659 19.3438 23.4922 18.9953 23.2136 18.7222L23.0461 19.1552L22.5873 18.9806L22.7726 19.4315L21.9513 19.7641C21.8676 19.5568 21.7871 19.3419 21.6861 19.143C21.5851 19.3419 21.5046 19.5568 21.4209 19.7641L20.5996 19.4315L20.7856 18.9786L20.3255 19.1552L20.1587 18.7222C19.88 18.9953 19.7132 19.3445 19.7132 19.727M20.8815 19.3119L21.3014 19.482C21.4119 19.2083 21.5084 18.971 21.6861 18.7273C21.8644 18.9722 21.959 19.2076 22.0709 19.482L22.4908 19.3119C22.3942 19.0733 22.3073 18.8584 22.1693 18.6364C22.4409 18.6895 22.6684 18.7772 22.9228 18.875L23.0858 18.4529C22.6895 18.2994 22.3482 18.1759 21.9175 18.1484C21.9488 17.9949 22.0108 17.8171 22.0951 17.6841L21.5915 17.5229C21.5065 17.7461 21.4822 17.9041 21.4637 18.1484C21.0246 18.1766 20.6866 18.2987 20.2871 18.4535L20.4501 18.8757C20.6968 18.7804 20.9396 18.6812 21.203 18.6371C21.0655 18.8584 20.978 19.0739 20.8821 19.3119H20.8815Z" fill="#181F1C"/>
<path fill-rule="evenodd" clip-rule="evenodd" d="M17.1683 16.3543C17.1683 17.3693 18.2331 17.9386 19.1413 17.9386C20.0494 17.9386 21.1142 17.3693 21.1142 16.3543C21.1142 15.9712 20.9474 15.6226 20.6687 15.3495L20.5013 15.7825L20.0424 15.6079L20.2277 16.0588L19.4065 16.3914C19.3228 16.1842 19.2422 15.9692 19.1413 15.7703C19.0403 15.9692 18.9598 16.1842 18.876 16.3914L18.0548 16.0588L18.2408 15.606L17.7806 15.7825L17.6138 15.3495C17.3351 15.6226 17.1683 15.9718 17.1683 16.3543M18.3366 15.9392L18.7565 16.1093C18.8671 15.8356 18.9636 15.5983 19.1413 15.3546C19.3196 15.5996 19.4142 15.8349 19.526 16.1093L19.9459 15.9392C19.8494 15.7006 19.7625 15.4857 19.6244 15.2638C19.896 15.3168 20.1236 15.4045 20.3779 15.5023L20.5409 15.0802C20.1447 14.9267 19.8034 14.8032 19.3726 14.7757C19.4039 14.6222 19.4659 14.4444 19.5503 14.3114L19.0467 14.1502C18.9617 14.3734 18.9374 14.5314 18.9188 14.7757C18.4798 14.8039 18.1417 14.9261 17.7423 15.0808L17.9052 15.503C18.1519 15.4077 18.3948 15.3085 18.6581 15.2644C18.5207 15.4857 18.4331 15.7013 18.3373 15.9392H18.3366Z" fill="#181F1C"/>
<path d="M1.43921 23.8652H24.1774V22.0334H1.43921V23.8652ZM22.8046 22.7203C22.8972 22.7203 22.9803 22.776 23.0161 22.8617C23.0513 22.9474 23.0321 23.0459 22.9663 23.1111C22.9004 23.1764 22.8026 23.1962 22.717 23.161C22.6314 23.1258 22.5758 23.042 22.5758 22.9493C22.5758 22.8227 22.678 22.7203 22.8046 22.7203V22.7203ZM2.81137 22.7203C2.90404 22.7203 2.98713 22.776 3.02292 22.8617C3.05807 22.9474 3.03889 23.0459 2.97307 23.1111C2.90724 23.1764 2.80945 23.1962 2.72381 23.161C2.63817 23.1258 2.58257 23.042 2.58257 22.9493C2.58257 22.8227 2.68483 22.7203 2.81137 22.7203V22.7203Z" fill="#181F1C"/>
<path d="M24.1461 3.9549C24.123 3.93124 22.0817 1.23978 18.5225 1.05365H18.49C15.4114 1.21483 13.4685 3.25006 12.9853 3.81163C11.8982 3.33385 10.6257 2.97631 9.18136 2.90083H9.13343C3.92471 3.17331 0.936883 7.11264 0.90301 7.14782L0.856995 7.2073L1.48012 7.81301L1.53828 7.77272C2.30968 7.22777 4.00843 7.76632 4.7319 7.99466C4.84694 8.03112 4.93961 8.06054 5.00352 8.07653C5.21315 8.1552 5.44706 8.13026 5.6356 8.00937C6.0344 8.74876 6.66009 8.59589 7.38036 8.41808C7.75232 8.31574 8.13323 8.2505 8.51797 8.22172C8.64899 8.21404 8.79023 8.21149 8.93467 8.21149V13.6705H9.38204V8.21277C9.52648 8.21277 9.66772 8.21532 9.79874 8.223C10.1835 8.25114 10.5644 8.31702 10.9364 8.41872C11.656 8.59653 12.2823 8.7494 12.6811 8.01001C12.869 8.1309 13.1036 8.15584 13.3132 8.07717C13.3771 8.06118 13.4698 8.03176 13.5848 7.9953C14.3083 7.76696 16.007 7.22841 16.7784 7.77336L16.8366 7.81365L17.4597 7.20794L17.4137 7.14846C17.392 7.12607 16.131 5.4663 13.8309 4.22546C14.3978 4.19092 15.1206 4.4199 15.4836 4.53439C15.5622 4.55933 15.6255 4.57916 15.6689 4.59067C15.8121 4.6444 15.9719 4.62713 16.1003 4.54462C16.3732 5.04991 16.8002 4.94502 17.2923 4.82413C17.5466 4.75441 17.8067 4.70964 18.0694 4.69045C18.157 4.68534 18.2509 4.68342 18.3468 4.68342V13.4703H18.6663V4.68214C18.7622 4.68214 18.8562 4.68406 18.9437 4.68917C19.2064 4.70836 19.4665 4.75313 19.7209 4.82285C20.213 4.94438 20.6405 5.04863 20.9128 4.54334C21.0413 4.62585 21.2017 4.64312 21.3442 4.58876C21.3883 4.57788 21.4516 4.55741 21.5295 4.53247C22.0236 4.37641 23.1842 4.00863 23.7115 4.38088L23.7511 4.40839L24.1767 3.99456L24.1454 3.95363L24.1461 3.9549Z" fill="#181F1C"/>
<path fill-rule="evenodd" clip-rule="evenodd" d="M4.52546 17.1884L3.84992 17.5766L3.67992 17.2837L4.41937 16.8596L4.07489 15.7902L3.30348 15.8836C3.34439 15.6188 3.42364 15.4032 3.52525 15.1557L3.17055 15.0099C3.07021 15.2542 2.9916 15.4601 2.94047 15.7249C2.79731 15.2516 2.60366 14.864 2.34546 14.4406L2.01824 14.6408C2.28794 15.0834 2.47584 15.4736 2.61261 15.9725C2.26302 15.5989 2.02719 15.2344 1.79391 14.7777L1.45327 14.9523C1.68079 15.3987 1.91343 15.7678 2.2464 16.1407C1.99268 16.0447 1.76643 15.9993 1.49929 15.9571L1.43921 16.3358C1.71403 16.3793 1.94474 16.4272 2.20102 16.5372L1.75429 17.1327L2.18057 17.6047L2.83502 17.2114L3.00502 17.5043L2.41193 17.8606L3.09258 18.6134L3.72146 18.2488L3.88955 18.5418L3.32394 18.8699L5.43363 21.2032L5.75829 21.0158L5.05464 18.8309L4.64561 19.0586L4.47752 18.7656L4.94918 18.5034L4.52673 17.1903L4.52546 17.1884Z" fill="#181F1C"/>
<path fill-rule="evenodd" clip-rule="evenodd" d="M8.22974 17.1884L7.55421 17.5766L7.3842 17.2837L8.12365 16.8596L7.77917 15.7902L7.00777 15.8836C7.04867 15.6188 7.12792 15.4032 7.22954 15.1557L6.87483 15.0099C6.77449 15.2542 6.69588 15.4601 6.64476 15.7249C6.5016 15.2516 6.30795 14.864 6.04975 14.4406L5.72252 14.6408C5.99223 15.0834 6.18013 15.4736 6.31689 15.9725C5.9673 15.5989 5.73147 15.2344 5.4982 14.7777L5.15755 14.9523C5.38508 15.3987 5.61771 15.7678 5.95069 16.1407C5.69696 16.0447 5.47072 15.9993 5.20357 15.9571L5.14349 16.3358C5.41831 16.3793 5.64903 16.4272 5.90531 16.5372L5.45857 17.1327L5.88486 17.6047L6.5393 17.2114L6.70931 17.5043L6.11621 17.8606L6.79686 18.6134L7.42574 18.2488L7.59383 18.5418L7.02822 18.8699L9.13791 21.2032L9.46258 21.0158L8.75892 18.8309L8.34989 19.0586L8.18181 18.7656L8.65347 18.5034L8.23102 17.1903L8.22974 17.1884Z" fill="#181F1C"/>
<path fill-rule="evenodd" clip-rule="evenodd" d="M11.9346 17.1884L11.2591 17.5766L11.0891 17.2837L11.8285 16.8596L11.4841 15.7902L10.7127 15.8836C10.7536 15.6188 10.8328 15.4032 10.9344 15.1557L10.5797 15.0099C10.4794 15.2542 10.4008 15.4601 10.3497 15.7249C10.2065 15.2516 10.0128 14.864 9.75464 14.4406L9.42742 14.6408C9.69712 15.0834 9.88502 15.4736 10.0218 15.9725C9.6722 15.5989 9.43637 15.2344 9.20309 14.7777L8.86245 14.9523C9.08997 15.3987 9.32261 15.7678 9.65558 16.1407C9.40186 16.0447 9.17561 15.9993 8.90846 15.9571L8.84839 16.3358C9.1232 16.3793 9.35392 16.4272 9.6102 16.5372L9.16347 17.1327L9.58975 17.6047L10.2442 17.2114L10.4142 17.5043L9.82111 17.8606L10.5018 18.6134L11.1306 18.2488L11.2987 18.5418L10.7331 18.8699L12.8428 21.2032L13.1675 21.0158L12.4638 18.8309L12.0548 19.0586L11.8867 18.7656L12.3584 18.5034L11.9359 17.1903L11.9346 17.1884Z" fill="#181F1C"/>
</svg>
