<svg width="25" height="25" viewBox="0 0 25 25" fill="none" xmlns="http://www.w3.org/2000/svg">
<rect width="25" height="25" fill="#89E26A"/>
<path d="M18.7599 7.33143V17.2088L12.3868 19.8574L6.01381 17.2088V7.33143H18.7599Z" fill="#181F1C" stroke="#181F1C" stroke-width="0.1"/>
<path d="M22.465 8.71175L22.4741 8.71545H22.4839H23.8006V9.18903L12.5 13.7954L1.19941 9.18903V8.71545H2.51613H2.52593L2.535 8.71175L12.5 4.64933L22.465 8.71175Z" fill="#89E26A" stroke="#181F1C" stroke-width="0.1"/>
<path d="M12.5 4.09214L23.7181 8.66545L12.5 13.2382L1.28187 8.66545L12.5 4.09214Z" fill="#181F1C" stroke="#181F1C" stroke-width="0.1"/>
<path d="M12.8014 8.66547L6.97079 11.0421L6.95404 18.3722" stroke="#181F1C" stroke-width="0.1" stroke-miterlimit="10"/>
<path d="M13.7693 8.66545C13.7693 8.70933 13.748 8.75577 13.6997 8.80295C13.6512 8.85029 13.5784 8.89522 13.4844 8.93402C13.2966 9.01153 13.0337 9.06063 12.7408 9.06063C12.4478 9.06063 12.1849 9.01153 11.9972 8.93402C11.9032 8.89522 11.8304 8.85029 11.7819 8.80295C11.7335 8.75577 11.7122 8.70933 11.7122 8.66545C11.7122 8.62158 11.7335 8.57514 11.7819 8.52796C11.8304 8.48062 11.9032 8.43568 11.9972 8.39688C12.1849 8.31938 12.4478 8.27028 12.7408 8.27028C13.0337 8.27028 13.2966 8.31938 13.4844 8.39688C13.5784 8.43568 13.6512 8.48062 13.6997 8.52796C13.748 8.57514 13.7693 8.62158 13.7693 8.66545Z" fill="#89E26A" stroke="#181F1C" stroke-width="0.1"/>
<path d="M6.95459 18.3721V21.9763" stroke="#181F1C" stroke-width="0.1" stroke-miterlimit="10"/>
<path d="M6.95465 18.3721L6.62726 21.9763" stroke="#181F1C" stroke-width="0.1" stroke-miterlimit="10"/>
<path d="M6.95464 18.3721L6.29987 21.9763" stroke="#181F1C" stroke-width="0.1" stroke-miterlimit="10"/>
<path d="M6.95463 18.3721L5.97247 21.9763" stroke="#181F1C" stroke-width="0.1" stroke-miterlimit="10"/>
<path d="M6.95288 18.3721L7.28027 21.9763" stroke="#181F1C" stroke-width="0.1" stroke-miterlimit="10"/>
<path d="M6.95288 18.3721L7.60766 21.9763" stroke="#181F1C" stroke-width="0.1" stroke-miterlimit="10"/>
<path d="M6.95288 18.3721L7.93562 21.9763" stroke="#181F1C" stroke-width="0.1" stroke-miterlimit="10"/>
<path d="M7.46239 18.5529C7.46239 18.8336 7.23479 19.0612 6.95404 19.0612C6.67329 19.0612 6.44569 18.8336 6.44569 18.5529C6.44569 18.2721 6.67329 18.0445 6.95404 18.0445C7.23479 18.0445 7.46239 18.2721 7.46239 18.5529Z" fill="#89E26A" stroke="#181F1C" stroke-width="0.1"/>
</svg>
