<svg width="25" height="25" viewBox="0 0 25 25" fill="none" xmlns="http://www.w3.org/2000/svg">
<g clip-path="url(#clip0_1364_184788)">
<rect width="25" height="25" fill="#89E26A"/>
<path d="M12.225 22.8702L10.9992 23.2047L9.52872 19.0313L8.92679 19.0093L8.80448 17.5475C8.73783 16.9336 8.3922 16.9783 8.3922 16.9783L7.7463 17.0003L7.79096 16.7099L4.61572 16.6762L3.80216 13.9425L3.02226 14.255C2.65465 13.82 2.0644 14.076 2.0644 14.076L2.04241 13.9645L0.81588 14.3892C0.704565 14.5454 0.860544 14.7016 0.860544 14.7016L2.13036 14.3224L2.10838 14.2109C2.84361 13.9989 2.99959 14.6128 2.99959 14.6128L3.95676 18.3142C2.45332 18.4814 1.28382 19.7574 1.28382 21.308C1.28382 22.9721 2.6306 24.321 4.29208 24.321C5.77904 24.321 7.01244 23.2405 7.25569 21.8214L8.88213 21.7656L8.86014 22.4016L8.61483 22.7815L8.62583 22.789C8.55849 22.7698 8.4884 22.7587 8.41419 22.7587C7.98336 22.7587 7.6343 23.1084 7.6343 23.5399C7.6343 23.9714 7.98336 24.321 8.41419 24.321C8.84502 24.321 9.19409 23.9714 9.19409 23.5399C9.19409 23.3623 9.13431 23.1999 9.03536 23.0685L9.07178 23.0939L9.23875 23.0044L9.22776 21.7656L10.13 21.7319L10.6199 23.1827C10.7869 23.6287 11.0651 23.4724 11.0651 23.4724L11.1545 23.5619L12.3796 23.2047L12.2237 22.8702H12.225ZM7.29004 21.5537V21.5495C7.35257 21.2157 7.26324 20.7821 7.2069 20.5598L7.20484 20.5509C7.18285 20.4662 7.16705 20.4153 7.16705 20.4153L8.86083 20.2818L8.8945 21.4979L7.29073 21.5537H7.29004ZM9.21745 21.4532V21.308H9.10545L9.08346 20.3038L9.68539 20.2818L10.053 21.4312L9.21814 21.4539L9.21745 21.4532Z" fill="#181F1C"/>
<path d="M3.41666 3.70504C4.04126 3.52542 4.50026 2.94868 4.50026 2.26526C4.50026 1.4387 3.82962 0.766296 3.00438 0.766296C2.17913 0.766296 1.50712 1.4387 1.50712 2.26526C1.50712 2.94799 1.96612 3.52473 2.59072 3.70504C1.84175 3.89087 1.28448 4.5674 1.28448 5.374V7.69403H1.91459V10.9776H2.7254V7.69403H3.28129V10.9776H4.09211V7.69403H4.72221V5.374C4.72221 4.5674 4.16563 3.89155 3.41734 3.70504H3.41666ZM3.00369 2.95281C2.62508 2.95281 2.31725 2.64448 2.31725 2.26595C2.31725 1.88743 2.62439 1.5791 3.00369 1.5791C3.38299 1.5791 3.68945 1.88674 3.68945 2.26595C3.68945 2.64448 3.38161 2.95281 3.00369 2.95281Z" fill="#181F1C"/>
<path d="M10.8343 6.41253V5.13311C10.8343 4.46621 10.3822 3.90806 9.77061 3.736C10.4042 3.56325 10.8728 2.98307 10.8728 2.29415C10.8728 1.46965 10.2028 0.799316 9.37964 0.799316C8.55645 0.799316 7.8865 1.47034 7.8865 2.29415C7.8865 2.52815 7.94215 2.74839 8.03767 2.94591C7.99094 2.92113 7.93391 2.90324 7.8597 2.90117C7.49689 2.89016 7.30243 3.4552 7.20898 3.60592C7.47009 3.75733 8.21357 3.77385 8.21357 3.25561C8.21357 3.24873 8.21357 3.23772 8.21151 3.22327C8.40666 3.46897 8.67739 3.65135 8.98797 3.736C8.37642 3.90875 7.92429 4.46621 7.92429 5.13311V6.4029L7.28594 8.87778H8.29328V10.9769H9.1041V8.87778H9.65518V10.9769H10.466V8.87778H11.4726L10.8343 6.41253V6.41253ZM8.70075 2.32925C8.88902 2.25148 9.13845 2.12003 9.35009 1.91494C9.53561 2.06979 9.77886 2.19849 10.0558 2.23359C10.0578 2.25355 10.062 2.27282 10.062 2.29347C10.062 2.66993 9.75618 2.97688 9.37964 2.97688C9.00309 2.97688 8.71999 2.6892 8.70075 2.32857V2.32925ZM8.33382 8.06566L8.71861 6.57702L8.73442 5.13242C8.73442 4.7766 9.0237 4.48686 9.37895 4.48686C9.7342 4.48686 10.0235 4.7766 10.0235 5.13242V6.45176L10.4248 8.06566H8.33382V8.06566Z" fill="#181F1C"/>
<path d="M16.0915 3.70504C16.7161 3.52542 17.1751 2.94868 17.1751 2.26526C17.1751 1.4387 16.5038 0.766296 15.6786 0.766296C14.8533 0.766296 14.182 1.4387 14.182 2.26526C14.182 2.94799 14.641 3.52473 15.2656 3.70504C14.5166 3.89087 13.9594 4.5674 13.9594 5.374V7.69403H14.5895V10.9776H15.4003V7.69403H15.9562V10.9776H16.767V7.69403H17.3971V5.374C17.3971 4.5674 16.8405 3.89155 16.0922 3.70504H16.0915ZM15.6786 2.95281C15.2999 2.95281 14.9921 2.64448 14.9921 2.26595C14.9921 1.88743 15.2993 1.5791 15.6786 1.5791C16.0579 1.5791 16.3643 1.88674 16.3643 2.26595C16.3643 2.64448 16.0565 2.95281 15.6786 2.95281Z" fill="#181F1C"/>
<path d="M23.5092 6.41253V5.13311C23.5092 4.46621 23.057 3.90806 22.4455 3.736C23.079 3.56325 23.5476 2.98307 23.5476 2.29415C23.5476 1.46965 22.8777 0.799316 22.0545 0.799316C21.2313 0.799316 20.5614 1.47034 20.5614 2.29415C20.5614 2.52815 20.617 2.74839 20.7125 2.94591C20.6658 2.92113 20.6088 2.90324 20.5346 2.90117C20.1718 2.89016 19.9773 3.4552 19.8839 3.60592C20.145 3.75733 20.8884 3.77385 20.8884 3.25561C20.8884 3.24873 20.8884 3.23772 20.8864 3.22327C21.0815 3.46897 21.3523 3.65135 21.6628 3.736C21.0513 3.90875 20.5992 4.46621 20.5992 5.13311V6.4029L19.9608 8.87778H20.9681V10.9769H21.779V8.87778H22.33V10.9769H23.1409V8.87778H24.1475L23.5092 6.41253V6.41253ZM21.3756 2.32925C21.5639 2.25148 21.8133 2.12003 22.025 1.91494C22.2105 2.06979 22.4537 2.19849 22.7306 2.23359C22.7327 2.25355 22.7368 2.27282 22.7368 2.29347C22.7368 2.66993 22.4311 2.97688 22.0545 2.97688C21.678 2.97688 21.3949 2.6892 21.3756 2.32857V2.32925ZM21.0087 8.06566L21.3935 6.57702L21.4093 5.13242C21.4093 4.7766 21.6986 4.48686 22.0538 4.48686C22.4091 4.48686 22.6983 4.7766 22.6983 5.13242V6.45176L23.0996 8.06566H21.0087V8.06566Z" fill="#181F1C"/>
<path d="M11.6004 14.6768C11.4891 14.9397 11.6203 15.2425 11.8732 15.354C12.146 15.4655 12.438 15.3341 12.5493 15.0712C12.5596 15.0712 12.5596 15.0609 12.5596 15.0609C12.6304 15.0505 12.8221 15.1111 12.9534 15.2329C13.1753 15.4353 13.3368 15.7284 13.5086 16.0519C13.5388 16.1125 13.5793 16.173 13.6096 16.2336C13.7209 16.4559 13.8418 16.6885 13.9525 16.9108C14.3558 17.6995 14.7701 18.5178 15.4559 19.1951C15.7892 19.5185 16.2434 19.7408 16.455 20.1655C16.6467 20.5598 16.7072 21.0244 16.6467 21.449C16.5965 21.833 16.4852 22.864 16.2633 23.0863C15.9506 22.9955 15.6373 22.8943 15.3247 22.7629C15.113 22.6823 14.8705 22.7828 14.7901 22.9955C14.7097 23.2081 14.81 23.4504 15.0223 23.5309C15.7287 23.8138 16.4351 24.0161 17.1318 24.1276C17.5963 24.1985 18.0601 24.2391 18.5246 24.2391C18.7569 24.2391 18.9788 24.2288 19.2008 24.2088C19.8666 24.1483 20.5427 24.0168 21.2093 23.7945C21.502 23.7037 21.7844 23.5922 22.0771 23.4607C22.0874 23.4607 22.0874 23.4504 22.097 23.4504C22.4502 23.2887 22.8034 23.107 23.1566 22.9046C23.3586 22.7931 23.4191 22.5406 23.3078 22.3389C23.1965 22.1372 22.9443 22.076 22.7429 22.1875C22.4805 22.3389 22.2084 22.4807 21.9459 22.6018C21.6834 22.4201 21.4415 21.4194 21.3199 21.0657C21.2395 20.8331 21.2086 20.5908 21.2086 20.3478C21.2086 19.9838 21.3701 19.6403 21.6428 19.4077C21.6834 19.3671 21.7136 19.3368 21.7542 19.3066C22.0469 19.0436 22.3293 18.8014 22.6323 18.7911C22.7333 18.7911 22.824 18.8214 22.8845 18.8819C22.9044 18.8922 22.9147 18.9019 22.925 18.9225C22.8343 18.9934 22.7636 19.1042 22.7436 19.226C22.6832 19.5089 22.8646 19.7821 23.147 19.8324C23.3586 19.873 23.5709 19.8124 23.7324 19.681C23.9042 19.5392 24.0052 19.3169 24.0052 19.0843C23.9949 18.7202 23.854 18.3871 23.5916 18.1338C23.3291 17.8812 22.9656 17.7498 22.5925 17.7601C21.9466 17.7904 21.4724 18.1744 21.0684 18.5385C20.4026 19.1448 19.5244 19.4986 18.6566 19.5192C17.7784 19.5392 16.9003 19.1551 16.1637 18.4373C15.6084 17.8916 15.245 17.184 14.8718 16.4359C14.7509 16.2136 14.63 15.9707 14.5083 15.7388C14.4781 15.6885 14.4479 15.6273 14.4176 15.5667C14.2156 15.2026 14.004 14.7883 13.6405 14.4648C13.479 14.3231 13.277 14.2019 13.0654 14.1214C12.8132 14.0202 12.5507 14.0003 12.3185 14.0505C11.9955 14.1311 11.733 14.354 11.6018 14.6775L11.6004 14.6768ZM20.6939 23.0361C20.6334 23.0863 20.5427 23.1372 20.4417 23.1675C19.6543 23.4098 18.7967 23.4408 17.9687 23.3898C17.373 23.3492 17.1813 22.9755 17.2727 22.4194C17.3132 22.1366 17.3737 21.8028 17.4644 21.5399C17.7269 20.8124 18.8978 20.873 19.5031 20.9535C20.3813 21.065 20.775 21.7119 20.8554 22.5406C20.8753 22.7525 20.8252 22.9246 20.6939 23.0361V23.0361Z" fill="#181F1C"/>
</g>
<defs>
<clipPath id="clip0_1364_184788">
<rect width="25" height="25" fill="white"/>
</clipPath>
</defs>
</svg>
