<svg width="25" height="25" viewBox="0 0 25 25" fill="none" xmlns="http://www.w3.org/2000/svg">
<g clip-path="url(#clip0_1364_184824)">
<rect width="25" height="25" fill="#FF8540"/>
<path d="M6.52774 4.28984H5.79888V2.15985C7.80085 0.26931 11.522 0.613716 11.5596 0.615933L11.6076 0.128888C11.4466 0.112628 7.73291 -0.231038 5.55592 1.72232C3.37746 -0.230299 -0.335536 0.114106 -0.496521 0.129627L-0.448521 0.616672C-0.410859 0.612977 3.3073 0.268571 5.31223 2.1628V4.28984H4.58337V4.00012H1.32084V9.58452H4.58263V8.78854H5.31149V20.5745H5.7974V8.78928H6.52626V9.58526H9.78805V4.00012H6.52626V4.28984H6.52774ZM5.31223 8.30002H4.58337V4.7791H5.31223V8.30002ZM5.79814 8.30002V4.7791H6.527V8.30002H5.79814Z" fill="#181F1C"/>
<path d="M-1.0932 0.960335L-0.99277 1.43925C-0.984647 1.43703 -0.208522 1.27592 0.44871 1.43777L0.56391 0.962552C-0.198183 0.77409 -1.05702 0.952944 -1.0932 0.960335Z" fill="#181F1C"/>
<path d="M10.5464 0.962579L10.6616 1.4378C11.3152 1.27668 12.095 1.4378 12.1031 1.43928L12.2036 0.960362C12.1674 0.952971 11.3093 0.774117 10.5464 0.96184V0.962579Z" fill="#181F1C"/>
<path d="M21.3679 6.52553H20.8857V5.1176C22.209 3.86784 24.6681 4.09547 24.6932 4.09695L24.7249 3.77546C24.6186 3.76511 22.1639 3.53748 20.7254 4.82863C19.2861 3.53822 16.8322 3.76585 16.7259 3.7762L16.7576 4.09769C16.7828 4.09547 19.2396 3.8671 20.5652 5.11982V6.52553H20.0829V6.33411H17.9266V10.025H20.0829V9.4988H20.5652V15.9826H20.8864V9.49954H21.3686V10.0258H23.5249V6.33485H21.3686V6.52627L21.3679 6.52553ZM20.5644 9.17582H20.0822V6.84924H20.5644V9.17582ZM20.8857 9.17582V6.84924H21.3679V9.17656H20.8857V9.17582Z" fill="#181F1C"/>
<path d="M16.3308 4.32457L16.3973 4.64089C16.4024 4.63942 16.9157 4.53299 17.3499 4.64015L17.426 4.32605C16.9216 4.20189 16.3544 4.32014 16.3308 4.32457Z" fill="#181F1C"/>
<path d="M24.0241 4.32603L24.1002 4.64014C24.5322 4.53371 25.0476 4.64014 25.0528 4.64161L25.1192 4.32529C25.0956 4.32012 24.5285 4.20261 24.0241 4.32677V4.32603Z" fill="#181F1C"/>
<path d="M0.684243 11.5792L12.2456 17.3898C12.2663 17.4016 12.284 17.4149 12.298 17.4282L12.3505 17.4666C12.4856 17.5672 12.411 17.695 12.1792 17.7586L2.36942 20.4C1.628 21.8944 0.662089 24.1064 -0.0143433 25.4183L20.9359 25.4789L21.0806 21.0001C21.0806 20.9595 21.1079 20.9196 21.1596 20.8841L26.0187 17.6758L8.0578 11.6502L0.683504 11.5785L0.684243 11.5792ZM7.32746 12.3442L10.3559 13.6479L9.57903 14.2805L6.52401 12.707L7.32746 12.3442V12.3442ZM12.6141 14.82L15.6293 16.1186L14.8657 16.7512L11.7974 15.1777L12.6141 14.82ZM15.8929 17.9892L17.697 18.6883L14.4573 20.5478L12.1001 19.9041L15.8929 17.9892V17.9892ZM11.5478 21.8249L12.6274 24.7139L8.44032 24.7635L9.09903 21.8471L11.5485 21.8249H11.5478Z" fill="#181F1C"/>
</g>
<defs>
<clipPath id="clip0_1364_184824">
<rect width="25" height="25" fill="white"/>
</clipPath>
</defs>
</svg>
