<svg width="210" height="210" viewBox="0 0 210 210" fill="none" xmlns="http://www.w3.org/2000/svg">
<path d="M210 0H0V210H210V0Z" fill="#F2A8EE"/>
<mask id="path-2-inside-1_1886_31235" fill="white">
<path d="M138.933 96.2562C145.61 96.9987 151.47 98.1524 151.47 98.1524C138.143 90.8241 138.485 64.5287 138.485 64.5287C140.819 13.5883 107.201 16.2537 107.201 16.2537V16.3338L107.174 16.2537C107.174 16.2537 73.5609 13.583 75.8897 64.5287C75.8897 64.5287 76.2315 90.8241 62.9049 98.1524C62.9049 98.1524 81.9307 93.8793 95.4604 101.48L90.5036 90.4181C95.252 95.1612 100.999 97.9494 107.19 97.9494C113.242 97.9494 118.866 95.2787 123.556 90.7439L120.1 97.9494C121.259 96.0372 125.618 95.5191 130.729 95.6473M132.999 59.5826C132.581 65.8892 130.949 72.0557 128.192 77.7431C123.46 87.224 115.805 93.3826 107.158 93.3826C93.9861 93.3826 83.1219 79.0678 81.3859 60.496C81.3859 60.496 91.7909 58.7707 97.9975 56.319C97.9975 56.319 109.262 52.5801 123.006 42.6612L123.214 42.5117C123.214 42.5117 123.46 42.8695 123.807 43.4678C125.003 45.5135 127.546 51.608 122.739 54.4015L131.541 55.5499H131.701L133.304 55.849C133.292 57.1002 133.198 58.3493 133.021 59.5879L132.999 59.5826Z"/>
</mask>
<path d="M138.933 96.2562C145.61 96.9987 151.47 98.1524 151.47 98.1524C138.143 90.8241 138.485 64.5287 138.485 64.5287C140.819 13.5883 107.201 16.2537 107.201 16.2537V16.3338L107.174 16.2537C107.174 16.2537 73.5609 13.583 75.8897 64.5287C75.8897 64.5287 76.2315 90.8241 62.9049 98.1524C62.9049 98.1524 81.9307 93.8793 95.4604 101.48L90.5036 90.4181C95.252 95.1612 100.999 97.9494 107.19 97.9494C113.242 97.9494 118.866 95.2787 123.556 90.7439L120.1 97.9494C121.259 96.0372 125.618 95.5191 130.729 95.6473M132.999 59.5826C132.581 65.8892 130.949 72.0557 128.192 77.7431C123.46 87.224 115.805 93.3826 107.158 93.3826C93.9861 93.3826 83.1219 79.0678 81.3859 60.496C81.3859 60.496 91.7909 58.7707 97.9975 56.319C97.9975 56.319 109.262 52.5801 123.006 42.6612L123.214 42.5117C123.214 42.5117 123.46 42.8695 123.807 43.4678C125.003 45.5135 127.546 51.608 122.739 54.4015L131.541 55.5499H131.701L133.304 55.849C133.292 57.1002 133.198 58.3493 133.021 59.5879L132.999 59.5826Z" fill="#181F1C"/>
<path d="M151.47 98.1524L151.276 99.1335L151.951 97.2761L151.47 98.1524ZM138.485 64.5287L137.486 64.4829L137.485 64.4993L137.485 64.5157L138.485 64.5287ZM107.201 16.2537L107.122 15.2568L106.201 15.3298V16.2537H107.201ZM107.201 16.3338L106.252 16.65L108.201 16.3338H107.201ZM107.174 16.2537L108.123 15.9374L107.913 15.3093L107.253 15.2568L107.174 16.2537ZM75.8897 64.5287L76.8896 64.5157L76.8894 64.4993L76.8887 64.483L75.8897 64.5287ZM62.9049 98.1524L62.4231 97.2761L63.124 99.1281L62.9049 98.1524ZM95.4604 101.48L94.9706 102.352L97.6117 103.836L96.3729 101.071L95.4604 101.48ZM90.5036 90.4181L91.2103 89.7106L89.591 90.827L90.5036 90.4181ZM123.556 90.7439L124.457 91.1764L122.861 90.0251L123.556 90.7439ZM120.1 97.9494L119.198 97.517L120.955 98.4678L120.1 97.9494ZM132.999 59.5826L133.242 58.6124L132.081 58.3221L132.001 59.5165L132.999 59.5826ZM128.192 77.7431L129.087 78.1898L129.092 78.1793L128.192 77.7431ZM81.3859 60.496L81.2224 59.5094L80.3036 59.6618L80.3903 60.589L81.3859 60.496ZM97.9975 56.319L97.6825 55.3699L97.656 55.3787L97.6301 55.389L97.9975 56.319ZM123.006 42.6612L122.422 41.8489L122.42 41.8504L123.006 42.6612ZM123.214 42.5117L124.038 41.9457L123.46 41.1037L122.631 41.6994L123.214 42.5117ZM123.807 43.4678L122.942 43.9697L122.944 43.9726L123.807 43.4678ZM122.739 54.4015L122.236 53.5369L119.696 55.013L122.609 55.3931L122.739 54.4015ZM131.541 55.5499L131.412 56.5415L131.476 56.5499H131.541V55.5499ZM131.701 55.5499L131.885 54.5669L131.794 54.5499H131.701V55.5499ZM133.304 55.849L134.304 55.8582L134.311 55.0198L133.487 54.866L133.304 55.849ZM133.021 59.5879L132.778 60.5581L133.854 60.827L134.011 59.7294L133.021 59.5879ZM138.823 97.2501C142.138 97.6187 145.254 98.0899 147.542 98.4692C148.685 98.6588 149.621 98.8252 150.27 98.9441C150.594 99.0036 150.847 99.0511 151.018 99.0837C151.103 99.1 151.168 99.1125 151.212 99.121C151.234 99.1252 151.25 99.1284 151.261 99.1305C151.266 99.1315 151.27 99.1323 151.273 99.1328C151.274 99.1331 151.275 99.1333 151.276 99.1334C151.276 99.1335 151.276 99.1335 151.276 99.1335C151.276 99.1335 151.276 99.1335 151.276 99.1335C151.276 99.1335 151.276 99.1335 151.47 98.1524C151.663 97.1712 151.663 97.1712 151.663 97.1712C151.663 97.1712 151.662 97.1711 151.662 97.1711C151.662 97.1711 151.662 97.171 151.661 97.1709C151.661 97.1708 151.659 97.1705 151.658 97.1702C151.655 97.1696 151.65 97.1687 151.644 97.1676C151.633 97.1653 151.615 97.1619 151.592 97.1575C151.547 97.1487 151.48 97.1357 151.392 97.119C151.216 97.0856 150.959 97.0372 150.63 96.9769C149.972 96.8562 149.025 96.6878 147.869 96.4962C145.558 96.113 142.405 95.6361 139.044 95.2623L138.823 97.2501ZM151.951 97.2761C145.706 93.842 142.532 85.8463 140.958 78.3859C140.18 74.6993 139.811 71.2319 139.637 68.6837C139.55 67.4108 139.512 66.3703 139.496 65.6501C139.488 65.2901 139.485 65.0104 139.484 64.8219C139.484 64.7277 139.484 64.6563 139.484 64.6091C139.484 64.5855 139.484 64.568 139.485 64.5567C139.485 64.5511 139.485 64.547 139.485 64.5445C139.485 64.5432 139.485 64.5423 139.485 64.5419C139.485 64.5416 139.485 64.5416 139.485 64.5415C139.485 64.5415 139.485 64.5417 138.485 64.5287C137.485 64.5157 137.485 64.516 137.485 64.5165C137.485 64.5167 137.485 64.5173 137.485 64.5179C137.485 64.519 137.485 64.5205 137.485 64.5225C137.485 64.5263 137.485 64.5318 137.485 64.5388C137.485 64.5528 137.484 64.5731 137.484 64.5995C137.484 64.6523 137.484 64.7295 137.484 64.8296C137.485 65.0299 137.488 65.3223 137.496 65.6956C137.513 66.4421 137.553 67.5132 137.642 68.82C137.82 71.4312 138.199 74.9957 139.001 78.7989C140.588 86.3183 143.906 95.1344 150.988 99.0286L151.951 97.2761ZM139.484 64.5744C140.661 38.8732 132.765 26.4243 124.293 20.4704C120.088 17.5153 115.811 16.2128 112.59 15.6482C110.978 15.3656 109.625 15.2669 108.67 15.2391C108.192 15.2251 107.812 15.229 107.549 15.2366C107.417 15.2404 107.314 15.2451 107.242 15.2491C107.206 15.251 107.178 15.2528 107.158 15.2542C107.148 15.2549 107.14 15.2554 107.134 15.2559C107.131 15.2561 107.128 15.2563 107.126 15.2564C107.125 15.2565 107.124 15.2566 107.123 15.2566C107.122 15.2567 107.122 15.2568 107.201 16.2537C107.28 17.2505 107.279 17.2506 107.279 17.2506C107.279 17.2506 107.278 17.2506 107.278 17.2506C107.278 17.2506 107.279 17.2506 107.28 17.2505C107.282 17.2504 107.286 17.2501 107.292 17.2497C107.304 17.2489 107.324 17.2476 107.352 17.2461C107.407 17.243 107.493 17.239 107.606 17.2358C107.834 17.2292 108.175 17.2255 108.612 17.2382C109.485 17.2636 110.741 17.3546 112.244 17.6181C115.253 18.1456 119.235 19.3605 123.143 22.1067C130.896 27.5552 138.642 39.2438 137.486 64.4829L139.484 64.5744ZM106.201 16.2537V16.3338H108.201V16.2537H106.201ZM108.149 16.0175L108.123 15.9374L106.225 16.5699L106.252 16.65L108.149 16.0175ZM107.174 16.2537C107.253 15.2568 107.252 15.2567 107.251 15.2567C107.251 15.2566 107.25 15.2565 107.249 15.2565C107.247 15.2563 107.244 15.2561 107.241 15.2559C107.235 15.2554 107.227 15.2549 107.217 15.2542C107.197 15.2528 107.168 15.251 107.133 15.2491C107.061 15.2451 106.958 15.2404 106.826 15.2365C106.562 15.2289 106.183 15.225 105.705 15.2388C104.75 15.2665 103.397 15.3651 101.786 15.6474C98.5647 16.2116 94.2882 17.5136 90.0835 20.4684C81.6118 26.4216 73.7158 38.8706 74.8907 64.5743L76.8887 64.483C75.7348 39.2411 83.4809 27.5526 91.2334 22.1047C95.1409 19.3589 99.1222 18.1444 102.131 17.6174C103.634 17.3541 104.889 17.2633 105.763 17.238C106.2 17.2254 106.54 17.2291 106.768 17.2357C106.882 17.239 106.967 17.243 107.023 17.246C107.05 17.2476 107.07 17.2488 107.082 17.2497C107.088 17.2501 107.092 17.2504 107.094 17.2505C107.096 17.2506 107.096 17.2506 107.096 17.2506C107.096 17.2506 107.096 17.2506 107.096 17.2506C107.095 17.2506 107.095 17.2505 107.174 16.2537ZM75.8897 64.5287C74.8898 64.5417 74.8898 64.5415 74.8898 64.5415C74.8898 64.5416 74.8898 64.5416 74.8898 64.5419C74.8898 64.5423 74.8898 64.5432 74.8898 64.5445C74.8898 64.547 74.8899 64.5511 74.8899 64.5567C74.89 64.568 74.8902 64.5855 74.8903 64.6091C74.8905 64.6563 74.8907 64.7277 74.8903 64.8219C74.8896 65.0104 74.8868 65.2901 74.8786 65.6501C74.8622 66.3703 74.8241 67.4108 74.7372 68.6837C74.5632 71.2319 74.1942 74.6993 73.4163 78.3859C71.8422 85.8463 68.668 93.842 62.4231 97.2761L63.3868 99.0286C70.4684 95.1344 73.7866 86.3183 75.3732 78.7989C76.1757 74.9957 76.5542 71.4312 76.7326 68.82C76.8218 67.5132 76.8611 66.4421 76.8781 65.6956C76.8866 65.3223 76.8895 65.0299 76.8903 64.8296C76.8907 64.7295 76.8905 64.6523 76.8903 64.5995C76.8901 64.5731 76.89 64.5528 76.8899 64.5388C76.8898 64.5318 76.8897 64.5263 76.8897 64.5225C76.8897 64.5205 76.8897 64.519 76.8896 64.5179C76.8896 64.5173 76.8896 64.5167 76.8896 64.5165C76.8896 64.516 76.8896 64.5157 75.8897 64.5287ZM62.9049 98.1524C63.124 99.1281 63.1239 99.1281 63.1238 99.1281C63.1238 99.1281 63.1238 99.1281 63.1239 99.1281C63.1241 99.128 63.1247 99.1279 63.1255 99.1278C63.1271 99.1274 63.1299 99.1268 63.1338 99.1259C63.1416 99.1242 63.1539 99.1215 63.1707 99.1179C63.2043 99.1106 63.2556 99.0997 63.324 99.0856C63.4607 99.0574 63.6655 99.0164 63.9323 98.9666C64.4659 98.8671 65.2474 98.7323 66.229 98.5936C68.1932 98.3162 70.9528 98.024 74.1274 97.9658C80.5019 97.8489 88.4318 98.6785 94.9706 102.352L95.9501 100.608C88.9593 96.6808 80.6115 95.8466 74.0907 95.9661C70.8176 96.0261 67.9751 96.3271 65.9492 96.6133C64.9357 96.7565 64.1251 96.8962 63.5654 97.0006C63.2856 97.0528 63.0683 97.0962 62.9198 97.1269C62.8455 97.1422 62.7883 97.1544 62.7491 97.1628C62.7294 97.1671 62.7143 97.1704 62.7037 97.1727C62.6984 97.1739 62.6943 97.1748 62.6913 97.1754C62.6898 97.1758 62.6886 97.1761 62.6877 97.1763C62.6872 97.1764 62.6867 97.1765 62.6865 97.1765C62.6861 97.1766 62.6858 97.1767 62.9049 98.1524ZM96.3729 101.071L91.4162 90.0092L89.591 90.827L94.5478 101.889L96.3729 101.071ZM89.7969 91.1256C94.6915 96.0147 100.681 98.9494 107.19 98.9494V96.9494C101.318 96.9494 95.8126 94.3078 91.2103 89.7106L89.7969 91.1256ZM107.19 98.9494C113.553 98.9494 119.416 96.1384 124.251 91.4628L122.861 90.0251C118.317 94.4191 112.93 96.9494 107.19 96.9494V98.9494ZM122.654 90.3115L119.198 97.517L121.002 98.3819L124.457 91.1764L122.654 90.3115ZM120.955 98.4678C121.111 98.2106 121.419 97.9303 121.967 97.665C122.511 97.4013 123.231 97.1826 124.117 97.016C125.89 96.6824 128.177 96.5836 130.704 96.647L130.754 94.6476C128.17 94.5828 125.722 94.6789 123.747 95.0505C122.76 95.2363 121.854 95.4977 121.095 95.8649C120.34 96.2306 119.668 96.7321 119.245 97.4311L120.955 98.4678ZM132.001 59.5165C131.592 65.6946 129.993 71.7354 127.292 77.3069L129.092 78.1793C131.905 72.376 133.571 66.0838 133.997 59.6487L132.001 59.5165ZM127.297 77.2965C122.662 86.5829 115.288 92.3826 107.158 92.3826V94.3826C116.323 94.3826 124.257 87.8651 129.087 78.1897L127.297 77.2965ZM107.158 92.3826C100.961 92.3826 95.219 89.0181 90.7734 83.2905C86.3278 77.5628 83.2347 69.5295 82.3816 60.4029L80.3903 60.589C81.2731 70.0343 84.4801 78.4442 89.1935 84.5168C93.907 90.5896 100.183 94.3826 107.158 94.3826V92.3826ZM81.3859 60.496C81.5495 61.4825 81.5496 61.4825 81.5498 61.4824C81.5499 61.4824 81.55 61.4824 81.5502 61.4824C81.5506 61.4823 81.5512 61.4822 81.5519 61.4821C81.5534 61.4818 81.5554 61.4815 81.5581 61.4811C81.5635 61.4802 81.5713 61.4788 81.5816 61.4771C81.6022 61.4737 81.6326 61.4685 81.6722 61.4618C81.7514 61.4483 81.8677 61.4283 82.0177 61.402C82.3176 61.3495 82.7519 61.2719 83.2921 61.1711C84.3721 60.9697 85.877 60.6754 87.5777 60.3038C90.964 59.564 95.1827 58.5061 98.3649 57.2491L97.6301 55.389C94.6057 56.5836 90.5186 57.6142 87.1508 58.3499C85.4744 58.7161 83.9902 59.0064 82.9253 59.205C82.393 59.3043 81.966 59.3806 81.6726 59.432C81.5259 59.4577 81.4127 59.4772 81.3364 59.4902C81.2983 59.4967 81.2695 59.5015 81.2503 59.5048C81.2407 59.5064 81.2336 59.5076 81.2289 59.5083C81.2265 59.5087 81.2248 59.509 81.2237 59.5092C81.2232 59.5093 81.2228 59.5094 81.2226 59.5094C81.2225 59.5094 81.2224 59.5094 81.2223 59.5094C81.2223 59.5094 81.2224 59.5094 81.3859 60.496ZM97.9975 56.319C98.3125 57.2681 98.3127 57.268 98.313 57.2679C98.3132 57.2679 98.3135 57.2678 98.3138 57.2677C98.3144 57.2675 98.3152 57.2672 98.3162 57.2669C98.3181 57.2663 98.3206 57.2654 98.3239 57.2643C98.3304 57.2621 98.3397 57.259 98.3516 57.2549C98.3755 57.2468 98.4102 57.235 98.4553 57.2193C98.5455 57.188 98.6777 57.1414 98.8497 57.0789C99.1937 56.954 99.6968 56.7657 100.342 56.509C101.632 55.9958 103.491 55.2094 105.78 54.1114C110.358 51.9157 116.663 48.472 123.591 43.4721L122.42 41.8504C115.605 46.7693 109.406 50.1545 104.915 52.308C102.671 53.3846 100.854 54.1529 99.6028 54.6507C98.9771 54.8995 98.4928 55.0808 98.167 55.1991C98.0041 55.2582 97.8809 55.3016 97.7994 55.3299C97.7587 55.3441 97.7284 55.3544 97.7088 55.3611C97.699 55.3644 97.6919 55.3668 97.6875 55.3683C97.6853 55.369 97.6838 55.3695 97.6829 55.3698C97.6825 55.3699 97.6823 55.37 97.6822 55.37C97.6822 55.3701 97.6822 55.37 97.6822 55.37C97.6823 55.37 97.6825 55.3699 97.9975 56.319ZM123.589 43.4736L123.797 43.324L122.631 41.6994L122.422 41.8489L123.589 43.4736ZM123.214 42.5117C122.39 43.0777 122.389 43.0776 122.389 43.0776C122.389 43.0776 122.389 43.0775 122.389 43.0775C122.389 43.0774 122.389 43.0774 122.389 43.0774C122.389 43.0773 122.389 43.0772 122.389 43.0772C122.389 43.0771 122.389 43.0771 122.389 43.0772C122.389 43.0773 122.39 43.0778 122.39 43.0787C122.391 43.0804 122.393 43.0834 122.396 43.0878C122.402 43.0966 122.412 43.1106 122.424 43.1298C122.45 43.168 122.488 43.2265 122.537 43.3034C122.635 43.4572 122.776 43.6842 122.942 43.9697L124.672 42.9658C124.49 42.6531 124.335 42.402 124.223 42.2274C124.167 42.14 124.123 42.0717 124.091 42.0241C124.075 42.0003 124.063 41.9818 124.054 41.9686C124.049 41.962 124.046 41.9568 124.043 41.953C124.042 41.9511 124.041 41.9495 124.04 41.9483C124.04 41.9477 124.039 41.9471 124.039 41.9467C124.039 41.9465 124.039 41.9463 124.039 41.9461C124.039 41.946 124.039 41.946 124.038 41.9459C124.038 41.9458 124.038 41.9458 124.038 41.9458C124.038 41.9457 124.038 41.9457 123.214 42.5117ZM122.944 43.9726C123.5 44.9247 124.361 46.8138 124.528 48.7405C124.69 50.6184 124.202 52.3947 122.236 53.5369L123.241 55.2661C126.083 53.6147 126.726 50.9471 126.52 48.568C126.319 46.2376 125.31 44.0565 124.67 42.9629L122.944 43.9726ZM122.609 55.3931L131.412 56.5415L131.67 54.5583L122.868 53.4099L122.609 55.3931ZM131.541 56.5499H131.701V54.5499H131.541V56.5499ZM131.518 56.5329L133.12 56.832L133.487 54.866L131.885 54.5669L131.518 56.5329ZM132.304 55.8398C132.293 57.0467 132.201 58.2516 132.031 59.4465L134.011 59.7294C134.194 58.4469 134.292 57.1537 134.304 55.8582L132.304 55.8398ZM133.263 58.6178L133.242 58.6124L132.757 60.5527L132.778 60.5581L133.263 58.6178Z" fill="#181F1C" mask="url(#path-2-inside-1_1886_31235)"/>
<mask id="path-4-inside-2_1886_31235" fill="white">
<path d="M194.019 181.504C200.701 182.252 206.555 183.405 206.555 183.405C193.234 176.077 193.575 149.755 193.575 149.755C195.904 98.82 162.286 101.485 162.286 101.485V101.565L162.259 101.485C162.259 101.485 128.641 98.8147 130.975 149.755C130.975 149.755 131.311 176.056 117.99 183.405C117.99 183.405 137.016 179.132 150.546 186.728L145.583 175.671C150.332 180.409 156.079 183.197 162.275 183.197C168.322 183.197 173.946 180.526 178.641 175.997L175.158 183.208C176.318 181.296 180.676 180.783 185.788 180.906M188.111 144.846C187.696 151.153 186.063 157.32 183.304 163.007C178.577 172.488 170.917 178.646 162.27 178.646C149.098 178.646 138.234 164.332 136.498 145.765C136.498 145.765 146.903 144.04 153.115 141.583C153.115 141.583 164.374 137.844 178.118 127.925L178.326 127.781C178.326 127.781 178.572 128.133 178.924 128.732C180.115 130.783 182.663 136.877 177.856 139.665L186.658 140.782H186.813L188.416 141.081C188.408 142.341 188.314 143.599 188.133 144.846H188.111Z"/>
</mask>
<path d="M194.019 181.504C200.701 182.252 206.555 183.405 206.555 183.405C193.234 176.077 193.575 149.755 193.575 149.755C195.904 98.82 162.286 101.485 162.286 101.485V101.565L162.259 101.485C162.259 101.485 128.641 98.8147 130.975 149.755C130.975 149.755 131.311 176.056 117.99 183.405C117.99 183.405 137.016 179.132 150.546 186.728L145.583 175.671C150.332 180.409 156.079 183.197 162.275 183.197C168.322 183.197 173.946 180.526 178.641 175.997L175.158 183.208C176.318 181.296 180.676 180.783 185.788 180.906M188.111 144.846C187.696 151.153 186.063 157.32 183.304 163.007C178.577 172.488 170.917 178.646 162.27 178.646C149.098 178.646 138.234 164.332 136.498 145.765C136.498 145.765 146.903 144.04 153.115 141.583C153.115 141.583 164.374 137.844 178.118 127.925L178.326 127.781C178.326 127.781 178.572 128.133 178.924 128.732C180.115 130.783 182.663 136.877 177.856 139.665L186.658 140.782H186.813L188.416 141.081C188.408 142.341 188.314 143.599 188.133 144.846H188.111Z" fill="#181F1C"/>
<path d="M206.555 183.405L206.361 184.387L207.037 182.529L206.555 183.405ZM193.575 149.755L192.576 149.709L192.576 149.726L192.575 149.742L193.575 149.755ZM162.286 101.485L162.207 100.488L161.286 100.562V101.485H162.286ZM162.286 101.565L161.337 101.882L163.286 101.565H162.286ZM162.259 101.485L163.208 101.169L162.998 100.541L162.338 100.488L162.259 101.485ZM130.975 149.755L131.975 149.742L131.975 149.726L131.974 149.709L130.975 149.755ZM117.99 183.405L117.507 182.53L118.209 184.381L117.99 183.405ZM150.546 186.728L150.056 187.6L152.699 189.083L151.458 186.318L150.546 186.728ZM145.583 175.671L146.29 174.963L144.671 176.081L145.583 175.671ZM178.641 175.997L179.541 176.432L177.947 175.277L178.641 175.997ZM175.158 183.208L174.258 182.773L176.014 183.726L175.158 183.208ZM188.111 144.846V143.846H187.175L187.113 144.781L188.111 144.846ZM183.304 163.007L184.199 163.453L184.204 163.443L183.304 163.007ZM136.498 145.765L136.334 144.779L135.415 144.931L135.502 145.858L136.498 145.765ZM153.115 141.583L152.8 140.634L152.773 140.643L152.747 140.653L153.115 141.583ZM178.118 127.925L177.548 127.103L177.54 127.108L177.532 127.114L178.118 127.925ZM178.326 127.781L179.146 127.209L178.576 126.391L177.757 126.959L178.326 127.781ZM178.924 128.732L179.789 128.229L179.786 128.224L178.924 128.732ZM177.856 139.665L177.354 138.8L174.794 140.285L177.73 140.657L177.856 139.665ZM186.658 140.782L186.533 141.774L186.595 141.782H186.658V140.782ZM186.813 140.782L186.997 139.799L186.906 139.782H186.813V140.782ZM188.416 141.081L189.416 141.087L189.421 140.251L188.599 140.098L188.416 141.081ZM188.133 144.846V145.846H188.998L189.122 144.99L188.133 144.846ZM193.907 182.498C197.226 182.869 200.341 183.342 202.629 183.722C203.772 183.911 204.707 184.078 205.355 184.197C205.679 184.257 205.932 184.304 206.103 184.337C206.188 184.353 206.254 184.366 206.297 184.374C206.319 184.378 206.335 184.381 206.346 184.384C206.351 184.385 206.355 184.385 206.358 184.386C206.359 184.386 206.36 184.386 206.361 184.386C206.361 184.386 206.361 184.387 206.361 184.387C206.361 184.387 206.361 184.387 206.361 184.387C206.361 184.387 206.361 184.387 206.555 183.405C206.748 182.424 206.748 182.424 206.748 182.424C206.748 182.424 206.748 182.424 206.748 182.424C206.747 182.424 206.747 182.424 206.747 182.424C206.746 182.424 206.745 182.424 206.743 182.423C206.74 182.423 206.736 182.422 206.73 182.421C206.718 182.418 206.701 182.415 206.678 182.411C206.632 182.402 206.565 182.389 206.478 182.372C206.302 182.339 206.045 182.29 205.716 182.23C205.058 182.109 204.112 181.941 202.956 181.749C200.646 181.365 197.494 180.887 194.13 180.51L193.907 182.498ZM207.037 182.529C200.795 179.095 197.622 171.093 196.048 163.626C195.271 159.936 194.902 156.465 194.728 153.914C194.641 152.64 194.603 151.599 194.586 150.878C194.578 150.517 194.576 150.237 194.575 150.049C194.574 149.954 194.575 149.883 194.575 149.836C194.575 149.812 194.575 149.794 194.575 149.783C194.575 149.777 194.575 149.773 194.575 149.771C194.575 149.77 194.575 149.769 194.575 149.768C194.575 149.768 194.575 149.768 194.575 149.768C194.575 149.768 194.575 149.768 193.575 149.755C192.575 149.742 192.575 149.742 192.575 149.743C192.575 149.743 192.575 149.744 192.575 149.744C192.575 149.745 192.575 149.747 192.575 149.749C192.575 149.753 192.575 149.758 192.575 149.765C192.575 149.779 192.575 149.8 192.575 149.826C192.575 149.879 192.574 149.956 192.575 150.056C192.576 150.257 192.578 150.549 192.587 150.923C192.604 151.67 192.643 152.742 192.732 154.05C192.911 156.664 193.289 160.232 194.091 164.038C195.677 171.564 198.994 180.387 206.073 184.282L207.037 182.529ZM194.574 149.801C195.749 124.102 187.852 111.655 179.379 105.701C175.173 102.747 170.896 101.444 167.675 100.88C166.063 100.597 164.71 100.499 163.755 100.471C163.277 100.457 162.898 100.461 162.634 100.468C162.502 100.472 162.399 100.477 162.327 100.481C162.291 100.483 162.263 100.485 162.243 100.486C162.233 100.487 162.225 100.487 162.219 100.488C162.216 100.488 162.213 100.488 162.211 100.488C162.21 100.488 162.209 100.488 162.209 100.488C162.208 100.488 162.207 100.488 162.286 101.485C162.365 102.482 162.364 102.482 162.364 102.482C162.364 102.482 162.363 102.482 162.363 102.482C162.363 102.482 162.364 102.482 162.365 102.482C162.367 102.482 162.371 102.482 162.377 102.481C162.389 102.481 162.409 102.479 162.437 102.478C162.492 102.475 162.578 102.471 162.692 102.467C162.919 102.461 163.26 102.457 163.697 102.47C164.571 102.495 165.826 102.586 167.33 102.85C170.339 103.377 174.321 104.592 178.229 107.338C185.983 112.786 193.73 124.473 192.576 149.709L194.574 149.801ZM161.286 101.485V101.565H163.286V101.485H161.286ZM163.235 101.249L163.208 101.169L161.31 101.802L161.337 101.882L163.235 101.249ZM162.259 101.485C162.338 100.488 162.337 100.488 162.336 100.488C162.336 100.488 162.335 100.488 162.334 100.488C162.332 100.488 162.329 100.488 162.326 100.488C162.32 100.487 162.312 100.487 162.302 100.486C162.282 100.485 162.254 100.483 162.218 100.481C162.146 100.477 162.043 100.472 161.911 100.468C161.648 100.461 161.268 100.457 160.79 100.471C159.835 100.498 158.482 100.597 156.87 100.879C153.649 101.443 149.372 102.745 145.167 105.699C136.694 111.652 128.798 124.1 129.976 149.801L131.974 149.709C130.817 124.47 138.563 112.783 146.317 107.336C150.224 104.59 154.206 103.376 157.215 102.849C158.719 102.586 159.974 102.495 160.848 102.47C161.285 102.457 161.625 102.461 161.853 102.467C161.967 102.471 162.053 102.475 162.108 102.478C162.135 102.479 162.155 102.481 162.167 102.481C162.174 102.482 162.178 102.482 162.18 102.482C162.181 102.482 162.181 102.482 162.181 102.482C162.181 102.482 162.181 102.482 162.181 102.482C162.181 102.482 162.18 102.482 162.259 101.485ZM130.975 149.755C129.975 149.768 129.975 149.768 129.975 149.768C129.975 149.768 129.975 149.768 129.975 149.768C129.975 149.768 129.975 149.769 129.975 149.771C129.975 149.773 129.975 149.777 129.975 149.783C129.975 149.794 129.975 149.812 129.975 149.835C129.976 149.882 129.976 149.954 129.975 150.048C129.975 150.237 129.972 150.516 129.964 150.877C129.947 151.597 129.909 152.638 129.822 153.911C129.647 156.46 129.278 159.929 128.5 163.618C126.925 171.082 123.75 179.085 117.507 182.53L118.473 184.281C125.551 180.376 128.869 171.554 130.456 164.031C131.259 160.225 131.638 156.66 131.817 154.048C131.906 152.74 131.946 151.669 131.963 150.922C131.972 150.549 131.975 150.257 131.975 150.056C131.976 149.956 131.976 149.879 131.975 149.826C131.975 149.8 131.975 149.779 131.975 149.765C131.975 149.758 131.975 149.753 131.975 149.749C131.975 149.747 131.975 149.746 131.975 149.744C131.975 149.744 131.975 149.743 131.975 149.743C131.975 149.743 131.975 149.742 130.975 149.755ZM117.99 183.405C118.209 184.381 118.209 184.381 118.209 184.381C118.209 184.381 118.209 184.381 118.209 184.381C118.209 184.381 118.21 184.381 118.211 184.381C118.212 184.38 118.215 184.38 118.219 184.379C118.227 184.377 118.239 184.375 118.256 184.371C118.29 184.364 118.341 184.353 118.409 184.339C118.546 184.31 118.751 184.269 119.017 184.22C119.551 184.12 120.333 183.985 121.314 183.847C123.278 183.569 126.038 183.277 129.213 183.218C135.587 183.101 143.517 183.929 150.056 187.6L151.035 185.856C144.044 181.931 135.697 181.098 129.176 181.218C125.903 181.279 123.06 181.58 121.034 181.866C120.021 182.009 119.21 182.149 118.651 182.254C118.371 182.306 118.154 182.349 118.005 182.38C117.931 182.395 117.874 182.407 117.834 182.416C117.815 182.42 117.8 182.423 117.789 182.426C117.784 182.427 117.779 182.428 117.776 182.428C117.775 182.429 117.774 182.429 117.773 182.429C117.772 182.429 117.772 182.43 117.772 182.43C117.771 182.43 117.771 182.43 117.99 183.405ZM151.458 186.318L146.496 175.262L144.671 176.081L149.633 187.137L151.458 186.318ZM144.877 176.379C149.772 181.263 155.761 184.197 162.275 184.197V182.197C156.397 182.197 150.892 179.555 146.29 174.963L144.877 176.379ZM162.275 184.197C168.633 184.197 174.495 181.386 179.335 176.717L177.947 175.277C173.397 179.667 168.01 182.197 162.275 182.197V184.197ZM177.741 175.562L174.258 182.773L176.059 183.643L179.541 176.432L177.741 175.562ZM176.014 183.726C176.169 183.469 176.477 183.189 177.025 182.924C177.569 182.661 178.289 182.443 179.175 182.276C180.948 181.943 183.235 181.845 185.764 181.905L185.812 179.906C183.228 179.844 180.78 179.94 178.806 180.311C177.819 180.496 176.913 180.757 176.154 181.124C175.399 181.489 174.727 181.99 174.303 182.689L176.014 183.726ZM187.113 144.781C186.706 150.959 185.107 157 182.404 162.57L184.204 163.443C187.019 157.641 188.685 151.348 189.109 144.912L187.113 144.781ZM182.409 162.561C177.779 171.846 170.4 177.646 162.27 177.646V179.646C171.435 179.646 179.375 173.129 184.199 163.453L182.409 162.561ZM162.27 177.646C156.073 177.646 150.331 174.282 145.885 168.555C141.44 162.828 138.347 154.796 137.494 145.672L135.502 145.858C136.385 155.301 139.592 163.709 144.305 169.781C149.019 175.853 155.295 179.646 162.27 179.646V177.646ZM136.498 145.765C136.661 146.752 136.662 146.752 136.662 146.752C136.662 146.752 136.662 146.751 136.662 146.751C136.663 146.751 136.663 146.751 136.664 146.751C136.665 146.751 136.667 146.751 136.67 146.75C136.675 146.749 136.683 146.748 136.694 146.746C136.714 146.743 136.744 146.738 136.784 146.731C136.863 146.717 136.98 146.697 137.13 146.671C137.43 146.619 137.864 146.541 138.404 146.44C139.484 146.239 140.989 145.944 142.69 145.572C146.077 144.832 150.298 143.772 153.483 142.513L152.747 140.653C149.72 141.85 145.632 142.882 142.263 143.618C140.587 143.985 139.102 144.275 138.037 144.474C137.505 144.573 137.078 144.65 136.784 144.701C136.638 144.727 136.525 144.746 136.448 144.759C136.41 144.766 136.381 144.771 136.362 144.774C136.353 144.775 136.345 144.777 136.341 144.777C136.338 144.778 136.337 144.778 136.336 144.778C136.335 144.778 136.335 144.778 136.334 144.778C136.334 144.778 136.334 144.778 136.334 144.779C136.334 144.779 136.334 144.779 136.498 145.765ZM153.115 141.583C153.43 142.532 153.43 142.532 153.43 142.532C153.431 142.532 153.431 142.531 153.431 142.531C153.432 142.531 153.433 142.531 153.434 142.531C153.435 142.53 153.438 142.529 153.441 142.528C153.448 142.526 153.457 142.523 153.469 142.519C153.493 142.511 153.528 142.499 153.573 142.483C153.663 142.452 153.795 142.405 153.967 142.343C154.311 142.218 154.814 142.029 155.459 141.773C156.748 141.259 158.606 140.473 160.895 139.375C165.472 137.179 171.775 133.736 178.703 128.736L177.532 127.114C170.717 132.033 164.519 135.418 160.03 137.572C157.786 138.648 155.97 139.417 154.719 139.914C154.094 140.163 153.61 140.345 153.284 140.463C153.121 140.522 152.998 140.565 152.916 140.594C152.876 140.608 152.845 140.618 152.826 140.625C152.816 140.628 152.809 140.631 152.805 140.632C152.802 140.633 152.801 140.633 152.8 140.634C152.8 140.634 152.799 140.634 152.799 140.634C152.799 140.634 152.799 140.634 152.799 140.634C152.799 140.634 152.8 140.634 153.115 141.583ZM178.687 128.747L178.895 128.603L177.757 126.959L177.548 127.103L178.687 128.747ZM178.326 127.781C177.505 128.353 177.505 128.353 177.505 128.352C177.505 128.352 177.505 128.352 177.505 128.352C177.505 128.352 177.505 128.352 177.505 128.352C177.505 128.352 177.505 128.352 177.505 128.352C177.505 128.352 177.505 128.352 177.505 128.352C177.505 128.352 177.506 128.353 177.506 128.353C177.507 128.355 177.509 128.358 177.512 128.362C177.518 128.371 177.528 128.385 177.54 128.404C177.566 128.441 177.604 128.499 177.653 128.575C177.752 128.728 177.894 128.954 178.063 129.239L179.786 128.224C179.601 127.911 179.444 127.662 179.332 127.488C179.276 127.402 179.231 127.334 179.199 127.287C179.183 127.263 179.171 127.245 179.162 127.232C179.157 127.225 179.154 127.22 179.151 127.216C179.15 127.214 179.149 127.213 179.148 127.212C179.148 127.211 179.147 127.21 179.147 127.21C179.147 127.21 179.147 127.21 179.147 127.209C179.146 127.209 179.146 127.209 179.146 127.209C179.146 127.209 179.146 127.209 179.146 127.209C179.146 127.209 179.146 127.209 178.326 127.781ZM178.059 129.234C178.615 130.191 179.476 132.082 179.643 134.009C179.806 135.887 179.319 137.661 177.354 138.8L178.358 140.53C181.2 138.881 181.842 136.214 181.636 133.835C181.433 131.505 180.424 129.323 179.789 128.229L178.059 129.234ZM177.73 140.657L186.533 141.774L186.784 139.79L177.982 138.673L177.73 140.657ZM186.658 141.782H186.813V139.782H186.658V141.782ZM186.63 141.765L188.232 142.064L188.599 140.098L186.997 139.799L186.63 141.765ZM187.416 141.075C187.408 142.289 187.317 143.501 187.143 144.703L189.122 144.99C189.31 143.697 189.408 142.393 189.416 141.087L187.416 141.075ZM188.133 143.846H188.111V145.846H188.133V143.846Z" fill="#181F1C" mask="url(#path-4-inside-2_1886_31235)"/>
<path d="M17.2611 140.734V140.616L17.239 140.571C17.109 139.669 17.0231 138.754 16.9719 137.817L16.9719 137.816C16.9348 137.159 16.9086 136.501 16.9086 135.836L16.9086 135.835C16.9076 134.224 17.022 132.614 17.2507 131.019C19.4514 115.769 31.9401 104.122 47.0038 104.122C62.0674 104.122 74.5668 115.785 76.7622 131.03C76.9909 132.625 77.1052 134.234 77.1043 135.846V135.846C77.1043 136.512 77.0781 137.169 77.041 137.826L77.0409 137.827C76.9882 138.792 76.8988 139.732 76.7624 140.661L76.7604 140.675L76.7591 140.688C76.7458 140.835 76.7347 140.969 76.7239 141.099C76.7114 141.249 76.6993 141.395 76.6845 141.552L76.6842 141.555C75.7299 152.392 72.0861 161.975 66.785 168.836C61.484 175.697 54.5536 179.808 47.0038 179.808C39.4539 179.808 32.5276 175.699 27.2292 168.84C21.9308 161.98 18.2883 152.398 17.3286 141.555L17.3284 141.553C17.3194 141.455 17.3098 141.367 17.3007 141.283C17.2794 141.086 17.2611 140.918 17.2611 140.734ZM77.5402 137.855C77.5776 137.192 77.6043 136.525 77.6043 135.846L77.5402 137.855ZM28.1382 122.885L28.0852 123.115L28.0082 122.92C26.1985 123.633 25.125 125.411 24.4951 127.499C23.861 129.602 23.6393 132.135 23.6181 134.555C23.5969 136.981 23.7771 139.324 23.962 141.057C24.0365 141.755 24.1119 142.356 24.1754 142.825C23.0873 142.18 21.9117 141.692 20.6833 141.376L19.9958 141.2L20.0609 141.906C20.9469 151.524 24.211 160.064 28.9865 166.212C33.7619 172.36 40.0765 176.145 47.0411 176.145C54.0058 176.145 60.3204 172.36 65.0952 166.212C69.87 160.064 73.1327 151.523 74.0161 141.906L74.0811 141.199L73.393 141.376C72.1657 141.694 70.991 142.182 69.903 142.825C69.9671 142.356 70.0433 141.756 70.1186 141.058C70.3056 139.324 70.4884 136.982 70.4688 134.556C70.4493 132.135 70.2285 129.602 69.593 127.499C68.9616 125.41 67.8844 123.632 66.0681 122.919L65.8641 122.839L65.6671 122.935L65.667 122.935L65.667 122.935L65.6662 122.936L65.6621 122.937L65.6445 122.946C65.6286 122.953 65.6043 122.965 65.5719 122.98C65.5071 123.011 65.4099 123.056 65.282 123.113C65.0262 123.229 64.648 123.394 64.1622 123.595C63.1902 123.995 61.7882 124.533 60.0737 125.08C56.6445 126.173 51.9809 127.297 47.0144 127.436C42.0479 127.297 37.383 126.173 33.9525 125.08C32.2372 124.533 30.8346 123.995 29.8621 123.595C29.376 123.394 28.9976 123.229 28.7417 123.113C28.6137 123.056 28.5164 123.011 28.4516 122.98C28.4192 122.965 28.3949 122.953 28.3789 122.946L28.3613 122.937L28.3573 122.935L28.3564 122.935L28.3563 122.935L28.2448 123.165L28.1916 122.885H28.1382Z" fill="#181F1C" stroke="#181F1C"/>
</svg>
