<svg width="25" height="25" viewBox="0 0 25 25" fill="none" xmlns="http://www.w3.org/2000/svg">
<g clip-path="url(#clip0_1364_184761)">
<path d="M25 0H0V25H25V0Z" fill="#F2A8EE"/>
<path d="M6.97995 20.5965C7.13226 20.4936 7.30797 20.4318 7.4901 20.4162L7.58318 20.4162C7.79595 20.416 8.00399 20.4789 8.18099 20.597C8.358 20.7151 8.49601 20.883 8.57757 21.0795C8.65913 21.276 8.68058 21.4923 8.63921 21.701C8.59784 21.9097 8.4955 22.1015 8.34514 22.252C8.19478 22.4026 8.00315 22.5051 7.79449 22.5468C7.58583 22.5884 7.36951 22.5672 7.1729 22.4859C6.97628 22.4046 6.8082 22.2668 6.68991 22.0899C6.57162 21.913 6.50844 21.7051 6.50837 21.4923L6.50834 21.4884C6.5072 21.3509 6.53299 21.2145 6.58424 21.0869L6.58431 21.0867C6.66425 20.8874 6.80206 20.7167 6.97995 20.5965ZM7.58341 22.4313L7.58413 22.4313C7.83455 22.4309 8.0746 22.3312 8.25155 22.154C8.4285 21.9768 8.52789 21.7366 8.52789 21.4861C8.52789 21.2992 8.47246 21.1165 8.36861 20.9611C8.26476 20.8056 8.11716 20.6845 7.94446 20.613C7.77175 20.5414 7.58172 20.5227 7.39839 20.5592C7.21506 20.5957 7.04666 20.6857 6.91448 20.8178C6.78231 20.95 6.69229 21.1184 6.65583 21.3018C6.61936 21.4851 6.63807 21.6751 6.70961 21.8478C6.78114 22.0205 6.90228 22.1681 7.0577 22.272C7.21312 22.3758 7.39585 22.4313 7.58278 22.4313L7.58341 22.4313Z" fill="#181F1C" stroke="#181F1C"/>
<mask id="path-3-inside-1_1364_184761" fill="white">
<path d="M11.9035 19.9124C11.5921 19.9126 11.2878 20.0051 11.0289 20.1782C10.7701 20.3513 10.5683 20.5972 10.4491 20.8849C10.3299 21.1726 10.2986 21.4891 10.3592 21.7946C10.4198 22.1 10.5695 22.3807 10.7895 22.6011C11.0095 22.8215 11.2898 22.9718 11.5951 23.033C11.9005 23.0942 12.2171 23.0636 12.505 22.945C12.7929 22.8263 13.0392 22.6251 13.2129 22.3666C13.3865 22.1081 13.4796 21.8039 13.4805 21.4925C13.4807 21.2854 13.44 21.0803 13.3608 20.889C13.2817 20.6976 13.1656 20.5237 13.0192 20.3773C12.8728 20.2308 12.699 20.1146 12.5076 20.0354C12.3163 19.9562 12.1112 19.9155 11.9042 19.9155L11.9035 19.9124ZM11.9035 21.9313C11.8155 21.9313 11.7294 21.9051 11.6562 21.8562C11.583 21.8073 11.526 21.7378 11.4923 21.6565C11.4586 21.5751 11.4498 21.4856 11.467 21.3993C11.4841 21.313 11.5265 21.2336 11.5888 21.1714C11.651 21.1091 11.7303 21.0668 11.8167 21.0496C11.903 21.0324 11.9925 21.0412 12.0739 21.0749C12.1552 21.1086 12.2247 21.1657 12.2736 21.2389C12.3225 21.312 12.3486 21.3981 12.3486 21.4861C12.3486 21.6041 12.3018 21.7172 12.2185 21.8007C12.1351 21.8841 12.0221 21.9311 11.9042 21.9313H11.9035Z"/>
</mask>
<path d="M11.9035 19.9124C11.5921 19.9126 11.2878 20.0051 11.0289 20.1782C10.7701 20.3513 10.5683 20.5972 10.4491 20.8849C10.3299 21.1726 10.2986 21.4891 10.3592 21.7946C10.4198 22.1 10.5695 22.3807 10.7895 22.6011C11.0095 22.8215 11.2898 22.9718 11.5951 23.033C11.9005 23.0942 12.2171 23.0636 12.505 22.945C12.7929 22.8263 13.0392 22.6251 13.2129 22.3666C13.3865 22.1081 13.4796 21.8039 13.4805 21.4925C13.4807 21.2854 13.44 21.0803 13.3608 20.889C13.2817 20.6976 13.1656 20.5237 13.0192 20.3773C12.8728 20.2308 12.699 20.1146 12.5076 20.0354C12.3163 19.9562 12.1112 19.9155 11.9042 19.9155L11.9035 19.9124ZM11.9035 21.9313C11.8155 21.9313 11.7294 21.9051 11.6562 21.8562C11.583 21.8073 11.526 21.7378 11.4923 21.6565C11.4586 21.5751 11.4498 21.4856 11.467 21.3993C11.4841 21.313 11.5265 21.2336 11.5888 21.1714C11.651 21.1091 11.7303 21.0668 11.8167 21.0496C11.903 21.0324 11.9925 21.0412 12.0739 21.0749C12.1552 21.1086 12.2247 21.1657 12.2736 21.2389C12.3225 21.312 12.3486 21.3981 12.3486 21.4861C12.3486 21.6041 12.3018 21.7172 12.2185 21.8007C12.1351 21.8841 12.0221 21.9311 11.9042 21.9313H11.9035Z" fill="#181F1C"/>
<path d="M11.9035 19.9124L12.8841 19.7161L12.7231 18.9117L11.9027 18.9124L11.9035 19.9124ZM13.4805 21.4925L14.4805 21.4953L14.4805 21.4933L13.4805 21.4925ZM11.9042 19.9155L10.9236 20.1118L11.0845 20.9159L11.9046 20.9155L11.9042 19.9155ZM12.3486 21.4861L11.3486 21.4861L11.3486 21.4861L12.3486 21.4861ZM11.9042 21.9313V22.9313L11.9056 22.9313L11.9042 21.9313ZM11.9027 18.9124C11.3937 18.9128 10.8962 19.064 10.4731 19.3469L11.5848 21.0095C11.6794 20.9462 11.7906 20.9124 11.9043 20.9124L11.9027 18.9124ZM10.4731 19.3469C10.0499 19.6299 9.7201 20.0319 9.52526 20.5021L11.3729 21.2677C11.4165 21.1626 11.4902 21.0727 11.5848 21.0095L10.4731 19.3469ZM9.52526 20.5021C9.33042 20.9724 9.27929 21.4898 9.37832 21.9891L11.3401 21.6C11.318 21.4884 11.3294 21.3728 11.3729 21.2677L9.52526 20.5021ZM9.37832 21.9891C9.47735 22.4884 9.7221 22.9472 10.0817 23.3075L11.4973 21.8947C11.4169 21.8142 11.3622 21.7116 11.3401 21.6L9.37832 21.9891ZM10.0817 23.3075C10.4412 23.6678 10.8995 23.9135 11.3986 24.0135L11.7917 22.0525C11.6801 22.0302 11.5777 21.9752 11.4973 21.8947L10.0817 23.3075ZM11.3986 24.0135C11.8977 24.1135 12.4153 24.0635 12.8859 23.8696L12.1241 22.0203C12.0189 22.0637 11.9032 22.0749 11.7917 22.0525L11.3986 24.0135ZM12.8859 23.8696C13.3566 23.6757 13.7592 23.3467 14.043 22.9241L12.3827 21.809C12.3193 21.9035 12.2293 21.977 12.1241 22.0203L12.8859 23.8696ZM14.043 22.9241C14.3268 22.5015 14.479 22.0043 14.4805 21.4953L12.4805 21.4897C12.4802 21.6034 12.4461 21.7146 12.3827 21.809L14.043 22.9241ZM14.4805 21.4933C14.4808 21.1548 14.4143 20.8196 14.2849 20.5068L12.4368 21.2712C12.4657 21.3411 12.4805 21.416 12.4805 21.4917L14.4805 21.4933ZM14.2849 20.5068C14.1555 20.1939 13.9658 19.9097 13.7264 19.6703L12.312 21.0842C12.3654 21.1377 12.4079 21.2013 12.4368 21.2712L14.2849 20.5068ZM13.7264 19.6703C13.4871 19.4309 13.203 19.241 12.8902 19.1115L12.125 20.9593C12.1949 20.9883 12.2585 21.0307 12.312 21.0842L13.7264 19.6703ZM12.8902 19.1115C12.5775 18.982 12.2423 18.9154 11.9038 18.9155L11.9046 20.9155C11.9802 20.9155 12.0551 20.9304 12.125 20.9593L12.8902 19.1115ZM12.8847 19.7193L12.8841 19.7161L10.923 20.1086L10.9236 20.1118L12.8847 19.7193ZM11.9035 20.9313C12.0133 20.9313 12.1205 20.9638 12.2118 21.0248L11.1007 22.6877C11.3383 22.8465 11.6177 22.9313 11.9035 22.9313V20.9313ZM12.2118 21.0248C12.303 21.0857 12.3742 21.1724 12.4162 21.2738L10.5684 22.0392C10.6778 22.3032 10.863 22.5289 11.1007 22.6877L12.2118 21.0248ZM12.4162 21.2738C12.4582 21.3752 12.4692 21.4868 12.4477 21.5944L10.4862 21.2042C10.4304 21.4845 10.459 21.7751 10.5684 22.0392L12.4162 21.2738ZM12.4477 21.5944C12.4263 21.702 12.3735 21.8009 12.2959 21.8785L10.8817 20.4643C10.6796 20.6664 10.5419 20.9239 10.4862 21.2042L12.4477 21.5944ZM12.2959 21.8785C12.2183 21.9561 12.1194 22.009 12.0118 22.0304L11.6216 20.0688C11.3413 20.1246 11.0838 20.2622 10.8817 20.4643L12.2959 21.8785ZM12.0118 22.0304C11.9041 22.0518 11.7926 22.0408 11.6912 21.9988L12.4565 20.151C12.1925 20.0416 11.9019 20.013 11.6216 20.0688L12.0118 22.0304ZM11.6912 21.9988C11.5898 21.9568 11.5031 21.8857 11.4421 21.7944L13.1051 20.6833C12.9463 20.4456 12.7206 20.2604 12.4565 20.151L11.6912 21.9988ZM11.4421 21.7944C11.3812 21.7032 11.3486 21.5959 11.3486 21.4861H13.3486C13.3486 21.2003 13.2639 20.9209 13.1051 20.6833L11.4421 21.7944ZM11.3486 21.4861C11.3486 21.3391 11.407 21.1981 11.5109 21.0941L12.9261 22.5073C13.1967 22.2363 13.3486 21.869 13.3486 21.4861L11.3486 21.4861ZM11.5109 21.0941C11.6148 20.99 11.7557 20.9315 11.9027 20.9313L11.9056 22.9313C12.2885 22.9307 12.6555 22.7782 12.9261 22.5073L11.5109 21.0941ZM11.9042 20.9313H11.9035V22.9313H11.9042V20.9313Z" fill="#181F1C" mask="url(#path-3-inside-1_1364_184761)"/>
<mask id="path-5-inside-2_1364_184761" fill="white">
<path d="M21.2007 19.9124C20.8892 19.9125 20.5848 20.0049 20.3259 20.1779C20.067 20.3509 19.8651 20.5968 19.7458 20.8845C19.6265 21.1721 19.5951 21.4887 19.6556 21.7942C19.7162 22.0997 19.8658 22.3804 20.0858 22.6009C20.3057 22.8214 20.5861 22.9717 20.8914 23.033C21.1968 23.0942 21.5134 23.0636 21.8014 22.945C22.0893 22.8264 22.3357 22.6251 22.5093 22.3666C22.683 22.1081 22.7761 21.8039 22.777 21.4925C22.7772 21.2854 22.7365 21.0803 22.6574 20.889C22.5782 20.6976 22.4621 20.5237 22.3157 20.3773C22.1693 20.2308 21.9955 20.1146 21.8041 20.0354C21.6128 19.9562 21.4077 19.9155 21.2007 19.9155V19.9124ZM21.2007 21.9313C21.1126 21.9313 21.0266 21.9051 20.9534 21.8562C20.8802 21.8073 20.8231 21.7378 20.7894 21.6565C20.7557 21.5751 20.7469 21.4856 20.7641 21.3993C20.7813 21.313 20.8237 21.2336 20.8859 21.1714C20.9482 21.1091 21.0275 21.0668 21.1138 21.0496C21.2002 21.0324 21.2897 21.0412 21.371 21.0749C21.4523 21.1086 21.5219 21.1657 21.5708 21.2389C21.6197 21.312 21.6458 21.3981 21.6458 21.4861C21.6458 21.6041 21.599 21.7172 21.5156 21.8007C21.4323 21.8841 21.3192 21.9311 21.2013 21.9313H21.2007Z"/>
</mask>
<path d="M21.2007 19.9124C20.8892 19.9125 20.5848 20.0049 20.3259 20.1779C20.067 20.3509 19.8651 20.5968 19.7458 20.8845C19.6265 21.1721 19.5951 21.4887 19.6556 21.7942C19.7162 22.0997 19.8658 22.3804 20.0858 22.6009C20.3057 22.8214 20.5861 22.9717 20.8914 23.033C21.1968 23.0942 21.5134 23.0636 21.8014 22.945C22.0893 22.8264 22.3357 22.6251 22.5093 22.3666C22.683 22.1081 22.7761 21.8039 22.777 21.4925C22.7772 21.2854 22.7365 21.0803 22.6574 20.889C22.5782 20.6976 22.4621 20.5237 22.3157 20.3773C22.1693 20.2308 21.9955 20.1146 21.8041 20.0354C21.6128 19.9562 21.4077 19.9155 21.2007 19.9155V19.9124ZM21.2007 21.9313C21.1126 21.9313 21.0266 21.9051 20.9534 21.8562C20.8802 21.8073 20.8231 21.7378 20.7894 21.6565C20.7557 21.5751 20.7469 21.4856 20.7641 21.3993C20.7813 21.313 20.8237 21.2336 20.8859 21.1714C20.9482 21.1091 21.0275 21.0668 21.1138 21.0496C21.2002 21.0324 21.2897 21.0412 21.371 21.0749C21.4523 21.1086 21.5219 21.1657 21.5708 21.2389C21.6197 21.312 21.6458 21.3981 21.6458 21.4861C21.6458 21.6041 21.599 21.7172 21.5156 21.8007C21.4323 21.8841 21.3192 21.9311 21.2013 21.9313H21.2007Z" fill="#181F1C"/>
<path d="M21.2007 19.9124H22.2007V18.9119L21.2003 18.9124L21.2007 19.9124ZM22.777 21.4925L23.777 21.4953L23.777 21.4933L22.777 21.4925ZM21.2007 19.9155H20.2007V20.9159L21.2011 20.9155L21.2007 19.9155ZM21.6458 21.4861L20.6458 21.4861L20.6458 21.4861L21.6458 21.4861ZM21.2013 21.9313L21.2013 22.9313L21.2027 22.9313L21.2013 21.9313ZM21.2003 18.9124C20.6912 18.9126 20.1936 19.0636 19.7703 19.3464L20.8815 21.0094C20.9761 20.9462 21.0873 20.9124 21.2011 20.9124L21.2003 18.9124ZM19.7703 19.3464C19.347 19.6293 19.0171 20.0312 18.8221 20.5014L20.6695 21.2675C20.7131 21.1624 20.7869 21.0726 20.8815 21.0094L19.7703 19.3464ZM18.8221 20.5014C18.6271 20.9717 18.5758 21.4891 18.6747 21.9885L20.6366 21.5999C20.6145 21.4883 20.6259 21.3726 20.6695 21.2675L18.8221 20.5014ZM18.6747 21.9885C18.7736 22.4879 19.0183 22.9467 19.3778 23.3071L20.7937 21.8946C20.7134 21.8141 20.6587 21.7115 20.6366 21.5999L18.6747 21.9885ZM19.3778 23.3071C19.7373 23.6675 20.1956 23.9133 20.6947 24.0134L21.0881 22.0525C20.9765 22.0301 20.8741 21.9752 20.7937 21.8946L19.3778 23.3071ZM20.6947 24.0134C21.1939 24.1136 21.7115 24.0635 22.1822 23.8697L21.4205 22.0204C21.3153 22.0637 21.1996 22.0749 21.0881 22.0525L20.6947 24.0134ZM22.1822 23.8697C22.6529 23.6758 23.0556 23.3468 23.3394 22.9242L21.6792 21.809C21.6158 21.9035 21.5258 21.977 21.4205 22.0204L22.1822 23.8697ZM23.3394 22.9242C23.6233 22.5016 23.7756 22.0044 23.777 21.4953L21.777 21.4897C21.7767 21.6035 21.7426 21.7146 21.6792 21.809L23.3394 22.9242ZM23.777 21.4933C23.7773 21.1548 23.7108 20.8196 23.5814 20.5068L21.7333 21.2712C21.7622 21.3411 21.7771 21.416 21.777 21.4917L23.777 21.4933ZM23.5814 20.5068C23.452 20.194 23.2623 19.9097 23.023 19.6703L21.6085 21.0842C21.6619 21.1377 21.7044 21.2013 21.7333 21.2712L23.5814 20.5068ZM23.023 19.6703C22.7836 19.4309 22.4995 19.241 22.1867 19.1115L21.4216 20.9593C21.4915 20.9883 21.555 21.0307 21.6085 21.0842L23.023 19.6703ZM22.1867 19.1115C21.874 18.982 21.5388 18.9154 21.2003 18.9155L21.2011 20.9155C21.2767 20.9155 21.3517 20.9304 21.4216 20.9593L22.1867 19.1115ZM22.2007 19.9155V19.9124H20.2007V19.9155H22.2007ZM21.2007 20.9313C21.3104 20.9313 21.4177 20.9638 21.5089 21.0248L20.3978 22.6877C20.6354 22.8465 20.9148 22.9313 21.2007 22.9313V20.9313ZM21.5089 21.0248C21.6002 21.0857 21.6713 21.1724 21.7133 21.2738L19.8656 22.0392C19.9749 22.3032 20.1602 22.5289 20.3978 22.6877L21.5089 21.0248ZM21.7133 21.2738C21.7553 21.3752 21.7663 21.4868 21.7449 21.5944L19.7833 21.2042C19.7276 21.4845 19.7562 21.7751 19.8656 22.0392L21.7133 21.2738ZM21.7449 21.5944C21.7235 21.702 21.6706 21.8009 21.593 21.8785L20.1788 20.4643C19.9767 20.6664 19.8391 20.9239 19.7833 21.2042L21.7449 21.5944ZM21.593 21.8785C21.5154 21.9561 21.4166 22.009 21.3089 22.0304L20.9187 20.0688C20.6384 20.1246 20.3809 20.2622 20.1788 20.4643L21.593 21.8785ZM21.3089 22.0304C21.2013 22.0518 21.0897 22.0408 20.9883 21.9988L21.7537 20.151C21.4896 20.0416 21.199 20.013 20.9187 20.0688L21.3089 22.0304ZM20.9883 21.9988C20.8869 21.9568 20.8003 21.8857 20.7393 21.7944L22.4022 20.6833C22.2434 20.4456 22.0177 20.2604 21.7537 20.151L20.9883 21.9988ZM20.7393 21.7944C20.6783 21.7032 20.6458 21.5959 20.6458 21.4861H22.6458C22.6458 21.2003 22.561 20.9209 22.4022 20.6833L20.7393 21.7944ZM20.6458 21.4861C20.6458 21.3391 20.7041 21.1981 20.808 21.0941L22.2232 22.5073C22.4938 22.2363 22.6458 21.869 22.6458 21.4861L20.6458 21.4861ZM20.808 21.0941C20.9119 20.99 21.0528 20.9315 21.1999 20.9313L21.2027 22.9313C21.5856 22.9307 21.9527 22.7782 22.2232 22.5073L20.808 21.0941ZM21.2013 20.9313H21.2007V22.9313H21.2013V20.9313Z" fill="#181F1C" mask="url(#path-5-inside-2_1364_184761)"/>
<mask id="path-7-inside-3_1364_184761" fill="white">
<path d="M11.2225 18.6947H7.9872ZM4.52106 18.6947V21.1148H5.59568C5.61975 20.982 5.65681 20.8519 5.70633 20.7263V20.7263C5.85675 20.3523 6.1156 20.0319 6.4496 19.8062C6.7836 19.5806 7.17747 19.46 7.58056 19.46C7.98365 19.46 8.37752 19.5806 8.71152 19.8062C9.04552 20.0319 9.30438 20.3523 9.4548 20.7263C9.50498 20.851 9.54206 20.9805 9.56544 21.1129H9.9298C9.95421 20.9782 9.99279 20.8465 10.0449 20.7199C10.2089 20.3147 10.4999 19.9737 10.8743 19.7481C11.2486 19.5225 11.6861 19.4245 12.121 19.4688C12.5558 19.5131 12.9646 19.6973 13.2857 19.9938C13.6069 20.2903 13.8232 20.683 13.9021 21.1129L19.1856 21.1218C19.2714 20.6576 19.5171 20.2382 19.88 19.9363C20.2429 19.6344 20.7 19.4691 21.172 19.4691C21.6441 19.4691 22.1012 19.6344 22.4641 19.9363C22.827 20.2382 23.0726 20.6576 23.1585 21.1218V13.6713H17.1368V18.6947H13.7158M18.2712 14.8088H21.9033V17.5177H18.2712V14.8088Z"/>
</mask>
<path d="M11.2225 18.6947H7.9872ZM4.52106 18.6947V21.1148H5.59568C5.61975 20.982 5.65681 20.8519 5.70633 20.7263V20.7263C5.85675 20.3523 6.1156 20.0319 6.4496 19.8062C6.7836 19.5806 7.17747 19.46 7.58056 19.46C7.98365 19.46 8.37752 19.5806 8.71152 19.8062C9.04552 20.0319 9.30438 20.3523 9.4548 20.7263C9.50498 20.851 9.54206 20.9805 9.56544 21.1129H9.9298C9.95421 20.9782 9.99279 20.8465 10.0449 20.7199C10.2089 20.3147 10.4999 19.9737 10.8743 19.7481C11.2486 19.5225 11.6861 19.4245 12.121 19.4688C12.5558 19.5131 12.9646 19.6973 13.2857 19.9938C13.6069 20.2903 13.8232 20.683 13.9021 21.1129L19.1856 21.1218C19.2714 20.6576 19.5171 20.2382 19.88 19.9363C20.2429 19.6344 20.7 19.4691 21.172 19.4691C21.6441 19.4691 22.1012 19.6344 22.4641 19.9363C22.827 20.2382 23.0726 20.6576 23.1585 21.1218V13.6713H17.1368V18.6947H13.7158M18.2712 14.8088H21.9033V17.5177H18.2712V14.8088Z" fill="#181F1C"/>
<path d="M4.52106 21.1148H3.52106V22.1148H4.52106V21.1148ZM5.59568 21.1148V22.1148H6.43078L6.57966 21.2931L5.59568 21.1148ZM7.58056 19.46L7.58056 20.46L7.58056 19.46ZM9.4548 20.7263L8.52704 21.0995L8.5271 21.0996L9.4548 20.7263ZM9.56544 21.1129L8.58069 21.2869L8.72663 22.1129H9.56544V21.1129ZM9.9298 21.1129V22.1129H10.7648L10.9138 21.2913L9.9298 21.1129ZM10.0449 20.7199L10.9696 21.1006L10.9719 21.0951L10.0449 20.7199ZM13.9021 21.1129L12.9185 21.2934L13.0686 22.1115L13.9004 22.1129L13.9021 21.1129ZM19.1856 21.1218L19.1839 22.1218L20.0173 22.1232L20.1689 21.3037L19.1856 21.1218ZM23.1585 21.1218L22.1752 21.3037L24.1585 21.1218H23.1585ZM23.1585 13.6713H24.1585V12.6713H23.1585V13.6713ZM17.1368 13.6713V12.6713H16.1368V13.6713H17.1368ZM17.1368 18.6947V19.6947H18.1368V18.6947H17.1368ZM18.2712 14.8088V13.8088H17.2712V14.8088H18.2712ZM21.9033 14.8088H22.9033V13.8088H21.9033V14.8088ZM21.9033 17.5177V18.5177H22.9033V17.5177H21.9033ZM18.2712 17.5177H17.2712V18.5177H18.2712V17.5177ZM11.2225 17.6947H7.9872V19.6947H11.2225V17.6947ZM3.52106 18.6947V21.1148H5.52106V18.6947H3.52106ZM4.52106 22.1148H5.59568V20.1148H4.52106V22.1148ZM6.57966 21.2931C6.59205 21.2247 6.61112 21.1578 6.6366 21.0931L4.77605 20.3594C4.70249 20.5459 4.64745 20.7392 4.6117 20.9365L6.57966 21.2931ZM6.63409 21.0995C6.71005 20.9106 6.84077 20.7488 7.00944 20.6348L5.88977 18.9776C5.39044 19.315 5.00344 19.794 4.77856 20.3531L6.63409 21.0995ZM7.00944 20.6348C7.1781 20.5209 7.37701 20.46 7.58056 20.46L7.58056 18.46C6.97794 18.46 6.3891 18.6403 5.88977 18.9776L7.00944 20.6348ZM7.58056 20.46C7.78412 20.46 7.98302 20.5209 8.15169 20.6348L9.27136 18.9776C8.77202 18.6403 8.18318 18.46 7.58056 18.46L7.58056 20.46ZM8.15169 20.6348C8.32035 20.7488 8.45108 20.9106 8.52704 21.0995L10.3826 20.3531C10.1577 19.794 9.77069 19.315 9.27136 18.9776L8.15169 20.6348ZM8.5271 21.0996C8.5514 21.16 8.56937 21.2228 8.58069 21.2869L10.5502 20.9389C10.5147 20.7383 10.4585 20.5419 10.3825 20.353L8.5271 21.0996ZM9.56544 22.1129H9.9298V20.1129H9.56544V22.1129ZM10.9138 21.2913C10.9256 21.2259 10.9443 21.162 10.9696 21.1006L9.12017 20.3393C9.04125 20.531 8.98281 20.7305 8.94583 20.9345L10.9138 21.2913ZM10.9719 21.0951C11.0546 20.8906 11.2015 20.7185 11.3904 20.6046L10.3581 18.8916C9.7983 19.229 9.3631 19.7389 9.11792 20.3448L10.9719 21.0951ZM11.3904 20.6046C11.5794 20.4907 11.8002 20.4413 12.0196 20.4636L12.2223 18.4739C11.5721 18.4077 10.9179 18.5542 10.3581 18.8916L11.3904 20.6046ZM12.0196 20.4636C12.2391 20.486 12.4454 20.579 12.6075 20.7286L13.964 19.259C13.4838 18.8157 12.8726 18.5402 12.2223 18.4739L12.0196 20.4636ZM12.6075 20.7286C12.7696 20.8782 12.8787 21.0764 12.9185 21.2934L14.8857 20.9324C14.7677 20.2895 14.4443 19.7023 13.964 19.259L12.6075 20.7286ZM13.9004 22.1129L19.1839 22.1218L19.1873 20.1218L13.9038 20.1129L13.9004 22.1129ZM20.1689 21.3037C20.2122 21.0693 20.3363 20.8575 20.5196 20.705L19.2404 19.1676C18.6979 19.6189 18.3306 20.246 18.2023 20.9399L20.1689 21.3037ZM20.5196 20.705C20.7028 20.5526 20.9337 20.4691 21.172 20.4691V18.4691C20.4663 18.4691 19.7829 18.7162 19.2404 19.1676L20.5196 20.705ZM21.172 20.4691C21.4104 20.4691 21.6413 20.5526 21.8245 20.705L23.1037 19.1676C22.5612 18.7162 21.8777 18.4691 21.172 18.4691V20.4691ZM21.8245 20.705C22.0078 20.8575 22.1318 21.0693 22.1752 21.3037L24.1418 20.9399C24.0135 20.246 23.6461 19.6189 23.1037 19.1676L21.8245 20.705ZM24.1585 21.1218V13.6713H22.1585V21.1218H24.1585ZM23.1585 12.6713H17.1368V14.6713H23.1585V12.6713ZM16.1368 13.6713V18.6947H18.1368V13.6713H16.1368ZM17.1368 17.6947H13.7158V19.6947H17.1368V17.6947ZM18.2712 15.8088H21.9033V13.8088H18.2712V15.8088ZM20.9033 14.8088V17.5177H22.9033V14.8088H20.9033ZM21.9033 16.5177H18.2712V18.5177H21.9033V16.5177ZM19.2712 17.5177V14.8088H17.2712V17.5177H19.2712Z" fill="#181F1C" mask="url(#path-7-inside-3_1364_184761)"/>
<mask id="path-9-inside-4_1364_184761" fill="white">
<path d="M20.4624 11.4667H20.9075V11.9118H20.4624V11.4667Z"/>
</mask>
<path d="M20.4624 11.4667H20.9075V11.9118H20.4624V11.4667Z" fill="#181F1C"/>
<path d="M20.4624 11.4667V10.4667H19.4624V11.4667H20.4624ZM20.9075 11.4667H21.9075V10.4667H20.9075V11.4667ZM20.9075 11.9118V12.9118H21.9075V11.9118H20.9075ZM20.4624 11.9118H19.4624V12.9118H20.4624V11.9118ZM20.4624 12.4667H20.9075V10.4667H20.4624V12.4667ZM19.9075 11.4667V11.9118H21.9075V11.4667H19.9075ZM20.9075 10.9118H20.4624V12.9118H20.9075V10.9118ZM21.4624 11.9118V11.4667H19.4624V11.9118H21.4624Z" fill="#181F1C" mask="url(#path-9-inside-4_1364_184761)"/>
<mask id="path-11-inside-5_1364_184761" fill="white">
<path d="M20.4624 12.355H20.9075V12.8002H20.4624V12.355Z"/>
</mask>
<path d="M20.4624 12.355H20.9075V12.8002H20.4624V12.355Z" fill="#181F1C"/>
<path d="M20.4624 12.355V11.355H19.4624V12.355H20.4624ZM20.9075 12.355H21.9075V11.355H20.9075V12.355ZM20.9075 12.8002V13.8002H21.9075V12.8002H20.9075ZM20.4624 12.8002H19.4624V13.8002H20.4624V12.8002ZM20.4624 13.355H20.9075V11.355H20.4624V13.355ZM19.9075 12.355V12.8002H21.9075V12.355H19.9075ZM20.9075 11.8002H20.4624V13.8002H20.9075V11.8002ZM21.4624 12.8002V12.355H19.4624V12.8002H21.4624Z" fill="#181F1C" mask="url(#path-11-inside-5_1364_184761)"/>
<mask id="path-13-inside-6_1364_184761" fill="white">
<path d="M19.342 12.446L19.0291 12.1331L18.7112 12.446L19.0291 12.7639L19.342 12.446Z"/>
</mask>
<path d="M19.342 12.446L19.0291 12.1331L18.7112 12.446L19.0291 12.7639L19.342 12.446Z" fill="#181F1C"/>
<path d="M19.342 12.446L20.0548 13.1473L20.7505 12.4403L20.0491 11.7389L19.342 12.446ZM19.0291 12.1331L19.7362 11.426L19.0348 10.7246L18.3277 11.4203L19.0291 12.1331ZM18.7112 12.446L18.0098 11.7332L17.2912 12.4402L18.0041 13.1531L18.7112 12.446ZM19.0291 12.7639L18.322 13.471L19.0348 14.1838L19.7419 13.4653L19.0291 12.7639ZM20.0491 11.7389L19.7362 11.426L18.322 12.8402L18.6349 13.1531L20.0491 11.7389ZM18.3277 11.4203L18.0098 11.7332L19.4126 13.1588L19.7305 12.8459L18.3277 11.4203ZM18.0041 13.1531L18.322 13.471L19.7362 12.0568L19.4183 11.7389L18.0041 13.1531ZM19.7419 13.4653L20.0548 13.1473L18.6292 11.7446L18.3163 12.0625L19.7419 13.4653Z" fill="#181F1C" mask="url(#path-13-inside-6_1364_184761)"/>
<mask id="path-15-inside-7_1364_184761" fill="white">
<path d="M19.9709 13.0742L19.6529 12.7614L19.3401 13.0742L19.6529 13.3921L19.9709 13.0742Z"/>
</mask>
<path d="M19.9709 13.0742L19.6529 12.7614L19.3401 13.0742L19.6529 13.3921L19.9709 13.0742Z" fill="#181F1C"/>
<path d="M19.9709 13.0742L20.678 13.7813L21.3908 13.0685L20.6723 12.3614L19.9709 13.0742ZM19.6529 12.7614L20.3543 12.0486L19.6473 11.3528L18.9458 12.0542L19.6529 12.7614ZM19.3401 13.0742L18.633 12.3671L17.9316 13.0685L18.6273 13.7756L19.3401 13.0742ZM19.6529 13.3921L18.9402 14.0935L19.6472 14.8121L20.36 14.0992L19.6529 13.3921ZM20.6723 12.3614L20.3543 12.0486L18.9516 13.4741L19.2695 13.787L20.6723 12.3614ZM18.9458 12.0542L18.633 12.3671L20.0472 13.7813L20.36 13.4685L18.9458 12.0542ZM18.6273 13.7756L18.9402 14.0935L20.3657 12.6908L20.0529 12.3728L18.6273 13.7756ZM20.36 14.0992L20.678 13.7813L19.2638 12.3671L18.9458 12.685L20.36 14.0992Z" fill="#181F1C" mask="url(#path-15-inside-7_1364_184761)"/>
<mask id="path-17-inside-8_1364_184761" fill="white">
<path d="M22.1755 13.0742L21.8607 12.7614L21.5472 13.0742L21.8607 13.3921L22.1755 13.0742Z"/>
</mask>
<path d="M22.1755 13.0742L21.8607 12.7614L21.5472 13.0742L21.8607 13.3921L22.1755 13.0742Z" fill="#181F1C"/>
<path d="M22.1755 13.0742L22.8861 13.7777L23.5883 13.0685L22.8804 12.365L22.1755 13.0742ZM21.8607 12.7614L22.5657 12.0521L21.8593 11.35L21.1543 12.0535L21.8607 12.7614ZM21.5472 13.0742L20.8409 12.3664L20.1373 13.0685L20.8352 13.7763L21.5472 13.0742ZM21.8607 13.3921L21.1487 14.0942L21.8593 14.815L22.5714 14.0957L21.8607 13.3921ZM22.8804 12.365L22.5657 12.0521L21.1558 13.4706L21.4705 13.7835L22.8804 12.365ZM21.1543 12.0535L20.8409 12.3664L22.2536 13.782L22.5671 13.4692L21.1543 12.0535ZM20.8352 13.7763L21.1487 14.0942L22.5728 12.69L22.2593 12.3721L20.8352 13.7763ZM22.5714 14.0957L22.8861 13.7777L21.4648 12.3707L21.1501 12.6886L22.5714 14.0957Z" fill="#181F1C" mask="url(#path-17-inside-8_1364_184761)"/>
<mask id="path-19-inside-9_1364_184761" fill="white">
<path d="M22.8037 12.446L22.4889 12.1331L22.1754 12.446L22.4889 12.7639L22.8037 12.446Z"/>
</mask>
<path d="M22.8037 12.446L22.4889 12.1331L22.1754 12.446L22.4889 12.7639L22.8037 12.446Z" fill="#181F1C"/>
<path d="M22.8037 12.446L23.5143 13.1495L24.2165 12.4403L23.5086 11.7367L22.8037 12.446ZM22.4889 12.1331L23.1939 11.4239L22.4875 10.7218L21.7825 11.4253L22.4889 12.1331ZM22.1754 12.446L21.469 11.7381L20.7655 12.4403L21.4633 13.1481L22.1754 12.446ZM22.4889 12.7639L21.7768 13.466L22.4875 14.1867L23.1996 13.4674L22.4889 12.7639ZM23.5086 11.7367L23.1939 11.4239L21.7839 12.8424L22.0987 13.1552L23.5086 11.7367ZM21.7825 11.4253L21.469 11.7381L22.8818 13.1538L23.1953 12.8409L21.7825 11.4253ZM21.4633 13.1481L21.7768 13.466L23.201 12.0618L22.8875 11.7439L21.4633 13.1481ZM23.1996 13.4674L23.5143 13.1495L22.093 11.7424L21.7782 12.0604L23.1996 13.4674Z" fill="#181F1C" mask="url(#path-19-inside-9_1364_184761)"/>
<path d="M1.93707 14.1732H16.2801V17.8595H1.93707V14.1732Z" fill="#181F1C" stroke="#181F1C"/>
<path d="M6.45643 13.4079H4.29296V13.1615V13.031L4.79259 12.9302L5.01785 12.8993V12.8847L21.5577 9.54625L21.9588 9.4653V9.05614V8.53178V8.47113V8.12649V7.85402V7.83356H23.9334V10.0473H21.4785H21.426L21.3747 10.0582L6.85258 13.1415L6.45643 13.2256V13.4079Z" fill="#181F1C" stroke="#181F1C"/>
<mask id="path-23-inside-10_1364_184761" fill="white">
<path d="M16.3356 17.517H13.4799V17.8133H16.3356V17.517Z"/>
</mask>
<path d="M16.3356 17.517H13.4799V17.8133H16.3356V17.517Z" fill="#181F1C"/>
<path d="M13.4799 17.517V16.517H12.4799V17.517H13.4799ZM16.3356 17.517H17.3356V16.517H16.3356V17.517ZM16.3356 17.8133V18.8133H17.3356V17.8133H16.3356ZM13.4799 17.8133H12.4799V18.8133H13.4799V17.8133ZM13.4799 18.517H16.3356V16.517H13.4799V18.517ZM15.3356 17.517V17.8133H17.3356V17.517H15.3356ZM16.3356 16.8133H13.4799V18.8133H16.3356V16.8133ZM14.4799 17.8133V17.517H12.4799V17.8133H14.4799Z" fill="#181F1C" mask="url(#path-23-inside-10_1364_184761)"/>
<mask id="path-25-inside-11_1364_184761" fill="white">
<path d="M16.3356 16.8665H13.4799V17.1628H16.3356V16.8665Z"/>
</mask>
<path d="M16.3356 16.8665H13.4799V17.1628H16.3356V16.8665Z" fill="#181F1C"/>
<path d="M13.4799 16.8665V15.8665H12.4799V16.8665H13.4799ZM16.3356 16.8665H17.3356V15.8665H16.3356V16.8665ZM16.3356 17.1628V18.1628H17.3356V17.1628H16.3356ZM13.4799 17.1628H12.4799V18.1628H13.4799V17.1628ZM13.4799 17.8665H16.3356V15.8665H13.4799V17.8665ZM15.3356 16.8665V17.1628H17.3356V16.8665H15.3356ZM16.3356 16.1628H13.4799V18.1628H16.3356V16.1628ZM14.4799 17.1628V16.8665H12.4799V17.1628H14.4799Z" fill="#181F1C" mask="url(#path-25-inside-11_1364_184761)"/>
<mask id="path-27-inside-12_1364_184761" fill="white">
<path d="M16.3356 16.2161H13.4799V16.5124H16.3356V16.2161Z"/>
</mask>
<path d="M16.3356 16.2161H13.4799V16.5124H16.3356V16.2161Z" fill="#181F1C"/>
<path d="M13.4799 16.2161V15.2161H12.4799V16.2161H13.4799ZM16.3356 16.2161H17.3356V15.2161H16.3356V16.2161ZM16.3356 16.5124V17.5124H17.3356V16.5124H16.3356ZM13.4799 16.5124H12.4799V17.5124H13.4799V16.5124ZM13.4799 17.2161H16.3356V15.2161H13.4799V17.2161ZM15.3356 16.2161V16.5124H17.3356V16.2161H15.3356ZM16.3356 15.5124H13.4799V17.5124H16.3356V15.5124ZM14.4799 16.5124V16.2161H12.4799V16.5124H14.4799Z" fill="#181F1C" mask="url(#path-27-inside-12_1364_184761)"/>
<mask id="path-29-inside-13_1364_184761" fill="white">
<path d="M16.3356 15.5656H13.4799V15.8619H16.3356V15.5656Z"/>
</mask>
<path d="M16.3356 15.5656H13.4799V15.8619H16.3356V15.5656Z" fill="#181F1C"/>
<path d="M13.4799 15.5656V14.5656H12.4799V15.5656H13.4799ZM16.3356 15.5656H17.3356V14.5656H16.3356V15.5656ZM16.3356 15.8619V16.8619H17.3356V15.8619H16.3356ZM13.4799 15.8619H12.4799V16.8619H13.4799V15.8619ZM13.4799 16.5656H16.3356V14.5656H13.4799V16.5656ZM15.3356 15.5656V15.8619H17.3356V15.5656H15.3356ZM16.3356 14.8619H13.4799V16.8619H16.3356V14.8619ZM14.4799 15.8619V15.5656H12.4799V15.8619H14.4799Z" fill="#181F1C" mask="url(#path-29-inside-13_1364_184761)"/>
<mask id="path-31-inside-14_1364_184761" fill="white">
<path d="M16.3356 14.915H13.4799V15.2114H16.3356V14.915Z"/>
</mask>
<path d="M16.3356 14.915H13.4799V15.2114H16.3356V14.915Z" fill="#181F1C"/>
<path d="M13.4799 14.915V13.915H12.4799V14.915H13.4799ZM16.3356 14.915H17.3356V13.915H16.3356V14.915ZM16.3356 15.2114V16.2114H17.3356V15.2114H16.3356ZM13.4799 15.2114H12.4799V16.2114H13.4799V15.2114ZM13.4799 15.915H16.3356V13.915H13.4799V15.915ZM15.3356 14.915V15.2114H17.3356V14.915H15.3356ZM16.3356 14.2114H13.4799V16.2114H16.3356V14.2114ZM14.4799 15.2114V14.915H12.4799V15.2114H14.4799Z" fill="#181F1C" mask="url(#path-31-inside-14_1364_184761)"/>
<mask id="path-33-inside-15_1364_184761" fill="white">
<path d="M16.3356 14.2645H13.4799V14.5608H16.3356V14.2645Z"/>
</mask>
<path d="M16.3356 14.2645H13.4799V14.5608H16.3356V14.2645Z" fill="#181F1C"/>
<path d="M13.4799 14.2645V13.2645H12.4799V14.2645H13.4799ZM16.3356 14.2645H17.3356V13.2645H16.3356V14.2645ZM16.3356 14.5608V15.5608H17.3356V14.5608H16.3356ZM13.4799 14.5608H12.4799V15.5608H13.4799V14.5608ZM13.4799 15.2645H16.3356V13.2645H13.4799V15.2645ZM15.3356 14.2645V14.5608H17.3356V14.2645H15.3356ZM16.3356 13.5608H13.4799V15.5608H16.3356V13.5608ZM14.4799 14.5608V14.2645H12.4799V14.5608H14.4799Z" fill="#181F1C" mask="url(#path-33-inside-15_1364_184761)"/>
<path d="M23.661 16.3911H23.9334V20.6231H23.661V16.3911Z" fill="#181F1C" stroke="#181F1C"/>
<path d="M3.28487 7.96056C3.28742 7.92111 3.29034 7.88209 3.29358 7.84352C3.59754 8.40502 4.05484 9.00418 4.73192 9.38357L4.97252 9.51838L4.763 10.0341C4.7208 10.138 4.56638 10.5615 4.5303 11.1245C4.52123 11.2659 4.51955 11.4182 4.52951 11.5779C4.4798 11.5265 4.43115 11.4739 4.38361 11.4204L4.13075 11.1105C4.11725 11.094 4.10563 11.0783 4.09344 11.0613L4.07302 11.0327C4.06818 11.0259 4.06183 11.0171 4.05464 11.0074C3.36124 9.99098 3.22546 8.87753 3.28487 7.96056ZM5.54043 9.06015L5.42981 8.39275L5.37149 8.53629C5.36697 8.52099 5.36247 8.50563 5.358 8.49021L5.35802 8.4902L5.35676 8.48599C4.76364 6.5056 5.54693 4.68513 6.57224 3.29133C6.94375 2.78629 7.33901 2.34885 7.69436 1.99464C7.64696 2.28463 7.6078 2.60249 7.58645 2.93793C7.51628 4.04039 7.63509 5.39738 8.34921 6.57212L7.61377 7.09609L7.9039 7.50331C7.61377 7.09609 7.61362 7.0962 7.61346 7.09632L7.61308 7.09658L7.61217 7.09724L7.60966 7.09905L7.60196 7.10463L7.57631 7.12361C7.55484 7.13969 7.5248 7.1626 7.48761 7.19202C7.41331 7.2508 7.31002 7.33591 7.1892 7.44474C6.94864 7.66143 6.63287 7.97727 6.33742 8.37176C6.09693 8.69288 5.85984 9.08056 5.69245 9.51896L5.54043 9.06015ZM8.37304 7.67625L8.63028 6.98322C8.72486 7.10672 8.8272 7.22741 8.93783 7.34469L9.32832 7.75866L9.68859 7.31815C9.92157 7.03328 10.1071 6.71273 10.2381 6.36882L10.2384 6.36808C10.3299 6.12655 10.3882 5.88775 10.4211 5.65592C11.524 7.82475 11.4579 10.0203 10.4629 11.3311C10.3143 11.5207 10.1506 11.6969 9.97381 11.8581C10.0542 10.7953 9.61821 9.58639 8.75525 8.59976L8.15847 8.99644C8.15715 8.89594 8.16057 8.79532 8.16785 8.6956C8.18898 8.40635 8.24141 8.14723 8.28899 7.95997C8.31264 7.86691 8.33471 7.79309 8.35036 7.74392C8.35818 7.71937 8.36436 7.70108 8.36829 7.68972L8.3724 7.67801L8.37276 7.67701L8.37285 7.67677L8.37298 7.67642L8.37304 7.67625Z" fill="#181F1C" stroke="#181F1C"/>
</g>
<defs>
<clipPath id="clip0_1364_184761">
<rect width="25" height="25" fill="white"/>
</clipPath>
</defs>
</svg>
