<svg width="431" height="580" viewBox="0 0 431 580" fill="none" xmlns="http://www.w3.org/2000/svg">
<path d="M61.0828 390.479L12.8421 158.479V0H172.96V158.479L125.746 390.479H61.0828ZM91.8747 580C59.03 580 35.4229 574.009 21.0533 562.028C7.36803 550.047 0.525391 535.343 0.525391 517.916V498.31C0.525391 480.883 7.36803 466.178 21.0533 454.197C35.4229 442.216 59.03 436.225 91.8747 436.225C124.719 436.225 147.984 442.216 161.67 454.197C176.039 466.178 183.224 480.883 183.224 498.31V517.916C183.224 535.343 176.039 550.047 161.67 562.028C147.984 574.009 124.719 580 91.8747 580Z" fill="#E5FBFF"/>
<path d="M308.566 390.479L260.326 158.479V0H420.443V158.479L373.229 390.479H308.566ZM339.358 580C306.513 580 282.906 574.009 268.537 562.028C254.851 550.047 248.009 535.343 248.009 517.916V498.31C248.009 480.883 254.851 466.178 268.537 454.197C282.906 442.216 306.513 436.225 339.358 436.225C372.203 436.225 395.468 442.216 409.153 454.197C423.523 466.178 430.707 480.883 430.707 498.31V517.916C430.707 535.343 423.523 550.047 409.153 562.028C395.468 574.009 372.203 580 339.358 580Z" fill="#E5FBFF"/>
</svg>
