<svg width="458" height="331" viewBox="0 0 458 331" fill="none" xmlns="http://www.w3.org/2000/svg">
<path d="M270 57.6602H270.5V57.1602V33.6602H424.5V329.66H0.5V33.6602H155.5V57.1602V57.6602H156H270Z" fill="#E5FBFF" stroke="#0056A6"/>
<path d="M270 50.6401H162.47V26.6401H6.47021" stroke="#00569D" stroke-miterlimit="10"/>
<path d="M270 44.1301H168.94V20.1301H12.9399" stroke="#00569D" stroke-miterlimit="10"/>
<path d="M270 37.6101H175.41V13.6101H19.4102" stroke="#00569D" stroke-miterlimit="10"/>
<path d="M270 31.1001H181.88V7.1001H25.8799" stroke="#00569D" stroke-miterlimit="10"/>
<path d="M276.47 24.5801H188.35V0.580078H32.3501" stroke="#00569D" stroke-miterlimit="10"/>
<path d="M431.47 323.64V26.6401H276.47" stroke="#00569D" stroke-miterlimit="10"/>
<path d="M437.94 317.13V20.1301H282.94" stroke="#00569D" stroke-miterlimit="10"/>
<path d="M444.41 310.61V13.6101H289.41" stroke="#00569D" stroke-miterlimit="10"/>
<path d="M450.88 304.1V7.1001H295.88" stroke="#00569D" stroke-miterlimit="10"/>
<path d="M457.35 297.58V0.580078H302.35" stroke="#00569D" stroke-miterlimit="10"/>
</svg>
