<svg width="114" height="18" viewBox="0 0 114 18" fill="none" xmlns="http://www.w3.org/2000/svg">
<path d="M10.785 8.85465L10.785 8.85468L11.346 9.56093L11.4961 9.74995H11.7375H12.4781H12.9781V9.24995V3.62499C12.9781 3.32189 13.0951 3.03409 13.2988 2.82418C13.5021 2.61478 13.7745 2.5 14.0553 2.5C14.3361 2.5 14.6085 2.61478 14.8117 2.82418C15.0154 3.03409 15.1324 3.32189 15.1324 3.62499V7.12003V7.497L15.4949 7.60073L19.3282 8.69785C19.3284 8.69789 19.3285 8.69793 19.3286 8.69796C19.374 8.71115 19.4168 8.74002 19.4488 8.78342C19.481 8.82711 19.4998 8.88236 19.5 8.94084C19.5 8.94095 19.5 8.94107 19.5 8.94118L19.5 13.9307C19.5 13.9789 19.4872 14.0254 19.4642 14.0649L19.4642 14.065L18.0462 16.5H14.1876L7.56371 8.94409C7.54253 8.91993 7.52552 8.89084 7.5144 8.85823C7.50327 8.82559 7.49844 8.7906 7.50044 8.75546C7.50245 8.72032 7.51121 8.68641 7.52576 8.65578C7.5403 8.62518 7.56014 8.59888 7.58338 8.57792C7.81013 8.3735 8.0736 8.21892 8.35781 8.12258C8.64198 8.02625 8.94164 7.98991 9.23918 8.01544C9.53673 8.04098 9.82684 8.12796 10.0923 8.27177C10.3578 8.41562 10.5936 8.61358 10.785 8.85465Z" fill="#0056A6" stroke="#FFFEF5"/>
<path d="M28.3537 5.83744C28.549 5.64218 28.549 5.3256 28.3537 5.13033L25.1717 1.94835C24.9765 1.75309 24.6599 1.75309 24.4646 1.94835C24.2693 2.14362 24.2693 2.4602 24.4646 2.65546L27.293 5.48389L24.4646 8.31231C24.2693 8.50758 24.2693 8.82416 24.4646 9.01942C24.6599 9.21468 24.9765 9.21468 25.1717 9.01942L28.3537 5.83744ZM28.0001 4.98389H18.855V5.98389H28.0001V4.98389Z" fill="#FFFEF5"/>
<path d="M0.646304 5.83744C0.451042 5.64218 0.451042 5.3256 0.646304 5.13033L3.82828 1.94835C4.02355 1.75309 4.34013 1.75309 4.53539 1.94835C4.73065 2.14362 4.73065 2.4602 4.53539 2.65546L1.70696 5.48389L4.53539 8.31231C4.73065 8.50758 4.73065 8.82416 4.53539 9.01942C4.34013 9.21468 4.02355 9.21468 3.82828 9.01942L0.646304 5.83744ZM0.999858 4.98389H10.145V5.98389H0.999858V4.98389Z" fill="#FFFEF5"/>
<path d="M35.76 13C35.152 13 34.704 12.852 34.416 12.556C34.136 12.26 33.996 11.832 33.996 11.272V6.352H35.772V11.62H36.6V13H35.76ZM39.6021 13.12C38.9621 13.12 38.4501 12.964 38.0661 12.652C37.6901 12.332 37.5021 11.836 37.5021 11.164C37.5021 10.54 37.6821 10.056 38.0421 9.712C38.4021 9.368 38.9221 9.196 39.6021 9.196H41.5821V8.848C41.5821 8.448 41.4741 8.144 41.2581 7.936C41.0501 7.72 40.7061 7.612 40.2261 7.612C39.9941 7.612 39.7901 7.64 39.6141 7.696C39.4381 7.752 39.2781 7.828 39.1341 7.924C38.9901 8.012 38.8621 8.116 38.7501 8.236C38.6381 8.348 38.5381 8.468 38.4501 8.596L37.3221 7.612C37.6261 7.18 38.0101 6.84 38.4741 6.592C38.9381 6.336 39.5621 6.208 40.3461 6.208C41.3461 6.208 42.0981 6.428 42.6021 6.868C43.1061 7.3 43.3581 7.94 43.3581 8.788V13H41.5821V10.324H40.2381C39.6141 10.324 39.3021 10.58 39.3021 11.092V11.296C39.3021 11.544 39.3661 11.744 39.4941 11.896C39.6221 12.04 39.8101 12.112 40.0581 12.112C40.1061 12.112 40.1541 12.112 40.2021 12.112C40.2501 12.112 40.2981 12.104 40.3461 12.088L40.4661 13.036C40.4261 13.052 40.3701 13.064 40.2981 13.072C40.2341 13.088 40.1581 13.096 40.0701 13.096C39.9901 13.104 39.9061 13.108 39.8181 13.108C39.7381 13.116 39.6661 13.12 39.6021 13.12ZM37.8154 4.036H39.7354V2.98H41.0674V4.192H41.9914V2.98H43.3594V5.332H37.8154V4.036ZM41.8714 0.543999H43.3594V2.464H41.8714V0.543999ZM47.6014 13.144C47.1774 13.144 46.7854 13.088 46.4254 12.976C46.0654 12.856 45.7534 12.696 45.4894 12.496C45.2334 12.288 45.0294 12.044 44.8774 11.764C44.7334 11.484 44.6614 11.176 44.6614 10.84V10.252C44.6614 9.924 44.7494 9.664 44.9254 9.472C45.1094 9.28 45.3814 9.184 45.7414 9.184H47.1814V10.492H46.2574V10.684C46.2574 11.044 46.3774 11.32 46.6174 11.512C46.8574 11.696 47.2054 11.788 47.6614 11.788C48.0694 11.788 48.3814 11.652 48.5974 11.38C48.8214 11.1 48.9334 10.72 48.9334 10.24V9.136C48.9334 8.656 48.8054 8.284 48.5494 8.02C48.2934 7.748 47.9334 7.612 47.4694 7.612C47.2454 7.612 47.0334 7.64 46.8334 7.696C46.6414 7.752 46.4654 7.824 46.3054 7.912C46.1534 8 46.0174 8.1 45.8974 8.212C45.7854 8.316 45.6974 8.416 45.6334 8.512L44.5534 7.552C44.8014 7.176 45.1734 6.86 45.6694 6.604C46.1734 6.34 46.7974 6.208 47.5414 6.208C48.0454 6.208 48.4974 6.288 48.8974 6.448C49.3054 6.6 49.6494 6.828 49.9294 7.132C50.2094 7.428 50.4214 7.792 50.5654 8.224C50.7174 8.648 50.7934 9.132 50.7934 9.676C50.7934 10.22 50.7214 10.708 50.5774 11.14C50.4334 11.564 50.2214 11.928 49.9414 12.232C49.6694 12.528 49.3334 12.756 48.9334 12.916C48.5414 13.068 48.0974 13.144 47.6014 13.144ZM54.1255 13.144C53.4375 13.144 52.9135 12.92 52.5535 12.472C52.2015 12.016 52.0255 11.368 52.0255 10.528V6.352H53.8015V10.372C53.8015 10.564 53.8175 10.744 53.8495 10.912C53.8815 11.072 53.9375 11.212 54.0175 11.332C54.0975 11.444 54.2055 11.536 54.3415 11.608C54.4855 11.672 54.6615 11.704 54.8695 11.704C55.0135 11.704 55.1575 11.684 55.3015 11.644C55.4535 11.596 55.5855 11.528 55.6975 11.44C55.8095 11.352 55.9015 11.244 55.9735 11.116C56.0455 10.988 56.0815 10.84 56.0815 10.672V6.352H57.8575V11.62H58.4455V13H57.3775C56.6575 13 56.2855 12.588 56.2615 11.764H56.1775C56.1135 11.948 56.0255 12.124 55.9135 12.292C55.8095 12.452 55.6735 12.596 55.5055 12.724C55.3455 12.852 55.1495 12.952 54.9175 13.024C54.6935 13.104 54.4295 13.144 54.1255 13.144ZM62.2958 13.144C61.8318 13.144 61.4158 13.064 61.0478 12.904C60.6798 12.744 60.3678 12.516 60.1118 12.22C59.8558 11.924 59.6598 11.564 59.5238 11.14C59.3878 10.708 59.3198 10.22 59.3198 9.676C59.3198 9.148 59.3958 8.672 59.5478 8.248C59.6998 7.816 59.9158 7.452 60.1958 7.156C60.4838 6.852 60.8278 6.62 61.2278 6.46C61.6278 6.292 62.0758 6.208 62.5718 6.208C63.0438 6.208 63.4718 6.276 63.8558 6.412C64.2398 6.54 64.5638 6.728 64.8278 6.976C65.0998 7.224 65.3078 7.524 65.4518 7.876C65.6038 8.228 65.6798 8.624 65.6798 9.064V13H63.9038V9.148C63.9038 8.66 63.7838 8.284 63.5438 8.02C63.3118 7.748 62.9838 7.612 62.5598 7.612C62.1278 7.612 61.7878 7.756 61.5398 8.044C61.2998 8.324 61.1798 8.716 61.1798 9.22V10.108C61.1798 11.196 61.6198 11.74 62.4998 11.74C62.5798 11.74 62.6478 11.74 62.7038 11.74C62.7678 11.732 62.8318 11.72 62.8958 11.704L63.0998 13.072C62.9798 13.104 62.8398 13.124 62.6798 13.132C62.5198 13.14 62.3918 13.144 62.2958 13.144ZM63.6436 17.296C63.2996 17.296 63.0116 17.256 62.7796 17.176C62.5396 17.104 62.3476 16.996 62.2036 16.852C62.0596 16.716 61.9556 16.552 61.8916 16.36C61.8276 16.176 61.7956 15.968 61.7956 15.736V15.388H61.0276V14.248H61.9756C62.3756 14.248 62.6636 14.324 62.8396 14.476C63.0076 14.628 63.0916 14.832 63.0916 15.088V15.484C63.0916 15.932 63.2796 16.156 63.6556 16.156C63.8636 16.156 64.0116 16.1 64.0996 15.988C64.1876 15.884 64.2316 15.716 64.2316 15.484V14.248H65.6836V15.34C65.6836 15.916 65.5196 16.384 65.1916 16.744C64.8556 17.112 64.3396 17.296 63.6436 17.296ZM69.1936 13C68.5856 13 68.1376 12.852 67.8496 12.556C67.5696 12.26 67.4296 11.832 67.4296 11.272V6.352H69.2056V11.62H70.0336V13H69.1936ZM70.9957 6.352H72.6157L72.9277 9.82L72.9997 10.912H73.0957L73.3357 9.82L74.2357 6.352H75.4117L76.3117 9.82L76.5517 10.912H76.6357L76.6717 9.82L77.0317 6.352H78.6517L77.7517 13H75.8677L75.0037 9.1L74.8357 8.164H74.7997L74.6077 9.1L73.7317 13H71.8837L70.9957 6.352ZM73.124 4.036H78.668V5.332H73.124V4.036ZM77.18 0.543999H78.668V2.464H77.18V0.543999ZM83.8848 13.144C83.5968 13.144 83.3448 13.108 83.1288 13.036C82.9208 12.964 82.7368 12.872 82.5768 12.76C82.4248 12.64 82.2968 12.504 82.1928 12.352C82.0968 12.2 82.0208 12.044 81.9648 11.884H81.9048V13H80.1288V6.352H81.9048V10.672C81.9048 10.84 81.9408 10.988 82.0128 11.116C82.0848 11.244 82.1768 11.352 82.2888 11.44C82.4088 11.528 82.5408 11.596 82.6848 11.644C82.8368 11.684 82.9848 11.704 83.1288 11.704C83.3528 11.704 83.5368 11.668 83.6808 11.596C83.8328 11.524 83.9488 11.428 84.0288 11.308C84.1088 11.18 84.1648 11.036 84.1968 10.876C84.2288 10.716 84.2448 10.548 84.2448 10.372V6.352H86.0208V10.528C86.0208 11.368 85.8408 12.016 85.4808 12.472C85.1208 12.92 84.5888 13.144 83.8848 13.144ZM89.5373 13C88.9293 13 88.4813 12.852 88.1933 12.556C87.9133 12.26 87.7733 11.832 87.7733 11.272V6.352H89.5493V11.62H90.3773V13H89.5373ZM94.2794 13.144C93.2794 13.144 92.5114 12.856 91.9754 12.28C91.4394 11.696 91.1714 10.82 91.1714 9.652C91.1714 8.524 91.3474 7.668 91.6994 7.084C92.0594 6.5 92.5914 6.208 93.2954 6.208C93.6874 6.208 94.0034 6.312 94.2434 6.52C94.4914 6.728 94.6474 7.024 94.7114 7.408H94.7954C94.8594 7.024 95.0314 6.728 95.3114 6.52C95.5914 6.312 95.9474 6.208 96.3794 6.208C96.8834 6.208 97.2874 6.38 97.5914 6.724C97.9034 7.06 98.0594 7.532 98.0594 8.14V13H96.2834V8.392C96.2834 8.152 96.2394 7.972 96.1514 7.852C96.0634 7.732 95.9434 7.672 95.7914 7.672C95.6074 7.672 95.4754 7.752 95.3954 7.912C95.3154 8.072 95.2594 8.28 95.2274 8.536H94.1714C94.1394 8.28 94.0874 8.072 94.0154 7.912C93.9434 7.752 93.8154 7.672 93.6314 7.672C93.4154 7.672 93.2594 7.78 93.1634 7.996C93.0754 8.212 93.0314 8.528 93.0314 8.944V10.252C93.0314 10.468 93.0554 10.664 93.1034 10.84C93.1514 11.016 93.2314 11.168 93.3434 11.296C93.4634 11.416 93.6194 11.512 93.8114 11.584C94.0034 11.648 94.2474 11.68 94.5434 11.68C94.6794 11.68 94.8154 11.664 94.9514 11.632L95.1554 13.048C95.0674 13.08 94.9354 13.104 94.7594 13.12C94.5834 13.136 94.4234 13.144 94.2794 13.144ZM92.5185 4.036H98.0625V5.332H92.5185V4.036ZM103.397 13.144C103.109 13.144 102.857 13.108 102.641 13.036C102.433 12.964 102.249 12.872 102.089 12.76C101.937 12.64 101.809 12.504 101.705 12.352C101.609 12.2 101.533 12.044 101.477 11.884H101.417V13H99.6405V6.352H101.417V10.672C101.417 10.84 101.453 10.988 101.525 11.116C101.597 11.244 101.689 11.352 101.801 11.44C101.921 11.528 102.053 11.596 102.197 11.644C102.349 11.684 102.497 11.704 102.641 11.704C102.865 11.704 103.049 11.668 103.193 11.596C103.345 11.524 103.461 11.428 103.541 11.308C103.621 11.18 103.677 11.036 103.709 10.876C103.741 10.716 103.757 10.548 103.757 10.372V6.352H105.533V10.528C105.533 11.368 105.353 12.016 104.993 12.472C104.633 12.92 104.101 13.144 103.397 13.144Z" fill="#FFFEF5"/>
</svg>
