<svg width="33" height="34" viewBox="0 0 33 34" fill="none" xmlns="http://www.w3.org/2000/svg">
<rect x="6.10352e-05" width="33" height="34" fill="#E0FD6A"/>
<path d="M15.5801 19.84V16.56C16.6734 16.5067 17.5267 16.24 18.1401 15.76C18.7667 15.28 19.0801 14.62 19.0801 13.78V13.5C19.0801 12.82 18.8667 12.28 18.4401 11.88C18.0134 11.4667 17.4401 11.26 16.7201 11.26C15.9467 11.26 15.3267 11.48 14.8601 11.92C14.4067 12.36 14.1001 12.92 13.9401 13.6L12.4601 13.04C12.5801 12.6133 12.7534 12.2067 12.9801 11.82C13.2201 11.42 13.5134 11.0733 13.8601 10.78C14.2201 10.4733 14.6401 10.2333 15.1201 10.06C15.6001 9.88667 16.1534 9.8 16.7801 9.8C18.0201 9.8 19.0001 10.14 19.7201 10.82C20.4401 11.5 20.8001 12.42 20.8001 13.58C20.8001 14.22 20.6867 14.78 20.4601 15.26C20.2467 15.7267 19.9667 16.1267 19.6201 16.46C19.2734 16.7933 18.8801 17.06 18.4401 17.26C18.0001 17.46 17.5601 17.6 17.1201 17.68V19.84H15.5801ZM16.3601 24.24C15.9334 24.24 15.6201 24.1333 15.4201 23.92C15.2334 23.7067 15.1401 23.4267 15.1401 23.08V22.82C15.1401 22.4733 15.2334 22.1933 15.4201 21.98C15.6201 21.7667 15.9334 21.66 16.3601 21.66C16.7867 21.66 17.0934 21.7667 17.2801 21.98C17.4801 22.1933 17.5801 22.4733 17.5801 22.82V23.08C17.5801 23.4267 17.4801 23.7067 17.2801 23.92C17.0934 24.1333 16.7867 24.24 16.3601 24.24Z" fill="#0056A6"/>
<circle cx="17.0001" cy="17" r="12.5" stroke="#0056A6"/>
</svg>
