<svg width="225" height="119" viewBox="0 0 225 119" fill="none" xmlns="http://www.w3.org/2000/svg">
<g clip-path="url(#clip0_1345_67687)">
<path d="M17.3847 118.542H224.731V17.7217" stroke="#D7FFB7" stroke-width="0.5" stroke-miterlimit="10"/>
<path d="M13.0412 114.115H220.387V13.2887" stroke="#D7FFB7" stroke-width="0.5" stroke-miterlimit="10"/>
<path d="M8.69235 109.682H216.039V8.86087" stroke="#D7FFB7" stroke-width="0.5" stroke-miterlimit="10"/>
<path d="M4.34888 105.254H211.695V4.43313" stroke="#D7FFB7" stroke-width="0.5" stroke-miterlimit="10"/>
<path d="M207.346 100.826H0V0.00540161H207.346V100.826Z" fill="#E5FBFF"/>
</g>
<path d="M19.7077 35.8315C18.6944 35.8315 17.9477 35.5849 17.4677 35.0915C17.0011 34.5982 16.7677 33.8849 16.7677 32.9515V30.0115L15.0277 29.3115C15.0811 28.5782 15.2544 27.9182 15.5477 27.3315C15.8544 26.7315 16.2544 26.2249 16.7477 25.8115C17.2411 25.3982 17.8211 25.0782 18.4877 24.8515C19.1677 24.6249 19.9077 24.5115 20.7077 24.5115C21.5211 24.5115 22.2477 24.6249 22.8877 24.8515C23.5411 25.0649 24.0944 25.3782 24.5477 25.7915C25.0011 26.1915 25.3477 26.6849 25.5877 27.2715C25.8411 27.8449 25.9677 28.4849 25.9677 29.1915V35.8315H23.0077V29.5715C23.0077 28.7182 22.7877 28.0515 22.3477 27.5715C21.9211 27.0915 21.2877 26.8515 20.4477 26.8515C19.8077 26.8515 19.2544 26.9849 18.7877 27.2515C18.3344 27.5182 18.0011 27.8515 17.7877 28.2515L18.4877 28.5115C18.9677 28.6982 19.2944 28.9115 19.4677 29.1515C19.6411 29.3915 19.7277 29.7515 19.7277 30.2315V33.5315H20.7077V35.8315H19.7077ZM31.9807 36.0715C30.834 36.0715 29.9607 35.6982 29.3607 34.9515C28.774 34.1915 28.4807 33.1115 28.4807 31.7115V24.7515H31.4407V31.4515C31.4407 31.7715 31.4674 32.0715 31.5207 32.3515C31.574 32.6182 31.6674 32.8515 31.8007 33.0515C31.934 33.2382 32.114 33.3915 32.3407 33.5115C32.5807 33.6182 32.874 33.6715 33.2207 33.6715C33.4607 33.6715 33.7007 33.6382 33.9407 33.5715C34.194 33.4915 34.414 33.3782 34.6007 33.2315C34.7874 33.0849 34.9407 32.9049 35.0607 32.6915C35.1807 32.4782 35.2407 32.2315 35.2407 31.9515V24.7515H38.2007V33.5315H39.1807V35.8315H37.4007C36.2007 35.8315 35.5807 35.1449 35.5407 33.7715H35.4007C35.294 34.0782 35.1474 34.3715 34.9607 34.6515C34.7874 34.9182 34.5607 35.1582 34.2807 35.3715C34.014 35.5849 33.6874 35.7515 33.3007 35.8715C32.9274 36.0049 32.4874 36.0715 31.9807 36.0715ZM44.5979 36.0715C43.4512 36.0715 42.5779 35.6982 41.9779 34.9515C41.3912 34.1915 41.0979 33.1115 41.0979 31.7115V24.7515H44.0579V31.4515C44.0579 31.7715 44.0846 32.0715 44.1379 32.3515C44.1912 32.6182 44.2846 32.8515 44.4179 33.0515C44.5512 33.2382 44.7312 33.3915 44.9579 33.5115C45.1979 33.6182 45.4912 33.6715 45.8379 33.6715C46.0779 33.6715 46.3179 33.6382 46.5579 33.5715C46.8112 33.4915 47.0312 33.3782 47.2179 33.2315C47.4046 33.0849 47.5579 32.9049 47.6779 32.6915C47.7979 32.4782 47.8579 32.2315 47.8579 31.9515V24.7515H50.8179V33.5315H51.7979V35.8315H50.0179C48.8179 35.8315 48.1979 35.1449 48.1579 33.7715H48.0179C47.9112 34.0782 47.7646 34.3715 47.5779 34.6515C47.4046 34.9182 47.1779 35.1582 46.8979 35.3715C46.6312 35.5849 46.3046 35.7515 45.9179 35.8715C45.5446 36.0049 45.1046 36.0715 44.5979 36.0715ZM66.5082 35.8315C65.4949 35.8315 64.7482 35.5849 64.2682 35.0915C63.8015 34.5982 63.5682 33.8849 63.5682 32.9515V24.7515H66.5282V33.5315H67.9082V35.8315H66.5082ZM72.9116 36.0315C71.845 36.0315 70.9916 35.7715 70.3516 35.2515C69.725 34.7182 69.4116 33.8915 69.4116 32.7715C69.4116 31.7315 69.7116 30.9249 70.3116 30.3515C70.9116 29.7782 71.7783 29.4915 72.9116 29.4915H76.2116V28.9115C76.2116 28.2449 76.0316 27.7382 75.6716 27.3915C75.325 27.0315 74.7516 26.8515 73.9516 26.8515C73.565 26.8515 73.225 26.8982 72.9316 26.9915C72.6383 27.0849 72.3716 27.2115 72.1316 27.3715C71.8916 27.5182 71.6783 27.6915 71.4916 27.8915C71.305 28.0782 71.1383 28.2782 70.9916 28.4915L69.1116 26.8515C69.6183 26.1315 70.2583 25.5649 71.0316 25.1515C71.805 24.7249 72.845 24.5115 74.1516 24.5115C75.5383 24.5115 76.6516 24.7782 77.4916 25.3115C77.5983 24.9249 77.7916 24.6382 78.0716 24.4515C78.365 24.2649 78.7316 24.1715 79.1716 24.1715H81.3716V26.6115H78.7316V26.6915C79.025 27.2649 79.1716 27.9715 79.1716 28.8115V35.8315H76.2116V31.3715H73.9716C72.9316 31.3715 72.4116 31.7982 72.4116 32.6515V32.9915C72.4116 33.4049 72.5183 33.7382 72.7316 33.9915C72.945 34.2315 73.2583 34.3515 73.6716 34.3515C73.7516 34.3515 73.8316 34.3515 73.9116 34.3515C73.9916 34.3515 74.0716 34.3382 74.1516 34.3115L74.3516 35.8915C74.285 35.9182 74.1916 35.9382 74.0716 35.9515C73.965 35.9782 73.8383 35.9915 73.6916 35.9915C73.5583 36.0049 73.4183 36.0115 73.2716 36.0115C73.1383 36.0249 73.0183 36.0315 72.9116 36.0315ZM87.3846 28.4915C87.3846 27.9849 87.2513 27.5849 86.9846 27.2915C86.7313 26.9982 86.3046 26.8515 85.7046 26.8515C85.1313 26.8515 84.6779 26.9782 84.3446 27.2315C84.0113 27.4715 83.7313 27.7515 83.5046 28.0715L81.7446 26.5115C82.1713 25.8849 82.6979 25.3982 83.3246 25.0515C83.9646 24.6915 84.8313 24.5115 85.9246 24.5115C87.3779 24.5115 88.4779 24.8382 89.2246 25.4915C89.9713 26.1449 90.3446 27.0982 90.3446 28.3515V35.8315H87.3846V28.4915ZM96.1957 35.8315C95.1824 35.8315 94.4357 35.5849 93.9557 35.0915C93.489 34.5982 93.2557 33.8849 93.2557 32.9515V22.6915C93.2557 21.9182 93.449 21.3315 93.8357 20.9315C94.2224 20.5315 94.6757 20.2649 95.1957 20.1315V20.0315H90.8957V17.7315H98.1757V20.0315H97.8957C97.3757 20.0315 96.9624 20.1915 96.6557 20.5115C96.3624 20.8315 96.2157 21.2849 96.2157 21.8715V33.5315H97.5957V35.8315H96.1957ZM99.1991 24.7515H101.899L102.419 30.5315L102.539 32.3515H102.699L103.099 30.5315L104.599 24.7515H106.559L108.059 30.5315L108.459 32.3515H108.599L108.659 30.5315L109.659 20.8915H112.499L110.459 35.8315H107.319L105.879 29.3315L105.599 27.7715H105.539L105.219 29.3315L103.759 35.8315H100.679L99.1991 24.7515ZM122.368 35.8315C121.354 35.8315 120.608 35.5849 120.128 35.0915C119.661 34.5982 119.428 33.8849 119.428 32.9515V23.4915L116.748 22.3915V21.7515C116.748 21.0982 116.861 20.5115 117.088 19.9915C117.301 19.4582 117.608 19.0115 118.008 18.6515C118.421 18.2782 118.914 17.9915 119.488 17.7915C120.061 17.5915 120.701 17.4915 121.408 17.4915C122.408 17.4915 123.228 17.6449 123.868 17.9515C124.508 18.2582 125.054 18.6849 125.508 19.2315L123.788 20.8515C123.588 20.5849 123.294 20.3449 122.908 20.1315C122.521 19.9182 122.048 19.8115 121.488 19.8115C120.888 19.8115 120.374 19.9315 119.948 20.1715C119.521 20.3982 119.281 20.7515 119.228 21.2315L121.148 21.9915C121.628 22.1782 121.954 22.3915 122.128 22.6315C122.301 22.8715 122.388 23.2315 122.388 23.7115V33.5315H123.768V35.8315H122.368ZM129.771 36.0715C128.704 36.0715 127.798 35.8982 127.051 35.5515C126.318 35.2049 125.671 34.7182 125.111 34.0915L126.891 32.3715C127.278 32.7982 127.718 33.1449 128.211 33.4115C128.718 33.6649 129.284 33.7915 129.911 33.7915C130.524 33.7915 130.971 33.6915 131.251 33.4915C131.531 33.2915 131.671 33.0315 131.671 32.7115C131.671 32.3649 131.558 32.1182 131.331 31.9715C131.104 31.8115 130.798 31.7049 130.411 31.6515L129.271 31.5115C128.058 31.3649 127.124 31.0115 126.471 30.4515C125.831 29.8915 125.511 29.1115 125.511 28.1115C125.511 27.5515 125.611 27.0515 125.811 26.6115C126.024 26.1715 126.318 25.7982 126.691 25.4915C127.078 25.1715 127.531 24.9315 128.051 24.7715C128.584 24.5982 129.171 24.5115 129.811 24.5115C130.344 24.5115 130.824 24.5515 131.251 24.6315C131.678 24.6982 132.064 24.8049 132.411 24.9515C132.771 25.0982 133.098 25.2782 133.391 25.4915C133.684 25.7049 133.971 25.9515 134.251 26.2315L132.511 27.9515C132.191 27.6049 131.798 27.3249 131.331 27.1115C130.864 26.8982 130.378 26.7915 129.871 26.7915C129.324 26.7915 128.924 26.8915 128.671 27.0915C128.418 27.2915 128.291 27.5515 128.291 27.8715C128.291 28.1915 128.391 28.4515 128.591 28.6515C128.804 28.8382 129.164 28.9649 129.671 29.0315L130.811 29.1915C131.384 29.2715 131.891 29.3915 132.331 29.5515C132.784 29.7115 133.164 29.9249 133.471 30.1915C133.791 30.4449 134.031 30.7582 134.191 31.1315C134.364 31.5049 134.451 31.9515 134.451 32.4715C134.451 32.9915 134.338 33.4715 134.111 33.9115C133.884 34.3515 133.564 34.7315 133.151 35.0515C132.751 35.3715 132.258 35.6249 131.671 35.8115C131.098 35.9849 130.464 36.0715 129.771 36.0715ZM135.176 27.9115H138.056L140.456 33.4915H140.556C141.022 33.4915 141.389 33.2915 141.656 32.8915C141.922 32.4915 142.056 31.9315 142.056 31.2115V29.3715C142.056 28.6515 141.916 28.0915 141.636 27.6915C141.356 27.2915 140.969 27.0915 140.476 27.0915H139.736V24.7515H140.536C141.256 24.7515 141.896 24.8782 142.456 25.1315C143.029 25.3849 143.509 25.7515 143.896 26.2315C144.296 26.6982 144.602 27.2782 144.816 27.9715C145.029 28.6515 145.136 29.4249 145.136 30.2915C145.136 31.1582 145.029 31.9382 144.816 32.6315C144.616 33.3115 144.316 33.8915 143.916 34.3715C143.529 34.8382 143.049 35.1982 142.476 35.4515C141.916 35.7049 141.282 35.8315 140.576 35.8315H138.636L135.176 27.9115ZM150.532 35.8315C149.518 35.8315 148.772 35.5849 148.292 35.0915C147.825 34.5982 147.592 33.8849 147.592 32.9515V24.7515H150.552V33.5315H151.932V35.8315H150.532ZM157.935 36.0715C156.868 36.0715 155.962 35.8982 155.215 35.5515C154.482 35.2049 153.835 34.7182 153.275 34.0915L155.055 32.3715C155.442 32.7982 155.882 33.1449 156.375 33.4115C156.882 33.6649 157.448 33.7915 158.075 33.7915C158.688 33.7915 159.135 33.6915 159.415 33.4915C159.695 33.2915 159.835 33.0315 159.835 32.7115C159.835 32.3649 159.722 32.1182 159.495 31.9715C159.268 31.8115 158.962 31.7049 158.575 31.6515L157.435 31.5115C156.222 31.3649 155.288 31.0115 154.635 30.4515C153.995 29.8915 153.675 29.1115 153.675 28.1115C153.675 27.5515 153.775 27.0515 153.975 26.6115C154.188 26.1715 154.482 25.7982 154.855 25.4915C155.242 25.1715 155.695 24.9315 156.215 24.7715C156.748 24.5982 157.335 24.5115 157.975 24.5115C158.508 24.5115 158.988 24.5515 159.415 24.6315C159.842 24.6982 160.228 24.8049 160.575 24.9515C160.935 25.0982 161.262 25.2782 161.555 25.4915C161.848 25.7049 162.135 25.9515 162.415 26.2315L160.675 27.9515C160.355 27.6049 159.962 27.3249 159.495 27.1115C159.028 26.8982 158.542 26.7915 158.035 26.7915C157.488 26.7915 157.088 26.8915 156.835 27.0915C156.582 27.2915 156.455 27.5515 156.455 27.8715C156.455 28.1915 156.555 28.4515 156.755 28.6515C156.968 28.8382 157.328 28.9649 157.835 29.0315L158.975 29.1915C159.548 29.2715 160.055 29.3915 160.495 29.5515C160.948 29.7115 161.328 29.9249 161.635 30.1915C161.955 30.4449 162.195 30.7582 162.355 31.1315C162.528 31.5049 162.615 31.9515 162.615 32.4715C162.615 32.9915 162.502 33.4715 162.275 33.9115C162.048 34.3515 161.728 34.7315 161.315 35.0515C160.915 35.3715 160.422 35.6249 159.835 35.8115C159.262 35.9849 158.628 36.0715 157.935 36.0715ZM153.274 20.8915H159.834V19.1315H162.514V23.0515H153.274V20.8915ZM169.03 36.0715C167.577 36.0715 166.437 35.7915 165.61 35.2315C164.784 34.6582 164.37 33.8515 164.37 32.8115C164.37 32.1715 164.557 31.6249 164.93 31.1715C165.317 30.7182 165.81 30.3982 166.41 30.2115V30.0915C165.744 29.9182 165.224 29.5915 164.85 29.1115C164.477 28.6315 164.29 28.0582 164.29 27.3915C164.29 26.9649 164.37 26.5782 164.53 26.2315C164.69 25.8715 164.91 25.5649 165.19 25.3115C165.484 25.0582 165.83 24.8649 166.23 24.7315C166.644 24.5849 167.09 24.5115 167.57 24.5115C167.877 24.5115 168.224 24.5449 168.61 24.6115C169.01 24.6649 169.364 24.7782 169.67 24.9515L169.05 27.0715C168.89 26.9782 168.73 26.9182 168.57 26.8915C168.424 26.8515 168.264 26.8315 168.09 26.8315C167.784 26.8315 167.51 26.9249 167.27 27.1115C167.044 27.2849 166.93 27.5449 166.93 27.8915C166.93 28.6249 167.397 28.9915 168.33 28.9915H169.37V30.9515H168.33C168.037 30.9515 167.797 31.0515 167.61 31.2515C167.424 31.4382 167.33 31.6915 167.33 32.0115V32.3915C167.33 32.8449 167.484 33.1849 167.79 33.4115C168.097 33.6249 168.544 33.7315 169.13 33.7315C169.797 33.7315 170.324 33.5515 170.71 33.1915C171.097 32.8182 171.29 32.2782 171.29 31.5715V24.7515H174.25V31.9515C174.25 32.5782 174.124 33.1449 173.87 33.6515C173.63 34.1582 173.284 34.5915 172.83 34.9515C172.377 35.3115 171.83 35.5915 171.19 35.7915C170.55 35.9782 169.83 36.0715 169.03 36.0715ZM180.262 36.0715C179.115 36.0715 178.242 35.6982 177.642 34.9515C177.055 34.1915 176.762 33.1115 176.762 31.7115V24.7515H179.722V31.4515C179.722 31.7715 179.749 32.0715 179.802 32.3515C179.855 32.6182 179.949 32.8515 180.082 33.0515C180.215 33.2382 180.395 33.3915 180.622 33.5115C180.862 33.6182 181.155 33.6715 181.502 33.6715C181.742 33.6715 181.982 33.6382 182.222 33.5715C182.475 33.4915 182.695 33.3782 182.882 33.2315C183.069 33.0849 183.222 32.9049 183.342 32.6915C183.462 32.4782 183.522 32.2315 183.522 31.9515V24.7515H186.482V33.5315H187.462V35.8315H185.682C184.482 35.8315 183.862 35.1449 183.822 33.7715H183.682C183.575 34.0782 183.429 34.3715 183.242 34.6515C183.069 34.9182 182.842 35.1582 182.562 35.3715C182.295 35.5849 181.969 35.7515 181.582 35.8715C181.209 36.0049 180.769 36.0715 180.262 36.0715ZM45.5468 47.7515H48.2468L48.7668 53.5315L48.8868 55.3515H49.0468L49.4468 53.5315L50.9468 47.7515H52.9068L54.4068 53.5315L54.8068 55.3515H54.9468L55.0068 53.5315L55.6068 47.7515H58.3068L56.8068 58.8315H53.6668L52.2268 52.3315L51.9468 50.7715H51.8868L51.5668 52.3315L50.1068 58.8315H47.0268L45.5468 47.7515ZM49.094 43.8915H52.294V42.1315H54.514V44.1515H56.054V42.1315H58.334V46.0515H49.094V43.8915ZM54.214 39.5715H55.374V38.8915C55.374 38.7049 55.334 38.5715 55.254 38.4915C55.1607 38.3982 54.994 38.3515 54.754 38.3515H54.214V36.6715H55.734C56.294 36.6715 56.7273 36.7915 57.034 37.0315C57.3273 37.2715 57.474 37.6049 57.474 38.0315C57.474 38.3115 57.3873 38.5849 57.214 38.8515C57.0407 39.1049 56.814 39.2982 56.534 39.4315V39.5715H59.654V41.2715H54.214V39.5715ZM64.1487 59.0715C63.002 59.0715 62.1287 58.6982 61.5287 57.9515C60.942 57.1915 60.6487 56.1115 60.6487 54.7115V47.7515H63.6087V54.4515C63.6087 54.7715 63.6353 55.0715 63.6887 55.3515C63.742 55.6182 63.8353 55.8515 63.9687 56.0515C64.102 56.2382 64.282 56.3915 64.5087 56.5115C64.7487 56.6182 65.042 56.6715 65.3887 56.6715C65.6287 56.6715 65.8687 56.6382 66.1087 56.5715C66.362 56.4915 66.582 56.3782 66.7687 56.2315C66.9553 56.0849 67.1087 55.9049 67.2287 55.6915C67.3487 55.4782 67.4087 55.2315 67.4087 54.9515V47.7515H70.3687V56.5315H71.3487V58.8315H69.5687C68.3687 58.8315 67.7487 58.1449 67.7087 56.7715H67.5687C67.462 57.0782 67.3153 57.3715 67.1287 57.6515C66.9553 57.9182 66.7287 58.1582 66.4487 58.3715C66.182 58.5849 65.8553 58.7515 65.4687 58.8715C65.0953 59.0049 64.6553 59.0715 64.1487 59.0715ZM73.3859 47.7515H76.3459V49.6115H76.4459C76.5392 49.3315 76.6725 49.0649 76.8459 48.8115C77.0192 48.5582 77.2325 48.3382 77.4859 48.1515C77.7525 47.9515 78.0659 47.7982 78.4259 47.6915C78.7859 47.5715 79.2059 47.5115 79.6859 47.5115C80.8725 47.5115 81.7659 47.8915 82.3659 48.6515C82.9792 49.3982 83.2859 50.4715 83.2859 51.8715V58.8315H80.3259V52.1315C80.3259 51.4115 80.1792 50.8649 79.8859 50.4915C79.6059 50.1049 79.1259 49.9115 78.4459 49.9115C78.1792 49.9115 77.9192 49.9515 77.6659 50.0315C77.4259 50.0982 77.2059 50.2049 77.0059 50.3515C76.8059 50.4982 76.6459 50.6782 76.5259 50.8915C76.4059 51.1049 76.3459 51.3515 76.3459 51.6315V58.8315H73.3859V47.7515ZM74.0549 43.8915H80.6149V42.1315H83.2949V46.0515H74.0549V43.8915ZM80.8149 38.0715H83.2949V41.2715H80.8149V38.0715ZM89.0249 59.0315C87.9583 59.0315 87.1049 58.7715 86.4649 58.2515C85.8383 57.7182 85.5249 56.8915 85.5249 55.7715C85.5249 54.7315 85.8249 53.9249 86.4249 53.3515C87.0249 52.7782 87.8916 52.4915 89.0249 52.4915H92.3249V51.9115C92.3249 51.2449 92.1449 50.7382 91.7849 50.3915C91.4383 50.0315 90.8649 49.8515 90.0649 49.8515C89.6783 49.8515 89.3383 49.8982 89.0449 49.9915C88.7516 50.0849 88.4849 50.2115 88.2449 50.3715C88.0049 50.5182 87.7916 50.6915 87.6049 50.8915C87.4183 51.0782 87.2516 51.2782 87.1049 51.4915L85.2249 49.8515C85.7316 49.1315 86.3716 48.5649 87.1449 48.1515C87.9183 47.7249 88.9583 47.5115 90.2649 47.5115C91.6516 47.5115 92.7649 47.7782 93.6049 48.3115C93.7116 47.9249 93.9049 47.6382 94.1849 47.4515C94.4783 47.2649 94.8449 47.1715 95.2849 47.1715H97.4849V49.6115H94.8449V49.6915C95.1383 50.2649 95.2849 50.9715 95.2849 51.8115V58.8315H92.3249V54.3715H90.0849C89.0449 54.3715 88.5249 54.7982 88.5249 55.6515V55.9915C88.5249 56.4049 88.6316 56.7382 88.8449 56.9915C89.0583 57.2315 89.3716 57.3515 89.7849 57.3515C89.8649 57.3515 89.9449 57.3515 90.0249 57.3515C90.1049 57.3515 90.1849 57.3382 90.2649 57.3115L90.4649 58.8915C90.3983 58.9182 90.3049 58.9382 90.1849 58.9515C90.0783 58.9782 89.9516 58.9915 89.8049 58.9915C89.6716 59.0049 89.5316 59.0115 89.3849 59.0115C89.2516 59.0249 89.1316 59.0315 89.0249 59.0315ZM103.498 51.4915C103.498 50.9849 103.365 50.5849 103.098 50.2915C102.845 49.9982 102.418 49.8515 101.818 49.8515C101.245 49.8515 100.791 49.9782 100.458 50.2315C100.125 50.4715 99.8446 50.7515 99.6179 51.0715L97.8579 49.5115C98.2846 48.8849 98.8112 48.3982 99.4379 48.0515C100.078 47.6915 100.945 47.5115 102.038 47.5115C103.491 47.5115 104.591 47.8382 105.338 48.4915C106.085 49.1449 106.458 50.0982 106.458 51.3515V58.8315H103.498V51.4915ZM108.889 54.6315H111.529V56.6315H115.349V55.1115C115.349 54.5915 115.216 54.2249 114.949 54.0115C114.696 53.7982 114.256 53.6649 113.629 53.6115L108.689 53.2115V51.5915C108.689 50.2982 109.102 49.2982 109.929 48.5915C110.769 47.8715 111.989 47.5115 113.589 47.5115C114.642 47.5115 115.536 47.6515 116.269 47.9315C117.016 48.2115 117.656 48.5849 118.189 49.0515L116.789 50.9515C116.442 50.6049 115.969 50.3249 115.369 50.1115C114.782 49.8982 114.122 49.7915 113.389 49.7915C112.722 49.7915 112.209 49.9249 111.849 50.1915C111.489 50.4582 111.309 50.8115 111.309 51.2515L114.009 51.4915C114.689 51.5582 115.289 51.6582 115.809 51.7915C116.329 51.9115 116.762 52.1049 117.109 52.3715C117.469 52.6249 117.736 52.9582 117.909 53.3715C118.096 53.7715 118.189 54.2782 118.189 54.8915V55.9515C118.189 56.8849 117.949 57.5982 117.469 58.0915C117.002 58.5849 116.269 58.8315 115.269 58.8315H108.889V54.6315ZM125.08 51.4915C125.08 50.9849 124.947 50.5849 124.68 50.2915C124.427 49.9982 124 49.8515 123.4 49.8515C122.827 49.8515 122.373 49.9782 122.04 50.2315C121.707 50.4715 121.427 50.7515 121.2 51.0715L119.44 49.5115C119.867 48.8849 120.393 48.3982 121.02 48.0515C121.66 47.6915 122.527 47.5115 123.62 47.5115C125.073 47.5115 126.173 47.8382 126.92 48.4915C127.667 49.1449 128.04 50.0982 128.04 51.3515V58.8315H125.08V51.4915ZM134.771 59.0715C133.704 59.0715 132.798 58.8982 132.051 58.5515C131.318 58.2049 130.671 57.7182 130.111 57.0915L131.891 55.3715C132.278 55.7982 132.718 56.1449 133.211 56.4115C133.718 56.6649 134.284 56.7915 134.911 56.7915C135.524 56.7915 135.971 56.6915 136.251 56.4915C136.531 56.2915 136.671 56.0315 136.671 55.7115C136.671 55.3649 136.558 55.1182 136.331 54.9715C136.104 54.8115 135.798 54.7049 135.411 54.6515L134.271 54.5115C133.058 54.3649 132.124 54.0115 131.471 53.4515C130.831 52.8915 130.511 52.1115 130.511 51.1115C130.511 50.5515 130.611 50.0515 130.811 49.6115C131.024 49.1715 131.318 48.7982 131.691 48.4915C132.078 48.1715 132.531 47.9315 133.051 47.7715C133.584 47.5982 134.171 47.5115 134.811 47.5115C135.344 47.5115 135.824 47.5515 136.251 47.6315C136.678 47.6982 137.064 47.8049 137.411 47.9515C137.771 48.0982 138.098 48.2782 138.391 48.4915C138.684 48.7049 138.971 48.9515 139.251 49.2315L137.511 50.9515C137.191 50.6049 136.798 50.3249 136.331 50.1115C135.864 49.8982 135.378 49.7915 134.871 49.7915C134.324 49.7915 133.924 49.8915 133.671 50.0915C133.418 50.2915 133.291 50.5515 133.291 50.8715C133.291 51.1915 133.391 51.4515 133.591 51.6515C133.804 51.8382 134.164 51.9649 134.671 52.0315L135.811 52.1915C136.384 52.2715 136.891 52.3915 137.331 52.5515C137.784 52.7115 138.164 52.9249 138.471 53.1915C138.791 53.4449 139.031 53.7582 139.191 54.1315C139.364 54.5049 139.451 54.9515 139.451 55.4715C139.451 55.9915 139.338 56.4715 139.111 56.9115C138.884 57.3515 138.564 57.7315 138.151 58.0515C137.751 58.3715 137.258 58.6249 136.671 58.8115C136.098 58.9849 135.464 59.0715 134.771 59.0715ZM151.706 59.0715C150.653 59.0715 149.846 58.7049 149.286 57.9715C148.74 57.2382 148.453 56.1915 148.426 54.8315V52.5715C148.426 51.6915 148.246 51.0182 147.886 50.5515C147.526 50.0849 146.926 49.8515 146.086 49.8515C145.486 49.8515 144.98 49.9849 144.566 50.2515C144.153 50.5182 143.853 50.8449 143.666 51.2315L144.386 51.5115C144.866 51.6982 145.193 51.9115 145.366 52.1515C145.54 52.3915 145.626 52.7515 145.626 53.2315V56.5315H146.606V58.8315H145.606C144.593 58.8315 143.846 58.5849 143.366 58.0915C142.9 57.5982 142.666 56.8849 142.666 55.9515V53.0115L140.926 52.3115C140.98 51.5782 141.146 50.9182 141.426 50.3315C141.706 49.7315 142.073 49.2249 142.526 48.8115C142.98 48.3982 143.513 48.0782 144.126 47.8515C144.74 47.6249 145.413 47.5115 146.146 47.5115C147 47.5115 147.753 47.6315 148.406 47.8715C149.06 48.1115 149.606 48.4449 150.046 48.8715C150.486 49.2849 150.82 49.7782 151.046 50.3515C151.273 50.9115 151.386 51.5249 151.386 52.1915V54.4515C151.386 54.7582 151.406 55.0449 151.446 55.3115C151.5 55.5782 151.58 55.8115 151.686 56.0115C151.806 56.2115 151.966 56.3715 152.166 56.4915C152.38 56.6115 152.646 56.6715 152.966 56.6715C153.42 56.6715 153.826 56.5249 154.186 56.2315C154.56 55.9382 154.746 55.5115 154.746 54.9515V47.7515H157.706V56.5315H158.686V58.8315H156.906C155.72 58.8315 155.106 58.1449 155.066 56.7715H154.926C154.82 57.0782 154.68 57.3715 154.506 57.6515C154.346 57.9182 154.133 58.1582 153.866 58.3715C153.613 58.5849 153.306 58.7515 152.946 58.8715C152.586 59.0049 152.173 59.0715 151.706 59.0715ZM163.189 57.2515C162.362 57.2515 161.729 57.0582 161.289 56.6715C160.862 56.2849 160.649 55.7182 160.649 54.9715V53.7315H163.109V54.8315H166.269V57.2515H163.189ZM163.189 52.3515C162.362 52.3515 161.729 52.1582 161.289 51.7715C160.862 51.3849 160.649 50.8182 160.649 50.0715V48.8315H163.109V49.9315H166.269V52.3515H163.189ZM24.5061 75.2115C24.5061 74.4915 24.6328 73.8449 24.8861 73.2715C25.1394 72.6982 25.4994 72.2049 25.9661 71.7915C26.4328 71.3782 26.9994 71.0649 27.6661 70.8515C28.3461 70.6249 29.1061 70.5115 29.9461 70.5115C31.3728 70.5115 32.5461 70.8182 33.4661 71.4315C33.6261 70.5915 34.1928 70.1715 35.1661 70.1715H37.6061V72.6115H34.7261V72.7315C35.1661 73.4382 35.3861 74.2649 35.3861 75.2115V81.8315H32.4261V75.3515C32.4261 74.5515 32.2061 73.9382 31.7661 73.5115C31.3261 73.0715 30.7194 72.8515 29.9461 72.8515C29.1728 72.8515 28.5661 73.0715 28.1261 73.5115C27.6861 73.9382 27.4661 74.5515 27.4661 75.3515V77.7315H27.5661C27.6194 77.4382 27.7128 77.1582 27.8461 76.8915C27.9794 76.6115 28.1528 76.3649 28.3661 76.1515C28.5928 75.9382 28.8594 75.7715 29.1661 75.6515C29.4728 75.5182 29.8328 75.4515 30.2461 75.4515H30.7661V78.2115H30.0261C29.1594 78.2115 28.5128 78.3249 28.0861 78.5515C27.6728 78.7782 27.4661 79.1982 27.4661 79.8115V81.8315H24.5061V75.2115ZM31.9945 88.9915C31.4212 88.9915 30.9412 88.9249 30.5545 88.7915C30.1545 88.6715 29.8345 88.4915 29.5945 88.2515C29.3545 88.0249 29.1812 87.7515 29.0745 87.4315C28.9679 87.1249 28.9145 86.7782 28.9145 86.3915V85.8115H27.6345V83.9115H29.2145C29.8812 83.9115 30.3612 84.0382 30.6545 84.2915C30.9345 84.5449 31.0745 84.8849 31.0745 85.3115V85.9715C31.0745 86.7182 31.3879 87.0915 32.0145 87.0915C32.3612 87.0915 32.6079 86.9982 32.7545 86.8115C32.9012 86.6382 32.9745 86.3582 32.9745 85.9715V83.9115H35.3945V85.7315C35.3945 86.6915 35.1212 87.4715 34.5745 88.0715C34.0145 88.6849 33.1545 88.9915 31.9945 88.9915ZM42.4006 82.0715C41.254 82.0715 40.3806 81.6982 39.7806 80.9515C39.194 80.1915 38.9006 79.1115 38.9006 77.7115V70.7515H41.8606V77.4515C41.8606 77.7715 41.8873 78.0715 41.9406 78.3515C41.994 78.6182 42.0873 78.8515 42.2206 79.0515C42.354 79.2382 42.534 79.3915 42.7606 79.5115C43.0006 79.6182 43.294 79.6715 43.6406 79.6715C43.8806 79.6715 44.1206 79.6382 44.3606 79.5715C44.614 79.4915 44.834 79.3782 45.0206 79.2315C45.2073 79.0849 45.3606 78.9049 45.4806 78.6915C45.6006 78.4782 45.6606 78.2315 45.6606 77.9515V70.7515H48.6206V79.5315H49.6006V81.8315H47.8206C46.6206 81.8315 46.0006 81.1449 45.9606 79.7715H45.8206C45.714 80.0782 45.5673 80.3715 45.3806 80.6515C45.2073 80.9182 44.9806 81.1582 44.7006 81.3715C44.434 81.5849 44.1073 81.7515 43.7206 81.8715C43.3473 82.0049 42.9073 82.0715 42.4006 82.0715ZM55.7978 82.0715C54.3445 82.0715 53.2045 81.7915 52.3778 81.2315C51.5511 80.6582 51.1378 79.8515 51.1378 78.8115C51.1378 78.1715 51.3245 77.6249 51.6978 77.1715C52.0845 76.7182 52.5778 76.3982 53.1778 76.2115V76.0915C52.5111 75.9182 51.9911 75.5915 51.6178 75.1115C51.2445 74.6315 51.0578 74.0582 51.0578 73.3915C51.0578 72.9649 51.1378 72.5782 51.2978 72.2315C51.4578 71.8715 51.6778 71.5649 51.9578 71.3115C52.2511 71.0582 52.5978 70.8649 52.9978 70.7315C53.4111 70.5849 53.8578 70.5115 54.3378 70.5115C54.6445 70.5115 54.9911 70.5449 55.3778 70.6115C55.7778 70.6649 56.1311 70.7782 56.4378 70.9515L55.8178 73.0715C55.6578 72.9782 55.4978 72.9182 55.3378 72.8915C55.1911 72.8515 55.0311 72.8315 54.8578 72.8315C54.5511 72.8315 54.2778 72.9249 54.0378 73.1115C53.8111 73.2849 53.6978 73.5449 53.6978 73.8915C53.6978 74.6249 54.1645 74.9915 55.0978 74.9915H56.1378V76.9515H55.0978C54.8045 76.9515 54.5645 77.0515 54.3778 77.2515C54.1911 77.4382 54.0978 77.6915 54.0978 78.0115V78.3915C54.0978 78.8449 54.2511 79.1849 54.5578 79.4115C54.8645 79.6249 55.3111 79.7315 55.8978 79.7315C56.5645 79.7315 57.0911 79.5515 57.4778 79.1915C57.8645 78.8182 58.0578 78.2782 58.0578 77.5715V70.7515H61.0178V77.9515C61.0178 78.5782 60.8911 79.1449 60.6378 79.6515C60.3978 80.1582 60.0511 80.5915 59.5978 80.9515C59.1445 81.3115 58.5978 81.5915 57.9578 81.7915C57.3178 81.9782 56.5978 82.0715 55.7978 82.0715ZM55.7195 67.4115C55.7195 66.6649 55.9395 66.0982 56.3795 65.7115C56.8062 65.3249 57.4329 65.1315 58.2595 65.1315H62.4195V67.2915H58.0595V69.0515H55.7195V67.4115ZM63.3495 70.7515H66.0495L66.5695 76.5315L66.6895 78.3515H66.8495L67.2495 76.5315L68.7495 70.7515H70.7095L72.2095 76.5315L72.6095 78.3515H72.7495L72.8095 76.5315L73.4095 70.7515H76.1095L74.6095 81.8315H71.4695L70.0295 75.3315L69.7495 73.7715H69.6895L69.3695 75.3315L67.9095 81.8315H64.8295L63.3495 70.7515ZM82.7314 82.0715C81.2781 82.0715 80.1381 81.7915 79.3114 81.2315C78.4847 80.6582 78.0714 79.8515 78.0714 78.8115C78.0714 78.1715 78.2581 77.6249 78.6314 77.1715C79.0181 76.7182 79.5114 76.3982 80.1114 76.2115V76.0915C79.4447 75.9182 78.9247 75.5915 78.5514 75.1115C78.1781 74.6315 77.9914 74.0582 77.9914 73.3915C77.9914 72.9649 78.0714 72.5782 78.2314 72.2315C78.3914 71.8715 78.6114 71.5649 78.8914 71.3115C79.1847 71.0582 79.5314 70.8649 79.9314 70.7315C80.3447 70.5849 80.7914 70.5115 81.2714 70.5115C81.5781 70.5115 81.9247 70.5449 82.3114 70.6115C82.7114 70.6649 83.0647 70.7782 83.3714 70.9515L82.7514 73.0715C82.5914 72.9782 82.4314 72.9182 82.2714 72.8915C82.1247 72.8515 81.9647 72.8315 81.7914 72.8315C81.4847 72.8315 81.2114 72.9249 80.9714 73.1115C80.7447 73.2849 80.6314 73.5449 80.6314 73.8915C80.6314 74.6249 81.0981 74.9915 82.0314 74.9915H83.0714V76.9515H82.0314C81.7381 76.9515 81.4981 77.0515 81.3114 77.2515C81.1247 77.4382 81.0314 77.6915 81.0314 78.0115V78.3915C81.0314 78.8449 81.1847 79.1849 81.4914 79.4115C81.7981 79.6249 82.2447 79.7315 82.8314 79.7315C83.4981 79.7315 84.0247 79.5515 84.4114 79.1915C84.7981 78.8182 84.9914 78.2782 84.9914 77.5715V70.7515H87.9514V77.9515C87.9514 78.5782 87.8247 79.1449 87.5714 79.6515C87.3314 80.1582 86.9847 80.5915 86.5314 80.9515C86.0781 81.3115 85.5314 81.5915 84.8914 81.7915C84.2514 81.9782 83.5314 82.0715 82.7314 82.0715ZM95.3631 74.4915C95.3631 73.9849 95.2298 73.5849 94.9631 73.2915C94.7098 72.9982 94.2831 72.8515 93.6831 72.8515C93.1098 72.8515 92.6565 72.9782 92.3231 73.2315C91.9898 73.4715 91.7098 73.7515 91.4831 74.0715L89.7231 72.5115C90.1498 71.8849 90.6765 71.3982 91.3031 71.0515C91.9431 70.6915 92.8098 70.5115 93.9031 70.5115C95.3565 70.5115 96.4565 70.8382 97.2031 71.4915C97.9498 72.1449 98.3231 73.0982 98.3231 74.3515V81.8315H95.3631V74.4915ZM105.794 82.0715C105.021 82.0715 104.328 81.9649 103.714 81.7515C103.101 81.5382 102.581 81.2382 102.154 80.8515C101.728 80.4649 101.401 79.9915 101.174 79.4315C100.948 78.8715 100.834 78.2515 100.834 77.5715V70.7515H103.794V77.4315C103.794 78.1649 103.968 78.7315 104.314 79.1315C104.674 79.5315 105.168 79.7315 105.794 79.7315C106.421 79.7315 106.908 79.5315 107.254 79.1315C107.601 78.7315 107.774 78.1649 107.774 77.4315V70.7515H110.734V77.5715C110.734 78.2515 110.621 78.8715 110.394 79.4315C110.168 79.9915 109.841 80.4649 109.414 80.8515C108.988 81.2382 108.468 81.5382 107.854 81.7515C107.241 81.9649 106.554 82.0715 105.794 82.0715ZM118.156 74.4915C118.156 73.9849 118.023 73.5849 117.756 73.2915C117.503 72.9982 117.076 72.8515 116.476 72.8515C115.903 72.8515 115.449 72.9782 115.116 73.2315C114.783 73.4715 114.503 73.7515 114.276 74.0715L112.516 72.5115C112.943 71.8849 113.469 71.3982 114.096 71.0515C114.736 70.6915 115.603 70.5115 116.696 70.5115C118.149 70.5115 119.249 70.8382 119.996 71.4915C120.743 72.1449 121.116 73.0982 121.116 74.3515V81.8315H118.156V74.4915ZM126.847 82.0315C125.781 82.0315 124.927 81.7715 124.287 81.2515C123.661 80.7182 123.347 79.8915 123.347 78.7715C123.347 77.7315 123.647 76.9249 124.247 76.3515C124.847 75.7782 125.714 75.4915 126.847 75.4915H130.147V74.9115C130.147 74.2449 129.967 73.7382 129.607 73.3915C129.261 73.0315 128.687 72.8515 127.887 72.8515C127.501 72.8515 127.161 72.8982 126.867 72.9915C126.574 73.0849 126.307 73.2115 126.067 73.3715C125.827 73.5182 125.614 73.6915 125.427 73.8915C125.241 74.0782 125.074 74.2782 124.927 74.4915L123.047 72.8515C123.554 72.1315 124.194 71.5649 124.967 71.1515C125.741 70.7249 126.781 70.5115 128.087 70.5115C129.754 70.5115 131.007 70.8782 131.847 71.6115C132.687 72.3315 133.107 73.3982 133.107 74.8115V81.8315H130.147V77.3715H127.907C126.867 77.3715 126.347 77.7982 126.347 78.6515V78.9915C126.347 79.4049 126.454 79.7382 126.667 79.9915C126.881 80.2315 127.194 80.3515 127.607 80.3515C127.687 80.3515 127.767 80.3515 127.847 80.3515C127.927 80.3515 128.007 80.3382 128.087 80.3115L128.287 81.8915C128.221 81.9182 128.127 81.9382 128.007 81.9515C127.901 81.9782 127.774 81.9915 127.627 81.9915C127.494 82.0049 127.354 82.0115 127.207 82.0115C127.074 82.0249 126.954 82.0315 126.847 82.0315ZM137.459 82.0515C136.859 82.0515 136.413 81.9049 136.119 81.6115C135.839 81.3049 135.699 80.9182 135.699 80.4515V80.0515C135.699 79.5849 135.839 79.2049 136.119 78.9115C136.413 78.6049 136.859 78.4515 137.459 78.4515C138.059 78.4515 138.499 78.6049 138.779 78.9115C139.073 79.2049 139.219 79.5849 139.219 80.0515V80.4515C139.219 80.9182 139.073 81.3049 138.779 81.6115C138.499 81.9049 138.059 82.0515 137.459 82.0515ZM143.651 82.0515C143.051 82.0515 142.604 81.9049 142.311 81.6115C142.031 81.3049 141.891 80.9182 141.891 80.4515V80.0515C141.891 79.5849 142.031 79.2049 142.311 78.9115C142.604 78.6049 143.051 78.4515 143.651 78.4515C144.251 78.4515 144.691 78.6049 144.971 78.9115C145.264 79.2049 145.411 79.5849 145.411 80.0515V80.4515C145.411 80.9182 145.264 81.3049 144.971 81.6115C144.691 81.9049 144.251 82.0515 143.651 82.0515ZM149.842 82.0515C149.242 82.0515 148.796 81.9049 148.502 81.6115C148.222 81.3049 148.082 80.9182 148.082 80.4515V80.0515C148.082 79.5849 148.222 79.2049 148.502 78.9115C148.796 78.6049 149.242 78.4515 149.842 78.4515C150.442 78.4515 150.882 78.6049 151.162 78.9115C151.456 79.2049 151.602 79.5849 151.602 80.0515V80.4515C151.602 80.9182 151.456 81.3049 151.162 81.6115C150.882 81.9049 150.442 82.0515 149.842 82.0515ZM160.514 73.5315H160.414C160.334 73.7982 160.214 74.0582 160.054 74.3115C159.894 74.5515 159.68 74.7715 159.414 74.9715C159.147 75.1582 158.82 75.3115 158.434 75.4315C158.06 75.5515 157.627 75.6115 157.134 75.6115C154.72 75.6115 153.514 74.3582 153.514 71.8515V70.7515H156.474V71.4515C156.474 71.9849 156.587 72.4182 156.814 72.7515C157.054 73.0849 157.507 73.2515 158.174 73.2515H158.434C158.674 73.2515 158.914 73.2315 159.154 73.1915C159.407 73.1515 159.634 73.0715 159.834 72.9515C160.034 72.8182 160.194 72.6315 160.314 72.3915C160.447 72.1515 160.514 71.8382 160.514 71.4515V70.7515H163.474V81.8315H160.514V73.5315ZM169.328 82.0315C168.261 82.0315 167.408 81.7715 166.768 81.2515C166.141 80.7182 165.828 79.8915 165.828 78.7715C165.828 77.7315 166.128 76.9249 166.728 76.3515C167.328 75.7782 168.194 75.4915 169.328 75.4915H172.628V74.9115C172.628 74.2449 172.448 73.7382 172.088 73.3915C171.741 73.0315 171.168 72.8515 170.368 72.8515C169.981 72.8515 169.641 72.8982 169.348 72.9915C169.054 73.0849 168.788 73.2115 168.548 73.3715C168.308 73.5182 168.094 73.6915 167.908 73.8915C167.721 74.0782 167.554 74.2782 167.408 74.4915L165.528 72.8515C166.034 72.1315 166.674 71.5649 167.448 71.1515C168.221 70.7249 169.261 70.5115 170.568 70.5115C172.234 70.5115 173.488 70.8782 174.328 71.6115C175.168 72.3315 175.588 73.3982 175.588 74.8115V81.8315H172.628V77.3715H170.388C169.348 77.3715 168.828 77.7982 168.828 78.6515V78.9915C168.828 79.4049 168.934 79.7382 169.148 79.9915C169.361 80.2315 169.674 80.3515 170.088 80.3515C170.168 80.3515 170.248 80.3515 170.328 80.3515C170.408 80.3515 170.488 80.3382 170.568 80.3115L170.768 81.8915C170.701 81.9182 170.608 81.9382 170.488 81.9515C170.381 81.9782 170.254 81.9915 170.108 81.9915C169.974 82.0049 169.834 82.0115 169.688 82.0115C169.554 82.0249 169.434 82.0315 169.328 82.0315ZM184.42 73.5315H184.32C184.24 73.7982 184.12 74.0582 183.96 74.3115C183.8 74.5515 183.587 74.7715 183.32 74.9715C183.053 75.1582 182.727 75.3115 182.34 75.4315C181.967 75.5515 181.533 75.6115 181.04 75.6115C178.627 75.6115 177.42 74.3582 177.42 71.8515V70.7515H180.38V71.4515C180.38 71.9849 180.493 72.4182 180.72 72.7515C180.96 73.0849 181.413 73.2515 182.08 73.2515H182.34C182.58 73.2515 182.82 73.2315 183.06 73.1915C183.313 73.1515 183.54 73.0715 183.74 72.9515C183.94 72.8182 184.1 72.6315 184.22 72.3915C184.353 72.1515 184.42 71.8382 184.42 71.4515V70.7515H187.38V81.8315H184.42V73.5315Z" fill="#181F1C"/>
<defs>
<clipPath id="clip0_1345_67687">
<rect width="225" height="118.81" fill="white" transform="matrix(1 0 0 -1 0 118.81)"/>
</clipPath>
</defs>
</svg>
