<svg width="386" height="164" viewBox="0 0 386 164" fill="none" xmlns="http://www.w3.org/2000/svg">
<g clip-path="url(#clip0_1364_163446)">
<path d="M385.966 137.895L372.261 137.955L358.548 137.572L344.836 137.715L331.131 138.008L317.418 137.677L303.706 137.857L289.993 137.76L276.281 138.083L262.576 138.15L248.863 137.91L235.151 137.857L221.438 137.692L207.726 138.008L194.013 137.655L180.3 137.715L166.588 138.158L152.883 137.857L139.17 138.075L125.458 137.932L111.745 137.992L98.0328 138.06L84.3203 138.105L70.6078 137.49L56.8952 138.098L43.1752 138.015L29.4627 137.475L15.7426 138.21L2.0451 137.992L2.0376 139.749L15.7351 139.449L29.4476 139.561L43.1527 139.479L56.8652 139.486L70.5777 139.501L84.2903 139.516L98.0028 139.981L111.708 140.177L125.42 140.034L139.133 139.936L152.845 139.816L166.558 139.749L180.27 139.786L193.983 139.936L207.696 139.854L221.401 139.786L235.113 139.644L248.826 139.576L262.538 139.644L276.251 140.117L289.963 139.456L303.676 139.546L317.388 139.816L331.101 140.056L344.821 139.651L358.533 139.846L372.253 139.839L385.921 139.494L385.966 137.895Z" fill="#DBF1FF"/>
<path d="M386.153 125.661L372.261 125.864L358.548 126.277L344.836 126.059L331.131 125.901L317.418 126.141L303.706 125.714L289.993 125.759L276.281 126.134L262.576 126.284L248.863 125.796L235.151 125.946L221.438 125.916L207.725 125.954L194.013 125.729L180.3 125.639L166.588 126.066L152.883 125.886L139.17 125.789L125.458 125.961L111.745 125.564L98.0327 126.156L84.3202 126.232L70.6077 125.684L56.8952 126.089L43.1751 125.774L29.4626 125.541L15.7426 125.811L2 125.879L2.12009 135.658L15.735 135.688L29.4476 135.899L43.1526 136.079L56.8651 135.718L70.5777 135.748L84.2902 135.846L98.0027 135.748L111.708 135.658L125.42 136.131L139.133 135.553L152.845 135.809L166.558 135.463L180.27 135.869L193.983 135.621L207.695 135.809L221.4 135.456L235.113 135.741L248.826 135.696L262.538 136.056L276.251 135.779L289.963 136.109L303.676 135.914L317.388 135.508L331.101 136.071L344.821 135.861L358.533 135.756L372.253 135.741L386.056 135.921L386.153 125.661Z" fill="#DBF1FF"/>
<path d="M139.485 156.036L123.919 156.088L108.345 156.028V163.999L123.919 163.954L139.485 163.992V156.036Z" fill="#DBF1FF"/>
<path d="M120.377 137.85H115.175L115.153 156.058L120.369 156.05L120.377 137.85Z" fill="#DBF1FF"/>
<path d="M133.166 137.85L127.95 137.843L127.935 156.059H133.188L133.166 137.85Z" fill="#DBF1FF"/>
<path d="M132.033 149.003H115.806V150.181H132.033V149.003Z" fill="#DBF1FF"/>
<path d="M215.343 156.028L199.77 156.066L184.218 156.058L184.211 163.969L199.77 164.007L215.321 163.969L215.343 156.028Z" fill="#DBF1FF"/>
<path d="M196.235 137.843H191.003L190.996 156.059H196.25L196.235 137.843Z" fill="#DBF1FF"/>
<path d="M209.039 137.843H203.792L203.807 156.059H209.039V137.843Z" fill="#DBF1FF"/>
<path d="M207.883 149.003L191.656 148.98V150.189L207.883 150.196V149.003Z" fill="#DBF1FF"/>
<path d="M291.179 156.059L275.62 156.074H260.069V163.962L275.62 163.999L291.164 163.954L291.179 156.059Z" fill="#DBF1FF"/>
<path d="M272.078 137.85H266.869L266.854 156.058H272.1L272.078 137.85Z" fill="#DBF1FF"/>
<path d="M284.889 137.843L279.665 137.85L279.658 156.059H284.882L284.889 137.843Z" fill="#DBF1FF"/>
<path d="M283.734 148.988H267.507V150.189H283.734V148.988Z" fill="#DBF1FF"/>
<path d="M243.467 128.933L241.162 128.948L241.23 121.15L241.215 113.344L241.087 105.538L241.11 97.7252L241.05 89.9195L241.155 82.1063L241.08 74.3006L241.222 66.4949L241.065 58.6817L241.185 50.876L241.087 43.0627L241.132 35.2495L241.2 27.4363L241.065 19.6006L243.482 19.6456L243.654 27.4288L243.542 35.242L243.677 43.0477L243.512 50.8534L243.624 58.6667L243.632 66.4724L243.549 74.2856L243.647 82.0913L243.587 89.897L243.632 97.7102L243.572 105.523L243.474 113.329L243.617 121.15L243.467 128.933Z" fill="#DBF1FF"/>
<path d="M252.03 128.956L249.696 128.941L249.726 121.151L249.621 113.345L249.651 105.539L249.524 97.7259L249.704 89.9202L249.576 82.107L249.546 74.3013L249.696 66.4956L249.531 58.6823L249.659 50.8766L249.584 43.0634L249.569 35.2502L249.689 27.437L249.539 19.5938L252.06 19.6238L252.09 27.4295L252.083 35.2427V43.0484L251.978 50.8541L252.136 58.6673L252.015 66.473L252.166 74.2862L252.151 82.092L252.083 89.8977L252.053 97.7109L252.008 105.524L252.023 113.33L251.963 121.151L252.03 128.956Z" fill="#DBF1FF"/>
<path d="M250.845 38.5003L242.348 38.5078V37.9824H250.845V38.5003Z" fill="#DBF1FF"/>
<path d="M250.845 43.3118H242.348V42.8015L250.845 42.7939V43.3118Z" fill="#DBF1FF"/>
<path d="M250.845 72.155L242.348 72.1399V71.6221L250.845 71.6371V72.155Z" fill="#DBF1FF"/>
<path d="M250.845 76.9515L242.348 76.959V76.4336H250.845V76.9515Z" fill="#DBF1FF"/>
<path d="M250.845 105.803L242.348 105.788V105.277L250.845 105.285V105.803Z" fill="#DBF1FF"/>
<path d="M250.845 110.088H242.348V110.606H250.845V110.088Z" fill="#DBF1FF"/>
<path d="M250.567 64.5218L246.116 56.9788L241.658 49.4433L242.221 49.2031L246.672 56.7461L251.115 64.2892L250.567 64.5218Z" fill="#DBF1FF"/>
<path d="M242.416 64.5143L241.868 64.2892L246.319 56.7461L250.769 49.2031L251.317 49.4358L246.874 56.9788L242.416 64.5143Z" fill="#DBF1FF"/>
<path d="M250.574 36.8937L246.116 29.3582L241.658 21.8227L242.206 21.5975L246.664 29.133L251.115 36.6686L250.574 36.8937Z" fill="#DBF1FF"/>
<path d="M242.416 36.9017L241.883 36.6765L246.334 29.1335L250.77 21.583L251.31 21.8157L246.867 29.3587L242.416 36.9017Z" fill="#DBF1FF"/>
<path d="M250.574 97.8545L246.131 90.3115L241.658 82.7834L242.206 82.5508L246.664 90.0863L251.122 97.6293L250.574 97.8545Z" fill="#DBF1FF"/>
<path d="M242.416 97.8542L241.875 97.629L246.326 90.086L250.777 82.543L251.31 82.7681L246.859 90.3111L242.416 97.8542Z" fill="#DBF1FF"/>
<path d="M250.567 125.541L246.124 117.998L241.658 110.463L242.221 110.223L246.679 117.758L251.13 125.301L250.567 125.541Z" fill="#DBF1FF"/>
<path d="M242.431 125.541L241.868 125.308L246.326 117.765L250.777 110.229L251.31 110.447L246.867 117.998L242.431 125.541Z" fill="#DBF1FF"/>
<path d="M255.498 20.6588L247.069 20.6513L238.633 20.6663L238.641 18.5873L247.069 18.5723L255.498 18.5948V20.6588Z" fill="#DBF1FF"/>
<path d="M255.505 17.094L247.069 17.0715L238.641 17.079L238.633 15L247.069 15.0075L255.498 15L255.505 17.094Z" fill="#DBF1FF"/>
<path d="M281.429 128.963H278.96L279.043 121.15L278.983 113.344L278.922 105.539L278.96 97.7255L279.05 89.9198L278.968 82.1066L278.885 74.3009L279.043 66.4952L278.9 58.682L279.065 50.8763L278.9 43.0631L278.938 35.2498L278.885 27.4366L278.922 19.6084H281.459L281.422 27.4291L281.437 35.2423L281.482 43.048L281.414 50.8538L281.407 58.667L281.504 66.4727L281.459 74.2859L281.414 82.0916L281.512 89.8973L281.309 97.7105L281.422 105.524L281.429 113.329L281.497 121.15L281.429 128.963Z" fill="#DBF1FF"/>
<path d="M289.895 128.956L287.374 128.993L287.516 121.15L287.374 113.344L287.501 105.539L287.569 97.7255L287.366 89.9198L287.434 82.1066L287.546 74.3009L287.426 66.4952L287.576 58.682L287.509 50.8763L287.486 43.0631L287.374 35.2498L287.381 27.4366L287.501 19.6309L289.963 19.6084L289.85 27.4291L289.963 35.2423L289.903 43.048L289.82 50.8538L290.016 58.667L289.963 66.4727L289.865 74.2859L289.926 82.0916L289.993 89.8973L289.918 97.7105L289.986 105.524L289.88 113.329L289.926 121.15L289.895 128.956Z" fill="#DBF1FF"/>
<path d="M288.695 37.9824H280.198V38.4928H288.695V37.9824Z" fill="#DBF1FF"/>
<path d="M288.695 43.3043L280.198 43.3193V42.7939L288.695 42.8015V43.3043Z" fill="#DBF1FF"/>
<path d="M288.695 72.1553L280.198 72.1478V71.6299L288.695 71.6374V72.1553Z" fill="#DBF1FF"/>
<path d="M288.695 76.959L280.198 76.944V76.4336L288.695 76.4411V76.959Z" fill="#DBF1FF"/>
<path d="M288.695 105.795L280.198 105.788V105.277H288.695V105.795Z" fill="#DBF1FF"/>
<path d="M288.695 110.605L280.198 110.59V110.088L288.695 110.08V110.605Z" fill="#DBF1FF"/>
<path d="M288.409 64.5287L283.959 56.9856L279.508 49.4426L280.056 49.21L284.506 56.753L288.972 64.281L288.409 64.5287Z" fill="#DBF1FF"/>
<path d="M280.251 64.5061L279.733 64.296L284.169 56.7455L288.627 49.21L289.167 49.4351L284.724 56.9856L280.251 64.5061Z" fill="#DBF1FF"/>
<path d="M288.424 36.8942L283.974 29.3587L279.515 21.8157L280.078 21.583L284.529 29.1185L288.972 36.6615L288.424 36.8942Z" fill="#DBF1FF"/>
<path d="M280.274 36.9017L279.711 36.6615L284.161 29.1185L288.62 21.583L289.16 21.8157L284.717 29.3587L280.274 36.9017Z" fill="#DBF1FF"/>
<path d="M288.417 97.8532L283.966 90.3177L279.515 82.7747L280.063 82.542L284.521 90.085L288.965 97.628L288.417 97.8532Z" fill="#DBF1FF"/>
<path d="M280.259 97.8532L279.711 97.6205L284.184 90.0925L288.627 82.542L289.168 82.7747L284.709 90.3102L280.259 97.8532Z" fill="#DBF1FF"/>
<path d="M288.417 125.541L283.974 117.991L279.523 110.455L280.063 110.223L284.514 117.766L288.957 125.316L288.417 125.541Z" fill="#DBF1FF"/>
<path d="M280.258 125.534L279.726 125.309L284.169 117.766L288.62 110.223L289.175 110.463L284.709 117.991L280.258 125.534Z" fill="#DBF1FF"/>
<path d="M293.348 20.6516L284.919 20.6366L276.483 20.6666V18.5801L284.919 18.5951L293.348 18.5876V20.6516Z" fill="#DBF1FF"/>
<path d="M293.34 17.0643L284.919 17.0793L276.483 17.0868L276.491 15.0228L284.919 15.0303L293.348 15.0078L293.34 17.0643Z" fill="#DBF1FF"/>
<path d="M279.275 43.2658L272.168 43.2432L265.06 43.2808L257.952 43.2658H250.844V42.8379L257.952 42.8229L265.052 42.8154L272.168 42.8304H279.275V43.2658Z" fill="#DBF1FF"/>
<path d="M279.275 24.6378L272.168 24.6303L265.06 24.6228L257.952 24.6453L250.844 24.6228V24.2175L257.952 24.225L265.052 24.24L272.168 24.225L279.275 24.21V24.6378Z" fill="#DBF1FF"/>
<path d="M279.275 38.4249L272.168 38.4399L265.06 38.4699L257.952 38.4399L250.845 38.4549L250.747 38.0346L257.539 35.873L264.317 33.749L257.547 31.5874L250.739 29.4633L250.837 29.0655L257.945 29.043L265.052 29.0205L272.16 29.043H279.268L279.365 29.4708L272.565 31.6099L265.75 33.749L272.558 35.9256L279.358 38.0721L279.275 38.4399V38.4249ZM252.203 38.0496H260.782L269.346 38.0196L277.924 38.0421L271.492 35.9931L265.067 33.9816L258.658 36.0231L252.211 38.0496H252.203ZM252.203 29.4333L258.635 31.4973L265.06 33.5013L271.485 31.4973L277.902 29.4408L269.338 29.4633H260.774L252.196 29.4258L252.203 29.4333Z" fill="#DBF1FF"/>
<path d="M215.268 129.069L214.66 128.919L217.385 118.952L220.282 109.029L222.571 98.9495L225.371 89.0047L228.538 79.1575L230.88 69.0926L234.04 59.2379L236.028 49.0755L239.263 39.2433L242.228 29.3436L242.183 29.291L239.804 39.3559L237.214 49.3607L233.912 59.1704L231.525 69.2277L228.771 79.18L225.776 89.0722L223.359 99.1221L220.612 109.082L218.203 119.139L215.268 129.069Z" fill="#DBF1FF"/>
<path d="M205.031 129.166L204.4 128.956L207.56 118.756L212.003 109.051L215.914 99.1367L219.104 88.9668L222.691 78.932L226.999 69.1748L230.797 59.2225L234.115 49.0901L238.393 39.3105L241.41 29.043L242.115 29.2907L238.198 39.1979L234.993 49.3678L231.225 59.3351L226.812 69.0547L223.397 79.1496L219.539 89.0719L216.274 99.2343L212.491 109.187L208.393 119.034L205.031 129.166Z" fill="#DBF1FF"/>
<path d="M191.896 129L191.836 129.008L197.045 119.138L201.976 109.126L206.427 98.8733L212.011 89.1837L216.71 79.0663L221.37 68.9114L226.347 58.9141L231.405 48.9693L236.929 39.2422L241.583 29.0723L241.62 29.0798L237.057 39.2572L232.298 49.3596L227.097 59.2368L221.986 69.1591L217.415 79.344L212.079 89.1537L206.765 98.9859L201.601 108.878L196.655 118.89L191.896 129Z" fill="#DBF1FF"/>
<path d="M315.016 129.242L312.614 119.162L310.693 108.969L308.029 98.9946L304.141 89.3426L302.872 78.9775L300.448 68.9351L296.11 59.4107L293.903 49.3008L290.541 39.4986L289.46 29.1035L289.122 29.1936L292.462 38.9957L294.916 49.0381L296.643 59.2681L300.335 68.9727L301.701 79.3002L304.786 89.1699L307.195 99.2273L310.528 109.029L313.733 118.869L316.72 128.836L315.016 129.242Z" fill="#DBF1FF"/>
<path d="M327.175 128.612L322.529 119.012L319.474 108.782L314.641 99.2201L311.046 89.1852L307.961 78.9702L303.555 69.2581L299.345 59.4485L296.313 49.211L292.004 39.4463L288.432 29.3965L288.394 29.479L293.348 38.966L296.673 49.0909L300.403 59.0732L304.028 69.0855L308.381 78.8276L312.292 88.7349L315.699 98.8373L319.362 108.842L322.357 119.095L326.349 128.994L327.175 128.612Z" fill="#DBF1FF"/>
<path d="M338.959 129.009L333.225 119.387L328.053 109.494L323.07 99.4971L319.279 88.9219L313.26 79.4575L309.612 68.7922L303.931 59.1551L298.227 49.5331L293.723 39.2956L288.965 29.1932L289.663 28.8555L294.264 39.0554L298.519 49.4055L303.285 59.5079L308.629 69.3101L313.673 79.2623L319.722 88.7117L324.916 98.604L329.862 108.609L334.538 118.756L339.739 128.648L338.959 129.009Z" fill="#DBF1FF"/>
<path d="M364.387 128.941L362.121 128.933L362.038 121.15L361.986 113.344L361.918 105.539L361.986 97.7255L361.963 89.9198L361.978 82.1066L361.918 74.3009L361.993 66.4952L362.121 58.682L362.001 50.8763L362.038 43.0631L361.948 35.2498L362.046 27.4366L362.031 19.6234L364.492 19.6084L364.372 27.4291L364.455 35.2423L364.425 43.048L364.492 50.8538L364.538 58.667V66.4727L364.402 74.2859L364.56 82.0916L364.523 89.8973L364.462 97.7105L364.455 105.524L364.402 113.329L364.38 121.15L364.387 128.941Z" fill="#DBF1FF"/>
<path d="M372.996 128.971L370.587 128.941L370.542 121.15L370.535 113.345L370.55 105.539L370.602 97.7258L370.437 89.9201L370.527 82.1069L370.43 74.3012L370.55 66.4955L370.445 58.6823L370.55 50.8766L370.452 43.0634L370.55 35.2501L370.542 27.4369L370.52 19.6237L372.974 19.6162L372.891 27.4294L372.876 35.2426L373.034 43.0483L373.026 50.8541L373.064 58.6673L373.056 66.473L373.049 74.2862L372.891 82.0919L372.906 89.8976L372.974 97.7108L373.056 105.524V113.33L372.966 121.15L372.996 128.971Z" fill="#DBF1FF"/>
<path d="M371.735 37.9824H363.239V38.5003H371.735V37.9824Z" fill="#DBF1FF"/>
<path d="M371.735 42.7939H363.239V43.3118H371.735V42.7939Z" fill="#DBF1FF"/>
<path d="M371.735 71.6299H363.239V72.1403H371.735V71.6299Z" fill="#DBF1FF"/>
<path d="M371.735 76.9518L363.239 76.9443V76.4414H371.735V76.9518Z" fill="#DBF1FF"/>
<path d="M371.735 105.277H363.239V105.803H371.735V105.277Z" fill="#DBF1FF"/>
<path d="M371.735 110.591L363.239 110.606V110.088H371.735V110.591Z" fill="#DBF1FF"/>
<path d="M371.45 64.529L367.022 56.971L362.564 49.4355L363.119 49.1953L367.555 56.7533L372.013 64.2888L371.45 64.529Z" fill="#DBF1FF"/>
<path d="M363.307 64.514L362.766 64.2888L367.217 56.7458L371.675 49.2178L372.216 49.4354L367.757 56.9785L363.307 64.514Z" fill="#DBF1FF"/>
<path d="M371.465 36.9017L367.029 29.3512L362.571 21.8157L363.119 21.583L367.555 29.1335L372.013 36.669L371.465 36.9017Z" fill="#DBF1FF"/>
<path d="M363.307 36.8948L362.766 36.6697L367.21 29.1266L371.675 21.5986L372.216 21.8238L367.758 29.3593L363.307 36.8948Z" fill="#DBF1FF"/>
<path d="M371.473 97.8532L367.014 90.3102L362.571 82.7747L363.104 82.542L367.57 90.0775L372.013 97.6205L371.473 97.8532Z" fill="#DBF1FF"/>
<path d="M363.299 97.8532L362.759 97.6205L367.21 90.085L371.668 82.542L372.201 82.7672L367.765 90.3177L363.299 97.8532Z" fill="#DBF1FF"/>
<path d="M371.465 125.534L367 118.006L362.556 110.463L363.112 110.223L367.547 117.773L372.013 125.309L371.465 125.534Z" fill="#DBF1FF"/>
<path d="M363.299 125.533L362.751 125.301L367.202 117.758L371.675 110.229L372.208 110.455L367.757 117.998L363.299 125.533Z" fill="#DBF1FF"/>
<path d="M376.396 20.6666L367.96 20.6516L359.531 20.6666V18.5951L367.96 18.5801L376.389 18.6026L376.396 20.6666Z" fill="#DBF1FF"/>
<path d="M376.396 17.0865L367.96 17.0715L359.531 17.0865V15.0225H367.96L376.389 15.03L376.396 17.0865Z" fill="#DBF1FF"/>
<path d="M400.166 43.2507L393.059 43.2808L385.958 43.2733L378.851 43.2883L371.743 43.2357L371.736 42.8454L378.843 42.8304H385.951L393.059 42.853L400.166 42.8154V43.2507Z" fill="#DBF1FF"/>
<path d="M400.166 24.6674L393.059 24.6374L385.958 24.6599L378.851 24.6449L371.736 24.6524L371.743 24.2471H378.843L385.951 24.2246L393.059 24.2471L400.166 24.2246V24.6674Z" fill="#DBF1FF"/>
<path d="M400.166 38.4621L393.058 38.4471H385.951L378.843 38.4546H371.735L371.653 38.0643L378.438 35.8727L385.245 33.7412L378.453 31.5796L371.653 29.433L371.735 29.0202L378.843 29.0577H385.951L393.058 29.0127L400.166 29.0277L400.249 29.433L393.449 31.5871L386.641 33.7412L393.449 35.8952L400.241 38.0493L400.159 38.4621H400.166ZM373.116 38.0268L381.673 38.0418H390.236L398.8 38.0343L392.375 36.0078L385.958 33.9513L379.541 36.0228L373.116 38.0343V38.0268ZM373.116 29.4555L379.534 31.497L385.958 33.5385L392.383 31.4895L398.8 29.4555L390.244 29.433L381.68 29.4705L373.124 29.4555H373.116Z" fill="#DBF1FF"/>
<path d="M335.401 128.836L335.634 128.933L338.006 118.876L340.693 108.901L343.995 99.0915L346.495 89.0641L349.422 79.1569L352.176 69.1971L354.818 59.2073L357.1 49.1199L360.102 39.2277L362.406 29.1328L362.969 29.2679L360.207 39.2277L357.828 49.2851L354.525 59.0872L351.989 69.107L349.204 79.0593L346.57 89.0416L344.4 99.1665L341.158 108.991L338.959 119.116L335.401 128.836Z" fill="#DBF1FF"/>
<path d="M325.817 129.128L325.299 128.948L328.729 118.861L332.362 108.849L336.587 99.0539L340.1 88.9965L344.108 79.1268L348.078 69.2496L351.388 59.1097L355.554 49.2925L358.789 39.1226L362.969 29.3129L362.609 29.1553L359.284 39.2727L355.081 49.0673L351.396 59.0646L348.183 69.2346L344.633 79.2769L340.768 89.1992L336.572 99.0089L332.587 108.886L329.292 119.034L325.817 129.128Z" fill="#DBF1FF"/>
<path d="M312.922 129.069L312.577 128.941L317.981 119.161L322.845 109.112L327.843 99.1367L332.504 88.9818L337.42 78.9695L342.667 69.1148L347.718 59.155L352.424 49.0376L358.12 39.393L363.067 29.3882L362.999 29.3057L358.406 39.4906L352.987 49.2553L347.448 58.9674L342.877 69.1598L337.893 79.1421L333.09 89.2145L328.136 99.2268L322.695 108.976L317.478 118.861L312.922 129.069Z" fill="#DBF1FF"/>
<path d="M73.3998 82.1224L64.881 82.1374L56.3698 82.1149L47.8511 82.0849L39.3473 82.0924L39.3398 79.0001L47.8511 79.0076L56.3623 78.9626L64.8735 78.9551L73.3998 78.9626V82.1224Z" fill="#DBF1FF"/>
<path d="M72.0186 96.263L64.1904 96.2706L56.3697 96.2405H48.5489L40.7207 96.2555L40.7432 88.8626L40.7207 81.4772L48.5414 81.5073H56.3621L64.1829 81.4922L72.0111 81.4697L71.9961 88.8626L72.0186 96.263Z" fill="#DBF1FF"/>
<path d="M66.5921 106.192L59.7772 106.155L52.9622 106.17L46.1472 106.177L39.3022 99.3097L39.2947 96.2549L47.8284 96.2399L56.3622 96.2699L64.9034 96.2775L73.4522 96.2324L73.4296 99.3097L66.5921 106.192Z" fill="#DBF1FF"/>
<path d="M47.9785 104.781L46.8452 112.167L45.8094 119.575L44.6761 126.96L43.6854 134.375L42.5746 141.776L41.4638 149.169L40.3229 156.562L39.2947 163.977" stroke="#DBF1FF" stroke-width="2.89" stroke-miterlimit="10"/>
<path d="M53.9905 104.781L53.4351 112.174L53.0373 119.575L52.587 126.975L52.0466 134.368L51.6488 141.768L51.206 149.169L50.6956 156.569L50.2078 163.977" stroke="#DBF1FF" stroke-width="2.89" stroke-miterlimit="10"/>
<path d="M65.001 104.781L66.1118 112.174L67.1325 119.582L68.3109 126.96L69.3767 134.368L70.3824 141.776L71.5683 149.161L72.6266 156.569L73.7449 163.97" stroke="#DBF1FF" stroke-width="2.89" stroke-miterlimit="10"/>
<path d="M59.0869 104.773L59.5072 112.174L59.9726 119.574L60.4904 126.967L60.9558 134.368L61.316 141.776L61.8414 149.168L62.2918 156.569L62.7946 163.977" stroke="#DBF1FF" stroke-width="2.89" stroke-miterlimit="10"/>
<path d="M43.6328 121.277L52.2041 121.307H60.7829H69.3541" stroke="#DBF1FF" stroke-width="1.45" stroke-miterlimit="10"/>
<path d="M41.8391 131.808L49.1645 131.823L56.4898 131.845L63.8227 131.808L71.148 131.815" stroke="#DBF1FF" stroke-width="1.45" stroke-miterlimit="10"/>
<path d="M56.4897 83.4952L56.4973 76.0123L56.5123 68.5293" stroke="#DBF1FF" stroke-width="1.45" stroke-miterlimit="10"/>
<path d="M50.2227 80.5455L54.6359 75.4793L59.0416 70.4131" stroke="#DBF1FF" stroke-width="1.45" stroke-miterlimit="10"/>
<path d="M62.7644 80.5533L58.3512 75.4796L53.938 70.4209" stroke="#DBF1FF" stroke-width="1.45" stroke-miterlimit="10"/>
<path d="M27.7739 66.9608H20.1783V72.4999H27.7739V66.9608Z" stroke="#DBF1FF" stroke-width="0.54" stroke-miterlimit="10"/>
<path d="M22.6477 66.9082L22.6552 72.4998" stroke="#DBF1FF" stroke-width="0.54" stroke-miterlimit="10"/>
<path d="M25.2896 66.9082L25.2971 72.4998" stroke="#DBF1FF" stroke-width="0.54" stroke-miterlimit="10"/>
<path d="M14.1289 65.1221L33.8158 65.1296L27.7664 66.9609H20.1783L14.1289 65.1221Z" stroke="#DBF1FF" stroke-width="0.54" stroke-miterlimit="10"/>
<path d="M22.6551 66.9083L20.5986 65.1445" stroke="#DBF1FF" stroke-width="0.54" stroke-miterlimit="10"/>
<path d="M25.2971 66.9083L27.3461 65.1445" stroke="#DBF1FF" stroke-width="0.54" stroke-miterlimit="10"/>
<path d="M23.9311 69.6699L24.0136 83.1423L23.9086 96.6071L24.0362 110.079L23.9086 123.552L23.8936 137.024L24.0211 150.497L23.9611 163.976" stroke="#DBF1FF" stroke-width="3.24" stroke-miterlimit="10"/>
<path d="M14.0013 59.5527H10.3986L10.3911 65.1443H14.0088L14.0013 59.5527Z" fill="#DBF1FF"/>
<path d="M22.9702 59.5449L15.7499 59.5524L15.7424 65.144L22.9627 65.1365L22.9702 59.5449Z" fill="#DBF1FF"/>
<path d="M31.9319 59.5527H24.7116L24.7041 65.1443H31.9319V59.5527Z" fill="#DBF1FF"/>
<path d="M37.2832 59.5527H33.6731V65.1443H37.2832V59.5527Z" fill="#DBF1FF"/>
<path d="M23.9685 53.5332L23.976 68.5292" stroke="#DBF1FF" stroke-width="0.54" stroke-miterlimit="10"/>
</g>
<defs>
<clipPath id="clip0_1364_163446">
<rect width="386" height="164" fill="white"/>
</clipPath>
</defs>
</svg>
