<svg width="386" height="161" viewBox="0 0 386 161" fill="none" xmlns="http://www.w3.org/2000/svg">
<g clip-path="url(#clip0_1364_163941)">
<path d="M66.8897 128.011L66.7154 124.851L62.6377 123.774L58.4538 122.729L54.27 123.759L50.0634 124.722L49.9876 127.973L45.4323 129.323L40.8543 130.399L40.824 136.061L40.8771 141.814L40.8392 147.559L40.8543 153.312L40.8013 158.981L46.6375 159.034L52.5419 159.049L58.4538 159.239L64.3582 159.019L70.2702 159.193L76.2201 159.102L76.023 153.577L76.0306 148.089L76.3337 142.609L76.2807 137.122L76.2579 131.634L76.2049 130.27L71.5435 129.057L66.8897 128.011Z" fill="#DBF1FF"/>
<path d="M146.307 124.896H139.615V159.056H146.307V124.896Z" fill="#DBF1FF"/>
<path d="M196.423 81.4573L197.135 103.582L197.021 126.297L174.738 126.002L153.008 125.767L152.75 103.582L152.56 80.957L174.745 81.0176L196.423 81.4573Z" fill="#DBF1FF"/>
<path d="M190.966 84.2998L190.867 122.781L158.563 122.834L158.624 84.3908L190.966 84.2998Z" fill="#00569C"/>
<path d="M203.457 159.291L174.738 158.798L146.421 158.965L146.633 125.168L174.738 125.304L202.79 125.221L203.457 159.291Z" fill="#DBF1FF"/>
<path d="M178.027 159.048L171.153 159.109L171.1 124.842L178.035 124.91L178.027 159.048Z" fill="#DBF1FF"/>
<path d="M223.125 158.92L203.327 158.965L202.926 124.752L223.618 124.744L223.125 158.92Z" fill="#DBF1FF"/>
<path d="M223.58 124.334L223.072 135.355L195.445 136.719L167.53 136.833L139.524 136.287L139.706 125.122L167.522 125.259L195.445 125.683L223.58 124.334Z" fill="#DBF1FF"/>
<path d="M175.731 75.8407H186.319L186.395 68.4507L175.693 68.5114L175.731 75.8407Z" fill="#DBF1FF"/>
<path d="M173.267 123.25L175.162 123.189L176.201 95.8653L176.079 68.4656L173.684 68.5187L173.207 95.8653L173.267 123.25Z" fill="#DBF1FF"/>
<path d="M156.153 142.374L149.923 142.343L149.885 139.35L156.176 139.372L156.153 142.374Z" fill="#181F1C"/>
<path d="M157.585 159.064H156.062L156.13 139.396L157.388 139.403L157.585 159.064Z" fill="#181F1C"/>
<path d="M165.544 142.358H159.314L159.291 139.38L165.537 139.433L165.544 142.358Z" fill="#181F1C"/>
<path d="M166.984 159.063L165.665 159.048L165.575 139.402H166.757L166.984 159.063Z" fill="#181F1C"/>
<path d="M188.419 142.396L182.143 142.426L182.135 139.357L188.411 139.394L188.419 142.396Z" fill="#181F1C"/>
<path d="M189.745 159.056L188.593 159.048L188.297 139.387L189.813 139.394L189.745 159.056Z" fill="#181F1C"/>
<path d="M197.802 142.381L191.526 142.441L191.557 139.417L197.794 139.425L197.802 142.381Z" fill="#181F1C"/>
<path d="M199.212 159.063L197.643 159.071L197.992 139.41L199.129 139.395L199.212 159.063Z" fill="#181F1C"/>
<path d="M156.168 142.404L149.877 142.442L149.915 139.417L156.176 139.372L156.168 142.404Z" fill="#00569C"/>
<path d="M157.343 159.048H156.32L156.191 139.402L157.57 139.394L157.343 159.048Z" fill="#00569C"/>
<path d="M165.574 142.434L159.283 142.427L159.276 139.35L165.552 139.403L165.574 142.434Z" fill="#00569C"/>
<path d="M166.794 159.055H165.551L165.589 139.402L167.052 139.387L166.794 159.055Z" fill="#00569C"/>
<path d="M188.441 142.449L182.181 142.343L182.143 139.372L188.434 139.357L188.441 142.449Z" fill="#00569C"/>
<path d="M189.586 159.048L188.419 159.056L188.479 139.402L189.882 139.387L189.586 159.048Z" fill="#00569C"/>
<path d="M197.787 142.343L191.542 142.404L191.564 139.417L197.825 139.357L197.787 142.343Z" fill="#00569C"/>
<path d="M198.916 159.048H197.969L197.946 139.41L199.212 139.395L198.916 159.048Z" fill="#00569C"/>
<path d="M23.4293 128.655L28.6363 128.625L28.6439 125.04L23.4444 125.032L23.4293 128.655Z" fill="#DBF1FF"/>
<path d="M22.4138 141.374L23.5204 141.404L23.4294 135.939L23.3764 130.482L23.5128 125.01L22.3986 125.033V130.475L22.3683 135.932L22.4138 141.374Z" fill="#DBF1FF"/>
<path d="M31.782 128.624L36.9891 128.646L36.9815 125.023L31.782 125.039V128.624Z" fill="#DBF1FF"/>
<path d="M30.6147 141.403L31.8426 141.396L31.7592 135.939L31.7213 130.481L31.7289 125.032L30.6526 125.017L30.6981 130.474L30.7587 135.931L30.6147 141.403Z" fill="#DBF1FF"/>
<path d="M139.547 110.51L107.895 110.412L76.2357 110.586L76.2584 104.681L107.895 104.674L139.714 103.795L139.547 110.51Z" fill="#DBF1FF"/>
<path d="M139.569 121.591L107.895 121.636L76.1445 122.553L76.2354 119.87L107.895 119.15L139.584 119.726L139.569 121.591Z" fill="#DBF1FF"/>
<path d="M139.607 133.331L107.895 133.892L76.2128 133.058L76.1521 130.193L107.895 130.512L139.645 130.239L139.607 133.331Z" fill="#DBF1FF"/>
<path d="M134.377 158.973L107.895 159.587L81.6472 158.723L81.0939 134.241L81.3137 109.403L107.895 109.57L134.233 109.661L134.794 134.241L134.377 158.973Z" fill="#DBF1FF"/>
<path d="M118.097 104.628L97.655 104.742L97.7308 97.4505L118.097 97.3747V104.628Z" fill="#DBF1FF"/>
<path d="M127.806 154.956L124.1 154.948L124.085 151.234L127.791 151.257L127.806 154.956Z" fill="#00569C"/>
<path d="M127.798 147.239L124.077 147.262L124.1 143.541L127.806 143.533L127.798 147.239Z" fill="#00569C"/>
<path d="M127.783 139.524L124.1 139.539L124.085 135.818L127.836 135.803L127.783 139.524Z" fill="#00569C"/>
<path d="M127.821 131.854L124.084 131.846L124.077 128.109L127.814 128.117L127.821 131.854Z" fill="#00569C"/>
<path d="M127.798 124.13L124.1 124.123L124.062 120.394L127.806 120.424L127.798 124.13Z" fill="#00569C"/>
<path d="M127.821 116.445L124.084 116.437L124.077 112.7L127.836 112.685L127.821 116.445Z" fill="#00569C"/>
<path d="M119.802 154.804L102.483 154.873V151.31L119.802 151.394V154.804Z" fill="#00569C"/>
<path d="M119.855 147.346L102.46 147.285L102.498 143.678L119.802 143.693L119.855 147.346Z" fill="#00569C"/>
<path d="M119.825 139.486L102.437 139.699L102.468 135.818L119.87 135.674L119.825 139.486Z" fill="#00569C"/>
<path d="M119.848 131.907L102.445 131.96L102.46 128.087L119.87 127.958L119.848 131.907Z" fill="#00569C"/>
<path d="M119.855 124.229L102.453 124.221L102.46 120.371L119.87 120.242L119.855 124.229Z" fill="#00569C"/>
<path d="M119.87 116.596L102.46 116.467L102.445 112.609L119.817 112.799L119.87 116.596Z" fill="#00569C"/>
<path d="M321.143 126.442L352.165 126.707L383.506 126.04L383.12 150.59L352.165 151.06L320.862 151.037L321.143 126.442Z" fill="#DBF1FF"/>
<path d="M336.764 144.261L342.782 144.352L342.835 159.208L336.877 159.238L336.764 144.261Z" fill="#DBF1FF"/>
<path d="M367.422 144.269L373.494 144.337L373.539 159.231L367.62 159.2L367.422 144.269Z" fill="#DBF1FF"/>
<path d="M333.959 128.033L354.795 116.065L375.851 127.889" fill="#00569C"/>
<path d="M373.63 129.186L354.795 118.802L335.9 129.027L331.435 126.298L354.795 113.466L378.58 126.283L373.63 129.186Z" fill="#DBF1FF"/>
<path d="M220.495 92.2978L238.838 79.2536L257.051 66.126L256.93 92.078L220.495 92.2978Z" fill="#DBF1FF"/>
<path d="M220.859 158.837L257.483 159.663L257.475 125.768L257.081 92.3123L220.609 92.4259L220.275 125.768L220.859 158.837Z" fill="#DBF1FF"/>
<path d="M257.074 92.3207L275.545 79.4204L293.584 66.2019L293.69 92.3283L257.074 92.3207Z" fill="#DBF1FF"/>
<path d="M256.831 159.513L293.516 159.065L294.327 125.769L294.099 91.8357L256.99 92.1995L257.453 125.769L256.831 159.513Z" fill="#DBF1FF"/>
<path d="M293.576 92.4415L311.797 78.9501L330.071 66.3455L330.049 92.0019L293.576 92.4415Z" fill="#DBF1FF"/>
<path d="M293.372 159.565L329.844 158.776L330.617 125.768L329.988 92.6002L293.88 92.532L293.22 125.768L293.372 159.565Z" fill="#DBF1FF"/>
<path d="M232.774 136.955L234.199 136.91L234.691 114.998L234.343 93.0779L233.547 93.0931L232.865 114.998L232.774 136.955Z" fill="#00569C"/>
<path d="M231.053 135.977L233.145 135.992V136.925L231.061 136.932L231.053 135.977Z" fill="#00569C"/>
<path d="M231.069 93.0775L233.153 93.0623L233.161 94.0249L231.061 94.0097L231.069 93.0775Z" fill="#00569C"/>
<path d="M239.527 136.91L240.474 136.932L240.459 114.997L240.952 93.0398L239.383 93.0853L239.125 115.005L239.527 136.91Z" fill="#00569C"/>
<path d="M237.049 136H239.125L239.14 136.947H237.041L237.049 136Z" fill="#00569C"/>
<path d="M237.041 93.0623L239.125 93.0774L239.133 94.0021H237.049L237.041 93.0623Z" fill="#00569C"/>
<path d="M245.538 136.91L246.622 136.94L246.402 114.998L246.174 93.0932L245.417 93.0856L244.977 115.005L245.538 136.91Z" fill="#00569C"/>
<path d="M243.021 135.978L245.121 135.986L245.113 136.933L243.021 136.948V135.978Z" fill="#00569C"/>
<path d="M243.021 93.0476L245.113 93.0779L245.121 94.0102L243.021 94.0254V93.0476Z" fill="#00569C"/>
<path d="M269.511 136.948L271.149 136.932L271.202 114.997L271.535 93.0398L269.519 93.055L269.784 115.005L269.511 136.948Z" fill="#00569C"/>
<path d="M267.647 135.993H269.739V136.933L267.647 136.948V135.993Z" fill="#00569C"/>
<path d="M267.655 93.0855L269.731 93.0779L269.739 94.0178L267.655 93.995V93.0855Z" fill="#00569C"/>
<path d="M276.105 136.91L277.273 136.94L277.167 114.997L277.561 93.0398L275.833 93.0777L275.924 114.997L276.105 136.91Z" fill="#00569C"/>
<path d="M273.627 135.978H275.726L275.719 136.925L273.627 136.94V135.978Z" fill="#00569C"/>
<path d="M273.642 93.0852L275.719 93.0701L275.726 94.0251L273.627 94.0175L273.642 93.0852Z" fill="#00569C"/>
<path d="M282.078 136.91L283.154 136.94L282.942 114.998L282.897 93.0779L282.04 93.093L281.464 115.005L282.078 136.91Z" fill="#00569C"/>
<path d="M279.615 135.986L281.699 136.009L281.714 136.956L279.615 136.948V135.986Z" fill="#00569C"/>
<path d="M279.615 93.0554L281.707 93.063L281.714 94.0256L279.615 94.0104V93.0554Z" fill="#00569C"/>
<path d="M306.522 136.926L307.811 136.941L307.932 114.998L307.667 93.0708L306.423 93.0784L305.931 115.006L306.522 136.926Z" fill="#00569C"/>
<path d="M304.241 135.993L306.333 135.978V136.948L304.233 136.941L304.241 135.993Z" fill="#00569C"/>
<path d="M304.241 93.0779L306.317 93.0855L306.333 94.0177L304.248 94.0026L304.241 93.0779Z" fill="#00569C"/>
<path d="M312.108 136.949L313.359 136.911L313.541 114.999L314.041 93.0487H311.941V114.999L312.108 136.949Z" fill="#00569C"/>
<path d="M310.228 136.008L312.313 136.001L312.32 136.948L310.228 136.933V136.008Z" fill="#00569C"/>
<path d="M310.221 93.0638L312.32 93.0486L312.305 93.9961L310.221 94.0112V93.0638Z" fill="#00569C"/>
<path d="M318.073 136.949L319.316 136.912L319.513 114.999L319.733 93.0644L318.642 93.0947L318.066 114.999L318.073 136.949Z" fill="#00569C"/>
<path d="M316.201 135.972L318.293 135.994L318.3 136.957L316.208 136.942L316.201 135.972Z" fill="#00569C"/>
<path d="M316.208 93.0798H318.293V94.0045L316.201 94.0197L316.208 93.0798Z" fill="#00569C"/>
<path d="M40.7863 152.121L35.2154 152.06L29.6748 152.037L24.1418 152.136L18.6012 151.954L13.144 152.015L13.0303 146.088L13 140.024L18.5936 140.001L24.1342 140.16L29.6672 140.077L35.2078 139.971L40.8166 140.024L40.6119 146.088L40.7863 152.121Z" fill="#DBF1FF"/>
<path d="M40.756 159.086L35.2154 159.17L29.6749 159.079L24.1419 159.117L18.6013 159.109L13.0683 159.026L13.0759 157.722L18.5937 157.623L24.1343 157.813L29.6673 157.79L35.2079 157.646L40.7712 157.601L40.756 159.086Z" fill="#DBF1FF"/>
<path d="M19.0559 157.677L16.8048 157.684L16.8427 152.091L19.0483 152.098L19.0559 157.677Z" fill="#DBF1FF"/>
<path d="M19.0939 143.207L16.8277 143.2L16.8201 137.606L19.0485 137.621L19.0939 143.207Z" fill="#DBF1FF"/>
<path d="M19.0559 155.296L16.8275 155.304L15.0691 152.067L20.7991 152.083L19.0559 155.296Z" fill="#DBF1FF"/>
<path d="M37.0039 155.319L34.7604 155.296L32.9944 152.075L38.7396 152.067L37.0039 155.319Z" fill="#DBF1FF"/>
<path d="M36.9585 157.669L34.7225 157.684L34.7377 152.083H36.9964L36.9585 157.669Z" fill="#DBF1FF"/>
<path d="M17.6915 157.661H17.3504L17.4111 152.802L17.358 147.929L17.4262 143.055L17.2671 138.182H17.7597L17.8128 143.048L17.8204 147.921L17.7142 152.795L17.6915 157.661Z" fill="#00569C"/>
<path d="M18.5255 157.661H18.1617L18.2375 152.803L18.1768 147.929L18.1996 143.056L18.1617 138.19H18.48L18.5331 143.048L18.4724 147.922L18.624 152.795L18.5255 157.661Z" fill="#00569C"/>
<path d="M336.021 50.1546V46.5771L332.284 46.6302L326.372 43.75L320.347 41.1351L314.442 38.27L308.492 35.496L302.504 32.828L302.474 29.7507L298.389 29.7811L298.412 26.8781H301.542L298.222 21.4437L295.092 15.9486L288.733 15.8955L282.366 15.9258H275.992L272.823 21.3906L269.701 26.8781L272.785 26.8402L272.717 29.6825L268.746 29.8114L268.64 32.8053L262.682 35.5111L256.725 38.27L250.752 40.9911L244.779 43.7197L238.86 46.5695L235.063 46.5013L235.146 50.1622H242.255L249.395 50.2456L256.535 50.2835H263.683L270.853 50.1925V54.7857H267.919L267.973 58.3935L270.891 58.4238L270.769 65.7986L270.883 73.1582V80.5179L270.868 87.8775L270.792 95.2372L270.944 102.574L272.74 102.612L272.604 95.2448L272.657 87.8851L272.71 80.5255L272.626 73.1658L272.664 65.8062L272.611 58.3783L279.524 58.4693L279.478 65.7986V73.1582L279.524 80.5179L279.592 87.8775L279.478 95.2372L279.562 102.597H281.403L281.335 95.2448L281.403 87.8851L281.282 80.5255L281.411 73.1658V65.8062L281.328 58.3935L288.27 58.4238L288.217 65.7986L288.149 73.1582L288.194 80.5179L288.323 87.8775L288.339 95.2372L288.217 102.604H290.135L290.006 95.2448L290.051 87.8851L290.097 80.5255L290.021 73.1658L290.18 65.8062L290.142 58.4996L296.994 58.4086L296.896 65.7986L296.911 73.1582L297.04 80.5179L296.903 87.8775L296.934 95.2372L296.911 102.612L298.722 102.589L298.821 95.2523L298.684 87.8927L298.859 80.533L298.76 73.1734L298.828 65.8138L298.806 58.4617L301.739 58.4769L301.716 54.7781L298.715 54.8311L298.798 50.2607L306.241 50.3214L313.699 50.2077L321.15 50.3062L328.608 50.2532L336.036 50.1849L336.021 50.1546ZM274.271 46.562L279.402 39.9451L284.473 33.3434L285.019 33.4419L290.226 39.9224L295.205 46.5165L288.293 46.4331L281.312 46.5013L274.271 46.5468V46.562ZM282.275 33.4419L277.151 40.0057L272.058 46.6226L266.419 46.4786L260.749 46.5241L267.472 42.2189L274.112 37.8683L280.691 33.4344H282.275V33.4419ZM287.33 33.4419L290.514 33.3813L297.161 37.7243L303.694 42.2341L310.425 46.5544L303.975 46.4937L297.646 46.471L292.515 39.9678L287.323 33.4344L287.33 33.4419ZM313.654 46.6226L307.029 42.2189L300.382 37.8759L293.872 33.404L299.306 33.351L304.983 36.1099L310.69 38.7703L316.443 41.3321L322.188 43.9167L327.949 46.5847L320.786 46.5695L313.646 46.6226H313.654ZM274.559 26.8327L281.911 26.8478L289.248 26.8023L296.562 26.9539L296.615 29.819L289.256 29.6901L281.919 29.6522L274.597 29.728L274.559 26.8402V26.8327ZM271.853 33.3586L277.394 33.4344L270.784 37.8759L264.077 42.128L257.513 46.6302L250.373 46.4937L243.339 46.5089L248.986 43.9546L254.686 41.2867L260.393 38.6263L266.138 36.0417L271.853 33.351V33.3586ZM272.626 54.8311V50.2001L279.584 50.1622L279.501 54.725L272.634 54.8311H272.626ZM281.328 54.8311V50.2001L288.285 50.1622L288.202 54.725L281.335 54.8311H281.328ZM296.972 54.8311L290.044 54.816L290.021 50.1622L296.903 50.291L296.979 54.8311H296.972Z" fill="#DBF1FF"/>
<path d="M432.901 50.2078L433 46.4408L429.134 46.6455L423.185 43.8335L417.189 41.1655L411.315 38.2399L405.259 35.6932L399.438 32.7448L399.393 29.6599L395.292 29.6978V26.8934L398.4 26.8707L395.141 21.3983L392.003 15.8653L385.598 16.0397L379.231 15.8956H372.834L369.757 21.4211L366.528 26.8631L369.696 26.7797V29.8343L365.528 29.6902L365.497 32.7751L359.638 35.678L353.636 38.3384L347.648 41.0291L341.668 43.735L335.687 46.4029L331.981 46.5318L331.936 50.276L339.113 50.223L346.253 50.1169L353.393 50.1926L360.54 50.3291L367.703 50.1851L367.627 54.71L364.876 54.8389L364.83 58.3709L367.589 58.4694L367.544 65.109L367.771 71.7941L367.756 78.4792L367.741 85.1642L367.802 91.8493L367.665 98.5344L367.627 105.219L367.544 111.905L367.62 118.59L367.559 125.275L367.627 131.96L367.597 138.645L367.824 145.33L367.627 152.015L367.817 158.67L369.431 158.685V152.03V145.345L369.515 138.66L369.416 131.975L369.53 125.29L369.439 118.605L369.393 111.92L369.575 105.235L369.515 98.5495L369.598 91.8645V85.1794L369.477 78.4943L369.621 71.8092L369.56 65.1242V58.477L376.359 58.4618L376.412 65.1166L376.366 71.8017L376.518 78.4867L376.275 85.1718L376.45 91.8569L376.397 98.542L376.381 105.227L376.465 111.912L376.412 118.597L376.48 125.282L376.328 131.967L376.457 138.652L376.472 145.337L376.427 152.023L376.389 158.715L378.102 158.677L378.132 152.03L378.117 145.345L378.276 138.66L378.299 131.975L378.14 125.29L378.238 118.605L378.314 111.92V105.235L378.148 98.5495L378.269 91.8645L378.11 85.1794L378.201 78.4943L378.148 71.8092V65.1242L378.261 58.4618L385.174 58.3557L384.961 65.1166L385.075 71.8017L385.022 78.4867L385.083 85.1718L385.06 91.8569L384.977 98.542L385.158 105.227L385.105 111.912L385.037 118.597L385.06 125.282L385.136 131.967L384.969 138.652L385.105 145.337L385.227 152.023L385.075 158.715L386.856 158.692L387 152.03L386.849 145.345L386.962 138.66L386.924 131.975L386.978 125.29L386.841 118.605L386.887 111.92L387.031 105.235L386.924 98.5495L387.038 91.8645L387.015 85.1794L386.924 78.4943L386.94 71.8092L386.841 65.1242L386.887 58.4239H393.784L393.814 65.1166L393.64 71.8017L393.663 78.4867L393.852 85.1718L393.708 91.8569L393.898 98.542L393.632 105.227L393.814 111.912L393.845 118.597V125.282L393.655 131.967L393.852 138.652L393.708 145.337L393.647 152.023L393.754 158.715L395.474 158.677L395.633 152.03L395.702 145.345L395.648 138.66L395.542 131.975L395.573 125.29L395.671 118.605L395.611 111.92L395.558 105.235L395.648 98.5495L395.694 91.8645L395.724 85.1794L395.671 78.4943L395.55 71.8092L395.459 65.1242L395.611 58.4467L398.589 58.4921L398.407 54.854L395.558 54.7934V50.1851L403.046 50.2305L410.504 50.2154H417.955L425.413 50.3139L432.871 50.223L432.901 50.2078ZM371.182 46.5394L376.389 40.0513L381.301 33.3284L381.945 33.3739L387.106 39.8998L392.025 46.5166L385.136 46.6682L378.155 46.4105L371.174 46.5469L371.182 46.5394ZM379.065 33.4042L373.858 39.8922L368.923 46.6455L363.269 46.5848L357.562 46.5166L364.345 42.2418L370.848 37.679L377.602 33.5179L379.08 33.3966L379.065 33.4042ZM384.241 33.4042L387.288 33.5254L394.026 37.6866L400.605 42.1281L407.321 46.5318L400.825 46.4484L394.39 46.6455L389.456 39.8846L384.249 33.3966L384.241 33.4042ZM410.527 46.5394L403.986 42.0447L397.225 37.876L390.631 33.4117L396.179 33.2905L401.833 36.1176L407.647 38.5506L413.256 41.4156L419.001 44.0002L424.731 46.5394H417.644L410.527 46.5545V46.5394ZM371.44 26.8707L378.769 27.0071L386.106 26.757L393.458 26.8328L393.488 29.8343L386.113 29.6372L378.777 29.8494L371.493 29.5993L371.44 26.8707V26.8707ZM368.726 33.3966L374.077 33.3663L367.658 37.876L360.995 42.1963L354.386 46.653L347.231 46.4484L340 46.6L345.889 44.0381L351.589 41.3626L357.289 38.687L363.011 36.0494L368.726 33.3966V33.3966ZM369.522 54.7479L369.598 50.3215L376.457 50.1093L376.419 54.7782L369.53 54.7479H369.522ZM378.223 54.7479L378.299 50.3215L385.158 50.1093L385.121 54.7782L378.231 54.7479H378.223ZM393.799 54.7479L387 54.6342L386.864 50.1093L393.822 50.1699L393.799 54.7479Z" fill="#DBF1FF"/>
<path d="M202.244 121.72H201.304V126.563H202.244V121.72Z" fill="#DBF1FF"/>
<path d="M208.095 121.72H207.155V126.563H208.095V121.72Z" fill="#DBF1FF"/>
<path d="M213.946 121.72H213.007V126.563H213.946V121.72Z" fill="#DBF1FF"/>
<path d="M219.798 121.72H218.858V126.563H219.798V121.72Z" fill="#DBF1FF"/>
<path d="M143.852 121.72H142.912V126.563H143.852V121.72Z" fill="#DBF1FF"/>
<path d="M149.703 121.72H148.763V126.563H149.703V121.72Z" fill="#DBF1FF"/>
</g>
<defs>
<clipPath id="clip0_1364_163941">
<rect width="386" height="161" fill="white"/>
</clipPath>
</defs>
</svg>
