<svg width="386" height="160" viewBox="0 0 386 160" fill="none" xmlns="http://www.w3.org/2000/svg">
<g clip-path="url(#clip0_1364_164918)">
<path d="M238.834 120.095L244.563 120.077L250.265 120.156L255.985 120.121L261.67 120.148L261.661 125.832L261.679 131.543L261.714 137.264L255.994 137.29L250.283 137.264L244.572 137.299L238.86 137.246V131.543L238.869 125.832L238.834 120.095Z" fill="#DBF1FF"/>
<path d="M244.598 97.3119L250.274 97.2412H255.976L261.696 97.2501L267.399 97.2943L267.363 102.988L267.408 108.699L267.381 114.384L261.705 114.428L255.994 114.392L250.283 114.419H244.554L244.589 108.699V102.988L244.598 97.3119Z" fill="#DBF1FF"/>
<path d="M244.554 142.957L250.274 142.992L255.985 142.975L261.705 142.957L261.679 148.668V154.379L261.714 160.117L255.985 160.055L250.274 160.117L244.572 160.082L244.545 154.388L244.572 148.677L244.554 142.957Z" fill="#DBF1FF"/>
<path d="M267.408 154.379L274.065 154.353H280.731L287.406 154.37V160.108H280.731L274.074 160.126L267.39 160.117L267.408 154.379Z" fill="#DBF1FF"/>
<path d="M233.14 142.957L238.843 142.975L238.834 148.668L238.887 154.379L238.86 160.099L233.149 160.082L233.132 154.388L233.158 148.677L233.14 142.957Z" fill="#DBF1FF"/>
<path d="M227.438 120.121L233.149 120.112L233.114 125.832V131.544L233.14 137.246H227.438L227.42 131.544L227.465 125.832L227.438 120.121Z" fill="#DBF1FF"/>
<path d="M233.158 97.2939H238.843L238.825 102.987L238.86 108.699L238.852 114.41L233.158 114.401V108.699L233.114 102.987L233.158 97.2939Z" fill="#DBF1FF"/>
<path d="M267.425 120.138H274.065L280.731 120.103L287.415 120.094L287.37 125.796H280.731L274.074 125.849L267.434 125.805L267.425 120.138Z" fill="#DBF1FF"/>
<path d="M293.108 154.389L298.81 154.38L304.53 154.371V160.1L298.81 160.091L293.099 160.1L293.108 154.389Z" fill="#DBF1FF"/>
<path d="M293.099 120.12L298.81 120.103L304.53 120.12L304.522 125.823L298.81 125.849L293.099 125.84V120.12Z" fill="#DBF1FF"/>
<path d="M267.416 131.552L274.065 131.543L280.731 131.516H287.415L287.397 137.254L280.731 137.219L274.074 137.272H267.39L267.416 131.552Z" fill="#DBF1FF"/>
<path d="M293.108 142.966L298.81 142.974L304.522 142.966L304.53 148.677L298.81 148.659H293.117L293.108 142.966Z" fill="#DBF1FF"/>
<path d="M293.108 131.543L298.81 131.525L304.513 131.552V137.237L298.81 137.254L293.108 137.245V131.543Z" fill="#DBF1FF"/>
<path d="M321.646 131.525L330.222 131.534L330.213 137.245L321.646 137.263V131.525Z" fill="#DBF1FF"/>
<path d="M267.408 142.966L274.065 142.957L280.731 142.931L287.406 142.948L287.37 148.651H280.731L274.074 148.695H267.39L267.408 142.966Z" fill="#DBF1FF"/>
<path d="M321.655 142.966L330.231 142.948V148.686L321.664 148.66L321.655 142.966Z" fill="#DBF1FF"/>
<path d="M324.599 0.123772L318.269 0.300589L312.027 0.0795678L305.786 0.247544L299.544 0.114931L293.302 0.0707269L287.061 0.335953L280.81 0.433202L274.569 0.238703L268.327 0.0972495L262.085 0.221022L255.844 0.327112L249.593 0.176817L243.352 0.327112L237.101 0.371316L230.851 0L224.512 0.123772L224.812 6.7279L224.706 13.2525L224.574 19.777L224.494 26.3016L224.459 32.8261L224.697 39.3507L224.644 45.8753V52.3998L224.565 58.9244L224.697 65.4489L224.83 71.9735L224.724 78.498L224.529 85.0314L224.547 91.6179L230.665 91.503L236.73 91.6179L242.795 91.4588L248.859 91.3615L254.924 91.4499L260.989 91.7151L267.063 91.388L273.154 91.5383L273.101 97.2672L273.207 102.978L272.915 108.69L273.03 114.525L279.422 114.348L285.699 114.427L291.976 114.533L298.262 114.312L304.398 114.242L304.38 108.698L304.336 102.987L304.645 97.276L304.424 91.4146L311.214 91.5206L317.88 91.4764L324.679 91.7063L324.325 85.0403L324.749 78.5157L324.511 71.9912L324.546 65.4666L324.696 58.942L324.635 52.4175L324.378 45.8929L324.741 39.3684L324.449 32.8438L324.59 26.3193L324.776 19.7947L324.626 13.2701L324.749 6.73674L324.643 0.123772H324.599ZM313 40.2701L313.15 45.9637L307.368 45.7692L301.631 45.9283L301.728 40.2525L307.368 40.3232L312.991 40.2701H313ZM304.433 34.391L298.81 34.5766L293.188 34.391L293.073 28.7417L298.81 28.8654H304.424L304.433 34.391ZM278.901 17.443L285.478 17.2574L292.144 17.4784L298.837 17.3193L298.748 22.9863L292.153 22.9244L285.487 23.1896L278.68 23.225L278.91 17.4342L278.901 17.443ZM278.892 28.8743L287.441 28.6886L287.317 34.3733L278.803 34.5147L278.892 28.8743V28.8743ZM278.91 40.279L284.532 40.0933L290.155 40.279L290.27 45.9283L284.532 45.8045H278.918L278.91 40.279ZM233.22 6.00295L239.798 5.81729L246.455 6.03831L253.121 5.87033L259.778 6.00295L266.444 6.04715L273.198 5.80845L273.26 11.7937L266.453 11.6611L259.796 11.5196L253.13 11.6434L246.472 11.7495L239.806 11.5992L233.061 11.723L233.22 6.01179V6.00295ZM264.472 40.2701L264.605 45.9637L257.409 45.7603L250.274 45.9283L243.131 45.7957H236.076L235.908 40.0756L243.131 39.9519L250.265 40.1464L257.409 40.2878H264.472V40.2701ZM241.796 34.3644L241.645 28.6709L247.418 28.8654L253.13 28.6974L258.779 28.8035L258.752 34.3556L253.138 34.5855L247.427 34.6827L241.804 34.3733L241.796 34.3644ZM230.373 17.4077L235.996 17.222L241.707 17.443L247.445 17.2839L247.348 22.9597L241.707 22.889L235.996 23.1542L230.126 23.1807L230.373 17.3988V17.4077ZM230.373 28.8301L236.067 28.6798L235.908 34.3644L230.258 34.4794L230.373 28.8301ZM264.472 85.7476L257.409 85.9421L250.274 85.721L243.131 85.889L236.049 85.7741L236.076 80.2397L243.131 80.001L250.265 79.9037L257.409 80.0982L264.481 80.222V85.7564L264.472 85.7476ZM264.464 71.4696L257.4 71.6641L250.265 71.443L243.122 71.611L236.04 71.4961L236.067 65.9617L243.122 65.723L250.256 65.6257L257.4 65.8202L264.472 65.944V71.4784L264.464 71.4696ZM290.137 85.7564L284.515 85.9421L278.892 85.7564L278.777 80.1071L284.515 80.2309H290.129L290.137 85.7564ZM290.137 71.4784L284.515 71.6641L278.892 71.4784L278.777 65.8291L284.515 65.9529H290.129L290.137 71.4784ZM315.838 57.2004L309.331 57.3861L302.745 57.165L296.158 57.333L289.572 57.2004L282.985 57.1562L276.399 57.4214L269.812 57.5187L263.226 57.3242L256.639 57.1827L250.044 57.3065L243.458 57.4126L236.862 57.2623L230.188 57.3861L230.161 51.4538L236.854 51.7809L243.44 51.7014L250.026 51.3743L256.613 51.4804L263.199 51.613L269.786 51.6925L276.372 51.7279L282.959 51.4892L289.545 51.5422H296.14L302.727 51.6218L309.322 51.4892L316.059 51.4096L315.838 57.1916V57.2004Z" fill="#DBF1FF"/>
<path d="M335.933 142.974L344.491 142.966L344.5 148.686H335.924L335.933 142.974Z" fill="#DBF1FF"/>
<path d="M310.277 97.3288L310.321 103.562L310.233 109.839L310.321 116.116L310.233 122.393L310.197 128.67L310.118 134.947V141.224L310.144 147.51L310.242 153.795L310.162 160.152L316.748 160.046L323.273 160.108L329.798 160.019L336.322 159.993L342.847 160.17L349.38 160.09L355.975 160.17V153.822L355.94 147.545L356.011 141.268V134.991L356.002 128.714L355.967 122.437L355.931 116.16L355.993 109.874L355.975 103.588L355.94 97.2758L349.389 97.32L342.864 97.2935L336.34 97.2227L329.815 97.3996L323.291 97.3642L316.757 97.1874L310.277 97.3642V97.3288ZM350.255 125.788L350.3 132.975L350.211 140.11L350.3 147.253L350.202 154.397L343.351 154.361L336.499 154.282H329.647L322.796 154.308L315.926 154.405L316.024 147.253L315.891 140.119L315.953 132.975L315.882 125.779L322.787 125.726L329.638 125.903L336.49 125.823L343.342 125.92L350.247 125.779L350.255 125.788ZM350.255 102.943L350.3 108.698L350.211 114.409L350.264 120.191L343.351 120.121L336.499 120.085L329.647 120.006H322.796L315.997 120.059L315.926 114.418L316.032 108.707L315.917 102.96L322.796 103.005L329.647 102.916L336.499 102.89L343.351 103.067L350.247 102.952L350.255 102.943Z" fill="#DBF1FF"/>
<path d="M321.637 108.69L327.358 108.708L333.069 108.699L338.78 108.726L344.482 108.717L344.518 114.428L338.789 114.366L333.078 114.455L327.366 114.366L321.629 114.437L321.637 108.69Z" fill="#DBF1FF"/>
<path d="M335.924 131.525L344.491 131.552V137.237L335.924 137.254V131.525Z" fill="#DBF1FF"/>
<path d="M196 120.095L202.454 120.112L208.872 120.166L215.3 120.086L221.7 120.148L221.762 125.833L221.736 131.544V137.264L215.3 137.237L208.881 137.264L202.454 137.255L196 137.281L196.071 131.544L196.08 125.833L196 120.095Z" fill="#DBF1FF"/>
<path d="M201.746 97.2934L208.165 97.3199L214.583 97.2668L221.011 97.3287L227.429 97.2845L227.438 102.987L227.42 108.698V114.4L221.011 114.427L214.592 114.409L208.165 114.4L201.738 114.409L201.72 108.698L201.782 102.987L201.746 97.2934Z" fill="#DBF1FF"/>
<path d="M201.711 142.931L208.165 143.01L214.583 142.975L221.011 142.922L227.412 142.984L227.394 148.668L227.42 154.38V160.073L221.011 160.091L214.592 160.144H208.165L201.738 160.1L201.746 154.388V148.677L201.711 142.931Z" fill="#DBF1FF"/>
</g>
<defs>
<clipPath id="clip0_1364_164918">
<rect width="386" height="160" fill="white"/>
</clipPath>
</defs>
</svg>
