<svg width="386" height="172" viewBox="0 0 386 172" fill="none" xmlns="http://www.w3.org/2000/svg">
<g clip-path="url(#clip0_1364_164864)">
<path d="M246.296 27.5193L247.128 27.1254L247.968 26.7578L248.808 26.3814L249.578 25.8475L250.436 25.5323L250.813 26.3376L251.171 27.1692L251.583 27.9832L252.029 28.7797L252.467 29.5762L252.826 30.4165L253.255 31.213L253.675 32.0183L253.955 32.8849L254.384 33.6901L254.839 34.4779L255.25 35.2832L255.662 36.0972L256.003 36.9462L256.467 37.734L256.738 38.6093L257.176 39.4058L257.552 40.2286L257.981 41.0426L258.401 41.8479L258.778 42.6707L259.145 43.511L259.627 44.29L259.959 45.139L260.397 45.9355L260.738 46.7846L261.159 47.5899L261.544 48.4214L261.964 49.2267L262.34 50.0582L262.743 50.8722L263.198 51.66L263.583 52.4915L263.916 53.3406L264.345 54.1458L264.8 54.9424L265.167 55.7739L265.57 56.5967L265.92 57.437L266.367 58.2335L266.769 59.065L267.128 59.9053L267.505 60.7018L266.752 61.1482L265.929 61.5684L265.097 61.971L264.257 62.3474L263.408 62.75L263.014 61.9185L262.647 61.087L262.183 60.3079L261.885 59.4414L261.386 58.6711L261.019 57.8396L260.686 56.9906L260.266 56.1853L259.828 55.3975L259.461 54.566L258.997 53.7782L258.69 52.9204L258.209 52.1414L257.841 51.3099L257.474 50.4783L257.106 49.6468L256.616 48.8678L256.257 48.0363L255.802 47.2397L255.443 46.4082L255.075 45.5679L254.69 44.7451L254.226 43.9661L253.867 43.1258L253.474 42.3031L253.123 41.454L252.668 40.6663L252.309 39.826L251.854 39.0382L251.548 38.1717L251.093 37.3839L250.655 36.5874L250.314 35.7383L249.929 34.9155L249.482 34.119L249.115 33.2787L248.764 32.4297L248.265 31.6594L247.898 30.8279L247.521 29.9964L247.154 29.1561L246.716 28.3421L246.296 27.5193Z" fill="#DBF1FF"/>
<path d="M238.016 31.5543L238.812 31.0992L239.644 30.7053L240.467 30.2939L241.307 29.8912L242.147 29.5674L242.62 30.3201L242.961 31.1604L243.373 31.9745L243.793 32.7885L244.108 33.6463L244.502 34.4603L244.983 35.2306L245.351 36.0621L245.736 36.8849L246.13 37.6989L246.489 38.5304L246.856 39.362L247.381 40.1235L247.697 40.9813L248.09 41.8041L248.449 42.6356L248.861 43.4496L249.298 44.2461L249.736 45.0427L250.095 45.8829L250.533 46.6795L250.961 47.4847L251.233 48.3688L251.67 49.1653L252.126 49.9618L252.537 50.7671L252.948 51.5811L253.29 52.4302L253.754 53.2179L254.025 54.102L254.463 54.8985L254.839 55.7213L255.268 56.5266L255.688 57.3406L256.064 58.1634L256.432 59.0037L256.913 59.7827L257.255 60.6405L257.684 61.437L258.034 62.286L258.454 63.1001L258.848 63.9316L259.268 64.7456L258.436 65.1132L257.614 65.5246L256.808 65.9885L255.968 66.3737L255.145 66.715L254.743 65.936L254.296 65.1483L253.929 64.3167L253.526 63.5027L253.185 62.6537L252.73 61.8659L252.336 61.0519L251.977 60.2116L251.609 59.3888L251.136 58.6098L250.725 57.8045L250.322 56.9817L249.955 56.1589L249.561 55.3362L249.167 54.5134L248.799 53.6819L248.336 52.8941L248.038 52.0275L247.539 51.2573L247.171 50.4257L246.839 49.5767L246.419 48.7627L245.981 47.9662L245.605 47.1346L245.141 46.3469L244.834 45.4891L244.353 44.71L243.985 43.8785L243.609 43.0382L243.25 42.2067L242.76 41.4364L242.401 40.5961L241.946 39.8084L241.587 38.9681L241.219 38.1366L240.825 37.305L240.362 36.5173L240.011 35.677L239.618 34.8542L239.259 34.0051L238.804 33.2086L238.436 32.3683L238.016 31.5543Z" fill="#DBF1FF"/>
<path d="M262.883 19.4753L263.706 19.099L264.511 18.6525L265.334 18.2324L266.174 17.8385L267.006 17.4884L267.452 18.2499L267.837 19.0727L268.17 19.9217L268.572 20.7445L269.063 21.5148L269.43 22.3463L269.737 23.2041L270.192 23.9919L270.586 24.8059L271.032 25.5937L271.417 26.4164L271.829 27.2305L272.222 28.0445L272.538 28.9023L273.028 29.6813L273.378 30.5216L273.789 31.3356L274.201 32.1409L274.516 32.9987L274.918 33.8215L275.4 34.5917L275.767 35.432L276.161 36.2548L276.555 37.0688L276.914 37.9091L277.282 38.7406L277.807 39.5022L278.122 40.3599L278.516 41.1827L278.875 42.023L279.286 42.8283L279.724 43.6248L280.161 44.4301L280.529 45.2704L280.958 46.0669L281.387 46.8809L281.667 47.7562L282.105 48.5615L282.551 49.3493L282.971 50.1633L283.382 50.9861L283.733 51.8351L284.197 52.6929L283.277 53.008L282.463 53.4544L281.632 53.8395L280.809 54.2684L279.978 54.6973L279.592 53.8658L279.234 53.0255L278.752 52.2552L278.411 51.4062L277.982 50.6009L277.641 49.7606L277.22 48.9554L276.835 48.1326L276.424 47.3273L276.048 46.5045L275.645 45.6905L275.19 44.9027L274.805 44.0712L274.472 43.2222L274.043 42.4256L273.588 41.6291L273.229 40.7976L272.818 39.9836L272.476 39.1433L272.03 38.3468L271.636 37.524L271.268 36.6924L270.901 35.8609L270.419 35.0819L270.008 34.2679L269.605 33.4451L269.238 32.6136L268.844 31.7908L268.45 30.968L268.082 30.1365L267.618 29.3487L267.321 28.4909L266.822 27.7119L266.454 26.8804L266.122 26.0313L265.701 25.2173L265.255 24.4208L264.887 23.5805L264.424 22.7927L264.108 21.9262L263.627 21.1471L263.251 20.3069L262.883 19.4753Z" fill="#DBF1FF"/>
<path d="M271.128 15.431L271.995 15.0809L272.783 14.5908L273.632 14.2231L274.472 13.838L275.312 13.3916L275.645 14.2669L276.1 15.0547L276.511 15.8687L276.94 16.674L277.29 17.5143L277.623 18.3633L278.043 19.1598L278.498 19.9476L278.857 20.7791L279.242 21.6019L279.68 22.3984L280.091 23.2124L280.476 24.0352L280.827 24.8843L281.299 25.6633L281.684 26.4861L282.008 27.3351L282.411 28.1491L282.901 28.9194L283.269 29.7597L283.584 30.6175L284.039 31.4052L284.433 32.228L284.879 33.0245L285.273 33.8473L285.684 34.6613L286.078 35.4841L286.393 36.3419L286.884 37.1122L287.234 37.9525L287.645 38.7665L288.057 39.5718L288.372 40.4383L288.774 41.2611L289.256 42.0314L289.623 42.8716L290.017 43.6944L290.411 44.5172L290.779 45.3575L291.146 46.189L291.672 46.9505L291.987 47.8258L292.381 48.6311L291.558 48.9725L290.735 49.3926L289.93 49.839L289.116 50.2854L288.275 50.6443L287.838 49.8565L287.418 49.0513L287.137 48.176L286.709 47.3707L286.253 46.5829L285.842 45.7776L285.431 44.9636L285.089 44.1233L284.634 43.3356L284.363 42.4603L283.925 41.6637L283.549 40.841L283.12 40.0357L282.7 39.2217L282.323 38.3989L281.956 37.5673L281.474 36.7883L281.142 35.9393L280.713 35.134L280.363 34.2937L279.943 33.4797L279.557 32.6569L279.137 31.8516L278.77 31.0201L278.358 30.2061L277.903 29.4096L277.518 28.5868L277.185 27.7377L276.756 26.9325L276.301 26.1359L275.942 25.3132L275.531 24.4904L275.19 23.6501L274.743 22.8536L274.341 22.0308L273.982 21.1905L273.605 20.359L273.133 19.5712L272.713 18.7659L272.319 17.9432L271.942 17.1029L271.548 16.2713L271.128 15.431Z" fill="#DBF1FF"/>
<path d="M287.741 7.39617L288.547 6.98478L289.352 6.53838L290.219 6.20576L291.024 5.74186L291.873 5.36548L292.328 6.162L292.678 7.00229L293.089 7.81631L293.422 8.66535L293.798 9.48813L294.262 10.2759L294.683 11.0812L295.006 11.9302L295.47 12.7092L295.803 13.5583L296.284 14.3285L296.643 15.1688L297.02 15.9916L297.466 16.7881L297.772 17.6547L298.227 18.4424L298.639 19.2565L299.068 20.053L299.418 20.8933L299.751 21.7423L300.179 22.5563L300.635 23.3441L300.993 24.1756L301.379 25.0072L301.816 25.8037L302.236 26.6177L302.621 27.4405L302.963 28.2895L303.444 29.0686L303.829 29.8913L304.153 30.7404L304.556 31.5544L305.046 32.3334L305.414 33.1649L305.72 34.0315L306.184 34.828L306.578 35.6508L307.033 36.4473L307.418 37.2701L307.83 38.0841L308.232 38.9069L308.547 39.7734L309.046 40.605L308.162 40.9989L307.348 41.419L306.525 41.8304L305.65 42.1543L304.853 42.5569L304.398 41.8041L304.031 40.9726L303.646 40.1498L303.252 39.3358L302.884 38.4955L302.516 37.664L301.991 36.9112L301.685 36.0534L301.3 35.2394L300.932 34.4079L300.521 33.5938L300.083 32.7973L299.645 32.0008L299.287 31.1605L298.849 30.364L298.429 29.5587L298.149 28.6834L297.72 27.8869L297.265 27.0904L296.853 26.2851L296.442 25.4623L296.1 24.622L295.637 23.8343L295.365 22.9502L294.928 22.1537L294.542 21.3222L294.122 20.5169L293.702 19.7116L293.317 18.8801L292.958 18.0486L292.477 17.2695L292.135 16.4205L291.707 15.6152L291.365 14.7749L290.945 13.9609L290.551 13.1381L290.131 12.3241L289.763 11.4926L289.352 10.6785L288.897 9.88202L288.512 9.05048L288.17 8.19269L287.741 7.39617Z" fill="#DBF1FF"/>
<path d="M279.4 11.4046L280.266 11.0195L281.063 10.5556L281.912 10.1967L282.779 9.86412L283.601 9.35645L283.951 10.2317L284.415 11.0108L284.792 11.8423L285.229 12.6476L285.623 13.4616L285.947 14.3106L286.315 15.1422L286.744 15.9387L287.138 16.7615L287.558 17.5667L287.995 18.3633L288.319 19.2123L288.774 20.0001L289.151 20.8316L289.606 21.6281L289.956 22.4684L290.359 23.2737L290.691 24.1227L291.068 24.9543L291.532 25.742L291.952 26.5473L292.284 27.3963L292.748 28.1841L293.081 29.0331L293.571 29.8122L293.921 30.6525L294.306 31.484L294.753 32.2805L295.059 33.1383L295.514 33.9348L295.926 34.7401L296.354 35.5454L296.705 36.3857L297.037 37.2434L297.466 38.0487L297.921 38.8365L298.289 39.6768L298.674 40.5083L299.112 41.3048L299.523 42.1189L299.917 42.9504L300.258 43.7994L300.748 44.631L299.891 45.0424L299.033 45.375L298.201 45.7864L297.414 46.2853L296.547 46.6617L296.214 45.7864L295.759 44.9986L295.365 44.1758L294.919 43.3793L294.525 42.5565L294.114 41.7512L293.729 40.9284L293.413 40.0794L292.923 39.3091L292.573 38.4689L292.162 37.6636L291.75 36.8496L291.435 35.9918L291.041 35.169L290.551 34.3987L290.192 33.5584L289.798 32.7444L289.405 31.9216L289.046 31.0901L288.678 30.2498L288.144 29.4971L287.838 28.6393L287.444 27.8165L287.085 26.9762L286.674 26.1622L286.227 25.3656L285.79 24.5691L285.431 23.7288L284.993 22.9236L284.573 22.1183L284.293 21.2517L283.864 20.4465L283.409 19.65L282.989 18.8447L282.586 18.0307L282.236 17.1816L281.781 16.3851L281.501 15.501L281.063 14.7045L280.678 13.873L280.258 13.059L279.829 12.2449L279.4 11.4046Z" fill="#DBF1FF"/>
<path d="M295.952 3.34372L296.862 3.02862L297.659 2.55596L298.481 2.14457L299.348 1.8032L300.144 1.38306L300.53 2.17083L300.932 2.99361L301.387 3.77262L301.711 4.63041L302.105 5.45319L302.534 6.24971L302.937 7.06374L303.366 7.86902L303.768 8.67429L304.118 9.51458L304.582 10.3023L304.932 11.1339L305.256 11.9917L305.755 12.7619L306.079 13.6197L306.552 14.3987L306.919 15.2303L307.357 16.0268L307.76 16.8408L308.075 17.6986L308.442 18.5301L308.88 19.3354L309.274 20.1582L309.694 20.9635L310.132 21.76L310.464 22.6178L310.919 23.4056L311.287 24.2458L311.742 25.0336L312.092 25.8739L312.504 26.6879L312.836 27.537L313.213 28.3685L313.677 29.1563L314.097 29.9615L314.429 30.8193L314.893 31.6071L315.235 32.4561L315.716 33.2352L316.075 34.0754L316.46 34.907L316.906 35.7123L317.213 36.5438L316.451 36.9639L315.629 37.3841L314.814 37.813L313.957 38.1718L313.143 38.5132L312.758 37.7429L312.311 36.9552L311.944 36.1149L311.558 35.2921L311.121 34.4956L310.709 33.6903L310.324 32.8675L309.983 32.0272L309.51 31.2482L309.125 30.4254L308.801 29.5764L308.399 28.7624L307.908 27.9834L307.541 27.1518L307.226 26.294L306.77 25.5063L306.377 24.6835L305.93 23.8957L305.536 23.0729L305.125 22.2589L304.731 21.4361L304.416 20.5783L303.926 19.8081L303.576 18.959L303.164 18.145L302.753 17.3397L302.438 16.4732L302.035 15.6592L301.554 14.8802L301.186 14.0486L300.792 13.2258L300.407 12.4031L300.039 11.5715L299.672 10.7312L299.147 9.97849L298.832 9.11194L298.438 8.28916L298.079 7.44887L297.667 6.63485L297.221 5.83832L296.783 5.03305L296.416 4.18401L295.952 3.34372Z" fill="#DBF1FF"/>
<path d="M291.934 0.236331L291.208 0.770262L290.761 1.54928L290.63 2.43333L290.866 3.29987L291.19 4.00011L291.54 4.68284L291.864 5.38308L292.696 4.97169L293.518 4.56906L294.35 4.17517L295.181 3.77253L296.013 3.36114L295.68 2.66966L295.33 1.98693L295.006 1.28669L294.464 0.568944L293.685 0.122542L292.792 0L291.934 0.236331Z" fill="#DBF1FF"/>
<path d="M275.356 8.28043L274.638 8.82312L274.192 9.60213L274.061 10.4862L274.288 11.3615L274.621 12.053L274.971 12.7357L275.295 13.4272L276.118 13.0246L276.949 12.6307L277.772 12.2193L278.612 11.8254L279.435 11.414L279.111 10.7225L278.77 10.0398L278.428 9.3483L277.894 8.6218L277.115 8.16665L276.223 8.05286L275.356 8.28043Z" fill="#DBF1FF"/>
<path d="M267.076 12.3155L266.349 12.8494L265.903 13.6284L265.78 14.5125L266.008 15.379L266.349 16.0705L266.682 16.762L267.014 17.4535L267.837 17.0508L268.66 16.6569L269.491 16.2543L270.323 15.8517L271.146 15.4403L270.822 14.7576L270.481 14.0661L270.148 13.3746L269.596 12.6656L268.835 12.1929L267.942 12.0879L267.076 12.3155Z" fill="#DBF1FF"/>
<path d="M283.645 4.25386L282.927 4.79654L282.472 5.56681L282.358 6.45961L282.568 7.33491L282.901 8.02639L283.26 8.70913L283.584 9.40937L284.407 9.00673L285.229 8.59534L286.061 8.1927L286.892 7.78131L287.724 7.38743L287.391 6.69594L287.05 6.01321L286.717 5.32172L286.175 4.59522L285.404 4.14882L284.512 4.03503L283.645 4.25386Z" fill="#DBF1FF"/>
<path d="M258.787 16.3332L258.078 16.8846L257.622 17.6549L257.5 18.539L257.719 19.4143L258.051 20.1057L258.393 20.7885L258.725 21.48L259.557 21.0861L260.38 20.6747L261.211 20.2808L262.043 19.8782L262.865 19.4668L262.542 18.7753L262.2 18.0926L261.859 17.4011L261.316 16.6833L260.546 16.2369L259.653 16.1144L258.787 16.3332Z" fill="#DBF1FF"/>
<path d="M250.506 20.3592L249.788 20.9106L249.325 21.6809L249.22 22.565L249.438 23.4403L249.771 24.1317L250.112 24.8145L250.445 25.506L251.268 25.1121L252.09 24.7007L252.922 24.3068L253.762 23.9129L254.585 23.4928L254.252 22.81L253.92 22.1186L253.57 21.4271L253.045 20.7093L252.266 20.2454L251.373 20.1404L250.506 20.3592Z" fill="#DBF1FF"/>
<path d="M242.217 24.3944L241.499 24.9284L241.053 25.7074L240.93 26.6002L241.158 27.4667L241.482 28.1582L241.823 28.841L242.165 29.5324L242.987 29.1386L243.81 28.7272L244.642 28.3333L245.473 27.9307L246.305 27.5193L245.963 26.8365L245.631 26.145L245.289 25.4536L244.756 24.7358L243.977 24.2719L243.084 24.1669L242.217 24.3944Z" fill="#DBF1FF"/>
<path d="M254.533 23.4753L255.425 23.1339L256.222 22.67L257.036 22.2323L257.929 21.9435L258.734 21.4708L259.102 22.3111L259.557 23.0989L259.951 23.9217L260.327 24.7444L260.66 25.5935L261.167 26.355L261.526 27.1865L261.911 28.0093L262.358 28.8058L262.673 29.6549L263.128 30.4426L263.513 31.2742L263.933 32.0794L264.275 32.9285L264.695 33.7338L265.124 34.5303L265.456 35.3793L265.929 36.1583L266.288 36.9986L266.638 37.8389L267.076 38.6442L267.505 39.4495L267.881 40.2722L268.301 41.0863L268.642 41.9265L269.001 42.7668L269.474 43.5546L269.877 44.3686L270.235 45.2089L270.708 45.9879L271.015 46.8545L271.4 47.6685L271.907 48.4388L272.222 49.3053L272.634 50.1106L273.071 50.9159L273.474 51.7386L273.894 52.5527L274.271 53.3842L274.638 54.2157L275.067 55.0298L275.444 55.8613L275.82 56.6841L275.015 57.078L274.218 57.5594L273.369 57.9095L272.538 58.3209L271.706 58.6973L271.251 57.9182L270.962 57.0517L270.454 56.2814L270.174 55.4061L269.71 54.6184L269.308 53.8131L268.975 52.9641L268.555 52.1588L268.144 51.3535L267.75 50.5307L267.286 49.7517L266.971 48.8939L266.577 48.0711L266.139 47.2746L265.736 46.4606L265.316 45.6553L264.914 44.8413L264.555 44.001L264.091 43.2132L263.741 42.3729L263.417 41.5152L262.918 40.7536L262.594 39.8959L262.121 39.1081L261.745 38.2766L261.316 37.48L260.914 36.6573L260.59 35.7995L260.222 34.9679L259.793 34.1626L259.391 33.3486L258.979 32.5433L258.533 31.7381L258.209 30.889L257.754 30.0925L257.377 29.261L256.922 28.4645L256.572 27.6242L256.161 26.8101L255.828 25.9524L255.452 25.1208L254.979 24.3243L254.533 23.4753Z" fill="#DBF1FF"/>
<path d="M272.424 75.5733L271.522 75.6346L270.621 75.7221L269.737 75.9322L268.905 76.2823L268.1 76.6762L267.321 77.1226L266.603 77.674L265.911 78.2605L265.334 78.9607L264.826 79.7047L264.327 80.4575L263.977 81.289L263.706 82.1206L263.443 82.9521L263.356 83.8274L263.294 84.7027L263.373 85.5955L263.504 86.4795L263.714 87.3461L263.977 88.2039L264.415 88.9829L264.861 89.7619L265.386 90.4797L265.999 91.1274L266.638 91.7576L267.373 92.2653L268.135 92.7292L268.949 93.0968L269.78 93.4294L270.656 93.6307L271.54 93.7445L272.432 93.8233L273.325 93.7358L274.209 93.6307L275.085 93.4382L275.925 93.1143L276.73 92.7204L277.5 92.274L278.209 91.7313L278.892 91.1536L279.514 90.5059L280.013 89.7619L280.468 88.9916L280.87 88.1951L281.133 87.3373L281.396 86.4795L281.536 85.5955L281.518 84.6939V83.8011L281.378 82.9171L281.142 82.0505L280.835 81.2102L280.441 80.405L279.995 79.6347L279.47 78.9082L278.857 78.2517L278.201 77.639L277.492 77.0876L276.721 76.6324L275.899 76.2823L275.067 75.9585L274.201 75.7484L273.316 75.5996H272.424V75.5646V75.5733ZM272.424 87.2673L271.435 87.0923L270.629 86.497L270.087 85.6743L269.85 84.7027L270.034 83.7136L270.612 82.8908L271.443 82.3306L272.424 82.1731L273.404 82.3306L274.262 82.8646L274.778 83.7311L275.006 84.7114L274.822 85.7005L274.218 86.497L273.413 87.0835L272.432 87.2761L272.424 87.2673Z" fill="#DBF1FF"/>
<path d="M297.448 75.5906H296.547L295.663 75.7656L294.77 75.9319L293.939 76.2821L293.125 76.6672L292.337 77.1136L291.628 77.6738L290.954 78.2777L290.359 78.9517L289.833 79.687L289.396 80.4747L288.976 81.28L288.678 82.1028L288.52 82.9606L288.407 83.8271L288.345 84.6937L288.398 85.5865L288.485 86.4793L288.739 87.3458L289.072 88.1774L289.413 89.0089L289.903 89.7617L290.446 90.4706L290.998 91.1709L291.689 91.7486L292.398 92.3L293.177 92.7377L293.982 93.1228L294.823 93.4379L295.68 93.6917L296.573 93.7618L297.466 93.823L298.359 93.788L299.243 93.6392L300.118 93.4642L300.95 93.1316L301.764 92.7552L302.525 92.2825L303.26 91.7748L303.917 91.1621L304.503 90.4881L305.072 89.7967L305.492 89.0089L305.895 88.2124L306.219 87.3808L306.42 86.5055L306.534 85.6215L306.587 84.7287L306.534 83.8359L306.438 82.9431L306.236 82.0678L305.895 81.2362L305.51 80.431L305.072 79.652L304.503 78.9605L303.943 78.2602L303.278 77.6563L302.525 77.1661L301.781 76.6672L300.967 76.2908L300.118 76.0107L299.252 75.8006L298.368 75.6781L297.475 75.6168L297.448 75.5906ZM297.448 87.2933L296.468 87.0657L295.61 86.5406L295.103 85.6828L294.858 84.7112L295.059 83.7221L295.637 82.9081L296.451 82.3304L297.431 82.1466L298.411 82.3304L299.252 82.8818L299.829 83.7133L299.978 84.7024L299.777 85.674L299.26 86.5318L298.429 87.1007L297.44 87.3021L297.448 87.2933Z" fill="#DBF1FF"/>
<path d="M344.592 75.573L343.69 75.6081L342.789 75.7219L341.922 75.9757L341.065 76.2733L340.242 76.6497L339.48 77.1311L338.745 77.6563L338.124 78.3127L337.485 78.9517L336.986 79.7045L336.495 80.466L336.154 81.3063L335.813 82.1115L335.655 82.9693L335.524 83.8271L335.454 84.7024L335.515 85.5952L335.638 86.4793L335.857 87.3458L336.163 88.1861L336.566 88.9826L336.986 89.7704L337.511 90.4969L338.15 91.1271L338.815 91.7223L339.515 92.2737L340.286 92.7289L341.082 93.149L341.94 93.4204L342.815 93.6042L343.69 93.7793H344.583L345.476 93.7355L346.369 93.6655L347.227 93.4116L348.076 93.1315L348.872 92.7201L349.642 92.2562L350.369 91.7311L351.06 91.1534L351.621 90.4531L352.172 89.7441L352.636 88.9826L352.995 88.1686L353.336 87.3371L353.52 86.4618L353.66 85.5777L353.686 84.6849V83.7921L353.529 82.908L353.292 82.0415L353.03 81.1837L352.61 80.3959L352.172 79.6169L351.656 78.8817L351.043 78.234L350.369 77.6475L349.66 77.1048L348.89 76.6584L348.093 76.247L347.253 75.9232L346.369 75.7481L345.485 75.6256L344.592 75.5555V75.573V75.573ZM344.592 87.267L343.612 87.057L342.798 86.488L342.22 85.674L342.036 84.6937L342.246 83.7221L342.789 82.8818L343.62 82.3391L344.592 82.0853L345.572 82.3216L346.43 82.8468L346.955 83.7046L347.183 84.6849L346.938 85.6565L346.421 86.5143L345.581 87.0657L344.592 87.2583V87.267Z" fill="#DBF1FF"/>
<path d="M293.501 68.5354L292.608 68.4741L291.715 68.299L290.822 68.3691L289.93 68.5266L289.037 68.4566L288.144 68.3603L287.251 68.5441L286.358 68.4566L285.474 68.3603L284.582 68.4478L283.689 68.3428L282.796 68.6929L281.903 68.4303L281.01 68.6317L280.118 68.4216L279.225 68.6404L278.332 68.3341L277.439 68.5967L276.546 68.5441L275.645 68.3953L274.743 68.5091M254.699 68.4829L254.638 69.4194L254.463 70.3473L254.533 71.2751L254.681 72.2029L254.611 73.1394L254.515 74.076L254.699 75.0126L254.611 75.9492L254.524 76.8857L254.611 77.8223L254.506 78.7501L254.856 79.6867L254.594 80.6232L254.795 81.5598L254.603 82.5402L255.539 82.3388L256.432 82.6452L257.316 82.3826L258.209 82.4351L259.102 82.5839L259.994 82.4701L260.896 82.5314L261.062 81.7349L261.246 80.9734L261.412 80.1944L261.649 80.2906L262.078 79.4766L262.288 78.54L262.76 77.7348L263.426 77.0695L264.03 76.3605L264.861 75.8966L265.465 75.1789L266.139 74.5137L267.076 74.2861L267.837 73.7347L268.686 73.3233L269.675 73.402L270.542 73.0257H271.47L272.389 72.8156L273.325 72.8506L274.244 73.0257L275.111 73.4108L276.1 73.332L276.94 73.7522L277.772 74.1723L278.647 74.5224L279.295 75.2314L280.126 75.6778L280.783 76.343L281.466 76.982L281.894 77.831L282.472 78.5663L283.006 79.3366L283.19 80.2731L283.689 80.9208L283.776 81.7086L283.881 82.5752L284.958 82.4701L285.991 82.3738L286.14 81.6911L286.306 80.9121L286.744 80.2294L287.216 79.4416L287.461 78.5225L287.952 77.7348L288.626 77.087L289.072 76.238L289.947 75.8091L290.682 75.2664L291.269 74.4787L292.197 74.2423L293.011 73.8134L293.842 73.3845L294.735 73.1219L295.645 72.8856L296.582 72.8506L297.51 72.9031L298.42 72.8594L299.313 73.0169L300.179 73.2707L301.055 73.4808L301.983 73.5771L302.753 74.0935L303.567 74.5049L304.276 75.0739L305.116 75.4765L305.563 76.3255L306.429 76.7544L306.718 77.6735L307.383 78.3037L307.865 79.074L308.075 79.9668L308.469 80.772L308.775 81.6123L308.985 82.5051L309.948 82.3388L310.867 82.5752L311.786 82.6014L312.696 82.4876L313.615 82.4701L314.534 82.3913L315.453 82.3738L316.372 82.4964L317.292 82.3126L318.211 82.4526L319.13 82.6802L320.049 82.3651L320.968 82.6014L321.896 82.3826L322.815 82.4526L323.734 82.3388H324.653L325.572 82.5752L326.491 82.6627L327.41 82.5664H328.329L329.248 82.5139L330.167 82.3913L331.086 82.6014L332.005 82.4264L332.907 82.5226V81.7086L333.274 80.9821L333.52 80.2206L334.071 79.4591L334.561 78.6888L334.894 77.8048L335.41 77.0258L336.189 76.4831L336.723 75.7041L337.563 75.2752L338.194 74.5487L339.069 74.1986L339.927 73.8572L340.75 73.4108H341.712L342.579 73.0694L343.498 72.9294L344.426 72.8068L345.327 72.9819L346.194 73.2707L347.087 73.3583L348.006 73.4371L348.82 73.8397L349.625 74.2423L350.483 74.5574L351.271 75.0126L351.971 75.5903L352.531 76.3168L353.328 76.8069L353.87 77.5422L354.212 78.4087L354.676 79.1703L355.323 79.8617L355.577 80.7458V81.6824L355.945 82.5226V81.6123L355.805 80.702L355.831 79.7917L355.787 78.8814L355.805 77.9711L356.05 77.0608L355.77 76.1505L355.91 75.2402L355.866 74.3299L355.822 73.4195L356.076 72.5092V71.5989L355.813 70.6886L355.91 69.7783L355.927 68.868L355.945 67.9577L356.05 67.0474L356.137 66.1371L355.752 65.2268L356.023 64.3077L356.041 63.3974L356.146 62.4783L356.102 61.568L355.971 60.6489L355.848 59.7299L355.962 58.8108L355.848 57.8918L355.77 56.9727L356.129 56.0449L356.023 55.1171L355.857 54.198L355.805 53.2702L355.77 52.3424L355.936 51.4233L355.752 50.5042L356.137 49.5852L356.006 48.6574L356.058 47.7295L355.98 46.8017L355.91 45.8739L355.962 44.9461L356.067 44.0183L355.805 43.0992L355.997 42.1714L355.892 41.2436L356.058 40.3158L355.98 39.3529L355.034 39.3004L354.124 39.3617L353.214 39.2829L352.303 39.3092L351.393 39.4842L350.474 39.4405L349.555 39.2479L348.636 39.3529L347.717 39.5105L346.798 39.423L345.879 39.4405L344.96 39.2742L344.041 39.4317H343.122L342.203 39.3092L341.283 39.2304L340.364 39.4667L339.445 39.5105H338.526L337.607 39.4405L336.688 39.4142L335.769 39.3967L334.85 39.3092L333.931 39.5105L333.012 39.2129L332.093 39.5105L331.174 39.423L330.255 39.2304L329.336 39.2917L328.417 39.423L327.498 39.3354L326.578 39.5368L325.659 39.2742L324.74 39.528L323.821 39.4405L322.893 39.3529L321.966 39.2479L321.134 39.4755L321.073 40.2808L321.239 41.1911L321.125 42.1014L321.029 43.0117L321.003 43.922L321.204 44.8236L321.073 45.7251L321.055 46.6354L320.907 47.5457L321.09 48.456L320.977 49.3664L321.134 50.2767L320.871 51.187L321.047 52.0973L321.16 53.0076L320.994 53.9179L320.942 54.8282L321.082 55.7385L321.003 56.6488L320.845 57.5504L321.134 58.4607L321.055 59.371L320.994 60.2813L320.88 61.1916L320.994 62.1019L321.204 63.0122L320.836 63.9226L321.09 64.8329L321.047 65.7432L321.152 66.6535L321.038 67.5726L321.099 68.5529L320.101 68.4128H319.173L318.246 68.4654L317.309 68.6054L316.372 68.2903L315.436 68.4741H314.499L313.563 68.5004L312.626 68.6579L311.69 68.4916L310.753 68.6054L309.816 68.4478L308.871 68.5441L307.926 68.6054M327.576 45.9614L328.513 46.014L329.423 46.189L330.333 46.119L331.244 45.9702L332.154 46.0402L333.064 46.1365L333.975 45.9527L334.885 46.0402L335.804 46.1277L336.714 46.0402L337.625 46.1453L338.535 45.7951L339.454 46.0577L340.364 45.8564L341.275 46.0665L342.194 45.8477L343.113 46.154L344.032 45.8914L344.942 45.9439L345.861 46.0927L346.78 45.9789L347.699 46.049L348.618 46.014L348.645 46.933L348.75 47.8521L348.496 48.7711L348.435 49.6902L348.697 50.6093L348.741 51.5283L348.618 52.4562L348.645 53.3752L348.417 54.2943L348.601 55.2221L348.776 56.1412L348.513 57.069L348.688 57.988L348.776 58.9159L348.435 59.8437L348.636 60.7715L348.548 61.6468L347.691 61.7956H346.78L345.87 61.7343L344.96 61.5242L344.049 61.8656L343.139 61.7606L342.229 61.7256L341.318 61.8481L340.399 61.6205L339.489 61.7868L338.579 61.7431L337.668 61.8218L336.749 61.638L335.839 61.7168L334.929 61.8131L334.01 61.603L333.091 61.8481L332.172 61.7168L331.261 61.5855L330.342 61.6906L329.423 61.7868L328.504 61.7256L327.506 61.7606L327.646 60.7627L327.76 59.8437L327.533 58.9246L327.515 58.0055L327.646 57.0865L327.401 56.1674L327.69 55.2396L327.716 54.3205L327.392 53.4015L327.638 52.4737L327.585 51.5546L327.471 50.6268V49.7077L327.41 48.7799L327.489 47.8521L327.576 46.9243L327.55 45.9702L327.576 45.9614Z" fill="#DBF1FF"/>
<path d="M355.953 52.2908L356.864 52.2996L357.783 52.3258L358.702 52.2383L359.621 52.3083L360.54 52.247L361.468 52.282H362.387L363.297 52.2908L363.367 53.1924V54.1027L363.297 55.0217L363.323 55.9408L363.306 56.8599L363.253 57.7702L363.28 58.6892L363.323 59.6083L363.306 60.5186L363.271 61.4377L363.332 62.3567L363.306 63.2758L363.271 64.1949L363.306 65.1052L363.271 66.0242L363.376 66.9433L363.297 67.8624L363.358 68.7814L363.297 69.7005L363.358 70.6195L363.271 71.5299L363.35 72.4489L363.332 73.368L363.288 74.287L363.323 75.2061L363.306 76.1252L363.315 77.0442L363.323 77.9633L363.35 78.8824L363.28 79.8014L363.262 80.7292L363.341 81.6571V82.6024L362.396 82.5761L361.477 82.5936L360.558 82.5236L359.638 82.5761L358.719 82.6286L357.792 82.5499L356.873 82.6024L355.91 82.6199L355.997 81.6658L355.936 80.7467L355.971 79.8364L355.918 78.9174L355.91 77.9983L355.936 77.0792L355.997 76.1689L355.892 75.2499L355.927 74.3308L355.936 73.4205L355.892 72.5014L355.962 71.5824L355.91 70.6633L355.927 69.7442L355.901 68.8252L355.953 67.9061L355.936 66.9958L355.901 66.0767L355.962 65.1577L355.892 64.2386L355.936 63.3283L355.971 62.4092L355.945 61.4902L355.91 60.5711L355.927 59.6521L355.91 58.733L355.962 57.8139L355.997 56.8861L355.927 55.9758V55.048L355.962 54.1289L355.892 53.2011L355.953 52.2908Z" fill="#DBF1FF"/>
<path d="M238.016 72.361L238.068 72.4222L238.051 71.5207L238.024 70.6104L238.095 69.7176L238.103 68.8072L238.007 67.9057L238.033 67.0041L238.095 66.1026L238.051 65.1923L238.112 64.282L238.156 63.3804L238.138 62.4788L238.165 61.5773L238.2 60.667L238.112 59.7654L238.2 58.8551L238.138 57.9448L238.191 57.0432V56.1417L238.226 55.2314L238.156 54.3211V53.4195L238.252 52.5092L238.226 51.5989L238.261 50.6973L238.322 49.7958L238.313 48.8942L238.27 47.9839L238.305 47.0736L238.34 46.172L238.296 45.2617L238.331 44.3514L238.375 43.4411L238.348 42.5395L238.392 41.6292L238.287 40.7102L238.383 39.7999L238.366 38.837L238.751 39.7123L239.215 40.4913L239.521 41.3579L239.994 42.1369L240.379 42.9684L240.738 43.8087L241.167 44.6053L241.543 45.4368L241.946 46.2508L242.357 47.0648L242.786 47.8614L243.11 48.7192L243.486 49.5507L243.968 50.3297L244.379 51.1437L244.738 51.984L245.149 52.798L245.482 53.6471L245.928 54.4436L246.384 55.2401L246.699 56.0892L247.154 56.8857L247.574 57.691L247.872 58.5575L248.336 59.354L248.703 60.1856L249.15 60.9821L249.552 61.8049L249.929 62.6364L250.27 63.4854L250.769 64.2557L251.136 65.096L251.53 65.9275L251.968 66.7415" fill="#DBF1FF"/>
<path d="M193.06 89.4014L196.22 94.4606L197.481 96.2024L196.912 90.4955L193.06 89.4014Z" fill="#DBF1FF"/>
<path d="M190.662 94.6711L188.299 96.0016L182.495 95.3364L179.441 97.7872L175.694 99.0126L174.241 104.159L176.036 109.402L181.366 110.89L186.688 112.387L191.038 108.011L195.397 103.634L197.498 96.2029L190.662 94.6799V94.6711Z" fill="#DBF1FF"/>
<path d="M207.975 59.2405L203.468 66.024L206.225 64.6936L213.534 60.4484L207.975 59.2405Z" fill="#DBF1FF"/>
<path d="M203.468 66.0157L202.304 71.3725L201.148 76.7206L202.811 82.3138L204.544 87.8894L206.216 93.4826L213.884 95.1631L221.569 96.8437L227.258 91.4256L228.869 84.0381L225.009 80.0117L222.829 74.8912L215.1 71.889L213.017 68.6766L208.238 67.3549L203.45 66.007L203.468 66.0157Z" fill="#DBF1FF"/>
<path d="M266.953 94.0332L263.566 99.3725L260.143 104.449L256.695 109.508L253.508 114.743L249.797 119.618L246.611 124.852L243.224 129.955L239.407 134.77L236.108 140.048L229.595 139.881L223.171 140.056L216.746 140.275L210.33 139.619L203.905 139.89L197.481 139.628L191.056 139.855L184.631 140.179L178.207 140.258L171.782 139.522L165.357 139.575L158.932 139.435L152.508 140.258L146.083 140.293L139.667 139.619L133.251 139.776L126.827 139.592L120.411 140.021L113.995 139.838L107.57 140.004L101.154 139.794L94.7294 140.021L88.3047 139.724L81.88 139.864L75.4553 139.592L69.0306 139.855L62.6059 140.039L56.1812 140.249L49.7565 140.231L43.3318 140.205L36.9072 139.759L30.4825 139.951L24.0578 140.021L17.6331 139.951L11.2084 140.275L4.78371 139.986L-1.64098 139.61L-8.06567 139.89L-14.4904 139.811L-20.915 139.916L-27.3485 139.881L-33.5106 140.109L-33.7032 146.901L-33.6069 153.947L-33.9832 161.177L-27.401 161.029H-21.0201L-14.6392 160.696L-8.25823 160.906L-1.87731 161.195L4.50362 160.678L10.8845 161.125L17.2655 161.169L23.6464 161.37L30.0273 161.212L36.4082 160.748L42.7892 161.221L49.1613 160.713L55.5423 161.326L61.9232 160.862L68.3041 160.556L74.685 161.291L81.066 160.547L87.4469 161.344L93.8278 161.064L100.209 161.335L106.59 160.6L112.971 160.696L119.351 160.959L125.732 160.748L132.113 160.994H138.494L144.875 161.116L151.256 160.67L157.637 161.195L164.018 161.422L170.399 160.792L176.78 161.265L183.161 161.422L189.542 161.291L195.923 161.405L202.312 161.204L208.693 160.6L215.083 160.547L221.473 160.661L228.011 161.204L234.549 160.783L241.088 160.713L247.626 161.37L254.174 160.582L260.712 161.291L267.251 161.44L273.789 160.775L280.328 160.976L286.875 160.74L293.422 161.011L299.969 161.046L306.517 160.775L313.064 161.282L319.348 160.635L325.633 160.556L331.918 160.801L338.211 161.405L344.496 160.818L350.78 160.924L357.074 160.941L363.367 161.44L369.652 161.396L375.936 161.414L382.221 161.265L388.514 161.099L394.808 160.959L401.092 161.151L407.386 160.897L413.679 161.221L419.771 160.81L419.561 154.35L419.736 147.698L419.833 141.045L420.34 134.393L420.016 127.741L419.885 121.08L420.086 114.419L419.728 107.758L419.841 101.097L420.104 94.3046L413.6 94.2433L407.228 94.7072L400.865 94.6022L394.493 94.007L388.121 94.4534L381.748 94.2608L375.376 94.6984L369.004 94.6372L362.632 94.4183L356.26 94.0332L349.888 94.4359L343.515 94.6372L337.143 94.042L330.771 94.1558L324.399 94.3658L318.027 94.0595L311.655 94.007L305.282 94.8035L298.91 94.3921L292.538 94.3396L286.166 94.7072L279.794 94.3396L273.43 94.077H266.848L266.953 94.0332ZM-13.8689 153.877L-19.8297 154.052L-26.0706 154.096L-32.2502 154.131L-32.4602 148.818L-26.0706 149.072L-19.8297 148.748H-13.37L-13.8601 153.877H-13.8689ZM66.8861 150.096L60.9253 150.271L54.6845 150.315L48.5049 150.35L48.2948 145.037L54.6845 145.291L60.9253 144.967H67.385L66.8949 150.096H66.8861ZM148.788 155.689L142.827 155.864L136.586 155.908L130.407 155.943L130.196 150.63L136.586 150.884L142.827 150.56H149.287L148.797 155.689H148.788ZM196.833 150.096L190.872 150.271L184.631 150.315L178.452 150.35L178.242 145.037L184.631 145.291L190.872 144.967H197.332L196.842 150.096H196.833ZM286.201 115.093L280.24 115.268L273.999 115.312L267.82 115.347L267.61 110.034L273.999 110.288L280.24 109.964H286.7L286.21 115.093H286.201ZM315.173 152.696L309.212 152.871L302.972 152.915L296.792 152.95L296.582 147.636L302.972 147.89L309.212 147.566H315.672L315.182 152.696H315.173ZM337.528 139.181L331.568 139.356L325.327 139.4L319.147 139.435L318.937 134.122L325.327 134.376L331.568 134.052H338.027L337.537 139.181H337.528ZM338.701 109.666L332.74 109.841L326.5 109.885L320.32 109.92L320.11 104.607L326.5 104.861L332.74 104.537H339.2L338.71 109.666H338.701ZM347.953 99.285L353.914 99.1099L360.155 99.0662L366.334 99.0312L366.544 104.344L360.155 104.09L353.914 104.414H347.454L347.944 99.285H347.953ZM366.553 132.03L360.592 132.205L354.352 132.249L348.172 132.284L347.962 126.971L354.352 127.225L360.592 126.901H367.052L366.562 132.03H366.553ZM401.696 142.14L395.736 142.315L389.495 142.358L383.315 142.393L383.105 137.08L389.495 137.334L395.736 137.01H402.195L401.705 142.14H401.696Z" fill="#DBF1FF"/>
<path d="M9.67667 126.796L3.06817 126.857L-3.51407 126.84L-10.0963 126.778L-16.6786 126.813L-23.2608 126.857L-29.8518 126.831L-36.4603 126.805V134.218L-36.4165 141.597L-29.8605 141.615L-23.2783 141.623L-16.6961 141.632L-10.1138 141.65L-3.52282 141.597L3.05942 141.58L9.67667 141.65L9.60665 134.218L9.67667 126.796Z" stroke="#DBF1FF" stroke-width="0.84" stroke-miterlimit="10"/>
<path d="M62.2734 126.849L55.7174 126.857L49.1352 126.84L42.5529 126.849L35.9707 126.779L29.3884 126.805L22.7974 126.849L16.2327 126.84L16.1977 134.219L16.224 141.606L22.7974 141.589L29.3709 141.641L35.9619 141.606H42.5442L49.1264 141.632L55.7087 141.58L62.2734 141.597L62.3259 134.219L62.2734 126.849Z" stroke="#DBF1FF" stroke-width="0.84" stroke-miterlimit="10"/>
<path d="M9.65048 133.037L16.2152 133.028" stroke="#DBF1FF" stroke-width="0.84" stroke-miterlimit="10"/>
<path d="M62.2996 133.019L68.8643 133.028" stroke="#DBF1FF" stroke-width="0.84" stroke-miterlimit="10"/>
<path d="M114.958 126.813L108.375 126.805L101.793 126.831H95.2109L88.6199 126.866L82.0376 126.787L75.4554 126.796L68.8819 126.831L68.8469 134.218L68.8994 141.597L75.4466 141.667L82.0289 141.588L88.6111 141.597L95.1934 141.667L101.776 141.623L108.367 141.58L114.949 141.615L114.984 134.218L114.958 126.813Z" stroke="#DBF1FF" stroke-width="0.84" stroke-miterlimit="10"/>
<path d="M167.607 126.822L161.024 126.831L154.442 126.84L147.86 126.787H141.278L134.696 126.84L128.105 126.813L121.505 126.805L121.522 134.218L121.54 141.606L128.096 141.58L134.678 141.615L141.26 141.658L147.851 141.615L154.433 141.597L161.016 141.641L167.589 141.606L167.572 134.218L167.607 126.822Z" stroke="#DBF1FF" stroke-width="0.84" stroke-miterlimit="10"/>
<path d="M114.949 133.028L121.522 133.037" stroke="#DBF1FF" stroke-width="0.84" stroke-miterlimit="10"/>
<path d="M167.607 133.028H174.171" stroke="#DBF1FF" stroke-width="0.84" stroke-miterlimit="10"/>
<path d="M220.247 126.831L213.674 126.84L207.091 126.813L200.509 126.805L193.927 126.787L187.345 126.866L180.754 126.822H174.163L174.145 134.218L174.154 141.632L180.754 141.658L187.336 141.597L193.918 141.623L200.5 141.65L207.083 141.641L213.665 141.597L220.256 141.623L220.265 134.218L220.247 126.831Z" stroke="#DBF1FF" stroke-width="0.84" stroke-miterlimit="10"/>
<path d="M272.905 126.822L266.332 126.813L259.749 126.822L253.167 126.857L246.576 126.787L239.994 126.813L233.412 126.866L226.803 126.805L226.829 134.218V141.623L233.403 141.597L239.985 141.606L246.567 141.658L253.15 141.667L259.732 141.597L266.323 141.641L272.94 141.65L272.923 134.218L272.905 126.822Z" stroke="#DBF1FF" stroke-width="0.84" stroke-miterlimit="10"/>
<path d="M220.256 133.028L226.821 133.019" stroke="#DBF1FF" stroke-width="0.84" stroke-miterlimit="10"/>
</g>
<defs>
<clipPath id="clip0_1364_164864">
<rect width="386" height="172" fill="white"/>
</clipPath>
</defs>
</svg>
