<svg width="386" height="167" viewBox="0 0 386 167" fill="none" xmlns="http://www.w3.org/2000/svg">
<g clip-path="url(#clip0_1364_163691)">
<path d="M172.554 117.525L170.239 110.613L167.501 103.975L165.584 97.047L161.826 90.6081L158.714 84.2439L164.672 87.5297L171.144 90.6579L177.666 94.0267L177.74 87.928L177.11 82.2525L172.463 79.2322L167.103 77.191L161.992 74.6021L151.777 71.7976L155.777 66.595L153.437 61.185L149.836 56.555L150.134 56.4471L151.379 49.6017L143.92 51.2363L136.726 53.2443L129.49 54.3562L133.747 58.6626L130.61 58.0652L125.964 59.8325L123.781 64.4792L125.922 69.1673L130.61 70.6193L134.12 69.8808L134.933 72.868L127.889 74.1541L120.803 75.1747L113.683 75.9795L106.357 76.3446L108.431 85.223L114.082 85.5632L119.931 84.7915L125.789 84.0281L131.681 84.0032L128.179 88.2765L125.184 92.9646L121.616 97.1631L119.575 102.913L117.807 108.78L116.347 114.97L122.628 115.534L128.727 115.384L135.141 115.957L131.274 121.06L127.391 125.673L123.715 130.453L119.591 134.875L115.691 139.489L111.7 144.169L111.941 147.786L118.579 149.172L125.341 149.57L131.963 150.649L134.792 144.501L137.116 138.095L139.497 131.714L142.434 125.557L144.982 118.977L146.367 125.441L147.172 131.764L149.056 137.879L150.085 144.169L151.271 150.375L157.818 150.666L164.423 150.508L171.019 150.674L177.425 151.188L177.757 142.401L173.832 137.116L169.75 132.187L165.999 126.993L161.701 122.222L157.652 117.044L165.12 117.525H172.571H172.554ZM156.864 87.679L153.702 87.7288L154.217 94.0847L151.138 93.9022L150.939 87.7703L143.853 87.4218L145.206 85.2479L150.417 85.0653L150.508 80.0785H153.18L153.702 84.7334L156.698 85.3391L156.872 87.6624L156.864 87.679Z" fill="#DBF1FF"/>
<path d="M151.545 47.8182L152.018 45.6194L145.67 46.9802L139.314 48.4571L132.942 49.876L126.627 51.3945L127.905 52.7884L133.813 51.494L139.729 50.2909L145.687 49.2205L151.545 47.8182Z" fill="#DBF1FF"/>
<path d="M190.361 117.518L197.829 117.036L193.78 122.214L189.481 126.985L185.731 132.179L181.649 137.108L177.724 142.394L178.056 151.181L184.461 150.666L191.058 150.5L197.663 150.658L204.21 150.367L205.396 144.161L206.425 137.871L208.309 131.756L209.113 125.433L210.499 118.97L213.046 125.55L215.984 131.706L218.365 138.087L220.688 144.493L223.518 150.641L230.139 149.563L236.902 149.164L243.54 147.779L243.78 144.161L239.789 139.481L235.89 134.868L231.766 130.445L228.09 125.666L224.207 121.052L220.34 115.949L226.754 115.377L232.853 115.526L239.134 114.962L237.673 108.772L235.906 102.906L233.865 97.1554L230.297 92.9569L227.302 88.2688L223.8 83.9956L229.691 84.0204L235.549 84.7838L241.399 85.5555L247.05 85.2153L249.124 76.3369L241.797 75.9718L234.678 75.167L227.592 74.1464L220.547 72.8603L221.361 69.8732L224.87 70.6116L229.558 69.1596L231.699 64.4715L229.517 59.8248L224.87 58.0575L221.734 58.6549L225.991 54.3485L218.755 53.2366L211.561 51.2286L204.102 49.594L205.346 56.4395L205.645 56.5473L202.044 61.1773L199.704 66.5873L203.446 72.5616L193.489 74.5861L188.378 77.175L183.018 79.2162L178.371 82.2365L177.74 87.912L177.815 94.0107L184.337 90.6419L190.809 87.5137L196.767 84.2279L193.655 90.5921L189.896 97.031L187.98 103.959L185.241 110.597L182.926 117.509H190.378L190.361 117.518ZM198.775 85.3397L201.77 84.734L202.293 80.0874H204.965L205.056 85.0659L210.267 85.2485L211.619 87.4224L204.533 87.7709L204.334 93.9028L201.256 94.0853L201.77 87.7294L198.609 87.6796L198.783 85.3563L198.775 85.3397Z" fill="#DBF1FF"/>
<path d="M203.919 47.8184L203.446 45.6195L209.794 46.9803L216.15 48.4573L222.522 49.8761L228.845 51.3946L227.559 52.7886L221.651 51.4942L215.735 50.291L209.777 49.2206L203.919 47.8184Z" fill="#DBF1FF"/>
<path d="M29.9115 79.5563L22.6926 78.9755L18.2203 69.3254L7.64922 72.8934L6.3548 79.1414L5.95652 85.572L-0.341306 89.6627L-6.33212 93.9525L-4.91325 98.4747L2.45496 95.778L9.82317 93.5874L16.9839 90.7497L24.5015 89.0321L31.6374 86.1279L39.1798 84.261L37.2714 79.0087L29.9281 79.5563H29.9115ZM10.2629 84.8418C8.51216 86.8415 6.61202 89.0736 4.90273 91.123C4.3302 91.8283 3.74108 92.5253 3.17685 93.2389L2.36369 92.5004C3.50045 91.4135 5.10187 89.7705 6.22204 88.6255C7.48326 87.3394 8.7196 86.0284 9.95593 84.7174C9.88125 83.0164 9.82317 80.6516 9.69041 78.9921C9.51616 77.067 9.55765 75.1337 9.49127 73.2004H9.79828C9.75679 75.1337 9.7153 77.0587 9.88955 78.9838C10.014 80.6765 10.1634 83.1076 10.2712 84.8252L10.2629 84.8418ZM15.6231 82.9168C15.6231 82.9168 16.6188 88.5923 16.6271 88.6255L15.5319 88.7914L14.8349 83.0744C14.893 83.34 12.4369 73.8144 12.4535 73.8808L12.7522 73.7978C12.7522 73.8144 15.6231 82.9085 15.6314 82.9251L15.6231 82.9168ZM33.3467 84.2942L30.3181 83.6553C28.3018 83.1989 26.2357 82.9666 24.2194 82.4687L21.1908 81.7551L21.1161 81.7385L21.0829 81.6722L18.8011 76.9509L16.7101 72.1383L16.9922 72.0138L19.0749 76.8264L21.3235 81.473C23.1158 81.7966 25.5968 82.2779 27.3724 82.4521C29.1647 82.6513 31.7121 83.0744 33.5209 83.3566L33.3467 84.3025V84.2942Z" fill="#DBF1FF"/>
<path d="M319.006 93.8606L319.338 86.3514L319.238 78.7177L319.064 71.0756L311.53 70.0882L304.037 68.9515L296.47 68.3623L290.695 67.6156L284.928 66.8522L279.194 65.7569L273.535 65.3337L272.224 70.8765L270.913 76.5686L269.868 82.3271L268.49 88.0524L274.946 88.766L281.335 89.6621L287.79 90.1019L294.196 90.9233L300.411 91.8609L306.642 92.7073L312.882 93.4541L319.006 93.8606Z" fill="#DBF1FF"/>
<path d="M336.214 75.1999L338.081 76.3533L338.77 70.4454L339.434 64.5376L337.525 63.2764L336.911 69.2506L336.214 75.1999Z" fill="#DBF1FF"/>
<path d="M312.309 103.262L319.337 104.316L319.279 97.4289L312.807 97.0057L306.501 96.01L300.178 95.1802L293.814 94.6243L287.334 93.6286L280.829 92.9067L274.265 92.5665L267.826 91.6289L266.183 98.3499L273.377 99.0718L271.353 105.353L269.602 111.8L267.735 118.214L265.686 124.562L273.029 125.591L280.322 127.059L287.716 127.972L289.516 122.446L291.566 116.887L292.387 122.745L293.109 128.503L300.353 128.586L307.547 129.25L314.766 129.416L313.977 122.935L313.828 116.389L312.865 109.917L312.309 103.262Z" fill="#DBF1FF"/>
<path d="M293.565 131.914L294.428 138.56L295.557 145.115L296.362 151.704L303.199 152.367L310.069 152.932L316.948 153.504L316.201 146.634L315.645 139.747L315.131 132.818L307.92 132.619L300.768 132.379L293.565 131.914Z" fill="#DBF1FF"/>
<path d="M341.533 65.9734L340.895 71.8149L340.189 77.6563L343.268 79.5647L343.865 73.7648L344.545 68.0063L341.533 65.9734Z" fill="#DBF1FF"/>
<path d="M252.484 65.3088L254.667 64.6782L255.156 58.4302L255.704 52.207L253.505 52.9289L253.015 59.1355L252.484 65.3088Z" fill="#DBF1FF"/>
<path d="M304.493 38.0266L312.177 35.5457L312.882 30.4178L314.384 25.6301L320.134 26.4101L319.902 22.6264L314.326 19.3406L313.139 12.7855L308.725 7.92318L302.884 5.02734L296.66 6.02305L291.748 9.70715L288.753 15.2997L282.447 16.702L281.302 20.6682L287.351 21.556L287.243 26.6341L287.575 31.9362L294.362 36.7322L291.632 40.6735L284.795 42.4658L278.157 44.6563L271.652 47.2452L264.931 49.1951L258.558 51.5931L257.878 57.6503L256.982 64.1307L263.114 62.4545L268.963 60.654L274.68 59.0526L274.091 61.6663L281.675 62.9109L289.251 63.8568L296.876 64.4128L304.253 65.4666L311.671 66.2299L319.055 67.5741L319.022 64.4128L323.851 67.9724L329.178 70.5861L334.182 74.0545L334.638 67.8479L335.46 61.8405L329.875 57.783L323.876 54.3562L318.475 50.0414L312.401 46.7141L306.916 42.5488L304.502 38.01L304.493 38.0266ZM294.868 15.2914L295.374 12.0636L302.137 12.6113L308.791 14.0302L308.501 17.3409L301.747 16.2373L294.868 15.2914V15.2914Z" fill="#DBF1FF"/>
<path d="M258.326 148.5L265.52 149.181L272.672 149.67L279.825 150.317L281.932 143.92L284.372 137.655L286.471 131.316L279.211 130.279L271.942 129.001L264.698 128.08L262.516 134.793L260.525 141.638L258.326 148.5Z" fill="#DBF1FF"/>
<path d="M246.253 67.1437L249.862 66.0733L250.36 59.9331L250.933 53.793L247.298 55.0293L246.701 61.0865L246.253 67.1437Z" fill="#DBF1FF"/>
<path d="M364.717 97.7932L365.671 90.342L367.073 82.841L368.55 75.3318L376.142 75.6471L383.718 75.8047L391.277 76.5266L397.094 76.7756L402.91 77.0079L408.743 76.9083L414.394 77.456L414.734 83.1398L415.058 88.9729L415.099 94.8227L415.481 100.706L409.001 100.299L402.545 100.1L396.115 99.4195L389.667 99.1374L383.378 98.9963L377.097 98.764L370.815 98.4404L364.717 97.7932Z" fill="#DBF1FF"/>
<path d="M350.943 76.4689L348.91 77.2821L349.242 71.3494L349.599 65.4166L351.698 64.4956L351.275 70.4864L350.943 76.4689Z" fill="#DBF1FF"/>
<path d="M369.703 108.207L362.601 108.042L363.829 101.262L370.284 101.951L376.665 102.051L383.046 102.316L389.402 102.847L395.957 102.98L402.495 103.378L409.017 104.158L415.522 104.341L415.987 111.244L408.777 110.722L409.698 117.26L410.328 123.906L411.075 130.544L412.004 137.149L404.595 136.909L397.16 137.116L389.717 136.751L388.887 131.001L387.817 125.168L386.008 130.802L384.315 136.353L377.163 135.199L369.952 134.619L362.817 133.548L364.708 127.3L365.961 120.878L368.019 114.663L369.703 108.207Z" fill="#DBF1FF"/>
<path d="M383.278 139.639L381.295 146.036L379.063 152.301L377.146 158.657L370.293 158.142L363.431 157.528L356.552 156.914L358.469 150.268L360.186 143.58L361.879 136.843L369.015 137.871L376.109 138.859L383.278 139.639Z" fill="#DBF1FF"/>
<path d="M347.283 66.4626L346.91 72.329L346.611 78.2037L343.251 79.5644L343.649 73.7479L343.973 67.9562L347.283 66.4626Z" fill="#DBF1FF"/>
<path d="M385.402 49.3276L379.287 52.4972L372.732 54.7376L366.667 58.0649L360.17 60.4131L353.971 63.4583L353.756 69.5155L353.142 75.7054L358.659 73.1415L364.351 71.4737L369.72 68.7936L369.147 71.8968L376.648 71.8305L384.091 72.3449L391.542 72.5606L399.151 73.3157L406.777 73.6725L414.46 73.7389L414.319 71.0671L419.679 73.6227L425.139 76.3941L430.898 79.0908L431.122 72.5524L431.487 66.462L425.62 63.0102L419.331 59.9484L413.365 56.2892L407.2 52.9951L400.769 50.0577L398.753 45.7098L406.254 42.1419L407.482 36.9808L408.245 31.9608L414.352 32.1185L413.904 28.0195L407.93 25.5634L405.93 19.5477L401.715 15.0754L395.749 13.0259L389.501 14.8762L384.324 18.9171L382.042 25.1735L375.985 27.4553L375.113 31.1394L380.913 31.3468L381.577 36.3253L381.403 41.503L388.547 45.2618L385.394 49.3276H385.402ZM394.986 24.2607L388.141 24.1944L388.423 20.8836L395.227 20.6264L401.981 21.2404L401.923 24.5097L394.986 24.269V24.2607Z" fill="#DBF1FF"/>
<path d="M30.8825 113.758L27.1403 115.982L23.423 117.841L19.8136 119.782L19.6476 117.708L23.6885 114.596L27.9203 111.676L32.1603 108.672L31.3803 104.448L31.6376 100.267L33.0149 96.3501L36.5663 94.45L41.5365 95.9352L43.5943 101.005L44.5153 106.274L49.1287 107.037L53.7671 108.041L58.4801 108.771L58.7954 111.269L54.016 110.738L49.2449 110.589L44.59 110.464L46.8054 114.323L49.5187 118.023L51.9748 121.882L54.3894 125.956L48.9462 127.599L50.2738 131.722L51.3359 135.797L52.3482 139.871L50.6306 140.227L49.3362 136.352L47.5107 132.776L46.2246 128.901L41.7688 129.258L37.4458 129.839L37.5454 133.78L37.172 137.78L37.0973 141.738L34.8321 142.103L34.8985 137.912L34.4172 133.772L34.4919 129.615L33.0813 129.681L31.8782 126.047L31.2642 129.739L28.7749 129.839L29.2064 124.562L29.837 119.21L30.8825 113.758Z" fill="#DBF1FF"/>
<path d="M86.4507 106.797L90.6326 108.033L94.6901 108.912L98.6646 109.908L98.3161 107.85L93.6363 105.834L88.8072 104.05L83.9614 102.191L83.671 97.8933L82.4015 93.9105L80.103 90.4587L76.1866 89.4879L71.7391 92.1514L70.9924 97.5697L71.3989 102.913L67.1174 104.789L62.8691 106.904L58.4797 108.771L58.795 111.269L63.2923 109.585L67.8725 108.249L72.3615 106.979L71.1666 111.277L69.449 115.526L68.0135 119.873L66.6859 124.412L72.3615 124.669L72.0959 128.984L72.071 133.199L72.0959 137.398L73.8384 137.323L74.1454 133.249L75.0333 129.324L75.3154 125.259L79.7214 124.503L84.0527 123.997L84.9322 127.847L86.2764 131.631L87.3302 135.448L89.6203 135.24L88.5167 131.2L87.9691 127.067L86.8655 123.051L88.6578 122.67L88.7906 119.334L91.089 122.155L92.4581 121.857L90.7405 116.853L88.8072 111.825L86.4507 106.797Z" fill="#DBF1FF"/>
<path d="M34.8572 114.015L38.84 111.808L35.5542 110.713L34.8572 114.015Z" fill="#00569C"/>
<path d="M41.7522 109.941L38.8398 111.808L43.2375 112.962L41.7522 109.941Z" fill="#00569C"/>
<path d="M75.1993 109.684L79.1821 107.477L75.8963 106.382L75.1993 109.684Z" fill="#00569C"/>
<path d="M82.0866 105.61L79.1824 107.477L83.5801 108.631L82.0866 105.61Z" fill="#00569C"/>
</g>
<defs>
<clipPath id="clip0_1364_163691">
<rect width="386" height="167" fill="white"/>
</clipPath>
</defs>
</svg>
