<svg width="210" height="208" viewBox="0 0 210 208" fill="none" xmlns="http://www.w3.org/2000/svg">
<g clip-path="url(#clip0_832_13459)">
<rect width="210" height="208" fill="#21CC7A"/>
<path d="M210 0H0V208H210V0Z" fill="#253472"/>
<path d="M103.474 181.627C144.909 181.627 178.499 172.245 178.499 160.672C178.499 149.098 144.909 139.716 103.474 139.716C62.0386 139.716 28.4486 149.098 28.4486 160.672C28.4486 172.245 62.0386 181.627 103.474 181.627Z" fill="#253472" stroke="#FFFEF5" stroke-miterlimit="10"/>
<path d="M103.474 181.637C144.908 181.637 178.499 172.254 178.499 160.681V184.984C178.499 196.562 144.908 205.94 103.474 205.94C62.04 205.94 28.4486 196.546 28.4486 184.974V160.671C28.4486 172.243 62.04 181.637 103.474 181.637Z" fill="#253472" stroke="#FFFEF5" stroke-miterlimit="10"/>
<path d="M103.474 181.627V205.93" stroke="#FFFEF5" stroke-miterlimit="10"/>
<path d="M95.9694 181.521V205.824" stroke="#FFFEF5" stroke-miterlimit="10"/>
<path d="M88.47 181.206V205.509" stroke="#FFFEF5" stroke-miterlimit="10"/>
<path d="M80.9655 180.669V204.966" stroke="#FFFEF5" stroke-miterlimit="10"/>
<path d="M73.4661 179.88V204.183" stroke="#FFFEF5" stroke-miterlimit="10"/>
<path d="M65.9613 178.822V203.125" stroke="#FFFEF5" stroke-miterlimit="10"/>
<path d="M58.4622 177.438V201.736" stroke="#FFFEF5" stroke-miterlimit="10"/>
<path d="M50.9574 175.633V199.936" stroke="#FFFEF5" stroke-miterlimit="10"/>
<path d="M43.4525 173.243V197.546" stroke="#FFFEF5" stroke-miterlimit="10"/>
<path d="M35.9535 169.812V194.115" stroke="#FFFEF5" stroke-miterlimit="10"/>
<path d="M170.995 169.812V194.115" stroke="#FFFEF5" stroke-miterlimit="10"/>
<path d="M163.495 173.243V197.546" stroke="#FFFEF5" stroke-miterlimit="10"/>
<path d="M155.991 175.633V199.936" stroke="#FFFEF5" stroke-miterlimit="10"/>
<path d="M148.486 177.438V201.736" stroke="#FFFEF5" stroke-miterlimit="10"/>
<path d="M140.987 178.822V203.125" stroke="#FFFEF5" stroke-miterlimit="10"/>
<path d="M133.482 179.88V204.183" stroke="#FFFEF5" stroke-miterlimit="10"/>
<path d="M125.983 180.669V204.966" stroke="#FFFEF5" stroke-miterlimit="10"/>
<path d="M118.478 181.206V205.509" stroke="#FFFEF5" stroke-miterlimit="10"/>
<path d="M110.979 181.521V205.824" stroke="#FFFEF5" stroke-miterlimit="10"/>
<path d="M74.0508 153.488C115.486 153.488 149.076 144.106 149.076 132.532C149.076 120.958 115.486 111.576 74.0508 111.576C32.6154 111.576 -0.974609 120.958 -0.974609 132.532C-0.974609 144.106 32.6154 153.488 74.0508 153.488Z" fill="#253472" stroke="#FFFEF5" stroke-miterlimit="10"/>
<path d="M74.0507 153.488C115.485 153.488 149.071 144.105 149.071 132.532V156.835C149.071 168.413 115.485 177.791 74.0507 177.791C32.6168 177.791 -0.974609 168.408 -0.974609 156.835V132.532C-0.974609 144.105 32.6168 153.488 74.0507 153.488Z" fill="#253472" stroke="#FFFEF5" stroke-miterlimit="10"/>
<path d="M74.0508 153.488V177.791" stroke="#FFFEF5" stroke-miterlimit="10"/>
<path d="M66.546 153.383V177.686" stroke="#FFFEF5" stroke-miterlimit="10"/>
<path d="M59.0466 153.066V177.369" stroke="#FFFEF5" stroke-miterlimit="10"/>
<path d="M51.5421 152.53V176.828" stroke="#FFFEF5" stroke-miterlimit="10"/>
<path d="M44.0374 151.746V176.044" stroke="#FFFEF5" stroke-miterlimit="10"/>
<path d="M36.538 150.683V174.985" stroke="#FFFEF5" stroke-miterlimit="10"/>
<path d="M29.0334 149.299V173.602" stroke="#FFFEF5" stroke-miterlimit="10"/>
<path d="M21.5341 147.499V171.797" stroke="#FFFEF5" stroke-miterlimit="10"/>
<path d="M14.0293 145.109V169.407" stroke="#FFFEF5" stroke-miterlimit="10"/>
<path d="M6.53015 141.679V165.976" stroke="#FFFEF5" stroke-miterlimit="10"/>
<path d="M141.572 141.679V165.976" stroke="#FFFEF5" stroke-miterlimit="10"/>
<path d="M134.067 145.109V169.407" stroke="#FFFEF5" stroke-miterlimit="10"/>
<path d="M126.567 147.499V171.797" stroke="#FFFEF5" stroke-miterlimit="10"/>
<path d="M119.063 149.299V173.602" stroke="#FFFEF5" stroke-miterlimit="10"/>
<path d="M111.563 150.683V174.985" stroke="#FFFEF5" stroke-miterlimit="10"/>
<path d="M104.059 151.746V176.044" stroke="#FFFEF5" stroke-miterlimit="10"/>
<path d="M96.5541 152.53V176.828" stroke="#FFFEF5" stroke-miterlimit="10"/>
<path d="M89.0547 153.066V177.369" stroke="#FFFEF5" stroke-miterlimit="10"/>
<path d="M81.5499 153.383V177.686" stroke="#FFFEF5" stroke-miterlimit="10"/>
<path d="M103.474 125.349C144.909 125.349 178.499 115.967 178.499 104.393C178.499 92.8197 144.909 83.4375 103.474 83.4375C62.0386 83.4375 28.4486 92.8197 28.4486 104.393C28.4486 115.967 62.0386 125.349 103.474 125.349Z" fill="#253472" stroke="#FFFEF5" stroke-miterlimit="10"/>
<path d="M103.474 125.328C144.908 125.328 178.499 115.95 178.499 104.372V128.696C178.499 140.274 144.908 149.652 103.474 149.652C62.04 149.652 28.4486 140.268 28.4486 128.696V104.393C28.4486 115.971 62.04 125.328 103.474 125.328Z" fill="#253472" stroke="#FFFEF5" stroke-miterlimit="10"/>
<path d="M103.474 125.349V149.651" stroke="#FFFEF5" stroke-miterlimit="10"/>
<path d="M95.9694 125.248V149.546" stroke="#FFFEF5" stroke-miterlimit="10"/>
<path d="M88.47 124.933V149.23" stroke="#FFFEF5" stroke-miterlimit="10"/>
<path d="M80.9655 124.391V148.693" stroke="#FFFEF5" stroke-miterlimit="10"/>
<path d="M73.4661 123.606V147.904" stroke="#FFFEF5" stroke-miterlimit="10"/>
<path d="M65.9613 122.549V146.846" stroke="#FFFEF5" stroke-miterlimit="10"/>
<path d="M58.4622 121.159V145.462" stroke="#FFFEF5" stroke-miterlimit="10"/>
<path d="M50.9574 119.359V143.657" stroke="#FFFEF5" stroke-miterlimit="10"/>
<path d="M43.4525 116.971V141.268" stroke="#FFFEF5" stroke-miterlimit="10"/>
<path d="M35.9535 113.539V137.842" stroke="#FFFEF5" stroke-miterlimit="10"/>
<path d="M170.995 113.539V137.842" stroke="#FFFEF5" stroke-miterlimit="10"/>
<path d="M163.495 116.971V141.268" stroke="#FFFEF5" stroke-miterlimit="10"/>
<path d="M155.991 119.359V143.657" stroke="#FFFEF5" stroke-miterlimit="10"/>
<path d="M148.486 121.159V145.462" stroke="#FFFEF5" stroke-miterlimit="10"/>
<path d="M140.987 122.549V146.846" stroke="#FFFEF5" stroke-miterlimit="10"/>
<path d="M133.482 123.606V147.904" stroke="#FFFEF5" stroke-miterlimit="10"/>
<path d="M125.983 124.391V148.693" stroke="#FFFEF5" stroke-miterlimit="10"/>
<path d="M118.478 124.933V149.23" stroke="#FFFEF5" stroke-miterlimit="10"/>
<path d="M110.979 125.248V149.546" stroke="#FFFEF5" stroke-miterlimit="10"/>
<path d="M103.474 97.2143C144.909 97.2143 178.499 87.8321 178.499 76.2585C178.499 64.685 144.909 55.3027 103.474 55.3027C62.0386 55.3027 28.4486 64.685 28.4486 76.2585C28.4486 87.8321 62.0386 97.2143 103.474 97.2143Z" fill="#253472" stroke="#FFFEF5" stroke-miterlimit="10"/>
<path d="M103.474 97.2146C144.908 97.2146 178.499 87.8313 178.499 76.2588V100.556C178.499 112.134 144.908 121.512 103.474 121.512C62.04 121.512 28.4486 112.129 28.4486 100.556V76.2588C28.4486 87.8313 62.04 97.2146 103.474 97.2146Z" fill="#253472" stroke="#FFFEF5" stroke-miterlimit="10"/>
<path d="M103.474 97.2148V121.512" stroke="#FFFEF5" stroke-miterlimit="10"/>
<path d="M95.9694 97.1094V121.412" stroke="#FFFEF5" stroke-miterlimit="10"/>
<path d="M88.47 96.7939V121.097" stroke="#FFFEF5" stroke-miterlimit="10"/>
<path d="M80.9655 96.251V120.554" stroke="#FFFEF5" stroke-miterlimit="10"/>
<path d="M73.4661 95.4678V119.771" stroke="#FFFEF5" stroke-miterlimit="10"/>
<path d="M65.9613 94.4092V118.707" stroke="#FFFEF5" stroke-miterlimit="10"/>
<path d="M58.4622 93.0205V117.323" stroke="#FFFEF5" stroke-miterlimit="10"/>
<path d="M50.9574 91.2207V115.524" stroke="#FFFEF5" stroke-miterlimit="10"/>
<path d="M43.4525 88.8311V113.134" stroke="#FFFEF5" stroke-miterlimit="10"/>
<path d="M35.9535 85.4004V109.703" stroke="#FFFEF5" stroke-miterlimit="10"/>
<path d="M170.995 85.4004V109.703" stroke="#FFFEF5" stroke-miterlimit="10"/>
<path d="M163.495 88.8311V113.134" stroke="#FFFEF5" stroke-miterlimit="10"/>
<path d="M155.991 91.2207V115.524" stroke="#FFFEF5" stroke-miterlimit="10"/>
<path d="M148.486 93.0205V117.323" stroke="#FFFEF5" stroke-miterlimit="10"/>
<path d="M140.987 94.4092V118.707" stroke="#FFFEF5" stroke-miterlimit="10"/>
<path d="M133.482 95.4678V119.771" stroke="#FFFEF5" stroke-miterlimit="10"/>
<path d="M125.983 96.251V120.554" stroke="#FFFEF5" stroke-miterlimit="10"/>
<path d="M118.478 96.7939V121.097" stroke="#FFFEF5" stroke-miterlimit="10"/>
<path d="M110.979 97.1094V121.412" stroke="#FFFEF5" stroke-miterlimit="10"/>
<path d="M134.904 69.0756C176.339 69.0756 209.929 59.6934 209.929 48.1198C209.929 36.5463 176.339 27.1641 134.904 27.1641C93.4682 27.1641 59.8782 36.5463 59.8782 48.1198C59.8782 59.6934 93.4682 69.0756 134.904 69.0756Z" fill="#253472" stroke="#FFFEF5" stroke-miterlimit="10"/>
<path d="M134.904 69.0749C176.338 69.0749 209.929 59.6917 209.929 48.1191V72.4167C209.929 83.9945 176.338 93.3777 134.904 93.3777C93.4695 93.3777 59.8782 83.9945 59.8782 72.4167V48.1191C59.8782 59.6917 93.4695 69.0749 134.904 69.0749Z" fill="#253472" stroke="#FFFEF5" stroke-miterlimit="10"/>
<path d="M134.904 69.0752V93.378" stroke="#FFFEF5" stroke-miterlimit="10"/>
<path d="M127.399 68.9697V93.2725" stroke="#FFFEF5" stroke-miterlimit="10"/>
<path d="M119.899 68.6543V92.9571" stroke="#FFFEF5" stroke-miterlimit="10"/>
<path d="M112.395 68.1123V92.4151" stroke="#FFFEF5" stroke-miterlimit="10"/>
<path d="M104.896 67.3281V91.6309" stroke="#FFFEF5" stroke-miterlimit="10"/>
<path d="M97.3907 66.2705V90.5733" stroke="#FFFEF5" stroke-miterlimit="10"/>
<path d="M89.8862 64.8857V89.1833" stroke="#FFFEF5" stroke-miterlimit="10"/>
<path d="M82.3868 63.0811V87.3839" stroke="#FFFEF5" stroke-miterlimit="10"/>
<path d="M74.8823 60.6914V84.9942" stroke="#FFFEF5" stroke-miterlimit="10"/>
<path d="M67.3829 57.2607V81.5636" stroke="#FFFEF5" stroke-miterlimit="10"/>
<path d="M202.424 57.2607V81.5636" stroke="#FFFEF5" stroke-miterlimit="10"/>
<path d="M194.919 60.6914V84.9942" stroke="#FFFEF5" stroke-miterlimit="10"/>
<path d="M187.42 63.0811V87.3839" stroke="#FFFEF5" stroke-miterlimit="10"/>
<path d="M179.916 64.8857V89.1833" stroke="#FFFEF5" stroke-miterlimit="10"/>
<path d="M172.416 66.2705V90.5733" stroke="#FFFEF5" stroke-miterlimit="10"/>
<path d="M164.912 67.3281V91.6309" stroke="#FFFEF5" stroke-miterlimit="10"/>
<path d="M157.412 68.1123V92.4151" stroke="#FFFEF5" stroke-miterlimit="10"/>
<path d="M149.907 68.6543V92.9571" stroke="#FFFEF5" stroke-miterlimit="10"/>
<path d="M142.403 68.9697V93.2725" stroke="#FFFEF5" stroke-miterlimit="10"/>
<path d="M134.904 40.936C176.339 40.936 209.929 31.5538 209.929 19.9802C209.929 8.40664 176.339 -0.975586 134.904 -0.975586C93.4682 -0.975586 59.8782 8.40664 59.8782 19.9802C59.8782 31.5538 93.4682 40.936 134.904 40.936Z" fill="#253472" stroke="#FFFEF5" stroke-miterlimit="10"/>
<path d="M134.904 40.9363C176.338 40.9363 209.929 31.553 209.929 19.9805V44.2833C209.929 55.8611 176.338 65.2391 134.904 65.2391C93.4695 65.2391 59.8782 55.8611 59.8782 44.2833V19.9805C59.8782 31.553 93.4695 40.9363 134.904 40.9363Z" fill="#253472" stroke="#FFFEF5" stroke-miterlimit="10"/>
<path d="M134.904 40.9355V65.2384" stroke="#FFFEF5" stroke-miterlimit="10"/>
<path d="M127.399 40.8311V65.1339" stroke="#FFFEF5" stroke-miterlimit="10"/>
<path d="M119.899 40.5146V64.8175" stroke="#FFFEF5" stroke-miterlimit="10"/>
<path d="M112.395 39.9785V64.2761" stroke="#FFFEF5" stroke-miterlimit="10"/>
<path d="M104.896 39.1885V63.4913" stroke="#FFFEF5" stroke-miterlimit="10"/>
<path d="M97.3907 38.1309V62.4337" stroke="#FFFEF5" stroke-miterlimit="10"/>
<path d="M89.8862 36.7471V61.0499" stroke="#FFFEF5" stroke-miterlimit="10"/>
<path d="M82.3868 34.9424V59.2452" stroke="#FFFEF5" stroke-miterlimit="10"/>
<path d="M74.8823 32.5576V56.8552" stroke="#FFFEF5" stroke-miterlimit="10"/>
<path d="M67.3829 29.127V53.4245" stroke="#FFFEF5" stroke-miterlimit="10"/>
<path d="M202.424 29.127V53.4245" stroke="#FFFEF5" stroke-miterlimit="10"/>
<path d="M194.919 32.5576V56.8552" stroke="#FFFEF5" stroke-miterlimit="10"/>
<path d="M187.42 34.9424V59.2452" stroke="#FFFEF5" stroke-miterlimit="10"/>
<path d="M179.916 36.7471V61.0499" stroke="#FFFEF5" stroke-miterlimit="10"/>
<path d="M172.416 38.1309V62.4337" stroke="#FFFEF5" stroke-miterlimit="10"/>
<path d="M164.912 39.1885V63.4913" stroke="#FFFEF5" stroke-miterlimit="10"/>
<path d="M157.412 39.9785V64.2761" stroke="#FFFEF5" stroke-miterlimit="10"/>
<path d="M149.907 40.5146V64.8175" stroke="#FFFEF5" stroke-miterlimit="10"/>
<path d="M142.403 40.8311V65.1339" stroke="#FFFEF5" stroke-miterlimit="10"/>
</g>
<rect x="0.5" y="0.5" width="209" height="207" stroke="#FFFEF5"/>
<defs>
<clipPath id="clip0_832_13459">
<rect width="210" height="208" fill="white"/>
</clipPath>
</defs>
</svg>
