<svg width="101" height="101" viewBox="0 0 101 101" fill="none" xmlns="http://www.w3.org/2000/svg">
<g clip-path="url(#clip0_832_12167)">
<path d="M101 0H0V101H101V0Z" fill="#208FDF"/>
<path d="M50.766 89.1941C70.6944 89.1941 86.8496 84.6383 86.8496 79.0184C86.8496 73.3986 70.6944 68.8428 50.766 68.8428C30.8376 68.8428 14.6824 73.3986 14.6824 79.0184C14.6824 84.6383 30.8376 89.1941 50.766 89.1941Z" fill="#208FDF" stroke="#FFFEF5" stroke-width="0.5" stroke-miterlimit="10"/>
<path d="M50.766 89.1993C70.6938 89.1993 86.8496 84.643 86.8496 79.0237V90.8245C86.8496 96.4464 70.6938 101 50.766 101C30.8382 101 14.6824 96.4388 14.6824 90.8194V79.0186C14.6824 84.6379 30.8382 89.1993 50.766 89.1993Z" fill="#208FDF" stroke="#FFFEF5" stroke-width="0.5" stroke-miterlimit="10"/>
<path d="M50.7661 89.1943V100.995" stroke="#FFFEF5" stroke-width="0.5" stroke-miterlimit="10"/>
<path d="M47.1567 89.1426V100.943" stroke="#FFFEF5" stroke-width="0.5" stroke-miterlimit="10"/>
<path d="M43.5498 88.9893V100.79" stroke="#FFFEF5" stroke-width="0.5" stroke-miterlimit="10"/>
<path d="M39.9404 88.7285V100.527" stroke="#FFFEF5" stroke-width="0.5" stroke-miterlimit="10"/>
<path d="M36.3337 88.3457V100.147" stroke="#FFFEF5" stroke-width="0.5" stroke-miterlimit="10"/>
<path d="M32.7241 87.832V99.6329" stroke="#FFFEF5" stroke-width="0.5" stroke-miterlimit="10"/>
<path d="M29.1174 87.1602V98.9585" stroke="#FFFEF5" stroke-width="0.5" stroke-miterlimit="10"/>
<path d="M25.5081 86.2832V98.0841" stroke="#FFFEF5" stroke-width="0.5" stroke-miterlimit="10"/>
<path d="M21.8987 85.123V96.9239" stroke="#FFFEF5" stroke-width="0.5" stroke-miterlimit="10"/>
<path d="M18.292 83.457V95.2579" stroke="#FFFEF5" stroke-width="0.5" stroke-miterlimit="10"/>
<path d="M83.2402 83.457V95.2579" stroke="#FFFEF5" stroke-width="0.5" stroke-miterlimit="10"/>
<path d="M79.6335 85.123V96.9239" stroke="#FFFEF5" stroke-width="0.5" stroke-miterlimit="10"/>
<path d="M76.0239 86.2832V98.0841" stroke="#FFFEF5" stroke-width="0.5" stroke-miterlimit="10"/>
<path d="M72.4148 87.1602V98.9585" stroke="#FFFEF5" stroke-width="0.5" stroke-miterlimit="10"/>
<path d="M68.8079 87.832V99.6329" stroke="#FFFEF5" stroke-width="0.5" stroke-miterlimit="10"/>
<path d="M65.1985 88.3457V100.147" stroke="#FFFEF5" stroke-width="0.5" stroke-miterlimit="10"/>
<path d="M61.5918 88.7285V100.527" stroke="#FFFEF5" stroke-width="0.5" stroke-miterlimit="10"/>
<path d="M57.9822 88.9893V100.79" stroke="#FFFEF5" stroke-width="0.5" stroke-miterlimit="10"/>
<path d="M54.3755 89.1426V100.943" stroke="#FFFEF5" stroke-width="0.5" stroke-miterlimit="10"/>
<path d="M36.6149 75.53C56.5433 75.53 72.6985 70.9742 72.6985 65.3544C72.6985 59.7345 56.5433 55.1787 36.6149 55.1787C16.6864 55.1787 0.53125 59.7345 0.53125 65.3544C0.53125 70.9742 16.6864 75.53 36.6149 75.53Z" fill="#208FDF" stroke="#FFFEF5" stroke-width="0.5" stroke-miterlimit="10"/>
<path d="M36.6149 75.5301C56.5427 75.5301 72.6959 70.9738 72.6959 65.3545V77.1554C72.6959 82.7773 56.5427 87.331 36.6149 87.331C16.6871 87.331 0.53125 82.7747 0.53125 77.1554V65.3545C0.53125 70.9738 16.6871 75.5301 36.6149 75.5301Z" fill="#208FDF" stroke="#FFFEF5" stroke-width="0.5" stroke-miterlimit="10"/>
<path d="M36.615 75.5303V87.3312" stroke="#FFFEF5" stroke-width="0.5" stroke-miterlimit="10"/>
<path d="M33.0054 75.4795V87.2804" stroke="#FFFEF5" stroke-width="0.5" stroke-miterlimit="10"/>
<path d="M29.3987 75.3262V87.1271" stroke="#FFFEF5" stroke-width="0.5" stroke-miterlimit="10"/>
<path d="M25.7893 75.0654V86.8638" stroke="#FFFEF5" stroke-width="0.5" stroke-miterlimit="10"/>
<path d="M22.1799 74.6846V86.4829" stroke="#FFFEF5" stroke-width="0.5" stroke-miterlimit="10"/>
<path d="M18.573 74.168V85.9689" stroke="#FFFEF5" stroke-width="0.5" stroke-miterlimit="10"/>
<path d="M14.9636 73.4961V85.297" stroke="#FFFEF5" stroke-width="0.5" stroke-miterlimit="10"/>
<path d="M11.3569 72.6221V84.4204" stroke="#FFFEF5" stroke-width="0.5" stroke-miterlimit="10"/>
<path d="M7.74731 71.4619V83.2602" stroke="#FFFEF5" stroke-width="0.5" stroke-miterlimit="10"/>
<path d="M4.14062 69.7959V81.5942" stroke="#FFFEF5" stroke-width="0.5" stroke-miterlimit="10"/>
<path d="M69.0891 69.7959V81.5942" stroke="#FFFEF5" stroke-width="0.5" stroke-miterlimit="10"/>
<path d="M65.4797 71.4619V83.2602" stroke="#FFFEF5" stroke-width="0.5" stroke-miterlimit="10"/>
<path d="M61.8728 72.6221V84.4204" stroke="#FFFEF5" stroke-width="0.5" stroke-miterlimit="10"/>
<path d="M58.2634 73.4961V85.297" stroke="#FFFEF5" stroke-width="0.5" stroke-miterlimit="10"/>
<path d="M54.6567 74.168V85.9689" stroke="#FFFEF5" stroke-width="0.5" stroke-miterlimit="10"/>
<path d="M51.0474 74.6846V86.4829" stroke="#FFFEF5" stroke-width="0.5" stroke-miterlimit="10"/>
<path d="M47.438 75.0654V86.8638" stroke="#FFFEF5" stroke-width="0.5" stroke-miterlimit="10"/>
<path d="M43.8311 75.3262V87.1271" stroke="#FFFEF5" stroke-width="0.5" stroke-miterlimit="10"/>
<path d="M40.2217 75.4795V87.2804" stroke="#FFFEF5" stroke-width="0.5" stroke-miterlimit="10"/>
<path d="M50.766 61.8669C70.6944 61.8669 86.8496 57.3111 86.8496 51.6913C86.8496 46.0714 70.6944 41.5156 50.766 41.5156C30.8376 41.5156 14.6824 46.0714 14.6824 51.6913C14.6824 57.3111 30.8376 61.8669 50.766 61.8669Z" fill="#208FDF" stroke="#FFFEF5" stroke-width="0.5" stroke-miterlimit="10"/>
<path d="M50.766 61.8563C70.6938 61.8563 86.8496 57.3026 86.8496 51.6807V63.4918C86.8496 69.1137 70.6938 73.6674 50.766 73.6674C30.8382 73.6674 14.6824 69.1111 14.6824 63.4918V51.6909C14.6824 57.3128 30.8382 61.8563 50.766 61.8563Z" fill="#208FDF" stroke="#FFFEF5" stroke-width="0.5" stroke-miterlimit="10"/>
<path d="M50.7661 61.8662V73.6671" stroke="#FFFEF5" stroke-width="0.5" stroke-miterlimit="10"/>
<path d="M47.1567 61.8174V73.6157" stroke="#FFFEF5" stroke-width="0.5" stroke-miterlimit="10"/>
<path d="M43.5498 61.665V73.4634" stroke="#FFFEF5" stroke-width="0.5" stroke-miterlimit="10"/>
<path d="M39.9404 61.4014V73.2022" stroke="#FFFEF5" stroke-width="0.5" stroke-miterlimit="10"/>
<path d="M36.3337 61.0205V72.8188" stroke="#FFFEF5" stroke-width="0.5" stroke-miterlimit="10"/>
<path d="M32.7241 60.5068V72.3052" stroke="#FFFEF5" stroke-width="0.5" stroke-miterlimit="10"/>
<path d="M29.1174 59.832V71.6329" stroke="#FFFEF5" stroke-width="0.5" stroke-miterlimit="10"/>
<path d="M25.5081 58.958V70.7563" stroke="#FFFEF5" stroke-width="0.5" stroke-miterlimit="10"/>
<path d="M21.8987 57.7979V69.5962" stroke="#FFFEF5" stroke-width="0.5" stroke-miterlimit="10"/>
<path d="M18.292 56.1318V67.9327" stroke="#FFFEF5" stroke-width="0.5" stroke-miterlimit="10"/>
<path d="M83.2402 56.1318V67.9327" stroke="#FFFEF5" stroke-width="0.5" stroke-miterlimit="10"/>
<path d="M79.6335 57.7979V69.5962" stroke="#FFFEF5" stroke-width="0.5" stroke-miterlimit="10"/>
<path d="M76.0239 58.958V70.7563" stroke="#FFFEF5" stroke-width="0.5" stroke-miterlimit="10"/>
<path d="M72.4148 59.832V71.6329" stroke="#FFFEF5" stroke-width="0.5" stroke-miterlimit="10"/>
<path d="M68.8079 60.5068V72.3052" stroke="#FFFEF5" stroke-width="0.5" stroke-miterlimit="10"/>
<path d="M65.1985 61.0205V72.8188" stroke="#FFFEF5" stroke-width="0.5" stroke-miterlimit="10"/>
<path d="M61.5918 61.4014V73.2022" stroke="#FFFEF5" stroke-width="0.5" stroke-miterlimit="10"/>
<path d="M57.9822 61.665V73.4634" stroke="#FFFEF5" stroke-width="0.5" stroke-miterlimit="10"/>
<path d="M54.3755 61.8174V73.6157" stroke="#FFFEF5" stroke-width="0.5" stroke-miterlimit="10"/>
<path d="M50.766 48.2048C70.6944 48.2048 86.8496 43.649 86.8496 38.0292C86.8496 32.4093 70.6944 27.8535 50.766 27.8535C30.8376 27.8535 14.6824 32.4093 14.6824 38.0292C14.6824 43.649 30.8376 48.2048 50.766 48.2048Z" fill="#208FDF" stroke="#FFFEF5" stroke-width="0.5" stroke-miterlimit="10"/>
<path d="M50.766 48.2049C70.6938 48.2049 86.8496 43.6486 86.8496 38.0293V49.8276C86.8496 55.4495 70.6938 60.0033 50.766 60.0033C30.8382 60.0033 14.6824 55.447 14.6824 49.8276V38.0293C14.6824 43.6486 30.8382 48.2049 50.766 48.2049Z" fill="#208FDF" stroke="#FFFEF5" stroke-width="0.5" stroke-miterlimit="10"/>
<path d="M50.7661 48.2051V60.0034" stroke="#FFFEF5" stroke-width="0.5" stroke-miterlimit="10"/>
<path d="M47.1567 48.1543V59.9552" stroke="#FFFEF5" stroke-width="0.5" stroke-miterlimit="10"/>
<path d="M43.5498 48.001V59.8019" stroke="#FFFEF5" stroke-width="0.5" stroke-miterlimit="10"/>
<path d="M39.9404 47.7373V59.5382" stroke="#FFFEF5" stroke-width="0.5" stroke-miterlimit="10"/>
<path d="M36.3337 47.3564V59.1573" stroke="#FFFEF5" stroke-width="0.5" stroke-miterlimit="10"/>
<path d="M32.7241 46.8428V58.6411" stroke="#FFFEF5" stroke-width="0.5" stroke-miterlimit="10"/>
<path d="M29.1174 46.1689V57.9698" stroke="#FFFEF5" stroke-width="0.5" stroke-miterlimit="10"/>
<path d="M25.5081 45.2949V57.0958" stroke="#FFFEF5" stroke-width="0.5" stroke-miterlimit="10"/>
<path d="M21.8987 44.1348V55.9357" stroke="#FFFEF5" stroke-width="0.5" stroke-miterlimit="10"/>
<path d="M18.292 42.4688V54.2696" stroke="#FFFEF5" stroke-width="0.5" stroke-miterlimit="10"/>
<path d="M83.2402 42.4688V54.2696" stroke="#FFFEF5" stroke-width="0.5" stroke-miterlimit="10"/>
<path d="M79.6335 44.1348V55.9357" stroke="#FFFEF5" stroke-width="0.5" stroke-miterlimit="10"/>
<path d="M76.0239 45.2949V57.0958" stroke="#FFFEF5" stroke-width="0.5" stroke-miterlimit="10"/>
<path d="M72.4148 46.1689V57.9698" stroke="#FFFEF5" stroke-width="0.5" stroke-miterlimit="10"/>
<path d="M68.8079 46.8428V58.6411" stroke="#FFFEF5" stroke-width="0.5" stroke-miterlimit="10"/>
<path d="M65.1985 47.3564V59.1573" stroke="#FFFEF5" stroke-width="0.5" stroke-miterlimit="10"/>
<path d="M61.5918 47.7373V59.5382" stroke="#FFFEF5" stroke-width="0.5" stroke-miterlimit="10"/>
<path d="M57.9822 48.001V59.8019" stroke="#FFFEF5" stroke-width="0.5" stroke-miterlimit="10"/>
<path d="M54.3755 48.1543V59.9552" stroke="#FFFEF5" stroke-width="0.5" stroke-miterlimit="10"/>
<path d="M65.8822 34.5417C85.8106 34.5417 101.966 29.9859 101.966 24.3661C101.966 18.7462 85.8106 14.1904 65.8822 14.1904C45.9538 14.1904 29.7986 18.7462 29.7986 24.3661C29.7986 29.9859 45.9538 34.5417 65.8822 34.5417Z" fill="#208FDF" stroke="#FFFEF5" stroke-width="0.5" stroke-miterlimit="10"/>
<path d="M65.8822 34.5419C85.81 34.5419 101.966 29.9856 101.966 24.3662V36.1645C101.966 41.7864 85.81 46.3427 65.8822 46.3427C45.9544 46.3427 29.7986 41.7864 29.7986 36.1645V24.3662C29.7986 29.9856 45.9544 34.5419 65.8822 34.5419Z" fill="#208FDF" stroke="#FFFEF5" stroke-width="0.5" stroke-miterlimit="10"/>
<path d="M65.8823 34.541V46.3419" stroke="#FFFEF5" stroke-width="0.5" stroke-miterlimit="10"/>
<path d="M62.2727 34.4902V46.2911" stroke="#FFFEF5" stroke-width="0.5" stroke-miterlimit="10"/>
<path d="M58.666 34.3369V46.1378" stroke="#FFFEF5" stroke-width="0.5" stroke-miterlimit="10"/>
<path d="M55.0566 34.0742V45.8751" stroke="#FFFEF5" stroke-width="0.5" stroke-miterlimit="10"/>
<path d="M51.4497 33.6934V45.4942" stroke="#FFFEF5" stroke-width="0.5" stroke-miterlimit="10"/>
<path d="M47.8403 33.1797V44.9806" stroke="#FFFEF5" stroke-width="0.5" stroke-miterlimit="10"/>
<path d="M44.231 32.5068V44.3052" stroke="#FFFEF5" stroke-width="0.5" stroke-miterlimit="10"/>
<path d="M40.624 31.6309V43.4317" stroke="#FFFEF5" stroke-width="0.5" stroke-miterlimit="10"/>
<path d="M37.0149 30.4707V42.2716" stroke="#FFFEF5" stroke-width="0.5" stroke-miterlimit="10"/>
<path d="M33.408 28.8047V40.6056" stroke="#FFFEF5" stroke-width="0.5" stroke-miterlimit="10"/>
<path d="M98.3564 28.8047V40.6056" stroke="#FFFEF5" stroke-width="0.5" stroke-miterlimit="10"/>
<path d="M94.7471 30.4707V42.2716" stroke="#FFFEF5" stroke-width="0.5" stroke-miterlimit="10"/>
<path d="M91.1401 31.6309V43.4317" stroke="#FFFEF5" stroke-width="0.5" stroke-miterlimit="10"/>
<path d="M87.5308 32.5068V44.3052" stroke="#FFFEF5" stroke-width="0.5" stroke-miterlimit="10"/>
<path d="M83.9241 33.1797V44.9806" stroke="#FFFEF5" stroke-width="0.5" stroke-miterlimit="10"/>
<path d="M80.3147 33.6934V45.4942" stroke="#FFFEF5" stroke-width="0.5" stroke-miterlimit="10"/>
<path d="M76.7078 34.0742V45.8751" stroke="#FFFEF5" stroke-width="0.5" stroke-miterlimit="10"/>
<path d="M73.0984 34.3369V46.1378" stroke="#FFFEF5" stroke-width="0.5" stroke-miterlimit="10"/>
<path d="M69.489 34.4902V46.2911" stroke="#FFFEF5" stroke-width="0.5" stroke-miterlimit="10"/>
<path d="M65.8822 20.8777C85.8106 20.8777 101.966 16.3219 101.966 10.702C101.966 5.08216 85.8106 0.526367 65.8822 0.526367C45.9538 0.526367 29.7986 5.08216 29.7986 10.702C29.7986 16.3219 45.9538 20.8777 65.8822 20.8777Z" fill="#208FDF" stroke="#FFFEF5" stroke-width="0.5" stroke-miterlimit="10"/>
<path d="M65.8822 20.8778C85.81 20.8778 101.966 16.3215 101.966 10.7021V22.503C101.966 28.1249 85.81 32.6787 65.8822 32.6787C45.9544 32.6787 29.7986 28.1249 29.7986 22.503V10.7021C29.7986 16.3215 45.9544 20.8778 65.8822 20.8778Z" fill="#208FDF" stroke="#FFFEF5" stroke-width="0.5" stroke-miterlimit="10"/>
<path d="M65.8823 20.8779V32.6788" stroke="#FFFEF5" stroke-width="0.5" stroke-miterlimit="10"/>
<path d="M62.2727 20.8262V32.6271" stroke="#FFFEF5" stroke-width="0.5" stroke-miterlimit="10"/>
<path d="M58.666 20.6729V32.4737" stroke="#FFFEF5" stroke-width="0.5" stroke-miterlimit="10"/>
<path d="M55.0566 20.4131V32.2114" stroke="#FFFEF5" stroke-width="0.5" stroke-miterlimit="10"/>
<path d="M51.4497 20.0293V31.8302" stroke="#FFFEF5" stroke-width="0.5" stroke-miterlimit="10"/>
<path d="M47.8403 19.5156V31.3165" stroke="#FFFEF5" stroke-width="0.5" stroke-miterlimit="10"/>
<path d="M44.231 18.8438V30.6446" stroke="#FFFEF5" stroke-width="0.5" stroke-miterlimit="10"/>
<path d="M40.624 17.9668V29.7677" stroke="#FFFEF5" stroke-width="0.5" stroke-miterlimit="10"/>
<path d="M37.0149 16.8096V28.6079" stroke="#FFFEF5" stroke-width="0.5" stroke-miterlimit="10"/>
<path d="M33.408 15.1436V26.9419" stroke="#FFFEF5" stroke-width="0.5" stroke-miterlimit="10"/>
<path d="M98.3564 15.1436V26.9419" stroke="#FFFEF5" stroke-width="0.5" stroke-miterlimit="10"/>
<path d="M94.7471 16.8096V28.6079" stroke="#FFFEF5" stroke-width="0.5" stroke-miterlimit="10"/>
<path d="M91.1401 17.9668V29.7677" stroke="#FFFEF5" stroke-width="0.5" stroke-miterlimit="10"/>
<path d="M87.5308 18.8438V30.6446" stroke="#FFFEF5" stroke-width="0.5" stroke-miterlimit="10"/>
<path d="M83.9241 19.5156V31.3165" stroke="#FFFEF5" stroke-width="0.5" stroke-miterlimit="10"/>
<path d="M80.3147 20.0293V31.8302" stroke="#FFFEF5" stroke-width="0.5" stroke-miterlimit="10"/>
<path d="M76.7078 20.4131V32.2114" stroke="#FFFEF5" stroke-width="0.5" stroke-miterlimit="10"/>
<path d="M73.0984 20.6729V32.4737" stroke="#FFFEF5" stroke-width="0.5" stroke-miterlimit="10"/>
<path d="M69.489 20.8262V32.6271" stroke="#FFFEF5" stroke-width="0.5" stroke-miterlimit="10"/>
</g>
<defs>
<clipPath id="clip0_832_12167">
<rect width="101" height="101" fill="white"/>
</clipPath>
</defs>
</svg>
