<svg width="25" height="25" viewBox="0 0 25 25" fill="none" xmlns="http://www.w3.org/2000/svg">
<g clip-path="url(#clip0_1364_184833)">
<rect width="25" height="25" fill="#FF8540"/>
<path fill-rule="evenodd" clip-rule="evenodd" d="M8.06471 8.3113V9.27329C8.06471 9.27329 9.54467 8.39332 9.54467 8.08031V7.18329C9.54467 7.18329 8.11306 7.86574 8.06471 8.31064V8.3113ZM2.95573 5.75277C2.95573 5.75277 4.322 5.1425 3.24258 3.71592L2.96684 0.766953L2.69372 3.68311C1.56725 5.13331 2.95573 5.75277 2.95573 5.75277ZM3.27133 6.34597V7.30797C3.27133 7.30797 4.75129 6.428 4.75129 6.11499V5.37348L5.05447 2.91798L4.23053 5.49423C3.81627 5.73308 3.30008 6.08087 3.27133 6.34532V6.34597ZM3.27133 8.3113V9.27329C3.27133 9.27329 4.75129 8.39332 4.75129 8.08031V7.18329C4.75129 7.18329 3.31968 7.86574 3.27133 8.31064V8.3113ZM3.27133 10.2766V11.2386C3.27133 11.2386 4.75129 10.3586 4.75129 10.0463V9.14927C4.75129 9.14927 3.31968 9.83171 3.27133 10.2766ZM3.27133 12.2419V13.2039C3.27133 13.2039 4.75129 12.324 4.75129 12.0116V11.1146C4.75129 11.1146 3.31968 11.797 3.27133 12.2419V12.2419ZM3.27133 14.2073V15.1693C3.27133 15.1693 4.75129 14.2893 4.75129 13.9763V13.0793C4.75129 13.0793 3.31968 13.7617 3.27133 14.2066V14.2073ZM2.64014 6.34663V7.30862C2.64014 7.30862 1.16017 6.42866 1.16017 6.11565V5.3748L0.856995 2.91864L1.68094 5.49488C2.0952 5.73374 2.61139 6.08153 2.64014 6.34597V6.34663ZM2.64014 8.31195V9.27394C2.64014 9.27394 1.16017 8.39398 1.16017 8.08097V7.18394C1.16017 7.18394 2.59179 7.86639 2.64014 8.3113V8.31195ZM2.64014 10.2773V11.2393C2.64014 11.2393 1.16017 10.3593 1.16017 10.0469V9.14992C1.16017 9.14992 2.59179 9.83237 2.64014 10.2773V10.2773ZM2.64014 12.2426V13.2046C2.64014 13.2046 1.16017 12.3246 1.16017 12.0123V11.1152C1.16017 11.1152 2.59179 11.7977 2.64014 12.2426ZM2.64014 14.2079V15.1699C2.64014 15.1699 1.16017 14.2899 1.16017 13.9769V13.0799C1.16017 13.0799 2.59179 13.7624 2.64014 14.2073V14.2079ZM2.64014 15.4186H3.27133V24.2268H2.64014V15.4173V15.4186ZM12.5418 5.75277C12.5418 5.75277 13.9081 5.1425 12.8287 3.71592L12.5536 0.766296L12.2805 3.68245C11.154 5.13266 12.5425 5.75211 12.5425 5.75211L12.5418 5.75277ZM12.8574 6.34597V7.30797C12.8574 7.30797 14.3374 6.428 14.3374 6.11499V5.37348L14.6406 2.91798L13.8166 5.49423C13.4024 5.73308 12.8862 6.08087 12.8574 6.34532V6.34597ZM12.8574 8.3113V9.27329C12.8574 9.27329 14.3374 8.39332 14.3374 8.08031V7.18329C14.3374 7.18329 12.9058 7.86574 12.8574 8.31064V8.3113ZM12.8574 10.2766V11.2386C12.8574 11.2386 14.3374 10.3586 14.3374 10.0463V9.14927C14.3374 9.14927 12.9058 9.83171 12.8574 10.2766ZM12.8574 12.2419V13.2039C12.8574 13.2039 14.3374 12.324 14.3374 12.0116V11.1146C14.3374 11.1146 12.9058 11.797 12.8574 12.2419V12.2419ZM12.8574 14.2073V15.1693C12.8574 15.1693 14.3374 14.2893 14.3374 13.9763V13.0793C14.3374 13.0793 12.9058 13.7617 12.8574 14.2066V14.2073ZM12.2262 6.34663V7.30862C12.2262 7.30862 10.7463 6.42866 10.7463 6.11565V5.3748L10.4431 2.91929L11.267 5.49554C11.6813 5.73439 12.1975 6.08218 12.2262 6.34663V6.34663ZM12.2262 8.31195V9.27394C12.2262 9.27394 10.7463 8.39398 10.7463 8.08097V7.18394C10.7463 7.18394 12.1779 7.86639 12.2262 8.3113V8.31195ZM12.2262 10.2773V11.2393C12.2262 11.2393 10.7463 10.3593 10.7463 10.0469V9.14992C10.7463 9.14992 12.1779 9.83237 12.2262 10.2773V10.2773ZM12.2262 12.2426V13.2046C12.2262 13.2046 10.7463 12.3246 10.7463 12.0123V11.1152C10.7463 11.1152 12.1779 11.7977 12.2262 12.2426ZM12.2262 14.2079V15.1699C12.2262 15.1699 10.7463 14.2899 10.7463 13.9769V13.0799C10.7463 13.0799 12.1779 13.7624 12.2262 14.2073V14.2079ZM7.74911 5.75211C7.74911 5.75211 9.11538 5.14185 8.03596 3.71526L7.76022 0.766296L7.4871 3.68245C6.36063 5.13266 7.74911 5.75211 7.74911 5.75211V5.75211ZM8.06471 6.34532V7.30731C8.06471 7.30731 9.54467 6.42734 9.54467 6.11434V5.37283L9.84785 2.91732L9.02391 5.49357C8.60965 5.73243 8.09346 6.08021 8.06471 6.34466V6.34532ZM8.06471 10.276V11.238C8.06471 11.238 9.54467 10.358 9.54467 10.0456V9.14861C9.54467 9.14861 8.11306 9.83106 8.06471 10.276ZM8.06471 12.2413V13.2033C8.06471 13.2033 9.54467 12.3233 9.54467 12.011V11.1139C9.54467 11.1139 8.11306 11.7964 8.06471 12.2413V12.2413ZM8.06471 14.2066V15.1686C8.06471 15.1686 9.54467 14.2886 9.54467 13.9756V13.0786C9.54467 13.0786 8.11306 13.761 8.06471 14.206V14.2066ZM7.43352 8.31064V9.27263C7.43352 9.27263 5.95356 8.39267 5.95356 8.07966V7.18263C5.95356 7.18263 7.38517 7.86508 7.43352 8.30998V8.31064ZM7.43352 6.34532V7.30731C7.43352 7.30731 5.95356 6.42734 5.95356 6.11434V5.37348L5.65038 2.91798L6.47432 5.49423C6.88858 5.73308 7.40477 6.08087 7.43352 6.34532V6.34532ZM7.43352 10.276V11.238C7.43352 11.238 5.95356 10.358 5.95356 10.0456V9.14861C5.95356 9.14861 7.38517 9.83106 7.43352 10.276V10.276ZM7.43352 12.2413V13.2033C7.43352 13.2033 5.95356 12.3233 5.95356 12.011V11.1139C5.95356 11.1139 7.38517 11.7964 7.43352 12.2413ZM7.43352 14.2066V15.1686C7.43352 15.1686 5.95356 14.2886 5.95356 13.9756V13.0786C5.95356 13.0786 7.38517 13.761 7.43352 14.206V14.2066ZM7.43352 15.4173H8.06471V24.2255H7.43352V15.4166V15.4173ZM12.2269 15.4173H12.8581V24.2255H12.2269V15.4166V15.4173Z" fill="#181F1C"/>
<path fill-rule="evenodd" clip-rule="evenodd" d="M22.4461 8.3113V9.27329C22.4461 9.27329 23.9261 8.39332 23.9261 8.08031V7.18329C23.9261 7.18329 22.4945 7.86574 22.4461 8.31064V8.3113ZM17.3371 5.75277C17.3371 5.75277 18.7034 5.1425 17.624 3.71592L17.3489 0.766953L17.0758 3.68311C15.9493 5.13331 17.3378 5.75277 17.3378 5.75277H17.3371ZM17.6527 6.34597V7.30797C17.6527 7.30797 19.1327 6.428 19.1327 6.11499V5.37348L19.4359 2.91798L18.6119 5.49423C18.1977 5.73308 17.6815 6.08087 17.6527 6.34532V6.34597ZM17.6527 8.3113V9.27329C17.6527 9.27329 19.1327 8.39332 19.1327 8.08031V7.18329C19.1327 7.18329 17.7011 7.86574 17.6527 8.31064V8.3113ZM17.6527 10.2766V11.2386C17.6527 11.2386 19.1327 10.3586 19.1327 10.0463V9.14927C19.1327 9.14927 17.7011 9.83171 17.6527 10.2766ZM17.6527 12.2419V13.2039C17.6527 13.2039 19.1327 12.324 19.1327 12.0116V11.1146C19.1327 11.1146 17.7011 11.797 17.6527 12.2419V12.2419ZM17.6527 14.2073V15.1693C17.6527 15.1693 19.1327 14.2893 19.1327 13.9763V13.0793C19.1327 13.0793 17.7011 13.7617 17.6527 14.2066V14.2073ZM17.0215 6.34663V7.30862C17.0215 7.30862 15.5416 6.42866 15.5416 6.11565V5.3748L15.2384 2.91929L16.0623 5.49554C16.4766 5.73439 16.9928 6.08218 17.0215 6.34663V6.34663ZM17.0215 8.31195V9.27394C17.0215 9.27394 15.5416 8.39398 15.5416 8.08097V7.18394C15.5416 7.18394 16.9732 7.86639 17.0215 8.3113V8.31195ZM17.0215 10.2773V11.2393C17.0215 11.2393 15.5416 10.3593 15.5416 10.0469V9.14992C15.5416 9.14992 16.9732 9.83237 17.0215 10.2773V10.2773ZM17.0215 12.2426V13.2046C17.0215 13.2046 15.5416 12.3246 15.5416 12.0123V11.1152C15.5416 11.1152 16.9732 11.7977 17.0215 12.2426ZM17.0215 14.2079V15.1699C17.0215 15.1699 15.5416 14.2899 15.5416 13.9769V13.0799C15.5416 13.0799 16.9732 13.7624 17.0215 14.2073V14.2079ZM17.0215 15.4186H17.6527V24.2268H17.0215V15.4173V15.4186ZM22.1299 5.75342C22.1299 5.75342 23.4961 5.14316 22.4167 3.71658L22.1416 0.766296L21.8685 3.68245C20.742 5.13266 22.1305 5.75211 22.1305 5.75211L22.1299 5.75342ZM22.4455 6.34663V7.30862C22.4455 7.30862 23.9254 6.42866 23.9254 6.11565V5.37414L24.2286 2.91864L23.4047 5.49488C22.9904 5.73374 22.4742 6.08153 22.4455 6.34597V6.34663ZM22.4455 10.2773V11.2393C22.4455 11.2393 23.9254 10.3593 23.9254 10.0469V9.14992C23.9254 9.14992 22.4938 9.83237 22.4455 10.2773ZM22.4455 12.2426V13.2046C22.4455 13.2046 23.9254 12.3246 23.9254 12.0123V11.1152C23.9254 11.1152 22.4938 11.7977 22.4455 12.2426V12.2426ZM22.4455 14.2079V15.1699C22.4455 15.1699 23.9254 14.2899 23.9254 13.9769V13.0799C23.9254 13.0799 22.4938 13.7624 22.4455 14.2073V14.2079ZM21.8143 8.31195V9.27394C21.8143 9.27394 20.3343 8.39398 20.3343 8.08097V7.18394C20.3343 7.18394 21.7659 7.86639 21.8143 8.3113V8.31195ZM21.8143 6.34663V7.30862C21.8143 7.30862 20.3343 6.42866 20.3343 6.11565V5.3748L20.0311 2.91929L20.8551 5.49554C21.2693 5.73439 21.7855 6.08218 21.8143 6.34663V6.34663ZM21.8143 10.2773V11.2393C21.8143 11.2393 20.3343 10.3593 20.3343 10.0469V9.14992C20.3343 9.14992 21.7659 9.83237 21.8143 10.2773V10.2773ZM21.8143 12.2426V13.2046C21.8143 13.2046 20.3343 12.3246 20.3343 12.0123V11.1152C20.3343 11.1152 21.7659 11.7977 21.8143 12.2426ZM21.8143 14.2079V15.1699C21.8143 15.1699 20.3343 14.2899 20.3343 13.9769V13.0799C20.3343 13.0799 21.7659 13.7624 21.8143 14.2073V14.2079ZM21.8143 15.4186H22.4455V24.2268H21.8143V15.4166V15.4186Z" fill="#181F1C"/>
</g>
<defs>
<clipPath id="clip0_1364_184833">
<rect width="25" height="25" fill="white"/>
</clipPath>
</defs>
</svg>
