<?xml version="1.0" encoding="utf-8"?>
<!-- Generator: Adobe Illustrator 26.5.0, SVG Export Plug-In . SVG Version: 6.00 Build 0)  -->
<svg version="1.1" id="Layer_1" xmlns="http://www.w3.org/2000/svg" xmlns:xlink="http://www.w3.org/1999/xlink" x="0px" y="0px"
	 viewBox="0 0 210 210" style="enable-background:new 0 0 210 210;" xml:space="preserve">
<style type="text/css">
	.st0{fill:none;}
	.st1{fill:#181F1C;}
</style>
<g>
	<rect x="48.7" y="40.1" class="st0" width="6.1" height="29.6"/>
	<path class="st0" d="M44.6,164.7v-47.9L5.7,97.3l0,0l38.9,0.4V73.8h-6.1v6.7H11.1V33.6h27.4V36h6.1V18.2C31.7,6,10.4,4.8,1,5v2.5
		c1.2,0.1,2.5,0.3,3.7,0.6l-1,4c-0.9-0.2-1.8-0.4-2.8-0.5V209h1.1c5.4-11.1,12.3-26.7,17.8-37.6L44.6,164.7z"/>
	<path class="st0" d="M177.1,176.4L176,209h33v-54.2l-31.3,20.6C177.3,175.7,177.1,176.1,177.1,176.4z"/>
	<polygon class="st0" points="131.3,135.4 106,124.5 99.1,127.5 124.9,140.7 	"/>
	<polygon class="st0" points="54.8,106.7 80.5,120 87,114.6 61.6,103.7 	"/>
	<rect x="38.5" y="40.1" class="st0" width="6.1" height="29.6"/>
	<path class="st0" d="M84.5,1H8.7c11,0.7,26.9,3.5,38,13.5C57.7,4.6,73.4,1.7,84.5,1z"/>
	<path class="st0" d="M97.1,5.2c-0.3,0-31.6-2.9-48.4,13V36h6.1v-2.4h27.4v46.9H54.8v-6.7h-6.1v23.8l19,0.2l105.1,35.2V79.8h-4v4.4
		h-18.1v-31h18.1v1.6h4V43c-11.1-10.5-31.8-8.6-32-8.6l-0.3-2.7c0.9-0.1,21.5-2,33.6,8.8c12.1-10.8,32.7-8.9,33.6-8.8l-0.3,2.7
		c-0.2,0-20.9-1.9-32,8.6v11.8h4.1l0,0v-1.6h18.1v31h-18.1v-4.4h-4.1V134l33.6,11.3V38.8c-1.6-0.2-4.2-0.4-6.6,0.2l-0.6-2.6
		c0,0,0,0,0,0v0l0,0c2.6-0.6,5.4-0.5,7.2-0.3V1H96.5c0.5,0,0.9,0.1,1,0.1L97.1,5.2z M146.4,36.3l-0.6,2.6c-3.6-0.9-8,0-8,0l-0.6-2.7
		C137.4,36.3,142.1,35.3,146.4,36.3z M101.7,12.1c-0.1,0-6.6-1.4-12.1,0l-1-4v0c6.4-1.6,13.6-0.1,13.9,0L101.7,12.1z"/>
	<rect class="st0" width="210" height="0"/>
	<path class="st0" d="M102.3,149.2c1.9-0.5,2.6-1.6,1.4-2.5l-0.4-0.3c-0.1-0.1-0.3-0.2-0.4-0.3l-54.2-27.2v44.8L102.3,149.2z"/>
	<polygon class="st0" points="179.5,57.5 175.4,57.5 175.4,77.1 175.4,77.1 179.5,77.1 	"/>
	<rect x="168.7" y="57.5" class="st0" width="4.1" height="19.5"/>
	<polygon class="st0" points="76.4,183.5 70.9,208 106.1,207.6 97,183.3 	"/>
	<polygon class="st0" points="101.6,167.2 121.4,172.6 148.7,157 133.5,151.1 	"/>
	<g>
		<path class="st1" d="M88.6,8.1L88.6,8.1l1,4c5.5-1.4,12,0,12.1,0l0.8-4C102.2,8,95,6.5,88.6,8.1z"/>
		<path class="st1" d="M145.7,39l0.6-2.6c-4.2-1-9,0-9.2,0l0.6,2.7C137.8,39,142.1,38.1,145.7,39z"/>
		<polygon class="st1" points="201.8,36.3 201.8,36.3 201.8,36.3 		"/>
		<path class="st1" d="M0,0v0.9V5v2.4v4.1V210v0h210v0v-55.9v-8.5V38.9v-2.7V0H0z M44.6,69.7h-6.1V40.1h6.1V69.7z M44.6,36h-6.1
			v-2.4H11.1v46.9h27.4v-6.7h6.1v23.8L5.7,97.3l0,0l38.9,19.5v47.9l-24.7,6.7c-5.4,11-12.3,26.5-17.8,37.6H1V11.6
			c0.9,0.1,1.9,0.2,2.8,0.5l1-4C3.5,7.8,2.2,7.6,1,7.5V5c9.4-0.1,30.7,1,43.6,13.2V36z M8.7,1h75.8c-11,0.7-26.8,3.6-37.8,13.5
			C35.6,4.5,19.7,1.7,8.7,1z M48.7,40.1h6.1v29.6h-6.1V40.1z M48.7,118.9l54.2,27.2c0.2,0.1,0.3,0.2,0.4,0.3l0.4,0.3
			c1.1,0.8,0.5,1.9-1.4,2.5l-53.6,14.4V118.9z M54.8,106.7l6.7-3l25.4,11l-6.5,5.3L54.8,106.7z M99.1,127.5l6.9-3l25.3,10.9
			l-6.4,5.3L99.1,127.5z M70.9,208l5.5-24.5l20.6-0.2l9.1,24.3L70.9,208z M121.4,172.6l-19.8-5.4l31.9-16.1l15.2,5.9L121.4,172.6z
			 M209,209h-33l1.1-32.6c0-0.3,0.2-0.7,0.7-1l31.3-20.6V209z M209,36c-1.8-0.2-4.6-0.3-7.2,0.3l0.6,2.6c2.3-0.6,5-0.4,6.6-0.2
			v106.5L175.4,134V79.8h4.1v4.4h18.1v-31h-18.1v1.6l0,0h-4.1V43c11.1-10.5,31.8-8.6,32-8.6l0.3-2.7c-0.9-0.1-21.5-2-33.6,8.8
			c-12.1-10.8-32.7-8.9-33.6-8.8l0.3,2.7c0.2,0,20.8-1.9,32,8.6v11.8h-4v-1.6h-18.1v31h18.1v-4.4h4v53.3L67.7,97.9l-19-0.2V73.8h6.1
			v6.7h27.4V33.6H54.8V36h-6.1V18.1c16.8-15.9,48.1-13,48.4-13l0.4-4.1c-0.1,0-0.5,0-1-0.1H209V36z M175.4,77.1L175.4,77.1V57.5h4.1
			v19.5H175.4z M172.7,57.5v19.5h-4.1V57.5H172.7z"/>
	</g>
</g>
</svg>
