<svg width="25" height="25" viewBox="0 0 25 25" fill="none" xmlns="http://www.w3.org/2000/svg">
<g clip-path="url(#clip0_1364_184806)">
<path d="M25.0044 0.0456543H-0.0057373V24.9924H25.0044V0.0456543Z" fill="#181F1C"/>
<path d="M15.3709 3.96637V2.97335H14.7112V2.23414H14.1164V1.47272H13.5388V0.76967H12.9663V0H15.3709C15.3703 0.012471 15.3703 0.0249656 15.3709 0.0374365V2.87563C15.3716 2.89351 15.3736 2.91131 15.3766 2.92893H15.946V1.99683H16.5242V0.987944H17.1075C17.1116 0.979247 17.1146 0.970084 17.1164 0.96066C17.1164 0.640863 17.1164 0.320643 17.1164 0H17.7812C17.7812 0.0323604 17.7767 0.0634518 17.7767 0.0970812V3.96383H15.369L15.3709 3.96637Z" fill="#89E26A"/>
<path d="M5.32705 0.000610352C5.32705 0.0278946 5.33214 0.0551789 5.33214 0.0824631C5.33214 1.34346 5.33214 2.60446 5.33214 3.86546V3.9581H2.93837V2.97586H2.27743V2.23411H1.68011V1.47269H1.10377V0.77028H0.53125V0.000610352H2.92056C2.92056 0.0329708 2.92692 0.0640621 2.92692 0.097057C2.92692 1.00992 2.92692 1.9232 2.92692 2.8369C2.92692 2.868 2.92692 2.90036 2.93138 2.93145H3.5039V1.99807H4.08532V0.98792H4.67565V0.000610352H5.32705Z" fill="#89E26A"/>
<path d="M7.54711 0.000610352V7.93716H6.75513V0.000610352H7.54711Z" fill="#89E26A"/>
<path d="M8.67883 0.000634521C8.67883 2.09581 8.67883 4.19099 8.67883 6.28617V7.93591H7.88684V0L8.67883 0.000634521Z" fill="#89E26A"/>
<path d="M10.9415 0.000621817C10.9415 0.0329822 10.9415 0.0640736 10.9415 0.0983375V7.93717H10.1527C10.1527 7.91179 10.1527 7.88768 10.1527 7.86357C10.1527 5.26289 10.1527 2.66137 10.1527 0.0589974C10.1527 0.0386929 10.1527 0.0190228 10.1527 -0.00128174L10.9415 0.000621817Z" fill="#89E26A"/>
<path d="M19.9351 0.000610352V7.93716H19.1418V0.00124487L19.9351 0.000610352Z" fill="#89E26A"/>
<path d="M21.0668 0.000610352V7.93716H20.2748V0.000610352H21.0668Z" fill="#89E26A"/>
<path d="M22.2119 0.000621817C22.2119 0.0329822 22.2119 0.0640736 22.2119 0.0983375V7.93717H21.4231C21.4231 7.91179 21.4231 7.88768 21.4231 7.86357C21.4231 5.26289 21.4231 2.66137 21.4231 0.0589974C21.4231 0.0386929 21.4231 0.0190228 21.4231 -0.00128174L22.2119 0.000621817Z" fill="#89E26A"/>
<path d="M23.3295 0.000634521C23.3295 0.0329949 23.3295 0.0640863 23.3295 0.0983502V7.93718H22.5401C22.5401 7.91434 22.5363 7.89277 22.5363 7.87373V0.0380711C22.5363 0.0253807 22.5363 0.0126904 22.5363 0H23.3282L23.3295 0.000634521Z" fill="#89E26A"/>
<path d="M24.4752 0.000634521C24.4752 0.0329949 24.4752 0.0640863 24.4752 0.0983503V7.93655H23.6794V0.0748731C23.6794 0.0501269 23.6794 0.0253807 23.6833 0L24.4752 0.000634521Z" fill="#89E26A"/>
<path d="M9.82383 0.000621817C9.82383 0.0329822 9.82383 0.0640736 9.82383 0.0983375V7.93654H9.03248C9.03248 7.91115 9.0293 7.88704 9.0293 7.86293C9.0293 5.26183 9.0293 2.66031 9.0293 0.0583629C9.0293 0.0380584 9.0293 0.0183883 9.0293 -0.00128174L9.82383 0.000621817Z" fill="#89E26A"/>
<path d="M12.0865 0.000610352C12.0865 0.0329708 12.0865 0.0640621 12.0865 0.0976916V7.93652H11.2939C11.2939 7.9086 11.29 7.88196 11.29 7.85531V0.0748489C11.29 0.0501027 11.2932 0.0253565 11.2951 0.000610352H12.0865Z" fill="#89E26A"/>
<path d="M0.193372 0.000610352C0.193372 1.41009 0.193372 2.81956 0.193372 4.22904V7.93716H-0.00128438C-0.00128438 7.91432 -0.0057373 7.89274 -0.0057373 7.87371V0.0310672C-0.0057373 0.0209149 -0.0057373 0.0107626 -0.0057373 0.000610352H0.193372Z" fill="#89E26A"/>
<path d="M5.93517 0.000610352V7.93716H5.73669V0.000610352H5.93517Z" fill="#89E26A"/>
<path d="M6.41918 0.000610352V7.87878C6.41918 7.89592 6.41918 7.91368 6.41918 7.93716H6.21753V0.000610352H6.41918Z" fill="#89E26A"/>
<path d="M12.6095 0.000610352C12.6095 0.0304327 12.6146 0.060255 12.6146 0.0900774V7.93779H12.4142V0.0900774C12.4142 0.060255 12.4142 0.0304327 12.4142 0.000610352H12.6095Z" fill="#89E26A"/>
<path d="M18.8041 0.000610352C18.8041 0.0304327 18.8041 0.0640621 18.8041 0.0907119V7.93716H18.6056V0.0907119C18.6056 0.060255 18.6056 0.0304327 18.6056 0.000610352H18.8041Z" fill="#89E26A"/>
<path d="M18.3231 0.000610352C18.3231 0.254417 18.3231 0.508225 18.3231 0.762032V7.93716H18.124V0.0900774C18.124 0.060255 18.124 0.0304327 18.124 0.000610352H18.3231Z" fill="#89E26A"/>
<path d="M24.9981 0.000634521C24.9981 0.0304569 25.0038 0.0602792 25.0038 0.089467C25.0038 2.67449 25.0038 5.25952 25.0038 7.84454V7.93782H24.8035V0.0977157C24.8035 0.0647208 24.8035 0.034264 24.8035 0L24.9981 0.000634521Z" fill="#89E26A"/>
<path d="M14.7074 20.026V19.2855H14.112V18.5241H13.5331V17.8261H12.9714V17.0564H15.3633V19.986H15.9358V19.0571H16.5179V18.0419H17.1139V17.0552H17.7653V21.0082H15.3697V20.026H14.7074Z" fill="#89E26A"/>
<path d="M16.6152 23.5095H17.1877V24.2075H17.7602V24.974H15.3716V22.0489H14.7946V22.9772H14.2157V23.9924H13.6184V24.9784H12.9714V21.019H13.0497C13.794 21.019 14.5389 21.019 15.2831 21.019C15.3512 21.019 15.3703 21.0381 15.3697 21.1104C15.3658 21.3801 15.3697 21.651 15.3697 21.9213V22.0089H16.0242V22.75H16.6209C16.6209 23.0038 16.6209 23.2538 16.6209 23.5114L16.6152 23.5095Z" fill="#89E26A"/>
<path d="M15.3684 3.96381V4.95365H16.0166V5.69287H16.6139V6.45429H17.1928V7.15226H17.7621V7.91812H15.3709V4.9949H14.7914V5.92447H14.2151V6.93969H13.6177V7.92637H12.9714V3.96634H15.3735L15.3684 3.96381Z" fill="#89E26A"/>
<path d="M22.7188 10.7531V11.4943H22.0681V12.4784H19.6718V8.52788H20.3149V9.50948H20.9103V10.5247H21.4905V11.4581H22.0681V8.52661H24.4593C24.4593 8.54628 24.4663 8.56532 24.4669 8.58435C24.4669 8.79692 24.4669 9.01011 24.4669 9.22268C24.4669 9.27851 24.4523 9.29565 24.3989 9.29501C24.2341 9.29184 24.0693 9.29501 23.8963 9.29501V9.99298H23.3174V10.7544L22.7188 10.7531Z" fill="#89E26A"/>
<path d="M24.4625 16.4473H23.8136V15.4645H23.2163V14.4493H22.6406V13.5216H22.0643V16.4467H19.6711V15.6853H20.2341V14.9822H20.8105V14.2253H21.4059V13.4835H22.0681V12.4981H24.4631V16.4473H24.4625Z" fill="#89E26A"/>
<path d="M0.536865 21.0234H2.92872V22.0069H3.58458V22.7474H4.17936V23.5088H4.75824V24.2144H5.33076V24.9759H2.93954V22.0488H2.36193V22.9778H1.77923V23.993H1.18318V24.9759H0.537501C0.537501 23.6607 0.537501 22.3432 0.537501 21.0234H0.536865Z" fill="#89E26A"/>
<path d="M4.76531 6.45431V7.15863H5.33019V7.92449H2.93706V4.99492H2.36009V5.92386H1.7793V6.93909H1.18388V7.92449H0.538208V3.96954H2.92688V4.95305H3.58655V5.69289H4.17816V6.45431C4.37409 6.45431 4.55984 6.45431 4.76276 6.45431H4.76531Z" fill="#89E26A"/>
<path d="M7.23792 8.52661H7.88232V9.50884H8.47456V10.5241H9.05725V11.4555H9.62977V8.52851H12.0235V9.28994H11.4618V9.98791H10.883V10.7493H10.2856V11.4904H9.62977V12.4752H7.23792V8.52661Z" fill="#89E26A"/>
<path d="M4.67627 17.0546H5.32704V21.0082H2.93836V20.0247H2.27551V19.2868H1.68136V18.5222H1.10121V17.8242H0.537598V17.0565H2.92818V19.9873H3.5007V19.0577H4.08213V18.0425H4.67627V17.0546Z" fill="#89E26A"/>
<path d="M8.3785 14.2195H8.97519V13.4797H9.63422V12.4987H12.0274V16.4448H11.381V15.4645H10.785V14.4537H10.2125V13.5228H9.63232V16.4461H7.23792V15.6846H7.79962V14.9841H8.3785V14.2227V14.2195Z" fill="#89E26A"/>
<path d="M14.8531 16.4606H14.0573V16.3807C14.0573 13.7893 14.0573 11.1984 14.0573 8.60784C14.0573 8.53741 14.0763 8.51965 14.1406 8.52028C14.3569 8.52472 14.5738 8.52345 14.7907 8.52028C14.8397 8.52028 14.8613 8.53551 14.8543 8.58881C14.8534 8.6036 14.8534 8.61843 14.8543 8.63322V16.4606H14.8531Z" fill="#89E26A"/>
<path d="M0.530518 8.52222C0.78497 8.52222 1.03115 8.52222 1.27797 8.52222C1.29197 8.52222 1.31105 8.5476 1.31869 8.56536C1.32256 8.58506 1.32256 8.60532 1.31869 8.62501V16.4575H0.530518V8.52222Z" fill="#89E26A"/>
<path d="M2.45741 16.46H1.66797V16.3762C1.66797 13.7883 1.66797 11.1999 1.66797 8.61102C1.66797 8.53868 1.68578 8.51838 1.75385 8.51965C1.98667 8.52409 2.22013 8.51965 2.45868 8.51965V16.46H2.45741Z" fill="#89E26A"/>
<path d="M3.58206 16.4606H2.78625V16.3807C2.78625 13.7893 2.78625 11.1984 2.78625 8.60784C2.78625 8.53741 2.80534 8.51965 2.86959 8.52028C3.08651 8.52472 3.30343 8.52345 3.52035 8.52028C3.56933 8.52028 3.59096 8.53551 3.58396 8.58881C3.58301 8.6036 3.58301 8.61843 3.58396 8.63322V16.4606H3.58206Z" fill="#89E26A"/>
<path d="M15.9714 16.4607H15.1801V8.52919C15.1979 8.52919 15.2119 8.52411 15.2252 8.52411C15.4536 8.52411 15.682 8.52411 15.911 8.52411C15.9561 8.52411 15.9746 8.53807 15.9714 8.58756C15.9704 8.6051 15.9704 8.62268 15.9714 8.64023V16.4613V16.4607Z" fill="#89E26A"/>
<path d="M7.89185 17.0507H8.67174V24.9898H7.89185V17.0507Z" fill="#89E26A"/>
<path d="M21.0604 24.9924H20.2805V17.0565H21.0604V24.9924Z" fill="#89E26A"/>
<path d="M21.4231 17.0539H22.2049V24.9898H21.4231V17.0539Z" fill="#89E26A"/>
<path d="M22.5408 17.0552H23.3232V24.9866H22.5408V17.0552Z" fill="#89E26A"/>
<path d="M23.6844 17.0552H24.4675V24.9866H23.6844V17.0552Z" fill="#89E26A"/>
<path d="M19.1495 17.0507H19.9301V24.9898H19.1495V17.0507Z" fill="#89E26A"/>
<path d="M6.75769 24.9885V17.0571H7.54331V24.9885H6.75769Z" fill="#89E26A"/>
<path d="M9.03442 17.0539H9.81623V24.9898H9.03442V17.0539Z" fill="#89E26A"/>
<path d="M10.1514 24.9879V17.0565H10.9357V24.9879H10.1514Z" fill="#89E26A"/>
<path d="M11.2952 17.0552H12.0808V24.9866H11.2952V17.0552Z" fill="#89E26A"/>
<path d="M3.93384 8.52661H4.71819V16.4581H3.93384V8.52661Z" fill="#89E26A"/>
<path d="M13.7061 8.52598V16.4575H12.9192C12.9192 16.4308 12.916 16.4042 12.916 16.3781C12.916 13.7876 12.916 11.1969 12.916 8.60593C12.916 8.53803 12.9319 8.51646 12.9981 8.51836C13.2099 8.52281 13.4224 8.51836 13.6342 8.51836C13.6577 8.51836 13.6806 8.51836 13.708 8.52154L13.7061 8.52598Z" fill="#89E26A"/>
<path d="M17.1063 16.46H16.3213V8.52856H17.1063V16.46Z" fill="#89E26A"/>
<path d="M17.4536 8.52661H18.2373V16.4581H17.4536V8.52661V8.52661Z" fill="#89E26A"/>
<path d="M5.06494 8.52661H5.84675V16.4581H5.06494V8.52661V8.52661Z" fill="#89E26A"/>
<path d="M0.188276 24.9905H-0.00256348V17.059H0.188276V24.9905Z" fill="#89E26A"/>
<path d="M0.185102 16.46H-0.0057373V8.52856H0.185102V16.46Z" fill="#89E26A"/>
<path d="M5.9301 24.9905H5.73926V17.0552H5.9301V24.9905Z" fill="#89E26A"/>
<path d="M6.41289 24.9905H6.22205V17.059H6.41289V24.9905Z" fill="#89E26A"/>
<path d="M6.67371 16.46V8.52856H6.86455V16.46H6.67371Z" fill="#89E26A"/>
<path d="M6.3842 16.46H6.19336V8.52856H6.3842V16.46Z" fill="#89E26A"/>
<path d="M12.61 24.9905H12.4192V17.059H12.61V24.9905Z" fill="#89E26A"/>
<path d="M18.1317 17.0507H18.3187V24.9898H18.1317V17.0507Z" fill="#89E26A"/>
<path d="M18.6119 17.0507H18.7996V24.9898H18.6119V17.0507Z" fill="#89E26A"/>
<path d="M12.5763 16.46H12.3855V8.52856H12.5763V16.46Z" fill="#89E26A"/>
<path d="M24.8079 17.0552H24.9987V24.9866H24.8079V17.0552Z" fill="#89E26A"/>
<path d="M18.7729 16.46H18.582V8.52856H18.7729V16.46Z" fill="#89E26A"/>
<path d="M19.0656 8.52661H19.2564V16.4581H19.0656V8.52661Z" fill="#89E26A"/>
<path d="M24.8079 8.52661H24.9987V16.4581H24.8079V8.52661Z" fill="#89E26A"/>
<path fill-rule="evenodd" clip-rule="evenodd" d="M10.3213 22.4797C9.65715 22.4023 8.96758 22.3832 8.65142 22.8851C8.00384 23.9112 7.02738 23.6466 6.8289 23.2716C6.51084 22.677 7.13361 21.7322 7.75448 21.9435C9.09608 22.401 9.83654 22.2348 10.3626 21.585L7.28437 20.3027C6.93323 20.5988 6.58251 20.8968 6.23221 21.1967L6.03756 21.0799L7.24621 19.9917C8.9415 20.6053 10.1909 20.6263 10.5579 19.4841L7.00893 18.5926L5.41096 19.9917L5.21631 19.7976L6.85308 18.3198C8.21822 18.7506 9.11834 18.4537 9.5032 17.6586L6.26847 16.9238L4.55409 18.3591V17.5818C5.39379 16.7843 6.39888 16.1364 5.80091 14.7443L3.03437 17.4651C2.70952 18.6178 2.38467 19.7709 2.05982 20.9245H-2.22644C-1.82377 22.2849 -1.5515 23.6453 -1.56423 25.0057H8.72331C9.25596 24.1639 9.78862 23.3217 10.3213 22.4791V22.4797ZM25.2068 19.0317C25.3079 17.3477 25.7157 15.9093 26.3378 14.6396H18.8951C18.1139 13.2107 17.3467 11.7798 16.9867 10.2468L13.4014 9.35278C13.7131 10.4141 14.4926 10.9573 15.7398 10.9822V11.9975L13.5185 10.9467L10.0503 12.1123C10.6183 13.1275 11.7424 13.0393 13.2456 12.1903L15.3111 13.1624L15.2328 13.4733C14.5055 13.1349 13.778 12.798 13.0503 12.4626L9.46504 14.3661C9.81618 15.4164 10.9464 15.2741 12.8556 13.9391L14.57 14.5609L14.4141 14.7938L12.8168 14.1719L10.7125 16.4264C11.4689 16.6631 12.3963 16.4676 12.8792 16.1694C13.7736 15.6167 14.4898 16.0273 14.5255 16.6726C14.5706 17.4765 13.7023 17.8528 12.9059 17.2481C12.5178 16.9537 12.1024 16.6593 11.1412 17.0095L12.7386 19.0311L25.2068 19.0317Z" fill="#181F1C"/>
</g>
<defs>
<clipPath id="clip0_1364_184806">
<rect width="25" height="25" fill="white"/>
</clipPath>
</defs>
</svg>
