<svg width="25" height="25" viewBox="0 0 25 25" fill="none" xmlns="http://www.w3.org/2000/svg">
<rect width="25" height="25" fill="#89E26A"/>
<path d="M6.95127 12.8444C6.29096 12.8444 5.72615 13.2524 5.4934 13.8306C5.42003 14.0102 5.38019 14.2095 5.38019 14.4176C5.38019 15.2861 6.08477 15.9889 6.95127 15.9889C7.81776 15.9889 8.52424 15.2867 8.52424 14.4176C8.52424 13.5485 7.82093 12.8444 6.95127 12.8444ZM6.95127 14.8585C6.70776 14.8585 6.5098 14.6605 6.5098 14.417C6.5098 14.1734 6.70523 13.9748 6.95127 13.9748C7.1973 13.9748 7.39337 14.1747 7.39337 14.417C7.39337 14.6592 7.1954 14.8585 6.95127 14.8585Z" fill="#181F1C"/>
<path d="M11.2616 12.8444C10.6013 12.8444 10.0365 13.2524 9.80377 13.8306C9.7304 14.0102 9.69055 14.2095 9.69055 14.4176C9.69055 15.2861 10.3951 15.9889 11.2616 15.9889C12.1281 15.9889 12.8346 15.2867 12.8346 14.4176C12.8346 13.5485 12.1313 12.8444 11.2616 12.8444ZM11.2616 14.8585C11.0181 14.8585 10.8202 14.6605 10.8202 14.417C10.8202 14.1734 11.0156 13.9748 11.2616 13.9748C11.5077 13.9748 11.7037 14.1747 11.7037 14.417C11.7037 14.6592 11.5058 14.8585 11.2616 14.8585Z" fill="#181F1C"/>
<path d="M20.5382 12.8444C19.8779 12.8444 19.3131 13.2524 19.0803 13.8306C19.0069 14.0102 18.9671 14.2095 18.9671 14.4176C18.9671 15.2861 19.6717 15.9889 20.5382 15.9889C21.4047 15.9889 22.1112 15.2867 22.1112 14.4176C22.1112 13.5485 21.4078 12.8444 20.5382 12.8444V12.8444ZM20.5382 14.8585C20.2947 14.8585 20.0967 14.6605 20.0967 14.417C20.0967 14.1734 20.2921 13.9748 20.5382 13.9748C20.7842 13.9748 20.9803 14.1747 20.9803 14.417C20.9803 14.6592 20.7823 14.8585 20.5382 14.8585Z" fill="#181F1C"/>
<path d="M10.5823 11.628H7.35415ZM3.89575 11.628V14.0431H4.97033C4.995 13.9103 5.03232 13.7793 5.08102 13.6554C5.38904 12.8887 6.12208 12.3928 6.95063 12.3928C7.77918 12.3928 8.51475 12.8893 8.82024 13.6579C8.86894 13.78 8.90879 13.9103 8.93092 14.0431H9.29397C9.31863 13.9077 9.35848 13.7749 9.40908 13.6509C9.71014 12.8887 10.4438 12.3921 11.2743 12.3921C12.2388 12.3921 13.0629 13.057 13.2571 14.0425C13.4696 14.0425 18.3163 14.0513 18.5288 14.0513C18.5535 13.916 18.5933 13.7831 18.6439 13.6591C18.945 12.8969 19.6786 12.4004 20.5091 12.4004C21.5059 12.4004 22.3224 13.112 22.4919 14.0507V6.61877H16.4815V11.6286H13.068M17.613 7.75105H21.2371V10.454H17.613V7.75105V7.75105Z" fill="#181F1C"/>
<path d="M23.7639 8.83209H22.4938V14.0526H23.7639V8.83209Z" fill="#181F1C"/>
<path d="M15.8996 8.24951H1.43665V10.9986H15.8996V8.24951Z" fill="#181F1C"/>
<path d="M1.43665 1.24518V7.75041H15.8996V1.24518H1.43665ZM14.8003 5.3334H13.5157V6.61813H11.5234V5.3334H10.2389V3.34084H11.5234V2.05675H13.5157V3.34148H14.8003V5.33403V5.3334Z" fill="#181F1C"/>
<path d="M19.9924 5.4884H18.8621V6.61878H19.9924V5.4884Z" fill="#181F1C"/>
<path d="M19.6173 4.40991H19.2378V4.78945H19.6173V4.40991Z" fill="#181F1C"/>
<path d="M19.6173 3.50531H19.2378V3.95759H19.6173V3.50531Z" fill="#181F1C"/>
<path d="M19.6173 2.67352H19.2378V3.05306H19.6173V2.67352Z" fill="#181F1C"/>
<path d="M20.1899 4.37496L19.9451 4.66498L20.235 4.9098L20.4798 4.61978L20.1899 4.37496Z" fill="#181F1C"/>
<path d="M20.7481 3.71467L20.469 4.04529L20.759 4.29011L21.038 3.95949L20.7481 3.71467Z" fill="#181F1C"/>
<path d="M21.2726 3.09341L21.0278 3.38342L21.3178 3.62824L21.5625 3.33823L21.2726 3.09341Z" fill="#181F1C"/>
<path d="M18.5588 4.37725L18.2689 4.62207L18.5137 4.91209L18.8036 4.66726L18.5588 4.37725Z" fill="#181F1C"/>
<path d="M18.0013 3.71593L17.7114 3.96075L17.9904 4.29137L18.2804 4.04655L18.0013 3.71593Z" fill="#181F1C"/>
<path d="M17.477 3.09436L17.1871 3.33923L17.4319 3.62921L17.7218 3.38433L17.477 3.09436Z" fill="#181F1C"/>
<path d="M1.60681 17.1837V22.6946C1.39746 22.7718 1.24567 22.9729 1.24567 23.2076C1.24567 23.5081 1.49233 23.7548 1.79276 23.7548C2.09319 23.7548 2.33986 23.5081 2.33986 23.2076C2.33986 22.9704 2.1849 22.768 1.97175 22.6921V21.3827H6.35231V22.1133H11.0978V21.3827H11.4634V22.694C11.2528 22.7711 11.0991 22.9723 11.0991 23.2076C11.0991 23.5081 11.3476 23.7548 11.6481 23.7548C11.9485 23.7548 12.1952 23.5081 12.1952 23.2076C12.1952 22.971 12.0408 22.7686 11.8289 22.6927V18.4609H11.464V21.0177H11.0984V19.7399H6.35294V20.1049H3.24936V19.0093H1.97175V17.1831H1.60681V17.1837ZM1.97175 19.3749H2.88379V20.1049H1.97175V19.3749Z" fill="#181F1C"/>
<path d="M13.1755 17.1837V22.6946C12.9661 22.7718 12.8143 22.9729 12.8143 23.2076C12.8143 23.5081 13.061 23.7548 13.3614 23.7548C13.6619 23.7548 13.9085 23.5081 13.9085 23.2076C13.9085 22.9704 13.7536 22.768 13.5404 22.6921V21.3827H17.921V22.1133H22.6665V21.3827H23.032V22.694C22.8214 22.7711 22.6677 22.9723 22.6677 23.2076C22.6677 23.5081 22.9163 23.7548 23.2167 23.7548C23.5172 23.7548 23.7638 23.5081 23.7638 23.2076C23.7638 22.971 23.6095 22.7686 23.3976 22.6927V18.4609H23.0327V21.0177H22.6671V19.7399H17.9216V20.1049H14.818V19.0093H13.5404V17.1831H13.1755V17.1837ZM13.5404 19.3749H14.4525V20.1049H13.5404V19.3749Z" fill="#181F1C"/>
</svg>
