<?xml version="1.0" encoding="utf-8"?>
<!-- Generator: Adobe Illustrator 26.5.0, SVG Export Plug-In . SVG Version: 6.00 Build 0)  -->
<svg version="1.1" id="Layer_1" xmlns="http://www.w3.org/2000/svg" xmlns:xlink="http://www.w3.org/1999/xlink" x="0px" y="0px"
	 viewBox="0 0 210 210" style="enable-background:new 0 0 210 210;" xml:space="preserve">
<style type="text/css">
	.st0{fill:#181F1C;}
</style>
<g>
	<path class="st0" d="M67.7,69.8L67.7,69.8v8.1c0,0,12.4-7.4,12.4-10v-7.5C80.2,60.3,68.1,66.1,67.7,69.8z"/>
	<path class="st0" d="M90.3,109.9v7.5c0,2.6,12.4,10,12.4,10v-8.1v0C102.3,115.6,90.3,109.9,90.3,109.9z"/>
	<path class="st0" d="M90.3,93.4v7.5c0,2.6,12.4,10,12.4,10v-8.1C102.3,99.1,90.3,93.4,90.3,93.4z"/>
	<path class="st0" d="M67.7,86.3v8.1c0,0,12.4-7.4,12.4-10v-7.5C80.2,76.8,68.1,82.6,67.7,86.3z"/>
	<path class="st0" d="M67.7,119.3L67.7,119.3v8.1c0,0,12.4-7.4,12.4-10v-7.5C80.2,109.9,68.1,115.6,67.7,119.3z"/>
	<path class="st0" d="M67.7,102.8v8.1c0,0,12.4-7.4,12.4-10v-7.5C80.2,93.4,68.1,99.1,67.7,102.8z"/>
	<path class="st0" d="M90.3,76.9v7.5c0,2.6,12.4,10,12.4,10v-8.1C102.3,82.6,90.3,76.9,90.3,76.9z"/>
	<path class="st0" d="M108,69.8L108,69.8v8.1c0,0,12.4-7.4,12.4-10v-7.5C120.4,60.3,108.4,66.1,108,69.8z"/>
	<path class="st0" d="M108,102.8v8.1c0,0,12.4-7.4,12.4-10v-7.5C120.4,93.4,108.4,99.1,108,102.8z"/>
	<path class="st0" d="M108,86.3v8.1c0,0,12.4-7.4,12.4-10v-7.5C120.4,76.9,108.4,82.6,108,86.3z"/>
	<path class="st0" d="M90.3,60.3v7.5c0,2.6,12.4,10,12.4,10v-8.1v0C102.3,66.1,90.3,60.3,90.3,60.3z"/>
	<rect x="62.4" y="129.5" class="st0" width="5.3" height="74"/>
	<rect x="102.7" y="129.5" class="st0" width="5.3" height="74"/>
	<path class="st0" d="M108,119.3L108,119.3v8.1c0,0,12.4-7.4,12.4-10v-7.5C120.4,109.9,108.4,115.6,108,119.3z"/>
	<rect x="22.2" y="129.5" class="st0" width="5.3" height="74"/>
	<path class="st0" d="M27.5,102.8v8.1c0,0,12.4-7.4,12.4-10v-7.5C39.9,93.4,27.9,99.1,27.5,102.8z"/>
	<path class="st0" d="M50,100.9c0,2.6,12.4,10,12.4,10v-8.1C62,99.1,50,93.4,50,93.4V100.9z"/>
	<path class="st0" d="M9.7,100.9c0,2.6,12.4,10,12.4,10v-8.1c-0.4-3.7-12.4-9.5-12.4-9.5V100.9z"/>
	<path class="st0" d="M22.2,69.8L22.2,69.8c-0.4-3.7-12.4-9.5-12.4-9.5v7.5c0,2.6,12.4,10,12.4,10V69.8z"/>
	<path class="st0" d="M9.7,84.4c0,2.6,12.4,10,12.4,10v-8.1c-0.4-3.7-12.4-9.5-12.4-9.5V84.4z"/>
	<path class="st0" d="M27.5,119.3L27.5,119.3v8.1c0,0,12.4-7.4,12.4-10v-7.5C39.9,109.9,27.9,115.6,27.5,119.3z"/>
	<path class="st0" d="M27.5,86.3v8.1c0,0,12.4-7.4,12.4-10v-7.5C39.9,76.9,27.9,82.6,27.5,86.3z"/>
	<path class="st0" d="M50,84.4c0,2.6,12.4,10,12.4,10v-8.1C62,82.6,50,76.8,50,76.8V84.4z"/>
	<path class="st0" d="M62.4,69.8L62.4,69.8C62,66.1,50,60.3,50,60.3v7.5c0,2.6,12.4,10,12.4,10V69.8z"/>
	<path class="st0" d="M62.4,119.3L62.4,119.3c-0.4-3.7-12.4-9.5-12.4-9.5v7.5c0,2.6,12.4,10,12.4,10V119.3z"/>
	<path class="st0" d="M27.5,69.8L27.5,69.8v8.1c0,0,12.4-7.4,12.4-10v-7.5C39.9,60.3,27.9,66.1,27.5,69.8z"/>
	<path class="st0" d="M22.2,119.3L22.2,119.3c-0.4-3.7-12.4-9.5-12.4-9.5v7.5c0,2.6,12.4,10,12.4,10V119.3z"/>
	<path class="st0" d="M65.1,48.3c0,0,11.5-5.1,2.4-17.1L65.2,6.4l-2.3,24.5C53.4,43.1,65.1,48.3,65.1,48.3z"/>
	<path class="st0" d="M90.3,51.4c0,2.6,12.4,10,12.4,10v-8.1c-0.2-2.2-4.6-5.1-8.1-7.1l-6.9-21.6l2.5,20.6V51.4z"/>
	<path class="st0" d="M105.4,48.3L105.4,48.3c0,0,11.5-5.1,2.4-17.1l-2.3-24.8l-2.3,24.5C93.7,43.1,105.4,48.3,105.4,48.3z"/>
	<path class="st0" d="M108,53.3L108,53.3v8.1c0,0,12.4-7.4,12.4-10v-6.2l2.5-20.6l-6.9,21.6C112.6,48.2,108.2,51.1,108,53.3z"/>
	<path class="st0" d="M67.7,53.3L67.7,53.3v8.1c0,0,12.4-7.4,12.4-10v-6.2l2.5-20.6l-6.9,21.6C72.3,48.2,68,51.1,67.7,53.3z"/>
	<path class="st0" d="M50,51.4c0,2.6,12.4,10,12.4,10v-8.1c-0.2-2.2-4.6-5.1-8.1-7.1l-6.9-21.6L50,45.1V51.4z"/>
	<path class="st0" d="M24.8,48.3c0,0,11.5-5.1,2.4-17.1L24.9,6.4l-2.3,24.5C13.2,43.1,24.8,48.3,24.8,48.3z"/>
	<path class="st0" d="M9.7,51.4c0,2.6,12.4,10,12.4,10v-8.1v0c-0.2-2.2-4.6-5.1-8.1-7.1L7.2,24.5l2.5,20.6V51.4z"/>
	<path class="st0" d="M27.5,53.3L27.5,53.3v8.1c0,0,12.4-7.4,12.4-10v-6.2l2.5-20.6l-6.9,21.6C32.1,48.2,27.7,51.1,27.5,53.3z"/>
	<path class="st0" d="M185.9,48.3L185.9,48.3c0,0,11.5-5.1,2.4-17.1L186,6.4l-2.3,24.5C174.2,43.1,185.9,48.3,185.9,48.3z"/>
	<path class="st0" d="M170.8,51.4c0,2.6,12.4,10,12.4,10v-8.1c-0.2-2.2-4.6-5.1-8.1-7.1l-6.9-21.6l2.5,20.6V51.4z"/>
	<path class="st0" d="M188.5,53.3L188.5,53.3v8.1c0,0,12.4-7.4,12.4-10v-6.2l2.5-20.6l-6.9,21.6C193.1,48.2,188.8,51.1,188.5,53.3z"
		/>
	<path class="st0" d="M148.3,53.3L148.3,53.3v8.1c0,0,12.4-7.4,12.4-10v-6.2l2.5-20.6l-6.9,21.6C152.9,48.2,148.5,51.1,148.3,53.3z"
		/>
	<path class="st0" d="M145.6,48.3c0.1,0,11.4-5.2,2.4-17.1l-2.3-24.8l-2.3,24.5C134,43.1,145.6,48.3,145.6,48.3z"/>
	<path class="st0" d="M130.5,51.4c0,2.6,12.4,10,12.4,10v-8.1c-0.2-2.2-4.6-5.1-8.1-7.1L128,24.5l2.5,20.6V51.4z"/>
	<polygon class="st0" points="145.6,48.3 145.6,48.3 145.6,48.3 	"/>
	<path class="st0" d="M188.5,69.8L188.5,69.8v8.1c0,0,12.4-7.4,12.4-10v-7.5C201,60.3,189,66.1,188.5,69.8z"/>
	<path class="st0" d="M188.5,119.3L188.5,119.3v8.1c0,0,12.4-7.4,12.4-10v-7.5C201,109.9,188.9,115.6,188.5,119.3z"/>
	<path class="st0" d="M130.5,84.4c0,2.6,12.4,10,12.4,10v-8.1c-0.4-3.7-12.4-9.5-12.4-9.5V84.4z"/>
	<path class="st0" d="M130.5,100.9c0,2.6,12.4,10,12.4,10v-8.1c-0.4-3.7-12.4-9.5-12.4-9.5V100.9z"/>
	<path class="st0" d="M143,69.8L143,69.8c-0.4-3.7-12.4-9.5-12.4-9.5v7.5c0,2.6,12.4,10,12.4,10V69.8z"/>
	<path class="st0" d="M143,119.3L143,119.3c-0.4-3.7-12.4-9.5-12.4-9.5v7.5c0,2.6,12.4,10,12.4,10V119.3z"/>
	<path class="st0" d="M148.3,69.8L148.3,69.8v8.1c0,0,12.4-7.4,12.4-10v-7.5C160.7,60.3,148.7,66.1,148.3,69.8z"/>
	<path class="st0" d="M148.3,102.8v8.1c0,0,12.4-7.4,12.4-10v-7.5C160.7,93.4,148.7,99.1,148.3,102.8z"/>
	<rect x="143" y="129.5" class="st0" width="5.3" height="74"/>
	<path class="st0" d="M148.3,119.3L148.3,119.3v8.1c0,0,12.4-7.4,12.4-10v-7.5C160.7,109.9,148.7,115.6,148.3,119.3z"/>
	<path class="st0" d="M183.2,119.3L183.2,119.3c-0.4-3.7-12.4-9.5-12.4-9.5v7.5c0,2.6,12.4,10,12.4,10V119.3z"/>
	<path class="st0" d="M148.3,86.3v8.1c0,0,12.4-7.4,12.4-10v-7.5C160.7,76.9,148.7,82.6,148.3,86.3z"/>
	<path class="st0" d="M188.5,102.8v8.1c0,0,12.4-7.4,12.4-10v-7.5C201,93.4,188.9,99.1,188.5,102.8z"/>
	<path class="st0" d="M188.5,86.3v8.1c0,0,12.4-7.4,12.4-10v-7.5C201,76.9,188.9,82.6,188.5,86.3z"/>
	<rect x="183.2" y="129.5" class="st0" width="5.3" height="74"/>
	<path class="st0" d="M170.8,84.4c0,2.6,12.4,10,12.4,10v-8.1c-0.4-3.7-12.4-9.5-12.4-9.5V84.4z"/>
	<path class="st0" d="M183.2,69.8L183.2,69.8c-0.4-3.7-12.4-9.5-12.4-9.5v7.5c0,2.6,12.4,10,12.4,10V69.8z"/>
	<path class="st0" d="M170.8,100.9c0,2.6,12.4,10,12.4,10v-8.1c-0.4-3.7-12.4-9.5-12.4-9.5V100.9z"/>
	<path class="st0" d="M0,0v210h210V0H0z M209,209H1V1h208V209z"/>
</g>
</svg>
