<svg width="25" height="25" viewBox="0 0 25 25" fill="none" xmlns="http://www.w3.org/2000/svg">
<g clip-path="url(#clip0_1364_184797)">
<path d="M25 0H0V25H25V0Z" fill="#89E26A"/>
<mask id="path-2-inside-1_1364_184797" fill="white">
<path d="M5.75977 12.7321H6.55715V19.5118H5.75977V12.7321Z"/>
</mask>
<path d="M5.75977 12.7321H6.55715V19.5118H5.75977V12.7321Z" fill="#181F1C"/>
<path d="M5.75977 12.7321V11.7321H4.75977V12.7321H5.75977ZM6.55715 12.7321H7.55715V11.7321H6.55715V12.7321ZM6.55715 19.5118V20.5118H7.55715V19.5118H6.55715ZM5.75977 19.5118H4.75977V20.5118H5.75977V19.5118ZM5.75977 13.7321H6.55715V11.7321H5.75977V13.7321ZM5.55715 12.7321V19.5118H7.55715V12.7321H5.55715ZM6.55715 18.5118H5.75977V20.5118H6.55715V18.5118ZM6.75977 19.5118V12.7321H4.75977V19.5118H6.75977Z" fill="#181F1C" mask="url(#path-2-inside-1_1364_184797)"/>
<mask id="path-4-inside-2_1364_184797" fill="white">
<path d="M4.16431 12.7321H4.95978V19.5118H4.16431V12.7321Z"/>
</mask>
<path d="M4.16431 12.7321H4.95978V19.5118H4.16431V12.7321Z" fill="#181F1C"/>
<path d="M4.16431 12.7321V11.7321H3.16431V12.7321H4.16431ZM4.95978 12.7321H5.95978V11.7321H4.95978V12.7321ZM4.95978 19.5118V20.5118H5.95978V19.5118H4.95978ZM4.16431 19.5118H3.16431V20.5118H4.16431V19.5118ZM4.16431 13.7321H4.95978V11.7321H4.16431V13.7321ZM3.95978 12.7321V19.5118H5.95978V12.7321H3.95978ZM4.95978 18.5118H4.16431V20.5118H4.95978V18.5118ZM5.16431 19.5118V12.7321H3.16431V19.5118H5.16431Z" fill="#181F1C" mask="url(#path-4-inside-2_1364_184797)"/>
<mask id="path-6-inside-3_1364_184797" fill="white">
<path d="M8.94989 12.7321H9.74727V19.5118H8.94989V12.7321Z"/>
</mask>
<path d="M8.94989 12.7321H9.74727V19.5118H8.94989V12.7321Z" fill="#181F1C"/>
<path d="M8.94989 12.7321V11.7321H7.94989V12.7321H8.94989ZM9.74727 12.7321H10.7473V11.7321H9.74727V12.7321ZM9.74727 19.5118V20.5118H10.7473V19.5118H9.74727ZM8.94989 19.5118H7.94989V20.5118H8.94989V19.5118ZM8.94989 13.7321H9.74727V11.7321H8.94989V13.7321ZM8.74727 12.7321V19.5118H10.7473V12.7321H8.74727ZM9.74727 18.5118H8.94989V20.5118H9.74727V18.5118ZM9.94989 19.5118V12.7321H7.94989V19.5118H9.94989Z" fill="#181F1C" mask="url(#path-6-inside-3_1364_184797)"/>
<mask id="path-8-inside-4_1364_184797" fill="white">
<path d="M10.5453 12.7321H11.3427V19.5118H10.5453V12.7321Z"/>
</mask>
<path d="M10.5453 12.7321H11.3427V19.5118H10.5453V12.7321Z" fill="#181F1C"/>
<path d="M10.5453 12.7321V11.7321H9.54535V12.7321H10.5453ZM11.3427 12.7321H12.3427V11.7321H11.3427V12.7321ZM11.3427 19.5118V20.5118H12.3427V19.5118H11.3427ZM10.5453 19.5118H9.54535V20.5118H10.5453V19.5118ZM10.5453 13.7321H11.3427V11.7321H10.5453V13.7321ZM10.3427 12.7321V19.5118H12.3427V12.7321H10.3427ZM11.3427 18.5118H10.5453V20.5118H11.3427V18.5118ZM11.5453 19.5118V12.7321H9.54535V19.5118H11.5453Z" fill="#181F1C" mask="url(#path-8-inside-4_1364_184797)"/>
<mask id="path-10-inside-5_1364_184797" fill="white">
<path d="M13.7349 12.7321H14.5329V19.5118H13.7349V12.7321Z"/>
</mask>
<path d="M13.7349 12.7321H14.5329V19.5118H13.7349V12.7321Z" fill="#181F1C"/>
<path d="M13.7349 12.7321V11.7321H12.7349V12.7321H13.7349ZM14.5329 12.7321H15.5329V11.7321H14.5329V12.7321ZM14.5329 19.5118V20.5118H15.5329V19.5118H14.5329ZM13.7349 19.5118H12.7349V20.5118H13.7349V19.5118ZM13.7349 13.7321H14.5329V11.7321H13.7349V13.7321ZM13.5329 12.7321V19.5118H15.5329V12.7321H13.5329ZM14.5329 18.5118H13.7349V20.5118H14.5329V18.5118ZM14.7349 19.5118V12.7321H12.7349V19.5118H14.7349Z" fill="#181F1C" mask="url(#path-10-inside-5_1364_184797)"/>
<mask id="path-12-inside-6_1364_184797" fill="white">
<path d="M12.1407 12.7321H12.9381V19.5118H12.1407V12.7321Z"/>
</mask>
<path d="M12.1407 12.7321H12.9381V19.5118H12.1407V12.7321Z" fill="#181F1C"/>
<path d="M12.1407 12.7321V11.7321H11.1407V12.7321H12.1407ZM12.9381 12.7321H13.9381V11.7321H12.9381V12.7321ZM12.9381 19.5118V20.5118H13.9381V19.5118H12.9381ZM12.1407 19.5118H11.1407V20.5118H12.1407V19.5118ZM12.1407 13.7321H12.9381V11.7321H12.1407V13.7321ZM11.9381 12.7321V19.5118H13.9381V12.7321H11.9381ZM12.9381 18.5118H12.1407V20.5118H12.9381V18.5118ZM13.1407 19.5118V12.7321H11.1407V19.5118H13.1407Z" fill="#181F1C" mask="url(#path-12-inside-6_1364_184797)"/>
<mask id="path-14-inside-7_1364_184797" fill="white">
<path d="M15.3309 12.7321H16.1283V19.5118H15.3309V12.7321Z"/>
</mask>
<path d="M15.3309 12.7321H16.1283V19.5118H15.3309V12.7321Z" fill="#181F1C"/>
<path d="M15.3309 12.7321V11.7321H14.3309V12.7321H15.3309ZM16.1283 12.7321H17.1283V11.7321H16.1283V12.7321ZM16.1283 19.5118V20.5118H17.1283V19.5118H16.1283ZM15.3309 19.5118H14.3309V20.5118H15.3309V19.5118ZM15.3309 13.7321H16.1283V11.7321H15.3309V13.7321ZM15.1283 12.7321V19.5118H17.1283V12.7321H15.1283ZM16.1283 18.5118H15.3309V20.5118H16.1283V18.5118ZM16.3309 19.5118V12.7321H14.3309V19.5118H16.3309Z" fill="#181F1C" mask="url(#path-14-inside-7_1364_184797)"/>
<mask id="path-16-inside-8_1364_184797" fill="white">
<path d="M14.9322 11.9341C14.8265 11.9341 14.7251 11.9761 14.6503 12.0509C14.5755 12.1256 14.5335 12.227 14.5335 12.3328V12.7321H15.3309V12.336C15.3307 12.2303 15.2887 12.129 15.2139 12.0542C15.1392 11.9795 15.0379 11.9374 14.9322 11.9373V11.9341Z"/>
</mask>
<path d="M14.9322 11.9341C14.8265 11.9341 14.7251 11.9761 14.6503 12.0509C14.5755 12.1256 14.5335 12.227 14.5335 12.3328V12.7321H15.3309V12.336C15.3307 12.2303 15.2887 12.129 15.2139 12.0542C15.1392 11.9795 15.0379 11.9374 14.9322 11.9373V11.9341Z" fill="#181F1C"/>
<path d="M14.9322 11.9341H15.9322V10.9341L14.9322 10.9341L14.9322 11.9341ZM14.5335 12.3328L15.5335 12.3328L14.5335 12.3328ZM14.5335 12.7321H13.5335V13.7321H14.5335V12.7321ZM15.3309 12.7321V13.7321H16.3309V12.7321H15.3309ZM15.3309 12.336L16.3309 12.336L16.3309 12.3344L15.3309 12.336ZM14.9322 11.9373H13.9322V12.9357L14.9306 12.9373L14.9322 11.9373ZM14.9322 10.9341C14.5612 10.9341 14.2055 11.0814 13.9432 11.3437L15.3574 12.758C15.2446 12.8707 15.0917 12.9341 14.9322 12.9341L14.9322 10.9341ZM13.9432 11.3437C13.6809 11.6061 13.5335 11.9618 13.5335 12.3328L15.5335 12.3328C15.5335 12.4923 15.4702 12.6452 15.3574 12.758L13.9432 11.3437ZM13.5335 12.3328V12.7321H15.5335V12.3328H13.5335ZM14.5335 13.7321H15.3309V11.7321H14.5335V13.7321ZM16.3309 12.7321V12.336H14.3309V12.7321H16.3309ZM16.3309 12.3344C16.3303 11.964 16.1829 11.609 15.921 11.3471L14.5068 12.7613C14.3944 12.6489 14.3311 12.4965 14.3309 12.3375L16.3309 12.3344ZM15.921 11.3471C15.6592 11.0852 15.3042 10.9379 14.9338 10.9373L14.9306 12.9373C14.7716 12.937 14.6192 12.8737 14.5068 12.7613L15.921 11.3471ZM15.9322 11.9373V11.9341H13.9322V11.9373H15.9322Z" fill="#181F1C" mask="url(#path-16-inside-8_1364_184797)"/>
<mask id="path-18-inside-9_1364_184797" fill="white">
<path d="M11.7414 11.9341C11.6357 11.9341 11.5343 11.9761 11.4595 12.0509C11.3847 12.1256 11.3427 12.227 11.3427 12.3328V12.7321H12.1407V12.336C12.1406 12.2302 12.0984 12.1287 12.0235 12.054C11.9487 11.9792 11.8472 11.9373 11.7414 11.9373V11.9341Z"/>
</mask>
<path d="M11.7414 11.9341C11.6357 11.9341 11.5343 11.9761 11.4595 12.0509C11.3847 12.1256 11.3427 12.227 11.3427 12.3328V12.7321H12.1407V12.336C12.1406 12.2302 12.0984 12.1287 12.0235 12.054C11.9487 11.9792 11.8472 11.9373 11.7414 11.9373V11.9341Z" fill="#181F1C"/>
<path d="M11.7414 11.9341H12.7414V10.9341L11.7414 10.9341L11.7414 11.9341ZM11.3427 12.3328L12.3427 12.3328L11.3427 12.3328ZM11.3427 12.7321H10.3427V13.7321H11.3427V12.7321ZM12.1407 12.7321V13.7321H13.1407V12.7321H12.1407ZM12.1407 12.336L13.1407 12.336L13.1407 12.3344L12.1407 12.336ZM11.7414 11.9373H10.7414V12.9373L11.7414 12.9373L11.7414 11.9373ZM11.7414 10.9341C11.3704 10.9341 11.0147 11.0814 10.7524 11.3437L12.1666 12.758C12.0538 12.8707 11.9009 12.9341 11.7414 12.9341L11.7414 10.9341ZM10.7524 11.3437C10.4901 11.6061 10.3427 11.9618 10.3427 12.3328L12.3427 12.3328C12.3427 12.4923 12.2794 12.6452 12.1666 12.758L10.7524 11.3437ZM10.3427 12.3328V12.7321H12.3427V12.3328H10.3427ZM11.3427 13.7321H12.1407V11.7321H11.3427V13.7321ZM13.1407 12.7321V12.336H11.1407V12.7321H13.1407ZM13.1407 12.3344C13.1401 11.9636 12.9925 11.6083 12.7301 11.3463L11.317 12.7617C11.2044 12.6492 11.141 12.4967 11.1407 12.3375L13.1407 12.3344ZM12.7301 11.3463C12.4677 11.0844 12.1121 10.9373 11.7414 10.9373L11.7414 12.9373C11.5823 12.9373 11.4296 12.8741 11.317 12.7617L12.7301 11.3463ZM12.7414 11.9373V11.9341H10.7414V11.9373H12.7414Z" fill="#181F1C" mask="url(#path-18-inside-9_1364_184797)"/>
<mask id="path-20-inside-10_1364_184797" fill="white">
<path d="M10.1466 11.9341C10.0408 11.9341 9.93937 11.9761 9.8645 12.0508C9.78963 12.1256 9.74748 12.227 9.74731 12.3328V12.7321H10.5453V12.336C10.5452 12.2303 10.5031 12.129 10.4284 12.0542C10.3536 11.9795 10.2523 11.9374 10.1466 11.9373V11.9341Z"/>
</mask>
<path d="M10.1466 11.9341C10.0408 11.9341 9.93937 11.9761 9.8645 12.0508C9.78963 12.1256 9.74748 12.227 9.74731 12.3328V12.7321H10.5453V12.336C10.5452 12.2303 10.5031 12.129 10.4284 12.0542C10.3536 11.9795 10.2523 11.9374 10.1466 11.9373V11.9341Z" fill="#181F1C"/>
<path d="M10.1466 11.9341H11.1466V10.9341L10.1466 10.9341L10.1466 11.9341ZM9.74731 12.3328L8.74731 12.3312V12.3328H9.74731ZM9.74731 12.7321H8.74731V13.7321H9.74731V12.7321ZM10.5453 12.7321V13.7321H11.5453V12.7321H10.5453ZM10.5453 12.336L11.5453 12.336L11.5453 12.3344L10.5453 12.336ZM10.1466 11.9373H9.14664V12.9357L10.1451 12.9373L10.1466 11.9373ZM10.1466 10.9341C9.7759 10.9341 9.42031 11.0812 9.15796 11.3431L10.571 12.7585C10.4584 12.8709 10.3058 12.9341 10.1466 12.9341L10.1466 10.9341ZM9.15796 11.3431C8.8956 11.6051 8.74791 11.9604 8.74732 12.3312L10.7473 12.3344C10.7471 12.4935 10.6837 12.6461 10.571 12.7585L9.15796 11.3431ZM8.74731 12.3328V12.7321H10.7473V12.3328H8.74731ZM9.74731 13.7321H10.5453V11.7321H9.74731V13.7321ZM11.5453 12.7321V12.336H9.54534V12.7321H11.5453ZM11.5453 12.3344C11.5447 11.964 11.3974 11.609 11.1355 11.3471L9.72127 12.7613C9.60885 12.6489 9.54559 12.4965 9.54534 12.3375L11.5453 12.3344ZM11.1355 11.3471C10.8736 11.0852 10.5186 10.9379 10.1482 10.9373L10.1451 12.9373C9.98607 12.937 9.83368 12.8737 9.72127 12.7613L11.1355 11.3471ZM11.1466 11.9373V11.9341H9.14664V11.9373H11.1466Z" fill="#181F1C" mask="url(#path-20-inside-10_1364_184797)"/>
<mask id="path-22-inside-11_1364_184797" fill="white">
<path d="M13.3368 11.9341C13.2844 11.9341 13.2326 11.9444 13.1842 11.9644C13.1359 11.9845 13.0919 12.0138 13.0549 12.0509C13.0179 12.0879 12.9885 12.1318 12.9685 12.1802C12.9484 12.2286 12.9381 12.2804 12.9381 12.3328V12.7321H13.7349V12.336C13.7349 12.2836 13.7245 12.2318 13.7045 12.1834C13.6845 12.135 13.6551 12.0911 13.6181 12.054C13.5811 12.017 13.5371 11.9876 13.4887 11.9676C13.4404 11.9476 13.3885 11.9373 13.3362 11.9373L13.3368 11.9341Z"/>
</mask>
<path d="M13.3368 11.9341C13.2844 11.9341 13.2326 11.9444 13.1842 11.9644C13.1359 11.9845 13.0919 12.0138 13.0549 12.0509C13.0179 12.0879 12.9885 12.1318 12.9685 12.1802C12.9484 12.2286 12.9381 12.2804 12.9381 12.3328V12.7321H13.7349V12.336C13.7349 12.2836 13.7245 12.2318 13.7045 12.1834C13.6845 12.135 13.6551 12.0911 13.6181 12.054C13.5811 12.017 13.5371 11.9876 13.4887 11.9676C13.4404 11.9476 13.3885 11.9373 13.3362 11.9373L13.3368 11.9341Z" fill="#181F1C"/>
<path d="M13.3368 11.9341L14.3173 12.1304L14.5568 10.9341H13.3368V11.9341ZM12.9381 12.3328H11.9381H12.9381ZM12.9381 12.7321H11.9381V13.7321H12.9381V12.7321ZM13.7349 12.7321V13.7321H14.7349V12.7321H13.7349ZM13.7349 12.336L14.7349 12.336L13.7349 12.336ZM13.3362 11.9373L12.3556 11.741L12.1161 12.9373L13.3362 12.9373L13.3362 11.9373ZM13.3368 10.9341C13.1531 10.9341 12.9712 10.9703 12.8015 11.0406L13.5669 12.8883C13.494 12.9185 13.4158 12.9341 13.3368 12.9341V10.9341ZM12.8015 11.0406C12.6319 11.1108 12.4777 11.2139 12.3478 11.3437L13.762 12.758C13.7062 12.8138 13.6399 12.8581 13.5669 12.8883L12.8015 11.0406ZM12.3478 11.3437C12.2179 11.4736 12.1149 11.6278 12.0446 11.7975L13.8923 12.5629C13.8621 12.6358 13.8178 12.7021 13.762 12.758L12.3478 11.3437ZM12.0446 11.7975C11.9743 11.9672 11.9381 12.1491 11.9381 12.3328L13.9381 12.3328C13.9381 12.4117 13.9226 12.4899 13.8923 12.5629L12.0446 11.7975ZM11.9381 12.3328V12.7321H13.9381V12.3328H11.9381ZM12.9381 13.7321H13.7349V11.7321H12.9381V13.7321ZM14.7349 12.7321V12.336H12.7349V12.7321H14.7349ZM14.7349 12.336C14.7349 12.1523 14.6987 11.9704 14.6284 11.8007L12.7806 12.5661C12.7504 12.4931 12.7349 12.4149 12.7349 12.336L14.7349 12.336ZM14.6284 11.8007C14.5581 11.631 14.4551 11.4768 14.3252 11.3469L12.911 12.7611C12.8551 12.7053 12.8108 12.639 12.7806 12.5661L14.6284 11.8007ZM14.3252 11.3469C14.1953 11.217 14.0411 11.114 13.8714 11.0437L13.1061 12.8915C13.0331 12.8613 12.9668 12.817 12.911 12.7611L14.3252 11.3469ZM13.8714 11.0437C13.7017 10.9734 13.5198 10.9373 13.3362 10.9373L13.3362 12.9373C13.2572 12.9373 13.179 12.9217 13.1061 12.8915L13.8714 11.0437ZM14.3167 12.1336L14.3173 12.1304L12.3563 11.7378L12.3556 11.741L14.3167 12.1336Z" fill="#181F1C" mask="url(#path-22-inside-11_1364_184797)"/>
<mask id="path-24-inside-12_1364_184797" fill="white">
<path d="M8.55122 11.9341C8.44548 11.9341 8.34407 11.9761 8.2693 12.0509C8.19453 12.1256 8.15253 12.227 8.15253 12.3328V12.7321H8.94991V12.336C8.94974 12.2303 8.90769 12.129 8.83295 12.0542C8.75822 11.9795 8.65691 11.9374 8.55122 11.9373V11.9341Z"/>
</mask>
<path d="M8.55122 11.9341C8.44548 11.9341 8.34407 11.9761 8.2693 12.0509C8.19453 12.1256 8.15253 12.227 8.15253 12.3328V12.7321H8.94991V12.336C8.94974 12.2303 8.90769 12.129 8.83295 12.0542C8.75822 11.9795 8.65691 11.9374 8.55122 11.9373V11.9341Z" fill="#181F1C"/>
<path d="M8.55122 11.9341H9.55122V10.9341L8.55122 10.9341L8.55122 11.9341ZM8.15253 12.3328L9.15253 12.3328L8.15253 12.3328ZM8.15253 12.7321H7.15253V13.7321H8.15253V12.7321ZM8.94991 12.7321V13.7321H9.94991V12.7321H8.94991ZM8.94991 12.336L9.94991 12.336L9.94991 12.3344L8.94991 12.336ZM8.55122 11.9373H7.55122V12.9357L8.54963 12.9373L8.55122 11.9373ZM8.55122 10.9341C8.18026 10.9341 7.8245 11.0814 7.56219 11.3437L8.97641 12.758C8.86364 12.8707 8.7107 12.9341 8.55122 12.9341L8.55122 10.9341ZM7.56219 11.3437C7.29989 11.6061 7.15253 11.9618 7.15253 12.3328L9.15253 12.3328C9.15253 12.4923 9.08918 12.6452 8.97641 12.758L7.56219 11.3437ZM7.15253 12.3328V12.7321H9.15253V12.3328H7.15253ZM8.15253 13.7321H8.94991V11.7321H8.15253V13.7321ZM9.94991 12.7321V12.336H7.94991V12.7321H9.94991ZM9.94991 12.3344C9.94932 11.964 9.80194 11.609 9.54006 11.3471L8.12585 12.7613C8.01343 12.6489 7.95017 12.4965 7.94991 12.3375L9.94991 12.3344ZM9.54006 11.3471C9.27818 11.0852 8.92317 10.9379 8.55281 10.9373L8.54963 12.9373C8.39065 12.937 8.23826 12.8737 8.12585 12.7613L9.54006 11.3471ZM9.55122 11.9373V11.9341H7.55122V11.9373H9.55122Z" fill="#181F1C" mask="url(#path-24-inside-12_1364_184797)"/>
<mask id="path-26-inside-13_1364_184797" fill="white">
<path d="M6.95582 11.9341C6.85008 11.9341 6.74867 11.9761 6.6739 12.0509C6.59913 12.1256 6.55713 12.227 6.55713 12.3328V12.7321H7.35451V12.336C7.35451 12.2836 7.3442 12.2318 7.32417 12.1834C7.30413 12.135 7.27476 12.0911 7.23774 12.054C7.20072 12.017 7.15677 11.9876 7.10839 11.9676C7.06002 11.9476 7.00818 11.9373 6.95582 11.9373V11.9341Z"/>
</mask>
<path d="M6.95582 11.9341C6.85008 11.9341 6.74867 11.9761 6.6739 12.0509C6.59913 12.1256 6.55713 12.227 6.55713 12.3328V12.7321H7.35451V12.336C7.35451 12.2836 7.3442 12.2318 7.32417 12.1834C7.30413 12.135 7.27476 12.0911 7.23774 12.054C7.20072 12.017 7.15677 11.9876 7.10839 11.9676C7.06002 11.9476 7.00818 11.9373 6.95582 11.9373V11.9341Z" fill="#181F1C"/>
<path d="M6.95582 11.9341H7.95582V10.9341L6.95582 10.9341L6.95582 11.9341ZM6.55713 12.7321H5.55713V13.7321H6.55713V12.7321ZM7.35451 12.7321V13.7321H8.35451V12.7321H7.35451ZM6.95582 11.9373H5.95582V12.9373L6.95582 12.9373L6.95582 11.9373ZM6.95582 10.9341C6.58486 10.9341 6.2291 11.0814 5.9668 11.3437L7.38101 12.758C7.26824 12.8707 7.1153 12.9341 6.95582 12.9341L6.95582 10.9341ZM5.9668 11.3437C5.70449 11.6061 5.55713 11.9618 5.55713 12.3328H7.55713C7.55713 12.4923 7.49378 12.6452 7.38101 12.758L5.9668 11.3437ZM5.55713 12.3328V12.7321H7.55713V12.3328H5.55713ZM6.55713 13.7321H7.35451V11.7321H6.55713V13.7321ZM8.35451 12.7321V12.336H6.35451V12.7321H8.35451ZM8.35451 12.336C8.35451 12.1523 8.31833 11.9704 8.24804 11.8007L6.40029 12.5661C6.37007 12.4931 6.35451 12.4149 6.35451 12.336H8.35451ZM8.24804 11.8007C8.17775 11.631 8.07473 11.4768 7.94485 11.3469L6.53063 12.7611C6.47479 12.7053 6.4305 12.639 6.40029 12.5661L8.24804 11.8007ZM7.94485 11.3469C7.81496 11.217 7.66077 11.114 7.49108 11.0437L6.72571 12.8915C6.65276 12.8613 6.58647 12.817 6.53063 12.7611L7.94485 11.3469ZM7.49108 11.0437C7.32138 10.9734 7.1395 10.9373 6.95582 10.9373L6.95582 12.9373C6.87685 12.9373 6.79866 12.9217 6.72571 12.8915L7.49108 11.0437ZM7.95582 11.9373V11.9341H5.95582V11.9373H7.95582Z" fill="#181F1C" mask="url(#path-26-inside-13_1364_184797)"/>
<path d="M5.45979 12.3364V12.7353H5.75972V12.336M5.45979 12.3364L5.36039 12.2353H5.46154H5.74666C5.75521 12.2679 5.75967 12.3017 5.75972 12.336M5.45979 12.3364L5.75972 12.336M5.45979 12.3364L5.35846 12.336H5.35978H5.36039H5.36103H5.36166H5.36626H5.45973C5.45977 12.3346 5.45979 12.3333 5.45977 12.332L5.45981 12.336H5.75972M4.95979 12.4373V12.7353H5.25972V12.4373L4.95979 12.4373ZM5.35844 12.3385L5.35845 12.3366L5.36005 12.3366L5.36039 12.3366H5.36039L5.3623 12.3366L5.36779 12.3366L5.45971 12.3364C5.45928 12.3483 5.45676 12.3601 5.45225 12.3711C5.44718 12.3835 5.43969 12.3948 5.43022 12.4043C5.42075 12.4138 5.40949 12.4213 5.39709 12.4264C5.38543 12.4312 5.37299 12.4338 5.36039 12.4341C5.35959 12.4341 5.35879 12.4341 5.35798 12.4341L5.35844 12.3385Z" fill="#181F1C" stroke="#181F1C"/>
<mask id="path-29-inside-14_1364_184797" fill="white">
<path d="M7.35449 12.7321H8.15251V19.5118H7.35449V12.7321Z"/>
</mask>
<path d="M7.35449 12.7321H8.15251V19.5118H7.35449V12.7321Z" fill="#181F1C"/>
<path d="M7.35449 12.7321V11.7321H6.35449V12.7321H7.35449ZM8.15251 12.7321H9.15251V11.7321H8.15251V12.7321ZM8.15251 19.5118V20.5118H9.15251V19.5118H8.15251ZM7.35449 19.5118H6.35449V20.5118H7.35449V19.5118ZM7.35449 13.7321H8.15251V11.7321H7.35449V13.7321ZM7.15251 12.7321V19.5118H9.15251V12.7321H7.15251ZM8.15251 18.5118H7.35449V20.5118H8.15251V18.5118ZM8.35449 19.5118V12.7321H6.35449V19.5118H8.35449Z" fill="#181F1C" mask="url(#path-29-inside-14_1364_184797)"/>
<mask id="path-31-inside-15_1364_184797" fill="white">
<path d="M7.23563 21.2178C6.92027 21.2179 6.61215 21.3123 6.35094 21.489C6.08972 21.6657 5.88737 21.9165 5.76994 22.2092C5.69515 22.3968 5.65757 22.5972 5.6593 22.7993C5.65942 23.1119 5.75227 23.4175 5.92611 23.6774C6.09994 23.9373 6.34694 24.1399 6.63587 24.2594C6.92481 24.3789 7.2427 24.41 7.54933 24.3489C7.85597 24.2877 8.13757 24.137 8.35853 23.9157C8.5795 23.6945 8.72989 23.4127 8.79069 23.106C8.85149 22.7993 8.81996 22.4814 8.7001 22.1926C8.58024 21.9039 8.37743 21.6571 8.11732 21.4836C7.85721 21.3101 7.55148 21.2176 7.23881 21.2178H7.23563ZM7.23563 23.2425C7.14759 23.2425 7.06154 23.2164 6.98834 23.1674C6.91514 23.1185 6.85809 23.049 6.8244 22.9677C6.79071 22.8863 6.78189 22.7968 6.79907 22.7105C6.81624 22.6242 6.85864 22.5449 6.92089 22.4826C6.98314 22.4204 7.06245 22.378 7.14879 22.3608C7.23513 22.3436 7.32463 22.3524 7.40596 22.3861C7.4873 22.4198 7.55682 22.4769 7.60572 22.5501C7.65463 22.6233 7.68074 22.7093 7.68074 22.7973C7.68074 22.9153 7.63393 23.0284 7.55059 23.1119C7.46726 23.1953 7.3542 23.2423 7.23626 23.2425H7.23563Z"/>
</mask>
<path d="M7.23563 21.2178C6.92027 21.2179 6.61215 21.3123 6.35094 21.489C6.08972 21.6657 5.88737 21.9165 5.76994 22.2092C5.69515 22.3968 5.65757 22.5972 5.6593 22.7993C5.65942 23.1119 5.75227 23.4175 5.92611 23.6774C6.09994 23.9373 6.34694 24.1399 6.63587 24.2594C6.92481 24.3789 7.2427 24.41 7.54933 24.3489C7.85597 24.2877 8.13757 24.137 8.35853 23.9157C8.5795 23.6945 8.72989 23.4127 8.79069 23.106C8.85149 22.7993 8.81996 22.4814 8.7001 22.1926C8.58024 21.9039 8.37743 21.6571 8.11732 21.4836C7.85721 21.3101 7.55148 21.2176 7.23881 21.2178H7.23563ZM7.23563 23.2425C7.14759 23.2425 7.06154 23.2164 6.98834 23.1674C6.91514 23.1185 6.85809 23.049 6.8244 22.9677C6.79071 22.8863 6.78189 22.7968 6.79907 22.7105C6.81624 22.6242 6.85864 22.5449 6.92089 22.4826C6.98314 22.4204 7.06245 22.378 7.14879 22.3608C7.23513 22.3436 7.32463 22.3524 7.40596 22.3861C7.4873 22.4198 7.55682 22.4769 7.60572 22.5501C7.65463 22.6233 7.68074 22.7093 7.68074 22.7973C7.68074 22.9153 7.63393 23.0284 7.55059 23.1119C7.46726 23.1953 7.3542 23.2423 7.23626 23.2425H7.23563Z" fill="#181F1C"/>
<path d="M7.23563 21.2178L7.23563 20.2178L7.23549 20.2178L7.23563 21.2178ZM5.76994 22.2092L4.84186 21.8368L4.841 21.8389L5.76994 22.2092ZM5.6593 22.7993L6.65933 22.7988L6.65926 22.7907L5.6593 22.7993ZM7.23881 21.2178L7.23881 22.2178L7.23961 22.2178L7.23881 21.2178ZM7.23563 23.2425L7.23563 22.2425L7.23563 23.2425ZM7.68074 22.7973L6.68074 22.7973L6.68074 22.7973L7.68074 22.7973ZM7.23626 23.2425L7.23626 24.2425L7.23769 24.2425L7.23626 23.2425ZM7.23549 20.2178C6.72048 20.2179 6.21729 20.3721 5.79069 20.6607L6.91118 22.3173C7.00702 22.2525 7.12007 22.2179 7.23577 22.2178L7.23549 20.2178ZM5.79069 20.6607C5.3641 20.9492 5.03364 21.3588 4.84186 21.8368L6.69802 22.5815C6.7411 22.4742 6.81534 22.3821 6.91118 22.3173L5.79069 20.6607ZM4.841 21.8389C4.7182 22.1471 4.6565 22.4761 4.65933 22.8078L6.65926 22.7907C6.65864 22.7184 6.6721 22.6466 6.69888 22.5794L4.841 21.8389ZM4.6593 22.7997C4.6595 23.3101 4.81109 23.8091 5.09489 24.2334L6.75732 23.1215C6.69346 23.026 6.65934 22.9137 6.6593 22.7988L4.6593 22.7997ZM5.09489 24.2334C5.37868 24.6577 5.78194 24.9883 6.25366 25.1834L7.01809 23.3353C6.91194 23.2914 6.82119 23.217 6.75732 23.1215L5.09489 24.2334ZM6.25366 25.1834C6.72537 25.3786 7.24436 25.4294 7.74496 25.3295L7.3537 23.3682C7.24104 23.3906 7.12425 23.3792 7.01809 23.3353L6.25366 25.1834ZM7.74496 25.3295C8.24557 25.2297 8.70532 24.9836 9.06607 24.6224L7.651 23.209C7.56982 23.2903 7.46636 23.3457 7.3537 23.3682L7.74496 25.3295ZM9.06607 24.6224C9.42681 24.2612 9.67234 23.8012 9.7716 23.3004L7.80977 22.9115C7.78744 23.0242 7.73218 23.1278 7.651 23.209L9.06607 24.6224ZM9.7716 23.3004C9.87086 22.7997 9.8194 22.2808 9.62371 21.8093L7.77649 22.576C7.82053 22.6821 7.83211 22.7989 7.80977 22.9115L9.7716 23.3004ZM9.62371 21.8093C9.42803 21.3378 9.09692 20.935 8.67227 20.6517L7.56238 22.3155C7.65795 22.3792 7.73246 22.4699 7.77649 22.576L9.62371 21.8093ZM8.67227 20.6517C8.24761 20.3684 7.74848 20.2174 7.238 20.2178L7.23961 22.2178C7.35449 22.2177 7.46681 22.2517 7.56238 22.3155L8.67227 20.6517ZM7.23881 20.2178H7.23563V22.2178H7.23881V20.2178ZM7.23563 22.2425C7.34536 22.2425 7.45265 22.275 7.54391 22.336L6.43277 23.9989C6.67042 24.1577 6.94982 24.2425 7.23563 24.2425L7.23563 22.2425ZM7.54391 22.336C7.63516 22.3969 7.70628 22.4836 7.74828 22.585L5.90052 23.3504C6.0099 23.6144 6.19512 23.8401 6.43277 23.9989L7.54391 22.336ZM7.74828 22.585C7.79028 22.6864 7.80127 22.798 7.77985 22.9056L5.81828 22.5154C5.76252 22.7957 5.79114 23.0863 5.90052 23.3504L7.74828 22.585ZM7.77985 22.9056C7.75844 23.0132 7.70559 23.1121 7.62799 23.1897L6.21378 21.7755C6.01168 21.9776 5.87404 22.2351 5.81828 22.5154L7.77985 22.9056ZM7.62799 23.1897C7.55039 23.2673 7.45152 23.3202 7.34388 23.3416L6.9537 21.38C6.67338 21.4358 6.41589 21.5734 6.21378 21.7755L7.62799 23.1897ZM7.34388 23.3416C7.23624 23.363 7.12467 23.352 7.02328 23.31L7.78865 21.4622C7.52459 21.3529 7.23403 21.3242 6.9537 21.38L7.34388 23.3416ZM7.02328 23.31C6.92189 23.268 6.83523 23.1969 6.77426 23.1056L8.43719 21.9945C8.2784 21.7568 8.0527 21.5716 7.78865 21.4622L7.02328 23.31ZM6.77426 23.1056C6.71328 23.0144 6.68074 22.9071 6.68074 22.7973L8.68074 22.7973C8.68074 22.5115 8.59598 22.2321 8.43719 21.9945L6.77426 23.1056ZM6.68074 22.7973C6.68074 22.6503 6.73909 22.5093 6.84298 22.4053L8.25821 23.8185C8.52877 23.5475 8.68074 23.1803 8.68074 22.7973L6.68074 22.7973ZM6.84298 22.4053C6.94688 22.3012 7.08781 22.2427 7.23484 22.2425L7.23769 24.2425C7.6206 24.2419 7.98764 24.0894 8.25821 23.8185L6.84298 22.4053ZM7.23626 22.2425H7.23563V24.2425H7.23626V22.2425Z" fill="#181F1C" mask="url(#path-31-inside-15_1364_184797)"/>
<mask id="path-33-inside-16_1364_184797" fill="white">
<path d="M11.5691 21.2178C11.2542 21.2183 10.9467 21.313 10.6861 21.4897C10.4255 21.6663 10.2237 21.9169 10.1066 22.2092C10.0307 22.3966 9.99203 22.597 9.99275 22.7993C9.993 23.1118 10.0859 23.4172 10.2598 23.6769C10.4336 23.9366 10.6805 24.139 10.9694 24.2583C11.2582 24.3777 11.5759 24.4087 11.8824 24.3475C12.1889 24.2863 12.4703 24.1356 12.6911 23.9144C12.9119 23.6932 13.0622 23.4116 13.1229 23.105C13.1836 22.7984 13.1521 22.4807 13.0323 22.1921C12.9124 21.9035 12.7097 21.6569 12.4497 21.4834C12.1897 21.31 11.8841 21.2176 11.5716 21.2178H11.5691ZM11.5691 23.2425C11.481 23.2425 11.395 23.2164 11.3218 23.1674C11.2486 23.1185 11.1915 23.049 11.1578 22.9677C11.1242 22.8863 11.1153 22.7969 11.1325 22.7105C11.1497 22.6242 11.1921 22.5449 11.2543 22.4826C11.3166 22.4204 11.3959 22.378 11.4822 22.3608C11.5686 22.3436 11.6581 22.3524 11.7394 22.3861C11.8207 22.4198 11.8903 22.4769 11.9392 22.5501C11.9881 22.6233 12.0142 22.7093 12.0142 22.7973C12.0142 22.9147 11.9678 23.0274 11.8852 23.1107C11.8025 23.1941 11.6903 23.2414 11.5729 23.2425H11.5691Z"/>
</mask>
<path d="M11.5691 21.2178C11.2542 21.2183 10.9467 21.313 10.6861 21.4897C10.4255 21.6663 10.2237 21.9169 10.1066 22.2092C10.0307 22.3966 9.99203 22.597 9.99275 22.7993C9.993 23.1118 10.0859 23.4172 10.2598 23.6769C10.4336 23.9366 10.6805 24.139 10.9694 24.2583C11.2582 24.3777 11.5759 24.4087 11.8824 24.3475C12.1889 24.2863 12.4703 24.1356 12.6911 23.9144C12.9119 23.6932 13.0622 23.4116 13.1229 23.105C13.1836 22.7984 13.1521 22.4807 13.0323 22.1921C12.9124 21.9035 12.7097 21.6569 12.4497 21.4834C12.1897 21.31 11.8841 21.2176 11.5716 21.2178H11.5691ZM11.5691 23.2425C11.481 23.2425 11.395 23.2164 11.3218 23.1674C11.2486 23.1185 11.1915 23.049 11.1578 22.9677C11.1242 22.8863 11.1153 22.7969 11.1325 22.7105C11.1497 22.6242 11.1921 22.5449 11.2543 22.4826C11.3166 22.4204 11.3959 22.378 11.4822 22.3608C11.5686 22.3436 11.6581 22.3524 11.7394 22.3861C11.8207 22.4198 11.8903 22.4769 11.9392 22.5501C11.9881 22.6233 12.0142 22.7093 12.0142 22.7973C12.0142 22.9147 11.9678 23.0274 11.8852 23.1107C11.8025 23.1941 11.6903 23.2414 11.5729 23.2425H11.5691Z" fill="#181F1C"/>
<path d="M11.5691 21.2178L11.5691 20.2178L11.5675 20.2178L11.5691 21.2178ZM10.1066 22.2092L11.0335 22.5844L11.0349 22.581L10.1066 22.2092ZM9.99275 22.7993L10.9928 22.7984L10.9927 22.7957L9.99275 22.7993ZM11.5716 21.2178L11.5716 22.2178L11.5724 22.2178L11.5716 21.2178ZM11.5691 23.2425L11.5691 22.2425L11.5691 23.2425ZM12.0142 22.7973L11.0142 22.7973L11.0142 22.7974L12.0142 22.7973ZM11.5729 23.2425L11.5729 24.2425L11.5815 24.2424L11.5729 23.2425ZM11.5675 20.2178C11.0531 20.2187 10.5508 20.3733 10.125 20.6619L11.2472 22.3174C11.3427 22.2527 11.4553 22.218 11.5707 22.2178L11.5675 20.2178ZM10.125 20.6619C9.69927 20.9505 9.36956 21.3598 9.17829 21.8373L11.0349 22.581C11.0777 22.474 11.1517 22.3822 11.2472 22.3174L10.125 20.6619ZM9.17964 21.8339C9.05505 22.1417 8.99158 22.4708 8.99275 22.8028L10.9927 22.7957C10.9925 22.7233 11.0063 22.6515 11.0335 22.5844L9.17964 21.8339ZM8.99275 22.8001C8.99316 23.3104 9.14488 23.8091 9.42873 24.2332L11.0908 23.1207C11.027 23.0253 10.9928 22.9132 10.9927 22.7984L8.99275 22.8001ZM9.42873 24.2332C9.71259 24.6572 10.1158 24.9876 10.5874 25.1825L11.3513 23.3341C11.2453 23.2903 11.1546 23.216 11.0908 23.1207L9.42873 24.2332ZM10.5874 25.1825C11.059 25.3774 11.5779 25.4281 12.0783 25.3281L11.6865 23.3669C11.574 23.3894 11.4574 23.378 11.3513 23.3341L10.5874 25.1825ZM12.0783 25.3281C12.5787 25.2282 13.0382 24.9821 13.3988 24.6209L11.9834 23.2079C11.9024 23.2891 11.799 23.3444 11.6865 23.3669L12.0783 25.3281ZM13.3988 24.6209C13.7593 24.2598 14.0047 23.7999 14.1039 23.2993L12.142 22.9107C12.1197 23.0233 12.0645 23.1267 11.9834 23.2079L13.3988 24.6209ZM14.1039 23.2993C14.203 22.7987 14.1515 22.28 13.9558 21.8087L12.1087 22.5755C12.1527 22.6815 12.1643 22.7981 12.142 22.9107L14.1039 23.2993ZM13.9558 21.8087C13.7602 21.3374 13.4291 20.9347 13.0046 20.6515L11.8948 22.3153C11.9903 22.379 12.0647 22.4696 12.1087 22.5755L13.9558 21.8087ZM13.0046 20.6515C12.5801 20.3683 12.0811 20.2174 11.5708 20.2178L11.5724 22.2178C11.6872 22.2177 11.7994 22.2517 11.8948 22.3153L13.0046 20.6515ZM11.5716 20.2178H11.5691V22.2178H11.5716V20.2178ZM11.5691 22.2425C11.6788 22.2425 11.7861 22.275 11.8774 22.336L10.7662 23.9989C11.0039 24.1577 11.2833 24.2425 11.5691 24.2425L11.5691 22.2425ZM11.8774 22.336C11.9686 22.3969 12.0397 22.4836 12.0817 22.585L10.234 23.3504C10.3433 23.6144 10.5286 23.8401 10.7662 23.9989L11.8774 22.336ZM12.0817 22.585C12.1237 22.6864 12.1347 22.798 12.1133 22.9056L10.1517 22.5154C10.096 22.7957 10.1246 23.0863 10.234 23.3504L12.0817 22.585ZM12.1133 22.9056C12.0919 23.0132 12.039 23.1121 11.9614 23.1897L10.5472 21.7755C10.3451 21.9776 10.2075 22.2351 10.1517 22.5154L12.1133 22.9056ZM11.9614 23.1897C11.8838 23.2673 11.785 23.3202 11.6773 23.3416L11.2871 21.38C11.0068 21.4358 10.7493 21.5734 10.5472 21.7755L11.9614 23.1897ZM11.6773 23.3416C11.5697 23.363 11.4581 23.352 11.3567 23.31L12.1221 21.4622C11.858 21.3529 11.5675 21.3242 11.2871 21.38L11.6773 23.3416ZM11.3567 23.31C11.2553 23.268 11.1687 23.1969 11.1077 23.1056L12.7706 21.9945C12.6119 21.7568 12.3862 21.5716 12.1221 21.4622L11.3567 23.31ZM11.1077 23.1056C11.0467 23.0144 11.0142 22.9071 11.0142 22.7973H13.0142C13.0142 22.5115 12.9294 22.2321 12.7706 21.9945L11.1077 23.1056ZM11.0142 22.7974C11.0142 22.651 11.072 22.5106 11.175 22.4067L12.5953 23.8148C12.8637 23.5441 13.0142 23.1784 13.0142 22.7973L11.0142 22.7974ZM11.175 22.4067C11.2781 22.3028 11.418 22.2437 11.5643 22.2425L11.5815 24.2424C11.9626 24.2392 12.327 24.0855 12.5953 23.8148L11.175 22.4067ZM11.5729 22.2425H11.5691V24.2425H11.5729V22.2425Z" fill="#181F1C" mask="url(#path-33-inside-16_1364_184797)"/>
<path d="M19.4297 22.2092C19.3539 22.3966 19.3152 22.597 19.3159 22.7993L19.4297 22.2092ZM19.4297 22.2092L19.4298 22.2092L19.4297 22.2092ZM19.8932 22.3968L19.8932 22.3968L19.8938 22.3954C19.974 22.1953 20.1123 22.0239 20.2909 21.9032C20.4694 21.7824 20.68 21.7179 20.8955 21.7178L20.8954 21.2178L20.8958 21.7178C21.1096 21.7177 21.3186 21.7809 21.4965 21.8995C21.6743 22.0182 21.813 22.1869 21.8949 22.3843C21.9769 22.5818 21.9984 22.7991 21.9569 23.0088C21.9153 23.2185 21.8125 23.4111 21.6614 23.5624C21.5103 23.7136 21.3178 23.8167 21.1081 23.8585C20.8985 23.9003 20.6812 23.879 20.4836 23.7973C20.2861 23.7156 20.1172 23.5772 19.9983 23.3995C19.8795 23.2218 19.816 23.0128 19.8159 22.799L19.8159 22.7975C19.8154 22.6602 19.8417 22.5241 19.8932 22.3968ZM20.8961 23.7425L20.8968 23.7425C21.1472 23.7421 21.3873 23.6424 21.5642 23.4652C21.7412 23.288 21.8405 23.0478 21.8405 22.7973C21.8405 22.6104 21.7851 22.4277 21.6813 22.2723C21.5774 22.1168 21.4298 21.9957 21.2571 21.9242C21.0844 21.8526 20.8944 21.8339 20.7111 21.8704C20.5277 21.9069 20.3593 21.9969 20.2271 22.129C20.095 22.2612 20.005 22.4296 19.9685 22.613C19.932 22.7963 19.9507 22.9863 20.0223 23.159C20.0938 23.3317 20.2149 23.4793 20.3704 23.5832C20.5258 23.687 20.7085 23.7425 20.8954 23.7425L20.8961 23.7425Z" fill="#181F1C" stroke="#181F1C"/>
<mask id="path-36-inside-17_1364_184797" fill="white">
<path d="M10.8861 19.995H7.64319ZM4.16687 19.995V22.4228H5.24785C5.27222 22.2896 5.30949 22.159 5.35913 22.033V22.033C5.50995 21.6579 5.76954 21.3365 6.10451 21.1102C6.43947 20.8838 6.8345 20.7629 7.23877 20.7629C7.64305 20.7629 8.03807 20.8838 8.37304 21.1102C8.70801 21.3365 8.9676 21.6579 9.11842 22.033C9.16917 22.1578 9.20648 22.2876 9.22969 22.4203H9.59532C9.61974 22.2851 9.65854 22.1529 9.71105 22.026C9.87572 21.6199 10.1677 21.2781 10.5431 21.052C10.9186 20.8259 11.3572 20.7277 11.7932 20.7721C12.2293 20.8166 12.6391 21.0012 12.9612 21.2984C13.2833 21.5956 13.5004 21.9892 13.5797 22.4203L18.8803 22.4292C18.9049 22.294 18.9436 22.1619 18.9961 22.0349C19.1607 21.6288 19.4527 21.287 19.8282 21.0609C20.2036 20.8348 20.6423 20.7366 21.0783 20.781C21.5143 20.8255 21.9241 21.0101 22.2462 21.3073C22.5683 21.6045 22.7854 21.9981 22.8647 22.4292V14.9589H16.8239V19.995H13.3902M17.9596 16.0971H21.6032V18.8149H17.9571L17.9596 16.0971Z"/>
</mask>
<path d="M10.8861 19.995H7.64319ZM4.16687 19.995V22.4228H5.24785C5.27222 22.2896 5.30949 22.159 5.35913 22.033V22.033C5.50995 21.6579 5.76954 21.3365 6.10451 21.1102C6.43947 20.8838 6.8345 20.7629 7.23877 20.7629C7.64305 20.7629 8.03807 20.8838 8.37304 21.1102C8.70801 21.3365 8.9676 21.6579 9.11842 22.033C9.16917 22.1578 9.20648 22.2876 9.22969 22.4203H9.59532C9.61974 22.2851 9.65854 22.1529 9.71105 22.026C9.87572 21.6199 10.1677 21.2781 10.5431 21.052C10.9186 20.8259 11.3572 20.7277 11.7932 20.7721C12.2293 20.8166 12.6391 21.0012 12.9612 21.2984C13.2833 21.5956 13.5004 21.9892 13.5797 22.4203L18.8803 22.4292C18.9049 22.294 18.9436 22.1619 18.9961 22.0349C19.1607 21.6288 19.4527 21.287 19.8282 21.0609C20.2036 20.8348 20.6423 20.7366 21.0783 20.781C21.5143 20.8255 21.9241 21.0101 22.2462 21.3073C22.5683 21.6045 22.7854 21.9981 22.8647 22.4292V14.9589H16.8239V19.995H13.3902M17.9596 16.0971H21.6032V18.8149H17.9571L17.9596 16.0971Z" fill="#181F1C"/>
<path d="M4.16687 22.4228H3.16687V23.4228H4.16687V22.4228ZM5.24785 22.4228V23.4228H6.08157L6.23154 22.6027L5.24785 22.4228ZM9.11842 22.033L8.1906 22.4061L8.19215 22.4099L9.11842 22.033ZM9.22969 22.4203L8.24466 22.5926L8.38948 23.4203H9.22969V22.4203ZM9.59532 22.4203V23.4203H10.4308L10.5794 22.598L9.59532 22.4203ZM9.71105 22.026L10.6351 22.4084L10.6378 22.4017L9.71105 22.026ZM13.5797 22.4203L12.5962 22.6013L12.7467 23.4189L13.578 23.4203L13.5797 22.4203ZM18.8803 22.4292L18.8787 23.4292L19.7151 23.4306L19.8643 22.6076L18.8803 22.4292ZM18.9961 22.0349L19.9204 22.4166L19.9228 22.4106L18.9961 22.0349ZM22.8647 22.4292L21.8813 22.6102L23.8647 22.4292H22.8647ZM22.8647 14.9589H23.8647V13.9589H22.8647V14.9589ZM16.8239 14.9589V13.9589H15.8239V14.9589H16.8239ZM16.8239 19.995V20.995H17.8239V19.995H16.8239ZM17.9596 16.0971V15.0971H16.9605L16.9596 16.0962L17.9596 16.0971ZM21.6032 16.0971H22.6032V15.0971H21.6032V16.0971ZM21.6032 18.8149V19.8149H22.6032V18.8149H21.6032ZM17.9571 18.8149L16.9571 18.8139L16.9561 19.8149H17.9571V18.8149ZM10.8861 18.995H7.64319V20.995H10.8861V18.995ZM3.16687 19.995V22.4228H5.16687V19.995H3.16687ZM4.16687 23.4228H5.24785V21.4228H4.16687V23.4228ZM6.23154 22.6027C6.24424 22.5333 6.26366 22.4652 6.28953 22.3996L4.42873 21.6665C4.35531 21.8528 4.3002 22.0459 4.26417 22.2429L6.23154 22.6027ZM6.28694 22.4061C6.36331 22.2161 6.49477 22.0534 6.66439 21.9388L5.54462 20.2816C5.04431 20.6197 4.65658 21.0997 4.43132 21.66L6.28694 22.4061ZM6.66439 21.9388C6.83402 21.8241 7.03405 21.7629 7.23877 21.7629V19.7629C6.63495 19.7629 6.04493 19.9435 5.54462 20.2816L6.66439 21.9388ZM7.23877 21.7629C7.4435 21.7629 7.64353 21.8241 7.81316 21.9388L8.93293 20.2816C8.43262 19.9435 7.8426 19.7629 7.23877 19.7629V21.7629ZM7.81316 21.9388C7.98278 22.0534 8.11423 22.2161 8.19061 22.4061L10.0462 21.66C9.82096 21.0997 9.43324 20.6197 8.93293 20.2816L7.81316 21.9388ZM8.19215 22.4099C8.2161 22.4688 8.2337 22.53 8.24466 22.5926L10.2147 22.2479C10.1793 22.0452 10.1222 21.8468 10.0447 21.6562L8.19215 22.4099ZM9.22969 23.4203H9.59532V21.4203H9.22969V23.4203ZM10.5794 22.598C10.5911 22.533 10.6098 22.4694 10.6351 22.4084L8.78703 21.6437C8.70727 21.8364 8.64834 22.0372 8.61125 22.2425L10.5794 22.598ZM10.6378 22.4017C10.7211 22.1961 10.869 22.0231 11.059 21.9087L10.0273 20.1953C9.46643 20.5331 9.03029 21.0436 8.78432 21.6503L10.6378 22.4017ZM11.059 21.9087C11.2491 21.7942 11.4711 21.7445 11.6919 21.767L11.8946 19.7773C11.2433 19.7109 10.5881 19.8576 10.0273 20.1953L11.059 21.9087ZM11.6919 21.767C11.9126 21.7895 12.1201 21.883 12.2831 22.0334L13.6393 20.5634C13.1581 20.1195 12.5459 19.8437 11.8946 19.7773L11.6919 21.767ZM12.2831 22.0334C12.4462 22.1838 12.5561 22.3831 12.5962 22.6013L14.5632 22.2392C14.4446 21.5954 14.1205 21.0073 13.6393 20.5634L12.2831 22.0334ZM13.578 23.4203L18.8787 23.4292L18.882 21.4292L13.5814 21.4203L13.578 23.4203ZM19.8643 22.6076C19.8762 22.5421 19.895 22.4781 19.9204 22.4166L18.0718 21.6532C17.9923 21.8456 17.9335 22.0459 17.8964 22.2507L19.8643 22.6076ZM19.9228 22.4106C20.0062 22.205 20.154 22.032 20.344 21.9176L19.3123 20.2042C18.7515 20.542 18.3153 21.0525 18.0693 21.6592L19.9228 22.4106ZM20.344 21.9176C20.5341 21.8031 20.7562 21.7534 20.9769 21.7759L21.1796 19.7862C20.5284 19.7198 19.8731 19.8665 19.3123 20.2042L20.344 21.9176ZM20.9769 21.7759C21.1976 21.7984 21.4051 21.8919 21.5681 22.0423L22.9243 20.5723C22.4431 20.1284 21.8309 19.8526 21.1796 19.7862L20.9769 21.7759ZM21.5681 22.0423C21.7312 22.1927 21.8411 22.392 21.8813 22.6102L23.8482 22.2481C23.7297 21.6043 23.4055 21.0162 22.9243 20.5723L21.5681 22.0423ZM23.8647 22.4292V14.9589H21.8647V22.4292H23.8647ZM22.8647 13.9589H16.8239V15.9589H22.8647V13.9589ZM15.8239 14.9589V19.995H17.8239V14.9589H15.8239ZM16.8239 18.995H13.3902V20.995H16.8239V18.995ZM17.9596 17.0971H21.6032V15.0971H17.9596V17.0971ZM20.6032 16.0971V18.8149H22.6032V16.0971H20.6032ZM21.6032 17.8149H17.9571V19.8149H21.6032V17.8149ZM18.9571 18.8158L18.9596 16.0981L16.9596 16.0962L16.9571 18.8139L18.9571 18.8158Z" fill="#181F1C" mask="url(#path-36-inside-17_1364_184797)"/>
<path d="M23.3616 17.6838H23.6384V21.9317H23.3616V17.6838Z" fill="#181F1C" stroke="#181F1C"/>
<path d="M1.57019 21.9317V17.6191L3.16455 15.4346V21.9317H1.57019Z" fill="#181F1C" stroke="#181F1C"/>
<path d="M13.6848 8.9342H13.684V8.72786L13.6851 8.72972M13.6848 8.9342C13.6852 8.9342 13.6855 8.93419 13.6858 8.93419L13.6851 8.72972M13.6848 8.9342H13.8031M13.6848 8.9342H13.8031M13.6851 8.72972L13.8031 8.9342M13.6851 8.72972L13.8031 8.9342M13.8031 8.9342L14.2891 9.77595L13.8564 10.0264L14.2893 9.77644L14.2892 9.77614C14.3631 9.90388 14.4694 10.0099 14.5972 10.0837C14.7251 10.1575 14.87 10.1965 15.0176 10.1966H15.0174V10.6965L15.0179 10.1966L16.6241 10.1966M13.8031 8.9342H16.6241M16.6241 10.1966L16.6241 10.4976M16.6241 10.1966H16.925C16.8858 10.1967 16.847 10.2045 16.8107 10.2194C16.7739 10.2346 16.7405 10.2569 16.7124 10.285C16.6843 10.3131 16.662 10.3465 16.6468 10.3833C16.6319 10.4195 16.6242 10.4584 16.6241 10.4976M16.6241 10.1966V8.9342M16.6241 10.4976C16.6241 10.4981 16.6241 10.4987 16.6241 10.4992L16.6241 10.4976ZM16.6241 8.9342H16.9244C16.8448 8.9342 16.7684 8.90255 16.712 8.84623C16.6557 8.7899 16.6241 8.71351 16.6241 8.63386V8.9342Z" fill="#181F1C" stroke="#181F1C"/>
<path d="M18.4314 1.95723C18.5212 1.80158 18.6415 1.66565 18.7851 1.55759C18.9286 1.44953 19.0925 1.37156 19.2669 1.32835C19.2038 1.31853 19.1401 1.31364 19.0762 1.31372H16.9651C16.7298 1.3138 16.4986 1.37577 16.2948 1.49341C16.091 1.61104 15.9217 1.78021 15.804 1.98393L14.8502 3.6372C14.837 3.65981 14.8284 3.6848 14.8248 3.71075C14.8213 3.73669 14.823 3.76308 14.8297 3.78837C14.8365 3.81367 14.8482 3.83739 14.8641 3.85815C14.8801 3.87892 14.9 3.89632 14.9227 3.90936L16.5365 4.84091C16.5822 4.8673 16.6364 4.87456 16.6874 4.8611C16.7384 4.84764 16.782 4.81455 16.8087 4.76906L17.3771 3.78473L18.0187 2.67068L18.4314 1.95723Z" fill="#181F1C"/>
<path d="M12.9127 7.53765C12.9907 7.67284 13.103 7.78514 13.2381 7.86326C13.3733 7.94139 13.5266 7.9826 13.6827 7.98276H14.7675L15.3398 6.99525L15.6838 6.3988L15.7919 6.46238L16.2173 6.70847L15.261 4.86761L13.8926 4.9223L13.1931 4.95982L13.312 5.02849L13.7037 5.25423L13.7266 5.26758L12.9432 6.62453L12.8078 6.85981C12.7656 6.93613 12.744 7.02215 12.7452 7.10936C12.7465 7.19657 12.7704 7.28195 12.8148 7.35706L12.9127 7.53765Z" fill="#181F1C"/>
<path d="M20.8287 8.43485H18.9993V7.82123L17.8846 9.56861L18.6158 10.7265L18.9974 11.316V10.6998H20.8414C20.9285 10.6982 21.0137 10.6739 21.0885 10.6293C21.1633 10.5847 21.2252 10.5213 21.2681 10.4455L21.3711 10.2674C21.4492 10.1321 21.4903 9.97859 21.4903 9.82232C21.4903 9.66605 21.4492 9.51254 21.3711 9.37721L20.8287 8.43485Z" fill="#181F1C"/>
<path d="M20.14 6.33836L20.7085 7.32332L21.3507 8.43483L21.7627 9.14892C21.8527 9.30453 21.9104 9.47671 21.9323 9.65514C21.9541 9.83356 21.9397 10.0146 21.8899 10.1873C21.9303 10.1368 21.9666 10.0832 21.9987 10.0271L23.0536 8.20274C23.1712 7.99897 23.2332 7.76782 23.2332 7.53253C23.2332 7.29723 23.1712 7.06609 23.0536 6.86232L22.0998 5.20905C22.0733 5.16334 22.0298 5.12998 21.9788 5.11628C21.9278 5.10257 21.8734 5.10963 21.8276 5.13592L20.2131 6.0662C20.1904 6.07925 20.1705 6.09664 20.1546 6.11739C20.1386 6.13814 20.1269 6.16183 20.1201 6.18711C20.1133 6.21239 20.1116 6.23876 20.115 6.26471C20.1184 6.29067 20.1269 6.31569 20.14 6.33836V6.33836Z" fill="#181F1C"/>
<path d="M18.8219 2.18421L18.2795 3.12339L18.8518 4.11154L19.1945 4.70544L19.0864 4.76903L18.661 5.01448L20.238 5.08442C20.3854 5.0906 20.5316 5.05487 20.6595 4.98138C20.7875 4.90789 20.892 4.79965 20.961 4.6692L21.3686 3.89343L21.6865 3.26646L21.5676 3.33514L21.1746 3.56087L21.1517 3.57423L20.6309 2.67065L20.3702 2.21854L20.2342 1.98391C20.1912 1.91018 20.1297 1.849 20.0557 1.80649C19.9817 1.76398 19.8979 1.74162 19.8126 1.74164H19.5938C19.4377 1.7418 19.2844 1.78301 19.1492 1.86113C19.0141 1.93926 18.9018 2.05155 18.8238 2.18675L18.8219 2.18421Z" fill="#181F1C"/>
</g>
<defs>
<clipPath id="clip0_1364_184797">
<rect width="25" height="25" fill="white"/>
</clipPath>
</defs>
</svg>
