<?xml version="1.0" encoding="utf-8"?>
<!-- Generator: Adobe Illustrator 26.5.0, SVG Export Plug-In . SVG Version: 6.00 Build 0)  -->
<svg version="1.1" id="Layer_1" xmlns="http://www.w3.org/2000/svg" xmlns:xlink="http://www.w3.org/1999/xlink" x="0px" y="0px"
	 viewBox="0 0 210 210" style="enable-background:new 0 0 210 210;" xml:space="preserve">
<style type="text/css">
	.st0{clip-path:url(#SVGID_00000135676136271611554290000012076834568087052681_);}
	.st1{fill:#181F1C;}
	.st2{fill:none;stroke:#000000;}
</style>
<g>
	<defs>
		<rect id="SVGID_1_" y="0" width="210" height="210"/>
	</defs>
	<clipPath id="SVGID_00000082329894894706070970000011063761866848493976_">
		<use xlink:href="#SVGID_1_"  style="overflow:visible;"/>
	</clipPath>
	<g style="clip-path:url(#SVGID_00000082329894894706070970000011063761866848493976_);">
		<path class="st1" d="M117.3,97.3l-1.5,3.1l1.8,1c0.2-0.3,0.5-0.5,1-0.8c0.5-0.3,1.3-0.5,2.2-0.6c1.8-0.3,4.1-0.4,6.6-0.4l8.1,0.6
			c3.3,0.4,6.4,0.8,8.7,1.2c1.1,0.2,2.1,0.4,2.7,0.5c0.3,0.1,0.6,0.1,0.7,0.1c0.1,0,0.2,0,0.2,0c0,0,0,0,0,0c0,0,0,0,0,0
			c0,0,0,0,0,0c0,0,0,0,0,0l0.7-1.9L148,101c0,0,0,0,0,0l0.5-0.9c-6.2-3.4-9.4-11.4-11-18.9c-0.8-3.7-1.1-7.2-1.3-9.7
			c-0.1-1.3-0.1-2.3-0.1-3c0-0.4,0-0.6,0-0.8c0-0.1,0-0.2,0-0.2c0,0,0,0,0-0.1c0,0,0,0,0,0c1.2-25.7-6.7-38.1-15.2-44.1
			c-4.2-3-8.5-4.3-11.7-4.8c-1.6-0.3-3-0.4-3.9-0.4c-0.5,0-0.9,0-1.1,0c-0.1,0-0.2,0-0.3,0c0,0,0,0-0.1,0c0,0,0,0-0.1,0
			c-0.1,0-0.2,0-0.3,0c-0.3,0-0.6,0-1.1,0c-1,0-2.3,0.1-3.9,0.4c-3.2,0.6-7.5,1.9-11.7,4.8c-8.5,6-16.4,18.4-15.2,44.1c0,0,0,0,0,0
			c0,0,0,0,0,0.1c0,0,0,0.1,0,0.2c0,0.2,0,0.5,0,0.8c0,0.7-0.1,1.8-0.1,3c-0.2,2.5-0.5,6-1.3,9.7c-1.6,7.5-4.7,15.5-11,18.9l0.5,0.9
			c0,0,0,0,0,0l-0.5-0.9l0.7,1.9c0,0,0,0,0,0s0,0,0,0h0c0,0,0,0,0,0c0,0,0,0,0,0c0,0,0,0,0,0c0,0,0.1,0,0.2,0c0.1,0,0.3-0.1,0.6-0.1
			c0.5-0.1,1.3-0.2,2.3-0.4c2-0.3,4.7-0.6,7.9-0.6c6.4-0.1,14.3,0.7,20.8,4.4l2.6,1.5l-1.2-2.8l-3.1-7c4.2,3.1,8.9,4.8,13.9,4.8
			C108.6,101.8,113.2,100.1,117.3,97.3z M135.1,67.4C135.1,67.4,135.1,67.4,135.1,67.4L135.1,67.4L135.1,67.4z M120.1,93.6
			L120.1,93.6L120.1,93.6L120.1,93.6z M128.1,58.4l-0.1,1l0.1,0h0.1h0.1l0.7,0.1c0,0.6-0.1,1.1-0.1,1.7l-0.1,0l-0.1,1.2
			c-0.4,6.2-2,12.2-4.7,17.8c-4.6,9.3-12,15.1-20.1,15.1c-6.2,0-11.9-3.4-16.4-9.1c-4.3-5.5-7.3-13.2-8.3-22c0.2,0,0.5-0.1,0.8-0.1
			c1.1-0.2,2.6-0.5,4.3-0.9c3.4-0.7,7.6-1.8,10.7-3c0,0,0,0,0,0c0,0,0.1,0,0.1,0c0.1,0,0.2-0.1,0.4-0.1c0.3-0.1,0.8-0.3,1.5-0.6
			c1.3-0.5,3.1-1.3,5.4-2.4c4.4-2.1,10.5-5.4,17.1-10.2c0,0,0,0,0,0l0,0c0.6,1,1.4,2.8,1.6,4.8c0.2,1.9-0.3,3.7-2.3,4.8l-2.5,1.5
			l2.9,0.4l8.8,1.1L128.1,58.4L128.1,58.4z M128.3,58.4L128.3,58.4L128.3,58.4L128.3,58.4z M129.9,58.7L129.9,58.7L129.9,58.7
			L129.9,58.7z"/>
		<polygon class="st1" points="170.8,185.6 172.6,186.6 171.7,186.1 		"/>
		<polygon class="st1" points="146.6,190.4 149.3,191.9 148,189.2 147.1,189.6 		"/>
		<path class="st1" d="M203.6,185.4c-6.2-3.4-9.4-11.4-11-18.9c-0.8-3.7-1.1-7.2-1.3-9.7c-0.1-1.3-0.1-2.3-0.1-3c0-0.4,0-0.6,0-0.8
			c0-0.1,0-0.2,0-0.2c0,0,0,0,0-0.1c0,0,0,0,0,0c1.2-25.7-6.7-38.1-15.2-44.1c-4.2-3-8.5-4.3-11.7-4.8c-1.6-0.3-3-0.4-3.9-0.4
			c-0.5,0-0.9,0-1.1,0c-0.1,0-0.2,0-0.3,0c0,0,0,0-0.1,0c0,0,0,0-0.1,0c-0.1,0-0.2,0-0.3,0c-0.3,0-0.6,0-1.1,0c-1,0-2.3,0.1-3.9,0.4
			c-3.2,0.6-7.5,1.9-11.7,4.8c-8.5,6-16.4,18.4-15.2,44.1c0,0,0,0,0,0c0,0,0,0,0,0.1c0,0,0,0.1,0,0.2c0,0.2,0,0.5,0,0.8
			c0,0.7-0.1,1.8-0.1,3c-0.2,2.5-0.5,6-1.3,9.7c-1.6,7.5-4.8,15.5-11,18.9l0.7,1.9c0,0,0,0,0,0c0,0,0,0,0,0c0,0,0,0,0,0
			c0,0,0.1,0,0.2,0c0.1,0,0.3-0.1,0.6-0.1c0.5-0.1,1.3-0.2,2.3-0.4c2-0.3,4.7-0.6,7.9-0.6c6.4-0.1,14.3,0.7,20.8,4.4l0.5-0.9
			c0,0,0,0,0,0l0,0l0,0l0.9-0.4l-3.1-7c4.2,3.1,8.9,4.8,13.9,4.8c4.9,0,9.4-1.6,13.5-4.5l-1.5,3.1l0.9,0.4l0,0l0.9,0.5
			c0.2-0.3,0.5-0.5,1-0.8c0.5-0.3,1.3-0.5,2.1-0.6c1.8-0.3,4.1-0.4,6.6-0.4l8.1,0.6c3.3,0.4,6.4,0.8,8.7,1.2
			c1.1,0.2,2.1,0.4,2.7,0.5c0.3,0.1,0.6,0.1,0.7,0.1c0.1,0,0.2,0,0.2,0c0,0,0,0,0,0c0,0,0,0,0,0c0,0,0,0,0,0v0L203.6,185.4z
			 M174.7,130.8L174.7,130.8L174.7,130.8L174.7,130.8z M179.9,165.9L179.9,165.9L179.9,165.9C179.9,165.9,179.9,165.9,179.9,165.9z
			 M183.7,147.6c-0.4,6.2-2,12.2-4.7,17.8l0,0c-4.6,9.3-12,15.1-20.1,15.1c-6.2,0-11.9-3.4-16.4-9.1c-4.3-5.5-7.3-13.2-8.3-22
			c0.2,0,0.5-0.1,0.8-0.1c1.1-0.2,2.6-0.5,4.3-0.9c3.4-0.7,7.6-1.8,10.8-3c0,0,0,0,0,0c0,0,0.1,0,0.1,0c0.1,0,0.2-0.1,0.4-0.1
			c0.3-0.1,0.8-0.3,1.5-0.6c1.3-0.5,3.1-1.3,5.4-2.4c4.4-2.1,10.5-5.4,17.1-10.2c0,0,0,0,0,0l0,0c0.6,1,1.4,2.8,1.6,4.8
			c0.2,1.9-0.3,3.7-2.3,4.8l-2.6,1.5l2.9,0.4l8.8,1.1l0.1,0h0.1h0.1l0.7,0.1c0,0.6-0.1,1.3-0.1,1.9h-0.1L183.7,147.6l1,0.1
			c0,0,0,0,0,0L183.7,147.6z M183.4,143.6L183.4,143.6L183.4,143.6L183.4,143.6z M142.2,178.5L142.2,178.5L142.2,178.5
			C142.2,178.5,142.2,178.5,142.2,178.5z M185,143.9L185,143.9L185,143.9L185,143.9z M114.7,187c0,0.2,0.1,0.2,0.1,0.2L114.7,187z"
			/>
		<path class="st1" d="M43.6,107c-15.1,0-27.6,11.6-29.8,26.9c-0.2,1.6-0.3,3.2-0.3,4.8v0c0,0.7,0,1.3,0.1,2v0
			c0.1,0.9,0.1,1.9,0.3,2.8l0,0v0.1c0,0.2,0,0.4,0,0.5c0,0.1,0,0.2,0,0.3l0,0c1,10.8,4.6,20.4,9.9,27.3c5.3,6.9,12.2,11,19.8,11
			c7.5,0,14.5-4.1,19.8-11c5.3-6.9,8.9-16.4,9.9-27.3l0,0c0-0.2,0-0.3,0-0.5c0-0.1,0-0.3,0-0.4l0,0l0,0c0.1-0.9,0.2-1.9,0.3-2.8l0,0
			c0-0.7,0.1-1.3,0.1-2c0-1.6-0.1-3.2-0.3-4.8C71.1,118.6,58.6,107,43.6,107z M70.6,144.7c-0.9,9.6-4.1,18.2-8.9,24.3
			c-4.8,6.1-11.1,9.9-18.1,9.9c-7,0-13.3-3.8-18.1-9.9c-4.8-6.1-8-14.7-8.9-24.3l-0.1-0.7l0.7,0.2c1.2,0.3,2.4,0.8,3.5,1.4
			c-0.1-0.5-0.1-1.1-0.2-1.8c-0.2-1.7-0.4-4.1-0.3-6.5c0-2.4,0.2-5,0.9-7.1c0.6-2.1,1.7-3.9,3.5-4.6l0.1,0.2l0.1-0.2h0.1l0.1,0.3
			l0.1-0.2h0h0l0,0l0,0c0,0,0,0,0.1,0c0.1,0,0.2,0.1,0.3,0.1c0.3,0.1,0.6,0.3,1.1,0.5c1,0.4,2.4,0.9,4.1,1.5
			c3.4,1.1,8.1,2.2,13.1,2.4c5-0.1,9.6-1.3,13.1-2.4c1.7-0.5,3.1-1.1,4.1-1.5c0.5-0.2,0.9-0.4,1.1-0.5c0.1-0.1,0.2-0.1,0.3-0.1
			c0,0,0.1,0,0.1,0l0,0l0,0l0,0h0l0.2-0.1l0.2,0.1c1.8,0.7,2.9,2.5,3.5,4.6c0.6,2.1,0.9,4.6,0.9,7.1c0,2.4-0.2,4.8-0.4,6.5
			c-0.1,0.7-0.2,1.3-0.2,1.8c1.1-0.6,2.3-1.1,3.5-1.4l0.7-0.2L70.6,144.7z"/>
	</g>
</g>
<rect x="0.5" y="0.5" class="st2" width="209" height="209"/>
</svg>
