<?xml version="1.0" encoding="utf-8"?>
<!-- Generator: Adobe Illustrator 26.5.0, SVG Export Plug-In . SVG Version: 6.00 Build 0)  -->
<svg version="1.1" id="Layer_1" xmlns="http://www.w3.org/2000/svg" xmlns:xlink="http://www.w3.org/1999/xlink" x="0px" y="0px"
	 viewBox="0 0 210 210" style="enable-background:new 0 0 210 210;" xml:space="preserve">
<style type="text/css">
	.st0{fill:#181F1C;}
</style>
<path class="st0" d="M0,0v210h210V0H0z M52.1,147.7c0.6,0.2,1.2,0.3,1.9,0.5c0.7,0.1,1.4,0.3,2.1,0.5c12.9,3.2,29.6,5,48,5
	c0.4,0,0.8,0,1.2,0c-9.4,1.2-19.6,1.9-30.4,1.9c-11.9,0-23.1-0.9-33.1-2.3c-0.6-0.1-1.2-0.2-1.8-0.3c-0.5-0.1-1.1-0.2-1.6-0.3
	c-21.8-3.5-36.9-10-36.7-17.3c0-2.5,1.7-4.9,4.9-7.1c0.7-0.5,1.5-1,2.4-1.5c0.6-0.3,1.2-0.7,1.9-1c1-0.5,2-1,3.1-1.4
	c0.4-0.2,0.8-0.3,1.1-0.5c0.8-0.3,1.6-0.6,2.4-0.9c1.2-0.4,2.5-0.8,3.9-1.3c0.9-0.3,1.8-0.5,2.8-0.8c1.4-0.4,2.9-0.7,4.5-1.1v11.7
	C28.8,138,37.7,143.7,52.1,147.7z M71.9,86.8c0.6,0.3,1.2,0.5,1.8,0.8c0.7,0.3,1.3,0.5,2,0.8c13.6,5.1,34.6,8.3,58.7,8.4
	c-9.3,1.2-19.6,1.9-30.3,1.9c-11.2,0-21.8-0.7-31.4-2c-7.4-1-14.2-2.4-20.1-4c-0.1,0-0.1,0-0.2,0c-0.6-0.1-1.2-0.3-1.7-0.5
	c-0.6-0.1-1.1-0.3-1.7-0.5c-1.4-0.5-2.8-0.9-4.1-1.4c-0.6-0.2-1.3-0.5-1.9-0.7c-1.2-0.5-2.3-1-3.4-1.5c-0.9-0.4-1.6-0.9-2.4-1.3
	c-0.6-0.4-1.2-0.7-1.8-1.1c-0.8-0.6-1.5-1.1-2.1-1.7c-0.6-0.6-1.1-1.2-1.5-1.7c-0.2-0.3-0.4-0.6-0.5-0.9c-0.1-0.2-0.2-0.4-0.3-0.7
	c-0.3-0.7-0.4-1.4-0.4-2c0-1,0.3-2,0.8-3c0.5-1,1.3-1.9,2.4-2.9c0.4-0.4,0.9-0.7,1.4-1.1c0.7-0.5,1.6-1.1,2.5-1.6
	c5.1-2.9,12.7-5.5,22.1-7.5v12C59.8,79.2,64.3,83.3,71.9,86.8z M165,3.3c1.1,0.1,2.3,0.3,3.4,0.5c3.4,0.5,6.6,1,9.6,1.7
	c4.1,0.8,7.8,1.8,11.2,2.8c3.2,1,6.1,2,8.5,3.1c1.2,0.6,2.4,1.1,3.4,1.7c1,0.6,2,1.2,2.8,1.8c2.6,1.9,4.1,3.9,4.5,6
	c0.1,0.3,0.1,0.6,0.1,0.9c0,0.3,0,0.6-0.1,1c-0.1,0.3-0.2,0.6-0.3,1c-0.1,0.2-0.2,0.4-0.3,0.6c-0.2,0.4-0.5,0.8-0.8,1.2
	c-0.3,0.4-0.6,0.8-1,1.2c-2.9,3.1-8.5,5.9-15.9,8.2c-0.2,0.1-0.5,0.2-0.8,0.2c-0.3,0.1-0.6,0.1-0.9,0.2c-0.3,0-0.7,0.1-1,0.2
	c-0.3,0.1-0.6,0.2-0.9,0.3c-1.7,0.5-3.4,0.9-5.2,1.3c-2.7,0.6-5.6,1.2-8.6,1.7c-2,0.3-4.1,0.7-6.2,0.9c-3.2,0.4-6.5,0.8-9.9,1.1
	c-2.3,0.2-4.6,0.4-6.9,0.5s-4.7,0.2-7.2,0.3c-2.4,0.1-4.9,0.1-7.3,0.1c-10,0-19.5-0.6-28.2-1.6c-2.2-0.3-4.3-0.5-6.4-0.9
	c-6.2-0.9-11.9-2.1-16.9-3.5c-0.7-0.1-1.3-0.3-1.9-0.5c-0.3-0.1-0.6-0.1-0.8-0.2c-0.3-0.1-0.5-0.2-0.9-0.3c-0.9-0.3-1.8-0.6-2.7-0.9
	c-1.7-0.6-3.3-1.3-4.8-1.9c-0.4-0.2-0.7-0.3-1.1-0.5c-1.8-0.8-3.3-1.7-4.6-2.6c-1-0.7-1.9-1.5-2.7-2.3c-0.6-0.6-1.1-1.2-1.5-1.8
	c-0.2-0.4-0.4-0.8-0.6-1.3c-0.2-0.6-0.3-1.3-0.3-1.9c0-3.4,3.3-6.7,9-9.6c1.1-0.6,2.4-1.1,3.7-1.7s2.8-1.1,4.3-1.6s3.1-1,4.8-1.4
	c3.3-0.9,7-1.8,10.9-2.5s8.1-1.4,12.4-1.9c2.2-0.3,4.4-0.5,6.7-0.7c6.8-0.6,14.1-0.9,21.5-0.9C145.7,1.5,155.8,2.2,165,3.3z
	 M196.1,63.1c0.2,0,0.4-0.1,0.6-0.2c0.2-0.1,0.5-0.2,0.7-0.3s0.5-0.2,0.7-0.3c0.2,0,0.4-0.1,0.6-0.2s0.4-0.2,0.6-0.3
	c0.3-0.1,0.5-0.2,0.7-0.3c0.4-0.2,0.7-0.3,0.9-0.5c0.2-0.1,0.3-0.2,0.5-0.3l0,0v22.2c-1.8,1.1-4,2.1-6.5,3.1V63.6
	c0.2-0.1,0.3-0.1,0.5-0.2c0.2-0.1,0.3-0.1,0.4-0.2C195.9,63.2,196,63.1,196.1,63.1z M199.7,59.6c-1.8,0.9-3.8,1.8-6.1,2.6
	c-0.5,0.2-0.9,0.3-1.4,0.5c-1.9,0.6-3.9,1.3-6,1.8c-0.7,0.2-1.3,0.4-2,0.5c-1.4,0.3-2.8,0.7-4.3,1c-0.7,0.2-1.5,0.3-2.2,0.5
	c-1.2,0.2-2.5,0.5-3.7,0.7c-1.3,0.2-2.6,0.4-3.9,0.6c-0.3,0-0.6,0-0.8,0.1c-0.3,0-0.5,0.1-0.8,0.1c-0.5,0.1-1.1,0.2-1.7,0.3
	c-2.4,0.3-4.9,0.6-7.5,0.9s-5.1,0.5-7.8,0.6c-1.3,0.1-2.7,0.2-4,0.2c-2,0.1-4.1,0.2-6.1,0.2c-2.1,0-4.1,0.1-6.2,0.1
	c-26.2,0-49.7-4-62.7-9.9c-0.3-0.2-0.6-0.3-0.9-0.4s-0.6-0.2-0.8-0.4c-0.5-0.3-1-0.5-1.5-0.8c-0.5-0.3-0.9-0.5-1.4-0.8
	c-3-1.9-5-4-5.7-6.2c0,0,0,0,0,0c0.5,0.6,1.1,1.2,1.8,1.8c0.3,0.3,0.7,0.6,1.1,0.9c0.7,0.6,1.6,1.1,2.5,1.7c1.3,0.8,2.8,1.6,4.4,2.3
	c0.3,0.1,0.6,0.3,0.9,0.4c0.3,0.1,0.6,0.2,0.9,0.4c0.7,0.3,1.3,0.5,2,0.8c1.7,0.6,3.5,1.2,5.5,1.8c1.9,0.6,4,1.1,6.2,1.6
	c4.3,1,9,1.9,14.1,2.6c1.3,0.2,2.5,0.4,3.9,0.5c6.8,0.9,14.2,1.4,22,1.7c2.6,0.1,5.2,0.1,7.9,0.1h0c10,0,19.5-0.6,28.2-1.6
	c0.4,0,0.7,0,1.1-0.1c0.3,0,0.7-0.1,1-0.1c0.6,0,1.3-0.1,1.9-0.2c2.5-0.4,5-0.7,7.4-1.2c2.4-0.4,4.6-0.9,6.8-1.4
	c3.3-0.7,6.3-1.6,9.1-2.5c1.9-0.6,3.6-1.2,5.2-1.9c1.6-0.7,3.1-1.3,4.5-2c3.5-1.8,6.1-3.7,7.8-5.7c-0.3,1.1-1,2.1-1.9,3.1
	c-0.4,0.4-0.8,0.8-1.3,1.2c-0.5,0.4-1,0.8-1.5,1.2C202.4,58.1,201.1,58.8,199.7,59.6z M193.7,64.2c0.1-0.1,0.2-0.1,0.3-0.2
	c0,0,0,0,0.1,0h0v22.4c-2,0.7-4.2,1.4-6.5,2.1V66.1c0.1,0,0.3-0.1,0.4-0.1c0.3,0,0.6-0.1,0.9-0.2c0.6-0.2,1.1-0.3,1.7-0.5
	c0.2-0.1,0.4-0.1,0.6-0.2c0.7-0.3,1.5-0.5,2.2-0.8C193.5,64.3,193.6,64.2,193.7,64.2z M180.1,67.9L180.1,67.9h0.1
	c0.2-0.1,0.3-0.1,0.5-0.1c0.1,0,0.3,0,0.4-0.1c0.3-0.1,0.6-0.1,0.9-0.2c0.3-0.1,0.6-0.2,0.9-0.2c0.2,0,0.4,0,0.5-0.1
	c0.2,0,0.3-0.1,0.5-0.1c0.5-0.1,1.1-0.3,1.6-0.4c0.4-0.1,0.7-0.2,0.9-0.2c0,0,0-0.1,0.1-0.1c0,0,0.1,0,0.1,0v22.3
	c-1,0.3-2,0.6-3.1,0.8c-1.1,0.3-2.2,0.5-3.4,0.8h0V67.9z M178.3,90.9c-0.1,0-0.3,0.1-0.4,0.1c-0.2,0-0.4,0.1-0.6,0.1
	c-0.1,0-0.3,0-0.4,0.1c-0.8,0.1-1.6,0.3-2.4,0.4c-0.6,0.1-1.2,0.2-1.8,0.3v-4.1v-1.2v-1.2V71.6v-1.2v-1.1h0.1h0
	c0.2-0.1,0.4-0.1,0.5-0.1c0.1,0,0.2,0,0.4-0.1c0.3,0,0.6,0,0.8-0.1c0,0,0,0,0.1,0c1-0.1,2-0.3,2.9-0.5c0.1,0,0.2,0,0.3,0h0
	c0.5-0.1,1-0.2,1.5-0.3h0V78v0.5V79v11.7c-0.2,0-0.4,0.1-0.5,0.1C178.6,90.8,178.5,90.8,178.3,90.9z M175.8,192.4
	c-0.3,0.3-0.5,0.7-0.9,1c-0.9,1-2.1,1.9-3.6,2.8l0,0v-22.3c0.9-0.6,1.8-1.1,2.5-1.7c0.8-0.6,1.5-1.1,2.1-1.7l0.1-0.1
	c0.3-0.3,0.5-0.6,0.8-0.9c0,0,0.1-0.1,0.1-0.1c0,0,0-0.1,0.1-0.1c0.1-0.1,0.2-0.2,0.3-0.3v0v19.4
	C177.4,189.8,176.8,191.1,175.8,192.4z M176.9,166.1c-0.1,0.3-0.2,0.5-0.4,0.7c-0.4,0.7-0.9,1.3-1.5,2c-0.9,1-2.1,1.9-3.5,2.8
	c-0.9,0.6-2,1.2-3.1,1.8c-2.9,1.4-6.3,2.8-10.3,4c-2.4,0.7-5,1.4-7.7,2c-12.7,2.9-28.9,4.7-46.3,4.7c-8.1,0-15.9-0.4-23.2-1.1
	c-2.4-0.2-4.8-0.5-7.2-0.8c0,0,0,0,0,0c0.4,0,0.8,0,1.2,0c10.5,0,20.5-0.6,29.6-1.7c5.6-0.7,10.9-1.6,15.7-2.6s9.2-2.3,13-3.7
	c2.3-0.8,4.4-1.7,6.2-2.6c1.2-0.6,2.4-1.2,3.4-1.9c1.6-1,2.9-2,4-3c2.2-2.1,3.3-4.3,3.3-6.7v-10.8v0c0.6-0.1,1.2-0.3,1.8-0.4
	c3.4,0.8,6.5,1.7,9.3,2.7c1.2,0.4,2.3,0.8,3.4,1.3c0.4,0.1,0.7,0.3,1.1,0.4c0.7,0.3,1.4,0.6,2,0.9c0.6,0.3,1.2,0.6,1.8,0.9
	s1.1,0.6,1.7,1c0.5,0.3,1,0.7,1.5,1c0.2,0.2,0.5,0.3,0.7,0.5c2.6,2,4,4.2,4,6.4C177.4,164.6,177.2,165.3,176.9,166.1z M170.4,174.4
	v22.3c-1.8,1.1-4,2.1-6.5,3.1v-22.4C166.3,176.5,168.5,175.5,170.4,174.4z M161.5,200.6c-1,0.4-2.1,0.7-3.3,1
	c-0.6,0.2-1.1,0.4-1.7,0.5v-22.4v0c0.6-0.2,1.1-0.3,1.7-0.5c1.7-0.5,3.3-1.1,4.8-1.6v22.4C162.5,200.3,162,200.5,161.5,200.6z
	 M155.5,180.1v22.4c-2,0.6-4.2,1.1-6.5,1.6v-22.4C151.2,181.2,153.4,180.7,155.5,180.1z M148.1,181.9v22.4c-2.1,0.4-4.2,0.8-6.5,1.2
	v-22.4C143.8,182.7,146,182.3,148.1,181.9z M140.7,183.1v22.5c-2.1,0.4-4.3,0.7-6.5,1V184C136.4,183.8,138.6,183.4,140.7,183.1z
	 M133.3,184.2v22.5c-2.1,0.3-4.3,0.5-6.5,0.7v-22.5C129,184.7,131.2,184.5,133.3,184.2z M125.8,185v22.5c-2.1,0.2-4.3,0.4-6.5,0.5
	v-22.5C121.5,185.3,123.7,185.2,125.8,185z M115.2,208.2c-1.1,0-2.2,0.1-3.3,0.2v-22.5c1.1-0.1,2.2-0.1,3.3-0.2
	c1.1,0,2.2-0.1,3.2-0.2v0v22.5C117.4,208.1,116.3,208.2,115.2,208.2z M111,185.9v22.5c-2.1,0.1-4.3,0.1-6.5,0.1V186
	C106.7,186,108.8,186,111,185.9z M103.5,186v22.5c-2.2,0-4.3,0-6.5-0.1v-22.5C99.1,186,101.3,186,103.5,186z M92.8,185.8
	c1.1,0.1,2.2,0.1,3.3,0.2v22.5c-1.1-0.1-2.2-0.1-3.2-0.2c-1.1,0-2.1-0.1-3.2-0.1v0v-22.5C90.7,185.7,91.7,185.7,92.8,185.8z
	 M88.7,185.5V208c-2.2-0.1-4.4-0.3-6.5-0.5V185C84.3,185.2,86.5,185.4,88.7,185.5z M70,157.6c0.4,0,0.8,0,1.2,0c0.5,0,1,0,1.6,0
	c0.5,0,1.1,0,1.6,0v22.5c-2.2,0-4.3,0-6.5-0.1v-22.6c0.2,0,0.3,0,0.5,0c0.3,0,0.7,0,1,0.1C69.6,157.5,69.8,157.6,70,157.6z
	 M73.8,184.2v22.5c-2.2-0.3-4.4-0.7-6.5-1v-22.4C69.4,183.6,71.6,183.9,73.8,184.2z M74.7,184.2c2.1,0.3,4.3,0.5,6.5,0.7v22.5
	c-2.2-0.2-4.4-0.4-6.5-0.7V184.2z M75.3,180v-22.5c1.1,0,2.2,0,3.2-0.1c0.4,0,0.8,0,1.2,0c0.7,0,1.4,0,2.1,0v22.5
	C79.7,180,77.5,180,75.3,180z M86,179.8c-1.1,0-2.2,0.1-3.3,0.2v-22.5c0.3,0,0.5,0,0.8,0c0.8-0.1,1.5-0.1,2.2-0.1
	c0.5-0.1,0.9-0.1,1.4-0.1c0.7,0,1.4-0.1,2.1-0.1v0v22.5C88.2,179.6,87.1,179.7,86,179.8z M90.2,179.5V157c0.2,0,0.3,0,0.5,0
	c0.8,0,1.6-0.1,2.3-0.2c0.4-0.1,0.7-0.1,1.1-0.1c0.9-0.1,1.7-0.1,2.6-0.2V179C94.6,179.2,92.4,179.4,90.2,179.5z M97.6,156.5
	c0.1,0,0.1,0,0.2,0c1-0.1,2-0.2,3-0.3c0.3,0,0.7-0.1,1-0.2c0.7,0,1.4-0.1,2.1-0.2c0.1,0,0.1,0,0.2,0h0v22.5c-1,0.2-2.1,0.3-3.2,0.4
	c-1.1,0.1-2.2,0.2-3.3,0.3V156.5z M94.4,126.8c-4.7-0.2-9.3-0.5-13.7-0.9c-0.7-0.1-1.5-0.1-2.2-0.2c-1.4-0.2-2.9-0.3-4.3-0.5
	c-4.9-0.6-9.6-1.4-13.9-2.3c-1.2-0.3-2.4-0.5-3.6-0.8c-0.6-0.1-1.2-0.3-1.7-0.4c-1.7-0.4-3.3-0.9-4.9-1.3c-1.6-0.5-3-0.9-4.4-1.4
	c-1.4-0.5-2.7-1-3.9-1.6c-0.3-0.2-0.6-0.3-0.8-0.4c-0.3-0.1-0.5-0.2-0.8-0.4s-0.6-0.3-0.8-0.4s-0.5-0.2-0.8-0.4
	c-1-0.5-2-1.1-2.8-1.7c-1.3-0.9-2.3-1.8-3.1-2.7c-0.5-0.6-1-1.2-1.3-1.9c-0.2-0.3-0.3-0.6-0.4-1c0,0,0,0,0,0c1,1.2,2.4,2.5,4.2,3.6
	c1.7,1.2,3.7,2.2,6,3.3c0.3,0.1,0.6,0.3,0.9,0.4c0.3,0.1,0.6,0.2,0.9,0.4s0.6,0.3,1,0.4s0.7,0.2,1,0.4c2.6,0.9,5.4,1.8,8.5,2.6
	c4.1,1.1,8.6,2,13.4,2.8c1.2,0.2,2.4,0.4,3.7,0.6c5,0.7,10.4,1.3,15.9,1.6c1.4,0.1,2.8,0.2,4.2,0.2c4.3,0.2,8.7,0.3,13.2,0.3
	c1.3,0,2.6,0,3.9,0c2.6,0,5.2-0.1,7.7-0.2c1.3-0.1,2.5-0.1,3.8-0.2c1.2-0.1,2.5-0.2,3.7-0.2c3.6-0.3,7.2-0.6,10.6-1
	c0.7-0.1,1.4-0.2,2.1-0.3c0.6-0.1,1.2-0.2,1.8-0.3c0,0,0.1,0,0.1,0c11.7-1.7,21.7-4.2,28.9-7.4c1-0.5,2-0.9,2.9-1.4
	c2-1,3.7-2.1,5.2-3.3c1-0.8,1.8-1.5,2.4-2.3c-2.1,6.6-16.4,12.4-36.6,15.6c-0.5,0.1-1,0.2-1.6,0.3c-0.6,0.1-1.2,0.2-1.8,0.3
	c-10,1.4-21.2,2.2-33,2.2C100.8,127,97.6,126.9,94.4,126.8z M103.5,129.1v12.5v1v1v8c-2.2,0-4.3,0-6.5-0.1v-7.8v-1v-1V129
	C99.1,129.1,101.3,129.1,103.5,129.1z M96.1,129v12.7v1v1v7.8c-2.2-0.1-4.3-0.2-6.5-0.3V144v-1v-1v-13.3
	C91.7,128.8,93.9,128.9,96.1,129z M88.7,128.6V142v1v1v7.1c-2.2-0.1-4.4-0.3-6.5-0.5v-6.1v-1v-1v-14.4
	C84.3,128.3,86.5,128.5,88.7,128.6z M81.2,128v14.5v1v1v6c-2.2-0.2-4.4-0.4-6.5-0.7v-4.5v-1v-1v-16C76.8,127.6,79,127.8,81.2,128z
	 M73.8,127.3v16.1v1v1v4.3c-2.2-0.3-4.4-0.7-6.5-1v-2.4v0v-1v0v-1v0v-17.9C69.4,126.7,71.6,127,73.8,127.3z M60.7,147.6
	c-0.1,0-0.2-0.1-0.4-0.1c-0.1,0-0.3,0-0.4-0.1v-0.7v-1v-20.6v0c1.6,0.3,3.1,0.6,4.8,0.9c0.6,0.1,1.1,0.2,1.7,0.3v18.3v0v1v0v1v0v2.1
	C64.4,148.3,62.5,148,60.7,147.6z M58.3,147.1c-0.4,0-0.8-0.1-1.2-0.2s-0.8-0.2-1.1-0.3c-0.3-0.1-0.6-0.1-0.9-0.2
	c-0.6-0.1-1.2-0.3-1.8-0.5c-0.3-0.1-0.6-0.1-0.9-0.2l0.1-22.4c2,0.6,4.2,1.1,6.5,1.6V146v1v0.3c-0.1,0-0.2-0.1-0.3-0.1
	C58.5,147.2,58.4,147.1,58.3,147.1z M46.5,121.4c1,0.3,2.1,0.7,3.3,1c0.6,0.2,1.1,0.4,1.7,0.5v22.4c-2.3-0.6-4.5-1.4-6.5-2.1v-22.4
	C45.5,121.1,46,121.2,46.5,121.4z M38.6,118.1c0.1,0,0.1,0.1,0.2,0.1c0.2,0.1,0.5,0.2,0.8,0.3s0.5,0.2,0.8,0.4c0,0,0,0,0.1,0.2
	c0.3,0.1,0.6,0.3,0.9,0.4c0.9,0.4,1.9,0.8,2.8,1.2v22.4v0c-1.1-0.5-2.2-0.9-3.2-1.4c-1-0.5-1.9-0.9-2.8-1.4v-22.2v0v-0.2
	c0.1,0,0.2,0.1,0.3,0.1C38.5,118,38.5,118,38.6,118.1C38.5,118.1,38.5,118.1,38.6,118.1z M37.4,111.4V98.5v-1.1v-1.1v-7.2v0
	c0.1,0,0.2,0.1,0.2,0.2s0.2,0.1,0.2,0.2c0.4,0.2,0.7,0.4,1.1,0.6c0.3,0.1,0.5,0.2,0.7,0.3c0.4,0.1,0.8,0.3,1.2,0.5
	c0.2,0.1,0.5,0.2,0.7,0.3c0.4,0.1,0.9,0.3,1.3,0.5c0.3,0.1,0.5,0.2,0.7,0.3c0.2,0.1,0.3,0.1,0.5,0.2v1.2v1.1v1.1h-0.2v19
	C41.4,113.5,39.3,112.5,37.4,111.4z M45.1,95.2v-1.1V93v-0.4c0.1,0,0.1,0.1,0.2,0.1c0.1,0,0.1,0,0.2,0.1c0.1,0,0.2,0.1,0.3,0.1
	c0.1,0,0.1,0,0.1,0c0.5,0.2,1,0.3,1.5,0.5c0.1,0,0.2,0.1,0.3,0.1c0.1,0,0.2,0,0.3,0.1c0.1,0,0.2,0.1,0.3,0.1c0.1,0,0.2,0,0.3,0.1
	c0.1,0,0.1,0,0.2,0c0.1,0,0.2,0.1,0.2,0.1c0.2,0,0.4,0.1,0.7,0.2c0.2,0.1,0.5,0.2,0.6,0.2c0.3,0,0.6,0.1,0.9,0.2
	c0.1,0,0.3,0.1,0.4,0.1v19.7v1v1v0.7c-0.6-0.1-1.2-0.3-1.8-0.5c-0.8-0.3-1.6-0.5-2.4-0.8c-0.8-0.3-1.5-0.5-2.1-0.7
	c-0.1-0.1-0.1-0.1-0.2-0.1V95.2z M52.5,117.1L52.5,117.1v-1v0v-1v0v-1v0V94.8c0,0.1,0.1,0.1,0.2,0.1c0.3,0.1,0.6,0.1,0.9,0.3
	c0.5,0.1,1.1,0.3,1.6,0.4c0.4,0,0.7,0.1,1,0.2c0.6,0.1,1.2,0.3,1.8,0.4c0.3,0.1,0.6,0.1,0.9,0.2H59v17.3v1v0.9v0v3.1
	c-1.1-0.2-2.2-0.5-3.3-0.8S53.5,117.4,52.5,117.1z M61.3,96.9c0.1,0.1,0.2,0.1,0.3,0.1c1,0.1,1.9,0.3,2.9,0.5c0.2,0,0.3,0,0.5,0
	c0.1,0,0.3,0.1,0.5,0.1c0.2,0,0.3,0.1,0.5,0.1c0.2,0,0.3,0,0.5,0.1v15.5v1h-0.1v1v4.9c-2.2-0.3-4.4-0.8-6.5-1.2v-3.4v0v-1v0v-1v0
	v-17C60.3,96.7,60.8,96.8,61.3,96.9z M73.7,114.2v0.9v6.2c-2.2-0.3-4.4-0.7-6.5-1v-5.1v-1v-1V97.9c0.1,0,0.1,0,0.2,0
	c0.4,0.1,0.7,0.1,1.1,0.2c0.6,0.1,1.2,0.2,1.9,0.3c0.4,0.1,0.8,0.1,1.2,0.2c0.7,0.1,1.3,0.2,2,0.3c0.1,0,0.1,0,0.2,0v14.3
	L73.7,114.2z M81.2,114.3v1.1v6.9c-2.2-0.2-4.4-0.4-6.5-0.7v-6.3v-1v-1V99.1h0.1c0.7,0,1.5,0.1,2.2,0.2c0.4,0,0.7,0.1,1.1,0.1
	c1,0.1,2.1,0.2,3.1,0.3c0.1,0,0.1,0,0.1,0v13.6L81.2,114.3z M82.1,122.3v-7v-1v-1V99.8c0.9,0.1,1.7,0.1,2.6,0.2
	c0.4,0.1,0.7,0.1,1.1,0.1c0.8,0.1,1.6,0.2,2.4,0.2c0.2,0,0.3,0,0.5,0v13.3v1h-0.1v1v0v7.2C86.4,122.7,84.2,122.5,82.1,122.3z
	 M89.6,122.8v-7.2v-1v-1v-13.3c0.7,0,1.4,0.1,2.1,0.1c0.5,0.1,0.9,0.1,1.4,0.1c0.7,0,1.4,0.1,2.2,0.1c0.3,0,0.5,0,0.8,0v13.5v1v1v0
	v7v0c-1.1-0.1-2.2-0.1-3.2-0.2C91.8,122.9,90.7,122.8,89.6,122.8z M103.6,114.8v1v1.1v6.4h0c-1.1,0-2.2,0-3.2,0s-2.1,0-3.2-0.1v-7
	v-1v-1v-13.5c0.7,0,1.4,0,2.1,0c0.4,0,0.8,0,1.2,0c1,0,2.1,0,3.2,0v1.3C103.6,105.5,103.6,114.8,103.6,114.8z M111,115.9v1v0.9v5.2
	c-2.1,0.1-4.3,0.1-6.5,0.1v-6.2v-1v-1v-14.2c1.1,0,2.1,0,3.2,0c0.4,0,0.8,0,1.2,0c0.7,0,1.4,0,2.1,0V115.9z M111.9,123v-5v-1v-1
	v-15.4c0.3,0,0.5,0,0.8,0c0.7,0,1.5-0.1,2.2-0.1c0.5-0.1,0.9-0.1,1.4-0.1c0.7,0,1.4-0.1,2.1-0.1v16.9v1v0.9v0v3.6
	C116.3,122.8,114.1,122.9,111.9,123z M131.6,121.6c-0.4,0-0.9,0.1-1.3,0.2c-0.4,0.1-0.8,0.1-1.2,0.2c-0.4,0-0.8,0.1-1.2,0.1
	c-0.4,0-0.8,0-1.2,0.1v-0.9v-1.1v-1V99.6c0.1,0,0.1,0,0.1,0c1-0.1,2.1-0.2,3.1-0.3c0.4,0,0.7-0.1,1.1-0.1c0.8,0,1.5-0.1,2.2-0.2h0.1
	v22.2v0.3c-0.3,0-0.6,0-0.8,0C132.2,121.6,131.9,121.6,131.6,121.6z M136.3,98.7c0.4-0.1,0.8-0.1,1.2-0.2c0.6-0.1,1.3-0.2,1.9-0.3
	c0.4-0.1,0.7-0.1,1.1-0.2c0.1,0,0.1,0,0.2,0v22.4c-2.1,0.4-4.3,0.7-6.5,1V98.9C135,98.9,135.6,98.8,136.3,98.7z M134.7,94.9
	c-2.2,0-4.3,0-6.5-0.1V88v-1v-1V72.3c0.7,0,1.4,0,2.1,0c0.4,0,0.8,0,1.2,0c1,0,2.1,0,3.2,0v14.4v1v1.1V94.9z M171.2,96.9v-2.8
	c2.1-0.4,4.1-0.7,6-1.1v8.7v1.3c0,0.2,0,0.3,0,0.4c0,0.6-0.1,1.1-0.3,1.6c-0.7,2.1-2.7,4.1-5.6,5.9V99.1V98L171.2,96.9L171.2,96.9z
	 M170.6,69.7c0.2,0,0.5-0.1,0.8-0.1c0.1,0,0.2,0,0.3,0s0.1,0,0.2,0v0v0.3V71v15v1.2v1.1V92c-0.2,0-0.4,0.1-0.7,0.2
	c-0.3,0-0.6,0.1-0.9,0.1c-1.6,0.2-3.4,0.5-5.1,0.7v-1.4v-1.1v-1.1V70.5c0.1,0,0.1,0,0.2,0c0.7-0.1,1.3-0.2,2-0.3
	c0.4-0.1,0.8-0.1,1.2-0.2c0.4-0.1,0.9-0.1,1.3-0.2C170.2,69.8,170.4,69.7,170.6,69.7z M165.3,95.1c0.7,0,1.3-0.1,1.9-0.2
	c1.1-0.2,2.2-0.3,3.2-0.5v2v1.1v1.1v0v12.8c-1.8,1.1-4,2.1-6.5,3.1v-19h-0.1v-0.2c0.2,0,0.5-0.1,0.8-0.1
	C164.8,95.2,165,95.1,165.3,95.1z M156.5,117V95.9c2.2-0.1,4.4-0.4,6.5-0.6v19.6C161,115.6,158.8,116.3,156.5,117z M164.5,89.3
	L164.5,89.3v1.1v1.1v1.2c-0.2,0.1-0.3,0.1-0.5,0.1c0,0-0.1,0-0.1,0.1c-0.1,0-0.2,0-0.3,0c0,0-0.1,0.1-0.2,0.1s-0.2,0-0.2,0
	c-0.6,0.1-1.2,0.1-1.8,0.2c-0.2,0-0.5,0.1-0.8,0.1c-0.3,0-0.6,0-0.8,0.1c-0.3,0-0.6,0.1-0.9,0.1c-0.1,0-0.3,0-0.5,0
	c-0.2,0-0.3,0.1-0.5,0.1v0v-0.3V93v-0.7V92v-0.7v-20c1-0.1,2.1-0.2,3.1-0.3c0.3,0,0.7-0.1,1-0.1c0.4-0.1,0.7-0.1,1.1-0.2
	c0.4,0,0.8-0.1,1.2-0.2h0h0.1V89.3z M153.3,71.6c0.4,0,0.7,0,1.1,0c0.5,0,0.9-0.1,1.3-0.1c0.4,0,0.9,0,1.3-0.1V91v1.1v0v0.2v0.9v0.2
	v0.5c-0.2,0-0.3,0-0.5,0c-0.3,0.1-0.6,0.1-0.9,0.1c-0.4,0-0.8,0.1-1.2,0.1c-1.3,0.1-2.7,0.2-4,0.3V94v-2.6v-1.1v-1V71.8
	c0.2,0,0.3,0,0.5,0c0.4,0,0.8-0.1,1.2-0.1C152.5,71.7,152.9,71.6,153.3,71.6z M155.5,96v21.2c-2,0.6-4.2,1.1-6.5,1.6V96.4
	C151.2,96.3,153.4,96.2,155.5,96z M149.6,89.1L149.6,89.1v1.1v1.1v2.9v0.2c-0.4,0.1-0.9,0.1-1.3,0.1c-1.7,0.1-3.4,0.1-5.2,0.2V90
	v-1.2v-1V72.1c0.3,0,0.5,0,0.8,0c0.7,0,1.5-0.1,2.2-0.1c0.4,0,0.9,0,1.4,0c0.7,0,1.4-0.1,2.1-0.1V89.1z M143.4,97.5
	c1-0.1,2-0.3,2.9-0.5c0.1,0,0.1-0.1,0.2-0.1c0,0,0.1,0,0.2,0c0.5-0.1,1-0.2,1.5-0.3h0v22.5c-1.6,0.3-3.2,0.6-4.8,0.9
	c-0.6,0.1-1.1,0.2-1.7,0.3V97.8c0.2,0,0.4,0,0.5-0.1c0.1,0,0.3-0.1,0.4-0.1c0.2,0,0.3,0,0.5,0C143.1,97.6,143.3,97.5,143.4,97.5z
	 M142.1,87.7v1v1v4.9c-2.1,0.1-4.3,0.1-6.5,0.1v-6v-1v-1V72.2c1.1,0,2.1,0,3.2,0c0.4,0,0.8,0,1.2,0c0.7,0,1.4,0,2.1,0V87.7z
	 M125.9,118.9v1.1h-0.1v1v1.3c-2.1,0.2-4.3,0.4-6.5,0.5v-3.3v-1.1v-1v-17.1c0.2,0,0.3,0,0.5,0c0.4,0,0.8-0.1,1.2-0.1
	c0.4,0,0.8-0.1,1.2-0.1c0.2,0,0.4-0.1,0.5-0.1c0.2,0,0.4,0,0.5,0c0.9-0.1,1.7-0.1,2.6-0.2V118.9z M170.4,117.5v22.3
	c-1.8,1.1-4,2.1-6.5,3.1v-22.4C166.3,119.6,168.5,118.6,170.4,117.5z M163,120.9v22.4c-2,0.7-4.2,1.4-6.5,2.1V123
	C158.8,122.4,161,121.6,163,120.9z M155.5,123.2v22.4v0c-1.2,0.3-2.4,0.6-3.6,0.9c-0.6,0.1-1.2,0.3-1.8,0.4c-0.1,0-0.3,0.1-0.4,0.1
	c-0.1,0-0.2,0-0.3,0c-0.1,0-0.2,0.1-0.3,0.1H149v0v-0.3v-1v-6.6v-2.7v-1.2v-1.2v0v-2.7v-6.6C151.2,124.3,153.4,123.8,155.5,123.2z
	 M141.8,126.1c0.5,0,0.9-0.1,1.4-0.2c0.9-0.2,1.7-0.3,2.5-0.5s1.6-0.3,2.4-0.5h0v5.1v1.7v3.2v0.6v0.1v3.2v1.7v5.1v1v0.7
	c-0.2,0.1-0.5,0.1-0.8,0.2c-1.6,0.4-3.4,0.7-5.1,0.9c-0.2,0-0.4,0.1-0.6,0.1v-2.1v-0.8v-0.3v-0.9v-0.1v-0.1v-0.9V127v-0.9
	C141.7,126.1,141.7,126.1,141.8,126.1L141.8,126.1z M142.2,150.6c2.1-0.3,4.1-0.7,6-1.1v10.4c0,0.3,0,0.7-0.1,1
	c-0.1,0.7-0.4,1.3-0.8,2c-0.6,1-1.5,2-2.6,2.9c-0.7,0.6-1.6,1.3-2.5,1.9V150.6z M134.8,151.8c2.2-0.3,4.4-0.7,6.5-1v17.5
	c-1.8,1.1-4,2.1-6.5,3.1V151.8z M134.5,149.7c-0.1,0-0.2,0-0.3,0v-0.6v0V148v-1v-1.6v-1v-1v-16.1c2.1-0.3,4.1-0.6,6.1-0.9
	c0.1-0.1,0.3-0.1,0.4-0.1v0.3V144v0.3v0v0.8v0.2v0v0.9v0.2v2.4c-1.9,0.3-3.9,0.6-5.9,0.8C134.7,149.7,134.6,149.7,134.5,149.7z
	 M130.1,127.8c1.1-0.1,2.2-0.2,3.2-0.4v15.9v1v1v2v1.1v1.1v0.4c-0.3,0-0.6,0.1-0.9,0.1c-0.3,0-0.6,0-0.9,0.1
	c-0.7,0.1-1.4,0.2-2.1,0.2c-0.7,0.1-1.4,0.1-2,0.1c-0.2,0.1-0.4,0.1-0.6,0.1v-0.1v-1v-4.8v0v-1v0v-1v0v-14.5
	C127.9,128,129,127.9,130.1,127.8z M127.4,173.8c0,0,0-21.2,0-21.2v0c1.1-0.1,2.2-0.2,3.3-0.3c1.1-0.1,2.2-0.2,3.2-0.4v19.8
	c-1,0.3-2.1,0.7-3.1,1C129.7,173.1,128.6,173.4,127.4,173.8z M119.8,153.3c0.1,0,0.1,0,0.1,0c0.2,0,0.3-0.1,0.4-0.1
	c2.1-0.2,4-0.3,6-0.5v21.4c-2,0.6-4.2,1.1-6.5,1.6V153.3z M119.4,151.1V144v-1v-1v-13.2c2.2-0.2,4.4-0.3,6.5-0.5v14.3v1v1v5.1v0.9
	c-1.9,0.2-4,0.4-6,0.5C119.7,151.1,119.6,151.1,119.4,151.1z M112.5,154.7c0.4-0.1,0.7-0.1,1-0.2c0.3-0.1,0.6-0.1,0.9-0.2
	c0.9-0.1,1.9-0.3,2.8-0.5c0,0,0.1,0,0.2,0c0.1,0,0.1,0,0.2,0c0.5-0.1,1-0.2,1.4-0.3V176c-2.1,0.4-4.2,0.8-6.5,1.2V154.7z
	 M111.9,151.5v-7.8v-1v-1V129c2.2-0.1,4.4-0.2,6.5-0.3V142v1v1v7.2C116.3,151.3,114.1,151.4,111.9,151.5z M104.5,143.6v-1v-1v-12.5
	c2.2,0,4.3,0,6.5-0.1v12.7v1v1v7.8c-2.1,0.1-4.3,0.1-6.5,0.1V143.6z M107.1,155.4c0.2-0.1,0.4-0.1,0.6-0.1c0.2,0,0.4,0,0.6-0.1
	c0.6-0.1,1.3-0.2,1.9-0.3c0.4-0.1,0.8-0.1,1.2-0.2h0.1v22.5c-2.1,0.4-4.3,0.7-6.5,1v-22.5c0.1,0,0.1,0,0.2,0c0.3-0.1,0.6-0.1,1-0.2
	S106.8,155.5,107.1,155.4z M171.4,139.3V117c2.1-1.2,3.8-2.5,5.1-3.9l0.1-0.1c0.2-0.3,0.5-0.6,0.7-0.8c0.1-0.1,0.1-0.1,0.1-0.1v19.4
	C177.4,134.2,175.2,136.9,171.4,139.3z M127.2,72.2v13.7v1v1v6.8c-2.2-0.1-4.4-0.2-6.5-0.3v-7.1v-1v-1V71.9c0.7,0,1.4,0.1,2.1,0.1
	c0.5,0,1,0,1.4,0.1c0.7,0,1.4,0.1,2.2,0.1C126.7,72.2,126.9,72.2,127.2,72.2z M116.9,71.6c0.4,0,0.8,0.1,1.2,0.1
	c0.4,0,0.8,0.1,1.2,0.1c0.2,0,0.3,0,0.5,0v13.5v1v1v7.1c-2.2-0.1-4.4-0.3-6.5-0.5V87v-1v-1V71.4c0.9,0.1,1.7,0.1,2.6,0.2
	c0.2,0,0.3,0,0.5,0S116.8,71.6,116.9,71.6z M112.3,71.3c0.1,0,0.1,0,0.1,0V85v1v1v6.9c-2.2-0.2-4.4-0.4-6.5-0.7v-6.3v-1v-1V70.7h0.1
	c0.7,0,1.5,0.1,2.2,0.2c0.3,0,0.7,0,1,0.1C110.2,71.1,111.3,71.2,112.3,71.3z M104.9,70.5v14.3v1v1V93c-2.2-0.3-4.4-0.7-6.5-1v-5.2
	v-1v-1V69.5c0.1,0,0.1,0,0.2,0c0.4,0.1,0.7,0.1,1.1,0.2c0.6,0.1,1.2,0.2,1.9,0.3c0.4,0.1,0.8,0.1,1.1,0.2c0.7,0.1,1.3,0.2,2,0.3
	C104.8,70.5,104.8,70.5,104.9,70.5z M95.6,69.1c0.3,0,0.6,0.1,0.9,0.1c0.3,0.1,0.7,0.1,1,0.2v15.3v1v1v5c-2.2-0.3-4.4-0.8-6.5-1.2
	V87v-1v-1V68.1c0.5,0.1,1,0.2,1.5,0.3c0.1,0.1,0.2,0.1,0.3,0.1c0.5,0.1,0.9,0.2,1.4,0.3C94.7,68.9,95.2,69,95.6,69.1z M83.6,88.8
	v-1.2v-1v-1V66.4v0c0,0.1,0.1,0.1,0.2,0.1c0.3,0.1,0.6,0.2,0.9,0.3c0.5,0.1,1.1,0.3,1.6,0.4c0.4,0,0.7,0.1,1,0.2
	c0.6,0.1,1.2,0.2,1.8,0.4c0.3,0.1,0.6,0.1,0.9,0.2h0.1h0v17.1v1v1v3.3h0c-1.1-0.2-2.2-0.5-3.3-0.8S84.7,89.1,83.6,88.8z M82.8,66.1
	v19.5v1v1v0.9c-0.8-0.2-1.6-0.5-2.3-0.7c-0.8-0.3-1.6-0.5-2.4-0.8c-0.7-0.3-1.3-0.5-1.9-0.7v-0.1V63.9c0.1,0.1,0.2,0.1,0.4,0.2
	c0.1,0,0.2,0.1,0.3,0.1c0.7,0.3,1.4,0.6,2.2,0.8c0.2,0.1,0.4,0.1,0.6,0.2c0.5,0.2,1.1,0.4,1.8,0.6c0.3,0,0.6,0.1,0.9,0.2
	C82.5,66,82.7,66.1,82.8,66.1z M70.2,61.6c0.3,0.1,0.5,0.2,0.7,0.3c0.2,0,0.4,0.1,0.6,0.2c0.2,0.1,0.4,0.2,0.6,0.3
	c0.1,0,0.2,0.1,0.3,0.1s0.2,0.1,0.3,0.2c0.3,0.2,0.7,0.3,0.9,0.4c0.1,0,0.2,0.1,0.2,0.1c0.3,0.1,0.5,0.2,0.7,0.3
	c0.2,0.1,0.3,0.1,0.5,0.2v22.4c-2.5-1-4.6-2-6.5-3.1V60.9v-0.2c0.2,0.1,0.3,0.1,0.4,0.2l0.1,0.1c0.2,0.1,0.4,0.2,0.5,0.3
	C69.8,61.4,70,61.5,70.2,61.6z M67.8,60.2v0.9v21.4c-3.8-2.4-6-5.1-5.9-7.7V62.3v-1.1v-1v-4.8c0.1,0,0.1,0.1,0.2,0.2
	c0.1,0.1,0.2,0.3,0.3,0.4c0.2,0.2,0.4,0.4,0.6,0.6c0.1,0.1,0.3,0.3,0.4,0.4c0.2,0.2,0.5,0.4,0.7,0.6c0.1,0.1,0.3,0.2,0.4,0.3
	c0.3,0.3,0.6,0.5,1,0.8c0.1,0.1,0.1,0.1,0.2,0.2c0.2,0.1,0.4,0.3,0.6,0.4c0.3,0.2,0.5,0.3,0.8,0.5c0.1,0,0.3,0.1,0.4,0.2l0.1,0.1
	C67.7,60.1,67.7,60.2,67.8,60.2z M69.1,32.6c0.4,0.2,0.7,0.4,1.1,0.6c0.2,0.1,0.5,0.2,0.7,0.3c0.3,0.2,0.7,0.3,1.1,0.5
	c0.2,0.1,0.5,0.2,0.7,0.3c0.4,0.1,0.9,0.3,1.3,0.5c0.2,0.1,0.5,0.2,0.7,0.3c0.2,0.1,0.3,0.1,0.5,0.2v1.2v1.1l-0.1,1.1v1.8
	c0,4.7,0,17.2,0,17.2h0c-1.2-0.5-2.4-1-3.5-1.5c-0.8-0.4-1.6-0.8-2.4-1.2c-0.2-0.1-0.4-0.2-0.7-0.4V41.7v-1.1v-1.1v-7.2v0
	c0.2,0.1,0.3,0.2,0.4,0.2C69,32.6,69.1,32.6,69.1,32.6z M76.2,58V38.5v-1.1v-1.1v-0.6c0.2,0,0.3,0.1,0.4,0.1c0.2,0,0.3,0.1,0.4,0.1
	s0.1,0,0.1,0c0.5,0.2,1,0.3,1.5,0.5c0.2,0.1,0.4,0.1,0.6,0.2c0.2,0.1,0.5,0.1,0.7,0.2c0.1,0,0.2,0.1,0.3,0.1
	c0.4,0.1,0.8,0.3,1.2,0.4c0.3,0.1,0.6,0.2,0.9,0.3c0.1,0,0.3,0.1,0.4,0.1v19.6v1v1v0.9c-0.8-0.3-1.6-0.5-2.2-0.7
	c-0.8-0.3-1.6-0.5-2.4-0.8C77.4,58.5,76.8,58.2,76.2,58z M90.1,56.7v1v0.9v3.3h0c-1.1-0.2-2.2-0.5-3.3-0.8s-2.2-0.5-3.2-0.8v-1.2v-1
	v-1V37.9v0c0,0,0.1,0.1,0.1,0.1c0,0,0,0,0.1,0c0.3,0.1,0.7,0.2,1,0.3c0.5,0.1,1,0.3,1.5,0.4c0.3,0.1,0.7,0.2,1,0.3
	c0.6,0.1,1.1,0.3,1.7,0.4c0.3,0.1,0.7,0.1,1.1,0.2v1.6C90.1,45.4,90.1,56.7,90.1,56.7z M95.6,40.6c0.3,0.1,0.7,0.1,1,0.2
	c0.3,0.1,0.6,0.1,0.9,0.2v15.4v1v0.9v5c-2.2-0.3-4.4-0.8-6.5-1.2v-3.5v-1v-1V39.7c0.4,0.1,0.9,0.2,1.3,0.3c0.2,0,0.3,0.1,0.5,0.1
	C93.7,40.3,94.6,40.4,95.6,40.6z M98.5,63.7v-5.2v-1v-1V41.2h0.1c0.4,0.1,0.8,0.1,1.2,0.2c0.6,0.1,1.2,0.2,1.8,0.3
	c0.4,0.1,0.9,0.1,1.3,0.2c0.7,0,1.3,0.1,1.9,0.2c0,0,0.1,0,0.2,0v14.3v1v1.1v6.2C102.8,64.4,100.6,64,98.5,63.7z M105.9,64.8v-6.3
	v-1v-1V42.3c0.1,0,0.1,0,0.2,0h0c0.7,0.1,1.3,0.1,2,0.2c0.2,0,0.4,0,0.6,0c0.2,0,0.4,0,0.6,0c0.9,0.1,1.8,0.2,2.7,0.3
	c0.1,0,0.3,0,0.4,0v13.6v1v1.2v6.8C110.2,65.3,108,65.1,105.9,64.8z M115.7,43.2c0.5,0,0.9,0.1,1.3,0.1c0.8,0,1.5,0.1,2.2,0.1
	c0.2,0,0.4,0,0.6,0v13.4v1h-0.2v1.1V66c-2.2-0.1-4.4-0.3-6.5-0.5v-6.9v0v-1v0v-1v0V43C114,43.1,114.8,43.1,115.7,43.2z M134.6,59.3
	v1.1v6.1h0c-1.1,0-2.2,0-3.2,0c-1.1,0-2.2,0-3.2-0.1v-6.8v-1v-1V43.9c0.7,0,1.3,0,2,0c0.5,0,0.9,0,1.4,0c1.1,0,2.1,0,3.2,0v14.4
	L134.6,59.3z M127.3,57.4l-0.1,1v1.1v6.8c-2.2-0.1-4.4-0.2-6.5-0.3v-7.2v-1v-1V43.4c0.7,0,1.4,0.1,2.1,0.1c0.5,0.1,1,0.1,1.5,0.1
	c0.7,0.1,1.4,0.1,2.1,0.1c0.3,0,0.6,0,0.9,0V57.4z M135.5,66.3v-6v-1v-1V43.8c1.1,0,2.2,0,3.2,0c0.5,0,0.9,0,1.4,0h0
	c0.7,0,1.3,0,2,0h0v15.6v1h0H142v0.9v4.9C139.9,66.3,137.7,66.3,135.5,66.3z M143,66.3v-4.7v-1.1v-1V43.8c0.3,0,0.6,0,0.9,0
	c0.7,0,1.4-0.1,2.1-0.1c0.5-0.1,1-0.1,1.5-0.1c0.7,0,1.4-0.1,2.1-0.1v17.2v1.1h-0.1v1.1V66C147.4,66.1,145.2,66.2,143,66.3z
	 M156.8,63.7v1.1v0.7c-1,0.1-2.1,0.2-3.2,0.3c-1.1,0.1-2.2,0.2-3.3,0.2v-2.9V62v-1V43.3c0.2,0,0.4,0,0.6,0c0.4,0,0.8,0,1.1,0
	c0.4,0,0.7,0,1.1-0.1c0.5,0,0.9-0.1,1.3-0.1c0.9-0.1,1.8-0.1,2.6-0.2v19.7v1.1H156.8L156.8,63.7z M161.1,42.5c0.2,0,0.4,0,0.6,0
	c0.2,0,0.4,0,0.6,0c0.7,0,1.3-0.1,2-0.2c0.1,0,0.1,0,0.2,0v22.5c-0.4,0-0.7,0.1-1,0.1c-0.4,0-0.8,0.1-1.1,0.1s-0.7,0-1.1,0
	c-0.8,0.1-1.7,0.2-2.5,0.3c-0.2,0-0.5,0.1-0.8,0.1V65v-1v-1.2v-20c0.1,0,0.3,0,0.4,0C159.3,42.7,160.2,42.6,161.1,42.5z M168.8,41.6
	c0.6-0.1,1.2-0.2,1.8-0.3c0.4-0.1,0.8-0.1,1.2-0.2h0.1v22.4c-2.1,0.4-4.3,0.7-6.5,1V42c0,0,0.1,0,0.2,0c0.7,0,1.3-0.1,1.9-0.2
	C167.9,41.7,168.4,41.7,168.8,41.6z M177.5,40.1c0.2,0,0.3-0.1,0.5-0.1c0.4-0.1,0.9-0.2,1.3-0.2v22.5c-2.1,0.4-4.2,0.8-6.5,1.2V41
	c0.3-0.1,0.6-0.1,0.9-0.2c0.3-0.1,0.7-0.1,1-0.2C175.6,40.5,176.6,40.3,177.5,40.1z M186.6,60.4c-1,0.3-2,0.6-3.1,0.8
	c-1.1,0.3-2.2,0.5-3.4,0.8h0V39.6c0,0,0,0,0,0c0.1,0,0.1,0,0.1,0c0.4-0.1,0.7-0.1,1-0.2c0.6-0.1,1.1-0.3,1.7-0.4
	c0.3-0.1,0.7-0.2,1-0.3c0.6-0.1,1.1-0.3,1.6-0.4c0.3-0.1,0.7-0.2,1-0.3L186.6,60.4z M187.7,37.5c0.1,0,0.3-0.1,0.4-0.1
	c0.3-0.1,0.6-0.2,0.9-0.3c0.5-0.1,0.9-0.3,1.3-0.4c0.1,0,0.2-0.1,0.3-0.1c0.2-0.1,0.5-0.1,0.7-0.2c0.2-0.1,0.4-0.1,0.6-0.2
	c0.5-0.1,1-0.3,1.5-0.5c0.1,0,0.1,0,0.1,0c0.2,0,0.3-0.1,0.4-0.1c0.1,0,0.2-0.1,0.3-0.1v0.6v1.1v1.1v19.5c-2,0.7-4.2,1.4-6.5,2.1
	V37.5z M195,57.6v-19v-1.1v-1.1v-1.2c0.2-0.1,0.3-0.1,0.5-0.2s0.5-0.2,0.7-0.3c0.5-0.1,0.9-0.3,1.3-0.5c0.2-0.1,0.5-0.2,0.7-0.3
	c0.4-0.2,0.7-0.3,1.1-0.5c0.2-0.1,0.5-0.2,0.7-0.3c0.4-0.1,0.8-0.3,1.1-0.5c0.2-0.1,0.3-0.2,0.5-0.3v7.2v1.1h-0.1v1.1v12.8
	C199.7,55.6,197.5,56.6,195,57.6z M202.8,31.6c0.1-0.1,0.3-0.2,0.4-0.3c0.2-0.2,0.5-0.3,0.7-0.5c0.2-0.1,0.5-0.3,0.7-0.4
	c0-0.1,0.1-0.1,0.2-0.2c0.3-0.3,0.7-0.5,1-0.8c0.1-0.1,0.3-0.2,0.4-0.3c0.2-0.2,0.5-0.4,0.7-0.6c0.1-0.1,0.3-0.3,0.4-0.4
	c0.2-0.2,0.4-0.4,0.6-0.6c0,0,0.1-0.1,0.1-0.1c0.1-0.1,0.2-0.2,0.2-0.3c0,0,0.1,0,0.1-0.1c0,0,0-0.1,0.1-0.1l0,0v17.9v1.3
	c0,0.2,0,0.3,0,0.4c0,0.6-0.1,1.1-0.3,1.6c-0.2,0.5-0.4,1-0.8,1.6c-1,1.5-2.7,3-4.8,4.3V42.2v-1.1V40v-8.2c0.1,0,0.1-0.1,0.2-0.1
	C202.7,31.7,202.8,31.6,202.8,31.6z M202.5,82.4V60.1c0,0,0.1-0.1,0.1-0.1c0,0,0.1,0,0.2-0.1c0.1,0,0.3-0.1,0.4-0.2
	c0.2-0.2,0.5-0.3,0.7-0.5c0.2-0.1,0.5-0.3,0.7-0.5c0-0.1,0.1-0.1,0.2-0.2c0.3-0.3,0.7-0.5,1-0.8c0.1-0.1,0.3-0.2,0.4-0.3
	c0.2-0.2,0.5-0.4,0.7-0.6c0.1-0.1,0.3-0.3,0.4-0.4c0.2-0.2,0.4-0.4,0.6-0.6c0.1-0.1,0.3-0.2,0.4-0.4c0.1,0,0.1-0.1,0.2-0.2l0,0v19.3
	C208.5,77.3,206.3,80,202.5,82.4L202.5,82.4z M62.1,27c0.1,0.1,0.2,0.3,0.3,0.4c0.2,0.2,0.4,0.4,0.6,0.6c0.1,0.1,0.3,0.3,0.4,0.4
	c0.2,0.2,0.5,0.4,0.7,0.6c0.1,0.1,0.3,0.2,0.4,0.3c0.3,0.3,0.6,0.5,1,0.8c0,0.1,0.1,0.1,0.2,0.2c0.4,0.3,0.9,0.6,1.4,0.9
	c0.1,0.1,0.3,0.2,0.4,0.3s0.2,0.1,0.3,0.2V40v1.2v1.1v11.8c-2.9-1.9-4.8-3.8-5.6-5.9c-0.2-0.5-0.3-1.1-0.4-1.5c0-0.2,0-0.3,0-0.4V45
	V26.9C61.9,27,62,27,62.1,27z M30.8,84c0,0,0.1,0.1,0.1,0.1c0,0,0.1,0.1,0.1,0.2c0,0.1,0.1,0.2,0.2,0.2c0.2,0.2,0.4,0.4,0.6,0.6
	c0.1,0,0.1,0.1,0.2,0.2c0.1,0.1,0.2,0.2,0.2,0.2c0.1,0.1,0.2,0.2,0.4,0.3c0.1,0.1,0.2,0.2,0.3,0.3c0,0,0.1,0.1,0.2,0.1
	c0.1,0.1,0.1,0.1,0.2,0.2c0.3,0.3,0.6,0.5,1,0.8c0.1,0.1,0.1,0.1,0.2,0.2c0.4,0.3,0.9,0.6,1.4,0.9c0.1,0,0.3,0.1,0.4,0.2
	c0.1,0.1,0.2,0.1,0.3,0.2v8.2V98v1.1v11.8v0c-0.4-0.2-0.7-0.5-1-0.7c-2.3-1.7-3.9-3.3-4.6-5.2c0-0.2-0.1-0.5-0.1-0.7
	c0-0.2-0.1-0.5-0.2-0.7v0c0-0.2,0-0.3,0-0.4v-1.3L30.8,84C30.8,83.9,30.8,83.9,30.8,84z M30.8,112.2c0,0,0.1,0,0.1,0.1
	c0.1,0.2,0.3,0.3,0.4,0.5c0.2,0.2,0.3,0.3,0.5,0.5c0.1,0.2,0.3,0.3,0.5,0.5c0.2,0.1,0.3,0.3,0.5,0.4s0.4,0.3,0.6,0.5
	c0.1,0.1,0.3,0.2,0.4,0.3c0.5,0.4,1.1,0.9,1.8,1.3c0.1,0,0.1,0.1,0.2,0.2c0.1,0.1,0.2,0.1,0.3,0.1v0v0.6v1.1v20.6
	c-3.5-2.3-5.4-4.8-5.4-7.4v-12.1v0v-1.1v-1L30.8,112.2l-0.1-0.1C30.8,112.1,30.8,112.2,30.8,112.2z M60.4,179.6v-22.5
	c0.7,0,1.4,0.1,2.1,0.1c0.5,0.1,0.9,0.1,1.4,0.1c0.8,0,1.5,0,2.2,0.1c0.3,0,0.5,0,0.8,0v22.5C64.7,179.8,62.5,179.7,60.4,179.6z
	 M66.4,183v22.5c-2.2-0.3-4.4-0.8-6.5-1.2v-22.5C62,182.2,64.1,182.6,66.4,183z M58.9,181.7v22.4c-2.2-0.5-4.4-1-6.5-1.6v-21.4
	c2,0.2,4,0.3,6,0.5C58.6,181.6,58.7,181.7,58.9,181.7z M59.1,179.6C59,179.6,59,179.6,59.1,179.6c-2.1-0.2-4.1-0.3-6.1-0.5v-1v0
	v-21.5v0c0.5,0,0.9,0.1,1.3,0.1c0.4,0,0.9,0,1.3,0.1c0.3,0.1,0.7,0.1,1,0.1c0.4,0,0.8,0,1.2,0.1c0.4,0,0.8,0.1,1.3,0.1
	c0.2,0,0.3,0,0.5,0v0v22.5C59.4,179.6,59.3,179.6,59.1,179.6z M47.4,178.5c-0.6-0.1-1.2-0.1-1.8-0.2v-0.4v-1.1v-1.1v-19.9h0.1
	c0.7,0.1,1.5,0.2,2.2,0.3c0.3,0,0.7,0.1,1,0.1c1.1,0.1,2.1,0.2,3.2,0.4v0v21.3v1v0.1c-0.2-0.1-0.4-0.1-0.6-0.1
	C50.1,178.8,48.8,178.7,47.4,178.5z M51.5,181v21.2c-1.1-0.3-2.3-0.7-3.4-1c-1.1-0.4-2.1-0.7-3.1-1.1v0v-19.8
	C47.1,180.6,49.3,180.8,51.5,181z M44.4,178.2c-0.1,0-0.2,0-0.3,0c-1-0.2-2.1-0.3-3.1-0.5c-1-0.1-2-0.3-2.9-0.5v-2.6v-1.1v0v-1.1
	v-17.4v0v-0.3c0.1,0,0.1,0,0.2,0c0,0,0.1,0,0.2,0c0.2,0,0.5,0.1,0.8,0.1c0.7,0.1,1.3,0.2,2,0.3c0.4,0.1,0.8,0.1,1.2,0.2
	c0.7,0.1,1.4,0.2,2.1,0.4h0.1v19.7v1v0.1v0v1.1v0.6C44.6,178.2,44.5,178.2,44.4,178.2z M44.1,180.2v19.6c-2.5-1-4.6-2-6.5-3.1v-17.5
	C39.7,179.6,41.9,179.9,44.1,180.2z M30.8,176v-6.9v-1.7v0v-3.2v-0.5v-3.2v-1.7v-5.2v0c0.2,0,0.5,0.1,0.8,0.2s0.5,0.1,0.8,0.2
	c0,0,0,0,0.1,0c1,0.1,1.9,0.3,2.9,0.5c0.1,0,0.1,0,0.2,0c0.2,0,0.4,0.1,0.6,0.1s0.5,0.1,0.9,0.2c0.1,0,0.2,0,0.3,0v0.9V172v1v0.2
	v1.1v2.9c-0.2,0-0.4-0.1-0.6-0.1C34.7,176.8,32.7,176.4,30.8,176z M36.7,179v17.1c-3.9-2.4-6-5-6-7.8v-10.4
	C32.6,178.3,34.6,178.6,36.7,179z M23.5,151.8c0.3,0,0.6,0.1,0.9,0.2c0.6,0.1,1.1,0.3,1.7,0.4c0.2,0,0.3,0,0.5,0.1
	c0.2,0,0.3,0.1,0.5,0.1c0.4,0,0.7,0.1,1,0.2s0.6,0.2,0.9,0.2c0.2,0.1,0.4,0.1,0.5,0.2c0.1,0,0.1,0.1,0.2,0.1h0.1v6.6v2.7v0v1.2v1.2
	v2.6v0v8v0h-0.1c-0.1-0.1-0.3-0.1-0.5-0.1c-0.2,0-0.3,0-0.5-0.1c-1.9-0.4-3.7-0.8-5.4-1.3v0v-22.4C23.3,151.8,23.4,151.8,23.5,151.8
	z M22.4,151.3v22.4c-2.3-0.6-4.5-1.4-6.5-2.1v-22.4c0.2,0.1,0.3,0.1,0.5,0.2c0.1,0,0.1,0.1,0.2,0.1c0.7,0.3,1.4,0.6,2.2,0.8
	c0.2,0.1,0.4,0.1,0.6,0.2c0.5,0.1,1.1,0.3,1.7,0.5c0.3,0.1,0.5,0.2,0.8,0.2C22.1,151.2,22.2,151.3,22.4,151.3z M14.8,148.9v22.4
	c-2.5-1-4.6-2-6.5-3.1v-22.3v0c0.1,0,0.2,0.1,0.2,0.2c0.1,0,0.2,0.1,0.2,0.2c0.4,0.2,0.7,0.4,1.1,0.6c0.2,0,0.3,0.1,0.4,0.2
	c0.1,0.1,0.2,0.1,0.3,0.1c0.2,0,0.4,0.1,0.6,0.2c0.2,0.1,0.4,0.2,0.6,0.3c0.1,0,0.2,0.1,0.4,0.2s0.2,0.1,0.3,0.2
	c0.4,0.2,0.8,0.4,1.3,0.6c0.3,0.1,0.5,0.2,0.5,0.2C14.5,148.8,14.6,148.8,14.8,148.9z M1.8,140.8c0.1,0.1,0.2,0.3,0.3,0.4
	c0.2,0.2,0.4,0.4,0.6,0.6c0.1,0.1,0.3,0.3,0.4,0.4c0.2,0.2,0.5,0.4,0.7,0.6c0.1,0,0.1,0.1,0.2,0.2c0.1,0.1,0.2,0.1,0.2,0.2
	c0.2,0.1,0.3,0.3,0.5,0.4s0.3,0.2,0.5,0.4c0,0,0.1,0.1,0.1,0.1c0,0,0.1,0,0.1,0.1c0.2,0.1,0.4,0.3,0.7,0.4c0.2,0.2,0.5,0.3,0.7,0.5
	c0.1,0.1,0.3,0.2,0.5,0.2c0.1,0,0.1,0.1,0.2,0.1c0,0,0.1,0,0.1,0.1v22.3c-3.9-2.4-6-5-6-7.8v-19.3C1.7,140.6,1.7,140.7,1.8,140.8z"
	/>
</svg>
