<?xml version="1.0" encoding="utf-8"?>
<!-- Generator: Adobe Illustrator 26.5.0, SVG Export Plug-In . SVG Version: 6.00 Build 0)  -->
<svg version="1.1" id="Layer_1" xmlns="http://www.w3.org/2000/svg" xmlns:xlink="http://www.w3.org/1999/xlink" x="0px" y="0px"
	 viewBox="0 0 210 210" style="enable-background:new 0 0 210 210;" xml:space="preserve">
<style type="text/css">
	.st0{fill:none;}
	.st1{fill:#181F1C;}
</style>
<g>
	<path class="st0" d="M1,209h208V1H1V209z M203.1,200.5h-191v-15.4h191V200.5z M12.2,125.6l2.9-1.5c2,3.8,3.9,6.9,6.9,10
		c-1.1-4.2-2.7-7.5-5-11.2l2.7-1.7c2.2,3.6,3.8,6.8,5,10.8c0.4-2.2,1.1-4,1.9-6l3,1.2c-0.9,2.1-1.5,3.9-1.9,6.1l6.5-0.8l2.9,9
		l-6.2,3.6l1.4,2.5l5.7-3.3l0,0l3.5,11l-4,2.2l1.4,2.5l3.4-1.9l5.9,18.4l-2.7,1.6l-17.7-19.6l4.8-2.8l-1.4-2.5l-5.3,3.1l-5.7-6.3
		l5-3l-1.4-2.5l-5.5,3.3l-3.6-4l3.8-5c-2.2-0.9-4.1-1.3-6.4-1.7l0.5-3.2c2.2,0.4,4.1,0.7,6.3,1.5C16.1,132.4,14.1,129.3,12.2,125.6z
		 M43.3,125.6l2.9-1.5c2,3.8,3.9,6.9,6.9,10c-1.1-4.2-2.7-7.5-5-11.2l2.7-1.7c2.2,3.6,3.8,6.8,5,10.8c0.4-2.2,1.1-4,1.9-6l3,1.2
		c-0.9,2.1-1.5,3.9-1.9,6.1l6.5-0.8l2.9,9l-6.2,3.6l1.4,2.5l5.7-3.3l0,0l3.5,11l-4,2.2l1.4,2.5l3.4-1.9l5.9,18.4l-2.7,1.6L59,158.5
		l4.8-2.8l-1.4-2.5l-5.3,3.1l-5.7-6.3l5-3l-1.4-2.5l-5.5,3.3l-3.6-4l3.8-5c-2.2-0.9-4.1-1.3-6.4-1.7l0.5-3.2
		c2.2,0.4,4.1,0.7,6.3,1.5C47.2,132.4,45.2,129.3,43.3,125.6z M74.4,125.6l2.9-1.5c2,3.8,3.9,6.9,6.9,10c-1.1-4.2-2.7-7.5-5-11.2
		l2.7-1.7c2.2,3.6,3.8,6.8,5,10.8c0.4-2.2,1.1-4,1.9-6l3,1.2c-0.9,2.1-1.5,3.9-1.9,6.1l6.5-0.8l2.9,9l-6.2,3.6l1.4,2.5l5.7-3.3l0,0
		l3.5,11l-4,2.2l1.4,2.5l3.4-1.9l5.9,18.4l-2.7,1.6l-17.7-19.6l4.8-2.8l-1.4-2.5l-5.3,3.1l-5.7-6.3l5-3l-1.4-2.5l-5.5,3.3l-3.6-4
		l3.8-5c-2.2-0.9-4.1-1.3-6.4-1.7l0.5-3.2c2.2,0.4,4.1,0.7,6.3,1.5C78.3,132.4,76.4,129.3,74.4,125.6z M150.3,155l-1.4,3.5
		c-2.1-0.8-4-1.6-6.3-2c1.2,1.9,1.9,3.7,2.7,5.7l-3.5,1.4c-0.9-2.3-1.7-4.3-3.2-6.3c-1.5,2-2.3,4-3.2,6.3l-3.5-1.4h0
		c0.8-2,1.5-3.8,2.7-5.7c-2.2,0.4-4.3,1.2-6.3,2l-1.4-3.5c3.4-1.3,6.2-2.3,9.9-2.6c0.2-2.1,0.4-3.4,1.1-5.3l4.2,1.4
		c-0.7,1.1-1.2,2.6-1.5,3.9C144.1,152.7,147,153.7,150.3,155z M172.5,126.7l-1.4,3.5c-2.1-0.8-4-1.6-6.3-2c1.2,1.9,1.9,3.7,2.7,5.7
		l-3.5,1.4c-0.9-2.3-1.7-4.3-3.2-6.3c-1.5,2-2.3,4-3.2,6.3l-3.5-1.4h0c0.8-2,1.5-3.8,2.7-5.7c-2.2,0.4-4.3,1.2-6.3,2l-1.4-3.5
		c3.4-1.3,6.2-2.3,9.9-2.6c0.2-2.1,0.4-3.4,1.1-5.3l4.2,1.4c-0.7,1.1-1.2,2.6-1.5,3.9C166.3,124.3,169.2,125.4,172.5,126.7z
		 M149.4,132.6l3.9-1.5l-1.6,3.8l6.9,2.8c0.7-1.7,1.4-3.5,2.2-5.2c0.8,1.7,1.5,3.5,2.2,5.2l6.9-2.8l-1.6-3.8l3.9,1.5l1.4-3.6
		c2.3,2.3,3.7,5.2,3.7,8.4c0,8.5-8.9,13.3-16.6,13.3c-7.6,0-16.6-4.8-16.6-13.3c0-3.2,1.4-6.1,3.7-8.4L149.4,132.6z M193.9,155
		l-1.4,3.5c-2.1-0.8-4-1.6-6.3-2c1.2,1.9,1.9,3.7,2.7,5.7l-3.5,1.4c-0.9-2.3-1.7-4.3-3.2-6.3c-1.5,2-2.3,4-3.2,6.3l-3.5-1.4h0
		c0.8-2,1.5-3.8,2.7-5.7c-2.2,0.4-4.3,1.2-6.3,2l-1.4-3.5c3.4-1.3,6.2-2.3,9.9-2.6c0.2-2.1,0.4-3.4,1.1-5.3l4.2,1.4
		c-0.7,1.1-1.2,2.6-1.5,3.9C187.7,152.7,190.6,153.7,193.9,155z M179.9,166c0.7-1.7,1.4-3.5,2.2-5.2c0.8,1.7,1.5,3.5,2.2,5.2
		l6.9-2.8l-1.6-3.8l3.9,1.5l1.4-3.6c2.3,2.3,3.7,5.2,3.7,8.4c0,8.5-8.9,13.3-16.6,13.3c-7.6,0-16.6-4.8-16.6-13.3
		c0-3.2,1.4-6.1,3.7-8.4l1.4,3.6l3.9-1.5l-1.6,3.8L179.9,166z M127.1,160.9l3.9-1.5l-1.6,3.8l6.9,2.8c0.7-1.7,1.4-3.5,2.2-5.2
		c0.8,1.7,1.5,3.5,2.2,5.2l6.9-2.8l-1.6-3.8l3.9,1.5l1.4-3.6c2.3,2.3,3.7,5.2,3.7,8.4c0,8.5-8.9,13.3-16.6,13.3
		c-7.6,0-16.6-4.8-16.6-13.3c0-3.2,1.4-6.1,3.7-8.4L127.1,160.9z M7.6,60C7.9,59.7,33,26.7,76.7,24.4h0.4c12.1,0.6,22.8,3.6,32,7.7
		c4.1-4.7,20.4-21.8,46.2-23.2h0.3c29.9,1.6,47,24.2,47.2,24.4l0,0l0.3,0.3l-3.6,3.5l-0.3-0.2c-4.4-3.1-14.2,0-18.3,1.3
		c-0.7,0.2-1.2,0.4-1.6,0.5c-1.2,0.5-2.5,0.3-3.6-0.4c-2.3,4.2-5.9,3.4-10,2.3c-2.1-0.6-4.3-1-6.5-1.1c-0.7,0-1.5-0.1-2.3-0.1v73.8
		h-2.7V39.3c-0.8,0-1.6,0-2.3,0.1c-2.2,0.2-4.4,0.5-6.5,1.1c-4.1,1-7.7,1.9-10-2.3c-1.1,0.7-2.4,0.8-3.6,0.4
		c-0.4-0.1-0.9-0.3-1.6-0.5c-3-1-9.1-2.9-13.9-2.6c19.3,10.4,29.9,24.4,30.1,24.6l0.4,0.5l-5.2,5.1l-0.5-0.3
		c-6.5-4.6-20.7-0.1-26.8,1.9c-1,0.3-1.7,0.6-2.3,0.7c-1.8,0.7-3.7,0.5-5.3-0.6c-3.4,6.2-8.6,4.9-14.7,3.4c-3.1-0.9-6.3-1.4-9.6-1.6
		C81.2,69,80,69,78.8,69v45.8h-3.8V69c-1.2,0-2.4,0-3.5,0.1c-3.2,0.2-6.4,0.8-9.6,1.6c-6.1,1.5-11.3,2.8-14.7-3.4
		c-1.6,1-3.5,1.2-5.3,0.6c-0.5-0.1-1.3-0.4-2.3-0.7c-6.1-1.9-20.3-6.4-26.8-1.9l-0.5,0.3l-5.2-5.1L7.6,60z"/>
	<path class="st0" d="M22.9,194.6c0.7,0.3,1.5,0.1,2.1-0.4c0.6-0.5,0.7-1.4,0.4-2.1c-0.3-0.7-1-1.2-1.8-1.2c-1.1,0-1.9,0.9-1.9,1.9
		C21.7,193.6,22.2,194.3,22.9,194.6z"/>
	<path class="st0" d="M190.8,194.6c0.7,0.3,1.5,0.1,2.1-0.4c0.6-0.5,0.7-1.4,0.4-2.1c-0.3-0.7-1-1.2-1.8-1.2c-1.1,0-1.9,0.9-1.9,1.9
		C189.6,193.6,190.1,194.3,190.8,194.6z"/>
	<g>
		<path class="st1" d="M137.8,147.2c-0.7,1.9-0.9,3.2-1.1,5.3c-3.7,0.2-6.5,1.3-9.9,2.6l1.4,3.5c2.1-0.8,4.1-1.6,6.3-2
			c-1.2,1.9-1.9,3.7-2.7,5.7h0l3.5,1.4c0.9-2.3,1.7-4.3,3.2-6.3c1.5,2.1,2.3,4,3.2,6.3l3.5-1.4c-0.8-2-1.5-3.8-2.7-5.7
			c2.3,0.4,4.2,1.2,6.3,2l1.4-3.5c-3.3-1.3-6.2-2.3-9.8-2.6c0.3-1.3,0.8-2.8,1.5-3.9L137.8,147.2z"/>
		<path class="st1" d="M122,165.7c0,8.5,8.9,13.3,16.6,13.3c7.6,0,16.6-4.8,16.6-13.3c0-3.2-1.4-6.1-3.7-8.4l-1.4,3.6l-3.9-1.5
			l1.6,3.8l-6.9,2.8c-0.7-1.7-1.4-3.5-2.2-5.2c-0.8,1.7-1.5,3.5-2.2,5.2l-6.9-2.8l1.6-3.8l-3.9,1.5l-1.4-3.6
			C123.4,159.6,122,162.5,122,165.7z"/>
		<path class="st1" d="M181.4,147.2c-0.7,1.9-0.9,3.2-1.1,5.3c-3.7,0.2-6.5,1.3-9.9,2.6l1.4,3.5c2.1-0.8,4.1-1.6,6.3-2
			c-1.2,1.9-1.9,3.7-2.7,5.7h0l3.5,1.4c0.9-2.3,1.7-4.3,3.2-6.3c1.5,2.1,2.3,4,3.2,6.3l3.5-1.4c-0.8-2-1.5-3.8-2.7-5.7
			c2.3,0.4,4.2,1.2,6.3,2l1.4-3.5c-3.3-1.3-6.2-2.3-9.8-2.6c0.3-1.3,0.8-2.8,1.5-3.9L181.4,147.2z"/>
		<path class="st1" d="M170.7,160.9l-1.4-3.6c-2.3,2.3-3.7,5.2-3.7,8.4c0,8.5,8.9,13.3,16.6,13.3c7.6,0,16.6-4.8,16.6-13.3
			c0-3.2-1.4-6.1-3.7-8.4l-1.4,3.6l-3.9-1.5l1.6,3.8l-6.9,2.8c-0.7-1.7-1.4-3.5-2.2-5.2c-0.8,1.7-1.5,3.5-2.2,5.2l-6.9-2.8l1.6-3.8
			L170.7,160.9z"/>
		<path class="st1" d="M160,118.9c-0.7,1.9-0.9,3.2-1.1,5.3c-3.7,0.2-6.5,1.3-9.9,2.6l1.4,3.5c2.1-0.8,4.1-1.6,6.3-2
			c-1.2,1.9-1.9,3.7-2.7,5.7h0l3.5,1.4c0.9-2.3,1.7-4.3,3.2-6.3c1.5,2.1,2.3,4,3.2,6.3l3.5-1.4c-0.8-2-1.5-3.8-2.7-5.7
			c2.3,0.4,4.2,1.2,6.3,2l1.4-3.5c-3.3-1.3-6.2-2.3-9.8-2.6c0.3-1.3,0.8-2.8,1.5-3.9L160,118.9z"/>
		<path class="st1" d="M144.2,137.4c0,8.5,8.9,13.3,16.6,13.3c7.6,0,16.6-4.8,16.6-13.3c0-3.2-1.4-6.1-3.7-8.4l-1.4,3.6l-3.9-1.5
			l1.6,3.8l-6.9,2.8c-0.7-1.7-1.4-3.5-2.2-5.2c-0.8,1.7-1.5,3.5-2.2,5.2l-6.9-2.8l1.6-3.8l-3.9,1.5l-1.4-3.6
			C145.6,131.2,144.2,134.2,144.2,137.4z"/>
		<path class="st1" d="M12.1,200.5h191v-15.4h-191V200.5z M191.6,190.9c0.8,0,1.5,0.5,1.8,1.2c0.3,0.7,0.1,1.5-0.4,2.1
			c-0.6,0.5-1.4,0.7-2.1,0.4c-0.7-0.3-1.2-1-1.2-1.8C189.6,191.7,190.5,190.9,191.6,190.9z M23.6,190.9c0.8,0,1.5,0.5,1.8,1.2
			c0.3,0.7,0.1,1.5-0.4,2.1c-0.6,0.5-1.4,0.7-2.1,0.4c-0.7-0.3-1.2-1-1.2-1.8C21.7,191.7,22.6,190.9,23.6,190.9z"/>
		<path class="st1" d="M12.9,65.3c6.5-4.6,20.7-0.1,26.8,1.9c1,0.3,1.7,0.6,2.3,0.7c1.8,0.7,3.7,0.5,5.3-0.6
			c3.4,6.2,8.6,4.9,14.7,3.4c3.1-0.9,6.3-1.4,9.6-1.6c1.1-0.1,2.3-0.1,3.5-0.1v45.9h3.8V69c1.2,0,2.4,0,3.5,0.1
			c3.2,0.2,6.4,0.8,9.6,1.6c6,1.5,11.3,2.8,14.7-3.4c1.6,1,3.5,1.2,5.3,0.6c0.5-0.1,1.3-0.4,2.3-0.7c6.1-1.9,20.3-6.4,26.8-1.9
			l0.5,0.3l5.2-5.1l-0.4-0.5c-0.2-0.2-10.8-14.1-30.1-24.6c4.8-0.3,10.8,1.6,13.9,2.6c0.7,0.2,1.2,0.4,1.6,0.5
			c1.2,0.5,2.5,0.3,3.6-0.4c2.3,4.2,5.9,3.4,10,2.3c2.1-0.6,4.3-1,6.5-1.1c0.7,0,1.5-0.1,2.3-0.1v73.8h2.7V39.3c0.8,0,1.6,0,2.3,0.1
			c2.2,0.2,4.4,0.5,6.5,1.1c4.1,1,7.7,1.9,10-2.3c1.1,0.7,2.4,0.8,3.6,0.4c0.4-0.1,0.9-0.3,1.6-0.5c4.1-1.3,13.9-4.4,18.3-1.3
			l0.3,0.2l3.6-3.5l-0.3-0.3l0,0c-0.2-0.2-17.3-22.8-47.2-24.4h-0.3c-25.9,1.4-42.2,18.4-46.2,23.2c-9.1-4-19.8-7-32-7.7h-0.4
			C33,26.7,7.9,59.7,7.6,60l-0.4,0.5l5.2,5.1L12.9,65.3z"/>
		<path class="st1" d="M12.1,137.2c2.3,0.4,4.2,0.8,6.4,1.7l-3.8,5l3.6,4l5.5-3.3l1.4,2.5l-5,3l5.7,6.3l5.3-3.1l1.4,2.5l-4.8,2.8
			l17.7,19.6l2.7-1.6l-5.9-18.4l-3.4,1.9l-1.4-2.5l4-2.2l-3.5-11l0,0l-5.7,3.3l-1.4-2.5l6.2-3.6l-2.9-9l-6.5,0.8
			c0.3-2.2,1-4,1.9-6.1l-3-1.2c-0.8,2.1-1.5,3.8-1.9,6c-1.2-4-2.8-7.2-5-10.8L17,123c2.3,3.7,3.8,7,5,11.2c-2.9-3.1-4.9-6.2-6.9-10
			l-2.9,1.5c1.9,3.8,3.9,6.9,6.7,10c-2.1-0.8-4-1.2-6.3-1.5L12.1,137.2z"/>
		<path class="st1" d="M43.2,137.2c2.3,0.4,4.2,0.8,6.4,1.7l-3.8,5l3.6,4l5.5-3.3l1.4,2.5l-5,3l5.7,6.3l5.3-3.1l1.4,2.5l-4.8,2.8
			l17.7,19.6l2.7-1.6l-5.9-18.4l-3.4,1.9l-1.4-2.5l4-2.2l-3.5-11l0,0l-5.7,3.3l-1.4-2.5l6.2-3.6l-2.9-9l-6.5,0.8
			c0.3-2.2,1-4,1.9-6.1l-3-1.2c-0.8,2.1-1.5,3.8-1.9,6c-1.2-4-2.8-7.2-5-10.8l-2.7,1.7c2.3,3.7,3.8,7,5,11.2
			c-2.9-3.1-4.9-6.2-6.9-10l-2.9,1.5c1.9,3.8,3.9,6.9,6.7,10c-2.1-0.8-4-1.2-6.3-1.5L43.2,137.2z"/>
		<path class="st1" d="M74.3,137.2c2.3,0.4,4.2,0.8,6.4,1.7l-3.8,5l3.6,4l5.5-3.3l1.4,2.5l-5,3l5.7,6.3l5.3-3.1l1.4,2.5l-4.8,2.8
			l17.7,19.6l2.7-1.6l-5.9-18.4l-3.4,1.9l-1.4-2.5l4-2.2l-3.5-11l0,0l-5.7,3.3l-1.4-2.5l6.2-3.6l-2.9-9l-6.5,0.8
			c0.3-2.2,1-4,1.9-6.1l-3-1.2c-0.8,2.1-1.5,3.8-1.9,6c-1.2-4-2.8-7.2-5-10.8l-2.7,1.7c2.3,3.7,3.8,7,5,11.2
			c-2.9-3.1-4.9-6.2-6.9-10l-2.9,1.5c1.9,3.8,3.9,6.9,6.7,10c-2.1-0.8-4-1.2-6.3-1.5L74.3,137.2z"/>
		<path class="st1" d="M0,0v210h210V0H0z M209,209H1V1h208V209z"/>
	</g>
</g>
</svg>
