<svg width="25" height="25" viewBox="0 0 25 25" fill="none" xmlns="http://www.w3.org/2000/svg">
<g clip-path="url(#clip0_1364_184752)">
<path d="M25 0H0V25H25V0Z" fill="#F2A8EE"/>
<mask id="path-2-inside-1_1364_184752" fill="white">
<path d="M16.5397 11.4591C17.3346 11.5475 18.0321 11.6848 18.0321 11.6848C16.4456 10.8124 16.4863 7.68202 16.4863 7.68202C16.7642 1.61769 12.762 1.93499 12.762 1.93499V1.94453L12.7588 1.93499C12.7588 1.93499 8.75728 1.61706 9.03452 7.68202C9.03452 7.68202 9.07521 10.8124 7.48871 11.6848C7.48871 11.6848 9.75369 11.1761 11.3644 12.081L10.7743 10.7641C11.3396 11.3287 12.0238 11.6607 12.7607 11.6607C13.4812 11.6607 14.1508 11.3427 14.7091 10.8029L14.2976 11.6607C14.4356 11.433 14.9545 11.3714 15.563 11.3866M15.8333 7.0932C15.7835 7.84398 15.5892 8.57809 15.261 9.25517C14.6976 10.3838 13.7864 11.117 12.7569 11.117C11.1889 11.117 9.89549 9.41286 9.68883 7.20193C9.68883 7.20193 10.9275 6.99654 11.6664 6.70468C11.6664 6.70468 13.0075 6.25957 14.6436 5.07875L14.6684 5.06095C14.6684 5.06095 14.6976 5.10355 14.7389 5.17477C14.8814 5.41831 15.184 6.14384 14.6118 6.4764L15.6597 6.61311H15.6788L15.8695 6.64872C15.8682 6.79767 15.8569 6.94637 15.8358 7.09383L15.8333 7.0932Z"/>
</mask>
<path d="M16.5397 11.4591C17.3346 11.5475 18.0321 11.6848 18.0321 11.6848C16.4456 10.8124 16.4863 7.68202 16.4863 7.68202C16.7642 1.61769 12.762 1.93499 12.762 1.93499V1.94453L12.7588 1.93499C12.7588 1.93499 8.75728 1.61706 9.03452 7.68202C9.03452 7.68202 9.07521 10.8124 7.48871 11.6848C7.48871 11.6848 9.75369 11.1761 11.3644 12.081L10.7743 10.7641C11.3396 11.3287 12.0238 11.6607 12.7607 11.6607C13.4812 11.6607 14.1508 11.3427 14.7091 10.8029L14.2976 11.6607C14.4356 11.433 14.9545 11.3714 15.563 11.3866M15.8333 7.0932C15.7835 7.84398 15.5892 8.57809 15.261 9.25517C14.6976 10.3838 13.7864 11.117 12.7569 11.117C11.1889 11.117 9.89549 9.41286 9.68883 7.20193C9.68883 7.20193 10.9275 6.99654 11.6664 6.70468C11.6664 6.70468 13.0075 6.25957 14.6436 5.07875L14.6684 5.06095C14.6684 5.06095 14.6976 5.10355 14.7389 5.17477C14.8814 5.41831 15.184 6.14384 14.6118 6.4764L15.6597 6.61311H15.6788L15.8695 6.64872C15.8682 6.79767 15.8569 6.94637 15.8358 7.09383L15.8333 7.0932Z" fill="#181F1C"/>
<path d="M18.0321 11.6848L17.8389 12.666L18.514 10.8086L18.0321 11.6848ZM16.4863 7.68202L15.4874 7.63624L15.4866 7.65262L15.4864 7.66902L16.4863 7.68202ZM12.762 1.93499L12.683 0.93812L11.762 1.01114V1.93499H12.762ZM12.762 1.94453L11.8133 2.26078L13.762 1.94453H12.762ZM12.7588 1.93499L13.7075 1.61875L13.4981 0.990578L12.838 0.938133L12.7588 1.93499ZM9.03452 7.68202L10.0344 7.66902L10.0342 7.65268L10.0335 7.63635L9.03452 7.68202ZM7.48871 11.6848L7.00686 10.8086L7.70784 12.6605L7.48871 11.6848ZM11.3644 12.081L10.8746 12.9528L13.5157 14.4366L12.2769 11.6721L11.3644 12.081ZM10.7743 10.7641L11.481 10.0566L9.8617 11.173L10.7743 10.7641ZM14.7091 10.8029L15.6107 11.2353L14.0139 10.084L14.7091 10.8029ZM14.2976 11.6607L13.396 11.2282L15.1528 12.179L14.2976 11.6607ZM15.8333 7.0932L16.0758 6.12305L14.9146 5.83275L14.8355 7.02708L15.8333 7.0932ZM15.261 9.25517L16.1558 9.70181L16.1608 9.69137L15.261 9.25517ZM9.68883 7.20193L9.52525 6.2154L8.6065 6.36774L8.69317 7.295L9.68883 7.20193ZM11.6664 6.70468L11.3514 5.75559L11.3249 5.76437L11.299 5.77461L11.6664 6.70468ZM14.6436 5.07875L14.0603 4.26643L14.0583 4.26788L14.6436 5.07875ZM14.6684 5.06095L15.4928 4.49494L14.9147 3.65302L14.0851 4.24863L14.6684 5.06095ZM14.7389 5.17477L13.874 5.67672L13.8757 5.67962L14.7389 5.17477ZM14.6118 6.4764L14.1093 5.61179L11.5691 7.08793L14.4824 7.468L14.6118 6.4764ZM15.6597 6.61311L15.5303 7.60471L15.5947 7.61311H15.6597V6.61311ZM15.6788 6.61311L15.8623 5.63009L15.7713 5.61311H15.6788V6.61311ZM15.8695 6.64872L16.8695 6.65793L16.8772 5.81955L16.053 5.6657L15.8695 6.64872ZM15.8358 7.09383L15.5933 8.06398L16.6689 8.33289L16.8258 7.23529L15.8358 7.09383ZM16.4292 12.453C16.8036 12.4946 17.1581 12.5482 17.4204 12.5916C17.551 12.6133 17.6575 12.6322 17.7305 12.6456C17.767 12.6523 17.795 12.6576 17.8135 12.6611C17.8228 12.6629 17.8296 12.6642 17.8339 12.665C17.836 12.6654 17.8375 12.6657 17.8384 12.6659C17.8388 12.666 17.8391 12.666 17.8392 12.666C17.8392 12.6661 17.8392 12.6661 17.8392 12.666C17.8392 12.666 17.8391 12.666 17.8391 12.666C17.8391 12.666 17.839 12.666 17.839 12.666C17.839 12.666 17.8389 12.666 18.0321 11.6848C18.2253 10.7037 18.2253 10.7037 18.2252 10.7037C18.2252 10.7037 18.2251 10.7036 18.2251 10.7036C18.225 10.7036 18.2249 10.7036 18.2248 10.7036C18.2246 10.7035 18.2244 10.7035 18.2241 10.7034C18.2235 10.7033 18.2227 10.7032 18.2218 10.703C18.22 10.7026 18.2175 10.7021 18.2143 10.7015C18.208 10.7003 18.1991 10.6986 18.1877 10.6964C18.1649 10.6921 18.1323 10.6859 18.0909 10.6784C18.0083 10.6632 17.8907 10.6423 17.7476 10.6186C17.4624 10.5713 17.0707 10.512 16.6502 10.4652L16.4292 12.453ZM18.514 10.8086C18.1391 10.6024 17.8246 10.0119 17.6427 9.14982C17.561 8.76224 17.5212 8.39223 17.5024 8.11664C17.4931 7.98005 17.4891 7.86962 17.4874 7.79549C17.4866 7.75849 17.4863 7.73074 17.4862 7.71353C17.4862 7.70492 17.4862 7.69897 17.4862 7.69583C17.4862 7.69426 17.4863 7.69339 17.4863 7.69325C17.4863 7.69317 17.4863 7.69328 17.4863 7.69358C17.4862 7.69373 17.4862 7.69392 17.4862 7.69416C17.4862 7.69428 17.4862 7.69449 17.4862 7.69455C17.4862 7.69478 17.4862 7.69501 16.4863 7.68202C15.4864 7.66902 15.4864 7.66928 15.4864 7.66955C15.4864 7.66966 15.4864 7.66994 15.4864 7.67016C15.4864 7.67059 15.4864 7.67107 15.4864 7.67159C15.4864 7.67265 15.4863 7.67389 15.4863 7.67533C15.4863 7.6782 15.4863 7.68184 15.4863 7.68622C15.4862 7.69497 15.4862 7.7067 15.4863 7.72124C15.4864 7.75031 15.4868 7.79066 15.4879 7.84097C15.4902 7.94144 15.4954 8.08239 15.5071 8.25291C15.5302 8.59153 15.5795 9.05865 15.6858 9.56272C15.8802 10.4839 16.3387 11.8948 17.5503 12.5611L18.514 10.8086ZM17.4853 7.72779C17.6348 4.46459 16.6287 2.64761 15.3033 1.7162C14.6718 1.27242 14.0327 1.0788 13.5557 0.995187C13.3161 0.953193 13.1122 0.937982 12.9625 0.933625C12.8874 0.93144 12.8252 0.931965 12.7781 0.933325C12.7545 0.934005 12.7346 0.934897 12.7187 0.935771C12.7107 0.936208 12.7037 0.936641 12.6978 0.937042C12.6948 0.937242 12.6921 0.937434 12.6896 0.937615C12.6884 0.937706 12.6872 0.937793 12.6861 0.937878C12.6855 0.93792 12.6848 0.93798 12.6845 0.938001C12.6837 0.938061 12.683 0.93812 12.762 1.93499C12.841 2.93186 12.8403 2.93192 12.8396 2.93198C12.8394 2.93199 12.8387 2.93205 12.8383 2.93208C12.8374 2.93214 12.8366 2.9322 12.8359 2.93226C12.8344 2.93237 12.8331 2.93246 12.832 2.93253C12.8299 2.93267 12.8287 2.93274 12.8283 2.93276C12.8275 2.93281 12.8301 2.93266 12.8357 2.93249C12.8471 2.93217 12.8706 2.9318 12.9044 2.93278C12.9724 2.93476 13.0791 2.94214 13.2104 2.96515C13.4751 3.01155 13.8191 3.11763 14.1534 3.35256C14.7596 3.77858 15.6157 4.83512 15.4874 7.63624L17.4853 7.72779ZM11.762 1.93499V1.94453H13.762V1.93499H11.762ZM13.7107 1.62828L13.7075 1.61875L11.8102 2.25124L11.8133 2.26078L13.7107 1.62828ZM12.7588 1.93499C12.838 0.938133 12.8373 0.938074 12.8365 0.938015C12.8362 0.937993 12.8355 0.937933 12.8349 0.93789C12.8338 0.937806 12.8326 0.937718 12.8314 0.937628C12.8289 0.937446 12.8262 0.937253 12.8232 0.937052C12.8173 0.936651 12.8103 0.936216 12.8023 0.935778C12.7864 0.934901 12.7665 0.934006 12.7429 0.933322C12.6958 0.931955 12.6336 0.931421 12.5585 0.933595C12.4088 0.93793 12.2049 0.953113 11.9654 0.995079C11.4884 1.07864 10.8493 1.27219 10.2178 1.71596C8.89242 2.64729 7.88638 4.46427 8.03556 7.72768L10.0335 7.63635C9.90541 4.8348 10.7615 3.77827 11.3677 3.35233C11.7019 3.11746 12.0458 3.01144 12.3105 2.96508C12.4417 2.94209 12.5483 2.93473 12.6164 2.93276C12.6501 2.93178 12.6736 2.93215 12.685 2.93248C12.6906 2.93265 12.6932 2.9328 12.6924 2.93275C12.692 2.93273 12.6907 2.93266 12.6886 2.93252C12.6876 2.93245 12.6863 2.93236 12.6848 2.93225C12.684 2.93219 12.6832 2.93213 12.6824 2.93207C12.6819 2.93203 12.6813 2.93198 12.681 2.93196C12.6803 2.93191 12.6796 2.93185 12.7588 1.93499ZM9.03452 7.68202C8.0346 7.69501 8.0346 7.69478 8.0346 7.69455C8.0346 7.69449 8.03459 7.69428 8.03459 7.69416C8.03459 7.69392 8.03459 7.69373 8.03458 7.69358C8.03458 7.69328 8.03458 7.69317 8.03458 7.69325C8.03458 7.69339 8.03459 7.69426 8.0346 7.69583C8.03461 7.69897 8.03463 7.70492 8.03459 7.71353C8.03453 7.73074 8.03427 7.75849 8.03343 7.79549C8.03174 7.86962 8.02774 7.98005 8.01841 8.11664C7.99959 8.39223 7.95987 8.76224 7.8781 9.14982C7.69619 10.0119 7.38176 10.6024 7.00686 10.8086L7.97056 12.5611C9.18216 11.8948 9.64063 10.4839 9.83501 9.56272C9.94137 9.05865 9.99064 8.59153 10.0138 8.25291C10.0254 8.08239 10.0306 7.94144 10.0329 7.84097C10.0341 7.79067 10.0345 7.75031 10.0346 7.72124C10.0346 7.7067 10.0346 7.69497 10.0346 7.68622C10.0346 7.68184 10.0345 7.6782 10.0345 7.67533C10.0345 7.67389 10.0345 7.67265 10.0345 7.67159C10.0345 7.67107 10.0345 7.67059 10.0344 7.67016C10.0344 7.66994 10.0344 7.66966 10.0344 7.66955C10.0344 7.66928 10.0344 7.66902 9.03452 7.68202ZM7.48871 11.6848C7.70784 12.6605 7.7076 12.6606 7.70736 12.6606C7.70729 12.6607 7.70706 12.6607 7.70693 12.6607C7.70666 12.6608 7.70642 12.6609 7.70621 12.6609C7.70581 12.661 7.70553 12.661 7.70539 12.6611C7.7051 12.6611 7.70533 12.6611 7.70608 12.6609C7.70759 12.6606 7.71114 12.6598 7.71666 12.6587C7.72771 12.6564 7.74659 12.6526 7.77259 12.6478C7.82468 12.6381 7.90487 12.6242 8.00766 12.6097C8.21435 12.5805 8.5063 12.5496 8.84086 12.5434C9.53533 12.5307 10.2953 12.6274 10.8746 12.9528L11.8541 11.2091C10.8228 10.6297 9.64489 10.5284 8.80421 10.5438C8.37119 10.5517 7.99622 10.5914 7.7279 10.6293C7.59318 10.6484 7.48383 10.6671 7.40576 10.6817C7.36669 10.689 7.33533 10.6953 7.31241 10.7C7.30095 10.7024 7.29159 10.7043 7.28443 10.7059C7.28084 10.7067 7.27781 10.7073 7.27533 10.7079C7.27409 10.7081 7.27299 10.7084 7.27203 10.7086C7.27155 10.7087 7.2711 10.7088 7.2707 10.7089C7.27049 10.7089 7.27021 10.709 7.27011 10.709C7.26984 10.7091 7.26957 10.7091 7.48871 11.6848ZM12.2769 11.6721L11.6868 10.3552L9.8617 11.173L10.4518 12.4899L12.2769 11.6721ZM10.0676 11.4716C10.779 12.1822 11.7055 12.6607 12.7607 12.6607V10.6607C12.342 10.6607 11.9001 10.4753 11.481 10.0566L10.0676 11.4716ZM12.7607 12.6607C13.7924 12.6607 14.7003 12.2024 15.4042 11.5218L14.0139 10.084C13.6012 10.4831 13.1699 10.6607 12.7607 10.6607V12.6607ZM13.8074 10.3704L13.396 11.2282L15.1993 12.0931L15.6107 11.2353L13.8074 10.3704ZM15.1528 12.179C15.0534 12.343 14.9299 12.4071 14.9038 12.4197C14.8744 12.4339 14.8782 12.4267 14.9388 12.4153C15.0608 12.3923 15.262 12.3794 15.538 12.3863L15.5881 10.3869C15.2555 10.3786 14.893 10.3888 14.569 10.4498C14.4065 10.4804 14.2167 10.5303 14.0322 10.6196C13.8509 10.7074 13.6109 10.8645 13.4425 11.1423L15.1528 12.179ZM14.8355 7.02708C14.7942 7.64935 14.6332 8.25779 14.3611 8.81896L16.1608 9.69137C16.5452 8.89839 16.7728 8.03862 16.8311 7.15931L14.8355 7.02708ZM14.3663 8.80856C13.8999 9.74276 13.269 10.117 12.7569 10.117V12.117C14.3038 12.117 15.4953 11.0249 16.1557 9.70178L14.3663 8.80856ZM12.7569 10.117C12.3622 10.117 11.9135 9.90521 11.5023 9.37542C11.091 8.84549 10.7729 8.05501 10.6845 7.10887L8.69317 7.295C8.81139 8.55978 9.24333 9.72684 9.92238 10.6017C10.6015 11.4767 11.5836 12.117 12.7569 12.117V10.117ZM9.68883 7.20193C9.85241 8.18846 9.85248 8.18845 9.85255 8.18844C9.85258 8.18843 9.85266 8.18842 9.85272 8.18841C9.85285 8.18839 9.85299 8.18837 9.85315 8.18834C9.85347 8.18829 9.85387 8.18822 9.85435 8.18814C9.85529 8.18798 9.85654 8.18777 9.85808 8.18751C9.86116 8.187 9.86541 8.18628 9.87079 8.18536C9.88153 8.18353 9.89676 8.18092 9.91605 8.17754C9.95461 8.17078 10.0095 8.16097 10.0773 8.14832C10.2125 8.12309 10.4008 8.08629 10.614 8.03971C11.0253 7.94986 11.5854 7.81185 12.0338 7.63475L11.299 5.77461C11.0085 5.88938 10.5799 5.99999 10.1871 6.0858C9.99826 6.12705 9.83063 6.15984 9.71055 6.18224C9.65066 6.19341 9.60302 6.20192 9.57095 6.20754C9.55492 6.21034 9.54282 6.21242 9.53506 6.21374C9.53118 6.2144 9.52839 6.21488 9.52673 6.21515C9.52591 6.21529 9.52537 6.21538 9.52512 6.21542C9.52499 6.21544 9.52494 6.21545 9.52496 6.21545C9.52497 6.21545 9.525 6.21544 9.52505 6.21543C9.52508 6.21543 9.52513 6.21542 9.52514 6.21542C9.52519 6.21541 9.52525 6.2154 9.68883 7.20193ZM11.6664 6.70468C11.9814 7.65377 11.9816 7.6537 11.9818 7.65363C11.9819 7.6536 11.9821 7.65353 11.9823 7.65348C11.9826 7.65338 11.9829 7.65327 11.9832 7.65315C11.9839 7.65292 11.9847 7.65266 11.9856 7.65237C11.9873 7.6518 11.9893 7.65111 11.9917 7.6503C11.9965 7.64869 12.0025 7.64662 12.0098 7.64409C12.0244 7.63902 12.0441 7.63207 12.0686 7.62318C12.1175 7.60541 12.1857 7.57983 12.2711 7.54587C12.4418 7.47796 12.6817 7.37633 12.9739 7.23618C13.5576 6.95623 14.3547 6.52048 15.2288 5.88962L14.0583 4.26788C13.2963 4.81784 12.6048 5.19505 12.109 5.43286C11.8614 5.55159 11.6638 5.63504 11.5319 5.68749C11.466 5.71371 11.4167 5.73213 11.3859 5.74331C11.3705 5.7489 11.3597 5.75267 11.3539 5.75469C11.351 5.75571 11.3493 5.75628 11.3489 5.75643C11.3487 5.7565 11.3488 5.75647 11.3492 5.75633C11.3494 5.75626 11.3497 5.75616 11.35 5.75604C11.3502 5.75598 11.3504 5.75591 11.3507 5.75583C11.3508 5.7558 11.3509 5.75574 11.351 5.75572C11.3512 5.75566 11.3514 5.75559 11.6664 6.70468ZM15.2268 5.89107L15.2516 5.87326L14.0851 4.24863L14.0603 4.26643L15.2268 5.89107ZM14.6684 5.06095C13.844 5.62695 13.8439 5.6269 13.8439 5.62686C13.8439 5.62684 13.8438 5.62679 13.8438 5.62676C13.8438 5.6267 13.8437 5.62663 13.8437 5.62657C13.8436 5.62645 13.8435 5.62632 13.8434 5.6262C13.8433 5.62596 13.8431 5.62573 13.843 5.62551C13.8427 5.62507 13.8424 5.62466 13.8421 5.62429C13.8416 5.62356 13.8412 5.62297 13.8409 5.62252C13.8403 5.62163 13.8401 5.62132 13.8403 5.62154C13.8406 5.62201 13.8423 5.6246 13.8452 5.62913C13.851 5.63829 13.8613 5.65468 13.874 5.67672L15.6038 4.67282C15.5753 4.62364 15.5502 4.58312 15.5311 4.55317C15.5215 4.53814 15.5133 4.52564 15.5069 4.51589C15.5036 4.51101 15.5008 4.5068 15.4985 4.50331C15.4973 4.50156 15.4962 4.49998 15.4953 4.49859C15.4948 4.49789 15.4943 4.49724 15.4939 4.49663C15.4937 4.49632 15.4935 4.49603 15.4933 4.49575C15.4932 4.49561 15.4931 4.49547 15.493 4.49534C15.493 4.49527 15.4929 4.4952 15.4929 4.49514C15.4929 4.4951 15.4928 4.49505 15.4928 4.49504C15.4928 4.49499 15.4928 4.49494 14.6684 5.06095ZM13.8757 5.67962C13.8833 5.69255 13.903 5.73014 13.9209 5.77885C13.9393 5.82887 13.9458 5.86381 13.9471 5.87845C13.9484 5.89356 13.9413 5.85063 13.9713 5.77928C13.987 5.74203 14.0098 5.70464 14.039 5.67168C14.0681 5.63891 14.0948 5.62023 14.1093 5.61179L15.1142 7.34101C15.8385 6.92013 15.9833 6.20996 15.9396 5.70595C15.9002 5.25067 15.7147 4.86244 15.6021 4.66991L13.8757 5.67962ZM14.4824 7.468L15.5303 7.60471L15.789 5.62152L14.7411 5.4848L14.4824 7.468ZM15.6597 7.61311H15.6788V5.61311H15.6597V7.61311ZM15.4953 7.59613L15.686 7.63174L16.053 5.6657L15.8623 5.63009L15.4953 7.59613ZM14.8696 6.63951C14.8686 6.7442 14.8607 6.84872 14.8459 6.95238L16.8258 7.23529C16.8531 7.04402 16.8677 6.85115 16.8695 6.65793L14.8696 6.63951ZM16.0784 6.12369L16.0758 6.12305L15.5907 8.06334L15.5933 8.06398L16.0784 6.12369Z" fill="#181F1C" mask="url(#path-2-inside-1_1364_184752)"/>
<mask id="path-4-inside-2_1364_184752" fill="white">
<path d="M23.0975 21.6076C23.8929 21.6966 24.5899 21.834 24.5899 21.834C23.004 20.9616 23.0447 17.828 23.0447 17.828C23.3219 11.7643 19.3197 12.0816 19.3197 12.0816V12.0911L19.3166 12.0816C19.3166 12.0816 15.3144 11.7637 15.5923 17.828C15.5923 17.828 15.6323 20.959 14.0464 21.834C14.0464 21.834 16.3114 21.3253 17.9221 22.2295L17.3314 20.9132C17.8967 21.4773 18.5809 21.8092 19.3185 21.8092C20.0383 21.8092 20.7079 21.4913 21.2668 20.952L20.8522 21.8105C20.9902 21.5828 21.5091 21.5218 22.1176 21.5364M22.3942 17.2436C22.3447 17.9945 22.1504 18.7286 21.8219 19.4056C21.2592 20.5343 20.3473 21.2674 19.3178 21.2674C17.7498 21.2674 16.4564 19.5633 16.2497 17.353C16.2497 17.353 17.4884 17.1476 18.228 16.8551C18.228 16.8551 19.5684 16.41 21.2045 15.2292L21.2293 15.212C21.2293 15.212 21.2585 15.254 21.3005 15.3252C21.4423 15.5694 21.7456 16.2949 21.1733 16.6268L22.2212 16.7597H22.2397L22.4304 16.7953C22.4296 16.9454 22.4183 17.0951 22.3967 17.2436H22.3942Z"/>
</mask>
<path d="M23.0975 21.6076C23.8929 21.6966 24.5899 21.834 24.5899 21.834C23.004 20.9616 23.0447 17.828 23.0447 17.828C23.3219 11.7643 19.3197 12.0816 19.3197 12.0816V12.0911L19.3166 12.0816C19.3166 12.0816 15.3144 11.7637 15.5923 17.828C15.5923 17.828 15.6323 20.959 14.0464 21.834C14.0464 21.834 16.3114 21.3253 17.9221 22.2295L17.3314 20.9132C17.8967 21.4773 18.5809 21.8092 19.3185 21.8092C20.0383 21.8092 20.7079 21.4913 21.2668 20.952L20.8522 21.8105C20.9902 21.5828 21.5091 21.5218 22.1176 21.5364M22.3942 17.2436C22.3447 17.9945 22.1504 18.7286 21.8219 19.4056C21.2592 20.5343 20.3473 21.2674 19.3178 21.2674C17.7498 21.2674 16.4564 19.5633 16.2497 17.353C16.2497 17.353 17.4884 17.1476 18.228 16.8551C18.228 16.8551 19.5684 16.41 21.2045 15.2292L21.2293 15.212C21.2293 15.212 21.2585 15.254 21.3005 15.3252C21.4423 15.5694 21.7456 16.2949 21.1733 16.6268L22.2212 16.7597H22.2397L22.4304 16.7953C22.4296 16.9454 22.4183 17.0951 22.3967 17.2436H22.3942Z" fill="#181F1C"/>
<path d="M24.5899 21.834L24.3965 22.8151L25.0719 20.9578L24.5899 21.834ZM23.0447 17.828L22.0457 17.7823L22.045 17.7986L22.0448 17.815L23.0447 17.828ZM19.3197 12.0816L19.2407 11.0847L18.3197 11.1577V12.0816H19.3197ZM19.3197 12.0911L18.371 12.4073L20.3197 12.0911H19.3197ZM19.3166 12.0816L20.2653 11.7654L20.0559 11.1372L19.3958 11.0847L19.3166 12.0816ZM15.5923 17.828L16.5922 17.8152L16.592 17.7987L16.5912 17.7822L15.5923 17.828ZM14.0464 21.834L13.5634 20.9584L14.2656 22.8097L14.0464 21.834ZM17.9221 22.2295L17.4326 23.1015L20.0754 24.5851L18.8344 21.8201L17.9221 22.2295ZM17.3314 20.9132L18.0377 20.2053L16.419 21.3227L17.3314 20.9132ZM21.2668 20.952L22.1673 21.3869L20.5725 20.2323L21.2668 20.952ZM20.8522 21.8105L19.9517 21.3756L21.7074 22.3288L20.8522 21.8105ZM22.3942 17.2436V16.2436H21.4579L21.3964 17.1779L22.3942 17.2436ZM21.8219 19.4056L22.7169 19.8518L22.7216 19.8421L21.8219 19.4056ZM16.2497 17.353L16.0862 16.3665L15.1674 16.5188L15.2541 17.4461L16.2497 17.353ZM18.228 16.8551L17.9128 15.9061L17.8862 15.9149L17.8601 15.9252L18.228 16.8551ZM21.2045 15.2292L20.6352 14.407L20.6272 14.4126L20.6192 14.4183L21.2045 15.2292ZM21.2293 15.212L22.0497 14.6402L21.4796 13.8224L20.66 14.3898L21.2293 15.212ZM21.3005 15.3252L22.1653 14.823L22.162 14.8175L21.3005 15.3252ZM21.1733 16.6268L20.6716 15.7618L18.1117 17.2466L21.0475 17.6189L21.1733 16.6268ZM22.2212 16.7597L22.0954 17.7518L22.1581 17.7597H22.2212V16.7597ZM22.2397 16.7597L22.4232 15.7767L22.3322 15.7597H22.2397V16.7597ZM22.4304 16.7953L23.4304 16.8013L23.4354 15.9656L22.6139 15.8123L22.4304 16.7953ZM22.3967 17.2436V18.2436H23.2621L23.3864 17.3873L22.3967 17.2436ZM22.9863 22.6014C23.3611 22.6434 23.7158 22.6971 23.9781 22.7407C24.1087 22.7624 24.2151 22.7813 24.2881 22.7947C24.3246 22.8014 24.3526 22.8067 24.3711 22.8102C24.3803 22.812 24.3871 22.8133 24.3914 22.8141C24.3936 22.8145 24.3951 22.8148 24.3959 22.815C24.3964 22.8151 24.3966 22.8151 24.3967 22.8152C24.3968 22.8152 24.3968 22.8152 24.3967 22.8152C24.3967 22.8152 24.3967 22.8152 24.3967 22.8151C24.3966 22.8151 24.3966 22.8151 24.3966 22.8151C24.3965 22.8151 24.3965 22.8151 24.5899 21.834C24.7832 20.8529 24.7832 20.8529 24.7831 20.8528C24.7831 20.8528 24.7831 20.8528 24.783 20.8528C24.7829 20.8528 24.7828 20.8528 24.7827 20.8528C24.7825 20.8527 24.7823 20.8527 24.782 20.8526C24.7814 20.8525 24.7807 20.8524 24.7797 20.8522C24.7779 20.8518 24.7754 20.8513 24.7723 20.8507C24.7659 20.8495 24.757 20.8478 24.7457 20.8456C24.7229 20.8413 24.6903 20.8351 24.649 20.8276C24.5665 20.8124 24.4489 20.7915 24.3059 20.7677C24.0208 20.7204 23.6293 20.6609 23.2087 20.6138L22.9863 22.6014ZM25.0719 20.9578C24.6975 20.7519 24.383 20.161 24.2011 19.2976C24.1193 18.9096 24.0796 18.5391 24.0608 18.2632C24.0515 18.1264 24.0475 18.0159 24.0458 17.9416C24.0449 17.9046 24.0447 17.8768 24.0446 17.8595C24.0446 17.8509 24.0446 17.845 24.0446 17.8418C24.0446 17.8402 24.0446 17.8394 24.0446 17.8392C24.0446 17.8391 24.0446 17.8392 24.0446 17.8395C24.0446 17.8397 24.0446 17.8399 24.0446 17.8401C24.0446 17.8402 24.0446 17.8405 24.0446 17.8405C24.0446 17.8407 24.0446 17.841 23.0447 17.828C22.0448 17.815 22.0448 17.8153 22.0448 17.8155C22.0448 17.8156 22.0448 17.8159 22.0448 17.8161C22.0448 17.8166 22.0448 17.817 22.0447 17.8176C22.0447 17.8186 22.0447 17.8199 22.0447 17.8213C22.0447 17.8242 22.0447 17.8278 22.0446 17.8322C22.0446 17.841 22.0446 17.8527 22.0446 17.8672C22.0447 17.8963 22.0452 17.9367 22.0463 17.987C22.0486 18.0876 22.0538 18.2286 22.0654 18.3993C22.0885 18.7382 22.1378 19.2056 22.2441 19.71C22.4383 20.6316 22.8964 22.0437 24.1079 22.7102L25.0719 20.9578ZM24.0437 17.8737C24.1928 14.6107 23.1865 12.7939 21.8611 11.8627C21.2295 11.419 20.5904 11.2254 20.1134 11.1418C19.8738 11.0998 19.67 11.0846 19.5202 11.0802C19.4451 11.078 19.3829 11.0786 19.3358 11.0799C19.3122 11.0806 19.2923 11.0815 19.2764 11.0824C19.2684 11.0828 19.2615 11.0832 19.2555 11.0836C19.2525 11.0838 19.2498 11.084 19.2473 11.0842C19.2461 11.0843 19.2449 11.0844 19.2438 11.0845C19.2433 11.0845 19.2425 11.0846 19.2422 11.0846C19.2415 11.0847 19.2407 11.0847 19.3197 12.0816C19.3988 13.0785 19.3981 13.0785 19.3974 13.0786C19.3971 13.0786 19.3965 13.0787 19.396 13.0787C19.3952 13.0788 19.3944 13.0788 19.3936 13.0789C19.3921 13.079 19.3908 13.0791 19.3898 13.0791C19.3877 13.0793 19.3864 13.0793 19.386 13.0794C19.3853 13.0794 19.3878 13.0793 19.3935 13.0791C19.4048 13.0788 19.4283 13.0784 19.4621 13.0794C19.5302 13.0814 19.6368 13.0887 19.7681 13.1118C20.0329 13.1582 20.3769 13.2642 20.7113 13.4991C21.3176 13.9251 22.1738 14.9816 22.0457 17.7823L24.0437 17.8737ZM18.3197 12.0816V12.0911H20.3197V12.0816H18.3197ZM20.2684 11.775L20.2653 11.7654L18.3679 12.3978L18.371 12.4073L20.2684 11.775ZM19.3166 12.0816C19.3958 11.0847 19.395 11.0847 19.3942 11.0846C19.394 11.0846 19.3932 11.0845 19.3926 11.0845C19.3915 11.0844 19.3904 11.0843 19.3891 11.0842C19.3867 11.0841 19.3839 11.0839 19.381 11.0837C19.375 11.0833 19.368 11.0828 19.3601 11.0824C19.3442 11.0815 19.3243 11.0806 19.3007 11.0799C19.2535 11.0786 19.1913 11.078 19.1162 11.0802C18.9665 11.0845 18.7626 11.0997 18.5231 11.1417C18.046 11.2252 17.4069 11.4187 16.7753 11.8624C15.4498 12.7937 14.4438 14.6106 14.5933 17.8738L16.5912 17.7822C16.4629 14.9811 17.319 13.9248 17.9251 13.4989C18.2594 13.2641 18.6034 13.158 18.8681 13.1117C18.9994 13.0887 19.106 13.0813 19.1741 13.0794C19.2079 13.0784 19.2313 13.0788 19.2427 13.0791C19.2484 13.0793 19.2509 13.0794 19.2501 13.0794C19.2497 13.0793 19.2485 13.0793 19.2464 13.0791C19.2453 13.0791 19.244 13.079 19.2425 13.0789C19.2418 13.0788 19.241 13.0787 19.2401 13.0787C19.2397 13.0786 19.239 13.0786 19.2388 13.0786C19.2381 13.0785 19.2374 13.0785 19.3166 12.0816ZM15.5923 17.828C14.5923 17.8408 14.5923 17.8405 14.5923 17.8403C14.5923 17.8403 14.5923 17.84 14.5923 17.8399C14.5923 17.8397 14.5923 17.8395 14.5923 17.8393C14.5923 17.8391 14.5923 17.8389 14.5923 17.839C14.5923 17.8392 14.5923 17.84 14.5923 17.8416C14.5923 17.8447 14.5924 17.8507 14.5923 17.8593C14.5923 17.8765 14.592 17.9043 14.5911 17.9413C14.5894 18.0155 14.5854 18.126 14.5761 18.2626C14.5572 18.5383 14.5174 18.9086 14.4356 19.2964C14.2536 20.159 13.939 20.7512 13.5634 20.9584L14.5295 22.7096C15.7397 22.0419 16.1981 20.631 16.3925 19.7093C16.4989 19.2051 16.5482 18.7379 16.5714 18.3992C16.5831 18.2286 16.5883 18.0876 16.5906 17.9872C16.5918 17.9368 16.5922 17.8965 16.5923 17.8674C16.5924 17.8529 16.5924 17.8411 16.5923 17.8324C16.5923 17.828 16.5923 17.8244 16.5922 17.8215C16.5922 17.8201 16.5922 17.8188 16.5922 17.8178C16.5922 17.8172 16.5922 17.8168 16.5922 17.8163C16.5922 17.8161 16.5922 17.8158 16.5922 17.8157C16.5922 17.8155 16.5922 17.8152 15.5923 17.828ZM14.0464 21.834C14.2656 22.8097 14.2653 22.8097 14.2651 22.8098C14.265 22.8098 14.2648 22.8099 14.2647 22.8099C14.2644 22.8099 14.2642 22.81 14.264 22.81C14.2635 22.8101 14.2633 22.8102 14.2631 22.8102C14.2628 22.8103 14.2631 22.8102 14.2638 22.8101C14.2653 22.8098 14.2689 22.809 14.2744 22.8079C14.2855 22.8056 14.3043 22.8018 14.3304 22.7969C14.3824 22.7872 14.4626 22.7733 14.5654 22.7588C14.7721 22.7296 15.0641 22.6987 15.3987 22.6925C16.0932 22.6797 16.8533 22.7763 17.4326 23.1015L18.4116 21.3575C17.3803 20.7785 16.2025 20.6773 15.3618 20.6928C14.9288 20.7008 14.5539 20.7406 14.2856 20.7785C14.1509 20.7975 14.0415 20.8163 13.9635 20.8309C13.9244 20.8382 13.8931 20.8444 13.8701 20.8491C13.8587 20.8515 13.8493 20.8535 13.8422 20.855C13.8386 20.8558 13.8355 20.8565 13.8331 20.857C13.8318 20.8573 13.8307 20.8575 13.8298 20.8577C13.8293 20.8579 13.8288 20.858 13.8284 20.858C13.8282 20.8581 13.8279 20.8582 13.8278 20.8582C13.8276 20.8582 13.8273 20.8583 14.0464 21.834ZM18.8344 21.8201L18.2437 20.5038L16.419 21.3227L17.0098 22.639L18.8344 21.8201ZM16.6251 21.6211C17.3364 22.3309 18.2628 22.8092 19.3185 22.8092V20.8092C18.8989 20.8092 18.4569 20.6236 18.0377 20.2053L16.6251 21.6211ZM19.3185 22.8092C20.3496 22.8092 21.2571 22.3508 21.9611 21.6717L20.5725 20.2323C20.1586 20.6317 19.727 20.8092 19.3185 20.8092V22.8092ZM20.3663 20.5171L19.9517 21.3756L21.7527 22.2454L22.1673 21.3869L20.3663 20.5171ZM21.7074 22.3288C21.6078 22.493 21.4841 22.5571 21.4579 22.5698C21.4285 22.584 21.4323 22.5768 21.493 22.5654C21.6154 22.5424 21.8169 22.5295 22.0936 22.5361L22.1416 20.5367C21.8098 20.5287 21.4475 20.539 21.1239 20.5998C20.9616 20.6302 20.7717 20.68 20.5872 20.7693C20.4059 20.857 20.1656 21.0141 19.997 21.2921L21.7074 22.3288ZM21.3964 17.1779C21.3554 17.7999 21.1944 18.4082 20.9222 18.969L22.7216 19.8421C23.1064 19.049 23.3341 18.189 23.392 17.3094L21.3964 17.1779ZM20.927 18.9594C20.4615 19.8929 19.8301 20.2674 19.3178 20.2674V22.2674C20.8645 22.2674 22.0568 21.1756 22.7168 19.8518L20.927 18.9594ZM19.3178 20.2674C18.9231 20.2674 18.4744 20.0556 18.0632 19.5259C17.6519 18.996 17.3338 18.2057 17.2454 17.2599L15.2541 17.4461C15.3723 18.7106 15.8043 19.8775 16.4833 20.7523C17.1625 21.6272 18.1445 22.2674 19.3178 22.2674V20.2674ZM16.2497 17.353C16.4133 18.3395 16.4134 18.3395 16.4135 18.3395C16.4135 18.3395 16.4136 18.3395 16.4136 18.3395C16.4138 18.3394 16.4139 18.3394 16.4141 18.3394C16.4144 18.3393 16.4148 18.3393 16.4153 18.3392C16.4162 18.339 16.4175 18.3388 16.419 18.3386C16.4221 18.3381 16.4263 18.3373 16.4317 18.3364C16.4425 18.3346 16.4577 18.332 16.477 18.3286C16.5156 18.3218 16.5705 18.312 16.6383 18.2994C16.7736 18.2741 16.9618 18.2373 17.1751 18.1907C17.5866 18.1007 18.147 17.9625 18.5958 17.785L17.8601 15.9252C17.5694 16.0402 17.1407 16.1509 16.748 16.2368C16.5591 16.2781 16.3915 16.3109 16.2714 16.3333C16.2115 16.3445 16.1639 16.353 16.1318 16.3586C16.1158 16.3614 16.1037 16.3635 16.096 16.3648C16.0921 16.3655 16.0893 16.3659 16.0876 16.3662C16.0868 16.3663 16.0863 16.3664 16.086 16.3665C16.0859 16.3665 16.0859 16.3665 16.0859 16.3665C16.0859 16.3665 16.0859 16.3665 16.086 16.3665C16.086 16.3665 16.086 16.3665 16.0861 16.3665C16.0861 16.3665 16.0862 16.3665 16.2497 17.353ZM18.228 16.8551C18.5431 17.8041 18.5433 17.8041 18.5435 17.804C18.5436 17.804 18.5438 17.8039 18.544 17.8039C18.5443 17.8038 18.5446 17.8036 18.5449 17.8035C18.5456 17.8033 18.5464 17.803 18.5473 17.8028C18.549 17.8022 18.551 17.8015 18.5534 17.8007C18.5581 17.7991 18.5642 17.797 18.5715 17.7945C18.5861 17.7894 18.6058 17.7824 18.6302 17.7736C18.6792 17.7558 18.7473 17.7302 18.8327 17.6962C19.0033 17.6283 19.2431 17.5267 19.5352 17.3866C20.1188 17.1066 20.9156 16.6709 21.7897 16.04L20.6192 14.4183C19.8572 14.9683 19.1658 15.3455 18.6701 15.5833C18.4226 15.7021 18.225 15.7855 18.0932 15.838C18.0274 15.8642 17.978 15.8826 17.9473 15.8938C17.9319 15.8994 17.9212 15.9031 17.9153 15.9052C17.9124 15.9062 17.9107 15.9068 17.9103 15.9069C17.9101 15.907 17.9102 15.9069 17.9106 15.9068C17.9108 15.9067 17.9111 15.9066 17.9115 15.9065C17.9116 15.9064 17.9118 15.9064 17.9121 15.9063C17.9122 15.9063 17.9124 15.9062 17.9124 15.9062C17.9126 15.9061 17.9128 15.9061 18.228 16.8551ZM21.7737 16.0513L21.7985 16.0342L20.66 14.3898L20.6352 14.407L21.7737 16.0513ZM21.2293 15.212C20.4089 15.7838 20.4089 15.7838 20.4088 15.7837C20.4088 15.7837 20.4088 15.7837 20.4088 15.7836C20.4087 15.7836 20.4087 15.7835 20.4086 15.7834C20.4085 15.7833 20.4084 15.7832 20.4084 15.7831C20.4082 15.7828 20.408 15.7826 20.4079 15.7824C20.4076 15.7819 20.4073 15.7815 20.407 15.7811C20.4065 15.7804 20.4061 15.7797 20.4057 15.7793C20.4051 15.7783 20.4049 15.778 20.405 15.7782C20.4052 15.7785 20.4069 15.781 20.4098 15.7854C20.4156 15.7944 20.4259 15.8107 20.439 15.8329L22.162 14.8175C22.1331 14.7685 22.1078 14.7282 22.0885 14.6983C22.0788 14.6834 22.0706 14.6709 22.064 14.6612C22.0607 14.6563 22.0579 14.6521 22.0555 14.6486C22.0543 14.6469 22.0532 14.6453 22.0522 14.6439C22.0517 14.6432 22.0513 14.6425 22.0508 14.6419C22.0506 14.6416 22.0504 14.6413 22.0502 14.641C22.0501 14.6409 22.05 14.6407 22.0499 14.6406C22.0499 14.6405 22.0498 14.6405 22.0498 14.6404C22.0498 14.6404 22.0497 14.6403 22.0497 14.6403C22.0497 14.6402 22.0497 14.6402 21.2293 15.212ZM20.4357 15.8274C20.444 15.8417 20.4641 15.8801 20.4821 15.9292C20.5006 15.9797 20.5072 16.0149 20.5084 16.0297C20.5098 16.0449 20.5026 16.0018 20.5327 15.9302C20.5485 15.8927 20.5714 15.8552 20.6008 15.822C20.63 15.7891 20.6569 15.7703 20.6716 15.7618L21.675 17.4919C22.4004 17.0712 22.5447 16.3602 22.5009 15.8565C22.4614 15.4015 22.276 15.0137 22.1653 14.823L20.4357 15.8274ZM21.0475 17.6189L22.0954 17.7518L22.347 15.7677L21.2991 15.6348L21.0475 17.6189ZM22.2212 17.7597H22.2397V15.7597H22.2212V17.7597ZM22.0562 17.7427L22.2469 17.7783L22.6139 15.8123L22.4232 15.7767L22.0562 17.7427ZM21.4305 16.7894C21.4298 16.8933 21.422 16.9971 21.4071 17.1L23.3864 17.3873C23.4145 17.1932 23.4293 16.9974 23.4304 16.8013L21.4305 16.7894ZM22.3967 16.2436H22.3942V18.2436H22.3967V16.2436Z" fill="#181F1C" mask="url(#path-4-inside-2_1364_184752)"/>
<path d="M3.17282 14.2235C3.09967 14.2523 3.03367 14.2882 2.97411 14.3294C3.5403 13.4236 4.51038 12.8359 5.59571 12.8359C6.67645 12.8359 7.64353 13.4195 8.21088 14.3192C8.15501 14.2821 8.09364 14.2497 8.02621 14.2232L7.82227 14.1432L7.62591 14.2385L7.62573 14.2386L7.6255 14.2387L7.62535 14.2388L7.62518 14.2389L7.62517 14.2389L7.6193 14.2416L7.59065 14.2548C7.56425 14.2667 7.52364 14.2845 7.47054 14.3064C7.36417 14.3502 7.20871 14.4099 7.01785 14.4708C6.63614 14.5925 6.12871 14.7137 5.59699 14.7302C5.06524 14.7137 4.55765 14.5925 4.17576 14.4708C3.9848 14.4099 3.82925 14.3502 3.72281 14.3064C3.66968 14.2845 3.62904 14.2666 3.60262 14.2547L3.57395 14.2416L3.56807 14.2388L3.56773 14.2387L3.56788 14.2387C3.56795 14.2388 3.56803 14.2388 3.42263 14.5386L3.35617 14.1887H3.34981L3.27958 14.4943L3.17282 14.2235Z" fill="#181F1C" stroke="#181F1C"/>
</g>
<defs>
<clipPath id="clip0_1364_184752">
<rect width="25" height="25" fill="white"/>
</clipPath>
</defs>
</svg>
