<svg width="210" height="211" viewBox="0 0 210 211" fill="none" xmlns="http://www.w3.org/2000/svg">
<g clip-path="url(#clip0_1364_165905)">
<path d="M210.037 0.384766H-0.0480957V210.47H210.037V0.384766Z" fill="#89E26A"/>
<path d="M129.115 33.4023V25.0397H123.574V18.8145H118.578V12.4023H113.726V6.48168H108.917V0H129.115C129.11 0.105023 129.11 0.210245 129.115 0.315267V24.2168C129.122 24.3673 129.138 24.5172 129.163 24.6656H133.946V16.816H138.803V8.31985H143.703C143.737 8.24661 143.762 8.16944 143.778 8.09008C143.778 5.39695 143.778 2.70025 143.778 0H149.362C149.362 0.272519 149.324 0.534351 149.324 0.817557V33.3809H129.099L129.115 33.4023Z" fill="#181F1C"/>
<path d="M44.7466 0.00537109C44.7466 0.235142 44.7893 0.464913 44.7893 0.694684C44.7893 11.314 44.7893 21.9334 44.7893 32.5527V33.3329H24.6817V25.0611H19.1298V18.8145H14.1122V12.4023H9.27101V6.48705H4.46185V0.00537109H24.5321C24.5321 0.27789 24.5855 0.539722 24.5855 0.817585C24.5855 8.50512 24.5855 16.1962 24.5855 23.8909C24.5855 24.1527 24.5855 24.4252 24.6229 24.6871H29.4321V16.8267H34.3161V8.31988H39.2748V0.00537109H44.7466Z" fill="#181F1C"/>
<path d="M63.3955 0.00537109V66.842H56.7428V0.00537109H63.3955Z" fill="#181F1C"/>
<path d="M72.9016 0.00534354C72.9016 17.6496 72.9016 35.2939 72.9016 52.9382V66.8313H66.2489V0L72.9016 0.00534354Z" fill="#181F1C"/>
<path d="M91.9084 0.0053494C91.9084 0.277868 91.9084 0.5397 91.9084 0.82825V66.842H85.2825C85.2825 66.6282 85.2825 66.4252 85.2825 66.2221C85.2825 44.3209 85.2825 22.4125 85.2825 0.496952C85.2825 0.32596 85.2825 0.160311 85.2825 -0.0106812L91.9084 0.0053494Z" fill="#181F1C"/>
<path d="M167.455 0.00537109V66.842H160.792V0.0107146L167.455 0.00537109Z" fill="#181F1C"/>
<path d="M176.961 0.00537109V66.842H170.308V0.00537109H176.961Z" fill="#181F1C"/>
<path d="M186.579 0.0053494C186.579 0.277868 186.579 0.5397 186.579 0.82825V66.842H179.953C179.953 66.6282 179.953 66.4252 179.953 66.2221C179.953 44.3209 179.953 22.4125 179.953 0.496952C179.953 0.32596 179.953 0.160311 179.953 -0.0106812L186.579 0.0053494Z" fill="#181F1C"/>
<path d="M195.968 0.00534354C195.968 0.277863 195.968 0.539695 195.968 0.828244V66.842H189.337C189.337 66.6496 189.305 66.4679 189.305 66.3076V0.320611C189.305 0.21374 189.305 0.10687 189.305 0H195.957L195.968 0.00534354Z" fill="#181F1C"/>
<path d="M205.592 0.00534354C205.592 0.277863 205.592 0.539695 205.592 0.828244V66.8366H198.907V0.630534C198.907 0.422137 198.907 0.21374 198.939 0L205.592 0.00534354Z" fill="#181F1C"/>
<path d="M82.5199 0.0053494C82.5199 0.277868 82.5199 0.539701 82.5199 0.82825V66.8366H75.8725C75.8725 66.6229 75.8458 66.4199 75.8458 66.2168C75.8458 44.312 75.8458 22.4036 75.8458 0.491609C75.8458 0.320617 75.8458 0.154968 75.8458 -0.0106812L82.5199 0.0053494Z" fill="#181F1C"/>
<path d="M101.527 0.00537109C101.527 0.27789 101.527 0.539722 101.527 0.822928V66.8367H94.8687C94.8687 66.6016 94.8367 66.3771 94.8367 66.1527V0.630562C94.8367 0.422165 94.8634 0.213768 94.8794 0.00537109H101.527Z" fill="#181F1C"/>
<path d="M1.62442 0.00537109C1.62442 11.8751 1.62442 23.7448 1.62442 35.6145V66.842H-0.0106911C-0.0106911 66.6496 -0.0480957 66.468 -0.0480957 66.3077V0.26186C-0.0480957 0.176363 -0.0480957 0.0908673 -0.0480957 0.00537109H1.62442Z" fill="#181F1C"/>
<path d="M49.855 0.00537109V66.842H48.1878V0.00537109H49.855Z" fill="#181F1C"/>
<path d="M53.9214 0.00537109V66.3504C53.9214 66.4947 53.9214 66.6443 53.9214 66.842H52.2275V0.00537109H53.9214Z" fill="#181F1C"/>
<path d="M105.919 0.00537109C105.919 0.256516 105.962 0.507661 105.962 0.758806V66.8474H104.279V0.758806C104.279 0.507661 104.279 0.256516 104.279 0.00537109H105.919Z" fill="#181F1C"/>
<path d="M157.954 0.00537109C157.954 0.256516 157.954 0.539722 157.954 0.76415V66.842H156.287V0.76415C156.287 0.507661 156.287 0.256516 156.287 0.00537109H157.954Z" fill="#181F1C"/>
<path d="M153.915 0.00537109C153.915 2.14278 153.915 4.28018 153.915 6.41759V66.842H152.242V0.758806C152.242 0.507661 152.242 0.256516 152.242 0.00537109H153.915Z" fill="#181F1C"/>
<path d="M209.984 0.00534354C209.984 0.256489 210.032 0.507634 210.032 0.753435C210.032 22.5229 210.032 44.2924 210.032 66.0618V66.8473H208.349V0.822901C208.349 0.545038 208.349 0.28855 208.349 0L209.984 0.00534354Z" fill="#181F1C"/>
<path d="M123.542 168.647V162.411H118.541V155.998H113.678V150.121H108.96V143.639H129.051V168.31H133.86V160.487H138.75V151.937H143.757V143.628H149.228V176.918H129.105V168.647H123.542Z" fill="#181F1C"/>
<path d="M139.567 197.982H144.376V203.86H149.186V210.315H129.121V185.682H124.274V193.499H119.412V202.049H114.394V210.353H108.96V177.009H109.617C115.869 177.009 122.126 177.009 128.378 177.009C128.95 177.009 129.11 177.169 129.105 177.779C129.073 180.05 129.105 182.331 129.105 184.608V185.345H134.603V191.586H139.615C139.615 193.724 139.615 195.829 139.615 197.998L139.567 197.982Z" fill="#181F1C"/>
<path d="M129.094 33.3809V41.7168H134.539V47.942H139.557V54.3542H144.419V60.2321H149.202V66.6817H129.115V42.0641H124.247V49.8924H119.406V58.442H114.389V66.7511H108.96V33.4023H129.137L129.094 33.3809Z" fill="#181F1C"/>
<path d="M190.838 90.5565V96.7977H185.372V105.085H165.243V71.8168H170.645V80.0832H175.647V88.6328H180.52V96.4931H185.372V71.8061H205.458C205.458 71.9717 205.517 72.132 205.522 72.2924C205.522 74.0824 205.522 75.8778 205.522 77.6679C205.522 78.1382 205.399 78.2824 204.951 78.2771C203.567 78.2504 202.183 78.2771 200.729 78.2771V84.1549H195.867V90.5672L190.838 90.5565Z" fill="#181F1C"/>
<path d="M205.485 138.509H200.034V130.232H195.017V121.682H190.181V113.87H185.34V138.504H165.237V132.092H169.966V126.171H174.808V119.796H179.809V113.55H185.372V105.251H205.49V138.509H205.485Z" fill="#181F1C"/>
<path d="M4.50995 177.047H24.6016V185.329H30.1107V191.565H35.1069V197.977H39.9695V203.919H44.7787V210.331H24.6924V185.682H19.8405V193.505H14.9458V202.054H9.93896V210.331H4.51529C4.51529 199.256 4.51529 188.161 4.51529 177.047H4.50995Z" fill="#181F1C"/>
<path d="M40.0283 54.3542V60.2855H44.7733V66.7351H24.671V42.0641H19.8244V49.887H14.9458V58.4367H9.94429V66.7351H4.52063V33.429H24.5855V41.7115H30.1267V47.942H35.0962V54.3542C36.742 54.3542 38.3023 54.3542 40.0069 54.3542H40.0283Z" fill="#181F1C"/>
<path d="M60.7985 71.8062H66.2114V80.0779H71.1862V88.6275H76.0809V96.4718H80.8901V71.8222H100.998V78.2344H96.2794V84.1123H91.4168V90.5245H86.3992V96.7657H80.8901V105.059H60.7985V71.8062Z" fill="#181F1C"/>
<path d="M39.2801 143.623H44.7466V176.918H24.6817V168.636H19.1137V162.421H14.1229V155.982H9.24961V150.105H4.51526V143.639H24.5962V168.321H29.4053V160.492H34.2893V151.943H39.2801V143.623Z" fill="#181F1C"/>
<path d="M70.3794 119.748H75.3916V113.518H80.9275V105.256H101.03V138.488H95.6007V130.232H90.5939V121.72H85.7847V113.881H80.9114V138.498H60.7985V132.086H65.5168V126.187H70.3794V119.775V119.748Z" fill="#181F1C"/>
<path d="M124.766 138.621H118.081V137.948C118.081 116.125 118.081 94.3059 118.081 72.4901C118.081 71.897 118.241 71.7474 118.781 71.7527C120.598 71.7901 122.42 71.7794 124.242 71.7527C124.653 71.7527 124.835 71.8809 124.776 72.3298C124.768 72.4544 124.768 72.5793 124.776 72.7038V138.621H124.766Z" fill="#181F1C"/>
<path d="M4.45648 71.7687C6.59389 71.7687 8.66183 71.7687 10.7351 71.7687C10.8527 71.7687 11.013 71.9824 11.0771 72.132C11.1096 72.2979 11.1096 72.4685 11.0771 72.6343V138.595H4.45648V71.7687Z" fill="#181F1C"/>
<path d="M20.642 138.616H14.0107V137.911C14.0107 116.116 14.0107 94.3183 14.0107 72.5168C14.0107 71.9077 14.1603 71.7367 14.7321 71.7474C16.6878 71.7848 18.6489 71.7474 20.6527 71.7474V138.616H20.642Z" fill="#181F1C"/>
<path d="M30.0893 138.621H23.4046V137.948C23.4046 116.125 23.4046 94.3059 23.4046 72.4901C23.4046 71.897 23.5649 71.7474 24.1046 71.7527C25.9267 71.7901 27.7489 71.7794 29.571 71.7527C29.9825 71.7527 30.1641 71.8809 30.1054 72.3298C30.0974 72.4544 30.0974 72.5793 30.1054 72.7038V138.621H30.0893Z" fill="#181F1C"/>
<path d="M134.16 138.621H127.512V71.8275C127.662 71.8275 127.779 71.7847 127.892 71.7847C129.81 71.7847 131.728 71.7847 133.652 71.7847C134.031 71.7847 134.186 71.9023 134.16 72.3191C134.152 72.4668 134.152 72.6149 134.16 72.7626V138.627V138.621Z" fill="#181F1C"/>
<path d="M66.2916 143.591H72.8428V210.449H66.2916V143.591Z" fill="#181F1C"/>
<path d="M176.908 210.47H170.357V143.639H176.908V210.47Z" fill="#181F1C"/>
<path d="M179.953 143.618H186.521V210.449H179.953V143.618Z" fill="#181F1C"/>
<path d="M189.342 143.628H195.915V210.422H189.342V143.628Z" fill="#181F1C"/>
<path d="M198.95 143.628H205.528V210.422H198.95V143.628Z" fill="#181F1C"/>
<path d="M160.856 143.591H167.412V210.449H160.856V143.591Z" fill="#181F1C"/>
<path d="M56.7642 210.438V143.644H63.3634V210.438H56.7642Z" fill="#181F1C"/>
<path d="M75.8885 143.618H82.4557V210.449H75.8885V143.618Z" fill="#181F1C"/>
<path d="M85.2718 210.433V143.639H91.8603V210.433H85.2718Z" fill="#181F1C"/>
<path d="M94.8794 143.628H101.479V210.422H94.8794V143.628Z" fill="#181F1C"/>
<path d="M33.0443 71.8062H39.6329V138.6H33.0443V71.8062Z" fill="#181F1C"/>
<path d="M115.131 71.8008V138.595H108.521C108.521 138.37 108.495 138.146 108.495 137.927C108.495 116.111 108.495 94.2934 108.495 72.4741C108.495 71.9023 108.628 71.7206 109.184 71.7367C110.963 71.7741 112.748 71.7367 114.528 71.7367C114.725 71.7367 114.918 71.7367 115.147 71.7634L115.131 71.8008Z" fill="#181F1C"/>
<path d="M143.692 138.616H137.099V71.8221H143.692V138.616Z" fill="#181F1C"/>
<path d="M146.61 71.8062H153.193V138.6H146.61V71.8062V71.8062Z" fill="#181F1C"/>
<path d="M42.545 71.8062H49.1122V138.6H42.545V71.8062V71.8062Z" fill="#181F1C"/>
<path d="M1.58169 210.454H-0.0213623V143.66H1.58169V210.454Z" fill="#181F1C"/>
<path d="M1.55496 138.616H-0.0480957V71.8221H1.55496V138.616Z" fill="#181F1C"/>
<path d="M49.8122 210.454H48.2092V143.628H49.8122V210.454Z" fill="#181F1C"/>
<path d="M53.8679 210.454H52.2649V143.66H53.8679V210.454Z" fill="#181F1C"/>
<path d="M56.0588 138.616V71.8221H57.6618V138.616H56.0588Z" fill="#181F1C"/>
<path d="M53.6275 138.616H52.0244V71.8221H53.6275V138.616Z" fill="#181F1C"/>
<path d="M105.924 210.454H104.321V143.66H105.924V210.454Z" fill="#181F1C"/>
<path d="M152.306 143.591H153.877V210.449H152.306V143.591Z" fill="#181F1C"/>
<path d="M156.34 143.591H157.917V210.449H156.34V143.591Z" fill="#181F1C"/>
<path d="M105.641 138.616H104.038V71.8221H105.641V138.616Z" fill="#181F1C"/>
<path d="M208.386 143.628H209.989V210.422H208.386V143.628Z" fill="#181F1C"/>
<path d="M157.692 138.616H156.089V71.8221H157.692V138.616Z" fill="#181F1C"/>
<path d="M160.15 71.8062H161.753V138.6H160.15V71.8062Z" fill="#181F1C"/>
<path d="M208.386 71.8062H209.989V138.6H208.386V71.8062Z" fill="#181F1C"/>
<path fill-rule="evenodd" clip-rule="evenodd" d="M86.6985 189.31C81.1199 188.658 75.3275 188.498 72.6718 192.724C67.2321 201.365 59.0298 199.137 57.3626 195.979C54.6909 190.972 59.9222 183.015 65.1374 184.795C76.4069 188.647 82.6267 187.247 87.0458 181.776L61.1886 170.976C58.239 173.47 55.2929 175.98 52.3504 178.505L50.7153 177.522L60.868 168.358C75.1084 173.525 85.6031 173.702 88.6863 164.083L58.8748 156.576L45.4519 168.358L43.8168 166.723L57.5657 154.278C69.0328 157.906 76.5939 155.405 79.8267 148.71L52.655 142.522L38.2542 154.609V148.063C45.3077 141.347 53.7504 135.891 48.7275 124.167L25.4886 147.08C22.7598 156.788 20.0311 166.498 17.3023 176.213H-18.7023C-15.3198 187.669 -13.0328 199.126 -13.1397 210.582H73.2756C77.7499 203.493 82.2242 196.401 86.6985 189.305V189.31ZM211.737 160.273C212.586 146.092 216.011 133.978 221.237 123.286H158.718C152.157 111.252 145.712 99.2023 142.688 86.2924L112.572 78.7634C115.19 87.7013 121.738 92.2753 132.215 92.4855V101.035L113.555 92.1863L84.4222 102.002C89.1939 110.552 98.6359 109.809 111.263 102.66L128.613 110.846L127.956 113.464C121.846 110.614 115.735 107.777 109.622 104.952L79.5061 120.982C82.4558 129.828 91.9494 128.629 107.987 117.386L122.388 122.623L121.079 124.584L107.661 119.347L89.9848 138.333C96.3382 140.326 104.129 138.68 108.185 136.169C115.698 131.515 121.715 134.972 122.014 140.406C122.393 147.176 115.099 150.345 108.409 145.253C105.15 142.773 101.66 140.294 93.5863 143.244L107.004 160.268L211.737 160.273Z" fill="#181F1C"/>
</g>
<defs>
<clipPath id="clip0_1364_165905">
<rect width="210" height="210.534" fill="white"/>
</clipPath>
</defs>
</svg>
