<svg width="210" height="208" viewBox="0 0 210 208" fill="none" xmlns="http://www.w3.org/2000/svg">
<path d="M210 0H0V208H210V0Z" fill="#181F1C"/>
<mask id="path-2-inside-1_1602_2694" fill="white">
<path d="M138.934 95.3396C145.61 96.075 151.47 97.2177 151.47 97.2177C138.143 89.9592 138.485 63.9143 138.485 63.9143C140.819 13.4591 107.201 16.099 107.201 16.099V16.1784L107.174 16.099C107.174 16.099 73.561 13.4538 75.8898 63.9143C75.8898 63.9143 76.2317 89.9592 62.905 97.2177C62.905 97.2177 81.9309 92.9854 95.4605 100.514L90.5037 89.5571C95.2522 94.2551 100.999 97.0167 107.19 97.0167C113.242 97.0167 118.866 94.3715 123.556 89.8799L120.1 97.0167C121.259 95.1227 125.618 94.6095 130.729 94.7365M132.999 59.0153C132.582 65.2618 130.949 71.3696 128.192 77.0029C123.46 86.3934 115.806 92.4934 107.158 92.4934C93.9863 92.4934 83.122 78.3149 81.3861 59.92C81.3861 59.92 91.791 58.2111 97.9976 55.7828C97.9976 55.7828 109.262 52.0795 123.006 42.2551L123.214 42.1069C123.214 42.1069 123.46 42.4614 123.807 43.0539C125.003 45.0802 127.546 51.1166 122.739 53.8835L131.541 55.021H131.701L133.304 55.3172C133.292 56.5565 133.198 57.7937 133.021 59.0206L132.999 59.0153Z"/>
</mask>
<path d="M138.934 95.3396C145.61 96.075 151.47 97.2177 151.47 97.2177C138.143 89.9592 138.485 63.9143 138.485 63.9143C140.819 13.4591 107.201 16.099 107.201 16.099V16.1784L107.174 16.099C107.174 16.099 73.561 13.4538 75.8898 63.9143C75.8898 63.9143 76.2317 89.9592 62.905 97.2177C62.905 97.2177 81.9309 92.9854 95.4605 100.514L90.5037 89.5571C95.2522 94.2551 100.999 97.0167 107.19 97.0167C113.242 97.0167 118.866 94.3715 123.556 89.8799L120.1 97.0167C121.259 95.1227 125.618 94.6095 130.729 94.7365M132.999 59.0153C132.582 65.2618 130.949 71.3696 128.192 77.0029C123.46 86.3934 115.806 92.4934 107.158 92.4934C93.9863 92.4934 83.122 78.3149 81.3861 59.92C81.3861 59.92 91.791 58.2111 97.9976 55.7828C97.9976 55.7828 109.262 52.0795 123.006 42.2551L123.214 42.1069C123.214 42.1069 123.46 42.4614 123.807 43.0539C125.003 45.0802 127.546 51.1166 122.739 53.8835L131.541 55.021H131.701L133.304 55.3172C133.292 56.5565 133.198 57.7937 133.021 59.0206L132.999 59.0153Z" fill="#F2A8EE"/>
<path d="M151.47 97.2177L151.278 98.1992L151.948 96.3395L151.47 97.2177ZM138.485 63.9143L137.486 63.868L137.485 63.8846L137.485 63.9011L138.485 63.9143ZM107.201 16.099L107.122 15.1021L106.201 15.1745V16.099H107.201ZM107.201 16.1784L106.253 16.4974L108.201 16.1784H107.201ZM107.174 16.099L108.122 15.78L107.911 15.1539L107.252 15.1021L107.174 16.099ZM75.8898 63.9143L76.8897 63.9011L76.8895 63.8846L76.8888 63.8681L75.8898 63.9143ZM62.905 97.2177L62.4267 96.3395L63.1222 98.1939L62.905 97.2177ZM95.4605 100.514L94.9742 101.388L97.6192 102.859L96.3716 100.102L95.4605 100.514ZM90.5037 89.5571L91.207 88.8463L89.5926 89.9693L90.5037 89.5571ZM123.556 89.8799L124.456 90.3157L122.864 89.1577L123.556 89.8799ZM120.1 97.0167L119.2 96.5809L120.953 97.5387L120.1 97.0167ZM132.999 59.0153L133.24 58.0446L132.081 57.7577L132.002 58.9485L132.999 59.0153ZM128.192 77.0029L129.085 77.4529L129.09 77.4425L128.192 77.0029ZM81.3861 59.92L81.224 58.9332L80.3028 59.0845L80.3905 60.0139L81.3861 59.92ZM97.9976 55.7828L97.6853 54.8328L97.659 54.8415L97.6333 54.8515L97.9976 55.7828ZM123.006 42.2551L122.426 41.4401L122.424 41.4416L123.006 42.2551ZM123.214 42.1069L124.036 41.5373L123.459 40.7055L122.635 41.292L123.214 42.1069ZM123.807 43.0539L122.944 43.5595L122.946 43.5624L123.807 43.0539ZM122.739 53.8835L122.24 53.0168L119.671 54.4954L122.611 54.8753L122.739 53.8835ZM131.541 55.021L131.413 56.0127L131.477 56.021H131.541V55.021ZM131.701 55.021L131.883 54.0376L131.793 54.021H131.701V55.021ZM133.304 55.3172L134.304 55.3265L134.312 54.4866L133.486 54.3339L133.304 55.3172ZM133.021 59.0206L132.78 59.9913L133.853 60.2568L134.01 59.1634L133.021 59.0206ZM138.824 96.3336C142.14 96.6988 145.255 97.1655 147.543 97.5412C148.687 97.729 149.622 97.8939 150.271 98.0116C150.596 98.0705 150.848 98.1176 151.02 98.1499C151.105 98.166 151.17 98.1784 151.214 98.1868C151.236 98.191 151.252 98.1941 151.263 98.1962C151.268 98.1973 151.272 98.198 151.275 98.1986C151.276 98.1988 151.277 98.199 151.278 98.1991C151.278 98.1992 151.278 98.1992 151.278 98.1992C151.278 98.1992 151.278 98.1992 151.278 98.1992C151.278 98.1992 151.278 98.1992 151.47 97.2177C151.661 96.2362 151.661 96.2362 151.661 96.2362C151.661 96.2362 151.661 96.2362 151.661 96.2361C151.66 96.2361 151.66 96.236 151.66 96.2359C151.659 96.2358 151.658 96.2356 151.656 96.2353C151.653 96.2347 151.649 96.2338 151.643 96.2326C151.631 96.2304 151.614 96.227 151.591 96.2226C151.545 96.2139 151.478 96.2011 151.39 96.1845C151.215 96.1514 150.958 96.1035 150.628 96.0438C149.97 95.9243 149.023 95.7575 147.867 95.5677C145.557 95.1882 142.404 94.7158 139.043 94.3456L138.824 96.3336ZM151.948 96.3395C145.704 92.9386 142.531 85.0222 140.958 77.6357C140.18 73.9852 139.811 70.5517 139.637 68.0284C139.55 66.768 139.512 65.7376 139.496 65.0246C139.488 64.6681 139.485 64.3912 139.484 64.2046C139.484 64.1114 139.484 64.0407 139.484 63.994C139.484 63.9707 139.485 63.9534 139.485 63.9422C139.485 63.9366 139.485 63.9326 139.485 63.9301C139.485 63.9289 139.485 63.928 139.485 63.9276C139.485 63.9273 139.485 63.9273 139.485 63.9272C139.485 63.9272 139.485 63.9274 138.485 63.9143C137.485 63.9011 137.485 63.9015 137.485 63.9019C137.485 63.9022 137.485 63.9028 137.485 63.9033C137.485 63.9045 137.485 63.906 137.485 63.9079C137.485 63.9117 137.485 63.9172 137.485 63.9241C137.485 63.938 137.484 63.9582 137.484 63.9843C137.484 64.0367 137.484 64.1132 137.484 64.2124C137.485 64.4109 137.488 64.7006 137.497 65.0705C137.514 65.8102 137.553 66.8713 137.642 68.166C137.82 70.7529 138.199 74.2844 139.002 78.0524C140.589 85.503 143.909 94.2383 150.991 98.0959L151.948 96.3395ZM139.484 63.9605C140.662 38.4979 132.763 26.1633 124.289 20.2652C120.085 17.3385 115.808 16.0487 112.588 15.4896C110.977 15.2099 109.625 15.1121 108.67 15.0845C108.192 15.0708 107.813 15.0746 107.549 15.0821C107.417 15.0859 107.315 15.0906 107.243 15.0945C107.207 15.0964 107.179 15.0982 107.159 15.0995C107.149 15.1002 107.14 15.1007 107.134 15.1012C107.131 15.1014 107.129 15.1016 107.127 15.1017C107.126 15.1018 107.125 15.1019 107.124 15.1019C107.123 15.102 107.122 15.1021 107.201 16.099C107.279 17.0959 107.278 17.096 107.278 17.096C107.278 17.096 107.278 17.0961 107.278 17.0961C107.278 17.096 107.278 17.096 107.279 17.0959C107.281 17.0958 107.286 17.0955 107.292 17.0951C107.304 17.0943 107.324 17.093 107.351 17.0915C107.407 17.0885 107.492 17.0845 107.606 17.0813C107.834 17.0748 108.175 17.0711 108.612 17.0837C109.486 17.1089 110.742 17.199 112.246 17.4601C115.256 17.9828 119.239 19.1865 123.147 21.9067C130.899 27.3024 138.642 38.8754 137.486 63.868L139.484 63.9605ZM106.201 16.099V16.1784H108.201V16.099H106.201ZM108.148 15.8594L108.122 15.78L106.226 16.418L106.253 16.4974L108.148 15.8594ZM107.174 16.099C107.252 15.1021 107.252 15.102 107.251 15.102C107.25 15.1019 107.249 15.1018 107.248 15.1018C107.246 15.1016 107.244 15.1014 107.241 15.1012C107.234 15.1008 107.226 15.1002 107.216 15.0995C107.196 15.0982 107.168 15.0964 107.132 15.0945C107.06 15.0905 106.958 15.0858 106.826 15.082C106.562 15.0745 106.183 15.0706 105.706 15.0843C104.751 15.1117 103.399 15.2093 101.787 15.4889C98.5675 16.0475 94.2918 17.3368 90.0873 20.2632C81.6143 26.1606 73.7156 38.4953 74.8909 63.9604L76.8888 63.8681C75.7352 38.8728 83.4786 27.2998 91.2299 21.9047C95.1376 19.1849 99.1196 17.9816 102.129 17.4594C103.633 17.1985 104.889 17.1086 105.763 17.0835C106.2 17.071 106.54 17.0747 106.768 17.0812C106.882 17.0845 106.968 17.0885 107.023 17.0915C107.051 17.093 107.071 17.0943 107.083 17.0951C107.089 17.0955 107.093 17.0958 107.095 17.0959C107.096 17.096 107.097 17.096 107.097 17.096C107.097 17.096 107.097 17.096 107.097 17.096C107.096 17.096 107.096 17.0959 107.174 16.099ZM75.8898 63.9143C74.8899 63.9274 74.8899 63.9272 74.8899 63.9272C74.8899 63.9273 74.8899 63.9273 74.8899 63.9276C74.8899 63.928 74.8899 63.9289 74.8899 63.9301C74.89 63.9326 74.89 63.9366 74.8901 63.9422C74.8902 63.9534 74.8903 63.9707 74.8904 63.994C74.8906 64.0407 74.8908 64.1114 74.8904 64.2046C74.8897 64.3912 74.8869 64.6681 74.8787 65.0246C74.8624 65.7376 74.8243 66.768 74.7374 68.0284C74.5634 70.5517 74.1945 73.9852 73.4169 77.6357C71.8433 85.0222 68.6708 92.9386 62.4267 96.3395L63.3833 98.0959C70.4659 94.2383 73.7858 85.503 75.373 78.0524C76.1757 74.2844 76.5543 70.7529 76.7326 68.166C76.8219 66.8713 76.8612 65.8102 76.8782 65.0705C76.8867 64.7006 76.8896 64.4109 76.8904 64.2124C76.8908 64.1132 76.8906 64.0367 76.8904 63.9843C76.8903 63.9582 76.8901 63.938 76.89 63.9241C76.8899 63.9172 76.8899 63.9117 76.8898 63.9079C76.8898 63.906 76.8898 63.9045 76.8898 63.9033C76.8898 63.9028 76.8897 63.9022 76.8897 63.9019C76.8897 63.9015 76.8897 63.9011 75.8898 63.9143ZM62.905 97.2177C63.1222 98.1939 63.122 98.1939 63.1219 98.1939C63.1219 98.1939 63.1219 98.1939 63.122 98.1939C63.1223 98.1938 63.1228 98.1937 63.1236 98.1936C63.1253 98.1932 63.128 98.1926 63.1319 98.1917C63.1398 98.19 63.1521 98.1873 63.1689 98.1838C63.2025 98.1766 63.2539 98.1658 63.3223 98.1518C63.459 98.1238 63.6638 98.0832 63.9307 98.0339C64.4645 97.9353 65.2461 97.8018 66.2278 97.6644C68.1923 97.3895 70.9522 97.1001 74.1273 97.0424C80.5029 96.9267 88.4344 97.7485 94.9742 101.388L95.9467 99.6399C88.957 95.7505 80.6108 94.9244 74.091 95.0428C70.8184 95.1022 67.9763 95.4003 65.9506 95.6837C64.9373 95.8255 64.1268 95.9638 63.5672 96.0672C63.2874 96.1189 63.0703 96.1619 62.9217 96.1923C62.8475 96.2075 62.7903 96.2195 62.7511 96.2279C62.7315 96.2321 62.7164 96.2354 62.7058 96.2377C62.7005 96.2388 62.6964 96.2397 62.6934 96.2404C62.6919 96.2407 62.6907 96.241 62.6898 96.2412C62.6893 96.2413 62.6888 96.2414 62.6886 96.2414C62.6882 96.2415 62.6879 96.2416 62.905 97.2177ZM96.3716 100.102L91.4148 89.145L89.5926 89.9693L94.5494 100.926L96.3716 100.102ZM89.8004 90.268C94.6959 95.1114 100.685 98.0167 107.19 98.0167V96.0167C101.314 96.0167 95.8084 93.3987 91.207 88.8463L89.8004 90.268ZM107.19 98.0167C113.55 98.0167 119.412 95.2339 124.248 90.6021L122.864 89.1577C118.321 93.5091 112.934 96.0167 107.19 96.0167V98.0167ZM122.656 89.444L119.2 96.5809L121 97.4525L124.456 90.3157L122.656 89.444ZM120.953 97.5387C121.108 97.286 121.415 97.0084 121.964 96.7452C122.509 96.4838 123.229 96.267 124.116 96.1018C125.889 95.7713 128.177 95.6734 130.704 95.7362L130.754 93.7368C128.17 93.6726 125.723 93.7679 123.749 94.1357C122.762 94.3197 121.856 94.5784 121.099 94.9419C120.344 95.3036 119.672 95.8004 119.247 96.4947L120.953 97.5387ZM132.002 58.9485C131.592 65.0653 129.994 71.0464 127.294 76.5633L129.09 77.4425C131.904 71.6928 133.571 65.4584 133.997 59.082L132.002 58.9485ZM127.299 76.5528C122.666 85.7461 115.293 91.4934 107.158 91.4934V93.4934C116.318 93.4934 124.253 87.0408 129.085 77.4529L127.299 76.5528ZM107.158 91.4934C100.957 91.4934 95.2146 88.1589 90.7707 82.488C86.3264 76.8165 83.2344 68.8624 82.3816 59.826L80.3905 60.0139C81.2736 69.3725 84.4818 77.7051 89.1965 83.7216C93.9116 89.7386 100.187 93.4934 107.158 93.4934V91.4934ZM81.3861 59.92C81.5481 60.9067 81.5482 60.9067 81.5484 60.9067C81.5485 60.9067 81.5486 60.9066 81.5488 60.9066C81.5492 60.9065 81.5498 60.9065 81.5505 60.9063C81.552 60.9061 81.554 60.9058 81.5567 60.9053C81.5621 60.9044 81.5699 60.9031 81.5802 60.9014C81.6008 60.898 81.6311 60.8929 81.6707 60.8862C81.7499 60.8729 81.8663 60.8531 82.0162 60.8271C82.3161 60.775 82.7503 60.6982 83.2905 60.5984C84.3704 60.3988 85.8752 60.1074 87.5758 59.7394C90.962 59.0067 95.1803 57.9589 98.362 56.7141L97.6333 54.8515C94.6083 56.035 90.5208 57.0559 87.1529 57.7846C85.4764 58.1474 83.992 58.4349 82.9271 58.6316C82.3948 58.73 81.9677 58.8056 81.6743 58.8565C81.5276 58.882 81.4144 58.9012 81.3381 58.9141C81.3 58.9205 81.2711 58.9254 81.252 58.9285C81.2424 58.9301 81.2352 58.9313 81.2305 58.9321C81.2282 58.9325 81.2265 58.9328 81.2254 58.9329C81.2248 58.933 81.2244 58.9331 81.2242 58.9331C81.2241 58.9332 81.224 58.9332 81.224 58.9332C81.224 58.9332 81.224 58.9332 81.3861 59.92ZM97.9976 55.7828C98.3099 56.7328 98.3102 56.7327 98.3104 56.7326C98.3106 56.7326 98.3109 56.7325 98.3112 56.7324C98.3118 56.7322 98.3126 56.7319 98.3136 56.7316C98.3155 56.731 98.318 56.7301 98.3213 56.729C98.3278 56.7268 98.3371 56.7238 98.349 56.7197C98.3729 56.7117 98.4075 56.7 98.4526 56.6845C98.5429 56.6535 98.675 56.6073 98.847 56.5455C99.1908 56.4218 99.694 56.2352 100.339 55.981C101.629 55.4727 103.488 54.6939 105.777 53.6064C110.355 51.4317 116.66 48.0209 123.587 43.0686L122.424 41.4416C115.609 46.3137 109.409 49.6667 104.919 51.7998C102.674 52.8662 100.857 53.6272 99.6059 54.1203C98.9802 54.3668 98.4959 54.5463 98.17 54.6635C98.0071 54.7221 97.8838 54.7651 97.8023 54.7932C97.7616 54.8072 97.7313 54.8174 97.7117 54.824C97.7019 54.8273 97.6948 54.8297 97.6904 54.8312C97.6881 54.8319 97.6866 54.8324 97.6858 54.8327C97.6854 54.8328 97.6851 54.8329 97.685 54.8329C97.685 54.8329 97.6851 54.8329 97.685 54.8329C97.6852 54.8329 97.6853 54.8328 97.9976 55.7828ZM123.585 43.07L123.794 42.9219L122.635 41.292L122.426 41.4401L123.585 43.07ZM123.214 42.1069C122.392 42.6766 122.392 42.6766 122.392 42.6765C122.392 42.6765 122.392 42.6765 122.392 42.6765C122.392 42.6764 122.392 42.6764 122.392 42.6763C122.392 42.6762 122.392 42.6762 122.392 42.6761C122.392 42.676 122.392 42.676 122.392 42.6761C122.392 42.6763 122.392 42.6768 122.393 42.6776C122.394 42.6793 122.396 42.6823 122.399 42.6866C122.405 42.6953 122.414 42.7092 122.427 42.7281C122.452 42.7659 122.491 42.8238 122.54 42.8999C122.638 43.0522 122.779 43.2768 122.944 43.5595L124.67 42.5484C124.488 42.2385 124.332 41.9897 124.221 41.8166C124.165 41.73 124.12 41.6622 124.089 41.6151C124.073 41.5915 124.06 41.5731 124.052 41.56C124.047 41.5535 124.044 41.5483 124.041 41.5445C124.04 41.5426 124.039 41.5411 124.038 41.5399C124.037 41.5393 124.037 41.5387 124.037 41.5383C124.036 41.5381 124.036 41.5379 124.036 41.5377C124.036 41.5376 124.036 41.5375 124.036 41.5375C124.036 41.5374 124.036 41.5374 124.036 41.5374C124.036 41.5373 124.036 41.5373 123.214 42.1069ZM122.946 43.5624C123.502 44.5048 124.362 46.3735 124.528 48.2781C124.69 50.131 124.205 51.886 122.24 53.0168L123.238 54.7502C126.08 53.1142 126.727 50.4675 126.52 48.1039C126.318 45.7919 125.308 43.6293 124.668 42.5455L122.946 43.5624ZM122.611 54.8753L131.413 56.0127L131.669 54.0292L122.867 52.8918L122.611 54.8753ZM131.541 56.021H131.701V54.021H131.541V56.021ZM131.52 56.0043L133.122 56.3006L133.486 54.3339L131.883 54.0376L131.52 56.0043ZM132.304 55.3079C132.293 56.5025 132.202 57.6951 132.031 58.8778L134.01 59.1634C134.194 57.8923 134.292 56.6105 134.304 55.3265L132.304 55.3079ZM133.261 58.0499L133.24 58.0446L132.759 59.986L132.78 59.9913L133.261 58.0499Z" fill="#F2A8EE" mask="url(#path-2-inside-1_1602_2694)"/>
<mask id="path-4-inside-2_1602_2694" fill="white">
<path d="M194.019 179.775C200.701 180.516 206.555 181.659 206.555 181.659C193.234 174.4 193.575 148.329 193.575 148.329C195.904 97.879 162.286 100.519 162.286 100.519V100.598L162.259 100.519C162.259 100.519 128.641 97.8737 130.975 148.329C130.975 148.329 131.312 174.379 117.99 181.659C117.99 181.659 137.016 177.426 150.546 184.95L145.584 173.998C150.332 178.691 156.079 181.453 162.275 181.453C168.322 181.453 173.946 178.807 178.641 174.321L175.159 181.463C176.318 179.569 180.676 179.061 185.788 179.183M188.111 143.467C187.696 149.714 186.063 155.822 183.304 161.455C178.577 170.845 170.918 176.945 162.27 176.945C149.098 176.945 138.234 162.767 136.498 144.377C136.498 144.377 146.903 142.668 153.115 140.234C153.115 140.234 164.374 136.531 178.118 126.707L178.326 126.564C178.326 126.564 178.572 126.913 178.924 127.506C180.115 129.537 182.663 135.574 177.856 138.335L186.658 139.441H186.813L188.416 139.737C188.408 140.985 188.314 142.232 188.133 143.467H188.111Z"/>
</mask>
<path d="M194.019 179.775C200.701 180.516 206.555 181.659 206.555 181.659C193.234 174.4 193.575 148.329 193.575 148.329C195.904 97.879 162.286 100.519 162.286 100.519V100.598L162.259 100.519C162.259 100.519 128.641 97.8737 130.975 148.329C130.975 148.329 131.312 174.379 117.99 181.659C117.99 181.659 137.016 177.426 150.546 184.95L145.584 173.998C150.332 178.691 156.079 181.453 162.275 181.453C168.322 181.453 173.946 178.807 178.641 174.321L175.159 181.463C176.318 179.569 180.676 179.061 185.788 179.183M188.111 143.467C187.696 149.714 186.063 155.822 183.304 161.455C178.577 170.845 170.918 176.945 162.27 176.945C149.098 176.945 138.234 162.767 136.498 144.377C136.498 144.377 146.903 142.668 153.115 140.234C153.115 140.234 164.374 136.531 178.118 126.707L178.326 126.564C178.326 126.564 178.572 126.913 178.924 127.506C180.115 129.537 182.663 135.574 177.856 138.335L186.658 139.441H186.813L188.416 139.737C188.408 140.985 188.314 142.232 188.133 143.467H188.111Z" fill="#F2A8EE"/>
<path d="M206.555 181.659L206.363 182.64L207.033 180.781L206.555 181.659ZM193.575 148.329L192.577 148.283L192.576 148.299L192.576 148.316L193.575 148.329ZM162.286 100.519L162.208 99.522L161.286 99.5944V100.519H162.286ZM162.286 100.598L161.338 100.917L163.286 100.598H162.286ZM162.259 100.519L163.207 100.2L162.996 99.5738L162.338 99.522L162.259 100.519ZM130.975 148.329L131.975 148.316L131.975 148.299L131.974 148.283L130.975 148.329ZM117.99 181.659L117.511 180.781L118.207 182.635L117.99 181.659ZM150.546 184.95L150.06 185.823L152.706 187.295L151.457 184.537L150.546 184.95ZM145.584 173.998L146.286 173.287L144.673 174.411L145.584 173.998ZM178.641 174.321L179.54 174.759L177.95 173.598L178.641 174.321ZM175.159 181.463L174.26 181.025L176.012 181.985L175.159 181.463ZM188.111 143.467V142.467H187.176L187.114 143.401L188.111 143.467ZM183.304 161.455L184.197 161.904L184.202 161.894L183.304 161.455ZM136.498 144.377L136.336 143.39L135.415 143.541L135.502 144.471L136.498 144.377ZM153.115 140.234L152.802 139.285L152.776 139.293L152.75 139.303L153.115 140.234ZM178.118 126.707L177.552 125.882L177.544 125.888L177.536 125.893L178.118 126.707ZM178.326 126.564L179.144 125.988L178.575 125.18L177.76 125.739L178.326 126.564ZM178.924 127.506L179.787 127L179.784 126.994L178.924 127.506ZM177.856 138.335L177.358 137.468L174.769 138.955L177.731 139.327L177.856 138.335ZM186.658 139.441L186.534 140.433L186.596 140.441H186.658V139.441ZM186.813 139.441L186.995 138.458L186.905 138.441H186.813V139.441ZM188.416 139.737L189.416 139.743L189.421 138.906L188.598 138.754L188.416 139.737ZM188.133 143.467V144.467H188.997L189.122 143.612L188.133 143.467ZM193.909 180.769C197.227 181.137 200.343 181.605 202.63 181.982C203.773 182.17 204.709 182.335 205.357 182.453C205.681 182.512 205.934 182.559 206.105 182.591C206.19 182.607 206.255 182.619 206.299 182.628C206.321 182.632 206.337 182.635 206.348 182.637C206.353 182.638 206.357 182.639 206.36 182.64C206.361 182.64 206.362 182.64 206.363 182.64C206.363 182.64 206.363 182.64 206.363 182.64C206.363 182.64 206.363 182.64 206.363 182.64C206.363 182.64 206.363 182.64 206.555 181.659C206.747 180.677 206.746 180.677 206.746 180.677C206.746 180.677 206.746 180.677 206.746 180.677C206.746 180.677 206.746 180.677 206.745 180.677C206.744 180.677 206.743 180.677 206.742 180.676C206.738 180.676 206.734 180.675 206.728 180.674C206.716 180.671 206.699 180.668 206.676 180.664C206.631 180.655 206.564 180.642 206.476 180.626C206.301 180.593 206.044 180.545 205.715 180.485C205.057 180.365 204.111 180.198 202.955 180.008C200.645 179.628 197.493 179.154 194.129 178.782L193.909 180.769ZM207.033 180.781C200.792 177.38 197.621 169.457 196.048 162.064C195.27 158.41 194.902 154.973 194.728 152.447C194.641 151.186 194.603 150.154 194.587 149.44C194.578 149.084 194.576 148.806 194.575 148.62C194.575 148.526 194.575 148.455 194.575 148.409C194.575 148.385 194.575 148.368 194.575 148.357C194.575 148.351 194.575 148.347 194.575 148.345C194.575 148.343 194.575 148.343 194.575 148.342C194.575 148.342 194.575 148.342 194.575 148.342C194.575 148.342 194.575 148.342 193.575 148.329C192.576 148.316 192.576 148.316 192.576 148.317C192.576 148.317 192.576 148.317 192.576 148.318C192.576 148.319 192.576 148.321 192.576 148.323C192.575 148.326 192.575 148.332 192.575 148.339C192.575 148.353 192.575 148.373 192.575 148.399C192.575 148.451 192.575 148.528 192.575 148.627C192.576 148.826 192.579 149.116 192.587 149.486C192.604 150.227 192.643 151.289 192.733 152.585C192.911 155.174 193.289 158.709 194.092 162.48C195.678 169.937 198.996 178.679 206.076 182.537L207.033 180.781ZM194.574 148.375C195.75 122.915 187.85 110.582 179.375 104.684C175.17 101.758 170.894 100.468 167.673 99.9095C166.062 99.6298 164.71 99.532 163.755 99.5045C163.277 99.4907 162.898 99.4945 162.634 99.502C162.503 99.5058 162.4 99.5105 162.328 99.5144C162.292 99.5163 162.264 99.5181 162.244 99.5194C162.234 99.5201 162.226 99.5207 162.22 99.5211C162.217 99.5213 162.214 99.5215 162.212 99.5217C162.211 99.5217 162.21 99.5218 162.209 99.5219C162.209 99.5219 162.208 99.522 162.286 100.519C162.364 101.516 162.364 101.516 162.363 101.516C162.363 101.516 162.363 101.516 162.363 101.516C162.363 101.516 162.363 101.516 162.365 101.516C162.367 101.516 162.371 101.515 162.377 101.515C162.389 101.514 162.409 101.513 162.437 101.511C162.492 101.508 162.578 101.504 162.691 101.501C162.919 101.495 163.26 101.491 163.697 101.504C164.571 101.529 165.827 101.619 167.331 101.88C170.342 102.403 174.324 103.606 178.233 106.326C185.985 111.721 193.73 123.293 192.577 148.283L194.574 148.375ZM161.286 100.519V100.598H163.286V100.519H161.286ZM163.234 100.279L163.207 100.2L161.311 100.838L161.338 100.917L163.234 100.279ZM162.259 100.519C162.338 99.522 162.337 99.522 162.336 99.5219C162.335 99.5218 162.334 99.5218 162.333 99.5217C162.331 99.5215 162.329 99.5213 162.326 99.5211C162.32 99.5207 162.312 99.5201 162.302 99.5194C162.281 99.5181 162.253 99.5163 162.217 99.5144C162.146 99.5105 162.043 99.5057 161.911 99.502C161.648 99.4944 161.268 99.4905 160.791 99.5042C159.835 99.5316 158.483 99.6292 156.872 99.9087C153.652 100.467 149.375 101.756 145.171 104.682C136.697 110.579 128.798 122.913 129.976 148.375L131.974 148.283C130.818 123.29 138.561 111.718 146.313 106.324C150.221 103.605 154.204 102.401 157.214 101.879C158.718 101.618 159.974 101.528 160.848 101.503C161.285 101.491 161.626 101.495 161.854 101.501C161.967 101.504 162.053 101.508 162.108 101.511C162.136 101.513 162.156 101.514 162.168 101.515C162.174 101.515 162.178 101.516 162.181 101.516C162.182 101.516 162.182 101.516 162.182 101.516C162.182 101.516 162.182 101.516 162.182 101.516C162.181 101.516 162.181 101.516 162.259 100.519ZM130.975 148.329C129.975 148.342 129.975 148.342 129.975 148.342C129.975 148.342 129.975 148.342 129.975 148.342C129.975 148.342 129.975 148.343 129.975 148.345C129.975 148.347 129.975 148.351 129.975 148.357C129.975 148.368 129.975 148.385 129.976 148.408C129.976 148.455 129.976 148.526 129.976 148.619C129.975 148.806 129.972 149.083 129.964 149.439C129.947 150.153 129.909 151.183 129.822 152.444C129.647 154.968 129.278 158.403 128.5 162.056C126.926 169.446 123.753 177.37 117.511 180.781L118.47 182.536C125.549 178.668 128.868 169.927 130.456 162.472C131.259 158.702 131.638 155.17 131.817 152.582C131.907 151.287 131.946 150.225 131.963 149.486C131.972 149.116 131.975 148.826 131.976 148.627C131.976 148.528 131.976 148.452 131.976 148.399C131.975 148.373 131.975 148.353 131.975 148.339C131.975 148.332 131.975 148.327 131.975 148.323C131.975 148.321 131.975 148.319 131.975 148.318C131.975 148.318 131.975 148.317 131.975 148.317C131.975 148.316 131.975 148.316 130.975 148.329ZM117.99 181.659C118.207 182.635 118.207 182.635 118.207 182.635C118.207 182.635 118.207 182.635 118.207 182.635C118.207 182.635 118.208 182.635 118.209 182.635C118.21 182.634 118.213 182.634 118.217 182.633C118.225 182.631 118.237 182.628 118.254 182.625C118.288 182.618 118.339 182.607 118.407 182.593C118.544 182.565 118.749 182.524 119.016 182.475C119.55 182.376 120.331 182.243 121.313 182.105C123.278 181.83 126.038 181.541 129.213 181.483C135.588 181.366 143.52 182.187 150.06 185.823L151.032 184.076C144.042 180.189 135.696 179.364 129.176 179.483C125.904 179.543 123.061 179.841 121.036 180.125C120.022 180.267 119.212 180.405 118.652 180.508C118.373 180.56 118.155 180.603 118.007 180.633C117.933 180.649 117.876 180.661 117.836 180.669C117.817 180.673 117.802 180.676 117.791 180.679C117.786 180.68 117.782 180.681 117.779 180.681C117.777 180.682 117.776 180.682 117.775 180.682C117.775 180.682 117.774 180.682 117.774 180.683C117.773 180.683 117.773 180.683 117.99 181.659ZM151.457 184.537L146.494 173.586L144.673 174.411L149.635 185.362L151.457 184.537ZM144.881 174.71C149.776 179.547 155.765 182.453 162.275 182.453V180.453C156.394 180.453 150.888 177.834 146.286 173.287L144.881 174.71ZM162.275 182.453C168.63 182.453 174.491 179.67 179.332 175.044L177.95 173.598C173.401 177.945 168.014 180.453 162.275 180.453V182.453ZM177.742 173.883L174.26 181.025L176.057 181.901L179.54 174.759L177.742 173.883ZM176.012 181.985C176.166 181.733 176.473 181.455 177.022 181.193C177.567 180.931 178.287 180.715 179.174 180.55C180.948 180.22 183.236 180.122 185.764 180.183L185.812 178.183C183.228 178.122 180.781 178.217 178.808 178.584C177.821 178.768 176.915 179.026 176.158 179.389C175.403 179.75 174.731 180.247 174.306 180.941L176.012 181.985ZM187.114 143.401C186.707 149.517 185.108 155.499 182.406 161.015L184.202 161.894C187.019 156.145 188.685 149.91 189.109 143.533L187.114 143.401ZM182.411 161.005C177.783 170.198 170.405 175.945 162.27 175.945V177.945C171.43 177.945 179.371 171.493 184.197 161.904L182.411 161.005ZM162.27 175.945C156.069 175.945 150.327 172.611 145.883 166.94C141.438 161.269 138.346 153.317 137.494 144.283L135.502 144.471C136.386 153.827 139.594 162.158 144.308 168.174C149.024 174.19 155.299 177.945 162.27 177.945V175.945ZM136.498 144.377C136.66 145.364 136.66 145.364 136.66 145.364C136.66 145.364 136.661 145.364 136.661 145.364C136.661 145.364 136.662 145.363 136.662 145.363C136.664 145.363 136.666 145.363 136.669 145.362C136.674 145.361 136.682 145.36 136.692 145.358C136.713 145.355 136.743 145.35 136.783 145.343C136.862 145.33 136.978 145.31 137.128 145.284C137.428 145.232 137.862 145.155 138.403 145.055C139.483 144.856 140.988 144.564 142.689 144.196C146.076 143.462 150.295 142.413 153.48 141.166L152.75 139.303C149.723 140.489 145.634 141.512 142.265 142.241C140.589 142.604 139.104 142.892 138.039 143.089C137.507 143.187 137.08 143.263 136.786 143.313C136.64 143.339 136.526 143.358 136.45 143.371C136.412 143.377 136.383 143.382 136.364 143.386C136.354 143.387 136.347 143.388 136.342 143.389C136.34 143.389 136.338 143.39 136.337 143.39C136.337 143.39 136.336 143.39 136.336 143.39C136.336 143.39 136.336 143.39 136.336 143.39C136.336 143.39 136.336 143.39 136.498 144.377ZM153.115 140.234C153.427 141.184 153.428 141.184 153.428 141.184C153.428 141.184 153.428 141.184 153.429 141.184C153.429 141.184 153.43 141.184 153.431 141.183C153.433 141.183 153.435 141.182 153.439 141.181C153.445 141.178 153.454 141.175 153.466 141.171C153.49 141.163 153.525 141.152 153.57 141.136C153.66 141.105 153.792 141.059 153.964 140.997C154.308 140.873 154.811 140.687 155.456 140.433C156.745 139.924 158.603 139.145 160.892 138.058C165.468 135.883 171.772 132.472 178.699 127.52L177.536 125.893C170.72 130.765 164.522 134.118 160.033 136.252C157.789 137.318 155.973 138.079 154.722 138.572C154.097 138.819 153.613 138.998 153.287 139.115C153.124 139.174 153.001 139.217 152.919 139.245C152.879 139.259 152.848 139.269 152.829 139.276C152.819 139.279 152.812 139.281 152.807 139.283C152.805 139.284 152.804 139.284 152.803 139.284C152.802 139.285 152.802 139.285 152.802 139.285C152.802 139.285 152.802 139.285 152.802 139.285C152.802 139.285 152.802 139.285 153.115 140.234ZM178.683 127.531L178.892 127.389L177.76 125.739L177.552 125.882L178.683 127.531ZM178.326 126.564C177.508 127.139 177.508 127.139 177.508 127.139C177.508 127.139 177.508 127.139 177.508 127.139C177.508 127.139 177.508 127.139 177.508 127.139C177.508 127.139 177.508 127.139 177.508 127.139C177.508 127.139 177.508 127.139 177.508 127.139C177.508 127.139 177.508 127.139 177.509 127.14C177.51 127.142 177.512 127.145 177.515 127.149C177.521 127.158 177.53 127.171 177.543 127.19C177.568 127.227 177.607 127.284 177.656 127.36C177.755 127.511 177.897 127.734 178.065 128.017L179.784 126.994C179.599 126.685 179.442 126.437 179.33 126.265C179.274 126.179 179.229 126.112 179.197 126.066C179.181 126.042 179.168 126.024 179.16 126.011C179.155 126.005 179.152 125.999 179.149 125.996C179.148 125.994 179.146 125.992 179.146 125.991C179.145 125.99 179.145 125.99 179.145 125.989C179.144 125.989 179.144 125.989 179.144 125.989C179.144 125.989 179.144 125.989 179.144 125.989C179.144 125.989 179.144 125.989 179.144 125.989C179.144 125.988 179.144 125.988 178.326 126.564ZM178.062 128.011C178.617 128.959 179.476 130.829 179.643 132.734C179.806 134.587 179.322 136.34 177.358 137.468L178.354 139.202C181.198 137.569 181.843 134.923 181.636 132.559C181.433 130.248 180.423 128.084 179.787 127L178.062 128.011ZM177.731 139.327L186.534 140.433L186.783 138.449L177.981 137.343L177.731 139.327ZM186.658 140.441H186.813V138.441H186.658V140.441ZM186.632 140.424L188.234 140.721L188.598 138.754L186.995 138.458L186.632 140.424ZM187.416 139.731C187.409 140.933 187.318 142.133 187.143 143.322L189.122 143.612C189.31 142.331 189.408 141.038 189.416 139.743L187.416 139.731ZM188.133 142.467H188.111V144.467H188.133V142.467Z" fill="#F2A8EE" mask="url(#path-4-inside-2_1602_2694)"/>
<path d="M17.2612 139.393V139.274L17.2388 139.23C17.109 138.336 17.0232 137.431 16.972 136.503L16.972 136.502C16.9349 135.852 16.9087 135.201 16.9087 134.542L16.9087 134.541C16.9078 132.946 17.022 131.352 17.2507 129.773C19.4504 114.673 31.9363 103.135 47.0039 103.135C62.0714 103.135 74.568 114.689 76.7624 129.783C76.9911 131.363 77.1053 132.956 77.1044 134.552V134.552C77.1044 135.211 77.0782 135.862 77.0411 136.513L77.0411 136.514C76.9884 137.469 76.899 138.4 76.7626 139.32L76.7606 139.333L76.7593 139.347C76.7459 139.493 76.7349 139.625 76.7241 139.754C76.7116 139.903 76.6995 140.047 76.6847 140.203L76.6844 140.206C75.7302 150.938 72.0869 160.428 66.7865 167.223C61.4863 174.017 54.5557 178.09 47.0039 178.09C39.452 178.09 32.5254 174.02 27.2279 167.227C21.9302 160.433 18.2882 150.943 17.3287 140.205L17.3285 140.203C17.3194 140.107 17.3098 140.018 17.3007 139.935C17.2794 139.741 17.2612 139.575 17.2612 139.393ZM77.5403 136.541C77.5777 135.885 77.6044 135.224 77.6044 134.552L77.5403 136.541ZM28.1383 121.709L28.086 121.939L28.0099 121.744C26.2006 122.45 25.1261 124.211 24.4956 126.282C23.8612 128.365 23.6395 130.876 23.6183 133.273C23.597 135.677 23.7773 137.997 23.9622 139.714C24.0364 140.403 24.1115 140.996 24.1749 141.459C23.0865 140.821 21.9108 140.337 20.6823 140.025L19.9954 139.85L20.0611 140.556C20.9473 150.083 24.2119 158.543 28.988 164.633C33.7643 170.724 40.0787 174.471 47.0413 174.471C54.0039 174.471 60.3182 170.724 65.0939 164.633C69.8693 158.543 73.1326 150.083 74.0161 140.555L74.0817 139.849L73.3943 140.025C72.1669 140.339 70.9921 140.823 69.9038 141.46C69.9678 140.996 70.0436 140.404 70.1187 139.715C70.3057 137.998 70.4885 135.677 70.4689 133.274C70.4494 130.876 70.2286 128.365 69.5927 126.282C68.9608 124.21 67.8826 122.449 66.0667 121.743L65.8644 121.665L65.6689 121.759L65.6688 121.759L65.6688 121.759L65.668 121.759L65.6639 121.761L65.6463 121.77C65.6304 121.777 65.6061 121.789 65.5737 121.804C65.5089 121.834 65.4116 121.878 65.2837 121.935C65.0279 122.05 64.6497 122.214 64.1638 122.412C63.1918 122.809 61.7898 123.342 60.0751 123.883C56.6457 124.966 51.9817 126.079 47.0146 126.217C42.0474 126.079 37.382 124.966 33.9513 123.883C32.236 123.342 30.8332 122.809 29.8607 122.412C29.3745 122.214 28.9961 122.05 28.7402 121.935C28.6122 121.878 28.5149 121.834 28.4501 121.804C28.4176 121.788 28.3933 121.777 28.3774 121.77L28.3598 121.761L28.3557 121.759L28.3549 121.759L28.3547 121.759L28.2443 121.989L28.1917 121.709H28.1383Z" fill="#F2A8EE" stroke="#F2A8EE"/>
</svg>
