<svg width="210" height="208" viewBox="0 0 210 208" fill="none" xmlns="http://www.w3.org/2000/svg">
<rect width="210" height="208" fill="#181F1C"/>
<path d="M58.3908 106.866C52.8442 106.866 48.0998 110.26 46.1447 115.07C45.5284 116.565 45.1937 118.223 45.1937 119.954C45.1937 127.18 51.1122 133.027 58.3908 133.027C65.6694 133.027 71.6038 127.186 71.6038 119.954C71.6038 112.723 65.6959 106.866 58.3908 106.866ZM58.3908 123.623C56.3454 123.623 54.6824 121.975 54.6824 119.949C54.6824 117.923 56.3241 116.27 58.3908 116.27C60.4575 116.27 62.1045 117.933 62.1045 119.949C62.1045 121.965 60.4415 123.623 58.3908 123.623Z" fill="#89E26A"/>
<path d="M94.5978 106.866C89.0512 106.866 84.3068 110.26 82.3517 115.07C81.7354 116.565 81.4007 118.223 81.4007 119.954C81.4007 127.18 87.3192 133.027 94.5978 133.027C101.876 133.027 107.811 127.186 107.811 119.954C107.811 112.723 101.903 106.866 94.5978 106.866ZM94.5978 123.623C92.5523 123.623 90.8894 121.975 90.8894 119.949C90.8894 117.923 92.5311 116.27 94.5978 116.27C96.6645 116.27 98.3114 117.933 98.3114 119.949C98.3114 121.965 96.6485 123.623 94.5978 123.623Z" fill="#89E26A"/>
<path d="M172.521 106.866C166.974 106.866 162.23 110.26 160.275 115.07C159.659 116.565 159.324 118.223 159.324 119.954C159.324 127.18 165.242 133.027 172.521 133.027C179.8 133.027 185.734 127.186 185.734 119.954C185.734 112.723 179.826 106.866 172.521 106.866V106.866ZM172.521 123.623C170.476 123.623 168.813 121.975 168.813 119.949C168.813 117.923 170.454 116.27 172.521 116.27C174.588 116.27 176.235 117.933 176.235 119.949C176.235 121.965 174.572 123.623 172.521 123.623Z" fill="#89E26A"/>
<path d="M88.8918 96.7451H61.7752ZM32.7246 96.7451V116.839H41.7511C41.9583 115.734 42.2718 114.644 42.6808 113.613C45.2682 107.234 51.4258 103.108 58.3856 103.108C65.3454 103.108 71.5242 107.239 74.0903 113.634C74.4994 114.649 74.8341 115.734 75.02 116.839H78.0696C78.2768 115.713 78.6115 114.607 79.0365 113.576C81.5654 107.234 87.7283 103.103 94.7041 103.103C102.806 103.103 109.729 108.634 111.36 116.834C113.145 116.834 153.857 116.907 155.642 116.907C155.849 115.781 156.184 114.676 156.609 113.644C159.138 107.302 165.301 103.171 172.277 103.171C180.65 103.171 187.509 109.092 188.932 116.902V55.0683H138.445V96.7503H109.771M147.949 64.4889H178.392V86.9772H147.949V64.4889V64.4889Z" fill="#89E26A"/>
<path d="M199.616 73.4831H188.948V116.918H199.616V73.4831Z" fill="#89E26A"/>
<path d="M133.557 68.636H12.0682V91.5085H133.557V68.636Z" fill="#89E26A"/>
<path d="M12.0681 10.3601V64.4836H133.557V10.3601H12.0681ZM124.323 44.3742H113.533V55.0631H96.7971V44.3742H86.0068V27.7961H96.7971V17.1124H113.533V27.8013H124.323V44.3794V44.3742Z" fill="#89E26A"/>
<path d="M167.936 45.6635H158.442V55.0683H167.936V45.6635Z" fill="#89E26A"/>
<path d="M164.785 36.6904H161.598V39.8481H164.785V36.6904Z" fill="#89E26A"/>
<path d="M164.785 29.1643H161.598V32.9273H164.785V29.1643Z" fill="#89E26A"/>
<path d="M164.785 22.2437H161.598V25.4014H164.785V22.2437Z" fill="#89E26A"/>
<path d="M169.595 36.3996L167.539 38.8125L169.974 40.8494L172.031 38.4365L169.595 36.3996Z" fill="#89E26A"/>
<path d="M174.284 30.9059L171.94 33.6566L174.375 35.6935L176.72 32.9428L174.284 30.9059Z" fill="#89E26A"/>
<path d="M178.689 25.7372L176.633 28.1501L179.069 30.187L181.125 27.7741L178.689 25.7372Z" fill="#89E26A"/>
<path d="M155.894 36.4185L153.459 38.4554L155.515 40.8684L157.951 38.8315L155.894 36.4185Z" fill="#89E26A"/>
<path d="M151.211 30.9166L148.775 32.9536L151.12 35.7043L153.555 33.6674L151.211 30.9166Z" fill="#89E26A"/>
<path d="M146.807 25.7453L144.372 27.7826L146.428 30.1952L148.864 28.1579L146.807 25.7453Z" fill="#89E26A"/>
<path d="M13.4974 142.969V188.819C11.7388 189.461 10.4637 191.135 10.4637 193.087C10.4637 195.587 12.5357 197.64 15.0593 197.64C17.5829 197.64 19.6549 195.587 19.6549 193.087C19.6549 191.114 18.3533 189.43 16.5629 188.798V177.904H53.3595V183.983H93.2217V177.904H96.2925V188.814C94.5233 189.456 93.2323 191.13 93.2323 193.087C93.2323 195.587 95.3203 197.64 97.8438 197.64C100.367 197.64 102.439 195.587 102.439 193.087C102.439 191.119 101.143 189.435 99.3633 188.803V153.595H96.2978V174.867H93.227V164.236H53.3648V167.273H27.2948V158.158H16.5629V142.964H13.4974V142.969ZM16.5629 161.2H24.224V167.273H16.5629V161.2Z" fill="#89E26A"/>
<path d="M110.674 142.969V188.819C108.916 189.461 107.641 191.135 107.641 193.087C107.641 195.587 109.713 197.64 112.236 197.64C114.76 197.64 116.832 195.587 116.832 193.087C116.832 191.114 115.53 189.43 113.74 188.798V177.904H150.536V183.983H190.399V177.904H193.469V188.814C191.7 189.456 190.409 191.13 190.409 193.087C190.409 195.587 192.497 197.64 195.021 197.64C197.544 197.64 199.616 195.587 199.616 193.087C199.616 191.119 198.32 189.435 196.54 188.803V153.595H193.475V174.867H190.404V164.236H150.542V167.273H124.472V158.158H113.74V142.964H110.674V142.969ZM113.74 161.2H121.401V167.273H113.74V161.2Z" fill="#89E26A"/>
</svg>
