<svg width="210" height="208" viewBox="0 0 210 208" fill="none" xmlns="http://www.w3.org/2000/svg">
<rect width="210" height="208" fill="#181F1C"/>
<path d="M102.69 190.28L92.3934 193.063L80.0415 158.34L74.9853 158.157L73.9579 145.995C73.398 140.887 70.4947 141.259 70.4947 141.259L65.0691 141.442L65.4443 139.026L38.7723 138.745L31.9383 116.001L25.3872 118.601C22.2993 114.982 17.3412 117.112 17.3412 117.112L17.1565 116.185L6.85361 119.718C5.91856 121.018 7.22879 122.317 7.22879 122.317L17.8953 119.162L17.7106 118.235C23.8865 116.471 25.1968 121.579 25.1968 121.579L33.237 152.374C20.6081 153.765 10.7843 164.381 10.7843 177.282C10.7843 191.128 22.0972 202.351 36.0537 202.351C48.5441 202.351 58.9047 193.361 60.948 181.554L74.6101 181.09L74.4254 186.381L72.3648 189.542L72.4572 189.605C71.8915 189.444 71.3028 189.353 70.6794 189.353C67.0604 189.353 64.1283 192.261 64.1283 195.852C64.1283 199.442 67.0604 202.351 70.6794 202.351C74.2984 202.351 77.2305 199.442 77.2305 195.852C77.2305 194.374 76.7284 193.023 75.8972 191.929L76.2031 192.141L77.6057 191.397L77.5134 181.09L85.0919 180.809L89.2073 192.88C90.6098 196.59 92.9475 195.291 92.9475 195.291L93.6978 196.035L103.989 193.063L102.679 190.28H102.69ZM61.2366 179.326V179.292C61.7618 176.515 61.0115 172.907 60.5382 171.058L60.5209 170.983C60.3362 170.279 60.2034 169.855 60.2034 169.855L74.4312 168.744L74.714 178.862L61.2423 179.326H61.2366ZM77.4268 178.49V177.282H76.486L76.3013 168.928L81.3575 168.744L84.4454 178.307L77.4326 178.496L77.4268 178.49Z" fill="#89E26A"/>
<path d="M28.7002 30.826C33.9469 29.3314 37.8025 24.533 37.8025 18.847C37.8025 11.97 32.1691 6.37557 25.2371 6.37557C18.305 6.37557 12.6601 11.97 12.6601 18.847C12.6601 24.5273 16.5157 29.3257 21.7624 30.826C15.471 32.372 10.79 38.0007 10.79 44.7117V64.0143H16.0828V91.3335H22.8937V64.0143H27.5632V91.3335H34.374V64.0143H39.6669V44.7117C39.6669 38.0007 34.9916 32.3777 28.706 30.826H28.7002ZM25.2313 24.5673C22.051 24.5673 19.4652 22.0021 19.4652 18.8527C19.4652 15.7034 22.0452 13.1381 25.2313 13.1381C28.4174 13.1381 30.9917 15.6976 30.9917 18.8527C30.9917 22.0021 28.4059 24.5673 25.2313 24.5673Z" fill="#89E26A"/>
<path d="M91.008 53.3523V42.7076C91.008 37.159 87.2101 32.5151 82.0731 31.0836C87.3948 29.6464 91.3313 24.8193 91.3313 19.0875C91.3313 12.2276 85.7036 6.6504 78.7889 6.6504C71.8741 6.6504 66.2465 12.2333 66.2465 19.0875C66.2465 21.0343 66.7141 22.8667 67.5163 24.5101C67.1239 24.3039 66.6448 24.155 66.0214 24.1379C62.9738 24.0462 61.3404 28.7474 60.5554 30.0014C62.7487 31.2611 68.994 31.3985 68.994 27.0868C68.994 27.0295 68.994 26.9379 68.9766 26.8177C70.6159 28.8619 72.89 30.3793 75.4989 31.0836C70.3619 32.5208 66.564 37.159 66.564 42.7076V53.2722L61.2019 73.8632H69.6635V91.3277H76.4744V73.8632H81.1034V91.3277H87.9143V73.8632H96.3701L91.008 53.3523V53.3523ZM73.0862 19.3795C74.6677 18.7324 76.763 17.6388 78.5407 15.9324C80.0991 17.2208 82.1424 18.2915 84.4685 18.5836C84.4858 18.7496 84.5204 18.9099 84.5204 19.0817C84.5204 22.2139 81.9519 24.7677 78.7889 24.7677C75.6259 24.7677 73.2479 22.3742 73.0862 19.3738V19.3795ZM70.004 67.1064L73.2363 54.7209L73.3691 42.7018C73.3691 39.7414 75.799 37.3308 78.7831 37.3308C81.7672 37.3308 84.1972 39.7414 84.1972 42.7018V53.6787L87.568 67.1064H70.004V67.1064Z" fill="#89E26A"/>
<path d="M135.169 30.826C140.416 29.3314 144.271 24.533 144.271 18.847C144.271 11.97 138.632 6.37557 131.7 6.37557C124.768 6.37557 119.129 11.97 119.129 18.847C119.129 24.5273 122.984 29.3257 128.231 30.826C121.94 32.372 117.259 38.0007 117.259 44.7117V64.0143H122.552V91.3335H129.362V64.0143H134.032V91.3335H140.843V64.0143H146.136V44.7117C146.136 38.0007 141.46 32.3777 135.175 30.826H135.169ZM131.7 24.5673C128.52 24.5673 125.934 22.0021 125.934 18.8527C125.934 15.7034 128.514 13.1381 131.7 13.1381C134.886 13.1381 137.46 15.6976 137.46 18.8527C137.46 22.0021 134.875 24.5673 131.7 24.5673Z" fill="#89E26A"/>
<path d="M197.477 53.3523V42.7076C197.477 37.159 193.679 32.5151 188.542 31.0836C193.864 29.6464 197.8 24.8193 197.8 19.0875C197.8 12.2276 192.172 6.6504 185.258 6.6504C178.343 6.6504 172.715 12.2333 172.715 19.0875C172.715 21.0343 173.183 22.8667 173.985 24.5101C173.593 24.3039 173.114 24.155 172.49 24.1379C169.443 24.0462 167.809 28.7474 167.024 30.0014C169.217 31.2611 175.463 31.3985 175.463 27.0868C175.463 27.0295 175.463 26.9379 175.445 26.8177C177.085 28.8619 179.359 30.3793 181.968 31.0836C176.831 32.5208 173.033 37.159 173.033 42.7076V53.2722L167.671 73.8632H176.132V91.3277H182.943V73.8632H187.572V91.3277H194.383V73.8632H202.839L197.477 53.3523V53.3523ZM179.555 19.3795C181.137 18.7324 183.232 17.6388 185.009 15.9324C186.568 17.2208 188.611 18.2915 190.937 18.5836C190.955 18.7496 190.989 18.9099 190.989 19.0817C190.989 22.2139 188.421 24.7677 185.258 24.7677C182.095 24.7677 179.717 22.3742 179.555 19.3738V19.3795ZM176.473 67.1064L179.705 54.7209L179.838 42.7018C179.838 39.7414 182.268 37.3308 185.252 37.3308C188.236 37.3308 190.666 39.7414 190.666 42.7018V53.6787L194.037 67.1064H176.473V67.1064Z" fill="#89E26A"/>
<path d="M97.4436 122.111C96.5086 124.299 97.611 126.818 99.7351 127.746C102.027 128.673 104.48 127.58 105.415 125.392C105.501 125.392 105.501 125.306 105.501 125.306C106.096 125.22 107.706 125.724 108.809 126.738C110.673 128.421 112.029 130.861 113.472 133.552C113.726 134.056 114.067 134.56 114.321 135.064C115.256 136.913 116.272 138.849 117.201 140.698C120.589 147.26 124.069 154.068 129.83 159.703C132.629 162.394 136.444 164.244 138.222 167.777C139.833 171.058 140.341 174.923 139.833 178.456C139.411 181.651 138.476 190.229 136.612 192.078C133.986 191.322 131.354 190.481 128.727 189.387C126.95 188.717 124.912 189.553 124.237 191.322C123.562 193.092 124.404 195.107 126.188 195.777C132.121 198.131 138.055 199.814 143.908 200.742C147.809 201.332 151.705 201.669 155.607 201.669C157.558 201.669 159.422 201.583 161.287 201.417C166.88 200.914 172.559 199.82 178.158 197.97C180.617 197.214 182.989 196.287 185.448 195.193C185.535 195.193 185.535 195.107 185.615 195.107C188.582 193.762 191.549 192.25 194.516 190.567C196.213 189.639 196.721 187.537 195.786 185.86C194.85 184.182 192.732 183.672 191.041 184.6C188.836 185.86 186.55 187.039 184.346 188.047C182.141 186.535 180.109 178.21 179.087 175.266C178.412 173.331 178.152 171.315 178.152 169.294C178.152 166.265 179.509 163.408 181.8 161.472C182.141 161.134 182.395 160.882 182.735 160.631C185.194 158.443 187.566 156.428 190.112 156.342C190.96 156.342 191.722 156.594 192.23 157.098C192.397 157.183 192.484 157.264 192.571 157.435C191.809 158.025 191.214 158.947 191.047 159.961C190.539 162.314 192.063 164.587 194.435 165.005C196.213 165.343 197.996 164.839 199.353 163.746C200.796 162.566 201.644 160.716 201.644 158.781C201.557 155.752 200.374 152.98 198.169 150.873C195.964 148.772 192.911 147.678 189.777 147.764C184.351 148.016 180.369 151.211 176.975 154.24C171.382 159.285 164.005 162.228 156.715 162.4C149.339 162.566 141.962 159.371 135.775 153.398C131.111 148.858 128.058 142.971 124.924 136.747C123.908 134.898 122.892 132.876 121.87 130.947C121.616 130.529 121.362 130.019 121.108 129.515C119.412 126.486 117.634 123.039 114.58 120.348C113.224 119.168 111.527 118.16 109.749 117.49C107.631 116.648 105.426 116.482 103.475 116.9C100.762 117.57 98.5576 119.426 97.4552 122.117L97.4436 122.111ZM173.829 191.66C173.321 192.078 172.559 192.502 171.711 192.754C165.096 194.769 157.893 195.027 150.938 194.603C145.933 194.266 144.323 191.156 145.091 186.53C145.431 184.176 145.939 181.399 146.701 179.212C148.906 173.159 158.741 173.663 163.826 174.333C171.203 175.261 174.51 180.643 175.186 187.537C175.353 189.301 174.932 190.733 173.829 191.66V191.66Z" fill="#89E26A"/>
</svg>
