<svg width="210" height="208" viewBox="0 0 210 208" fill="none" xmlns="http://www.w3.org/2000/svg">
<rect width="210" height="208" fill="#181F1C"/>
<path d="M76.7747 110.201L73.9459 124.128H136.098L133.269 110.201H119.186V103.237H131.86L130.446 96.2736H79.6147L78.2002 103.237H90.8749V110.201H76.7858H76.7747ZM97.9416 103.237H105.019V110.201H97.9416V103.237Z" fill="#89E26A"/>
<path d="M87.7915 89.3099H94.3996V82.3462H101.477V89.3099H108.555V82.3462H115.633V89.3099H122.241L119.589 68.4135H90.4436L87.7915 89.3099Z" fill="#89E26A"/>
<path d="M80.2444 162.437C80.2444 164.361 78.6587 165.921 76.7028 165.921C74.7469 165.921 73.1611 164.361 73.1611 162.437C73.1611 160.512 74.7469 158.952 76.7028 158.952C78.6587 158.952 80.2444 160.512 80.2444 162.437Z" fill="#89E26A"/>
<path d="M65.4811 131.097L56.1713 179.849H153.856L144.546 131.097H65.4811ZM76.7027 172.885C73.8849 172.885 71.1831 171.787 69.194 169.824C67.205 167.867 66.0834 165.209 66.0834 162.437C66.0834 159.664 67.1995 157.006 69.194 155.049C71.1831 153.092 73.8849 151.988 76.7027 151.988C79.5205 151.988 82.2223 153.087 84.2114 155.049C86.2004 157.006 87.322 159.664 87.322 162.437C87.322 165.209 86.206 167.867 84.2114 169.824C82.2223 171.781 79.5205 172.885 76.7027 172.885V172.885ZM105.019 172.885C102.201 172.885 99.4995 171.787 97.5104 169.824C95.5214 167.862 94.3998 165.209 94.3998 162.437C94.3998 159.664 95.5158 157.006 97.5104 155.049C99.4995 153.092 102.201 151.988 105.019 151.988C107.837 151.988 110.539 153.087 112.528 155.049C114.517 157.011 115.638 159.664 115.638 162.437C115.638 165.209 114.522 167.867 112.528 169.824C110.533 171.781 107.837 172.885 105.019 172.885ZM133.335 172.885C130.518 172.885 127.816 171.787 125.827 169.824C123.838 167.867 122.716 165.209 122.716 162.437C122.716 159.664 123.832 157.006 125.827 155.049C127.816 153.092 130.518 151.988 133.335 151.988C136.153 151.988 138.855 153.087 140.844 155.049C142.833 157.006 143.955 159.664 143.955 162.437C143.955 165.209 142.839 167.867 140.844 169.824C138.855 171.781 136.153 172.885 133.335 172.885Z" fill="#89E26A"/>
<path d="M108.555 162.437C108.555 164.361 106.969 165.921 105.014 165.921C103.058 165.921 101.472 164.361 101.472 162.437C101.472 160.512 103.058 158.952 105.014 158.952C106.969 158.952 108.555 160.512 108.555 162.437Z" fill="#89E26A"/>
<path d="M136.872 162.437C136.872 164.361 135.286 165.921 133.33 165.921C131.374 165.921 129.789 164.361 129.789 162.437C129.789 160.512 131.374 158.952 133.33 158.952C135.286 158.952 136.872 160.512 136.872 162.437Z" fill="#89E26A"/>
<path d="M202.969 126.52C199.941 107.679 194.83 91.4463 187.786 78.2692C178.807 61.4716 160.16 39.1019 149.933 42.5919C143.551 44.7718 144.214 51.7898 144.695 56.9106C144.955 59.6885 145.253 62.8306 144.347 63.9776C143.413 65.1572 140.601 65.5595 137.877 65.9455C133.291 66.5978 127.009 67.4893 126.147 73.5941C125.119 80.8622 133.623 83.814 141.126 86.4179C145.645 87.9835 150.762 89.7611 151.38 91.8649C152.005 93.9959 150.623 95.4256 147.535 97.9697C144.778 100.242 141.352 103.069 142.756 107.429C144.507 112.865 152.154 113.664 161.828 114.669C166.354 115.137 171.475 115.675 176.658 116.724C187.432 118.92 198.377 121.454 202.969 126.515" fill="#89E26A"/>
<path d="M190.028 133.68L187.47 132.424C185.796 131.608 177.707 127.45 174.845 127.45C171.353 127.45 168.514 130.244 168.514 133.68C168.514 137.115 171.353 139.915 174.845 139.915C177.707 139.915 188.354 134.495 190.028 133.68Z" fill="#89E26A"/>
<path d="M193.725 67.5383L194.476 64.929C194.957 63.2221 197.51 54.9428 196.996 52.2791C196.372 49.0283 193.172 46.8811 189.863 47.5008C186.553 48.1205 184.376 51.268 185.001 54.5188C185.515 57.1825 192.637 66.1304 193.725 67.5438" fill="#89E26A"/>
<path d="M7.06366 126.52C11.6551 121.459 22.6004 118.921 33.3744 116.73C38.5515 115.675 43.6788 115.143 48.2039 114.675C57.884 113.669 65.5252 112.87 67.2767 107.434C68.6801 103.074 65.2545 100.248 62.4975 97.9753C59.4089 95.4312 58.0276 93.9961 58.652 91.8706C59.2708 89.7722 64.3871 87.9946 68.9066 86.4236C76.4098 83.8197 84.913 80.8679 83.8853 73.5998C83.0234 67.495 76.7413 66.598 72.1554 65.9511C69.4315 65.5652 66.6192 65.1629 65.6855 63.9833C64.7793 62.8363 65.0777 59.6887 65.3374 56.9163C65.8181 51.7955 66.4811 44.7775 60.0995 42.5976C49.8725 39.1076 31.2251 61.4772 22.2468 78.2748C15.2022 91.4411 10.0914 107.679 7.06366 126.52Z" fill="#89E26A"/>
<path d="M20.0092 133.68C21.6833 134.495 32.3303 139.915 35.1923 139.915C38.6842 139.915 41.5241 137.115 41.5241 133.68C41.5241 130.244 38.6842 127.45 35.1923 127.45C32.3303 127.45 24.247 131.614 22.5674 132.424L20.0092 133.68" fill="#89E26A"/>
<path d="M16.3072 67.5383C17.3902 66.1249 24.5176 57.1771 25.0314 54.5134C25.6558 51.2626 23.4789 48.1151 20.1693 47.4953C16.8653 46.8811 13.6662 49.0229 13.0364 52.2737C12.5225 54.9374 15.0751 63.2166 15.5558 64.9235L16.3072 67.5329" fill="#89E26A"/>
<path d="M7.34515 7.9693H29.0258L18.1855 27.5611L7.34515 7.9693Z" fill="#89E26A"/>
<path d="M29.0538 7.9693H50.7344L39.8941 27.5611L29.0538 7.9693Z" fill="#89E26A"/>
<path d="M50.762 7.9693H72.4426L61.6023 27.5611L50.762 7.9693Z" fill="#89E26A"/>
<path d="M72.4702 7.9693H94.1509L83.3106 27.5611L72.4702 7.9693Z" fill="#89E26A"/>
<path d="M94.1785 7.9693H115.859L105.019 27.5611L94.1785 7.9693Z" fill="#89E26A"/>
<path d="M115.887 7.9693H137.567L126.727 27.5611L115.887 7.9693Z" fill="#89E26A"/>
<path d="M137.595 7.9693H159.276L148.436 27.5611L137.595 7.9693Z" fill="#89E26A"/>
<path d="M159.303 7.9693H180.984L170.143 27.5611L159.303 7.9693Z" fill="#89E26A"/>
<path d="M181.012 7.9693H202.692L191.852 27.5611L181.012 7.9693Z" fill="#89E26A"/>
<path d="M105.019 53.5892V37.3243L120.208 45.4568L105.019 53.5892Z" fill="#89E26A"/>
<path d="M105.572 37.3243H104.466V76.5405H105.572V37.3243Z" fill="#89E26A"/>
<path d="M7.88721 176.505V160.24L23.0758 168.373L7.88721 176.505Z" fill="#89E26A"/>
<path d="M8.43956 160.24H7.33453V199.462H8.43956V160.24Z" fill="#89E26A"/>
<path d="M34.3527 176.505V160.24L49.5358 168.373L34.3527 176.505Z" fill="#89E26A"/>
<path d="M34.905 160.24H33.8V199.462H34.905V160.24Z" fill="#89E26A"/>
<path d="M160.497 176.505V160.24L175.686 168.373L160.497 176.505Z" fill="#89E26A"/>
<path d="M161.05 160.24H159.945V199.462H161.05V160.24Z" fill="#89E26A"/>
<path d="M186.963 176.505V160.24L202.146 168.373L186.963 176.505Z" fill="#89E26A"/>
<path d="M187.515 160.24H186.41V199.462H187.515V160.24Z" fill="#89E26A"/>
</svg>
