<?xml version="1.0" encoding="utf-8"?>
<!-- Generator: Adobe Illustrator 26.5.0, SVG Export Plug-In . SVG Version: 6.00 Build 0)  -->
<svg version="1.1" id="Layer_1" xmlns="http://www.w3.org/2000/svg" xmlns:xlink="http://www.w3.org/1999/xlink" x="0px" y="0px"
	 viewBox="0 0 210 210" style="enable-background:new 0 0 210 210;" xml:space="preserve">
<style type="text/css">
	.st0{fill:none;}
	.st1{fill:#181F1C;}
</style>
<g>
	<polygon class="st0" points="81.6,185 82.5,185.4 81.6,185 	"/>
	<polygon class="st0" points="80.6,188.3 81.6,188.5 80.6,188.3 	"/>
	<polygon class="st0" points="158.6,188.4 159.6,188.6 158.6,188.4 	"/>
	<polygon class="st0" points="76.6,185.1 76.6,185.1 75.7,185.5 76.6,185.1 	"/>
	<polygon class="st0" points="114.1,188.3 113.1,188.5 114.1,188.3 	"/>
	<polygon class="st0" points="158.6,188.4 158.6,189.4 158.6,188.4 	"/>
	<path class="st0" d="M177,188c-0.5-0.2-0.9-0.3-1.4-0.3c-0.2,0-0.5,0-0.7,0.1c-0.7,0.1-1.4,0.5-1.9,1c-0.5,0.5-0.9,1.2-1,1.9
		c-0.1,0.7-0.1,1.5,0.2,2.2c0.3,0.7,0.8,1.3,1.4,1.7c0.6,0.4,1.3,0.6,2.1,0.6l0,0.5l0-0.5c1,0,1.9-0.4,2.6-1.1s1.1-1.6,1.1-2.6
		c0-0.7-0.2-1.5-0.6-2.1C178.2,188.8,177.6,188.3,177,188z"/>
	<polygon class="st0" points="180.5,136.2 151.9,136.2 151.8,157 180.5,157 	"/>
	<path class="st0" d="M62.2,188c-0.5-0.2-0.9-0.3-1.4-0.3c-0.2,0-0.5,0-0.7,0.1c-0.7,0.1-1.4,0.5-1.9,1c-0.5,0.5-0.9,1.2-1,1.9
		c-0.1,0.7-0.1,1.5,0.2,2.2c0.3,0.7,0.8,1.3,1.4,1.7c0.6,0.4,1.3,0.6,2.1,0.6l0,0.5l0-0.5c1,0,1.9-0.4,2.6-1.1
		c0.7-0.7,1.1-1.6,1.1-2.6c0-0.7-0.2-1.5-0.6-2.1C63.5,188.8,62.9,188.3,62.2,188z"/>
	<path class="st0" d="M98.6,188c-0.5-0.2-0.9-0.3-1.4-0.3c-0.2,0-0.5,0-0.7,0.1c-0.7,0.1-1.4,0.5-1.9,1c-0.5,0.5-0.9,1.2-1,1.9
		c-0.1,0.7-0.1,1.5,0.2,2.2c0.3,0.7,0.8,1.3,1.4,1.7c0.6,0.4,1.3,0.6,2.1,0.6h0c1,0,1.9-0.4,2.6-1.1c0.7-0.7,1.1-1.6,1.1-2.6
		c0-0.7-0.2-1.5-0.6-2.1C99.9,188.8,99.3,188.3,98.6,188z"/>
	<polygon class="st0" points="45,185.1 45.1,185.1 45,185.1 45,185.1 	"/>
	<polygon class="st0" points="159.6,185.1 159.6,185.1 160.5,185.5 159.6,185.1 	"/>
	<polygon class="st0" points="44.1,188.4 45.1,188.5 44.1,188.4 	"/>
	<rect class="st0" width="210" height="0"/>
	<path class="st0" d="M209,1H1v208h208V1z M184.6,43c0.4,0.1,0.8,0.4,1,0.8l8,13.9c1,1.7,1.5,3.7,1.5,5.6c0,2-0.5,3.9-1.5,5.6
		l-8.9,15.3c-0.3,0.5-0.6,0.9-0.9,1.3c0.4-1.5,0.5-3,0.4-4.5c-0.2-1.5-0.7-2.9-1.4-4.3l-3.5-6l-5.4-9.3l-4.8-8.3
		c-0.1-0.2-0.2-0.4-0.2-0.6c0-0.2,0-0.4,0-0.7c0.1-0.2,0.2-0.4,0.3-0.6c0.1-0.2,0.3-0.3,0.5-0.4l13.6-7.8
		C183.7,42.9,184.2,42.9,184.6,43z M175,70.9l4.6,7.9c0.7,1.1,1,2.4,1,3.7c0,1.3-0.3,2.6-1,3.7l-0.9,1.5c-0.4,0.6-0.9,1.2-1.5,1.5
		c-0.6,0.4-1.3,0.6-2.1,0.6h-15.5v5.2l-3.2-5l-6.1-9.7l9.4-14.7v5.2H175z M166.4,14.6c0.7,0,1.4,0.2,2,0.5c0.6,0.4,1.1,0.9,1.5,1.5
		l1.1,2l2.2,3.8l4.4,7.6l0.2-0.1l3.3-1.9l1-0.6l-2.7,5.3l-3.4,6.5c-0.6,1.1-1.5,2-2.5,2.6c-1.1,0.6-2.3,0.9-3.5,0.9l-13.2-0.6
		l3.6-2.1l0.9-0.5l-2.9-5l-4.8-8.3l4.6-7.9l0,0c0.7-1.1,1.6-2.1,2.7-2.7c1.1-0.7,2.4-1,3.7-1H166.4z M124.5,31.2
		c0-0.2,0.1-0.4,0.2-0.6l8-13.9c1-1.7,2.4-3.1,4.1-4.1c1.7-1,3.7-1.5,5.6-1.5h17.7c0.5,0,1.1,0,1.6,0.1c-1.5,0.4-2.8,1-4,1.9
		c-1.2,0.9-2.2,2-3,3.4l-3.5,6l-5.4,9.4l-4.8,8.3c-0.2,0.4-0.6,0.7-1,0.8c-0.4,0.1-0.9,0.1-1.3-0.2l-13.6-7.8
		c-0.2-0.1-0.4-0.3-0.5-0.4c-0.1-0.2-0.2-0.4-0.3-0.6C124.5,31.6,124.5,31.4,124.5,31.2z M122.1,107v-3.4c0-0.9,0.4-1.7,1-2.4
		c0.5-0.5,1.2-0.9,1.9-1l0.5,0c0.9,0,1.7,0.4,2.4,1c0.6,0.6,1,1.5,1,2.4v3.3h6.7v56.9h-6.7V107H122.1z M126.1,89.9
		c-2,0-3.9-0.5-5.6-1.5c-1.7-1-3.1-2.4-4.1-4.1v0L108,69.6l0.7-0.7c0.6,0.4,1.2,0.7,1.9,1c1.4,0.6,2.9,0.9,4.4,0.9h27.2
		c0.4,0,0.9,0.2,1.2,0.5c0.3,0.3,0.5,0.7,0.5,1.2v15.7c0,0.2,0,0.4-0.1,0.6c-0.1,0.2-0.2,0.4-0.4,0.5c-0.2,0.2-0.3,0.3-0.5,0.4
		c-0.2,0.1-0.4,0.1-0.6,0.1c0,0,0,0,0,0H126.1z M107.6,57.6l1.1-2l6.6-11.4l-0.2-0.1l-3.3-1.9l-1-0.6l5.9-0.3l11.5-0.5l8,15.5
		l-3.6-2.1l-0.9-0.5l-2.9,5l-4.8,8.3h-9.1c-1.3,0-2.6-0.3-3.7-1c-1.1-0.7-2.1-1.6-2.7-2.7l-0.8-1.5c-0.4-0.6-0.6-1.3-0.6-2.1
		C107,59,107.2,58.3,107.6,57.6z M35,107h6.7v-3.3c0-0.4,0.1-0.9,0.2-1.3c0.2-0.4,0.4-0.8,0.7-1.1c0.3-0.3,0.7-0.6,1.1-0.7v0
		c0.3-0.1,0.5-0.2,0.8-0.2l0.5,0c0.9,0,1.7,0.3,2.4,1c0.6,0.6,1,1.5,1,2.4v3.3h6.7v-3.4c0-0.9,0.4-1.7,1-2.4
		c0.5-0.5,1.2-0.9,1.9-0.9l0.5,0c0.4,0,0.9,0.1,1.3,0.3c0.4,0.2,0.8,0.4,1.1,0.7c0.3,0.3,0.6,0.7,0.7,1.1c0.2,0.4,0.3,0.8,0.3,1.3
		v3.3h6.7v-3.4c0-0.9,0.4-1.7,1-2.4c0.5-0.5,1.2-0.9,1.9-1l0.5,0c0.9,0,1.7,0.4,2.4,1c0.6,0.6,1,1.5,1,2.4v3.3h6.7v-3.4
		c0-0.9,0.4-1.7,1-2.4c0.5-0.5,1.2-0.9,1.9-1l0.5,0c0.9,0,1.7,0.4,2.4,1c0.6,0.6,1,1.5,1,2.4v3.3h6.7v-3.4c0-0.9,0.4-1.7,1-2.4
		c0.5-0.5,1.2-0.9,1.9-0.9l0.5,0c0.9,0,1.7,0.3,2.4,1c0.6,0.6,1,1.5,1,2.4v3.3h6.7v-3.4c0-0.4,0.1-0.9,0.3-1.3
		c0.2-0.4,0.4-0.8,0.7-1.1c0.3-0.3,0.7-0.6,1.1-0.7c0.3-0.1,0.5-0.2,0.8-0.2l0.5,0c0.4,0,0.9,0.1,1.3,0.3c0.4,0.2,0.8,0.4,1.1,0.7
		c0.3,0.3,0.6,0.7,0.7,1.1c0.2,0.4,0.3,0.8,0.3,1.3v3.3h6.7v56.9h-6.7V107h-6.7v56.9H102V107h-6.7v56.9h-6.7V107h-6.7v56.9h-6.7V107
		h-6.7v56.9h-6.7V107h-6.7v56.9h-6.7V107h-6.7v56.9H35V107z M30.8,188.4H9v-41.8l21.8-29.9V188.4z M73.8,194.1
		c-0.5,2.6-1.8,4.9-3.6,6.8c-1.9,1.9-4.2,3.1-6.8,3.6c-0.9,0.2-1.7,0.3-2.6,0.3c-1.7,0-3.4-0.3-5.1-1c-2.4-1-4.5-2.7-6-4.9
		c-1.5-2.2-2.2-4.7-2.2-7.4v0c0-1.7,0.3-3.4,0.9-5c1-2.5,2.7-4.6,4.9-6c2.2-1.5,4.8-2.3,7.4-2.3c2.7,0,5.2,0.8,7.4,2.2
		c2.2,1.5,3.9,3.5,4.9,6S74.4,191.5,73.8,194.1z M110.2,194.1c-0.5,2.6-1.8,4.9-3.6,6.8c-1.9,1.9-4.2,3.1-6.8,3.6
		c-0.9,0.2-1.7,0.3-2.6,0.3c-1.7,0-3.4-0.3-5.1-1c-2.4-1-4.5-2.7-6-4.9c-1.5-2.2-2.2-4.7-2.2-7.4c0-1.7,0.3-3.4,1-5
		c1-2.5,2.7-4.6,4.9-6s4.8-2.3,7.4-2.3c2.6,0,5.2,0.8,7.4,2.2c2.2,1.5,3.9,3.5,4.9,6C110.5,188.8,110.7,191.5,110.2,194.1z
		 M188.6,194.1c-0.5,2.6-1.8,4.9-3.6,6.8c-1.9,1.9-4.2,3.1-6.8,3.6c-0.9,0.2-1.7,0.3-2.6,0.3c-1.7,0-3.4-0.3-5.1-1
		c-2.4-1-4.5-2.7-6-4.9c-1.5-2.2-2.2-4.7-2.2-7.4c0-1.7,0.3-3.4,1-5c1-2.5,2.7-4.6,4.9-6c2.1-1.4,4.5-2.2,6.9-2.3v0h0.5c0,0,0,0,0,0
		l0.5,0c2.5,0.1,4.8,0.9,6.9,2.2c2.2,1.5,3.9,3.5,4.9,6C188.8,188.8,189.1,191.5,188.6,194.1z M202.8,188.4h-9.9l-1.8,0.2
		c-0.6-3.4-2.3-6.5-4.9-8.9c-2.5-2.3-5.8-3.8-9.2-4.2c-3.4-0.4-6.9,0.4-9.9,2.2c-3,1.8-5.3,4.5-6.6,7.7l0,0c-0.4,1-0.7,2-0.9,3.1
		l-0.1,0.8l-0.8,0l-44.5-0.1l-0.8,0l-0.2-0.8c-0.6-3.4-2.3-6.5-4.9-8.9c-2.5-2.4-5.8-3.8-9.2-4.2c-3.4-0.4-6.9,0.4-9.9,2.2
		c-3,1.8-5.3,4.5-6.6,7.7l0,0c-0.4,1-0.7,2-0.9,3.1l-0.1,0.8h-0.8h-3.1h-0.8l-0.1-0.8c-0.2-1-0.5-2.1-0.9-3l0,0
		c-1.2-3-3.2-5.5-5.9-7.3c-2.6-1.8-5.8-2.7-9-2.7c-3.2,0-6.3,1-9,2.7c-2.6,1.8-4.7,4.3-5.9,7.3c-0.4,1-0.7,2-0.9,3.1l-0.2,0.8h-0.8
		H35h-1v-1V168h1h1h28.2v-1h27.2v1h21v-1h27.8v-41.3v-1h1h50.7h1v1v18.7h9.7V188.4z"/>
	<polygon class="st0" points="192,188.4 191.1,188.6 192,188.4 	"/>
	<g>
		<path class="st1" d="M41.7,107h6.7v56.9h6.7V107h6.7v-3.3c0-0.4-0.1-0.9-0.3-1.3c-0.2-0.4-0.4-0.8-0.7-1.1
			c-0.3-0.3-0.7-0.6-1.1-0.7c-0.4-0.2-0.8-0.3-1.3-0.3l-0.5,0c-0.7,0.1-1.4,0.4-1.9,0.9c-0.6,0.6-1,1.5-1,2.4v3.4h-6.7v-3.3
			c0-0.9-0.4-1.7-1-2.4c-0.6-0.6-1.5-1-2.4-1l-0.5,0c-0.3,0-0.6,0.1-0.8,0.2v0c-0.4,0.2-0.8,0.4-1.1,0.7c-0.3,0.3-0.6,0.7-0.7,1.1
			c-0.2,0.4-0.3,0.8-0.2,1.3V107l-6.7,0v56.9h6.7V107z"/>
		<rect x="75.2" y="107" class="st1" width="6.7" height="56.9"/>
		<rect x="88.6" y="107" class="st1" width="6.7" height="56.9"/>
		<rect x="115.4" y="107" class="st1" width="6.7" height="56.9"/>
		<rect x="102" y="107" class="st1" width="6.7" height="56.9"/>
		<rect x="128.8" y="107" class="st1" width="6.7" height="56.9"/>
		<path class="st1" d="M127.8,101.3c-0.6-0.6-1.5-1-2.4-1l-0.5,0c-0.7,0.1-1.4,0.4-1.9,1c-0.6,0.6-1,1.5-1,2.4v3.4h6.7v-3.3
			C128.8,102.7,128.4,101.9,127.8,101.3z"/>
		<path class="st1" d="M102,103.6c0-0.9-0.4-1.7-1-2.4c-0.6-0.6-1.5-1-2.4-1l-0.5,0c-0.7,0.1-1.4,0.4-1.9,0.9c-0.6,0.6-1,1.5-1,2.4
			v3.4h6.7V103.6z"/>
		<path class="st1" d="M88.6,103.6c0-0.9-0.4-1.7-1-2.4c-0.6-0.6-1.5-1-2.4-1l-0.5,0c-0.7,0.1-1.4,0.4-1.9,1c-0.6,0.6-1,1.5-1,2.4
			v3.4h6.7V103.6z"/>
		<path class="st1" d="M115.4,103.6c0-0.4-0.1-0.9-0.3-1.3c-0.2-0.4-0.4-0.8-0.7-1.1c-0.3-0.3-0.7-0.6-1.1-0.7
			c-0.4-0.2-0.8-0.3-1.3-0.3l-0.5,0c-0.3,0-0.6,0.1-0.8,0.2c-0.4,0.2-0.8,0.4-1.1,0.7c-0.3,0.3-0.6,0.7-0.7,1.1
			c-0.2,0.4-0.3,0.8-0.3,1.3v3.4h6.7V103.6z"/>
		<path class="st1" d="M75.2,103.6c0-0.9-0.4-1.7-1-2.4c-0.6-0.6-1.5-1-2.4-1l-0.5,0c-0.7,0.1-1.4,0.4-1.9,1c-0.6,0.6-1,1.5-1,2.4
			v3.4h6.7V103.6z"/>
		<rect x="61.8" y="107" class="st1" width="6.7" height="56.9"/>
		<path class="st1" d="M68.2,180.5c-2.2-1.5-4.7-2.2-7.4-2.2c-2.7,0-5.2,0.8-7.4,2.3c-2.2,1.5-3.9,3.6-4.9,6c-0.6,1.6-0.9,3.3-0.9,5
			v0c0,2.6,0.8,5.2,2.2,7.4c1.5,2.2,3.5,3.9,6,4.9c1.6,0.7,3.3,1,5.1,1c0.9,0,1.7-0.1,2.6-0.3c2.6-0.5,4.9-1.8,6.8-3.6
			c1.9-1.9,3.1-4.2,3.6-6.8c0.5-2.6,0.2-5.2-0.8-7.7S70.4,181.9,68.2,180.5z M60.8,195.7l0-0.5c-0.7,0-1.5-0.2-2.1-0.6
			c-0.6-0.4-1.1-1-1.4-1.7c-0.3-0.7-0.4-1.4-0.2-2.2c0.1-0.7,0.5-1.4,1-1.9c0.5-0.5,1.2-0.9,1.9-1c0.2,0,0.5-0.1,0.7-0.1
			c0.5,0,1,0.1,1.4,0.3c0.7,0.3,1.3,0.8,1.7,1.4c0.4,0.6,0.6,1.3,0.6,2.1c0,1-0.4,1.9-1.1,2.6c-0.7,0.7-1.6,1.1-2.6,1.1L60.8,195.7z
			"/>
		<path class="st1" d="M104.6,180.5c-2.2-1.5-4.8-2.2-7.4-2.2c-2.7,0-5.2,0.8-7.4,2.3s-3.9,3.6-4.9,6c-0.6,1.6-1,3.3-1,5
			c0,2.6,0.8,5.2,2.2,7.4c1.5,2.2,3.5,3.9,6,4.9c1.6,0.7,3.3,1,5.1,1c0.9,0,1.7-0.1,2.6-0.3c2.6-0.5,4.9-1.8,6.8-3.6
			c1.9-1.9,3.1-4.2,3.6-6.8c0.5-2.6,0.2-5.2-0.8-7.7C108.5,184,106.8,181.9,104.6,180.5z M97.2,195.2c-0.7,0-1.5-0.2-2.1-0.6
			c-0.6-0.4-1.1-1-1.4-1.7c-0.3-0.7-0.4-1.4-0.2-2.2c0.1-0.7,0.5-1.4,1-1.9c0.5-0.5,1.2-0.9,1.9-1c0.2,0,0.5-0.1,0.7-0.1
			c0.5,0,1,0.1,1.4,0.3c0.7,0.3,1.3,0.8,1.7,1.4c0.4,0.6,0.6,1.3,0.6,2.1c0,1-0.4,1.9-1.1,2.6C99.1,194.8,98.2,195.2,97.2,195.2
			L97.2,195.2z"/>
		<path class="st1" d="M182.9,180.5c-2.1-1.4-4.4-2.1-6.9-2.2l-0.5,0c0,0,0,0,0,0H175v0c-2.5,0.1-4.9,0.9-6.9,2.3
			c-2.2,1.5-3.9,3.6-4.9,6c-0.6,1.6-1,3.2-1,5c0,2.6,0.8,5.2,2.2,7.4c1.5,2.2,3.5,3.9,6,4.9c1.6,0.7,3.3,1,5.1,1
			c0.9,0,1.7-0.1,2.6-0.3c2.6-0.5,4.9-1.8,6.8-3.6c1.9-1.9,3.1-4.2,3.6-6.8c0.5-2.6,0.2-5.2-0.8-7.7
			C186.8,184,185.1,181.9,182.9,180.5z M175.5,195.7l0-0.5c-0.7,0-1.5-0.2-2.1-0.6c-0.6-0.4-1.1-1-1.4-1.7c-0.3-0.7-0.4-1.4-0.2-2.2
			c0.1-0.7,0.5-1.4,1-1.9c0.5-0.5,1.2-0.9,1.9-1c0.2,0,0.5-0.1,0.7-0.1c0.5,0,1,0.1,1.4,0.3c0.7,0.3,1.3,0.8,1.7,1.4
			c0.4,0.6,0.6,1.3,0.6,2.1c0,1-0.4,1.9-1.1,2.6s-1.6,1.1-2.6,1.1L175.5,195.7z"/>
		<path class="st1" d="M193.1,125.7v-1h-1h-50.7h-1v1V167h-27.8v1h-21v-1H64.2v1H36h-1h-1v20.4v1h1h9.1h0.8l0.2-0.8l-1-0.2
			c0,0,0,0,0,0l1,0.2c0.2-1.1,0.5-2.1,0.9-3.1c1.2-3,3.2-5.5,5.9-7.3c2.6-1.8,5.8-2.7,9-2.7c3.2,0,6.3,1,9,2.7
			c2.6,1.8,4.7,4.3,5.9,7.3l0,0c0.4,1,0.7,2,0.9,3l0.1,0.8h0.8h3.1h0.8l0.1-0.8l-1-0.2v0l1,0.2c0.2-1.1,0.5-2.1,0.9-3.1l0,0
			l-0.9-0.4l-0.1,0l0.9,0.4c1.3-3.2,3.6-5.9,6.6-7.7c3-1.8,6.4-2.6,9.9-2.2c3.4,0.4,6.7,1.8,9.2,4.2c2.5,2.3,4.3,5.5,4.9,8.9l1-0.2
			l0,0l-1,0.2l0.2,0.8l0.8,0l44.5,0.1l0.8,0l0.1-0.8c0.2-1.1,0.5-2.1,0.9-3.1l-0.9-0.4h0l0.1,0l0.9,0.4l0,0c1.3-3.2,3.6-5.9,6.6-7.7
			c3-1.8,6.4-2.6,9.9-2.2c3.4,0.4,6.7,1.8,9.2,4.2c2.5,2.3,4.3,5.5,4.9,8.9l1-0.2v0l-1,0.2l1.8-0.2h9.9v-44.1h-9.7V125.7z
			 M151.9,136.2h28.6V157h-28.6L151.9,136.2z M45,185.1C45,185.1,45,185.1,45,185.1L45,185.1L45,185.1z"/>
		<polygon class="st1" points="9,188.4 30.8,188.4 30.8,116.8 9,146.6 		"/>
		<path class="st1" d="M142.2,89.9c0.2,0,0.4,0,0.6-0.1c0.2-0.1,0.4-0.2,0.5-0.4c0.2-0.2,0.3-0.3,0.4-0.5c0.1-0.2,0.1-0.4,0.1-0.6
			V72.5c0-0.4-0.2-0.9-0.5-1.2c-0.3-0.3-0.7-0.5-1.2-0.5h-27.2c-1.5,0-3-0.3-4.4-0.9c-0.7-0.3-1.3-0.6-1.9-1l-0.7,0.7l8.4,14.6v0
			c1,1.7,2.4,3.1,4.1,4.1c1.7,1,3.7,1.5,5.6,1.5H142.2C142.2,89.9,142.2,89.9,142.2,89.9z"/>
		<path class="st1" d="M124.9,32.4c0.1,0.2,0.3,0.3,0.5,0.4l13.6,7.8c0.4,0.2,0.8,0.3,1.3,0.2c0.4-0.1,0.8-0.4,1-0.8l4.8-8.3
			l5.4-9.4l3.5-6c0.8-1.3,1.8-2.4,3-3.4c1.2-0.9,2.6-1.6,4-1.9c-0.5-0.1-1.1-0.1-1.6-0.1h-17.7c-2,0-3.9,0.5-5.6,1.5
			c-1.7,1-3.1,2.4-4.1,4.1l-8,13.9c-0.1,0.2-0.2,0.4-0.2,0.6c0,0.2,0,0.4,0,0.7C124.6,32,124.7,32.2,124.9,32.4z"/>
		<path class="st1" d="M108.5,63.3c0.7,1.1,1.6,2.1,2.7,2.7c1.1,0.7,2.4,1,3.7,1h9.1l4.8-8.3l2.9-5l0.9,0.5l3.6,2.1l-8-15.5
			l-11.5,0.5l-5.9,0.3l1,0.6l3.3,1.9l0.2,0.1l-6.6,11.4l-1.1,2c-0.4,0.6-0.5,1.4-0.5,2.1c0,0.7,0.2,1.4,0.6,2.1L108.5,63.3z"/>
		<path class="st1" d="M150.2,80.4l6.1,9.7l3.2,5v-5.2h15.5c0.7,0,1.4-0.2,2.1-0.6c0.6-0.4,1.1-0.9,1.5-1.5l0.9-1.5
			c0.7-1.1,1-2.4,1-3.7c0-1.3-0.3-2.6-1-3.7l-4.6-7.9h-15.4v-5.2L150.2,80.4z"/>
		<path class="st1" d="M169.3,51.4c-0.1,0.2-0.2,0.4-0.3,0.6c-0.1,0.2-0.1,0.4,0,0.7c0,0.2,0.1,0.4,0.2,0.6l4.8,8.3l5.4,9.3l3.5,6
			c0.8,1.3,1.2,2.8,1.4,4.3c0.2,1.5,0.1,3-0.4,4.5c0.3-0.4,0.6-0.9,0.9-1.3l8.9-15.3c1-1.7,1.5-3.7,1.5-5.6c0-2-0.5-3.9-1.5-5.6
			l-8-13.9c-0.2-0.4-0.6-0.7-1-0.8c-0.4-0.1-0.9-0.1-1.3,0.2L169.8,51C169.6,51.1,169.4,51.2,169.3,51.4z"/>
		<path class="st1" d="M158.1,18.4L158.1,18.4l-4.6,7.9l4.8,8.3l2.9,5l-0.9,0.5l-3.6,2.1l13.2,0.6c1.2,0.1,2.5-0.2,3.5-0.9
			c1.1-0.6,2-1.5,2.5-2.6l3.4-6.5l2.7-5.3l-1,0.6l-3.3,1.9l-0.2,0.1l-4.4-7.6l-2.2-3.8l-1.1-2c-0.4-0.6-0.9-1.1-1.5-1.5
			c-0.6-0.4-1.3-0.5-2-0.5h-1.8c-1.3,0-2.6,0.3-3.7,1C159.7,16.3,158.8,17.2,158.1,18.4z"/>
		<path class="st1" d="M0,0v210v0h210v0V0H0z M1,1h208v208H1V1z"/>
	</g>
</g>
</svg>
