<?xml version="1.0" encoding="utf-8"?>
<!-- Generator: Adobe Illustrator 26.5.0, SVG Export Plug-In . SVG Version: 6.00 Build 0)  -->
<svg version="1.1" id="Layer_1" xmlns="http://www.w3.org/2000/svg" xmlns:xlink="http://www.w3.org/1999/xlink" x="0px" y="0px"
	 viewBox="0 0 210 210" style="enable-background:new 0 0 210 210;" xml:space="preserve">
<style type="text/css">
	.st0{fill:none;}
	.st1{fill:#181F1C;}
</style>
<g>
	<path class="st0" d="M73.4,43.1l-0.1,12.1L70,67.8h17.6l-3.4-13.6V43.1c0-3-2.4-5.4-5.4-5.4C75.8,37.7,73.4,40.1,73.4,43.1z"/>
	<path class="st0" d="M78.8,25c3.2,0,5.7-2.6,5.7-5.7c0-0.2,0-0.3-0.1-0.5c-2.3-0.3-4.4-1.4-5.9-2.7c-1.8,1.7-3.9,2.8-5.5,3.5
		C73.3,22.6,75.6,25,78.8,25z"/>
	<path class="st0" d="M179.8,43.1l-0.1,12.1l-3.2,12.5H194l-3.4-13.6V43.1c0-3-2.4-5.4-5.4-5.4S179.8,40.1,179.8,43.1z"/>
	<path class="st0" d="M31,19c0-3.2-2.6-5.8-5.8-5.8s-5.8,2.6-5.8,5.8s2.6,5.8,5.8,5.8C28.4,24.8,31,22.2,31,19z"/>
	<path class="st0" d="M185.3,25c3.2,0,5.7-2.6,5.7-5.7c0-0.2,0-0.3-0.1-0.5c-2.3-0.3-4.4-1.4-5.9-2.7c-1.8,1.7-3.9,2.8-5.5,3.5
		C179.7,22.6,182.1,25,185.3,25z"/>
	<path class="st0" d="M137.5,19c0-3.2-2.6-5.8-5.8-5.8s-5.8,2.6-5.8,5.8s2.6,5.8,5.8,5.8C134.9,24.8,137.5,22.2,137.5,19z"/>
	<path class="st0" d="M150.9,196.5c7,0.4,14.2,0.2,20.8-1.9c0.8-0.3,1.6-0.7,2.1-1.1c1.1-0.9,1.5-2.4,1.4-4.2
		c-0.7-7-4-12.4-11.4-13.3c-5.1-0.7-14.9-1.2-17.1,4.9c-0.8,2.2-1.3,5-1.6,7.4C144.3,193,145.9,196.1,150.9,196.5z"/>
	<path class="st0" d="M60.5,172.7c0.5,1.9,1.2,5.5,0.7,8.3v0h0l13.5-0.5l-0.3-10.2l-14.2,1.1C60.2,171.5,60.3,171.9,60.5,172.7
		L60.5,172.7z"/>
	<path class="st0" d="M1,209h208V1H1V209z M172.5,24.4c0.6,0,1.1,0.2,1.5,0.4c-0.8-1.7-1.3-3.5-1.3-5.5c0-6.9,5.6-12.6,12.5-12.6
		c6.9,0,12.5,5.6,12.5,12.6c0,5.8-3.9,10.7-9.3,12.1c5.1,1.4,8.9,6.1,8.9,11.7v10.7l5.4,20.7h-8.5v17.6h-6.8V74.6h-4.6v17.6h-6.8
		V74.6h-8.5l5.4-20.8V43.1c0-5.6,3.8-10.3,8.9-11.7c-2.6-0.7-4.9-2.2-6.5-4.3c0,0.1,0,0.2,0,0.3c0,4.4-6.2,4.2-8.4,2.9
		C167.8,29,169.4,24.3,172.5,24.4z M117.3,45.1c0-6.8,4.7-12.5,11-14c-5.2-1.5-9.1-6.4-9.1-12.1c0-6.9,5.6-12.6,12.6-12.6
		s12.6,5.6,12.6,12.6c0,5.7-3.9,10.6-9.1,12.1h0c6.3,1.6,11,7.2,11,14v19.5h-5.3v27.6H134V64.6h-4.7v27.6h-6.8V64.6h-5.3V45.1z
		 M97.4,123.3L97.4,123.3c1.1-2.7,3.3-4.6,6-5.3c2-0.4,4.2-0.3,6.3,0.6c1.8,0.7,3.5,1.7,4.8,2.9c3.1,2.7,4.8,6.2,6.5,9.3
		c0.3,0.5,0.5,1,0.8,1.4c1,1.9,2,4,3.1,5.9c3.1,6.3,6.2,12.2,10.9,16.8c6.2,6,13.6,9.3,20.9,9.1c7.3-0.2,14.7-3.1,20.3-8.2
		c3.4-3.1,7.4-6.3,12.8-6.5c3.1-0.1,6.2,1,8.4,3.1c2.2,2.1,3.4,4.9,3.5,8c0,2-0.8,3.8-2.3,5c-1.4,1.1-3.1,1.6-4.9,1.3
		c-2.4-0.4-3.9-2.7-3.4-5.1c0.2-1,0.8-2,1.5-2.5c-0.1-0.2-0.2-0.3-0.3-0.3c-0.5-0.5-1.3-0.8-2.1-0.8c-2.5,0.1-4.9,2.1-7.4,4.3
		c-0.3,0.3-0.6,0.5-0.9,0.9c-2.3,2-3.6,4.8-3.6,7.9c0,2,0.3,4.1,0.9,6c1,3,3.1,11.4,5.3,12.9c2.2-1,4.5-2.2,6.7-3.5
		c1.7-0.9,3.8-0.4,4.7,1.3c0.9,1.7,0.4,3.8-1.3,4.8c-3,1.7-5.9,3.2-8.9,4.6c-0.1,0-0.1,0.1-0.2,0.1c-2.5,1.1-4.8,2-7.3,2.8
		c-5.6,1.9-11.3,3-16.9,3.5c-1.9,0.2-3.7,0.3-5.7,0.3c-3.9,0-7.8-0.3-11.7-0.9c-5.9-0.9-11.8-2.6-17.7-5c-1.8-0.7-2.6-2.7-2-4.5
		c0.7-1.8,2.7-2.6,4.5-2c2.6,1.1,5.3,2,7.9,2.7c1.9-1.9,2.8-10.5,3.2-13.8c0.5-3.6,0-7.5-1.6-10.8c-1.8-3.6-5.6-5.4-8.4-8.2
		c-5.8-5.7-9.2-12.6-12.6-19.2c-0.9-1.9-1.9-3.8-2.9-5.7c-0.3-0.5-0.6-1-0.8-1.5c-1.4-2.7-2.8-5.2-4.7-6.9c-1.1-1-2.7-1.5-3.3-1.4
		c0,0,0,0.1-0.1,0.1c-0.9,2.2-3.4,3.3-5.7,2.4C97.6,128,96.5,125.5,97.4,123.3z M66,24.4c0.6,0,1.1,0.2,1.5,0.4
		c-0.8-1.7-1.3-3.5-1.3-5.5c0-6.9,5.6-12.6,12.5-12.6c6.9,0,12.5,5.6,12.5,12.6c0,5.8-3.9,10.7-9.3,12.1c5.1,1.4,8.9,6.1,8.9,11.7
		v10.7l5.4,20.7h-8.5v17.6h-6.8V74.6h-4.6v17.6h-6.8V74.6h-8.5l5.4-20.8V43.1c0-5.6,3.8-10.3,8.9-11.7c-2.6-0.7-4.9-2.2-6.5-4.3
		c0,0.1,0,0.2,0,0.3c0,4.4-6.2,4.2-8.4,2.9C61.3,29,63,24.3,66,24.4z M10.8,45.1c0-6.8,4.7-12.5,11-14c-5.2-1.5-9.1-6.4-9.1-12.1
		c0-6.9,5.6-12.6,12.6-12.6c6.9,0,12.6,5.6,12.6,12.6c0,5.7-3.9,10.6-9.1,12.1h0c6.3,1.6,11,7.2,11,14v19.5h-5.3v27.6h-6.8V64.6
		h-4.7v27.6h-6.8V64.6h-5.3V45.1z M6.9,120.9l10.3-3.6l0.2,0.9c0,0,5-2.1,8,1.5l6.6-2.6l6.8,23l26.7,0.3l-0.4,2.4l5.4-0.2
		c0,0,2.9-0.4,3.5,4.8l1,12.3l5.1,0.2l12.4,35.1l10.3-2.8l0,0h0l0,0l1.3,2.8l-10.3,3l-0.8-0.8c0,0-2.3,1.3-3.7-2.4l-4.1-12.2
		l-7.6,0.3l0.1,10.4l-1.4,0.8l-0.3-0.2c0.8,1.1,1.3,2.5,1.3,4c0,3.6-2.9,6.6-6.6,6.6c-3.6,0-6.6-2.9-6.6-6.6s2.9-6.6,6.6-6.6
		c0.6,0,1.2,0.1,1.8,0.3l-0.1-0.1l2.1-3.2l0.2-5.3l-13.7,0.5c-2,11.9-12.4,21-24.9,21c-14,0-25.3-11.3-25.3-25.3
		c0-13,9.8-23.7,22.5-25.1l-8-31.1c0,0-1.3-5.2-7.5-3.4l0.2,0.9l-10.7,3.2C7.2,123.5,5.9,122.2,6.9,120.9z"/>
	<polygon class="st0" points="77.4,179 77.4,180.2 77.4,180.2 84.4,180 81.4,170.4 76.3,170.6 76.5,179 	"/>
	<g>
		<path class="st1" d="M17.9,120.3l-0.2-0.9c6.2-1.8,7.5,3.4,7.5,3.4l8,31.1C20.6,155.2,10.8,166,10.8,179c0,14,11.3,25.3,25.3,25.3
			c12.5,0,22.9-9.1,24.9-21l13.7-0.5l-0.2,5.3l-2.1,3.2l0.1,0.1c-0.6-0.2-1.2-0.3-1.8-0.3c-3.6,0-6.6,2.9-6.6,6.6s2.9,6.6,6.6,6.6
			c3.6,0,6.6-2.9,6.6-6.6c0-1.5-0.5-2.9-1.3-4l0.3,0.2l1.4-0.8l-0.1-10.4l7.6-0.3l4.1,12.2c1.4,3.7,3.7,2.4,3.7,2.4l0.8,0.8l10.3-3
			l-1.3-2.8l-10.3,2.8L80,159.9l-5.1-0.2l-1-12.3c-0.6-5.2-3.5-4.8-3.5-4.8l-5.4,0.2l0.4-2.4l-26.7-0.3l-6.8-23l-6.6,2.6
			c-3.1-3.7-8-1.5-8-1.5l-0.2-0.9l-10.3,3.6c-0.9,1.3,0.4,2.6,0.4,2.6L17.9,120.3z M81.4,170.4l3.1,9.7l-7,0.2l0,0V179h-0.9
			l-0.2-8.4L81.4,170.4z M74.4,170.4l0.3,10.2l-13.5,0.5h0v0c0.5-2.8-0.2-6.4-0.7-8.3l0-0.1c-0.2-0.7-0.3-1.1-0.3-1.1L74.4,170.4z"
			/>
		<polygon class="st1" points="102.7,192.1 102.7,192.1 102.7,192.1 		"/>
		<path class="st1" d="M16.1,92.2h6.8V64.6h4.7v27.6h6.8V64.6h5.3V45.1c0-6.8-4.7-12.5-11-14h0c5.2-1.5,9.1-6.4,9.1-12.1
			c0-6.9-5.6-12.6-12.6-12.6c-6.9,0-12.6,5.6-12.6,12.6c0,5.7,3.9,10.6,9.1,12.1c-6.3,1.6-11,7.2-11,14v19.5h5.3V92.2z M19.5,19
			c0-3.2,2.6-5.8,5.8-5.8S31,15.8,31,19c0,3.2-2.6,5.8-5.8,5.8C22.1,24.8,19.5,22.2,19.5,19z"/>
		<path class="st1" d="M69,27.3c0-0.1,0-0.2,0-0.3c1.6,2.1,3.9,3.6,6.5,4.3c-5.1,1.5-8.9,6.1-8.9,11.7v10.7l-5.4,20.8h8.5v17.6h6.8
			V74.6h4.6v17.6h6.8V74.6h8.5L91,53.9V43.1c0-5.6-3.8-10.3-8.9-11.7c5.3-1.5,9.3-6.3,9.3-12.1c0-6.9-5.6-12.6-12.5-12.6
			c-6.9,0-12.5,5.6-12.5,12.6c0,2,0.5,3.8,1.3,5.5c-0.4-0.2-0.9-0.4-1.5-0.4c-3-0.1-4.7,4.7-5.5,5.9C62.7,31.6,69,31.7,69,27.3z
			 M84.2,43.1v11.1l3.4,13.6H70l3.2-12.5l0.1-12.1c0-3,2.4-5.4,5.4-5.4C81.8,37.7,84.2,40.1,84.2,43.1z M78.5,16.1
			c1.6,1.3,3.6,2.4,5.9,2.7c0,0.2,0.1,0.3,0.1,0.5c0,3.2-2.6,5.7-5.7,5.7c-3.2,0-5.5-2.4-5.7-5.4C74.7,18.9,76.8,17.8,78.5,16.1z"/>
		<path class="st1" d="M122.6,92.2h6.8V64.6h4.7v27.6h6.8V64.6h5.3V45.1c0-6.8-4.7-12.5-11-14h0c5.2-1.5,9.1-6.4,9.1-12.1
			c0-6.9-5.6-12.6-12.6-12.6s-12.6,5.6-12.6,12.6c0,5.7,3.9,10.6,9.1,12.1c-6.3,1.6-11,7.2-11,14v19.5h5.3V92.2z M125.9,19
			c0-3.2,2.6-5.8,5.8-5.8s5.8,2.6,5.8,5.8c0,3.2-2.6,5.8-5.8,5.8C128.5,24.8,125.9,22.2,125.9,19z"/>
		<path class="st1" d="M175.5,27.3c0-0.1,0-0.2,0-0.3c1.6,2.1,3.9,3.6,6.5,4.3c-5.1,1.5-8.9,6.1-8.9,11.7v10.7l-5.4,20.8h8.5v17.6
			h6.8V74.6h4.6v17.6h6.8V74.6h8.5l-5.4-20.7V43.1c0-5.6-3.8-10.3-8.9-11.7c5.3-1.5,9.3-6.3,9.3-12.1c0-6.9-5.6-12.6-12.5-12.6
			c-6.9,0-12.5,5.6-12.5,12.6c0,2,0.5,3.8,1.3,5.5c-0.4-0.2-0.9-0.4-1.5-0.4c-3-0.1-4.7,4.7-5.5,5.9
			C169.2,31.6,175.5,31.7,175.5,27.3z M190.7,43.1v11.1l3.4,13.6h-17.6l3.2-12.5l0.1-12.1c0-3,2.4-5.4,5.4-5.4
			S190.7,40.1,190.7,43.1z M185,16.1c1.6,1.3,3.6,2.4,5.9,2.7c0,0.2,0.1,0.3,0.1,0.5c0,3.2-2.6,5.7-5.7,5.7c-3.2,0-5.5-2.4-5.7-5.4
			C181.1,18.9,183.2,17.8,185,16.1z"/>
		<path class="st1" d="M99.7,129c2.3,0.9,4.7-0.2,5.7-2.4c0.1,0,0.1-0.1,0.1-0.1c0.6-0.1,2.2,0.4,3.3,1.4c1.9,1.7,3.2,4.2,4.7,6.9
			c0.3,0.5,0.6,1,0.8,1.5c0.9,1.9,2,3.8,2.9,5.7c3.4,6.6,6.9,13.5,12.6,19.2c2.8,2.7,6.6,4.6,8.4,8.2c1.6,3.3,2.1,7.2,1.6,10.8
			c-0.4,3.2-1.4,11.9-3.2,13.8c-2.6-0.8-5.3-1.6-7.9-2.7c-1.8-0.7-3.8,0.2-4.5,2c-0.7,1.8,0.2,3.8,2,4.5c5.9,2.4,11.9,4.1,17.7,5
			c3.9,0.6,7.8,0.9,11.7,0.9c2,0,3.8-0.1,5.7-0.3c5.6-0.5,11.3-1.6,16.9-3.5c2.5-0.8,4.8-1.7,7.3-2.8c0.1,0,0.1-0.1,0.2-0.1
			c3-1.4,5.9-2.9,8.9-4.6c1.7-0.9,2.2-3.1,1.3-4.8c-0.9-1.7-3.1-2.2-4.7-1.3c-2.2,1.3-4.5,2.5-6.7,3.5c-2.2-1.5-4.2-9.9-5.3-12.9
			c-0.7-2-0.9-4-0.9-6c0-3.1,1.4-5.9,3.6-7.9c0.3-0.3,0.6-0.6,0.9-0.9c2.5-2.2,4.8-4.2,7.4-4.3c0.8,0,1.6,0.3,2.1,0.8
			c0.2,0.1,0.3,0.2,0.3,0.3c-0.8,0.6-1.4,1.5-1.5,2.5c-0.5,2.4,1,4.7,3.4,5.1c1.8,0.3,3.6-0.2,4.9-1.3c1.4-1.2,2.3-3.1,2.3-5
			c-0.1-3.1-1.3-5.9-3.5-8c-2.2-2.1-5.3-3.2-8.4-3.1c-5.4,0.3-9.4,3.5-12.8,6.5c-5.6,5.1-13,8.1-20.3,8.2
			c-7.4,0.2-14.8-3.1-20.9-9.1c-4.7-4.6-7.7-10.5-10.9-16.8c-1-1.9-2-3.9-3.1-5.9c-0.3-0.4-0.5-0.9-0.8-1.4
			c-1.7-3.1-3.5-6.5-6.5-9.3c-1.4-1.2-3.1-2.2-4.8-2.9c-2.1-0.8-4.3-1-6.3-0.6c-2.7,0.7-4.9,2.5-6,5.3l0,0
			C96.5,125.5,97.6,128,99.7,129z M145.1,188.3c0.3-2.4,0.8-5.2,1.6-7.4c2.2-6.1,12-5.6,17.1-4.9c7.4,0.9,10.7,6.4,11.4,13.3
			c0.2,1.8-0.3,3.2-1.4,4.2c-0.5,0.4-1.3,0.9-2.1,1.1c-6.6,2-13.8,2.3-20.8,1.9C145.9,196.1,144.3,193,145.1,188.3z"/>
		<path class="st1" d="M0,0v210h210V0H0z M209,209H1V1h208V209z"/>
	</g>
</g>
</svg>
