<?xml version="1.0" encoding="utf-8"?>
<!-- Generator: Adobe Illustrator 26.5.0, SVG Export Plug-In . SVG Version: 6.00 Build 0)  -->
<svg version="1.1" id="Layer_1" xmlns="http://www.w3.org/2000/svg" xmlns:xlink="http://www.w3.org/1999/xlink" x="0px" y="0px"
	 viewBox="0 0 210 210" style="enable-background:new 0 0 210 210;" xml:space="preserve">
<style type="text/css">
	.st0{fill:none;}
	.st1{fill:#181F1C;}
</style>
<rect y="0" class="st0" width="210" height="210"/>
<g>
	<path class="st1" d="M67.4,169.4c-2.1-1.4-4.7-2.2-7.4-2.2h-0.5c-2.3,0.1-4.7,0.9-6.9,2.3l0,0c-2.1,1.5-3.8,3.6-4.9,5.9
		c-0.6,1.5-0.9,3.3-0.9,5c0,2.7,0.8,5.2,2.2,7.4c1.4,2.1,3.5,3.8,5.9,4.9c1.7,0.6,3.4,1,5.1,1c0.9,0,1.7-0.1,2.5-0.3
		c2.6-0.5,4.9-1.7,6.8-3.6c1.9-1.9,3.1-4.2,3.6-6.8c0.5-2.7,0.3-5.4-0.7-7.7C71.2,172.8,69.5,170.8,67.4,169.4z M56.3,179.8
		c0.2-0.8,0.5-1.4,1.1-2c0.5-0.5,1.2-0.9,2-1.1c0.2-0.1,0.5-0.1,0.7-0.1c0.4,0,0.9,0.1,1.3,0.3c0.7,0.4,1.3,0.8,1.7,1.4
		c0.4,0.5,0.6,1.3,0.6,2.1c0,1-0.4,2-1.1,2.6c-0.7,0.7-1.6,1.1-2.6,1.1c-0.8,0-1.5-0.2-2.1-0.6c-0.7-0.5-1.2-1.1-1.4-1.7
		C56.2,181.3,56.1,180.5,56.3,179.8z"/>
	<path class="st1" d="M105.7,171.3c-1.1-1.2-2.7-2.3-4.3-2.9c-1.6-0.7-3.3-1-5.1-1h-0.4c-2.4,0-4.9,0.8-7,2.3
		c-2.1,1.4-3.8,3.5-4.9,5.9c-1,2.6-1.2,5.2-0.7,7.7c0.5,2.5,1.8,4.9,3.6,6.8c1.9,1.9,4.2,3.1,6.8,3.6c0.9,0.2,1.8,0.3,2.7,0.3
		c1.7,0,3.4-0.3,5-1c2.5-1.1,4.5-2.8,5.9-4.9c1.5-2.2,2.3-4.8,2.3-7.4c0-1.6-0.4-3.4-1-5.1C107.8,173.8,106.8,172.4,105.7,171.3z
		 M92.6,179.8c0.2-0.8,0.5-1.4,1.1-2c0.5-0.5,1.2-0.9,2-1.1c0.2-0.1,0.5-0.1,0.7-0.1c0.4,0,0.9,0.1,1.3,0.3c0.7,0.4,1.3,0.8,1.7,1.4
		c0.4,0.5,0.6,1.3,0.6,2.1c0,1-0.4,2-1.1,2.6c-0.7,0.7-1.6,1.1-2.6,1.1c-0.8,0-1.5-0.2-2.1-0.6c-0.7-0.5-1.2-1.1-1.4-1.7
		C92.5,181.3,92.4,180.5,92.6,179.8z"/>
	<path class="st1" d="M183.8,171.3c-1.1-1.2-2.7-2.3-4.3-2.9c-1.6-0.7-3.3-1-5.1-1h-0.5c-2.5,0.1-4.9,0.9-6.9,2.3
		c-2.1,1.4-3.8,3.5-4.9,5.9c-1,2.6-1.2,5.2-0.7,7.7c0.5,2.5,1.8,4.9,3.6,6.8c1.9,1.9,4.2,3.1,6.8,3.6c0.9,0.2,1.8,0.3,2.7,0.3
		c1.7,0,3.4-0.3,5-1c2.5-1.1,4.5-2.8,5.9-4.9c1.5-2.2,2.3-4.8,2.3-7.4c0-1.6-0.4-3.4-1-5.1C185.9,173.8,184.9,172.4,183.8,171.3z
		 M178.1,180.5c0,1-0.4,2-1.1,2.6c-0.7,0.7-1.6,1.1-2.6,1.1c-0.8,0-1.5-0.2-2.1-0.6c-0.7-0.5-1.2-1.1-1.4-1.7
		c-0.3-0.6-0.3-1.4-0.2-2.1c0.2-0.8,0.5-1.4,1.1-2c0.5-0.5,1.2-0.9,2-1.1c0.2-0.1,0.5-0.1,0.7-0.1c0.4,0,0.9,0.1,1.3,0.3
		c0.7,0.4,1.3,0.8,1.7,1.4C177.9,178.9,178.1,179.7,178.1,180.5z"/>
	<path class="st1" d="M191.9,114.8v-1h-1h-50.6h-1v1V156h-27.7v1h0h-21c0-0.5,0-1,0-1H63.4v1H35.3h-1h-1v20.3h1v0.1h-1v1h1h9h0.8
		l0.1-0.8l-0.9-0.2v-0.1l1,0.2c0.2-1.1,0.5-2,0.9-3l0,0c1.2-3,3.2-5.5,5.9-7.3c2.6-1.8,5.8-2.7,8.9-2.7c3.2,0,6.3,1,8.9,2.7l0.6-0.9
		c0,0,0.1,0.1,0.1,0.1l-0.6,0.8c2.6,1.8,4.7,4.3,5.9,7.3l-0.1,0c0.4,1,0.7,2,0.9,3l0.1,0.8h0.8v-0.9l0.1,0v1h3.1h0.8l0.1-0.8
		c0.2-1.1,0.5-2.1,0.9-3.1c1.3-3.2,3.6-5.9,6.6-7.7s6.4-2.6,9.9-2.2c3.4,0.3,6.7,1.8,9.2,4.1l0.7-0.7c0,0,0,0,0,0l-0.7,0.8
		c2.5,2.3,4.2,5.4,4.9,8.8l-0.1,0l0.2,0.8h0.8l44.4,0.1h0.8l0.2-0.8l0,0c0.7-3.7,2.6-7,5.5-9.4c2.9-2.4,6.5-3.7,10.2-3.7
		s7.3,1.3,10.2,3.7c2.9,2.4,4.8,5.7,5.5,9.4l1-0.2h0l-1,0.2l2-0.2v0h9.7v-43.9h-9.7V114.8z M150.8,125.4h28.5v20.7h-28.5V125.4z
		 M76.6,177.3L76.6,177.3l0.1,0L76.6,177.3z"/>
	<rect x="168.2" y="96.3" class="st1" width="3.7" height="3.7"/>
	<rect x="168.2" y="103.8" class="st1" width="3.7" height="3.7"/>
	<polygon class="st1" points="156.2,101.9 153.5,104.5 156.2,107.2 158.8,104.5 	"/>
	<polygon class="st1" points="161.4,107.2 158.8,109.8 161.4,112.5 164.1,109.8 	"/>
	<polygon class="st1" points="179.9,107.2 177.3,109.8 179.9,112.5 182.5,109.8 	"/>
	<polygon class="st1" points="185.2,101.9 182.6,104.5 185.2,107.2 187.8,104.5 	"/>
	<path class="st1" d="M137.3,114.9H54.8v-0.4l121.9-25.9h24.9v-27h-25v6.7L93.3,85.9c4.4-16-0.8-36.9-14.6-54.3l-0.9,0.5
		c1.6,3.9,3.7,11.7,0.7,19.8c-0.8,2.3-2.1,4.6-3.9,6.7l0,0l0,0c-9.6-10.1-10.9-24-10.3-33.8c0.5-7.6,2.2-14.8,3.5-18.6l0.5-1.5
		l-1.3,1C65.3,7.1,56.4,14,48.2,25.1c-8.1,11.1-16.6,28.3-10.9,47.3c0.2,0.9,0.5,1.9,0.8,2.7c-1.2-0.7-2.3-1.4-3.3-2.3l-12-21.3
		l-0.4,1.1c-0.7,1.9-2.3,7.2-2.7,14.1c-0.5,8.8,1,16.7,4.6,23.7H12.4v-1h-2.2v1H9.1v3.1h1.1v12.9H9.1v3.1h1v5.4H8.4v39.4h128.9
		V114.9z M62.4,63.3c0,0,0.1-0.1,0.1-0.1l0,0l0.3-0.2c0,0,0,0,0,0l0,0.2c0,0.1-0.1,0.2-0.1,0.3c0,0.1,0,0.1-0.1,0.2
		c-0.2,0.4-0.4,1.1-0.6,2.1c-0.4,1.6-0.9,4.1-1.1,6.9c-0.5,6.8,1.1,12.6,4.6,16.7l0.4,0.5l0.4-0.5c0.7-1,1.2-1.9,1.6-2.9
		c1.6-4.4,0.2-8.7-0.9-11.1l0.1,0c3.9,4.6,6.5,9.6,7.9,14.6l-27.8,5.9c-1.9-7.4,0.1-15.1,6-22.9c2.4-3.2,4.9-5.7,6.7-7.2
		c0.7-0.7,1.3-1.2,1.8-1.6l0.4-0.3C62.1,63.5,62.2,63.4,62.4,63.3z M30.5,99.1c1.2,1.4,2.5,2.7,3.9,3.8v1.8l-3.9,0.5l0,0V99.1z
		 M39.1,100.3l36.5-7.7c0.2,1.3,0.4,2.6,0.4,3.8l-35.9,7.2C39.6,102.6,39.3,101.5,39.1,100.3z M92.3,89l84.3-17.8l0,0v4.9L90.3,93.5
		C91.1,92.1,91.7,90.6,92.3,89z M27,95L27,95c0.1,0.2,0.2,0.3,0.3,0.4l0,0c0.1,0.2,0.3,0.4,0.6,0.7l0.3,0.3c0,0,0.1,0.1,0.1,0.1v9.9
		H12.3V93.4H26C26.3,93.9,26.6,94.5,27,95z M40.4,86.1L40.4,86.1c0,0.3,0.1,0.7,0.3,1.2c0.2,0.9,0.6,2,1.1,3.4c1,2.2,2.2,4,3.6,5.4
		l-6.7,1.4c-0.1-1.2-0.1-2.5-0.1-3.9c0.3-3.8,1.3-6.9,1.6-7.8L40.4,86.1z M12.3,109.4h15.9v5.5H12.3V109.4z"/>
	<path class="st1" d="M0,0v210h210V0H0z M209,209H1V1h208V209z"/>
</g>
</svg>
