<?xml version="1.0" encoding="utf-8"?>
<!-- Generator: Adobe Illustrator 26.5.0, SVG Export Plug-In . SVG Version: 6.00 Build 0)  -->
<svg version="1.1" id="Layer_1" xmlns="http://www.w3.org/2000/svg" xmlns:xlink="http://www.w3.org/1999/xlink" x="0px" y="0px"
	 viewBox="0 0 210 210" style="enable-background:new 0 0 210 210;" xml:space="preserve">
<style type="text/css">
	.st0{fill:none;}
	.st1{fill:#181F1C;}
</style>
<g>
	<rect x="147.9" y="65.1" class="st0" width="30.4" height="22.7"/>
	<path class="st0" d="M176.2,121.1c0-2-1.6-3.7-3.7-3.7s-3.7,1.7-3.7,3.7c0,2,1.7,3.7,3.7,3.7C174.6,124.8,176.2,123.1,176.2,121.1z
		"/>
	<polygon class="st0" points="113.5,17.3 96.8,17.3 96.8,28.1 86,28.1 86,44.8 96.8,44.8 96.8,55.6 113.5,55.6 113.5,44.8 
		124.3,44.8 124.3,28.1 113.5,28.1 	"/>
	<path class="st0" d="M58.4,117.4c-2.1,0-3.7,1.7-3.7,3.7c0,2,1.7,3.7,3.7,3.7c2.1,0,3.7-1.7,3.7-3.7
		C62.1,119.1,60.5,117.4,58.4,117.4z"/>
	<rect x="16.6" y="162.8" class="st0" width="7.7" height="6.1"/>
	<rect x="113.7" y="162.8" class="st0" width="7.7" height="6.1"/>
	<path class="st0" d="M94.6,117.4c-2.1,0-3.7,1.7-3.7,3.7c0,2,1.7,3.7,3.7,3.7c2.1,0,3.7-1.7,3.7-3.7
		C98.3,119.1,96.7,117.4,94.6,117.4z"/>
	<path class="st0" d="M1,209h208V1H1V209z M195,199.5c-2.5,0-4.6-2.1-4.6-4.6c0-2,1.3-3.7,3.1-4.3v-11h-3.1v6.1h-39.9v-6.1h-36.8v11
		c1.8,0.6,3.1,2.3,3.1,4.3c0,2.5-2.1,4.6-4.6,4.6c-2.5,0-4.6-2.1-4.6-4.6c0-2,1.3-3.7,3-4.3v-46.3v0h3.1v15.3h10.7v9.2h26.1v-3.1
		h39.9v10.7h3.1v-21.5h3.1v35.5c1.8,0.6,3.1,2.3,3.1,4.3C199.6,197.5,197.5,199.5,195,199.5z M94.6,134.3c-7.3,0-13.2-5.9-13.2-13.2
		c0-1.7,0.3-3.4,1-4.9c2-4.9,6.7-8.3,12.2-8.3c7.3,0,13.2,5.9,13.2,13.2C107.8,128.4,101.9,134.3,94.6,134.3z M159.3,121.1
		c0-1.7,0.3-3.4,1-4.9c2-4.9,6.7-8.3,12.2-8.3c7.3,0,13.2,5.9,13.2,13.2c0,7.3-5.9,13.2-13.2,13.2S159.3,128.4,159.3,121.1z
		 M188.9,74.2h10.7V118h-10.7V74.2z M178.7,26l2.4,2.1l-2.1,2.4l-2.4-2.1L178.7,26z M174.3,31.2l2.4,2.1l-2.3,2.8l-2.4-2.1
		L174.3,31.2z M169.6,36.7l2.4,2.1l-2.1,2.4l-2.4-2.1L169.6,36.7z M161.6,22.5h3.2v3.2h-3.2V22.5z M161.6,29.4h3.2v3.8h-3.2V29.4z
		 M161.6,37h3.2v3.2h-3.2V37z M158,39.2l-2.4,2.1l-2.1-2.4l2.4-2.1L158,39.2z M153.6,34l-2.4,2.1l-2.3-2.8l2.4-2.1L153.6,34z
		 M146.8,26l2.1,2.4l-2.4,2.1l-2.1-2.4L146.8,26z M138.4,55.6h20v-9.5h9.5v9.5h21V118c-1.4-7.9-8.3-13.9-16.7-13.9
		c-7,0-13.1,4.2-15.7,10.6c-0.4,1-0.8,2.2-1,3.3c-1.8,0-42.5-0.1-44.3-0.1c-1.6-8.3-8.6-13.9-16.7-13.9c-7,0-13.1,4.2-15.7,10.6
		c-0.4,1-0.8,2.2-1,3.3h-3c-0.2-1.1-0.5-2.2-0.9-3.2c-2.6-6.5-8.7-10.6-15.7-10.6c-7,0-13.1,4.2-15.7,10.6c-0.4,1-0.7,2.1-0.9,3.3
		h-9V97.7l77,0h28.7V55.6z M71.6,121.1c0,7.3-5.9,13.2-13.2,13.2s-13.2-5.9-13.2-13.2c0-1.7,0.3-3.4,1-4.9c2-4.9,6.7-8.3,12.2-8.3
		C65.7,107.9,71.6,113.8,71.6,121.1z M61.8,97.7h27.1H61.8z M12.1,10.5h121.5v54.6H12.1V10.5z M12.1,69.3h121.5v23.1H12.1V69.3z
		 M13.5,190.6v-46.3v0h3.1v15.3h10.7v9.2h26.1v-3.1h39.9v10.7h3.1v-21.5h3.1v35.5c1.8,0.6,3.1,2.3,3.1,4.3c0,2.5-2.1,4.6-4.6,4.6
		c-2.5,0-4.6-2.1-4.6-4.6c0-2,1.3-3.7,3.1-4.3v-11h-3.1v6.1H53.4v-6.1H16.6v11c1.8,0.6,3.1,2.3,3.1,4.3c0,2.5-2.1,4.6-4.6,4.6
		c-2.5,0-4.6-2.1-4.6-4.6C10.5,193,11.7,191.3,13.5,190.6z"/>
	<g>
		<path class="st1" d="M58.4,107.9c-5.5,0-10.3,3.4-12.2,8.3c-0.6,1.5-1,3.2-1,4.9c0,7.3,5.9,13.2,13.2,13.2s13.2-5.9,13.2-13.2
			C71.6,113.8,65.7,107.9,58.4,107.9z M58.4,124.8c-2,0-3.7-1.7-3.7-3.7c0-2,1.6-3.7,3.7-3.7s3.7,1.7,3.7,3.7
			C62.1,123.1,60.4,124.8,58.4,124.8z"/>
		<path class="st1" d="M94.6,107.9c-5.5,0-10.3,3.4-12.2,8.3c-0.6,1.5-1,3.2-1,4.9c0,7.3,5.9,13.2,13.2,13.2
			c7.3,0,13.2-5.9,13.2-13.2C107.8,113.8,101.9,107.9,94.6,107.9z M94.6,124.8c-2,0-3.7-1.7-3.7-3.7c0-2,1.6-3.7,3.7-3.7
			s3.7,1.7,3.7,3.7C98.3,123.1,96.6,124.8,94.6,124.8z"/>
		<path class="st1" d="M185.7,121.1c0-7.3-5.9-13.2-13.2-13.2c-5.5,0-10.3,3.4-12.2,8.3c-0.6,1.5-1,3.2-1,4.9
			c0,7.3,5.9,13.2,13.2,13.2S185.7,128.4,185.7,121.1z M168.8,121.1c0-2,1.6-3.7,3.7-3.7s3.7,1.7,3.7,3.7c0,2-1.7,3.7-3.7,3.7
			C170.5,124.8,168.8,123.1,168.8,121.1z"/>
		<path class="st1" d="M32.7,97.7V118h9c0.2-1.1,0.5-2.2,0.9-3.3c2.6-6.4,8.7-10.6,15.7-10.6c7,0,13.1,4.2,15.7,10.6
			c0.4,1,0.7,2.1,0.9,3.2h3c0.2-1.1,0.5-2.3,1-3.3c2.5-6.4,8.7-10.6,15.7-10.6c8.1,0,15,5.6,16.7,13.9c1.8,0,42.5,0.1,44.3,0.1
			c0.2-1.1,0.5-2.3,1-3.3c2.5-6.4,8.7-10.6,15.7-10.6c8.4,0,15.2,6,16.7,13.9V55.6h-21v-9.5h-9.5v9.5h-20v42.1h-28.7L32.7,97.7z
			 M147.9,65.1h30.4v22.7h-30.4V65.1z"/>
		<rect x="188.9" y="74.2" class="st1" width="10.7" height="43.9"/>
		<rect x="12.1" y="69.3" class="st1" width="121.5" height="23.1"/>
		<path class="st1" d="M133.6,10.5H12.1v54.6h121.5V10.5z M124.3,44.8h-10.8v10.8H96.8V44.8H86V28.1h10.8V17.3h16.7v10.8h10.8V44.8z
			"/>
		<rect x="161.6" y="37" class="st1" width="3.2" height="3.2"/>
		<rect x="161.6" y="29.4" class="st1" width="3.2" height="3.8"/>
		<rect x="161.6" y="22.5" class="st1" width="3.2" height="3.2"/>
		
			<rect x="168.2" y="37.4" transform="matrix(0.6451 -0.7641 0.7641 0.6451 30.462 143.5747)" class="st1" width="3.2" height="3.2"/>
		
			<rect x="172.5" y="32" transform="matrix(0.6451 -0.7641 0.7641 0.6451 36.1844 145.1413)" class="st1" width="3.6" height="3.2"/>
		
			<rect x="177.3" y="26.6" transform="matrix(0.6451 -0.7641 0.7641 0.6451 41.9136 146.7011)" class="st1" width="3.2" height="3.2"/>
		
			<rect x="154.1" y="37.4" transform="matrix(0.7641 -0.6451 0.6451 0.7641 11.561 109.6459)" class="st1" width="3.2" height="3.2"/>
		
			<rect x="149.6" y="31.8" transform="matrix(0.764 -0.6452 0.6452 0.764 13.9777 105.4746)" class="st1" width="3.2" height="3.6"/>
		<rect x="145" y="26.6" transform="matrix(0.764 -0.6452 0.6452 0.764 16.3819 101.2654)" class="st1" width="3.2" height="3.2"/>
		<path class="st1" d="M15.1,199.5c2.5,0,4.6-2.1,4.6-4.6c0-2-1.3-3.7-3.1-4.3v-11h36.8v6.1h39.9v-6.1h3.1v11
			c-1.8,0.6-3.1,2.3-3.1,4.3c0,2.5,2.1,4.6,4.6,4.6c2.5,0,4.6-2.1,4.6-4.6c0-2-1.3-3.7-3.1-4.3v-35.5h-3.1v21.5h-3.1v-10.7H53.4v3.1
			H27.3v-9.2H16.6v-15.3h-3.1v0v46.3c-1.8,0.6-3,2.3-3,4.3C10.5,197.5,12.5,199.5,15.1,199.5z M16.6,162.8h7.7v6.1h-7.7V162.8z"/>
		<path class="st1" d="M196.5,190.6v-35.5h-3.1v21.5h-3.1v-10.7h-39.9v3.1h-26.1v-9.2h-10.7v-15.3h-3.1v0v46.3c-1.8,0.6-3,2.3-3,4.3
			c0,2.5,2.1,4.6,4.6,4.6c2.5,0,4.6-2.1,4.6-4.6c0-2-1.3-3.7-3.1-4.3v-11h36.8v6.1h39.9v-6.1h3.1v11c-1.8,0.6-3.1,2.3-3.1,4.3
			c0,2.5,2.1,4.6,4.6,4.6c2.5,0,4.6-2.1,4.6-4.6C199.6,193,198.3,191.3,196.5,190.6z M121.4,168.9h-7.7v-6.1h7.7V168.9z"/>
		<path class="st1" d="M0,0v210h210V0H0z M209,209H1V1h208V209z"/>
	</g>
</g>
</svg>
