<?xml version="1.0" encoding="utf-8"?>
<!-- Generator: Adobe Illustrator 26.5.0, SVG Export Plug-In . SVG Version: 6.00 Build 0)  -->
<svg version="1.1" id="Layer_1" xmlns="http://www.w3.org/2000/svg" xmlns:xlink="http://www.w3.org/1999/xlink" x="0px" y="0px"
	 viewBox="0 0 210 210" style="enable-background:new 0 0 210 210;" xml:space="preserve">
<style type="text/css">
	.st0{fill:none;stroke:#181F1C;stroke-width:3;stroke-miterlimit:10;}
	.st1{fill:#181F1C;}
</style>
<path class="st0" d="M100,84l-41.9,17.1L58,154"/>
<g>
	<g>
		<polygon class="st1" points="58,154.3 58,154.3 58,154.3 57.5,154.2 49.2,184.5 50.2,184.7 55.4,165.5 52,184.5 53,184.7 
			56.4,165.8 54.7,184.6 55.7,184.6 57.5,165.3 57.5,184.6 58.5,184.6 58.5,165.3 60.3,184.6 61.3,184.6 59.6,165.8 63,184.7 
			64,184.5 60.6,165.5 65.8,184.7 66.8,184.5 58.5,154.2 		"/>
		<path class="st1" d="M200.7,73.7l2.3-0.9l-2.3-0.9l0.1-0.1L105.4,33l-0.4-0.2l-0.4,0.2l0.4,0.9l-0.1,0l-0.4-1l-95.2,39L7,72.8
			l2.3,0.9l-0.1,0.1L9.7,74v3.4l39.4,16.1v51.3v0.1v0.6l0.6,0.3l0-0.1l53.9,22.4l0.4-0.8l0,0l0,0l0.4,0.8l54-22.4l0.6-0.3v-0.5v-0.2
			V94.3l41.4-16.9V74l0.4-0.2L200.7,73.7z M114.7,73.4c-0.3,0.3-0.9,0.7-1.6,1c-1.5,0.6-3.6,1-6,1v0.2c-2.4,0-4.5-0.4-6-1
			c-0.7-0.3-1.3-0.7-1.6-1C99,73.2,99,73,99,72.8h-0.1c0-0.2,0.1-0.3,0.4-0.6c0.3-0.3,0.9-0.7,1.6-1c1.5-0.6,3.6-1,6-1v-1.1
			c0,0,0.1,0,0.1,0V70c2.4,0,4.5,0.4,6,1c0.7,0.3,1.3,0.7,1.6,1c0.3,0.3,0.4,0.6,0.4,0.7h0.1C115.1,72.9,115,73.1,114.7,73.4z
			 M10.7,76.8v-2.4l38.4,15.7v2.4L10.7,76.8z M199.4,76.8L159,93.2v-2.4l40.4-16.5V76.8z"/>
	</g>
	<polygon class="st1" points="104,168.4 104.4,168.2 104,167.3 103.6,168.2 	"/>
	<path class="st1" d="M58,151.6c-2.3,0-4.2,1.9-4.2,4.2c0,2.3,1.9,4.2,4.2,4.2s4.2-1.9,4.2-4.2C62.2,153.5,60.3,151.7,58,151.6z"/>
	<path class="st1" d="M0,0v210h210V0H0z M209,209H1V1h208V209z"/>
</g>
</svg>
