<?xml version="1.0" encoding="utf-8"?>
<!-- Generator: Adobe Illustrator 26.5.0, SVG Export Plug-In . SVG Version: 6.00 Build 0)  -->
<svg version="1.1" id="Layer_1" xmlns="http://www.w3.org/2000/svg" xmlns:xlink="http://www.w3.org/1999/xlink" x="0px" y="0px"
	 viewBox="0 0 210 210" style="enable-background:new 0 0 210 210;" xml:space="preserve">
<style type="text/css">
	.st0{fill:none;}
	.st1{fill:#181F1C;}
</style>
<rect y="0" class="st0" width="210" height="210"/>
<g>
	<path class="st0" d="M82.5,179.4l2.8,1.2v-11.7c-0.8,0.7-1.8,1.2-2.8,1.6V179.4z"/>
	<path class="st0" d="M82.5,195.5V209h2.8v-17.9C84.3,192.6,83.4,194,82.5,195.5z"/>
	<path class="st0" d="M39.3,146.7c-0.3,0.3-0.7,0.6-1,1v3.9h1V146.7z"/>
	<path class="st0" d="M73.9,209h2v-3.1C75.2,206.9,74.6,208,73.9,209z"/>
	<path class="st0" d="M82.5,188.5c0.9,0,1.9,0.1,2.8,0.2v-5.5c-0.9,0.8-1.8,1.4-2.8,1.9V188.5z"/>
	<polygon class="st0" points="56.8,158 56.8,154.6 53.9,157.2 53.9,160.6 	"/>
	<path class="st0" d="M66.3,158v-2.5c-0.9,0-1.9-0.1-2.9-0.3v2.1L66.3,158z"/>
	<path class="st0" d="M53.9,174.2v2.5c1-0.8,1.9-1.6,2.9-2.5v-2.7L53.9,174.2z"/>
	<path class="st0" d="M65.1,184.3c-0.6-0.2-1.2-0.3-1.8-0.2v14.2c0.9,0,1.9-0.2,2.9-0.5v-13C65.9,184.6,65.5,184.5,65.1,184.3z"/>
	<path class="st0" d="M72.8,186.3v5.7c0.8-1.2,1.8-2,3-2.5v-3C74.9,186.5,73.9,186.4,72.8,186.3z"/>
	<rect x="157.9" y="159.9" class="st0" width="2.9" height="49.1"/>
	<rect x="167.4" y="159.9" class="st0" width="2.9" height="49.1"/>
	<rect x="176.9" y="159.9" class="st0" width="3" height="49.1"/>
	<rect x="186.5" y="159.9" class="st0" width="2.8" height="49.1"/>
	<path class="st0" d="M93.6,142.9c8.1-2.9,11.6-0.5,14.8,2c0.2,0.1,0.4,0.2,0.6,0.4v-2h12.6c0.4-0.9,0.6-2,0.5-3.2
		c0-0.6-0.2-1.2-0.3-1.8h-3.6v-0.7c0-1.1,0-2.2,0-3.3c-0.9-0.4-1.9-0.6-3-0.6v4.6h-6.6c0-0.2,0-0.4,0-0.7c0-0.6,0-1.3,0-1.9
		c-0.1,0.1-0.2,0.1-0.3,0.2c-0.7,0.5-1.6,0.9-2.5,1.3v1.2H104v-0.6c-4.1,1.3-9.5,1.8-14.1,0.3l5.6-6v-2.1h-5v-3.8
		c-4.5,1-7.7,0.2-9.7-2.6v14.6H60.8v-6.4h4.7v-5.9h4.9v-6.4v0h5v-6.2h5.5V105h6c-0.9-0.9-1.8-1.9-2.5-3.2l19.6-6.6V71.6h1.6v23
		l2.9-1c0-7.1,0-14.2,0-21.4c0-0.6,0.1-0.8,0.7-0.7c1.8,0,3.6,0,5.3,0c0.2,0,0.4,0,0.6,0l0,0v7.6l3,0.7c0-2.5,0-5.1,0-7.6
		c0-0.6,0.2-0.7,0.7-0.7c1.8,0,3.6,0,5.5,0c0.4,0,0.6,0.1,0.5,0.6c0,0.1,0,0.2,0,0.4v9.1l2.7,0.7V71.6c0.1,0,0.3,0,0.4,0
		c1.9,0,3.8,0,5.8,0c0.4,0,0.5,0.1,0.5,0.5c0,0.1,0,0.3,0,0.4v11.4l2.9,0.7v-13h6.6v18.2c0.8,2.9,1.8,5.7,2.9,8.5V71.6h6.6v41
		c0.9,1.8,1.9,3.7,2.9,5.5V71.6h1.6v49.5c0.3,0.6,0.7,1.3,1,1.9h1.4V71.6h1.6V123h13.1v-3.5h5v-6.2h5.6V105h20.1v18h2.9V71.6h0.6
		v-4.9h-0.7V1h-2.8v65.7h-6.7V1H196v65.7h-6.6c0-0.2,0-0.4,0-0.5V1h-2.7v65.7H180c0-0.2,0-0.4,0-0.6c0-21.7,0-43.4,0-65.1h-3v65.7
		h-6.7V1h-2.9v65.7h-6.7V1H158v65.7h-1.7V1h-2.4c0,1.8,0,3.6,0,5.4v60.3h-1.7V1h-2.9v32.3h-20.2v0l0,0h0h0v8.3h5.4v6.2h5v6.4h4.9
		v5.9h4.8v6.4h-20.1V42h-4.9v7.8h-4.8v8.5h-5v8.3H109V33.3h20.1v0l0,0l0,0h0V25h-5.5v-6.2h-5v-6.4h-4.9V6.5h-4.8V1h-3v65.7h-1.7V1
		h-2.8v65.7h-6.7c0-0.2,0-0.5,0-0.7V1h-2.9v65.7h-6.6c0-0.2,0-0.4,0-0.6c0-21.7,0-43.4,0-65.1h-2.8v65.7h-6.6c0-0.2,0-0.4,0-0.6
		c0-21.7,0-43.4,0-65h-2.9c0,17.3,0,34.5,0,51.8v13.9h-6.7V1h-2.9v65.7h-6.7V1h-2.8v65.2c0,0.1,0,0.3,0,0.5h-1.7V1h-2.4v65.7h-1.7V1
		h-3.4c0,10.5,0,21,0,31.5v0.8H24.7V25h-5.6v-6.2h-5v-6.4H9.3V6.5H4.5V1H1.6c0,11.5,0,23,0,34.5v31.1H1v5h0.6v66.6H1v5h0.6v32.5
		h15.7c0.7-2.5,1.4-5,2.1-7.6h-0.3V162h-5v-6.4H9.2v-5.9H4.5v-6.5h20.1v6.6c0.3-1.1,0.6-2.1,0.9-3.2l8.6-8.5h-1V71.6h6.6v61.2
		l2.9-2.9V71.6h6.6v53.2c1.6,4.4,1.4,7.8,0,10.8v2.6h-1.5c-1.2,1.8-2.8,3.4-4.5,5h1.7v5.5l3.5-2.9v-2.6h1.6v1.3l2.8-2.4l4.9,1.1h5.8
		v1.3l2.9,0.7v-2h6.6v3.5l3,0.7v-4.2h6.6v18.8l2.8,0.7v-19.5h6.6V209h3v-64.5L93.6,142.9z M165.2,71.6h5.4v8.2h5v8.5h4.9v7.8h4.9
		V71.6h20.1c0,0.2,0.1,0.3,0.1,0.5c0,1.8,0,3.6,0,5.4c0,0.5-0.1,0.6-0.6,0.6c-1.4,0-2.8,0-4.2,0v5.9h-4.9v6.4l-5,0v6.2h-5.5v8.3
		h-20.1V71.6z M60.8,71.6h5.4v8.3h5v8.5h4.9v7.8h4.8V71.6H101V78h-4.7v5.9h-4.9v6.4h-5v6.2h-5.5v8.3H60.8V71.6z M11.1,72.5v65.8H4.5
		V71.6c2.1,0,4.2,0,6.3,0c0.1,0,0.3,0.2,0.3,0.4C11.1,72.1,11.1,72.3,11.1,72.5z M20.7,138.3L20.7,138.3H14v-0.7
		c0-21.7,0-43.5,0-65.2c0-0.6,0.1-0.8,0.7-0.8c2,0,3.9,0,5.9,0V138.3z M30.1,72.5v65.8h0h-6.7v-0.7c0-21.8,0-43.5,0-65.3
		c0-0.6,0.2-0.7,0.7-0.7c1.8,0,3.6,0,5.5,0c0.4,0,0.6,0.1,0.5,0.6C30.1,72.3,30.1,72.4,30.1,72.5z M44.8,66.6H24.7V42h-4.8v7.8h-4.9
		v8.5h-5v8.3H4.5V33.3h20.1v8.3h5.5v6.2h5v6.4c1.6,0,3.2,0,4.9,0h0v5.9h4.7V66.6z M53.6,138.3H52V71.6h1.6V138.3z M57.7,138.3h-1.6
		V71.6h1.6V138.3z"/>
	<rect x="195.9" y="159.9" class="st0" width="3" height="49.1"/>
	<polygon class="st0" points="124.3,185.2 124.3,193 119.4,193 119.4,201.5 114.4,201.5 114.4,209 129.1,209 129.1,185.2 	"/>
	<polygon class="st0" points="101.5,152.9 101.5,209 104.3,209 104.3,156.5 	"/>
	<rect x="153.9" y="159.9" class="st0" width="2.5" height="49.1"/>
	<path class="st0" d="M149.2,159.9v16.6h-20.1v-8.2h-5.6V162h-5v-2.1l-11.5,0l-1.1-1.4V209h3v-32.4h0.7c6.3,0,12.5,0,18.8,0
		c0.6,0,0.7,0.2,0.7,0.8c0,2.3,0,4.5,0,6.8v0.7h5.5v6.2h5c0,2.1,0,4.2,0,6.4h4.8v5.9h4.8v5.7h3.1v-49.1L149.2,159.9z"/>
	<polygon class="st0" points="133.9,167.9 133.9,160.1 138.8,160.1 138.8,159.9 129.1,159.9 129.1,167.9 	"/>
	<path class="st0" d="M108,117.1c-0.8,0.6-1.6,1.1-2.3,1.6v2.5l2-2.2l0.8,0.3c0-0.7,0-1.4,0-2.1L108,117.1z"/>
	<path class="st0" d="M101,121.6v4.6l3-3.2v-3.2C103,120.4,102,121,101,121.6z"/>
	<path class="st0" d="M115.1,122l3,1.1c0-0.8,0-1.6,0-2.4l-3-1.1V122z"/>
	<path class="st0" d="M75.9,160.5v-7.4c-0.9,0.6-1.9,1.2-3,1.6v5.1L75.9,160.5z"/>
	<path class="st0" d="M118.1,87.6c-1.1-1-2.1-2.1-3-3.4v8.5l3,1.4C118.1,91.9,118.1,89.8,118.1,87.6z"/>
	<rect x="205.5" y="159.9" class="st0" width="2.9" height="49.1"/>
	<polygon class="st0" points="80.9,113.6 80.9,119.9 85.8,117.3 85.8,113.6 	"/>
	<path class="st0" d="M124.8,97.3l2.7,1.3v-6.7c-1-0.2-1.9-0.4-2.7-0.6V97.3z"/>
	<path class="st0" d="M104,105.9c-1,0.4-2,0.8-3,1v2.3l3-1.6V105.9z"/>
	<path class="st0" d="M108.5,105.3c0-0.5,0-0.9,0-1.4c-1,0.5-1.9,0.9-2.9,1.3v1.6L108.5,105.3z"/>
	<path class="st0" d="M115.1,107.2c1,0.5,2,0.9,3,1.4c0-1,0-2,0-3l-3-1.4V107.2z"/>
	<path class="st0" d="M124.8,108.8v2.9c0.9,0.4,1.8,0.8,2.7,1.3V110L124.8,108.8z"/>
	<polygon class="st0" points="49.8,160.9 49.8,164.1 52.3,162 52.3,158.7 	"/>
	<polygon class="st0" points="50.7,177.1 52.3,178 52.3,175.7 	"/>
	<path class="st0" d="M72.8,175.4l3,1.3v-5.3c-1,0-2-0.1-3-0.3V175.4z"/>
	<path class="st0" d="M66.3,169.7c-1-0.3-1.9-0.6-2.9-0.9v2.7l2.9,1.2V169.7z"/>
	<path class="st0" d="M56.8,193.8v-2.6C56.6,192,56.6,192.9,56.8,193.8z"/>
	<path class="st0" d="M129.2,24.6h4.8v-7.8h4.9V8.3h4.9c0-0.1,0.1-0.2,0.1-0.2c0-2.4,0-4.7,0-7.1h-14.7v23.2
		C129.1,24.3,129.1,24.5,129.2,24.6z"/>
	<polygon class="st0" points="190.2,121.4 190.2,113.6 185.3,113.6 185.3,123 195,123 195,121.4 	"/>
	<path class="st0" d="M24.6,24.6h4.8v-7.8h4.9V8.3h5V1H24.6c0,7.6,0,15.2,0,22.8C24.6,24.1,24.6,24.4,24.6,24.6z"/>
	<polygon class="st0" points="44.7,165.5 44.7,167.2 45.5,167.9 48.2,165.5 48.2,162.3 	"/>
	<g>
		<polygon class="st1" points="129.1,33.3 129.1,33.3 129.1,33.3 129.1,33.3 129.1,33.3 129.1,33.3 129.1,33.3 129.1,33.3 		"/>
		<path class="st1" d="M210,0.3V0h-1.6l-0.1,0c0,0,0,0,0,0h-9.2l-0.2,0c0,0,0,0,0,0h-3l0,0h-6.7c0,0,0,0,0,0h-4.9L180,0c0,0,0,0,0,0
			h-30.6c0,0,0,0,0,0h-5.6c0,0,0,0,0,0h-14.7c0,0,0,0,0,0h-20.2v0H89.8l-4.5,0c0,0,0,0,0,0h-4.9l-4.5,0c0,0,0,0,0,0h-9.4l-0.2,0v0H0
			v0h0c0,0.1,0,0.2,0,0.3v65.9c0,0.2,0,0.3,0,0.5h0v5h0v66.6h0v5h0v32.5v34.2h0v0.1h73.3H210v-50.1V123V66.7h0v-0.8
			c0-21.7,0-43.4,0-65.1C210,0.6,210,0.4,210,0.3z M143.8,1c0,2.4,0,4.7,0,7.1c0,0.1,0,0.2-0.1,0.2h-4.9v8.5h-4.9v7.8h-4.8
			c0-0.1,0-0.3,0-0.4V1H143.8z M24.6,1h14.7v7.3h-5v8.5h-4.9v7.8h-4.8c0-0.3,0-0.5,0-0.8C24.6,16.2,24.6,8.6,24.6,1z M72.8,192v-5.7
			c1.1,0.1,2.1,0.2,3,0.2v3C74.7,190,73.6,190.8,72.8,192z M52.3,178l-1.5-0.9l1.5-1.4V178z M53.9,174.2l2.9-2.6v2.7
			c-1,0.8-1.9,1.6-2.9,2.5V174.2z M75.9,176.7l-3-1.3v-4.3c1.1,0.1,2.1,0.2,3,0.3V176.7z M66.3,172.7l-2.9-1.2v-2.7
			c1,0.3,2,0.6,2.9,0.9V172.7z M56.8,193.8c-0.2-0.9-0.2-1.8,0-2.6V193.8z M63.4,184.1c0.6,0,1.2,0,1.8,0.2c0.4,0.1,0.8,0.2,1.2,0.4
			v13c-1,0.4-2,0.5-2.9,0.5V184.1z M82.5,185.1c1-0.5,2-1.1,2.8-1.9v5.5c-0.9-0.1-1.9-0.2-2.8-0.2V185.1z M85.3,180.6l-2.8-1.2v-8.9
			c1-0.4,2-0.9,2.8-1.6V180.6z M75.9,160.5l-3-0.8v-5.1c1.1-0.4,2.1-0.9,3-1.6V160.5z M66.3,158l-2.9-0.7v-2.1c1,0.2,2,0.2,2.9,0.3
			V158z M56.8,158l-2.9,2.5v-3.3l2.9-2.6V158z M52.3,162l-2.5,2.1v-3.2l2.5-2.2V162z M48.2,165.5l-2.8,2.4l-0.7-0.7v-1.8l3.5-3.1
			V165.5z M39.3,151.6h-1v-3.9c0.3-0.3,0.7-0.6,1-1V151.6z M75.9,205.9v3.1h-2C74.6,208,75.2,206.9,75.9,205.9z M82.5,195.5
			c0.9-1.5,1.9-3,2.8-4.5V209h-2.8V195.5z M101.5,152.9l2.8,3.6V209h-2.8V152.9z M129.1,209h-14.7v-7.5h5V193h4.9v-7.8h4.8V209z
			 M144.4,203.3v-5.9h-4.8c0-2.2,0-4.3,0-6.4h-5v-6.2h-5.5v-0.7c0-2.3,0-4.5,0-6.8c0-0.6-0.2-0.8-0.7-0.8c-6.3,0-12.5,0-18.8,0H109
			V209h-3v-50.5l1.1,1.4l11.5,0v2.1h5v6.2h5.6v8.2h20.1v-16.6l3.1,0V209h-3.1v-5.7H144.4z M101,106.9c1-0.3,2-0.6,3-1v1.8l-3,1.6
			V106.9z M115.1,104.2l3,1.4c0,1,0,2,0,3c-1-0.5-2-0.9-3-1.4V104.2z M124.8,108.8l2.7,1.3v2.9c-0.9-0.4-1.8-0.8-2.7-1.3V108.8z
			 M127.5,98.6l-2.7-1.3v-6.1c0.9,0.3,1.8,0.5,2.7,0.6V98.6z M118.1,94.1l-3-1.4v-8.5c0.8,1.3,1.8,2.4,3,3.4
			C118.1,89.8,118.1,91.9,118.1,94.1z M108.5,105.3l-2.9,1.5v-1.6c0.9-0.4,1.9-0.9,2.9-1.3C108.5,104.3,108.5,104.8,108.5,105.3z
			 M85.8,117.3l-4.9,2.6v-6.3h4.9V117.3z M101,121.6c1-0.6,2-1.2,3-1.8v3.2l-3,3.2V121.6z M105.6,118.7c0.8-0.5,1.5-1,2.3-1.6
			l0.5,0.2c0,0.7,0,1.4,0,2.1l-0.8-0.3l-2,2.2V118.7z M115.1,119.7l3,1.1c0,0.8,0,1.6,0,2.4l-3-1.1V119.7z M138.8,159.9v0.2h-4.9
			v7.8h-4.8v-8L138.8,159.9z M153.9,159.9l2.5,0V209h-2.5V159.9z M157.9,159.9l2.9,0V209h-2.9V159.9z M195,121.4v1.6h-9.7v-9.4h4.8
			v7.8H195z M167.4,159.9l2.9,0V209h-2.9V159.9z M176.9,159.9l3,0V209h-3V159.9z M186.5,159.9l2.8,0V209h-2.8V159.9z M195.9,159.9
			l3,0V209h-3V159.9z M205.5,159.9l2.9,0V209h-2.9V159.9z M209,71.6h-0.6V123h-2.9v-18h-20.1v8.3h-5.6v6.2h-5v3.5h-13.1V71.6h-1.6
			V123h-1.4c-0.3-0.6-0.7-1.3-1-1.9V71.6h-1.6v46.5c-1-1.8-2-3.7-2.9-5.5v-41h-6.6v26.8c-1.1-2.8-2.1-5.6-2.9-8.5V71.6h-6.6v13
			l-2.9-0.7V72.6c0-0.1,0-0.3,0-0.4c0-0.4-0.1-0.5-0.5-0.5c-1.9,0-3.8,0-5.8,0c-0.1,0-0.2,0-0.4,0v10.6l-2.7-0.7v-9.1
			c0-0.1,0-0.2,0-0.4c0.1-0.4-0.1-0.6-0.5-0.6c-1.8,0-3.6,0-5.5,0c-0.5,0-0.7,0.1-0.7,0.7c0,2.5,0,5.1,0,7.6l-3-0.7v-7.6l0,0
			c-0.2,0-0.4,0-0.6,0c-1.8,0-3.6,0-5.3,0c-0.6,0-0.7,0.2-0.7,0.7c0,7.1,0,14.2,0,21.4l-2.9,1v-23H104v23.5l-19.6,6.6
			c0.7,1.3,1.6,2.4,2.5,3.2h-6v8.2h-5.5v6.2h-5v0v6.4h-4.9v5.9h-4.7v6.4h20.1v-14.6c2,2.8,5.2,3.6,9.7,2.6v3.8h5v2.1l-5.6,6
			c4.6,1.4,9.9,1,14.1-0.3v0.6h1.6v-1.2c0.9-0.4,1.8-0.8,2.5-1.3c0.1-0.1,0.2-0.1,0.3-0.2c0,0.6,0,1.3,0,1.9c0,0.2,0,0.4,0,0.7h6.6
			v-4.6c1.1,0,2.1,0.2,3,0.6c0,1.1,0,2.2,0,3.3v0.7h3.6c0.2,0.6,0.3,1.2,0.3,1.8c0.1,1.2-0.1,2.3-0.5,3.2H109v2
			c-0.2-0.1-0.4-0.2-0.6-0.4c-3.3-2.5-6.7-4.9-14.8-2l1.3,1.6V209h-3v-65.7h-6.6v19.5l-2.8-0.7v-18.8h-6.6v4.2l-3-0.7v-3.5h-6.6v2
			l-2.9-0.7v-1.3h-5.8l-4.9-1.1l-2.8,2.4v-1.3h-1.6v2.6l-3.5,2.9v-5.5h-1.7c1.7-1.6,3.3-3.2,4.5-5h1.5v-2.6c1.4-3,1.6-6.5,0-10.8
			V71.6h-6.6v58.3l-2.9,2.9V71.6H33v66.6h1l-8.6,8.5c-0.3,1.1-0.6,2.1-0.9,3.2v-6.6H4.5v6.5h4.7v5.9h4.9v6.4h5v6.2h0.3
			c-0.7,2.5-1.4,5-2.1,7.6H1.6v-32.5H1v-5h0.6V71.6H1v-5h0.6V35.5c0-11.5,0-23,0-34.5h2.8v5.5h4.8v5.9h4.8v6.4h5V25h5.6v8.3h20.1
			v-0.8c0-10.5,0-21,0-31.5h3.4v65.7h1.7V1h2.4v65.7h1.7c0-0.2,0-0.3,0-0.5V1h2.8v65.7h6.7V1h2.9v65.7h6.7V52.8
			c0-17.3,0-34.5,0-51.8h2.9c0,21.7,0,43.4,0,65c0,0.2,0,0.4,0,0.6h6.6V1h2.8c0,21.7,0,43.4,0,65.1c0,0.2,0,0.4,0,0.6h6.6V1h2.9v65
			c0,0.2,0,0.4,0,0.7h6.7V1h2.8v65.7h1.7V1h3v5.5h4.8v5.9h4.9v6.4h5V25h5.5v8.3h20.2V1h2.9v65.7h1.7V6.4c0-1.8,0-3.6,0-5.4h2.4v65.7
			h1.7V1h2.8v65.7h6.7V1h2.9v65.7h6.7V1h3c0,21.7,0,43.4,0,65.1c0,0.2,0,0.4,0,0.6h6.6V1h2.7v65.1c0,0.2,0,0.3,0,0.5h6.6V1h2.9v65.7
			h6.7V1h2.8v65.7h0.7V71.6z"/>
		<polygon class="st1" points="109,66.6 114.4,66.6 114.4,58.3 119.4,58.3 119.4,49.8 124.2,49.8 124.2,42 129.1,42 129.1,66.5 
			149.2,66.5 149.2,60.1 144.4,60.1 144.4,54.2 139.6,54.2 139.6,47.8 134.5,47.8 134.5,41.6 129.1,41.6 129.1,33.3 109,33.3 		"/>
		<path class="st1" d="M185.4,71.6v24.6h-4.9v-7.8h-4.9v-8.5h-5v-8.2h-5.4v33.2h20.1v-8.3h5.5v-6.2l5,0v-6.4h4.9v-5.9
			c1.5,0,2.8,0,4.2,0c0.4,0,0.6-0.1,0.6-0.6c0-1.8,0-3.6,0-5.4c0-0.2-0.1-0.3-0.1-0.5H185.4z"/>
		<path class="st1" d="M40,54.2L40,54.2c-1.7,0-3.3,0-4.9,0v-6.4h-5v-6.2h-5.5v-8.3H4.5v33.2h5.4v-8.3h5v-8.5h4.9V42h4.8v24.6h20.1
			v-6.4H40V54.2z"/>
		<polygon class="st1" points="80.9,96.2 76.1,96.2 76.1,88.4 71.2,88.4 71.2,79.9 66.2,79.9 66.2,71.6 60.8,71.6 60.8,104.8 
			80.9,104.8 80.9,96.5 86.4,96.5 86.4,90.3 91.4,90.3 91.4,83.9 96.3,83.9 96.3,78 101,78 101,71.6 80.9,71.6 		"/>
		<path class="st1" d="M10.7,71.6c-2.1,0-4.1,0-6.3,0v66.7h6.6V72.5c0-0.2,0-0.3,0-0.5C11,71.8,10.9,71.6,10.7,71.6z"/>
		<path class="st1" d="M14.7,71.6c-0.6,0-0.7,0.2-0.7,0.8c0,21.7,0,43.5,0,65.2v0.7h6.6h0V71.6C18.6,71.6,16.7,71.6,14.7,71.6z"/>
		<path class="st1" d="M29.6,71.6c-1.8,0-3.6,0-5.5,0c-0.5,0-0.7,0.1-0.7,0.7c0,21.8,0,43.5,0,65.3v0.7h6.7h0V72.5
			c0-0.1,0-0.2,0-0.4C30.2,71.7,30,71.6,29.6,71.6z"/>
		<rect x="56.1" y="71.6" class="st1" width="1.6" height="66.6"/>
		<rect x="52" y="71.6" class="st1" width="1.6" height="66.6"/>
	</g>
</g>
</svg>
